v 1.000000 1.000000 0.468750
v 1.000000 0.000000 0.468750
v 0.000000 0.000000 0.468750
v 0.000000 1.000000 0.468750
v 0.000000 1.000000 0.531250
v 0.000000 0.000000 0.531250
v 1.000000 0.000000 0.531250
v 1.000000 1.000000 0.531250
v 0.187500 0.875000 0.468750
v 0.187500 0.875000 0.531250
v 0.812500 0.875000 0.531250
v 0.812500 0.875000 0.468750
v 0.187500 0.000000 0.468750
v 0.187500 0.000000 0.531250
v 0.375000 0.812500 0.531250
v 0.375000 0.812500 0.468750
v 0.687500 0.812500 0.468750
v 0.687500 0.812500 0.531250
v 0.812500 0.000000 0.531250
v 0.812500 0.000000 0.468750
v 0.375000 0.062500 0.531250
v 0.375000 0.062500 0.468750
v 0.437500 0.812500 0.468750
v 0.437500 0.062500 0.468750
v 0.437500 0.062500 0.531250
v 0.437500 0.812500 0.531250
v 0.500000 0.812500 0.531250
v 0.500000 0.062500 0.531250
v 0.500000 0.062500 0.468750
v 0.500000 0.812500 0.468750
v 0.562500 0.812500 0.468750
v 0.562500 0.062500 0.468750
v 0.562500 0.062500 0.531250
v 0.562500 0.812500 0.531250
v 0.625000 0.812500 0.531250
v 0.625000 0.062500 0.531250
v 0.625000 0.062500 0.468750
v 0.625000 0.812500 0.468750
v 0.687500 0.062500 0.468750
v 0.687500 0.062500 0.531250
v 0.375000 0.500000 0.468750
v 0.375000 0.500000 0.531250
v 0.687500 0.500000 0.531250
v 0.687500 0.500000 0.468750
v 0.375000 0.437500 0.531250
v 0.375000 0.437500 0.468750
v 0.687500 0.437500 0.468750
v 0.687500 0.437500 0.531250
vn 0.000000 0.000000 -1.000000
vn 0.000000 0.000000 1.000000
vn 0.000000 1.000000 0.000000
vn -1.000000 0.000000 0.000000
vn 0.000000 -1.000000 0.000000
vn 1.000000 0.000000 0.000000
vt 0.312469 0.593719
vt 0.312469 0.578156
vt 0.296906 0.578156
vt 0.296906 0.593719
vt 0.296906 0.593719
vt 0.296906 0.578156
vt 0.312469 0.578156
vt 0.312469 0.593719
vt 0.299824 0.591795
vt 0.299824 0.590822
vt 0.309551 0.590822
vt 0.309551 0.591795
vt 0.300779 0.591770
vt 0.300779 0.578152
vt 0.299807 0.578152
vt 0.299807 0.591770
vt 0.302744 0.591795
vt 0.302744 0.590822
vt 0.307608 0.590822
vt 0.307608 0.591795
vt 0.309568 0.591770
vt 0.309568 0.578152
vt 0.308596 0.578152
vt 0.308596 0.591770
vt 0.302732 0.590797
vt 0.302732 0.579124
vt 0.301760 0.579124
vt 0.301760 0.590797
vt 0.304686 0.590797
vt 0.304686 0.579124
vt 0.303713 0.579124
vt 0.303713 0.590797
vt 0.304686 0.590797
vt 0.304686 0.579124
vt 0.303713 0.579124
vt 0.303713 0.590797
vt 0.306639 0.590797
vt 0.306639 0.579124
vt 0.305666 0.579124
vt 0.305666 0.590797
vt 0.306639 0.590797
vt 0.306639 0.579124
vt 0.305666 0.579124
vt 0.305666 0.590797
vt 0.308592 0.590797
vt 0.308592 0.579124
vt 0.307619 0.579124
vt 0.307619 0.590797
vt 0.302744 0.585936
vt 0.302744 0.584963
vt 0.307608 0.584963
vt 0.307608 0.585936
vt 0.302744 0.585936
vt 0.302744 0.584963
vt 0.307608 0.584963
vt 0.307608 0.585936
vt 0.299824 0.579100
vt 0.299824 0.578127
vt 0.309551 0.578127
vt 0.309551 0.579100
vt 0.302744 0.579100
vt 0.302744 0.578127
vt 0.307608 0.578127
vt 0.307608 0.579100
f 1/1/1 2/2/1 3/3/1 4/4/1
f 5/5/2 6/6/2 7/7/2 8/8/2
f 9/9/3 10/10/3 11/11/3 12/12/3
f 9/13/4 13/14/4 14/15/4 10/16/4
f 15/17/5 16/18/5 17/19/5 18/20/5
f 11/21/6 19/22/6 20/23/6 12/24/6
f 15/25/6 21/26/6 22/27/6 16/28/6
f 23/29/4 24/30/4 25/31/4 26/32/4
f 27/33/6 28/34/6 29/35/6 30/36/6
f 31/37/4 32/38/4 33/39/4 34/40/4
f 35/41/6 36/42/6 37/43/6 38/44/6
f 17/45/4 39/46/4 40/47/4 18/48/4
f 41/49/3 42/50/3 43/51/3 44/52/3
f 45/53/5 46/54/5 47/55/5 48/56/5
f 14/57/5 13/58/5 20/59/5 19/60/5
f 22/61/3 21/62/3 40/63/3 39/64/3
