v 1.000000 1.000000 0.468750
v 1.000000 0.000000 0.468750
v 0.000000 0.000000 0.468750
v 0.000000 1.000000 0.468750
v 0.000000 1.000000 0.531250
v 0.000000 0.000000 0.531250
v 1.000000 0.000000 0.531250
v 1.000000 1.000000 0.531250
v 0.500000 1.000000 0.468750
v 0.500000 1.000000 0.531250
v 0.562500 1.000000 0.531250
v 0.562500 1.000000 0.468750
v 0.500000 0.937500 0.468750
v 0.500000 0.937500 0.531250
v 0.562500 0.812500 0.531250
v 0.562500 0.812500 0.468750
v 0.250000 0.937500 0.468750
v 0.250000 0.937500 0.531250
v 0.625000 0.937500 0.531250
v 0.625000 0.937500 0.468750
v 0.250000 0.187500 0.468750
v 0.250000 0.187500 0.531250
v 0.312500 0.937500 0.531250
v 0.312500 0.875000 0.531250
v 0.312500 0.875000 0.468750
v 0.312500 0.937500 0.468750
v 0.437500 0.937500 0.468750
v 0.437500 0.812500 0.468750
v 0.437500 0.812500 0.531250
v 0.437500 0.937500 0.531250
v 0.562500 0.875000 0.531250
v 0.562500 0.875000 0.468750
v 0.625000 0.875000 0.468750
v 0.625000 0.875000 0.531250
v 0.625000 0.000000 0.531250
v 0.625000 0.000000 0.468750
v 0.187500 0.875000 0.468750
v 0.187500 0.875000 0.531250
v 0.750000 0.875000 0.531250
v 0.750000 0.875000 0.468750
v 0.187500 0.250000 0.468750
v 0.187500 0.250000 0.531250
v 0.375000 0.875000 0.531250
v 0.375000 0.812500 0.531250
v 0.375000 0.812500 0.468750
v 0.375000 0.875000 0.468750
v 0.625000 0.812500 0.468750
v 0.625000 0.812500 0.531250
v 0.750000 0.312500 0.531250
v 0.750000 0.312500 0.468750
v 0.125000 0.812500 0.468750
v 0.125000 0.812500 0.531250
v 0.812500 0.812500 0.531250
v 0.812500 0.812500 0.468750
v 0.125000 0.750000 0.531250
v 0.125000 0.750000 0.468750
v 0.187500 0.750000 0.468750
v 0.187500 0.750000 0.531250
v 0.812500 0.562500 0.531250
v 0.812500 0.562500 0.468750
v 0.187500 0.687500 0.531250
v 0.187500 0.687500 0.468750
v 0.875000 0.687500 0.468750
v 0.875000 0.687500 0.531250
v 0.812500 0.750000 0.468750
v 0.812500 0.750000 0.531250
v 0.875000 0.750000 0.531250
v 0.875000 0.750000 0.468750
v 0.875000 0.500000 0.531250
v 0.875000 0.500000 0.468750
v 0.750000 0.625000 0.468750
v 0.750000 0.625000 0.531250
v 0.812500 0.625000 0.531250
v 0.812500 0.625000 0.468750
v 0.187500 0.562500 0.468750
v 0.187500 0.562500 0.531250
v 0.875000 0.562500 0.531250
v 0.875000 0.562500 0.468750
v 0.187500 0.500000 0.531250
v 0.187500 0.500000 0.468750
v 0.250000 0.437500 0.531250
v 0.250000 0.437500 0.468750
v 0.750000 0.437500 0.468750
v 0.750000 0.437500 0.531250
v 0.312500 0.437500 0.468750
v 0.312500 0.312500 0.468750
v 0.312500 0.312500 0.531250
v 0.312500 0.437500 0.531250
v 0.687500 0.437500 0.531250
v 0.687500 0.125000 0.531250
v 0.687500 0.125000 0.468750
v 0.687500 0.437500 0.468750
v 0.687500 0.375000 0.468750
v 0.687500 0.375000 0.531250
v 0.750000 0.375000 0.531250
v 0.750000 0.375000 0.468750
v 0.687500 0.312500 0.531250
v 0.687500 0.312500 0.468750
v 0.187500 0.312500 0.468750
v 0.187500 0.312500 0.531250
v 0.250000 0.250000 0.468750
v 0.250000 0.250000 0.531250
v 0.375000 0.187500 0.468750
v 0.375000 0.187500 0.531250
v 0.375000 0.000000 0.468750
v 0.375000 0.000000 0.531250
v 0.625000 0.125000 0.531250
v 0.625000 0.125000 0.468750
vn 0.000000 0.000000 -1.000000
vn 0.000000 0.000000 1.000000
vn 0.000000 1.000000 0.000000
vn -1.000000 0.000000 0.000000
vn 1.000000 0.000000 0.000000
vn 0.000000 -1.000000 0.000000
vt 0.187469 0.906219
vt 0.187469 0.890656
vt 0.171906 0.890656
vt 0.171906 0.906219
vt 0.171906 0.906219
vt 0.171906 0.890656
vt 0.187469 0.890656
vt 0.187469 0.906219
vt 0.179689 0.906248
vt 0.179689 0.905275
vt 0.180662 0.905275
vt 0.180662 0.906248
vt 0.180662 0.906248
vt 0.180662 0.905275
vt 0.179689 0.905275
vt 0.179689 0.906248
vt 0.180662 0.906244
vt 0.180662 0.903326
vt 0.179689 0.903326
vt 0.179689 0.906244
vt 0.175793 0.905272
vt 0.175793 0.904299
vt 0.181629 0.904299
vt 0.181629 0.905272
vt 0.176756 0.905251
vt 0.176756 0.893578
vt 0.175783 0.893578
vt 0.175783 0.905251
vt 0.176756 0.905272
vt 0.176756 0.904299
vt 0.175783 0.904299
vt 0.175783 0.905272
vt 0.179686 0.905270
vt 0.179686 0.903324
vt 0.178713 0.903324
vt 0.178713 0.905270
vt 0.180666 0.905272
vt 0.180666 0.904299
vt 0.181639 0.904299
vt 0.181639 0.905272
vt 0.181639 0.905245
vt 0.181639 0.890654
vt 0.180666 0.890654
vt 0.180666 0.905245
vt 0.174822 0.904295
vt 0.174822 0.903322
vt 0.183577 0.903322
vt 0.183577 0.904295
vt 0.175779 0.904278
vt 0.175779 0.894550
vt 0.174807 0.894550
vt 0.174807 0.904278
vt 0.177732 0.904295
vt 0.177732 0.903322
vt 0.176760 0.903322
vt 0.176760 0.904295
vt 0.182615 0.904295
vt 0.182615 0.903322
vt 0.181643 0.903322
vt 0.181643 0.904295
vt 0.183592 0.904280
vt 0.183592 0.895525
vt 0.182619 0.895525
vt 0.182619 0.904280
vt 0.173849 0.903318
vt 0.173849 0.902346
vt 0.184549 0.902346
vt 0.184549 0.903318
vt 0.173830 0.903318
vt 0.173830 0.902346
vt 0.174803 0.902346
vt 0.174803 0.903318
vt 0.174803 0.903318
vt 0.174803 0.902346
vt 0.173830 0.902346
vt 0.173830 0.903318
vt 0.184568 0.903313
vt 0.184568 0.899422
vt 0.183596 0.899422
vt 0.183596 0.903313
vt 0.174826 0.902342
vt 0.174826 0.901369
vt 0.185526 0.901369
vt 0.185526 0.902342
vt 0.184572 0.902342
vt 0.184572 0.901369
vt 0.185545 0.901369
vt 0.185545 0.902342
vt 0.185545 0.902336
vt 0.185545 0.898445
vt 0.184572 0.898445
vt 0.184572 0.902336
vt 0.183596 0.900389
vt 0.183596 0.899416
vt 0.184568 0.899416
vt 0.184568 0.900389
vt 0.174826 0.899412
vt 0.174826 0.898439
vt 0.185526 0.898439
vt 0.185526 0.899412
vt 0.174826 0.899412
vt 0.174826 0.898439
vt 0.185526 0.898439
vt 0.185526 0.899412
vt 0.175797 0.898436
vt 0.175797 0.897463
vt 0.183578 0.897463
vt 0.183578 0.898436
vt 0.177732 0.897457
vt 0.177732 0.895512
vt 0.176760 0.895512
vt 0.176760 0.897457
vt 0.182615 0.897451
vt 0.182615 0.892588
vt 0.181643 0.892588
vt 0.181643 0.897451
vt 0.182619 0.896482
vt 0.182619 0.895510
vt 0.183592 0.895510
vt 0.183592 0.896482
vt 0.182619 0.896482
vt 0.182619 0.895510
vt 0.183592 0.895510
vt 0.183592 0.896482
vt 0.174809 0.895506
vt 0.174809 0.894533
vt 0.176754 0.894533
vt 0.176754 0.895506
vt 0.174807 0.895506
vt 0.174807 0.894533
vt 0.175779 0.894533
vt 0.175779 0.895506
vt 0.175785 0.894529
vt 0.175785 0.893557
vt 0.177731 0.893557
vt 0.177731 0.894529
vt 0.178709 0.893549
vt 0.178709 0.890631
vt 0.177736 0.890631
vt 0.177736 0.893549
vt 0.181643 0.893553
vt 0.181643 0.892580
vt 0.182615 0.892580
vt 0.182615 0.893553
vt 0.177742 0.891600
vt 0.177742 0.890627
vt 0.181633 0.890627
vt 0.181633 0.891600
f 1/1/1 2/2/1 3/3/1 4/4/1
f 5/5/2 6/6/2 7/7/2 8/8/2
f 9/9/3 10/10/3 11/11/3 12/12/3
f 9/13/4 13/14/4 14/15/4 10/16/4
f 11/17/5 15/18/5 16/19/5 12/20/5
f 17/21/3 18/22/3 19/23/3 20/24/3
f 17/25/4 21/26/4 22/27/4 18/28/4
f 23/29/5 24/30/5 25/31/5 26/32/5
f 27/33/4 28/34/4 29/35/4 30/36/4
f 31/37/6 32/38/6 33/39/6 34/40/6
f 19/41/5 35/42/5 36/43/5 20/44/5
f 37/45/3 38/46/3 39/47/3 40/48/3
f 37/49/4 41/50/4 42/51/4 38/52/4
f 43/53/5 44/54/5 45/55/5 46/56/5
f 33/57/4 47/58/4 48/59/4 34/60/4
f 39/61/5 49/62/5 50/63/5 40/64/5
f 51/65/3 52/66/3 53/67/3 54/68/3
f 55/69/6 56/70/6 57/71/6 58/72/6
f 51/73/4 56/74/4 55/75/4 52/76/4
f 53/77/5 59/78/5 60/79/5 54/80/5
f 61/81/6 62/82/6 63/83/6 64/84/6
f 65/85/3 66/86/3 67/87/3 68/88/3
f 67/89/5 69/90/5 70/91/5 68/92/5
f 71/93/3 72/94/3 73/95/3 74/96/3
f 75/97/3 76/98/3 77/99/3 78/100/3
f 79/101/6 80/102/6 70/103/6 69/104/6
f 81/105/6 82/106/6 83/107/6 84/108/6
f 85/109/4 86/110/4 87/111/4 88/112/4
f 89/113/5 90/114/5 91/115/5 92/116/5
f 93/117/3 94/118/3 95/119/3 96/120/3
f 97/121/6 98/122/6 50/123/6 49/124/6
f 99/125/3 100/126/3 87/127/3 86/128/3
f 42/129/6 41/130/6 101/131/6 102/132/6
f 22/133/6 21/134/6 103/135/6 104/136/6
f 103/137/4 105/138/4 106/139/4 104/140/4
f 107/141/6 108/142/6 91/143/6 90/144/6
f 106/145/6 105/146/6 36/147/6 35/148/6
