v 0.000000 0.500000 0.000000
v 0.000000 0.500000 1.000000
v 1.000000 0.500000 1.000000
v 1.000000 0.500000 0.000000
v 0.000000 0.000000 1.000000
v 0.000000 0.000000 0.000000
v 1.000000 0.000000 0.000000
v 1.000000 0.000000 1.000000
vn 0.000000 1.000000 0.000000
vn 0.000000 -1.000000 0.000000
vn 0.000000 0.000000 -1.000000
vn 0.000000 0.000000 1.000000
vn -1.000000 0.000000 0.000000
vn 1.000000 0.000000 0.000000
vt 0.171906 0.921844
vt 0.171906 0.906281
vt 0.187469 0.906281
vt 0.187469 0.921844
vt 0.171906 0.921844
vt 0.171906 0.906281
vt 0.187469 0.906281
vt 0.187469 0.921844
vt 0.171906 0.914047
vt 0.171906 0.906265
vt 0.187469 0.906265
vt 0.187469 0.914047
vt 0.171906 0.914047
vt 0.171906 0.906265
vt 0.187469 0.906265
vt 0.187469 0.914047
vt 0.171906 0.914047
vt 0.171906 0.906265
vt 0.187469 0.906265
vt 0.187469 0.914047
vt 0.171906 0.914047
vt 0.171906 0.906265
vt 0.187469 0.906265
vt 0.187469 0.914047
f 1/1/1 2/2/1 3/3/1 4/4/1
f 5/5/2 6/6/2 7/7/2 8/8/2
f 4/9/3 7/10/3 6/11/3 1/12/3
f 2/13/4 5/14/4 8/15/4 3/16/4
f 1/17/5 6/18/5 5/19/5 2/20/5
f 3/21/6 8/22/6 7/23/6 4/24/6
