v 1.000000 1.000000 0.468750
v 1.000000 0.000000 0.468750
v 0.000000 0.000000 0.468750
v 0.000000 1.000000 0.468750
v 0.000000 1.000000 0.531250
v 0.000000 0.000000 0.531250
v 1.000000 0.000000 0.531250
v 1.000000 1.000000 0.531250
v 0.125000 1.000000 0.468750
v 0.125000 1.000000 0.531250
v 0.875000 1.000000 0.531250
v 0.875000 1.000000 0.468750
v 0.125000 0.000000 0.468750
v 0.125000 0.000000 0.531250
v 0.250000 1.000000 0.531250
v 0.250000 0.000000 0.531250
v 0.250000 0.000000 0.468750
v 0.250000 1.000000 0.468750
v 0.750000 1.000000 0.468750
v 0.750000 0.000000 0.468750
v 0.750000 0.000000 0.531250
v 0.750000 1.000000 0.531250
v 0.875000 0.000000 0.531250
v 0.875000 0.000000 0.468750
v 0.062500 0.937500 0.468750
v 0.062500 0.937500 0.531250
v 0.937500 0.937500 0.531250
v 0.937500 0.937500 0.468750
v 0.062500 0.062500 0.468750
v 0.062500 0.062500 0.531250
v 0.937500 0.062500 0.531250
v 0.937500 0.062500 0.468750
v 0.062500 0.812500 0.531250
v 0.062500 0.812500 0.468750
v 0.937500 0.812500 0.468750
v 0.937500 0.812500 0.531250
v 0.437500 0.812500 0.468750
v 0.437500 0.187500 0.468750
v 0.437500 0.187500 0.531250
v 0.437500 0.812500 0.531250
v 0.562500 0.812500 0.531250
v 0.562500 0.187500 0.531250
v 0.562500 0.187500 0.468750
v 0.562500 0.812500 0.468750
v 0.062500 0.687500 0.468750
v 0.062500 0.687500 0.531250
v 0.937500 0.687500 0.531250
v 0.937500 0.687500 0.468750
v 0.062500 0.562500 0.531250
v 0.062500 0.562500 0.468750
v 0.937500 0.562500 0.468750
v 0.937500 0.562500 0.531250
v 0.062500 0.437500 0.468750
v 0.062500 0.437500 0.531250
v 0.937500 0.437500 0.531250
v 0.937500 0.437500 0.468750
v 0.062500 0.312500 0.531250
v 0.062500 0.312500 0.468750
v 0.937500 0.312500 0.468750
v 0.937500 0.312500 0.531250
v 0.062500 0.187500 0.468750
v 0.062500 0.187500 0.531250
v 0.937500 0.187500 0.531250
v 0.937500 0.187500 0.468750
vn 0.000000 0.000000 -1.000000
vn 0.000000 0.000000 1.000000
vn 0.000000 1.000000 0.000000
vn -1.000000 0.000000 0.000000
vn 1.000000 0.000000 0.000000
vn 0.000000 -1.000000 0.000000
vt 0.015594 0.874969
vt 0.015594 0.859406
vt 0.000031 0.859406
vt 0.000031 0.874969
vt 0.000031 0.874969
vt 0.000031 0.859406
vt 0.015594 0.859406
vt 0.015594 0.874969
vt 0.001976 0.874998
vt 0.001976 0.874025
vt 0.013649 0.874025
vt 0.013649 0.874998
vt 0.002928 0.874969
vt 0.002928 0.859406
vt 0.001955 0.859406
vt 0.001955 0.874969
vt 0.003904 0.874969
vt 0.003904 0.859406
vt 0.002932 0.859406
vt 0.002932 0.874969
vt 0.012693 0.874969
vt 0.012693 0.859406
vt 0.011721 0.859406
vt 0.011721 0.874969
vt 0.013670 0.874969
vt 0.013670 0.859406
vt 0.012697 0.859406
vt 0.012697 0.874969
vt 0.001003 0.874022
vt 0.001003 0.873049
vt 0.014622 0.873049
vt 0.014622 0.874022
vt 0.001951 0.873997
vt 0.001951 0.860378
vt 0.000978 0.860378
vt 0.000978 0.873997
vt 0.014647 0.873997
vt 0.014647 0.860378
vt 0.013674 0.860378
vt 0.013674 0.873997
vt 0.001003 0.873045
vt 0.001003 0.872072
vt 0.014622 0.872072
vt 0.014622 0.873045
vt 0.007811 0.872051
vt 0.007811 0.862324
vt 0.006838 0.862324
vt 0.006838 0.872051
vt 0.008787 0.872051
vt 0.008787 0.862324
vt 0.007814 0.862324
vt 0.007814 0.872051
vt 0.001003 0.870115
vt 0.001003 0.869143
vt 0.014622 0.869143
vt 0.014622 0.870115
vt 0.001003 0.869139
vt 0.001003 0.868166
vt 0.014622 0.868166
vt 0.014622 0.869139
vt 0.001003 0.866209
vt 0.001003 0.865236
vt 0.014622 0.865236
vt 0.014622 0.866209
vt 0.001003 0.865232
vt 0.001003 0.864260
vt 0.014622 0.864260
vt 0.014622 0.865232
vt 0.001003 0.862303
vt 0.001003 0.861330
vt 0.014622 0.861330
vt 0.014622 0.862303
vt 0.001003 0.861326
vt 0.001003 0.860353
vt 0.014622 0.860353
vt 0.014622 0.861326
vt 0.001976 0.860350
vt 0.001976 0.859377
vt 0.013649 0.859377
vt 0.013649 0.860350
f 1/1/1 2/2/1 3/3/1 4/4/1
f 5/5/2 6/6/2 7/7/2 8/8/2
f 9/9/3 10/10/3 11/11/3 12/12/3
f 9/13/4 13/14/4 14/15/4 10/16/4
f 15/17/5 16/18/5 17/19/5 18/20/5
f 19/21/4 20/22/4 21/23/4 22/24/4
f 11/25/5 23/26/5 24/27/5 12/28/5
f 25/29/3 26/30/3 27/31/3 28/32/3
f 25/33/4 29/34/4 30/35/4 26/36/4
f 27/37/5 31/38/5 32/39/5 28/40/5
f 33/41/6 34/42/6 35/43/6 36/44/6
f 37/45/4 38/46/4 39/47/4 40/48/4
f 41/49/5 42/50/5 43/51/5 44/52/5
f 45/53/3 46/54/3 47/55/3 48/56/3
f 49/57/6 50/58/6 51/59/6 52/60/6
f 53/61/3 54/62/3 55/63/3 56/64/3
f 57/65/6 58/66/6 59/67/6 60/68/6
f 61/69/3 62/70/3 63/71/3 64/72/3
f 30/73/6 29/74/6 32/75/6 31/76/6
f 14/77/6 13/78/6 24/79/6 23/80/6
