v 1.000000 1.000000 0.468750
v 1.000000 0.000000 0.468750
v 0.000000 0.000000 0.468750
v 0.000000 1.000000 0.468750
v 0.000000 1.000000 0.531250
v 0.000000 0.000000 0.531250
v 1.000000 0.000000 0.531250
v 1.000000 1.000000 0.531250
v 0.437500 0.625000 0.468750
v 0.437500 0.625000 0.531250
v 0.500000 0.625000 0.531250
v 0.500000 0.625000 0.468750
v 0.437500 0.000000 0.468750
v 0.437500 0.000000 0.531250
v 0.500000 0.000000 0.531250
v 0.500000 0.000000 0.468750
v 0.312500 0.562500 0.468750
v 0.312500 0.562500 0.531250
v 0.562500 0.562500 0.531250
v 0.562500 0.562500 0.468750
v 0.312500 0.125000 0.468750
v 0.312500 0.125000 0.531250
v 0.500000 0.500000 0.531250
v 0.500000 0.500000 0.468750
v 0.562500 0.500000 0.468750
v 0.562500 0.500000 0.531250
v 0.562500 0.062500 0.531250
v 0.562500 0.062500 0.468750
v 0.312500 0.437500 0.531250
v 0.312500 0.437500 0.468750
v 0.375000 0.437500 0.468750
v 0.375000 0.437500 0.531250
v 0.687500 0.500000 0.531250
v 0.687500 0.500000 0.468750
v 0.562500 0.437500 0.468750
v 0.562500 0.437500 0.531250
v 0.687500 0.375000 0.531250
v 0.687500 0.375000 0.468750
v 0.187500 0.437500 0.468750
v 0.187500 0.437500 0.531250
v 0.187500 0.312500 0.468750
v 0.187500 0.312500 0.531250
v 0.312500 0.312500 0.531250
v 0.312500 0.312500 0.468750
v 0.375000 0.312500 0.468750
v 0.375000 0.312500 0.531250
v 0.625000 0.375000 0.531250
v 0.625000 0.375000 0.468750
v 0.625000 0.312500 0.468750
v 0.625000 0.312500 0.531250
v 0.625000 0.125000 0.531250
v 0.625000 0.125000 0.468750
v 0.250000 0.250000 0.531250
v 0.250000 0.250000 0.468750
v 0.312500 0.250000 0.468750
v 0.312500 0.250000 0.531250
v 0.250000 0.312500 0.468750
v 0.250000 0.312500 0.531250
v 0.750000 0.312500 0.531250
v 0.750000 0.312500 0.468750
v 0.437500 0.312500 0.531250
v 0.437500 0.250000 0.531250
v 0.437500 0.250000 0.468750
v 0.437500 0.312500 0.468750
v 0.500000 0.312500 0.468750
v 0.500000 0.250000 0.468750
v 0.500000 0.250000 0.531250
v 0.500000 0.312500 0.531250
v 0.625000 0.187500 0.468750
v 0.625000 0.187500 0.531250
v 0.750000 0.187500 0.531250
v 0.750000 0.187500 0.468750
v 0.562500 0.187500 0.468750
v 0.562500 0.187500 0.531250
v 0.500000 0.062500 0.531250
v 0.500000 0.062500 0.468750
vn 0.000000 0.000000 -1.000000
vn 0.000000 0.000000 1.000000
vn 0.000000 1.000000 0.000000
vn -1.000000 0.000000 0.000000
vn 1.000000 0.000000 0.000000
vn 0.000000 -1.000000 0.000000
vt 0.203094 0.921844
vt 0.203094 0.906281
vt 0.187531 0.906281
vt 0.187531 0.921844
vt 0.187531 0.921844
vt 0.187531 0.906281
vt 0.203094 0.906281
vt 0.203094 0.921844
vt 0.194338 0.916014
vt 0.194338 0.915041
vt 0.195311 0.915041
vt 0.195311 0.916014
vt 0.195311 0.915997
vt 0.195311 0.906269
vt 0.194338 0.906269
vt 0.194338 0.915997
vt 0.195311 0.915997
vt 0.195311 0.906269
vt 0.194338 0.906269
vt 0.194338 0.915997
vt 0.192390 0.915037
vt 0.192390 0.914064
vt 0.196281 0.914064
vt 0.196281 0.915037
vt 0.193357 0.915026
vt 0.193357 0.908216
vt 0.192385 0.908216
vt 0.192385 0.915026
vt 0.195314 0.915037
vt 0.195314 0.914064
vt 0.196287 0.914064
vt 0.196287 0.915037
vt 0.196287 0.915024
vt 0.196287 0.907242
vt 0.195314 0.907242
vt 0.195314 0.915024
vt 0.192385 0.914061
vt 0.192385 0.913088
vt 0.193357 0.913088
vt 0.193357 0.914061
vt 0.196293 0.914061
vt 0.196293 0.913088
vt 0.198238 0.913088
vt 0.198238 0.914061
vt 0.197264 0.914061
vt 0.197264 0.913088
vt 0.196291 0.913088
vt 0.196291 0.914061
vt 0.198240 0.914059
vt 0.198240 0.912113
vt 0.197268 0.912113
vt 0.197268 0.914059
vt 0.190441 0.913084
vt 0.190441 0.912111
vt 0.196278 0.912111
vt 0.196278 0.913084
vt 0.191404 0.913082
vt 0.191404 0.911137
vt 0.190432 0.911137
vt 0.190432 0.913082
vt 0.192381 0.913082
vt 0.192381 0.911137
vt 0.191408 0.911137
vt 0.191408 0.913082
vt 0.194334 0.913082
vt 0.194334 0.911137
vt 0.193361 0.911137
vt 0.193361 0.913082
vt 0.197268 0.913084
vt 0.197268 0.912111
vt 0.198240 0.912111
vt 0.198240 0.913084
vt 0.190443 0.912107
vt 0.190443 0.911135
vt 0.197252 0.911135
vt 0.197252 0.912107
vt 0.197264 0.912102
vt 0.197264 0.908211
vt 0.196291 0.908211
vt 0.196291 0.912102
vt 0.191408 0.911131
vt 0.191408 0.910158
vt 0.192381 0.910158
vt 0.192381 0.911131
vt 0.192381 0.911131
vt 0.192381 0.910158
vt 0.191408 0.910158
vt 0.191408 0.911131
vt 0.192396 0.911131
vt 0.192396 0.910158
vt 0.199205 0.910158
vt 0.199205 0.911131
vt 0.194334 0.911131
vt 0.194334 0.910158
vt 0.193361 0.910158
vt 0.193361 0.911131
vt 0.196287 0.911131
vt 0.196287 0.910158
vt 0.195314 0.910158
vt 0.195314 0.911131
vt 0.198240 0.911129
vt 0.198240 0.909184
vt 0.197268 0.909184
vt 0.197268 0.911129
vt 0.199217 0.911129
vt 0.199217 0.909184
vt 0.198244 0.909184
vt 0.198244 0.911129
vt 0.194338 0.910154
vt 0.194338 0.909182
vt 0.195311 0.909182
vt 0.195311 0.910154
vt 0.197269 0.910154
vt 0.197269 0.909182
vt 0.199215 0.909182
vt 0.199215 0.910154
vt 0.192392 0.909178
vt 0.192392 0.908205
vt 0.197256 0.908205
vt 0.197256 0.909178
vt 0.196291 0.909178
vt 0.196291 0.908205
vt 0.197264 0.908205
vt 0.197264 0.909178
vt 0.195314 0.908201
vt 0.195314 0.907228
vt 0.196287 0.907228
vt 0.196287 0.908201
vt 0.194338 0.907225
vt 0.194338 0.906252
vt 0.195311 0.906252
vt 0.195311 0.907225
f 1/1/1 2/2/1 3/3/1 4/4/1
f 5/5/2 6/6/2 7/7/2 8/8/2
f 9/9/3 10/10/3 11/11/3 12/12/3
f 9/13/4 13/14/4 14/15/4 10/16/4
f 11/17/5 15/18/5 16/19/5 12/20/5
f 17/21/3 18/22/3 19/23/3 20/24/3
f 17/25/4 21/26/4 22/27/4 18/28/4
f 23/29/6 24/30/6 25/31/6 26/32/6
f 19/33/5 27/34/5 28/35/5 20/36/5
f 29/37/6 30/38/6 31/39/6 32/40/6
f 25/41/3 26/42/3 33/43/3 34/44/3
f 25/45/4 35/46/4 36/47/4 26/48/4
f 33/49/5 37/50/5 38/51/5 34/52/5
f 39/53/3 40/54/3 36/55/3 35/56/3
f 39/57/4 41/58/4 42/59/4 40/60/4
f 29/61/5 43/62/5 44/63/5 30/64/5
f 31/65/4 45/66/4 46/67/4 32/68/4
f 47/69/6 48/70/6 38/71/6 37/72/6
f 42/73/6 41/74/6 49/75/6 50/76/6
f 47/77/5 51/78/5 52/79/5 48/80/5
f 53/81/6 54/82/6 55/83/6 56/84/6
f 57/85/4 54/86/4 53/87/4 58/88/4
f 44/89/3 43/90/3 59/91/3 60/92/3
f 61/93/5 62/94/5 63/95/5 64/96/5
f 65/97/4 66/98/4 67/99/4 68/100/4
f 49/101/4 69/102/4 70/103/4 50/104/4
f 59/105/5 71/106/5 72/107/5 60/108/5
f 63/109/3 62/110/3 67/111/3 66/112/3
f 70/113/6 69/114/6 72/115/6 71/116/6
f 22/117/6 21/118/6 52/119/6 51/120/6
f 73/121/3 74/122/3 70/123/3 69/124/3
f 75/125/6 76/126/6 28/127/6 27/128/6
f 14/129/6 13/130/6 16/131/6 15/132/6
