v 1.000000 1.000000 0.468750
v 1.000000 0.000000 0.468750
v 0.000000 0.000000 0.468750
v 0.000000 1.000000 0.468750
v 0.000000 1.000000 0.531250
v 0.000000 0.000000 0.531250
v 1.000000 0.000000 0.531250
v 1.000000 1.000000 0.531250
v 0.562500 0.875000 0.468750
v 0.562500 0.875000 0.531250
v 0.687500 0.875000 0.531250
v 0.687500 0.875000 0.468750
v 0.562500 0.812500 0.531250
v 0.562500 0.812500 0.468750
v 0.625000 0.812500 0.468750
v 0.625000 0.812500 0.531250
v 0.687500 0.312500 0.531250
v 0.687500 0.312500 0.468750
v 0.625000 0.687500 0.468750
v 0.625000 0.687500 0.531250
v 0.687500 0.812500 0.468750
v 0.687500 0.812500 0.531250
v 0.812500 0.812500 0.531250
v 0.812500 0.812500 0.468750
v 0.750000 0.750000 0.531250
v 0.750000 0.750000 0.468750
v 0.812500 0.750000 0.468750
v 0.812500 0.750000 0.531250
v 0.812500 0.625000 0.531250
v 0.812500 0.625000 0.468750
v 0.375000 0.750000 0.468750
v 0.375000 0.750000 0.531250
v 0.562500 0.750000 0.531250
v 0.562500 0.750000 0.468750
v 0.375000 0.687500 0.468750
v 0.375000 0.687500 0.531250
v 0.562500 0.687500 0.531250
v 0.562500 0.687500 0.468750
v 0.750000 0.375000 0.531250
v 0.750000 0.375000 0.468750
v 0.312500 0.687500 0.468750
v 0.312500 0.687500 0.531250
v 0.812500 0.687500 0.531250
v 0.812500 0.687500 0.468750
v 0.312500 0.625000 0.468750
v 0.312500 0.625000 0.531250
v 0.687500 0.625000 0.531250
v 0.687500 0.625000 0.468750
v 0.250000 0.625000 0.468750
v 0.250000 0.625000 0.531250
v 0.250000 0.125000 0.468750
v 0.250000 0.125000 0.531250
v 0.687500 0.562500 0.468750
v 0.687500 0.562500 0.531250
v 0.750000 0.562500 0.531250
v 0.750000 0.562500 0.468750
v 0.187500 0.437500 0.468750
v 0.187500 0.437500 0.531250
v 0.250000 0.437500 0.531250
v 0.250000 0.437500 0.468750
v 0.187500 0.187500 0.468750
v 0.187500 0.187500 0.531250
v 0.687500 0.375000 0.531250
v 0.687500 0.375000 0.468750
v 0.625000 0.312500 0.531250
v 0.625000 0.312500 0.468750
v 0.312500 0.250000 0.531250
v 0.312500 0.250000 0.468750
v 0.625000 0.250000 0.468750
v 0.625000 0.250000 0.531250
v 0.250000 0.187500 0.468750
v 0.250000 0.187500 0.531250
v 0.312500 0.187500 0.531250
v 0.312500 0.187500 0.468750
v 0.375000 0.125000 0.468750
v 0.375000 0.125000 0.531250
v 0.375000 0.187500 0.531250
v 0.375000 0.187500 0.468750
vn 0.000000 0.000000 -1.000000
vn 0.000000 0.000000 1.000000
vn 0.000000 1.000000 0.000000
vn 0.000000 -1.000000 0.000000
vn -1.000000 0.000000 0.000000
vn 1.000000 0.000000 0.000000
vt 0.484344 0.593719
vt 0.484344 0.578156
vt 0.468781 0.578156
vt 0.468781 0.593719
vt 0.468781 0.593719
vt 0.468781 0.578156
vt 0.484344 0.578156
vt 0.484344 0.593719
vt 0.477543 0.591795
vt 0.477543 0.590822
vt 0.479488 0.590822
vt 0.479488 0.591795
vt 0.477541 0.591795
vt 0.477541 0.590822
vt 0.478514 0.590822
vt 0.478514 0.591795
vt 0.478514 0.591795
vt 0.478514 0.590822
vt 0.477541 0.590822
vt 0.477541 0.591795
vt 0.479490 0.591780
vt 0.479490 0.583025
vt 0.478518 0.583025
vt 0.478518 0.591780
vt 0.479490 0.590816
vt 0.479490 0.588871
vt 0.478518 0.588871
vt 0.478518 0.590816
vt 0.479496 0.590818
vt 0.479496 0.589846
vt 0.481441 0.589846
vt 0.481441 0.590818
vt 0.480471 0.590818
vt 0.480471 0.589846
vt 0.481443 0.589846
vt 0.481443 0.590818
vt 0.481443 0.590815
vt 0.481443 0.587896
vt 0.480471 0.587896
vt 0.480471 0.590815
vt 0.474615 0.589842
vt 0.474615 0.588869
vt 0.477533 0.588869
vt 0.477533 0.589842
vt 0.475584 0.589842
vt 0.475584 0.588869
vt 0.474611 0.588869
vt 0.474611 0.589842
vt 0.477537 0.589842
vt 0.477537 0.588869
vt 0.476564 0.588869
vt 0.476564 0.589842
vt 0.480467 0.589832
vt 0.480467 0.583996
vt 0.479494 0.583996
vt 0.479494 0.589832
vt 0.473648 0.588865
vt 0.473648 0.587893
vt 0.481430 0.587893
vt 0.481430 0.588865
vt 0.474607 0.588865
vt 0.474607 0.587893
vt 0.473635 0.587893
vt 0.473635 0.588865
vt 0.479496 0.588865
vt 0.479496 0.587893
vt 0.481441 0.587893
vt 0.481441 0.588865
vt 0.472658 0.587889
vt 0.472658 0.586916
vt 0.473631 0.586916
vt 0.473631 0.587889
vt 0.473631 0.587875
vt 0.473631 0.580093
vt 0.472658 0.580093
vt 0.472658 0.587875
vt 0.479494 0.586912
vt 0.479494 0.585939
vt 0.480467 0.585939
vt 0.480467 0.586912
vt 0.471682 0.584959
vt 0.471682 0.583986
vt 0.472654 0.583986
vt 0.472654 0.584959
vt 0.472654 0.584953
vt 0.472654 0.581062
vt 0.471682 0.581062
vt 0.471682 0.584953
vt 0.479494 0.584959
vt 0.479494 0.583986
vt 0.480467 0.583986
vt 0.480467 0.584959
vt 0.478518 0.583982
vt 0.478518 0.583010
vt 0.479490 0.583010
vt 0.479490 0.583982
vt 0.473642 0.583006
vt 0.473642 0.582033
vt 0.478506 0.582033
vt 0.478506 0.583006
vt 0.478514 0.583006
vt 0.478514 0.582033
vt 0.477541 0.582033
vt 0.477541 0.583006
vt 0.471682 0.582029
vt 0.471682 0.581057
vt 0.472654 0.581057
vt 0.472654 0.582029
vt 0.473631 0.582029
vt 0.473631 0.581057
vt 0.472658 0.581057
vt 0.472658 0.582029
vt 0.472660 0.581053
vt 0.472660 0.580080
vt 0.474606 0.580080
vt 0.474606 0.581053
vt 0.473635 0.581053
vt 0.473635 0.580080
vt 0.474607 0.580080
vt 0.474607 0.581053
vt 0.474607 0.581053
vt 0.474607 0.580080
vt 0.473635 0.580080
vt 0.473635 0.581053
f 1/1/1 2/2/1 3/3/1 4/4/1
f 5/5/2 6/6/2 7/7/2 8/8/2
f 9/9/3 10/10/3 11/11/3 12/12/3
f 13/13/4 14/14/4 15/15/4 16/16/4
f 9/17/5 14/18/5 13/19/5 10/20/5
f 11/21/6 17/22/6 18/23/6 12/24/6
f 15/25/5 19/26/5 20/27/5 16/28/5
f 21/29/3 22/30/3 23/31/3 24/32/3
f 25/33/4 26/34/4 27/35/4 28/36/4
f 23/37/6 29/38/6 30/39/6 24/40/6
f 31/41/3 32/42/3 33/43/3 34/44/3
f 31/45/5 35/46/5 36/47/5 32/48/5
f 33/49/6 37/50/6 38/51/6 34/52/6
f 25/53/6 39/54/6 40/55/6 26/56/6
f 41/57/3 42/58/3 43/59/3 44/60/3
f 41/61/5 45/62/5 46/63/5 42/64/5
f 47/65/4 48/66/4 30/67/4 29/68/4
f 49/69/3 50/70/3 46/71/3 45/72/3
f 49/73/5 51/74/5 52/75/5 50/76/5
f 53/77/3 54/78/3 55/79/3 56/80/3
f 57/81/3 58/82/3 59/83/3 60/84/3
f 57/85/5 61/86/5 62/87/5 58/88/5
f 63/89/4 64/90/4 40/91/4 39/92/4
f 65/93/4 66/94/4 18/95/4 17/96/4
f 67/97/4 68/98/4 69/99/4 70/100/4
f 65/101/6 70/102/6 69/103/6 66/104/6
f 62/105/4 61/106/4 71/107/4 72/108/4
f 67/109/6 73/110/6 74/111/6 68/112/6
f 52/113/4 51/114/4 75/115/4 76/116/4
f 74/117/3 73/118/3 77/119/3 78/120/3
f 77/121/6 76/122/6 75/123/6 78/124/6
