v 1.000000 1.000000 0.468750
v 1.000000 0.000000 0.468750
v 0.000000 0.000000 0.468750
v 0.000000 1.000000 0.468750
v 0.000000 1.000000 0.531250
v 0.000000 0.000000 0.531250
v 1.000000 0.000000 0.531250
v 1.000000 1.000000 0.531250
vn 0.000000 0.000000 -1.000000
vn 0.000000 0.000000 1.000000
vn 0.000000 1.000000 0.000000
vn -1.000000 0.000000 0.000000
vn 1.000000 0.000000 0.000000
vn 0.000000 -1.000000 0.000000
vt 0.093719 0.859344
vt 0.093719 0.843781
vt 0.078156 0.843781
vt 0.078156 0.859344
vt 0.078156 0.859344
vt 0.078156 0.843781
vt 0.093719 0.843781
vt 0.093719 0.859344
vt 0.078156 0.859373
vt 0.078156 0.858400
vt 0.093719 0.858400
vt 0.093719 0.859373
vt 0.079100 0.859344
vt 0.079100 0.843781
vt 0.078127 0.843781
vt 0.078127 0.859344
vt 0.093748 0.859344
vt 0.093748 0.843781
vt 0.092775 0.843781
vt 0.092775 0.859344
vt 0.078156 0.844725
vt 0.078156 0.843752
vt 0.093719 0.843752
vt 0.093719 0.844725
f 1/1/1 2/2/1 3/3/1 4/4/1
f 5/5/2 6/6/2 7/7/2 8/8/2
f 4/9/3 5/10/3 8/11/3 1/12/3
f 4/13/4 3/14/4 6/15/4 5/16/4
f 8/17/5 7/18/5 2/19/5 1/20/5
f 6/21/6 3/22/6 2/23/6 7/24/6
