v 1.000000 1.000000 0.468750
v 1.000000 0.000000 0.468750
v 0.000000 0.000000 0.468750
v 0.000000 1.000000 0.468750
v 0.000000 1.000000 0.531250
v 0.000000 0.000000 0.531250
v 1.000000 0.000000 0.531250
v 1.000000 1.000000 0.531250
v 0.687500 0.937500 0.468750
v 0.687500 0.937500 0.531250
v 0.875000 0.937500 0.531250
v 0.875000 0.937500 0.468750
v 0.687500 0.875000 0.468750
v 0.687500 0.875000 0.531250
v 0.875000 0.875000 0.531250
v 0.875000 0.875000 0.468750
v 0.625000 0.875000 0.468750
v 0.625000 0.875000 0.531250
v 0.937500 0.875000 0.531250
v 0.937500 0.875000 0.468750
v 0.625000 0.687500 0.468750
v 0.625000 0.687500 0.531250
v 0.937500 0.625000 0.531250
v 0.937500 0.625000 0.468750
v 0.937500 0.812500 0.468750
v 0.937500 0.812500 0.531250
v 1.000000 0.812500 0.531250
v 1.000000 0.812500 0.468750
v 1.000000 0.687500 0.531250
v 1.000000 0.687500 0.468750
v 0.937500 0.687500 0.531250
v 0.937500 0.687500 0.468750
v 0.562500 0.687500 0.468750
v 0.562500 0.687500 0.531250
v 0.562500 0.625000 0.468750
v 0.562500 0.625000 0.531250
v 0.750000 0.625000 0.531250
v 0.750000 0.625000 0.468750
v 0.500000 0.625000 0.468750
v 0.500000 0.625000 0.531250
v 0.500000 0.562500 0.468750
v 0.500000 0.562500 0.531250
v 0.687500 0.562500 0.531250
v 0.687500 0.562500 0.468750
v 0.750000 0.562500 0.468750
v 0.750000 0.562500 0.531250
v 0.437500 0.562500 0.468750
v 0.437500 0.562500 0.531250
v 0.437500 0.500000 0.468750
v 0.437500 0.500000 0.531250
v 0.625000 0.500000 0.531250
v 0.625000 0.500000 0.468750
v 0.687500 0.500000 0.468750
v 0.687500 0.500000 0.531250
v 0.375000 0.500000 0.468750
v 0.375000 0.500000 0.531250
v 0.375000 0.437500 0.468750
v 0.375000 0.437500 0.531250
v 0.562500 0.437500 0.531250
v 0.562500 0.437500 0.468750
v 0.625000 0.437500 0.468750
v 0.625000 0.437500 0.531250
v 0.250000 0.437500 0.468750
v 0.250000 0.437500 0.531250
v 0.250000 0.062500 0.468750
v 0.250000 0.062500 0.531250
v 0.500000 0.375000 0.531250
v 0.500000 0.375000 0.468750
v 0.562500 0.375000 0.468750
v 0.562500 0.375000 0.531250
v 0.125000 0.375000 0.468750
v 0.125000 0.375000 0.531250
v 0.250000 0.375000 0.531250
v 0.250000 0.375000 0.468750
v 0.125000 0.125000 0.468750
v 0.125000 0.125000 0.531250
v 0.437500 0.312500 0.531250
v 0.437500 0.312500 0.468750
v 0.500000 0.312500 0.468750
v 0.500000 0.312500 0.531250
v 0.062500 0.312500 0.468750
v 0.062500 0.312500 0.531250
v 0.125000 0.312500 0.531250
v 0.125000 0.312500 0.468750
v 0.062500 0.187500 0.468750
v 0.062500 0.187500 0.531250
v 0.437500 0.125000 0.531250
v 0.437500 0.125000 0.468750
v 0.125000 0.187500 0.468750
v 0.125000 0.187500 0.531250
v 0.375000 0.062500 0.468750
v 0.375000 0.062500 0.531250
v 0.375000 0.125000 0.531250
v 0.375000 0.125000 0.468750
vn 0.000000 0.000000 -1.000000
vn 0.000000 0.000000 1.000000
vn 0.000000 1.000000 0.000000
vn -1.000000 0.000000 0.000000
vn 1.000000 0.000000 0.000000
vn 0.000000 -1.000000 0.000000
vt 0.171844 0.578094
vt 0.171844 0.562531
vt 0.156281 0.562531
vt 0.156281 0.578094
vt 0.156281 0.578094
vt 0.156281 0.562531
vt 0.171844 0.562531
vt 0.171844 0.578094
vt 0.166998 0.577147
vt 0.166998 0.576174
vt 0.169916 0.576174
vt 0.169916 0.577147
vt 0.167967 0.577147
vt 0.167967 0.576174
vt 0.166994 0.576174
vt 0.166994 0.577147
vt 0.169920 0.577147
vt 0.169920 0.576174
vt 0.168947 0.576174
vt 0.168947 0.577147
vt 0.166025 0.576170
vt 0.166025 0.575197
vt 0.170889 0.575197
vt 0.170889 0.576170
vt 0.166990 0.576166
vt 0.166990 0.573248
vt 0.166018 0.573248
vt 0.166018 0.576166
vt 0.170897 0.576164
vt 0.170897 0.572273
vt 0.169924 0.572273
vt 0.169924 0.576164
vt 0.170900 0.575193
vt 0.170900 0.574221
vt 0.171873 0.574221
vt 0.171873 0.575193
vt 0.171873 0.575191
vt 0.171873 0.573246
vt 0.170900 0.573246
vt 0.170900 0.575191
vt 0.170900 0.574217
vt 0.170900 0.573244
vt 0.171873 0.573244
vt 0.171873 0.574217
vt 0.165041 0.573240
vt 0.165041 0.572268
vt 0.166014 0.572268
vt 0.166014 0.573240
vt 0.166014 0.573240
vt 0.166014 0.572268
vt 0.165041 0.572268
vt 0.165041 0.573240
vt 0.167974 0.573240
vt 0.167974 0.572268
vt 0.170893 0.572268
vt 0.170893 0.573240
vt 0.164064 0.572264
vt 0.164064 0.571291
vt 0.165037 0.571291
vt 0.165037 0.572264
vt 0.165037 0.572264
vt 0.165037 0.571291
vt 0.164064 0.571291
vt 0.164064 0.572264
vt 0.166994 0.572264
vt 0.166994 0.571291
vt 0.167967 0.571291
vt 0.167967 0.572264
vt 0.167967 0.572264
vt 0.167967 0.571291
vt 0.166994 0.571291
vt 0.166994 0.572264
vt 0.163088 0.571287
vt 0.163088 0.570314
vt 0.164061 0.570314
vt 0.164061 0.571287
vt 0.164061 0.571287
vt 0.164061 0.570314
vt 0.163088 0.570314
vt 0.163088 0.571287
vt 0.166018 0.571287
vt 0.166018 0.570314
vt 0.166990 0.570314
vt 0.166990 0.571287
vt 0.166990 0.571287
vt 0.166990 0.570314
vt 0.166018 0.570314
vt 0.166018 0.571287
vt 0.162111 0.570311
vt 0.162111 0.569338
vt 0.163084 0.569338
vt 0.163084 0.570311
vt 0.163084 0.570311
vt 0.163084 0.569338
vt 0.162111 0.569338
vt 0.162111 0.570311
vt 0.165041 0.570311
vt 0.165041 0.569338
vt 0.166014 0.569338
vt 0.166014 0.570311
vt 0.166014 0.570311
vt 0.166014 0.569338
vt 0.165041 0.569338
vt 0.165041 0.570311
vt 0.160160 0.569334
vt 0.160160 0.568361
vt 0.162106 0.568361
vt 0.162106 0.569334
vt 0.161131 0.569324
vt 0.161131 0.563488
vt 0.160158 0.563488
vt 0.160158 0.569324
vt 0.164064 0.569334
vt 0.164064 0.568361
vt 0.165037 0.568361
vt 0.165037 0.569334
vt 0.165037 0.569334
vt 0.165037 0.568361
vt 0.164064 0.568361
vt 0.164064 0.569334
vt 0.158207 0.568357
vt 0.158207 0.567385
vt 0.160152 0.567385
vt 0.160152 0.568357
vt 0.159178 0.568352
vt 0.159178 0.564461
vt 0.158205 0.564461
vt 0.158205 0.568352
vt 0.163088 0.568357
vt 0.163088 0.567385
vt 0.164061 0.567385
vt 0.164061 0.568357
vt 0.164061 0.568357
vt 0.164061 0.567385
vt 0.163088 0.567385
vt 0.163088 0.568357
vt 0.157228 0.567381
vt 0.157228 0.566408
vt 0.158201 0.566408
vt 0.158201 0.567381
vt 0.158201 0.567379
vt 0.158201 0.565434
vt 0.157228 0.565434
vt 0.157228 0.567379
vt 0.163084 0.567377
vt 0.163084 0.564459
vt 0.162111 0.564459
vt 0.162111 0.567377
vt 0.157228 0.566404
vt 0.157228 0.565432
vt 0.158201 0.565432
vt 0.158201 0.566404
vt 0.158213 0.565428
vt 0.158213 0.564455
vt 0.163076 0.564455
vt 0.163076 0.565428
vt 0.160160 0.564451
vt 0.160160 0.563478
vt 0.162106 0.563478
vt 0.162106 0.564451
vt 0.162107 0.564451
vt 0.162107 0.563478
vt 0.161135 0.563478
vt 0.161135 0.564451
f 1/1/1 2/2/1 3/3/1 4/4/1
f 5/5/2 6/6/2 7/7/2 8/8/2
f 9/9/3 10/10/3 11/11/3 12/12/3
f 9/13/4 13/14/4 14/15/4 10/16/4
f 11/17/5 15/18/5 16/19/5 12/20/5
f 17/21/3 18/22/3 19/23/3 20/24/3
f 17/25/4 21/26/4 22/27/4 18/28/4
f 19/29/5 23/30/5 24/31/5 20/32/5
f 25/33/3 26/34/3 27/35/3 28/36/3
f 27/37/5 29/38/5 30/39/5 28/40/5
f 31/41/6 32/42/6 30/43/6 29/44/6
f 33/45/3 34/46/3 22/47/3 21/48/3
f 33/49/4 35/50/4 36/51/4 34/52/4
f 37/53/6 38/54/6 24/55/6 23/56/6
f 39/57/3 40/58/3 36/59/3 35/60/3
f 39/61/4 41/62/4 42/63/4 40/64/4
f 43/65/6 44/66/6 45/67/6 46/68/6
f 37/69/5 46/70/5 45/71/5 38/72/5
f 47/73/3 48/74/3 42/75/3 41/76/3
f 47/77/4 49/78/4 50/79/4 48/80/4
f 51/81/6 52/82/6 53/83/6 54/84/6
f 43/85/5 54/86/5 53/87/5 44/88/5
f 55/89/3 56/90/3 50/91/3 49/92/3
f 55/93/4 57/94/4 58/95/4 56/96/4
f 59/97/6 60/98/6 61/99/6 62/100/6
f 51/101/5 62/102/5 61/103/5 52/104/5
f 63/105/3 64/106/3 58/107/3 57/108/3
f 63/109/4 65/110/4 66/111/4 64/112/4
f 67/113/6 68/114/6 69/115/6 70/116/6
f 59/117/5 70/118/5 69/119/5 60/120/5
f 71/121/3 72/122/3 73/123/3 74/124/3
f 71/125/4 75/126/4 76/127/4 72/128/4
f 77/129/6 78/130/6 79/131/6 80/132/6
f 67/133/5 80/134/5 79/135/5 68/136/5
f 81/137/3 82/138/3 83/139/3 84/140/3
f 81/141/4 85/142/4 86/143/4 82/144/4
f 77/145/5 87/146/5 88/147/5 78/148/5
f 86/149/6 85/150/6 89/151/6 90/152/6
f 76/153/6 75/154/6 88/155/6 87/156/6
f 66/157/6 65/158/6 91/159/6 92/160/6
f 93/161/5 92/162/5 91/163/5 94/164/5
