v 1.000000 1.000000 0.468750
v 1.000000 0.000000 0.468750
v 0.000000 0.000000 0.468750
v 0.000000 1.000000 0.468750
v 0.000000 1.000000 0.531250
v 0.000000 0.000000 0.531250
v 1.000000 0.000000 0.531250
v 1.000000 1.000000 0.531250
v 0.375000 0.687500 0.468750
v 0.375000 0.687500 0.531250
v 0.437500 0.687500 0.531250
v 0.437500 0.687500 0.468750
v 0.375000 0.000000 0.468750
v 0.375000 0.000000 0.531250
v 0.437500 0.250000 0.531250
v 0.437500 0.250000 0.468750
v 0.250000 0.625000 0.468750
v 0.250000 0.625000 0.531250
v 0.812500 0.625000 0.531250
v 0.812500 0.625000 0.468750
v 0.250000 0.562500 0.531250
v 0.250000 0.562500 0.468750
v 0.812500 0.562500 0.468750
v 0.812500 0.562500 0.531250
v 0.250000 0.312500 0.468750
v 0.250000 0.312500 0.531250
v 0.312500 0.625000 0.531250
v 0.312500 0.000000 0.531250
v 0.312500 0.000000 0.468750
v 0.312500 0.625000 0.468750
v 0.500000 0.625000 0.531250
v 0.500000 0.125000 0.531250
v 0.500000 0.125000 0.468750
v 0.500000 0.625000 0.468750
v 0.625000 0.625000 0.468750
v 0.625000 0.250000 0.468750
v 0.625000 0.250000 0.531250
v 0.625000 0.625000 0.531250
v 0.687500 0.625000 0.531250
v 0.687500 0.125000 0.531250
v 0.687500 0.125000 0.468750
v 0.687500 0.625000 0.468750
v 0.750000 0.625000 0.468750
v 0.750000 0.562500 0.468750
v 0.750000 0.562500 0.531250
v 0.750000 0.625000 0.531250
v 0.812500 0.187500 0.531250
v 0.812500 0.187500 0.468750
v 0.062500 0.562500 0.468750
v 0.062500 0.562500 0.531250
v 0.937500 0.562500 0.531250
v 0.937500 0.562500 0.468750
v 0.062500 0.500000 0.531250
v 0.062500 0.500000 0.468750
v 0.500000 0.500000 0.468750
v 0.500000 0.500000 0.531250
v 0.062500 0.062500 0.468750
v 0.062500 0.062500 0.531250
v 0.125000 0.562500 0.531250
v 0.125000 0.187500 0.531250
v 0.125000 0.187500 0.468750
v 0.125000 0.562500 0.468750
v 0.312500 0.562500 0.468750
v 0.312500 0.062500 0.468750
v 0.312500 0.062500 0.531250
v 0.312500 0.562500 0.531250
v 0.750000 0.062500 0.531250
v 0.750000 0.062500 0.468750
v 0.875000 0.562500 0.468750
v 0.875000 0.187500 0.468750
v 0.875000 0.187500 0.531250
v 0.875000 0.562500 0.531250
v 0.937500 0.062500 0.531250
v 0.937500 0.062500 0.468750
v 0.125000 0.500000 0.468750
v 0.125000 0.500000 0.531250
v 1.000000 0.500000 0.531250
v 1.000000 0.500000 0.468750
v 0.125000 0.000000 0.468750
v 0.125000 0.000000 0.531250
v 0.250000 0.500000 0.531250
v 0.250000 0.062500 0.531250
v 0.250000 0.062500 0.468750
v 0.250000 0.500000 0.468750
v 0.375000 0.437500 0.531250
v 0.375000 0.437500 0.468750
v 0.687500 0.437500 0.468750
v 0.687500 0.437500 0.531250
v 0.562500 0.500000 0.468750
v 0.562500 0.125000 0.468750
v 0.562500 0.125000 0.531250
v 0.562500 0.500000 0.531250
v 1.000000 0.187500 0.531250
v 1.000000 0.187500 0.468750
v 0.062500 0.437500 0.468750
v 0.062500 0.437500 0.531250
v 0.875000 0.437500 0.531250
v 0.875000 0.437500 0.468750
v 0.187500 0.375000 0.531250
v 0.187500 0.375000 0.468750
v 1.000000 0.375000 0.468750
v 1.000000 0.375000 0.531250
v 0.375000 0.375000 0.531250
v 0.375000 0.375000 0.468750
v 0.437500 0.437500 0.468750
v 0.437500 0.375000 0.468750
v 0.437500 0.375000 0.531250
v 0.437500 0.437500 0.531250
v 0.687500 0.312500 0.468750
v 0.687500 0.312500 0.531250
v 0.062500 0.312500 0.531250
v 0.062500 0.312500 0.468750
v 0.625000 0.312500 0.468750
v 0.625000 0.312500 0.531250
v 0.187500 0.125000 0.531250
v 0.187500 0.125000 0.468750
v 0.625000 0.375000 0.531250
v 0.625000 0.375000 0.468750
v 0.875000 0.375000 0.531250
v 0.875000 0.000000 0.531250
v 0.875000 0.000000 0.468750
v 0.875000 0.375000 0.468750
v 0.187500 0.312500 0.468750
v 0.187500 0.312500 0.531250
v 0.937500 0.312500 0.531250
v 0.937500 0.312500 0.468750
v 0.187500 0.187500 0.468750
v 0.187500 0.187500 0.531250
v 0.250000 0.250000 0.531250
v 0.250000 0.250000 0.468750
v 0.875000 0.250000 0.468750
v 0.875000 0.250000 0.531250
v 0.062500 0.250000 0.468750
v 0.062500 0.250000 0.531250
v 1.000000 0.250000 0.531250
v 1.000000 0.250000 0.468750
v 0.000000 0.187500 0.468750
v 0.000000 0.187500 0.531250
v 0.000000 0.125000 0.531250
v 0.000000 0.125000 0.468750
v 0.062500 0.125000 0.468750
v 0.062500 0.125000 0.531250
v 0.937500 0.125000 0.531250
v 0.937500 0.125000 0.468750
v 0.812500 0.125000 0.468750
v 0.812500 0.062500 0.468750
v 0.812500 0.062500 0.531250
v 0.812500 0.125000 0.531250
vn 0.000000 0.000000 -1.000000
vn 0.000000 0.000000 1.000000
vn 0.000000 1.000000 0.000000
vn -1.000000 0.000000 0.000000
vn 1.000000 0.000000 0.000000
vn 0.000000 -1.000000 0.000000
vt 0.234344 0.843719
vt 0.234344 0.828156
vt 0.218781 0.828156
vt 0.218781 0.843719
vt 0.218781 0.843719
vt 0.218781 0.828156
vt 0.234344 0.828156
vt 0.234344 0.843719
vt 0.224611 0.838865
vt 0.224611 0.837893
vt 0.225584 0.837893
vt 0.225584 0.838865
vt 0.225584 0.838846
vt 0.225584 0.828146
vt 0.224611 0.828146
vt 0.224611 0.838846
vt 0.225584 0.838854
vt 0.225584 0.832045
vt 0.224611 0.832045
vt 0.224611 0.838854
vt 0.222673 0.837889
vt 0.222673 0.836916
vt 0.231428 0.836916
vt 0.231428 0.837889
vt 0.222673 0.837889
vt 0.222673 0.836916
vt 0.231428 0.836916
vt 0.231428 0.837889
vt 0.223631 0.837881
vt 0.223631 0.833017
vt 0.222658 0.833017
vt 0.222658 0.837881
vt 0.223631 0.837872
vt 0.223631 0.828144
vt 0.222658 0.828144
vt 0.222658 0.837872
vt 0.226561 0.837875
vt 0.226561 0.830093
vt 0.225588 0.830093
vt 0.225588 0.837875
vt 0.229490 0.837879
vt 0.229490 0.832043
vt 0.228518 0.832043
vt 0.228518 0.837879
vt 0.229490 0.837875
vt 0.229490 0.830093
vt 0.228518 0.830093
vt 0.228518 0.837875
vt 0.231443 0.837889
vt 0.231443 0.836916
vt 0.230471 0.836916
vt 0.230471 0.837889
vt 0.231443 0.837877
vt 0.231443 0.831068
vt 0.230471 0.831068
vt 0.230471 0.837877
vt 0.219753 0.836912
vt 0.219753 0.835939
vt 0.233372 0.835939
vt 0.233372 0.836912
vt 0.219740 0.836912
vt 0.219740 0.835939
vt 0.226549 0.835939
vt 0.226549 0.836912
vt 0.220701 0.836899
vt 0.220701 0.829117
vt 0.219728 0.829117
vt 0.219728 0.836899
vt 0.220701 0.836903
vt 0.220701 0.831066
vt 0.219728 0.831066
vt 0.219728 0.836903
vt 0.224607 0.836899
vt 0.224607 0.829117
vt 0.223635 0.829117
vt 0.223635 0.836899
vt 0.230467 0.836899
vt 0.230467 0.829117
vt 0.229494 0.829117
vt 0.229494 0.836899
vt 0.233397 0.836903
vt 0.233397 0.831066
vt 0.232424 0.831066
vt 0.232424 0.836903
vt 0.233397 0.836899
vt 0.233397 0.829117
vt 0.232424 0.829117
vt 0.232424 0.836899
vt 0.220730 0.835936
vt 0.220730 0.834963
vt 0.234348 0.834963
vt 0.234348 0.835936
vt 0.221678 0.835922
vt 0.221678 0.828140
vt 0.220705 0.828140
vt 0.220705 0.835922
vt 0.222654 0.835924
vt 0.222654 0.829115
vt 0.221682 0.829115
vt 0.221682 0.835924
vt 0.224619 0.835936
vt 0.224619 0.834963
vt 0.229483 0.834963
vt 0.229483 0.835936
vt 0.228514 0.835926
vt 0.228514 0.830090
vt 0.227541 0.830090
vt 0.227541 0.835926
vt 0.234373 0.835928
vt 0.234373 0.831064
vt 0.233400 0.831064
vt 0.233400 0.835928
vt 0.219751 0.834959
vt 0.219751 0.833986
vt 0.232397 0.833986
vt 0.232397 0.834959
vt 0.221704 0.834959
vt 0.221704 0.833986
vt 0.234350 0.833986
vt 0.234350 0.834959
vt 0.224607 0.834959
vt 0.224607 0.833986
vt 0.223635 0.833986
vt 0.223635 0.834959
vt 0.226561 0.834959
vt 0.226561 0.833986
vt 0.225588 0.833986
vt 0.225588 0.834959
vt 0.230467 0.834957
vt 0.230467 0.833012
vt 0.229494 0.833012
vt 0.229494 0.834957
vt 0.219744 0.833982
vt 0.219744 0.833010
vt 0.228498 0.833010
vt 0.228498 0.833982
vt 0.221678 0.833977
vt 0.221678 0.830086
vt 0.220705 0.830086
vt 0.220705 0.833977
vt 0.224617 0.833982
vt 0.224617 0.833010
vt 0.228508 0.833010
vt 0.228508 0.833982
vt 0.228514 0.833982
vt 0.228514 0.833010
vt 0.227541 0.833010
vt 0.227541 0.833982
vt 0.232420 0.833973
vt 0.232420 0.828136
vt 0.231447 0.828136
vt 0.231447 0.833973
vt 0.221703 0.833006
vt 0.221703 0.832033
vt 0.233376 0.832033
vt 0.233376 0.833006
vt 0.222654 0.833004
vt 0.222654 0.831059
vt 0.221682 0.831059
vt 0.221682 0.833004
vt 0.222675 0.833006
vt 0.222675 0.832033
vt 0.232403 0.832033
vt 0.232403 0.833006
vt 0.219755 0.832029
vt 0.219755 0.831057
vt 0.234346 0.831057
vt 0.234346 0.832029
vt 0.221704 0.832029
vt 0.221704 0.831057
vt 0.234350 0.831057
vt 0.234350 0.832029
vt 0.218756 0.831053
vt 0.218756 0.830080
vt 0.221674 0.830080
vt 0.221674 0.831053
vt 0.218752 0.831053
vt 0.218752 0.830080
vt 0.219725 0.830080
vt 0.219725 0.831053
vt 0.219725 0.831053
vt 0.219725 0.830080
vt 0.218752 0.830080
vt 0.218752 0.831053
vt 0.219753 0.830076
vt 0.219753 0.829103
vt 0.233372 0.829103
vt 0.233372 0.830076
vt 0.221703 0.830076
vt 0.221703 0.829103
vt 0.233376 0.829103
vt 0.233376 0.830076
vt 0.232420 0.830076
vt 0.232420 0.829103
vt 0.231447 0.829103
vt 0.231447 0.830076
vt 0.220726 0.829100
vt 0.220726 0.828127
vt 0.232399 0.828127
vt 0.232399 0.829100
vt 0.222673 0.829100
vt 0.222673 0.828127
vt 0.231428 0.828127
vt 0.231428 0.829100
f 1/1/1 2/2/1 3/3/1 4/4/1
f 5/5/2 6/6/2 7/7/2 8/8/2
f 9/9/3 10/10/3 11/11/3 12/12/3
f 9/13/4 13/14/4 14/15/4 10/16/4
f 11/17/5 15/18/5 16/19/5 12/20/5
f 17/21/3 18/22/3 19/23/3 20/24/3
f 21/25/6 22/26/6 23/27/6 24/28/6
f 17/29/4 25/30/4 26/31/4 18/32/4
f 27/33/5 28/34/5 29/35/5 30/36/5
f 31/37/5 32/38/5 33/39/5 34/40/5
f 35/41/4 36/42/4 37/43/4 38/44/4
f 39/45/5 40/46/5 41/47/5 42/48/5
f 43/49/4 44/50/4 45/51/4 46/52/4
f 19/53/5 47/54/5 48/55/5 20/56/5
f 49/57/3 50/58/3 51/59/3 52/60/3
f 53/61/6 54/62/6 55/63/6 56/64/6
f 49/65/4 57/66/4 58/67/4 50/68/4
f 59/69/5 60/70/5 61/71/5 62/72/5
f 63/73/4 64/74/4 65/75/4 66/76/4
f 45/77/5 67/78/5 68/79/5 44/80/5
f 69/81/4 70/82/4 71/83/4 72/84/4
f 51/85/5 73/86/5 74/87/5 52/88/5
f 75/89/3 76/90/3 77/91/3 78/92/3
f 75/93/4 79/94/4 80/95/4 76/96/4
f 81/97/5 82/98/5 83/99/5 84/100/5
f 85/101/6 86/102/6 87/103/6 88/104/6
f 89/105/4 90/106/4 91/107/4 92/108/4
f 77/109/5 93/110/5 94/111/5 78/112/5
f 95/113/3 96/114/3 97/115/3 98/116/3
f 99/117/6 100/118/6 101/119/6 102/120/6
f 85/121/5 103/122/5 104/123/5 86/124/5
f 105/125/4 106/126/4 107/127/4 108/128/4
f 87/129/4 109/130/4 110/131/4 88/132/4
f 111/133/6 112/134/6 113/135/6 114/136/6
f 99/137/5 115/138/5 116/139/5 100/140/5
f 104/141/3 103/142/3 117/143/3 118/144/3
f 117/145/5 114/146/5 113/147/5 118/148/5
f 119/149/5 120/150/5 121/151/5 122/152/5
f 123/153/3 124/154/3 125/155/3 126/156/3
f 123/157/4 127/158/4 128/159/4 124/160/4
f 129/161/6 130/162/6 131/163/6 132/164/6
f 133/165/3 134/166/3 135/167/3 136/168/3
f 128/169/6 127/170/6 94/171/6 93/172/6
f 137/173/3 138/174/3 128/175/3 127/176/3
f 139/177/6 140/178/6 141/179/6 142/180/6
f 137/181/4 140/182/4 139/183/4 138/184/4
f 58/185/6 57/186/6 74/187/6 73/188/6
f 116/189/3 115/190/3 143/191/3 144/192/3
f 145/193/4 146/194/4 147/195/4 148/196/4
f 80/197/6 79/198/6 121/199/6 120/200/6
f 83/201/3 82/202/3 147/203/3 146/204/3
