v 1.000000 1.000000 0.468750
v 1.000000 0.000000 0.468750
v 0.000000 0.000000 0.468750
v 0.000000 1.000000 0.468750
v 0.000000 1.000000 0.531250
v 0.000000 0.000000 0.531250
v 1.000000 0.000000 0.531250
v 1.000000 1.000000 0.531250
v 0.250000 0.812500 0.468750
v 0.250000 0.812500 0.531250
v 0.750000 0.812500 0.531250
v 0.750000 0.812500 0.468750
v 0.250000 0.187500 0.468750
v 0.250000 0.187500 0.531250
v 0.312500 0.812500 0.531250
v 0.312500 0.562500 0.531250
v 0.312500 0.562500 0.468750
v 0.312500 0.812500 0.468750
v 0.437500 0.812500 0.468750
v 0.437500 0.562500 0.468750
v 0.437500 0.562500 0.531250
v 0.437500 0.812500 0.531250
v 0.562500 0.812500 0.531250
v 0.562500 0.562500 0.531250
v 0.562500 0.562500 0.468750
v 0.562500 0.812500 0.468750
v 0.687500 0.812500 0.468750
v 0.687500 0.562500 0.468750
v 0.687500 0.562500 0.531250
v 0.687500 0.812500 0.531250
v 0.750000 0.187500 0.531250
v 0.750000 0.187500 0.468750
v 0.312500 0.750000 0.468750
v 0.312500 0.750000 0.531250
v 0.687500 0.750000 0.531250
v 0.687500 0.750000 0.468750
v 0.375000 0.750000 0.531250
v 0.375000 0.687500 0.531250
v 0.375000 0.687500 0.468750
v 0.375000 0.750000 0.468750
v 0.625000 0.750000 0.468750
v 0.625000 0.687500 0.468750
v 0.625000 0.687500 0.531250
v 0.625000 0.750000 0.531250
v 0.187500 0.687500 0.468750
v 0.187500 0.687500 0.531250
v 0.812500 0.687500 0.531250
v 0.812500 0.687500 0.468750
v 0.187500 0.625000 0.531250
v 0.187500 0.625000 0.468750
v 0.812500 0.625000 0.468750
v 0.812500 0.625000 0.531250
v 0.250000 0.562500 0.531250
v 0.250000 0.562500 0.468750
v 0.750000 0.562500 0.468750
v 0.750000 0.562500 0.531250
v 0.375000 0.562500 0.468750
v 0.375000 0.562500 0.531250
v 0.625000 0.562500 0.531250
v 0.625000 0.562500 0.468750
v 0.375000 0.437500 0.468750
v 0.375000 0.437500 0.531250
v 0.625000 0.437500 0.531250
v 0.625000 0.437500 0.468750
v 0.312500 0.437500 0.468750
v 0.312500 0.437500 0.531250
v 0.687500 0.437500 0.531250
v 0.687500 0.437500 0.468750
v 0.312500 0.250000 0.468750
v 0.312500 0.250000 0.531250
v 0.687500 0.250000 0.531250
v 0.687500 0.250000 0.468750
v 0.250000 0.250000 0.468750
v 0.250000 0.250000 0.531250
v 0.750000 0.250000 0.531250
v 0.750000 0.250000 0.468750
v 0.125000 0.187500 0.468750
v 0.125000 0.187500 0.531250
v 0.875000 0.187500 0.531250
v 0.875000 0.187500 0.468750
v 0.125000 0.125000 0.531250
v 0.125000 0.125000 0.468750
v 0.875000 0.125000 0.468750
v 0.875000 0.125000 0.531250
vn 0.000000 0.000000 -1.000000
vn 0.000000 0.000000 1.000000
vn 0.000000 1.000000 0.000000
vn -1.000000 0.000000 0.000000
vn 1.000000 0.000000 0.000000
vn 0.000000 -1.000000 0.000000
vt 0.312469 0.578094
vt 0.312469 0.562531
vt 0.296906 0.562531
vt 0.296906 0.578094
vt 0.296906 0.578094
vt 0.296906 0.562531
vt 0.312469 0.562531
vt 0.312469 0.578094
vt 0.300797 0.575193
vt 0.300797 0.574221
vt 0.308578 0.574221
vt 0.308578 0.575193
vt 0.301756 0.575176
vt 0.301756 0.565449
vt 0.300783 0.565449
vt 0.300783 0.575176
vt 0.301756 0.575188
vt 0.301756 0.571297
vt 0.300783 0.571297
vt 0.300783 0.575188
vt 0.304686 0.575188
vt 0.304686 0.571297
vt 0.303713 0.571297
vt 0.303713 0.575188
vt 0.305662 0.575188
vt 0.305662 0.571297
vt 0.304689 0.571297
vt 0.304689 0.575188
vt 0.308592 0.575188
vt 0.308592 0.571297
vt 0.307619 0.571297
vt 0.307619 0.575188
vt 0.308592 0.575176
vt 0.308592 0.565449
vt 0.307619 0.565449
vt 0.307619 0.575176
vt 0.301769 0.574217
vt 0.301769 0.573244
vt 0.307606 0.573244
vt 0.307606 0.574217
vt 0.302732 0.574217
vt 0.302732 0.573244
vt 0.301760 0.573244
vt 0.301760 0.574217
vt 0.307615 0.574217
vt 0.307615 0.573244
vt 0.306643 0.573244
vt 0.306643 0.574217
vt 0.299824 0.573240
vt 0.299824 0.572268
vt 0.309551 0.572268
vt 0.309551 0.573240
vt 0.299824 0.573240
vt 0.299824 0.572268
vt 0.309551 0.572268
vt 0.309551 0.573240
vt 0.300779 0.573240
vt 0.300779 0.572268
vt 0.299807 0.572268
vt 0.299807 0.573240
vt 0.309568 0.573240
vt 0.309568 0.572268
vt 0.308596 0.572268
vt 0.308596 0.573240
vt 0.300797 0.572264
vt 0.300797 0.571291
vt 0.308578 0.571291
vt 0.308578 0.572264
vt 0.302742 0.571287
vt 0.302742 0.570314
vt 0.306633 0.570314
vt 0.306633 0.571287
vt 0.303709 0.571285
vt 0.303709 0.569340
vt 0.302736 0.569340
vt 0.302736 0.571285
vt 0.306639 0.571285
vt 0.306639 0.569340
vt 0.305666 0.569340
vt 0.305666 0.571285
vt 0.301769 0.569334
vt 0.301769 0.568361
vt 0.307606 0.568361
vt 0.307606 0.569334
vt 0.302732 0.569330
vt 0.302732 0.566412
vt 0.301760 0.566412
vt 0.301760 0.569330
vt 0.307615 0.569330
vt 0.307615 0.566412
vt 0.306643 0.566412
vt 0.306643 0.569330
vt 0.300797 0.566404
vt 0.300797 0.565432
vt 0.308578 0.565432
vt 0.308578 0.566404
vt 0.298851 0.565428
vt 0.298851 0.564455
vt 0.310524 0.564455
vt 0.310524 0.565428
vt 0.298851 0.565428
vt 0.298851 0.564455
vt 0.310524 0.564455
vt 0.310524 0.565428
vt 0.299803 0.565428
vt 0.299803 0.564455
vt 0.298830 0.564455
vt 0.298830 0.565428
vt 0.310545 0.565428
vt 0.310545 0.564455
vt 0.309572 0.564455
vt 0.309572 0.565428
f 1/1/1 2/2/1 3/3/1 4/4/1
f 5/5/2 6/6/2 7/7/2 8/8/2
f 9/9/3 10/10/3 11/11/3 12/12/3
f 9/13/4 13/14/4 14/15/4 10/16/4
f 15/17/5 16/18/5 17/19/5 18/20/5
f 19/21/4 20/22/4 21/23/4 22/24/4
f 23/25/5 24/26/5 25/27/5 26/28/5
f 27/29/4 28/30/4 29/31/4 30/32/4
f 11/33/5 31/34/5 32/35/5 12/36/5
f 33/37/3 34/38/3 35/39/3 36/40/3
f 37/41/5 38/42/5 39/43/5 40/44/5
f 41/45/4 42/46/4 43/47/4 44/48/4
f 45/49/3 46/50/3 47/51/3 48/52/3
f 49/53/6 50/54/6 51/55/6 52/56/6
f 45/57/4 50/58/4 49/59/4 46/60/4
f 47/61/5 52/62/5 51/63/5 48/64/5
f 53/65/6 54/66/6 55/67/6 56/68/6
f 57/69/3 58/70/3 59/71/3 60/72/3
f 57/73/4 61/74/4 62/75/4 58/76/4
f 59/77/5 63/78/5 64/79/5 60/80/5
f 65/81/3 66/82/3 67/83/3 68/84/3
f 65/85/4 69/86/4 70/87/4 66/88/4
f 67/89/5 71/90/5 72/91/5 68/92/5
f 73/93/3 74/94/3 75/95/3 76/96/3
f 77/97/3 78/98/3 79/99/3 80/100/3
f 81/101/6 82/102/6 83/103/6 84/104/6
f 77/105/4 82/106/4 81/107/4 78/108/4
f 79/109/5 84/110/5 83/111/5 80/112/5
