v 1.000000 1.000000 0.468750
v 1.000000 0.000000 0.468750
v 0.000000 0.000000 0.468750
v 0.000000 1.000000 0.468750
v 0.000000 1.000000 0.531250
v 0.000000 0.000000 0.531250
v 1.000000 0.000000 0.531250
v 1.000000 1.000000 0.531250
v 0.625000 0.875000 0.468750
v 0.625000 0.875000 0.531250
v 0.750000 0.875000 0.531250
v 0.750000 0.875000 0.468750
v 0.625000 0.812500 0.468750
v 0.625000 0.812500 0.531250
v 0.750000 0.812500 0.531250
v 0.750000 0.812500 0.468750
v 0.437500 0.812500 0.468750
v 0.437500 0.812500 0.531250
v 0.812500 0.812500 0.531250
v 0.812500 0.812500 0.468750
v 0.437500 0.750000 0.468750
v 0.437500 0.750000 0.531250
v 0.812500 0.250000 0.531250
v 0.812500 0.250000 0.468750
v 0.250000 0.750000 0.468750
v 0.250000 0.750000 0.531250
v 0.875000 0.750000 0.531250
v 0.875000 0.750000 0.468750
v 0.250000 0.687500 0.468750
v 0.250000 0.687500 0.531250
v 0.875000 0.687500 0.531250
v 0.875000 0.687500 0.468750
v 0.062500 0.687500 0.468750
v 0.062500 0.687500 0.531250
v 0.937500 0.687500 0.531250
v 0.937500 0.687500 0.468750
v 0.062500 0.250000 0.468750
v 0.062500 0.250000 0.531250
v 0.937500 0.312500 0.531250
v 0.937500 0.312500 0.468750
v 0.000000 0.625000 0.468750
v 0.000000 0.625000 0.531250
v 1.000000 0.625000 0.531250
v 1.000000 0.625000 0.468750
v 0.000000 0.312500 0.468750
v 0.000000 0.312500 0.531250
v 1.000000 0.375000 0.531250
v 1.000000 0.375000 0.468750
v 0.937500 0.375000 0.531250
v 0.937500 0.375000 0.468750
v 0.125000 0.187500 0.531250
v 0.125000 0.187500 0.468750
v 0.625000 0.187500 0.468750
v 0.625000 0.187500 0.531250
v 0.125000 0.250000 0.468750
v 0.125000 0.250000 0.531250
v 0.625000 0.250000 0.531250
v 0.625000 0.250000 0.468750
v 0.187500 0.125000 0.531250
v 0.187500 0.125000 0.468750
v 0.437500 0.125000 0.468750
v 0.437500 0.125000 0.531250
v 0.187500 0.187500 0.468750
v 0.187500 0.187500 0.531250
v 0.437500 0.187500 0.531250
v 0.437500 0.187500 0.468750
vn 0.000000 0.000000 -1.000000
vn 0.000000 0.000000 1.000000
vn 0.000000 1.000000 0.000000
vn -1.000000 0.000000 0.000000
vn 1.000000 0.000000 0.000000
vn 0.000000 -1.000000 0.000000
vt 0.328094 0.578094
vt 0.328094 0.562531
vt 0.312531 0.562531
vt 0.312531 0.578094
vt 0.312531 0.578094
vt 0.312531 0.562531
vt 0.328094 0.562531
vt 0.328094 0.578094
vt 0.322269 0.576170
vt 0.322269 0.575197
vt 0.324215 0.575197
vt 0.324215 0.576170
vt 0.323240 0.576170
vt 0.323240 0.575197
vt 0.322268 0.575197
vt 0.322268 0.576170
vt 0.324217 0.576170
vt 0.324217 0.575197
vt 0.323244 0.575197
vt 0.323244 0.576170
vt 0.319347 0.575193
vt 0.319347 0.574221
vt 0.325184 0.574221
vt 0.325184 0.575193
vt 0.320311 0.575193
vt 0.320311 0.574221
vt 0.319338 0.574221
vt 0.319338 0.575193
vt 0.325193 0.575178
vt 0.325193 0.566423
vt 0.324221 0.566423
vt 0.324221 0.575178
vt 0.316425 0.574217
vt 0.316425 0.573244
vt 0.326153 0.573244
vt 0.326153 0.574217
vt 0.317381 0.574217
vt 0.317381 0.573244
vt 0.316408 0.573244
vt 0.316408 0.574217
vt 0.326170 0.574217
vt 0.326170 0.573244
vt 0.325197 0.573244
vt 0.325197 0.574217
vt 0.313503 0.573240
vt 0.313503 0.572268
vt 0.327122 0.572268
vt 0.327122 0.573240
vt 0.314451 0.573229
vt 0.314451 0.566420
vt 0.313478 0.566420
vt 0.313478 0.573229
vt 0.327147 0.573231
vt 0.327147 0.567394
vt 0.326174 0.567394
vt 0.326174 0.573231
vt 0.312531 0.572264
vt 0.312531 0.571291
vt 0.328094 0.571291
vt 0.328094 0.572264
vt 0.313475 0.572256
vt 0.313475 0.567392
vt 0.312502 0.567392
vt 0.312502 0.572256
vt 0.328123 0.572258
vt 0.328123 0.568367
vt 0.327150 0.568367
vt 0.327150 0.572258
vt 0.327150 0.569334
vt 0.327150 0.568361
vt 0.328123 0.568361
vt 0.328123 0.569334
vt 0.312529 0.568357
vt 0.312529 0.567385
vt 0.327120 0.567385
vt 0.327120 0.568357
vt 0.313499 0.567381
vt 0.313499 0.566408
vt 0.325172 0.566408
vt 0.325172 0.567381
vt 0.314468 0.566404
vt 0.314468 0.565432
vt 0.322250 0.565432
vt 0.322250 0.566404
vt 0.315428 0.566404
vt 0.315428 0.565432
vt 0.314455 0.565432
vt 0.314455 0.566404
vt 0.322264 0.566404
vt 0.322264 0.565432
vt 0.321291 0.565432
vt 0.321291 0.566404
vt 0.315437 0.565428
vt 0.315437 0.564455
vt 0.319328 0.564455
vt 0.319328 0.565428
vt 0.316404 0.565428
vt 0.316404 0.564455
vt 0.315432 0.564455
vt 0.315432 0.565428
vt 0.319334 0.565428
vt 0.319334 0.564455
vt 0.318361 0.564455
vt 0.318361 0.565428
f 1/1/1 2/2/1 3/3/1 4/4/1
f 5/5/2 6/6/2 7/7/2 8/8/2
f 9/9/3 10/10/3 11/11/3 12/12/3
f 9/13/4 13/14/4 14/15/4 10/16/4
f 11/17/5 15/18/5 16/19/5 12/20/5
f 17/21/3 18/22/3 19/23/3 20/24/3
f 17/25/4 21/26/4 22/27/4 18/28/4
f 19/29/5 23/30/5 24/31/5 20/32/5
f 25/33/3 26/34/3 27/35/3 28/36/3
f 25/37/4 29/38/4 30/39/4 26/40/4
f 27/41/5 31/42/5 32/43/5 28/44/5
f 33/45/3 34/46/3 35/47/3 36/48/3
f 33/49/4 37/50/4 38/51/4 34/52/4
f 35/53/5 39/54/5 40/55/5 36/56/5
f 41/57/3 42/58/3 43/59/3 44/60/3
f 41/61/4 45/62/4 46/63/4 42/64/4
f 43/65/5 47/66/5 48/67/5 44/68/5
f 49/69/6 50/70/6 48/71/6 47/72/6
f 46/73/6 45/74/6 40/75/6 39/76/6
f 38/77/6 37/78/6 24/79/6 23/80/6
f 51/81/6 52/82/6 53/83/6 54/84/6
f 55/85/4 52/86/4 51/87/4 56/88/4
f 57/89/5 54/90/5 53/91/5 58/92/5
f 59/93/6 60/94/6 61/95/6 62/96/6
f 63/97/4 60/98/4 59/99/4 64/100/4
f 65/101/5 62/102/5 61/103/5 66/104/5
