v 1.000000 1.000000 0.468750
v 1.000000 0.000000 0.468750
v 0.000000 0.000000 0.468750
v 0.000000 1.000000 0.468750
v 0.000000 1.000000 0.531250
v 0.000000 0.000000 0.531250
v 1.000000 0.000000 0.531250
v 1.000000 1.000000 0.531250
v 0.250000 0.625000 0.468750
v 0.250000 0.625000 0.531250
v 0.687500 0.625000 0.531250
v 0.687500 0.625000 0.468750
v 0.250000 0.312500 0.468750
v 0.250000 0.312500 0.531250
v 0.312500 0.625000 0.531250
v 0.312500 0.500000 0.531250
v 0.312500 0.500000 0.468750
v 0.312500 0.625000 0.468750
v 0.562500 0.625000 0.468750
v 0.562500 0.500000 0.468750
v 0.562500 0.500000 0.531250
v 0.562500 0.625000 0.531250
v 0.687500 0.375000 0.531250
v 0.687500 0.375000 0.468750
v 0.187500 0.562500 0.468750
v 0.187500 0.562500 0.531250
v 0.500000 0.562500 0.531250
v 0.500000 0.562500 0.468750
v 0.187500 0.375000 0.468750
v 0.187500 0.375000 0.531250
v 0.437500 0.562500 0.468750
v 0.437500 0.437500 0.468750
v 0.437500 0.437500 0.531250
v 0.437500 0.562500 0.531250
v 0.500000 0.500000 0.531250
v 0.500000 0.500000 0.468750
v 0.812500 0.500000 0.531250
v 0.812500 0.500000 0.468750
v 0.375000 0.500000 0.531250
v 0.375000 0.437500 0.531250
v 0.375000 0.437500 0.468750
v 0.375000 0.500000 0.468750
v 0.500000 0.437500 0.468750
v 0.500000 0.437500 0.531250
v 0.750000 0.500000 0.468750
v 0.750000 0.375000 0.468750
v 0.750000 0.375000 0.531250
v 0.750000 0.500000 0.531250
v 0.812500 0.250000 0.531250
v 0.812500 0.250000 0.468750
v 0.062500 0.437500 0.468750
v 0.062500 0.437500 0.531250
v 1.000000 0.437500 0.531250
v 1.000000 0.437500 0.468750
v 0.062500 0.062500 0.468750
v 0.062500 0.062500 0.531250
v 0.125000 0.437500 0.531250
v 0.125000 0.375000 0.531250
v 0.125000 0.375000 0.468750
v 0.125000 0.437500 0.468750
v 0.437500 0.375000 0.531250
v 0.437500 0.375000 0.468750
v 0.500000 0.375000 0.468750
v 0.500000 0.375000 0.531250
v 0.875000 0.437500 0.531250
v 0.875000 0.312500 0.531250
v 0.875000 0.312500 0.468750
v 0.875000 0.437500 0.468750
v 0.937500 0.437500 0.468750
v 0.937500 0.312500 0.468750
v 0.937500 0.312500 0.531250
v 0.937500 0.437500 0.531250
v 1.000000 0.125000 0.531250
v 1.000000 0.125000 0.468750
v 0.000000 0.375000 0.468750
v 0.000000 0.375000 0.531250
v 0.187500 0.312500 0.531250
v 0.187500 0.312500 0.468750
v 0.625000 0.375000 0.531250
v 0.625000 0.250000 0.531250
v 0.625000 0.250000 0.468750
v 0.625000 0.375000 0.468750
v 0.687500 0.250000 0.468750
v 0.687500 0.250000 0.531250
v 0.000000 0.250000 0.531250
v 0.000000 0.250000 0.468750
v 0.250000 0.250000 0.531250
v 0.250000 0.250000 0.468750
v 0.312500 0.312500 0.468750
v 0.312500 0.250000 0.468750
v 0.312500 0.250000 0.531250
v 0.312500 0.312500 0.531250
v 0.875000 0.250000 0.468750
v 0.875000 0.250000 0.531250
v 0.562500 0.250000 0.531250
v 0.562500 0.187500 0.531250
v 0.562500 0.187500 0.468750
v 0.562500 0.250000 0.468750
v 0.625000 0.187500 0.468750
v 0.625000 0.187500 0.531250
v 0.000000 0.187500 0.468750
v 0.000000 0.187500 0.531250
v 0.000000 0.125000 0.531250
v 0.000000 0.125000 0.468750
v 0.937500 0.125000 0.531250
v 0.937500 0.000000 0.531250
v 0.937500 0.000000 0.468750
v 0.937500 0.125000 0.468750
v 0.000000 0.062500 0.468750
v 0.000000 0.062500 0.531250
vn 0.000000 0.000000 -1.000000
vn 0.000000 0.000000 1.000000
vn 0.000000 1.000000 0.000000
vn -1.000000 0.000000 0.000000
vn 1.000000 0.000000 0.000000
vn 0.000000 -1.000000 0.000000
vt 0.234344 0.828094
vt 0.234344 0.812531
vt 0.218781 0.812531
vt 0.218781 0.828094
vt 0.218781 0.828094
vt 0.218781 0.812531
vt 0.234344 0.812531
vt 0.234344 0.828094
vt 0.222670 0.822264
vt 0.222670 0.821291
vt 0.229479 0.821291
vt 0.229479 0.822264
vt 0.223631 0.822256
vt 0.223631 0.817392
vt 0.222658 0.817392
vt 0.222658 0.822256
vt 0.223631 0.822262
vt 0.223631 0.820316
vt 0.222658 0.820316
vt 0.222658 0.822262
vt 0.228514 0.822262
vt 0.228514 0.820316
vt 0.227541 0.820316
vt 0.227541 0.822262
vt 0.229490 0.822258
vt 0.229490 0.818367
vt 0.228518 0.818367
vt 0.228518 0.822258
vt 0.221689 0.821287
vt 0.221689 0.820314
vt 0.226553 0.820314
vt 0.226553 0.821287
vt 0.222654 0.821283
vt 0.222654 0.818365
vt 0.221682 0.818365
vt 0.221682 0.821283
vt 0.226561 0.821285
vt 0.226561 0.819340
vt 0.225588 0.819340
vt 0.225588 0.821285
vt 0.226561 0.821287
vt 0.226561 0.820314
vt 0.225588 0.820314
vt 0.225588 0.821287
vt 0.223648 0.820311
vt 0.223648 0.819338
vt 0.231430 0.819338
vt 0.231430 0.820311
vt 0.224607 0.820311
vt 0.224607 0.819338
vt 0.223635 0.819338
vt 0.223635 0.820311
vt 0.225588 0.820311
vt 0.225588 0.819338
vt 0.226561 0.819338
vt 0.226561 0.820311
vt 0.231443 0.820309
vt 0.231443 0.818363
vt 0.230471 0.818363
vt 0.230471 0.820309
vt 0.231443 0.820305
vt 0.231443 0.816414
vt 0.230471 0.816414
vt 0.230471 0.820305
vt 0.219755 0.819334
vt 0.219755 0.818361
vt 0.234346 0.818361
vt 0.234346 0.819334
vt 0.220701 0.819324
vt 0.220701 0.813488
vt 0.219728 0.813488
vt 0.219728 0.819324
vt 0.220701 0.819334
vt 0.220701 0.818361
vt 0.219728 0.818361
vt 0.219728 0.819334
vt 0.221695 0.819334
vt 0.221695 0.818361
vt 0.229477 0.818361
vt 0.229477 0.819334
vt 0.225584 0.819334
vt 0.225584 0.818361
vt 0.224611 0.818361
vt 0.224611 0.819334
vt 0.227537 0.819334
vt 0.227537 0.818361
vt 0.226564 0.818361
vt 0.226564 0.819334
vt 0.232420 0.819332
vt 0.232420 0.817387
vt 0.231447 0.817387
vt 0.231447 0.819332
vt 0.234373 0.819332
vt 0.234373 0.817387
vt 0.233400 0.817387
vt 0.233400 0.819332
vt 0.234373 0.819326
vt 0.234373 0.814463
vt 0.233400 0.814463
vt 0.233400 0.819326
vt 0.218773 0.818357
vt 0.218773 0.817385
vt 0.230446 0.817385
vt 0.230446 0.818357
vt 0.219725 0.818348
vt 0.219725 0.812511
vt 0.218752 0.812511
vt 0.218752 0.818348
vt 0.221678 0.818357
vt 0.221678 0.817385
vt 0.220705 0.817385
vt 0.220705 0.818357
vt 0.222675 0.818357
vt 0.222675 0.817385
vt 0.232403 0.817385
vt 0.232403 0.818357
vt 0.228514 0.818356
vt 0.228514 0.816410
vt 0.227541 0.816410
vt 0.227541 0.818356
vt 0.230467 0.818356
vt 0.230467 0.816410
vt 0.229494 0.816410
vt 0.229494 0.818356
vt 0.218769 0.817381
vt 0.218769 0.816408
vt 0.228497 0.816408
vt 0.228497 0.817381
vt 0.221703 0.817381
vt 0.221703 0.816408
vt 0.233376 0.816408
vt 0.233376 0.817381
vt 0.222654 0.817381
vt 0.222654 0.816408
vt 0.221682 0.816408
vt 0.221682 0.817381
vt 0.224607 0.817381
vt 0.224607 0.816408
vt 0.223635 0.816408
vt 0.223635 0.817381
vt 0.233397 0.817381
vt 0.233397 0.816408
vt 0.232424 0.816408
vt 0.232424 0.817381
vt 0.222675 0.816404
vt 0.222675 0.815432
vt 0.232403 0.815432
vt 0.232403 0.816404
vt 0.227537 0.816404
vt 0.227537 0.815432
vt 0.226564 0.815432
vt 0.226564 0.816404
vt 0.229490 0.816404
vt 0.229490 0.815432
vt 0.228518 0.815432
vt 0.228518 0.816404
vt 0.218769 0.815428
vt 0.218769 0.814455
vt 0.228497 0.814455
vt 0.228497 0.815428
vt 0.218781 0.815428
vt 0.218781 0.814455
vt 0.234344 0.814455
vt 0.234344 0.815428
vt 0.233397 0.814449
vt 0.233397 0.812504
vt 0.232424 0.812504
vt 0.232424 0.814449
vt 0.218752 0.813475
vt 0.218752 0.812502
vt 0.219725 0.812502
vt 0.219725 0.813475
vt 0.218779 0.813475
vt 0.218779 0.812502
vt 0.233370 0.812502
vt 0.233370 0.813475
f 1/1/1 2/2/1 3/3/1 4/4/1
f 5/5/2 6/6/2 7/7/2 8/8/2
f 9/9/3 10/10/3 11/11/3 12/12/3
f 9/13/4 13/14/4 14/15/4 10/16/4
f 15/17/5 16/18/5 17/19/5 18/20/5
f 19/21/4 20/22/4 21/23/4 22/24/4
f 11/25/5 23/26/5 24/27/5 12/28/5
f 25/29/3 26/30/3 27/31/3 28/32/3
f 25/33/4 29/34/4 30/35/4 26/36/4
f 31/37/4 32/38/4 33/39/4 34/40/4
f 27/41/5 35/42/5 36/43/5 28/44/5
f 17/45/3 16/46/3 37/47/3 38/48/3
f 39/49/5 40/50/5 41/51/5 42/52/5
f 33/53/6 32/54/6 43/55/6 44/56/6
f 45/57/4 46/58/4 47/59/4 48/60/4
f 37/61/5 49/62/5 50/63/5 38/64/5
f 51/65/3 52/66/3 53/67/3 54/68/3
f 51/69/4 55/70/4 56/71/4 52/72/4
f 57/73/5 58/74/5 59/75/5 60/76/5
f 30/77/6 29/78/6 24/79/6 23/80/6
f 33/81/5 61/82/5 62/83/5 32/84/5
f 43/85/4 63/86/4 64/87/4 44/88/4
f 65/89/5 66/90/5 67/91/5 68/92/5
f 69/93/4 70/94/4 71/95/4 72/96/4
f 53/97/5 73/98/5 74/99/5 54/100/5
f 75/101/3 76/102/3 47/103/3 46/104/3
f 75/105/4 3/106/4 6/107/4 76/108/4
f 30/109/5 77/110/5 78/111/5 29/112/5
f 14/113/6 13/114/6 67/115/6 66/116/6
f 79/117/5 80/118/5 81/119/5 82/120/5
f 24/121/4 83/122/4 84/123/4 23/124/4
f 85/125/6 86/126/6 81/127/6 80/128/6
f 78/129/3 77/130/3 71/131/3 70/132/3
f 14/133/5 87/134/5 88/135/5 13/136/5
f 89/137/4 90/138/4 91/139/4 92/140/4
f 67/141/4 93/142/4 94/143/4 66/144/4
f 88/145/3 87/146/3 94/147/3 93/148/3
f 95/149/5 96/150/5 97/151/5 98/152/5
f 81/153/4 99/154/4 100/155/4 80/156/4
f 101/157/3 102/158/3 100/159/3 99/160/3
f 103/161/6 104/162/6 74/163/6 73/164/6
f 105/165/5 106/166/5 107/167/5 108/168/5
f 109/169/3 110/170/3 56/171/3 55/172/3
f 6/173/6 3/174/6 107/175/6 106/176/6
