v 1.000000 1.000000 0.062500
v 1.000000 0.000000 0.062500
v 0.000000 0.000000 0.062500
v 0.000000 1.000000 0.062500
v 0.000000 1.000000 0.937500
v 0.000000 0.000000 0.937500
v 1.000000 0.000000 0.937500
v 1.000000 1.000000 0.937500
v 0.062500 1.000000 0.000000
v 0.062500 0.000000 0.000000
v 0.062500 0.000000 1.000000
v 0.062500 1.000000 1.000000
v 0.937500 1.000000 1.000000
v 0.937500 0.000000 1.000000
v 0.937500 0.000000 0.000000
v 0.937500 1.000000 0.000000
v 0.000000 0.000000 1.000000
v 0.000000 0.000000 0.000000
v 1.000000 0.000000 0.000000
v 1.000000 0.000000 1.000000
v 0.000000 1.000000 0.000000
v 0.000000 1.000000 1.000000
v 1.000000 1.000000 1.000000
v 1.000000 1.000000 0.000000
vn 0.000000 0.000000 -1.000000
vn 0.000000 0.000000 1.000000
vn -1.000000 0.000000 0.000000
vn 1.000000 0.000000 0.000000
vn 0.000000 -1.000000 0.000000
vn 0.000000 1.000000 0.000000
vt 0.000031 0.812469
vt 0.000031 0.796906
vt 0.015594 0.796906
vt 0.015594 0.812469
vt 0.000031 0.812469
vt 0.000031 0.796906
vt 0.015594 0.796906
vt 0.015594 0.812469
vt 0.000031 0.812469
vt 0.000031 0.796906
vt 0.015594 0.796906
vt 0.015594 0.812469
vt 0.000031 0.812469
vt 0.000031 0.796906
vt 0.015594 0.796906
vt 0.015594 0.812469
vt 0.250031 0.828094
vt 0.250031 0.812531
vt 0.265594 0.812531
vt 0.265594 0.828094
vt 0.015656 0.812469
vt 0.015656 0.796906
vt 0.031219 0.796906
vt 0.031219 0.812469
f 1/1/1 2/2/1 3/3/1 4/4/1
f 5/5/2 6/6/2 7/7/2 8/8/2
f 9/9/3 10/10/3 11/11/3 12/12/3
f 13/13/4 14/14/4 15/15/4 16/16/4
f 17/17/5 18/18/5 19/19/5 20/20/5
f 21/21/6 22/22/6 23/23/6 24/24/6
