v 1.000000 1.000000 0.468750
v 1.000000 0.000000 0.468750
v 0.000000 0.000000 0.468750
v 0.000000 1.000000 0.468750
v 0.000000 1.000000 0.531250
v 0.000000 0.000000 0.531250
v 1.000000 0.000000 0.531250
v 1.000000 1.000000 0.531250
v 0.250000 0.937500 0.468750
v 0.250000 0.937500 0.531250
v 0.750000 0.937500 0.531250
v 0.750000 0.937500 0.468750
v 0.250000 0.062500 0.468750
v 0.250000 0.062500 0.531250
v 0.750000 0.062500 0.531250
v 0.750000 0.062500 0.468750
v 0.125000 0.875000 0.468750
v 0.125000 0.875000 0.531250
v 0.875000 0.875000 0.531250
v 0.875000 0.875000 0.468750
v 0.125000 0.125000 0.468750
v 0.125000 0.125000 0.531250
v 0.875000 0.125000 0.531250
v 0.875000 0.125000 0.468750
v 0.062500 0.812500 0.468750
v 0.062500 0.812500 0.531250
v 0.937500 0.812500 0.531250
v 0.937500 0.812500 0.468750
v 0.062500 0.187500 0.468750
v 0.062500 0.187500 0.531250
v 0.937500 0.187500 0.531250
v 0.937500 0.187500 0.468750
v 0.000000 0.750000 0.468750
v 0.000000 0.750000 0.531250
v 1.000000 0.750000 0.531250
v 1.000000 0.750000 0.468750
v 0.000000 0.250000 0.468750
v 0.000000 0.250000 0.531250
v 1.000000 0.250000 0.531250
v 1.000000 0.250000 0.468750
vn 0.000000 0.000000 -1.000000
vn 0.000000 0.000000 1.000000
vn 0.000000 1.000000 0.000000
vn -1.000000 0.000000 0.000000
vn 1.000000 0.000000 0.000000
vn 0.000000 -1.000000 0.000000
vt 0.437469 0.578094
vt 0.437469 0.562531
vt 0.421906 0.562531
vt 0.421906 0.578094
vt 0.421906 0.578094
vt 0.421906 0.562531
vt 0.437469 0.562531
vt 0.437469 0.578094
vt 0.425797 0.577147
vt 0.425797 0.576174
vt 0.433578 0.576174
vt 0.433578 0.577147
vt 0.426756 0.577122
vt 0.426756 0.563503
vt 0.425783 0.563503
vt 0.425783 0.577122
vt 0.433592 0.577122
vt 0.433592 0.563503
vt 0.432619 0.563503
vt 0.432619 0.577122
vt 0.423851 0.576170
vt 0.423851 0.575197
vt 0.435524 0.575197
vt 0.435524 0.576170
vt 0.424803 0.576149
vt 0.424803 0.564476
vt 0.423830 0.564476
vt 0.423830 0.576149
vt 0.435545 0.576149
vt 0.435545 0.564476
vt 0.434572 0.564476
vt 0.434572 0.576149
vt 0.422878 0.575193
vt 0.422878 0.574221
vt 0.436497 0.574221
vt 0.436497 0.575193
vt 0.423826 0.575176
vt 0.423826 0.565449
vt 0.422853 0.565449
vt 0.422853 0.575176
vt 0.436522 0.575176
vt 0.436522 0.565449
vt 0.435549 0.565449
vt 0.435549 0.575176
vt 0.421906 0.574217
vt 0.421906 0.573244
vt 0.437469 0.573244
vt 0.437469 0.574217
vt 0.422850 0.574203
vt 0.422850 0.566422
vt 0.421877 0.566422
vt 0.421877 0.574203
vt 0.437498 0.574203
vt 0.437498 0.566422
vt 0.436525 0.566422
vt 0.436525 0.574203
vt 0.421906 0.567381
vt 0.421906 0.566408
vt 0.437469 0.566408
vt 0.437469 0.567381
vt 0.422878 0.566404
vt 0.422878 0.565432
vt 0.436497 0.565432
vt 0.436497 0.566404
vt 0.423851 0.565428
vt 0.423851 0.564455
vt 0.435524 0.564455
vt 0.435524 0.565428
vt 0.425797 0.564451
vt 0.425797 0.563478
vt 0.433578 0.563478
vt 0.433578 0.564451
f 1/1/1 2/2/1 3/3/1 4/4/1
f 5/5/2 6/6/2 7/7/2 8/8/2
f 9/9/3 10/10/3 11/11/3 12/12/3
f 9/13/4 13/14/4 14/15/4 10/16/4
f 11/17/5 15/18/5 16/19/5 12/20/5
f 17/21/3 18/22/3 19/23/3 20/24/3
f 17/25/4 21/26/4 22/27/4 18/28/4
f 19/29/5 23/30/5 24/31/5 20/32/5
f 25/33/3 26/34/3 27/35/3 28/36/3
f 25/37/4 29/38/4 30/39/4 26/40/4
f 27/41/5 31/42/5 32/43/5 28/44/5
f 33/45/3 34/46/3 35/47/3 36/48/3
f 33/49/4 37/50/4 38/51/4 34/52/4
f 35/53/5 39/54/5 40/55/5 36/56/5
f 38/57/6 37/58/6 40/59/6 39/60/6
f 30/61/6 29/62/6 32/63/6 31/64/6
f 22/65/6 21/66/6 24/67/6 23/68/6
f 14/69/6 13/70/6 16/71/6 15/72/6
