v 1.000000 1.000000 0.468750
v 1.000000 0.000000 0.468750
v 0.000000 0.000000 0.468750
v 0.000000 1.000000 0.468750
v 0.000000 1.000000 0.531250
v 0.000000 0.000000 0.531250
v 1.000000 0.000000 0.531250
v 1.000000 1.000000 0.531250
v 0.250000 0.875000 0.468750
v 0.250000 0.875000 0.531250
v 0.750000 0.875000 0.531250
v 0.750000 0.875000 0.468750
v 0.250000 0.812500 0.468750
v 0.250000 0.812500 0.531250
v 0.750000 0.812500 0.531250
v 0.750000 0.812500 0.468750
v 0.187500 0.812500 0.468750
v 0.187500 0.812500 0.531250
v 0.812500 0.812500 0.531250
v 0.812500 0.812500 0.468750
v 0.187500 0.125000 0.468750
v 0.187500 0.125000 0.531250
v 0.812500 0.125000 0.531250
v 0.812500 0.125000 0.468750
v 0.437500 0.562500 0.531250
v 0.437500 0.562500 0.468750
v 0.562500 0.562500 0.468750
v 0.562500 0.562500 0.531250
v 0.437500 0.125000 0.531250
v 0.437500 0.125000 0.468750
v 0.562500 0.125000 0.468750
v 0.562500 0.125000 0.531250
vn 0.000000 0.000000 -1.000000
vn 0.000000 0.000000 1.000000
vn 0.000000 1.000000 0.000000
vn -1.000000 0.000000 0.000000
vn 1.000000 0.000000 0.000000
vn 0.000000 -1.000000 0.000000
vt 0.078094 0.562469
vt 0.078094 0.546906
vt 0.062531 0.546906
vt 0.062531 0.562469
vt 0.062531 0.562469
vt 0.062531 0.546906
vt 0.078094 0.546906
vt 0.078094 0.562469
vt 0.066422 0.560545
vt 0.066422 0.559572
vt 0.074203 0.559572
vt 0.074203 0.560545
vt 0.067381 0.560545
vt 0.067381 0.559572
vt 0.066408 0.559572
vt 0.066408 0.560545
vt 0.074217 0.560545
vt 0.074217 0.559572
vt 0.073244 0.559572
vt 0.073244 0.560545
vt 0.065449 0.559568
vt 0.065449 0.558596
vt 0.075176 0.558596
vt 0.075176 0.559568
vt 0.066404 0.559549
vt 0.066404 0.548849
vt 0.065432 0.548849
vt 0.065432 0.559549
vt 0.075193 0.559549
vt 0.075193 0.548849
vt 0.074221 0.548849
vt 0.074221 0.559549
vt 0.069340 0.556639
vt 0.069340 0.555666
vt 0.071285 0.555666
vt 0.071285 0.556639
vt 0.069334 0.555651
vt 0.069334 0.548841
vt 0.068361 0.548841
vt 0.068361 0.555651
vt 0.072264 0.555651
vt 0.072264 0.548841
vt 0.071291 0.548841
vt 0.071291 0.555651
vt 0.065449 0.549803
vt 0.065449 0.548830
vt 0.075176 0.548830
vt 0.075176 0.549803
f 1/1/1 2/2/1 3/3/1 4/4/1
f 5/5/2 6/6/2 7/7/2 8/8/2
f 9/9/3 10/10/3 11/11/3 12/12/3
f 9/13/4 13/14/4 14/15/4 10/16/4
f 11/17/5 15/18/5 16/19/5 12/20/5
f 17/21/3 18/22/3 19/23/3 20/24/3
f 17/25/4 21/26/4 22/27/4 18/28/4
f 19/29/5 23/30/5 24/31/5 20/32/5
f 25/33/6 26/34/6 27/35/6 28/36/6
f 25/37/5 29/38/5 30/39/5 26/40/5
f 27/41/4 31/42/4 32/43/4 28/44/4
f 22/45/6 21/46/6 24/47/6 23/48/6
