v 1.000000 1.000000 0.468750
v 1.000000 0.000000 0.468750
v 0.000000 0.000000 0.468750
v 0.000000 1.000000 0.468750
v 0.000000 1.000000 0.531250
v 0.000000 0.000000 0.531250
v 1.000000 0.000000 0.531250
v 1.000000 1.000000 0.531250
v 0.437500 0.937500 0.468750
v 0.437500 0.937500 0.531250
v 0.625000 0.937500 0.531250
v 0.625000 0.937500 0.468750
v 0.437500 0.875000 0.468750
v 0.437500 0.875000 0.531250
v 0.625000 0.875000 0.531250
v 0.625000 0.875000 0.468750
v 0.312500 0.875000 0.468750
v 0.312500 0.875000 0.531250
v 0.687500 0.875000 0.531250
v 0.687500 0.875000 0.468750
v 0.312500 0.062500 0.468750
v 0.312500 0.062500 0.531250
v 0.687500 0.812500 0.531250
v 0.687500 0.812500 0.468750
v 0.250000 0.812500 0.468750
v 0.250000 0.812500 0.531250
v 0.750000 0.812500 0.531250
v 0.750000 0.812500 0.468750
v 0.250000 0.125000 0.468750
v 0.250000 0.125000 0.531250
v 0.750000 0.750000 0.531250
v 0.750000 0.750000 0.468750
v 0.187500 0.750000 0.468750
v 0.187500 0.750000 0.531250
v 0.812500 0.750000 0.531250
v 0.812500 0.750000 0.468750
v 0.187500 0.187500 0.468750
v 0.187500 0.187500 0.531250
v 0.812500 0.125000 0.531250
v 0.812500 0.125000 0.468750
v 0.812500 0.687500 0.468750
v 0.812500 0.687500 0.531250
v 0.875000 0.687500 0.531250
v 0.875000 0.687500 0.468750
v 0.875000 0.187500 0.531250
v 0.875000 0.187500 0.468750
v 0.875000 0.625000 0.468750
v 0.875000 0.625000 0.531250
v 0.937500 0.625000 0.531250
v 0.937500 0.625000 0.468750
v 0.937500 0.250000 0.531250
v 0.937500 0.250000 0.468750
v 0.125000 0.562500 0.468750
v 0.125000 0.562500 0.531250
v 0.187500 0.562500 0.531250
v 0.187500 0.562500 0.468750
v 0.125000 0.250000 0.468750
v 0.125000 0.250000 0.531250
v 0.562500 0.062500 0.468750
v 0.562500 0.062500 0.531250
v 0.562500 0.125000 0.531250
v 0.562500 0.125000 0.468750
vn 0.000000 0.000000 -1.000000
vn 0.000000 0.000000 1.000000
vn 0.000000 1.000000 0.000000
vn -1.000000 0.000000 0.000000
vn 1.000000 0.000000 0.000000
vn 0.000000 -1.000000 0.000000
vt 0.093719 0.562469
vt 0.093719 0.546906
vt 0.078156 0.546906
vt 0.078156 0.562469
vt 0.078156 0.562469
vt 0.078156 0.546906
vt 0.093719 0.546906
vt 0.093719 0.562469
vt 0.084967 0.561522
vt 0.084967 0.560549
vt 0.087885 0.560549
vt 0.087885 0.561522
vt 0.085936 0.561522
vt 0.085936 0.560549
vt 0.084963 0.560549
vt 0.084963 0.561522
vt 0.087889 0.561522
vt 0.087889 0.560549
vt 0.086916 0.560549
vt 0.086916 0.561522
vt 0.083019 0.560545
vt 0.083019 0.559572
vt 0.088856 0.559572
vt 0.088856 0.560545
vt 0.083982 0.560522
vt 0.083982 0.547876
vt 0.083010 0.547876
vt 0.083010 0.560522
vt 0.088865 0.560545
vt 0.088865 0.559572
vt 0.087893 0.559572
vt 0.087893 0.560545
vt 0.082047 0.559568
vt 0.082047 0.558596
vt 0.089828 0.558596
vt 0.089828 0.559568
vt 0.083006 0.559549
vt 0.083006 0.548849
vt 0.082033 0.548849
vt 0.082033 0.559549
vt 0.089842 0.559568
vt 0.089842 0.558596
vt 0.088869 0.558596
vt 0.088869 0.559568
vt 0.081074 0.558592
vt 0.081074 0.557619
vt 0.090801 0.557619
vt 0.090801 0.558592
vt 0.082029 0.558577
vt 0.082029 0.549822
vt 0.081057 0.549822
vt 0.081057 0.558577
vt 0.090818 0.558575
vt 0.090818 0.548847
vt 0.089846 0.548847
vt 0.089846 0.558575
vt 0.090822 0.557615
vt 0.090822 0.556643
vt 0.091795 0.556643
vt 0.091795 0.557615
vt 0.091795 0.557602
vt 0.091795 0.549820
vt 0.090822 0.549820
vt 0.090822 0.557602
vt 0.091799 0.556639
vt 0.091799 0.555666
vt 0.092772 0.555666
vt 0.092772 0.556639
vt 0.092772 0.556629
vt 0.092772 0.550793
vt 0.091799 0.550793
vt 0.091799 0.556629
vt 0.080080 0.555662
vt 0.080080 0.554689
vt 0.081053 0.554689
vt 0.081053 0.555662
vt 0.081053 0.555655
vt 0.081053 0.550791
vt 0.080080 0.550791
vt 0.080080 0.555655
vt 0.080103 0.551756
vt 0.080103 0.550783
vt 0.092749 0.550783
vt 0.092749 0.551756
vt 0.081076 0.550779
vt 0.081076 0.549807
vt 0.091776 0.549807
vt 0.091776 0.550779
vt 0.082048 0.549803
vt 0.082048 0.548830
vt 0.090803 0.548830
vt 0.090803 0.549803
vt 0.083015 0.548826
vt 0.083015 0.547853
vt 0.086906 0.547853
vt 0.086906 0.548826
vt 0.086912 0.548826
vt 0.086912 0.547853
vt 0.085939 0.547853
vt 0.085939 0.548826
f 1/1/1 2/2/1 3/3/1 4/4/1
f 5/5/2 6/6/2 7/7/2 8/8/2
f 9/9/3 10/10/3 11/11/3 12/12/3
f 9/13/4 13/14/4 14/15/4 10/16/4
f 11/17/5 15/18/5 16/19/5 12/20/5
f 17/21/3 18/22/3 19/23/3 20/24/3
f 17/25/4 21/26/4 22/27/4 18/28/4
f 19/29/5 23/30/5 24/31/5 20/32/5
f 25/33/3 26/34/3 27/35/3 28/36/3
f 25/37/4 29/38/4 30/39/4 26/40/4
f 27/41/5 31/42/5 32/43/5 28/44/5
f 33/45/3 34/46/3 35/47/3 36/48/3
f 33/49/4 37/50/4 38/51/4 34/52/4
f 35/53/5 39/54/5 40/55/5 36/56/5
f 41/57/3 42/58/3 43/59/3 44/60/3
f 43/61/5 45/62/5 46/63/5 44/64/5
f 47/65/3 48/66/3 49/67/3 50/68/3
f 49/69/5 51/70/5 52/71/5 50/72/5
f 53/73/3 54/74/3 55/75/3 56/76/3
f 53/77/4 57/78/4 58/79/4 54/80/4
f 58/81/6 57/82/6 52/83/6 51/84/6
f 38/85/6 37/86/6 46/87/6 45/88/6
f 30/89/6 29/90/6 40/91/6 39/92/6
f 22/93/6 21/94/6 59/95/6 60/96/6
f 61/97/5 60/98/5 59/99/5 62/100/5
