v 0.125000 1.000000 0.125000
v 0.125000 1.000000 0.875000
v 0.875000 1.000000 0.875000
v 0.875000 1.000000 0.125000
v 0.875000 0.875000 0.125000
v 0.125000 0.875000 0.125000
v 0.125000 0.875000 0.875000
v 0.875000 0.875000 0.875000
v 0.000000 0.125000 0.875000
v 0.000000 0.125000 0.125000
v 0.125000 0.125000 0.125000
v 0.125000 0.125000 0.875000
v 0.000000 0.875000 0.125000
v 0.000000 0.875000 0.875000
v 0.125000 0.125000 0.000000
v 0.875000 0.125000 0.000000
v 0.875000 0.125000 0.125000
v 0.125000 0.875000 0.000000
v 0.875000 0.875000 0.000000
v 0.125000 0.125000 1.000000
v 0.875000 0.125000 0.875000
v 0.875000 0.125000 1.000000
v 0.125000 0.875000 1.000000
v 0.875000 0.875000 1.000000
v 1.000000 0.125000 0.125000
v 1.000000 0.125000 0.875000
v 1.000000 0.875000 0.875000
v 1.000000 0.875000 0.125000
v 0.125000 0.000000 0.875000
v 0.125000 0.000000 0.125000
v 0.875000 0.000000 0.125000
v 0.875000 0.000000 0.875000
vn 0.000000 1.000000 0.000000
vn 0.000000 0.000000 -1.000000
vn 0.000000 0.000000 1.000000
vn -1.000000 0.000000 0.000000
vn 1.000000 0.000000 0.000000
vn 0.000000 -1.000000 0.000000
vt 0.126976 0.779274
vt 0.126976 0.767601
vt 0.138649 0.767601
vt 0.138649 0.779274
vt 0.158226 0.781246
vt 0.158226 0.779301
vt 0.169899 0.779301
vt 0.169899 0.781246
vt 0.158226 0.781246
vt 0.158226 0.779301
vt 0.169899 0.779301
vt 0.169899 0.781246
vt 0.158226 0.781246
vt 0.158226 0.779301
vt 0.169899 0.779301
vt 0.169899 0.781246
vt 0.158226 0.781246
vt 0.158226 0.779301
vt 0.169899 0.779301
vt 0.169899 0.781246
vt 0.171871 0.767601
vt 0.171871 0.779274
vt 0.169926 0.779274
vt 0.169926 0.767601
vt 0.156254 0.779274
vt 0.156254 0.767601
vt 0.158199 0.767601
vt 0.158199 0.779274
vt 0.169926 0.779274
vt 0.169926 0.767601
vt 0.171871 0.767601
vt 0.171871 0.779274
vt 0.156254 0.779274
vt 0.156254 0.767601
vt 0.158199 0.767601
vt 0.158199 0.779274
vt 0.126976 0.779274
vt 0.126976 0.767601
vt 0.138649 0.767601
vt 0.138649 0.779274
vt 0.169899 0.779301
vt 0.169899 0.781246
vt 0.158226 0.781246
vt 0.158226 0.779301
vt 0.158226 0.781246
vt 0.158226 0.779301
vt 0.169899 0.779301
vt 0.169899 0.781246
vt 0.126976 0.779274
vt 0.126976 0.767601
vt 0.138649 0.767601
vt 0.138649 0.779274
vt 0.156254 0.779274
vt 0.156254 0.767601
vt 0.158199 0.767601
vt 0.158199 0.779274
vt 0.169926 0.779274
vt 0.169926 0.767601
vt 0.171871 0.767601
vt 0.171871 0.779274
vt 0.169899 0.765629
vt 0.169899 0.767574
vt 0.158226 0.767574
vt 0.158226 0.765629
vt 0.158226 0.767574
vt 0.158226 0.765629
vt 0.169899 0.765629
vt 0.169899 0.767574
vt 0.126976 0.779274
vt 0.126976 0.767601
vt 0.138649 0.767601
vt 0.138649 0.779274
vt 0.169926 0.779274
vt 0.169926 0.767601
vt 0.171871 0.767601
vt 0.171871 0.779274
vt 0.156254 0.779274
vt 0.156254 0.767601
vt 0.158199 0.767601
vt 0.158199 0.779274
vt 0.158199 0.767601
vt 0.158199 0.779274
vt 0.156254 0.779274
vt 0.156254 0.767601
vt 0.169926 0.779274
vt 0.169926 0.767601
vt 0.171871 0.767601
vt 0.171871 0.779274
vt 0.156254 0.779274
vt 0.156254 0.767601
vt 0.158199 0.767601
vt 0.158199 0.779274
vt 0.169926 0.779274
vt 0.169926 0.767601
vt 0.171871 0.767601
vt 0.171871 0.779274
vt 0.126976 0.779274
vt 0.126976 0.767601
vt 0.138649 0.767601
vt 0.138649 0.779274
vt 0.169899 0.767601
vt 0.169899 0.779274
vt 0.158226 0.779274
vt 0.158226 0.767601
vt 0.158226 0.779274
vt 0.158226 0.767601
vt 0.169899 0.767601
vt 0.169899 0.779274
vt 0.158226 0.779270
vt 0.158226 0.765652
vt 0.169899 0.765652
vt 0.169899 0.779270
vt 0.158226 0.779270
vt 0.158226 0.765652
vt 0.169899 0.765652
vt 0.169899 0.779270
vt 0.158226 0.779270
vt 0.158226 0.765652
vt 0.169899 0.765652
vt 0.169899 0.779270
vt 0.158226 0.779270
vt 0.158226 0.765652
vt 0.169899 0.765652
vt 0.169899 0.779270
f 1/1/1 2/2/1 3/3/1 4/4/1
f 4/5/2 5/6/2 6/7/2 1/8/2
f 2/9/3 7/10/3 8/11/3 3/12/3
f 1/13/4 6/14/4 7/15/4 2/16/4
f 3/17/5 8/18/5 5/19/5 4/20/5
f 9/21/6 10/22/6 11/23/6 12/24/6
f 13/25/1 14/26/1 7/27/1 6/28/1
f 6/29/2 11/30/2 10/31/2 13/32/2
f 14/33/3 9/34/3 12/35/3 7/36/3
f 13/37/4 10/38/4 9/39/4 14/40/4
f 11/41/6 15/42/6 16/43/6 17/44/6
f 18/45/1 6/46/1 5/47/1 19/48/1
f 19/49/2 16/50/2 15/51/2 18/52/2
f 18/53/4 15/54/4 11/55/4 6/56/4
f 5/57/5 17/58/5 16/59/5 19/60/5
f 20/61/6 12/62/6 21/63/6 22/64/6
f 7/65/1 23/66/1 24/67/1 8/68/1
f 23/69/3 20/70/3 22/71/3 24/72/3
f 7/73/4 12/74/4 20/75/4 23/76/4
f 24/77/5 22/78/5 21/79/5 8/80/5
f 21/81/6 17/82/6 25/83/6 26/84/6
f 5/85/1 8/86/1 27/87/1 28/88/1
f 28/89/2 25/90/2 17/91/2 5/92/2
f 8/93/3 21/94/3 26/95/3 27/96/3
f 27/97/5 26/98/5 25/99/5 28/100/5
f 29/101/6 30/102/6 31/103/6 32/104/6
f 6/105/1 7/106/1 8/107/1 5/108/1
f 5/109/2 31/110/2 30/111/2 6/112/2
f 7/113/3 29/114/3 32/115/3 8/116/3
f 6/117/4 30/118/4 29/119/4 7/120/4
f 8/121/5 32/122/5 31/123/5 5/124/5
