v 1.000000 1.000000 0.468750
v 1.000000 0.000000 0.468750
v 0.000000 0.000000 0.468750
v 0.000000 1.000000 0.468750
v 0.000000 1.000000 0.531250
v 0.000000 0.000000 0.531250
v 1.000000 0.000000 0.531250
v 1.000000 1.000000 0.531250
v 0.687500 0.937500 0.468750
v 0.687500 0.937500 0.531250
v 0.812500 0.937500 0.531250
v 0.812500 0.937500 0.468750
v 0.687500 0.812500 0.468750
v 0.687500 0.812500 0.531250
v 0.812500 0.875000 0.531250
v 0.812500 0.875000 0.468750
v 0.875000 0.875000 0.531250
v 0.875000 0.875000 0.468750
v 0.875000 0.812500 0.531250
v 0.875000 0.812500 0.468750
v 0.625000 0.812500 0.468750
v 0.625000 0.812500 0.531250
v 0.937500 0.812500 0.531250
v 0.937500 0.812500 0.468750
v 0.625000 0.750000 0.468750
v 0.625000 0.750000 0.531250
v 0.937500 0.625000 0.531250
v 0.937500 0.625000 0.468750
v 0.312500 0.750000 0.468750
v 0.312500 0.750000 0.531250
v 0.312500 0.687500 0.468750
v 0.312500 0.687500 0.531250
v 0.437500 0.750000 0.531250
v 0.437500 0.687500 0.531250
v 0.437500 0.687500 0.468750
v 0.437500 0.750000 0.468750
v 0.500000 0.750000 0.468750
v 0.500000 0.687500 0.468750
v 0.500000 0.687500 0.531250
v 0.500000 0.750000 0.531250
v 0.250000 0.687500 0.468750
v 0.250000 0.687500 0.531250
v 0.250000 0.500000 0.468750
v 0.250000 0.500000 0.531250
v 0.750000 0.625000 0.531250
v 0.750000 0.625000 0.468750
v 0.750000 0.437500 0.531250
v 0.750000 0.437500 0.468750
v 0.187500 0.500000 0.468750
v 0.187500 0.500000 0.531250
v 0.187500 0.062500 0.468750
v 0.187500 0.062500 0.531250
v 0.687500 0.437500 0.531250
v 0.687500 0.437500 0.468750
v 0.687500 0.312500 0.531250
v 0.687500 0.312500 0.468750
v 0.125000 0.375000 0.468750
v 0.125000 0.375000 0.531250
v 0.187500 0.375000 0.531250
v 0.187500 0.375000 0.468750
v 0.125000 0.125000 0.468750
v 0.125000 0.125000 0.531250
v 0.625000 0.312500 0.531250
v 0.625000 0.312500 0.468750
v 0.562500 0.250000 0.531250
v 0.562500 0.250000 0.468750
v 0.625000 0.250000 0.468750
v 0.625000 0.250000 0.531250
v 0.500000 0.187500 0.531250
v 0.500000 0.187500 0.468750
v 0.562500 0.187500 0.468750
v 0.562500 0.187500 0.531250
v 0.500000 0.125000 0.468750
v 0.500000 0.125000 0.531250
v 0.375000 0.062500 0.468750
v 0.375000 0.062500 0.531250
v 0.375000 0.125000 0.531250
v 0.375000 0.125000 0.468750
vn 0.000000 0.000000 -1.000000
vn 0.000000 0.000000 1.000000
vn 0.000000 1.000000 0.000000
vn -1.000000 0.000000 0.000000
vn 1.000000 0.000000 0.000000
vn 0.000000 -1.000000 0.000000
vt 0.171844 0.531219
vt 0.171844 0.515656
vt 0.156281 0.515656
vt 0.156281 0.531219
vt 0.156281 0.531219
vt 0.156281 0.515656
vt 0.171844 0.515656
vt 0.171844 0.531219
vt 0.166996 0.530272
vt 0.166996 0.529299
vt 0.168941 0.529299
vt 0.168941 0.530272
vt 0.167967 0.530270
vt 0.167967 0.528324
vt 0.166994 0.528324
vt 0.166994 0.530270
vt 0.168943 0.530272
vt 0.168943 0.529299
vt 0.167971 0.529299
vt 0.167971 0.530272
vt 0.168947 0.529295
vt 0.168947 0.528322
vt 0.169920 0.528322
vt 0.169920 0.529295
vt 0.169920 0.529295
vt 0.169920 0.528322
vt 0.168947 0.528322
vt 0.168947 0.529295
vt 0.166025 0.528318
vt 0.166025 0.527346
vt 0.170889 0.527346
vt 0.170889 0.528318
vt 0.166990 0.528318
vt 0.166990 0.527346
vt 0.166018 0.527346
vt 0.166018 0.528318
vt 0.170897 0.528315
vt 0.170897 0.525396
vt 0.169924 0.525396
vt 0.169924 0.528315
vt 0.161142 0.527342
vt 0.161142 0.526369
vt 0.166006 0.526369
vt 0.166006 0.527342
vt 0.162107 0.527342
vt 0.162107 0.526369
vt 0.161135 0.526369
vt 0.161135 0.527342
vt 0.163084 0.527342
vt 0.163084 0.526369
vt 0.162111 0.526369
vt 0.162111 0.527342
vt 0.165037 0.527342
vt 0.165037 0.526369
vt 0.164064 0.526369
vt 0.164064 0.527342
vt 0.160164 0.526365
vt 0.160164 0.525393
vt 0.164055 0.525393
vt 0.164055 0.526365
vt 0.161131 0.526361
vt 0.161131 0.523443
vt 0.160158 0.523443
vt 0.160158 0.526361
vt 0.167974 0.526365
vt 0.167974 0.525393
vt 0.170893 0.525393
vt 0.170893 0.526365
vt 0.167967 0.525385
vt 0.167967 0.522467
vt 0.166994 0.522467
vt 0.166994 0.525385
vt 0.159182 0.523436
vt 0.159182 0.522463
vt 0.160154 0.522463
vt 0.160154 0.523436
vt 0.160154 0.523424
vt 0.160154 0.516615
vt 0.159182 0.516615
vt 0.159182 0.523424
vt 0.166994 0.523436
vt 0.166994 0.522463
vt 0.167967 0.522463
vt 0.167967 0.523436
vt 0.166990 0.522457
vt 0.166990 0.520512
vt 0.166018 0.520512
vt 0.166018 0.522457
vt 0.158205 0.521482
vt 0.158205 0.520510
vt 0.159178 0.520510
vt 0.159178 0.521482
vt 0.159178 0.521477
vt 0.159178 0.517586
vt 0.158205 0.517586
vt 0.158205 0.521477
vt 0.166018 0.521482
vt 0.166018 0.520510
vt 0.166990 0.520510
vt 0.166990 0.521482
vt 0.165041 0.520506
vt 0.165041 0.519533
vt 0.166014 0.519533
vt 0.166014 0.520506
vt 0.166014 0.520506
vt 0.166014 0.519533
vt 0.165041 0.519533
vt 0.165041 0.520506
vt 0.164064 0.519529
vt 0.164064 0.518557
vt 0.165037 0.518557
vt 0.165037 0.519529
vt 0.165037 0.519529
vt 0.165037 0.518557
vt 0.164064 0.518557
vt 0.164064 0.519529
vt 0.158215 0.518553
vt 0.158215 0.517580
vt 0.164051 0.517580
vt 0.164051 0.518553
vt 0.164061 0.518553
vt 0.164061 0.517580
vt 0.163088 0.517580
vt 0.163088 0.518553
vt 0.159185 0.517576
vt 0.159185 0.516603
vt 0.162104 0.516603
vt 0.162104 0.517576
vt 0.162107 0.517576
vt 0.162107 0.516603
vt 0.161135 0.516603
vt 0.161135 0.517576
f 1/1/1 2/2/1 3/3/1 4/4/1
f 5/5/2 6/6/2 7/7/2 8/8/2
f 9/9/3 10/10/3 11/11/3 12/12/3
f 9/13/4 13/14/4 14/15/4 10/16/4
f 11/17/5 15/18/5 16/19/5 12/20/5
f 16/21/3 15/22/3 17/23/3 18/24/3
f 17/25/5 19/26/5 20/27/5 18/28/5
f 21/29/3 22/30/3 23/31/3 24/32/3
f 21/33/4 25/34/4 26/35/4 22/36/4
f 23/37/5 27/38/5 28/39/5 24/40/5
f 29/41/3 30/42/3 26/43/3 25/44/3
f 29/45/4 31/46/4 32/47/4 30/48/4
f 33/49/5 34/50/5 35/51/5 36/52/5
f 37/53/4 38/54/4 39/55/4 40/56/4
f 41/57/3 42/58/3 39/59/3 38/60/3
f 41/61/4 43/62/4 44/63/4 42/64/4
f 45/65/6 46/66/6 28/67/6 27/68/6
f 45/69/5 47/70/5 48/71/5 46/72/5
f 49/73/3 50/74/3 44/75/3 43/76/3
f 49/77/4 51/78/4 52/79/4 50/80/4
f 53/81/6 54/82/6 48/83/6 47/84/6
f 53/85/5 55/86/5 56/87/5 54/88/5
f 57/89/3 58/90/3 59/91/3 60/92/3
f 57/93/4 61/94/4 62/95/4 58/96/4
f 63/97/6 64/98/6 56/99/6 55/100/6
f 65/101/6 66/102/6 67/103/6 68/104/6
f 63/105/5 68/106/5 67/107/5 64/108/5
f 69/109/6 70/110/6 71/111/6 72/112/6
f 65/113/5 72/114/5 71/115/5 66/116/5
f 62/117/6 61/118/6 73/119/6 74/120/6
f 69/121/5 74/122/5 73/123/5 70/124/5
f 52/125/6 51/126/6 75/127/6 76/128/6
f 77/129/5 76/130/5 75/131/5 78/132/5
