v 0.000000 0.000000 1.000000
v 0.000000 0.000000 0.000000
v 1.000000 0.000000 0.000000
v 1.000000 0.000000 1.000000
v 0.000000 0.125000 0.000000
v 0.000000 0.125000 1.000000
v 1.000000 0.125000 1.000000
v 1.000000 0.125000 0.000000
v 0.000000 1.000000 0.000000
v 0.000000 1.000000 1.000000
v 0.125000 1.000000 1.000000
v 0.125000 1.000000 0.000000
v 0.125000 0.000000 1.000000
v 0.125000 0.000000 0.000000
v 0.875000 1.000000 0.000000
v 0.875000 1.000000 1.000000
v 1.000000 1.000000 1.000000
v 1.000000 1.000000 0.000000
v 0.875000 0.000000 0.000000
v 0.875000 0.000000 1.000000
v 0.125000 1.000000 0.125000
v 0.875000 1.000000 0.125000
v 0.125000 0.000000 0.125000
v 0.875000 0.000000 0.125000
v 0.125000 1.000000 0.875000
v 0.875000 1.000000 0.875000
v 0.875000 0.000000 0.875000
v 0.125000 0.000000 0.875000
vn 0.000000 -1.000000 0.000000
vn 0.000000 1.000000 0.000000
vn 1.000000 0.000000 0.000000
vn -1.000000 0.000000 0.000000
vn 0.000000 0.000000 1.000000
vn 0.000000 0.000000 -1.000000
vt 0.156281 0.765594
vt 0.156281 0.750031
vt 0.171844 0.750031
vt 0.171844 0.765594
vt 0.156281 0.765594
vt 0.156281 0.750031
vt 0.171844 0.750031
vt 0.171844 0.765594
vt 0.218754 0.765594
vt 0.218754 0.750031
vt 0.220699 0.750031
vt 0.220699 0.765594
vt 0.203156 0.765594
vt 0.203156 0.750031
vt 0.218719 0.750031
vt 0.218719 0.765594
vt 0.232426 0.765594
vt 0.232426 0.750031
vt 0.234371 0.750031
vt 0.234371 0.765594
vt 0.203156 0.765594
vt 0.203156 0.750031
vt 0.218719 0.750031
vt 0.218719 0.765594
vt 0.220726 0.765621
vt 0.220726 0.763676
vt 0.232399 0.763676
vt 0.232399 0.765621
vt 0.205101 0.765594
vt 0.205101 0.750031
vt 0.216774 0.750031
vt 0.216774 0.765594
vt 0.220726 0.751949
vt 0.220726 0.750004
vt 0.232399 0.750004
vt 0.232399 0.751949
vt 0.205101 0.765594
vt 0.205101 0.750031
vt 0.216774 0.750031
vt 0.216774 0.765594
vt 0.216801 0.765594
vt 0.216801 0.750031
vt 0.218746 0.750031
vt 0.218746 0.765594
vt 0.203129 0.765594
vt 0.203129 0.750031
vt 0.205074 0.750031
vt 0.205074 0.765594
vt 0.205101 0.765594
vt 0.205101 0.750031
vt 0.216774 0.750031
vt 0.216774 0.765594
vt 0.203129 0.765594
vt 0.203129 0.750031
vt 0.205074 0.750031
vt 0.205074 0.765594
vt 0.216801 0.765594
vt 0.216801 0.750031
vt 0.218746 0.750031
vt 0.218746 0.765594
vt 0.205101 0.765594
vt 0.205101 0.750031
vt 0.216774 0.750031
vt 0.216774 0.765594
vt 0.203156 0.765594
vt 0.203156 0.750031
vt 0.218719 0.750031
vt 0.218719 0.765594
vt 0.203156 0.765594
vt 0.203156 0.750031
vt 0.218719 0.750031
vt 0.218719 0.765594
f 1/1/1 2/2/1 3/3/1 4/4/1
f 5/5/2 6/6/2 7/7/2 8/8/2
f 9/9/2 10/10/2 11/11/2 12/12/2
f 11/13/3 13/14/3 14/15/3 12/16/3
f 15/17/2 16/18/2 17/19/2 18/20/2
f 15/21/4 19/22/4 20/23/4 16/24/4
f 12/25/2 21/26/2 22/27/2 15/28/2
f 21/29/5 23/30/5 24/31/5 22/32/5
f 25/33/2 11/34/2 16/35/2 26/36/2
f 26/37/6 27/38/6 28/39/6 25/40/6
f 12/41/6 14/42/6 2/43/6 9/44/6
f 18/45/6 3/46/6 19/47/6 15/48/6
f 15/49/6 19/50/6 14/51/6 12/52/6
f 10/53/5 1/54/5 13/55/5 11/56/5
f 16/57/5 20/58/5 4/59/5 17/60/5
f 11/61/5 13/62/5 20/63/5 16/64/5
f 9/65/4 2/66/4 1/67/4 10/68/4
f 17/69/3 4/70/3 3/71/3 18/72/3
