v 1.000000 1.000000 0.468750
v 1.000000 0.000000 0.468750
v 0.000000 0.000000 0.468750
v 0.000000 1.000000 0.468750
v 0.000000 1.000000 0.531250
v 0.000000 0.000000 0.531250
v 1.000000 0.000000 0.531250
v 1.000000 1.000000 0.531250
v 0.312500 0.937500 0.468750
v 0.312500 0.937500 0.531250
v 0.562500 0.937500 0.531250
v 0.562500 0.937500 0.468750
v 0.312500 0.875000 0.468750
v 0.312500 0.875000 0.531250
v 0.562500 0.875000 0.531250
v 0.562500 0.875000 0.468750
v 0.250000 0.875000 0.468750
v 0.250000 0.875000 0.531250
v 0.687500 0.875000 0.531250
v 0.687500 0.875000 0.468750
v 0.250000 0.062500 0.468750
v 0.250000 0.062500 0.531250
v 0.687500 0.187500 0.531250
v 0.687500 0.187500 0.468750
v 0.687500 0.812500 0.468750
v 0.687500 0.812500 0.531250
v 0.750000 0.812500 0.531250
v 0.750000 0.812500 0.468750
v 0.750000 0.750000 0.531250
v 0.750000 0.750000 0.468750
v 0.187500 0.750000 0.468750
v 0.187500 0.750000 0.531250
v 0.812500 0.750000 0.531250
v 0.812500 0.750000 0.468750
v 0.187500 0.562500 0.468750
v 0.187500 0.562500 0.531250
v 0.812500 0.250000 0.531250
v 0.812500 0.250000 0.468750
v 0.812500 0.687500 0.468750
v 0.812500 0.687500 0.531250
v 0.875000 0.687500 0.531250
v 0.875000 0.687500 0.468750
v 0.875000 0.312500 0.531250
v 0.875000 0.312500 0.468750
v 0.875000 0.625000 0.468750
v 0.875000 0.625000 0.531250
v 0.937500 0.625000 0.531250
v 0.937500 0.625000 0.468750
v 0.937500 0.437500 0.531250
v 0.937500 0.437500 0.468750
v 0.125000 0.562500 0.468750
v 0.125000 0.562500 0.531250
v 0.125000 0.187500 0.468750
v 0.125000 0.187500 0.531250
v 0.875000 0.437500 0.531250
v 0.875000 0.437500 0.468750
v 0.812500 0.312500 0.531250
v 0.812500 0.312500 0.468750
v 0.687500 0.250000 0.531250
v 0.687500 0.250000 0.468750
v 0.500000 0.125000 0.531250
v 0.500000 0.125000 0.468750
v 0.625000 0.125000 0.468750
v 0.625000 0.125000 0.531250
v 0.625000 0.187500 0.531250
v 0.625000 0.187500 0.468750
v 0.500000 0.062500 0.468750
v 0.500000 0.062500 0.531250
vn 0.000000 0.000000 -1.000000
vn 0.000000 0.000000 1.000000
vn 0.000000 1.000000 0.000000
vn -1.000000 0.000000 0.000000
vn 1.000000 0.000000 0.000000
vn 0.000000 -1.000000 0.000000
vt 0.234344 0.515594
vt 0.234344 0.500031
vt 0.218781 0.500031
vt 0.218781 0.515594
vt 0.218781 0.515594
vt 0.218781 0.500031
vt 0.234344 0.500031
vt 0.234344 0.515594
vt 0.223640 0.514647
vt 0.223640 0.513674
vt 0.227531 0.513674
vt 0.227531 0.514647
vt 0.224607 0.514647
vt 0.224607 0.513674
vt 0.223635 0.513674
vt 0.223635 0.514647
vt 0.227537 0.514647
vt 0.227537 0.513674
vt 0.226564 0.513674
vt 0.226564 0.514647
vt 0.222670 0.513670
vt 0.222670 0.512697
vt 0.229479 0.512697
vt 0.229479 0.513670
vt 0.223631 0.513647
vt 0.223631 0.501001
vt 0.222658 0.501001
vt 0.222658 0.513647
vt 0.229490 0.513651
vt 0.229490 0.502951
vt 0.228518 0.502951
vt 0.228518 0.513651
vt 0.229494 0.512693
vt 0.229494 0.511721
vt 0.230467 0.511721
vt 0.230467 0.512693
vt 0.230467 0.512693
vt 0.230467 0.511721
vt 0.229494 0.511721
vt 0.229494 0.512693
vt 0.221699 0.511717
vt 0.221699 0.510744
vt 0.231426 0.510744
vt 0.231426 0.511717
vt 0.222654 0.511713
vt 0.222654 0.508795
vt 0.221682 0.508795
vt 0.221682 0.511713
vt 0.231443 0.511703
vt 0.231443 0.503922
vt 0.230471 0.503922
vt 0.230471 0.511703
vt 0.231447 0.510740
vt 0.231447 0.509768
vt 0.232420 0.509768
vt 0.232420 0.510740
vt 0.232420 0.510731
vt 0.232420 0.504894
vt 0.231447 0.504894
vt 0.231447 0.510731
vt 0.232424 0.509764
vt 0.232424 0.508791
vt 0.233397 0.508791
vt 0.233397 0.509764
vt 0.233397 0.509760
vt 0.233397 0.506842
vt 0.232424 0.506842
vt 0.232424 0.509760
vt 0.220705 0.508787
vt 0.220705 0.507814
vt 0.221678 0.507814
vt 0.221678 0.508787
vt 0.221678 0.508778
vt 0.221678 0.502941
vt 0.220705 0.502941
vt 0.220705 0.508778
vt 0.232424 0.507811
vt 0.232424 0.506838
vt 0.233397 0.506838
vt 0.233397 0.507811
vt 0.231447 0.505857
vt 0.231447 0.504885
vt 0.232420 0.504885
vt 0.232420 0.505857
vt 0.229496 0.504881
vt 0.229496 0.503908
vt 0.231441 0.503908
vt 0.231441 0.504881
vt 0.220720 0.503904
vt 0.220720 0.502932
vt 0.229475 0.502932
vt 0.229475 0.503904
vt 0.226566 0.502928
vt 0.226566 0.501955
vt 0.228512 0.501955
vt 0.228512 0.502928
vt 0.228514 0.502928
vt 0.228514 0.501955
vt 0.227541 0.501955
vt 0.227541 0.502928
vt 0.222664 0.501951
vt 0.222664 0.500978
vt 0.226555 0.500978
vt 0.226555 0.501951
vt 0.226561 0.501951
vt 0.226561 0.500978
vt 0.225588 0.500978
vt 0.225588 0.501951
f 1/1/1 2/2/1 3/3/1 4/4/1
f 5/5/2 6/6/2 7/7/2 8/8/2
f 9/9/3 10/10/3 11/11/3 12/12/3
f 9/13/4 13/14/4 14/15/4 10/16/4
f 11/17/5 15/18/5 16/19/5 12/20/5
f 17/21/3 18/22/3 19/23/3 20/24/3
f 17/25/4 21/26/4 22/27/4 18/28/4
f 19/29/5 23/30/5 24/31/5 20/32/5
f 25/33/3 26/34/3 27/35/3 28/36/3
f 27/37/5 29/38/5 30/39/5 28/40/5
f 31/41/3 32/42/3 33/43/3 34/44/3
f 31/45/4 35/46/4 36/47/4 32/48/4
f 33/49/5 37/50/5 38/51/5 34/52/5
f 39/53/3 40/54/3 41/55/3 42/56/3
f 41/57/5 43/58/5 44/59/5 42/60/5
f 45/61/3 46/62/3 47/63/3 48/64/3
f 47/65/5 49/66/5 50/67/5 48/68/5
f 51/69/3 52/70/3 36/71/3 35/72/3
f 51/73/4 53/74/4 54/75/4 52/76/4
f 55/77/6 56/78/6 50/79/6 49/80/6
f 57/81/6 58/82/6 44/83/6 43/84/6
f 59/85/6 60/86/6 38/87/6 37/88/6
f 54/89/6 53/90/6 24/91/6 23/92/6
f 61/93/6 62/94/6 63/95/6 64/96/6
f 65/97/5 64/98/5 63/99/5 66/100/5
f 22/101/6 21/102/6 67/103/6 68/104/6
f 61/105/5 68/106/5 67/107/5 62/108/5
