v 1.000000 1.000000 0.468750
v 1.000000 0.000000 0.468750
v 0.000000 0.000000 0.468750
v 0.000000 1.000000 0.468750
v 0.000000 1.000000 0.531250
v 0.000000 0.000000 0.531250
v 1.000000 0.000000 0.531250
v 1.000000 1.000000 0.531250
v 0.625000 0.875000 0.468750
v 0.625000 0.875000 0.531250
v 0.750000 0.875000 0.531250
v 0.750000 0.875000 0.468750
v 0.625000 0.812500 0.468750
v 0.625000 0.812500 0.531250
v 0.750000 0.812500 0.531250
v 0.750000 0.812500 0.468750
v 0.437500 0.812500 0.468750
v 0.437500 0.812500 0.531250
v 0.812500 0.812500 0.531250
v 0.812500 0.812500 0.468750
v 0.437500 0.750000 0.468750
v 0.437500 0.750000 0.531250
v 0.812500 0.250000 0.531250
v 0.812500 0.250000 0.468750
v 0.250000 0.750000 0.468750
v 0.250000 0.750000 0.531250
v 0.875000 0.750000 0.531250
v 0.875000 0.750000 0.468750
v 0.250000 0.687500 0.468750
v 0.250000 0.687500 0.531250
v 0.875000 0.687500 0.531250
v 0.875000 0.687500 0.468750
v 0.062500 0.687500 0.468750
v 0.062500 0.687500 0.531250
v 0.937500 0.687500 0.531250
v 0.937500 0.687500 0.468750
v 0.062500 0.250000 0.468750
v 0.062500 0.250000 0.531250
v 0.937500 0.312500 0.531250
v 0.937500 0.312500 0.468750
v 0.000000 0.625000 0.468750
v 0.000000 0.625000 0.531250
v 1.000000 0.625000 0.531250
v 1.000000 0.625000 0.468750
v 0.000000 0.312500 0.468750
v 0.000000 0.312500 0.531250
v 1.000000 0.375000 0.531250
v 1.000000 0.375000 0.468750
v 0.937500 0.375000 0.531250
v 0.937500 0.375000 0.468750
v 0.125000 0.187500 0.531250
v 0.125000 0.187500 0.468750
v 0.625000 0.187500 0.468750
v 0.625000 0.187500 0.531250
v 0.125000 0.250000 0.468750
v 0.125000 0.250000 0.531250
v 0.625000 0.250000 0.531250
v 0.625000 0.250000 0.468750
v 0.187500 0.125000 0.531250
v 0.187500 0.125000 0.468750
v 0.437500 0.125000 0.468750
v 0.437500 0.125000 0.531250
v 0.187500 0.187500 0.468750
v 0.187500 0.187500 0.531250
v 0.437500 0.187500 0.531250
v 0.437500 0.187500 0.468750
vn 0.000000 0.000000 -1.000000
vn 0.000000 0.000000 1.000000
vn 0.000000 1.000000 0.000000
vn -1.000000 0.000000 0.000000
vn 1.000000 0.000000 0.000000
vn 0.000000 -1.000000 0.000000
vt 0.343719 0.515594
vt 0.343719 0.500031
vt 0.328156 0.500031
vt 0.328156 0.515594
vt 0.328156 0.515594
vt 0.328156 0.500031
vt 0.343719 0.500031
vt 0.343719 0.515594
vt 0.337894 0.513670
vt 0.337894 0.512697
vt 0.339840 0.512697
vt 0.339840 0.513670
vt 0.338865 0.513670
vt 0.338865 0.512697
vt 0.337893 0.512697
vt 0.337893 0.513670
vt 0.339842 0.513670
vt 0.339842 0.512697
vt 0.338869 0.512697
vt 0.338869 0.513670
vt 0.334972 0.512693
vt 0.334972 0.511721
vt 0.340809 0.511721
vt 0.340809 0.512693
vt 0.335936 0.512693
vt 0.335936 0.511721
vt 0.334963 0.511721
vt 0.334963 0.512693
vt 0.340818 0.512678
vt 0.340818 0.503923
vt 0.339846 0.503923
vt 0.339846 0.512678
vt 0.332050 0.511717
vt 0.332050 0.510744
vt 0.341778 0.510744
vt 0.341778 0.511717
vt 0.333006 0.511717
vt 0.333006 0.510744
vt 0.332033 0.510744
vt 0.332033 0.511717
vt 0.341795 0.511717
vt 0.341795 0.510744
vt 0.340822 0.510744
vt 0.340822 0.511717
vt 0.329128 0.510740
vt 0.329128 0.509768
vt 0.342747 0.509768
vt 0.342747 0.510740
vt 0.330076 0.510729
vt 0.330076 0.503920
vt 0.329103 0.503920
vt 0.329103 0.510729
vt 0.342772 0.510731
vt 0.342772 0.504894
vt 0.341799 0.504894
vt 0.341799 0.510731
vt 0.328156 0.509764
vt 0.328156 0.508791
vt 0.343719 0.508791
vt 0.343719 0.509764
vt 0.329100 0.509756
vt 0.329100 0.504892
vt 0.328127 0.504892
vt 0.328127 0.509756
vt 0.343748 0.509758
vt 0.343748 0.505867
vt 0.342775 0.505867
vt 0.342775 0.509758
vt 0.342775 0.506834
vt 0.342775 0.505861
vt 0.343748 0.505861
vt 0.343748 0.506834
vt 0.328154 0.505857
vt 0.328154 0.504885
vt 0.342745 0.504885
vt 0.342745 0.505857
vt 0.329124 0.504881
vt 0.329124 0.503908
vt 0.340797 0.503908
vt 0.340797 0.504881
vt 0.330093 0.503904
vt 0.330093 0.502932
vt 0.337875 0.502932
vt 0.337875 0.503904
vt 0.331053 0.503904
vt 0.331053 0.502932
vt 0.330080 0.502932
vt 0.330080 0.503904
vt 0.337889 0.503904
vt 0.337889 0.502932
vt 0.336916 0.502932
vt 0.336916 0.503904
vt 0.331062 0.502928
vt 0.331062 0.501955
vt 0.334953 0.501955
vt 0.334953 0.502928
vt 0.332029 0.502928
vt 0.332029 0.501955
vt 0.331057 0.501955
vt 0.331057 0.502928
vt 0.334959 0.502928
vt 0.334959 0.501955
vt 0.333986 0.501955
vt 0.333986 0.502928
f 1/1/1 2/2/1 3/3/1 4/4/1
f 5/5/2 6/6/2 7/7/2 8/8/2
f 9/9/3 10/10/3 11/11/3 12/12/3
f 9/13/4 13/14/4 14/15/4 10/16/4
f 11/17/5 15/18/5 16/19/5 12/20/5
f 17/21/3 18/22/3 19/23/3 20/24/3
f 17/25/4 21/26/4 22/27/4 18/28/4
f 19/29/5 23/30/5 24/31/5 20/32/5
f 25/33/3 26/34/3 27/35/3 28/36/3
f 25/37/4 29/38/4 30/39/4 26/40/4
f 27/41/5 31/42/5 32/43/5 28/44/5
f 33/45/3 34/46/3 35/47/3 36/48/3
f 33/49/4 37/50/4 38/51/4 34/52/4
f 35/53/5 39/54/5 40/55/5 36/56/5
f 41/57/3 42/58/3 43/59/3 44/60/3
f 41/61/4 45/62/4 46/63/4 42/64/4
f 43/65/5 47/66/5 48/67/5 44/68/5
f 49/69/6 50/70/6 48/71/6 47/72/6
f 46/73/6 45/74/6 40/75/6 39/76/6
f 38/77/6 37/78/6 24/79/6 23/80/6
f 51/81/6 52/82/6 53/83/6 54/84/6
f 55/85/4 52/86/4 51/87/4 56/88/4
f 57/89/5 54/90/5 53/91/5 58/92/5
f 59/93/6 60/94/6 61/95/6 62/96/6
f 63/97/4 60/98/4 59/99/4 64/100/4
f 65/101/5 62/102/5 61/103/5 66/104/5
