v 1.000000 1.000000 0.468750
v 1.000000 0.000000 0.468750
v 0.000000 0.000000 0.468750
v 0.000000 1.000000 0.468750
v 0.000000 1.000000 0.531250
v 0.000000 0.000000 0.531250
v 1.000000 0.000000 0.531250
v 1.000000 1.000000 0.531250
v 0.312500 0.750000 0.468750
v 0.312500 0.750000 0.531250
v 0.625000 0.750000 0.531250
v 0.625000 0.750000 0.468750
v 0.312500 0.187500 0.468750
v 0.312500 0.187500 0.531250
v 0.375000 0.750000 0.531250
v 0.375000 0.250000 0.531250
v 0.375000 0.250000 0.468750
v 0.375000 0.750000 0.468750
v 0.437500 0.750000 0.468750
v 0.437500 0.062500 0.468750
v 0.437500 0.062500 0.531250
v 0.437500 0.750000 0.531250
v 0.625000 0.687500 0.531250
v 0.625000 0.687500 0.468750
v 0.250000 0.687500 0.468750
v 0.250000 0.687500 0.531250
v 0.687500 0.687500 0.531250
v 0.687500 0.687500 0.468750
v 0.250000 0.625000 0.531250
v 0.250000 0.625000 0.468750
v 0.312500 0.625000 0.468750
v 0.312500 0.625000 0.531250
v 0.250000 0.312500 0.468750
v 0.250000 0.312500 0.531250
v 0.687500 0.562500 0.531250
v 0.687500 0.562500 0.468750
v 0.312500 0.562500 0.531250
v 0.312500 0.562500 0.468750
v 0.562500 0.562500 0.531250
v 0.562500 0.000000 0.531250
v 0.562500 0.000000 0.468750
v 0.562500 0.562500 0.468750
v 0.437500 0.437500 0.531250
v 0.437500 0.437500 0.468750
v 0.500000 0.437500 0.468750
v 0.500000 0.437500 0.531250
v 0.500000 0.000000 0.468750
v 0.500000 0.000000 0.531250
v 0.250000 0.375000 0.468750
v 0.250000 0.375000 0.531250
v 0.312500 0.375000 0.531250
v 0.312500 0.375000 0.468750
v 0.312500 0.312500 0.468750
v 0.312500 0.312500 0.531250
v 0.375000 0.312500 0.531250
v 0.375000 0.312500 0.468750
v 0.375000 0.187500 0.468750
v 0.375000 0.187500 0.531250
v 0.437500 0.250000 0.531250
v 0.437500 0.250000 0.468750
v 0.437500 0.187500 0.531250
v 0.437500 0.187500 0.468750
v 0.375000 0.125000 0.531250
v 0.375000 0.125000 0.468750
v 0.437500 0.125000 0.468750
v 0.437500 0.125000 0.531250
v 0.500000 0.187500 0.531250
v 0.500000 0.187500 0.468750
v 0.500000 0.062500 0.468750
v 0.500000 0.062500 0.531250
vn 0.000000 0.000000 -1.000000
vn 0.000000 0.000000 1.000000
vn 0.000000 1.000000 0.000000
vn -1.000000 0.000000 0.000000
vn 1.000000 0.000000 0.000000
vn 0.000000 -1.000000 0.000000
vt 0.031219 0.749969
vt 0.031219 0.734406
vt 0.015656 0.734406
vt 0.015656 0.749969
vt 0.015656 0.749969
vt 0.015656 0.734406
vt 0.031219 0.734406
vt 0.031219 0.749969
vt 0.020517 0.746092
vt 0.020517 0.745119
vt 0.025381 0.745119
vt 0.025381 0.746092
vt 0.021482 0.746077
vt 0.021482 0.737322
vt 0.020510 0.737322
vt 0.020510 0.746077
vt 0.021482 0.746078
vt 0.021482 0.738297
vt 0.020510 0.738297
vt 0.020510 0.746078
vt 0.023436 0.746073
vt 0.023436 0.735373
vt 0.022463 0.735373
vt 0.022463 0.746073
vt 0.025389 0.746092
vt 0.025389 0.745119
vt 0.024416 0.745119
vt 0.024416 0.746092
vt 0.019545 0.745115
vt 0.019545 0.744143
vt 0.026354 0.744143
vt 0.026354 0.745115
vt 0.019533 0.745115
vt 0.019533 0.744143
vt 0.020506 0.744143
vt 0.020506 0.745115
vt 0.020506 0.745106
vt 0.020506 0.739269
vt 0.019533 0.739269
vt 0.019533 0.745106
vt 0.026365 0.745113
vt 0.026365 0.743168
vt 0.025393 0.743168
vt 0.025393 0.745113
vt 0.020519 0.744139
vt 0.020519 0.743166
vt 0.026356 0.743166
vt 0.026356 0.744139
vt 0.024412 0.743147
vt 0.024412 0.734392
vt 0.023439 0.734392
vt 0.023439 0.743147
vt 0.022463 0.742186
vt 0.022463 0.741213
vt 0.023436 0.741213
vt 0.023436 0.742186
vt 0.024412 0.741198
vt 0.024412 0.734388
vt 0.023439 0.734388
vt 0.023439 0.741198
vt 0.019533 0.740232
vt 0.019533 0.739260
vt 0.020506 0.739260
vt 0.020506 0.740232
vt 0.019533 0.740232
vt 0.019533 0.739260
vt 0.020506 0.739260
vt 0.020506 0.740232
vt 0.020506 0.740232
vt 0.020506 0.739260
vt 0.019533 0.739260
vt 0.019533 0.740232
vt 0.020510 0.739256
vt 0.020510 0.738283
vt 0.021482 0.738283
vt 0.021482 0.739256
vt 0.020510 0.738279
vt 0.020510 0.737307
vt 0.021482 0.737307
vt 0.021482 0.738279
vt 0.021486 0.738279
vt 0.021486 0.737307
vt 0.022459 0.737307
vt 0.022459 0.738279
vt 0.022459 0.738279
vt 0.022459 0.737307
vt 0.021486 0.737307
vt 0.021486 0.738279
vt 0.021486 0.737303
vt 0.021486 0.736330
vt 0.022459 0.736330
vt 0.022459 0.737303
vt 0.022459 0.737303
vt 0.022459 0.736330
vt 0.021486 0.736330
vt 0.021486 0.737303
vt 0.022463 0.737303
vt 0.022463 0.736330
vt 0.023436 0.736330
vt 0.023436 0.737303
vt 0.022463 0.736326
vt 0.022463 0.735353
vt 0.023436 0.735353
vt 0.023436 0.736326
vt 0.023439 0.735350
vt 0.023439 0.734377
vt 0.024412 0.734377
vt 0.024412 0.735350
f 1/1/1 2/2/1 3/3/1 4/4/1
f 5/5/2 6/6/2 7/7/2 8/8/2
f 9/9/3 10/10/3 11/11/3 12/12/3
f 9/13/4 13/14/4 14/15/4 10/16/4
f 15/17/5 16/18/5 17/19/5 18/20/5
f 19/21/4 20/22/4 21/23/4 22/24/4
f 11/25/5 23/26/5 24/27/5 12/28/5
f 25/29/3 26/30/3 27/31/3 28/32/3
f 29/33/6 30/34/6 31/35/6 32/36/6
f 25/37/4 33/38/4 34/39/4 26/40/4
f 27/41/5 35/42/5 36/43/5 28/44/5
f 37/45/6 38/46/6 36/47/6 35/48/6
f 39/49/5 40/50/5 41/51/5 42/52/5
f 43/53/6 44/54/6 45/55/6 46/56/6
f 45/57/4 47/58/4 48/59/4 46/60/4
f 49/61/3 50/62/3 51/63/3 52/64/3
f 34/65/6 33/66/6 53/67/6 54/68/6
f 51/69/5 54/70/5 53/71/5 52/72/5
f 53/73/3 54/74/3 55/75/3 56/76/3
f 14/77/6 13/78/6 57/79/6 58/80/6
f 17/81/3 16/82/3 59/83/3 60/84/3
f 59/85/5 61/86/5 62/87/5 60/88/5
f 63/89/6 64/90/6 65/91/6 66/92/6
f 57/93/4 64/94/4 63/95/4 58/96/4
f 62/97/3 61/98/3 67/99/3 68/100/3
f 21/101/6 20/102/6 69/103/6 70/104/6
f 48/105/6 47/106/6 41/107/6 40/108/6
