v 1.000000 1.000000 0.468750
v 1.000000 0.000000 0.468750
v 0.000000 0.000000 0.468750
v 0.000000 1.000000 0.468750
v 0.000000 1.000000 0.531250
v 0.000000 0.000000 0.531250
v 1.000000 0.000000 0.531250
v 1.000000 1.000000 0.531250
v 0.750000 1.000000 0.468750
v 0.750000 1.000000 0.531250
v 0.812500 1.000000 0.531250
v 0.812500 1.000000 0.468750
v 0.750000 0.062500 0.468750
v 0.750000 0.062500 0.531250
v 0.812500 0.312500 0.531250
v 0.812500 0.312500 0.468750
v 0.500000 0.937500 0.468750
v 0.500000 0.937500 0.531250
v 0.875000 0.937500 0.531250
v 0.875000 0.937500 0.468750
v 0.500000 0.250000 0.468750
v 0.500000 0.250000 0.531250
v 0.875000 0.250000 0.531250
v 0.875000 0.250000 0.468750
v 0.187500 0.875000 0.468750
v 0.187500 0.875000 0.531250
v 0.500000 0.875000 0.531250
v 0.500000 0.875000 0.468750
v 0.187500 0.812500 0.531250
v 0.187500 0.812500 0.468750
v 0.875000 0.812500 0.468750
v 0.875000 0.812500 0.531250
v 0.187500 0.625000 0.468750
v 0.187500 0.625000 0.531250
v 0.312500 0.875000 0.531250
v 0.312500 0.250000 0.531250
v 0.312500 0.250000 0.468750
v 0.312500 0.875000 0.468750
v 0.375000 0.875000 0.468750
v 0.375000 0.375000 0.468750
v 0.375000 0.375000 0.531250
v 0.375000 0.875000 0.531250
v 0.125000 0.812500 0.468750
v 0.125000 0.812500 0.531250
v 0.375000 0.812500 0.531250
v 0.375000 0.812500 0.468750
v 0.125000 0.500000 0.468750
v 0.125000 0.500000 0.531250
v 0.187500 0.125000 0.531250
v 0.187500 0.125000 0.468750
v 0.312500 0.812500 0.468750
v 0.312500 0.312500 0.468750
v 0.312500 0.312500 0.531250
v 0.312500 0.812500 0.531250
v 0.500000 0.750000 0.531250
v 0.500000 0.750000 0.468750
v 0.812500 0.750000 0.468750
v 0.812500 0.750000 0.531250
v 0.687500 0.812500 0.531250
v 0.687500 0.500000 0.531250
v 0.687500 0.500000 0.468750
v 0.687500 0.812500 0.468750
v 0.125000 0.687500 0.531250
v 0.125000 0.687500 0.468750
v 0.750000 0.687500 0.468750
v 0.750000 0.687500 0.531250
v 0.250000 0.750000 0.468750
v 0.250000 0.750000 0.531250
v 0.750000 0.750000 0.531250
v 0.750000 0.750000 0.468750
v 0.250000 0.250000 0.468750
v 0.250000 0.250000 0.531250
v 0.500000 0.687500 0.531250
v 0.500000 0.687500 0.468750
v 0.687500 0.750000 0.468750
v 0.687500 0.125000 0.468750
v 0.687500 0.125000 0.531250
v 0.687500 0.750000 0.531250
v 0.750000 0.437500 0.531250
v 0.750000 0.437500 0.468750
v 0.187500 0.687500 0.468750
v 0.187500 0.687500 0.531250
v 0.687500 0.687500 0.531250
v 0.687500 0.687500 0.468750
v 0.562500 0.687500 0.531250
v 0.562500 0.625000 0.531250
v 0.562500 0.625000 0.468750
v 0.562500 0.687500 0.468750
v 0.625000 0.625000 0.531250
v 0.625000 0.625000 0.468750
v 0.687500 0.625000 0.468750
v 0.687500 0.625000 0.531250
v 0.625000 0.687500 0.468750
v 0.625000 0.687500 0.531250
v 0.125000 0.625000 0.468750
v 0.125000 0.625000 0.531250
v 0.625000 0.562500 0.531250
v 0.625000 0.562500 0.468750
v 0.250000 0.500000 0.531250
v 0.250000 0.500000 0.468750
v 0.312500 0.500000 0.468750
v 0.312500 0.500000 0.531250
v 0.687500 0.562500 0.531250
v 0.687500 0.562500 0.468750
v 0.062500 0.500000 0.468750
v 0.062500 0.500000 0.531250
v 0.750000 0.500000 0.531250
v 0.750000 0.500000 0.468750
v 0.062500 0.125000 0.468750
v 0.062500 0.125000 0.531250
v 0.250000 0.187500 0.531250
v 0.250000 0.187500 0.468750
v 0.312500 0.437500 0.531250
v 0.312500 0.437500 0.468750
v 0.375000 0.437500 0.468750
v 0.375000 0.437500 0.531250
v 0.187500 0.375000 0.531250
v 0.187500 0.375000 0.468750
v 0.437500 0.375000 0.468750
v 0.437500 0.375000 0.531250
v 0.812500 0.437500 0.531250
v 0.812500 0.437500 0.468750
v 0.312500 0.375000 0.468750
v 0.312500 0.375000 0.531250
v 0.500000 0.312500 0.468750
v 0.500000 0.312500 0.531250
v 0.375000 0.312500 0.531250
v 0.375000 0.312500 0.468750
v 0.437500 0.312500 0.468750
v 0.437500 0.312500 0.531250
v 0.250000 0.312500 0.468750
v 0.250000 0.312500 0.531250
v 0.875000 0.312500 0.531250
v 0.875000 0.312500 0.468750
v 0.562500 0.250000 0.468750
v 0.562500 0.250000 0.531250
v 0.000000 0.250000 0.468750
v 0.000000 0.250000 0.531250
v 0.937500 0.250000 0.531250
v 0.937500 0.250000 0.468750
v 0.000000 0.187500 0.531250
v 0.000000 0.187500 0.468750
v 0.687500 0.187500 0.468750
v 0.687500 0.187500 0.531250
v 0.562500 0.187500 0.468750
v 0.562500 0.187500 0.531250
v 0.937500 0.000000 0.531250
v 0.937500 0.000000 0.468750
v 0.750000 0.125000 0.468750
v 0.750000 0.125000 0.531250
v 0.937500 0.187500 0.468750
v 0.937500 0.187500 0.531250
v 1.000000 0.187500 0.531250
v 1.000000 0.187500 0.468750
v 1.000000 0.062500 0.531250
v 1.000000 0.062500 0.468750
v 0.812500 0.000000 0.531250
v 0.812500 0.000000 0.468750
v 0.812500 0.062500 0.468750
v 0.812500 0.062500 0.531250
vn 0.000000 0.000000 -1.000000
vn 0.000000 0.000000 1.000000
vn 0.000000 1.000000 0.000000
vn -1.000000 0.000000 0.000000
vn 1.000000 0.000000 0.000000
vn 0.000000 -1.000000 0.000000
vt 0.484344 0.515594
vt 0.484344 0.500031
vt 0.468781 0.500031
vt 0.468781 0.515594
vt 0.468781 0.515594
vt 0.468781 0.500031
vt 0.484344 0.500031
vt 0.484344 0.515594
vt 0.480471 0.515623
vt 0.480471 0.514650
vt 0.481443 0.514650
vt 0.481443 0.515623
vt 0.481443 0.515596
vt 0.481443 0.501005
vt 0.480471 0.501005
vt 0.480471 0.515596
vt 0.481443 0.515604
vt 0.481443 0.504904
vt 0.480471 0.504904
vt 0.480471 0.515604
vt 0.476574 0.514647
vt 0.476574 0.513674
vt 0.482410 0.513674
vt 0.482410 0.514647
vt 0.477537 0.514627
vt 0.477537 0.503927
vt 0.476564 0.503927
vt 0.476564 0.514627
vt 0.482420 0.514627
vt 0.482420 0.503927
vt 0.481447 0.503927
vt 0.481447 0.514627
vt 0.471689 0.513670
vt 0.471689 0.512697
vt 0.476553 0.512697
vt 0.476553 0.513670
vt 0.471701 0.513670
vt 0.471701 0.512697
vt 0.482401 0.512697
vt 0.482401 0.513670
vt 0.472654 0.513664
vt 0.472654 0.509773
vt 0.471682 0.509773
vt 0.471682 0.513664
vt 0.473631 0.513653
vt 0.473631 0.503925
vt 0.472658 0.503925
vt 0.472658 0.513653
vt 0.475584 0.513657
vt 0.475584 0.505875
vt 0.474611 0.505875
vt 0.474611 0.513657
vt 0.470711 0.512693
vt 0.470711 0.511721
vt 0.474602 0.511721
vt 0.474602 0.512693
vt 0.471678 0.512686
vt 0.471678 0.507822
vt 0.470705 0.507822
vt 0.470705 0.512686
vt 0.471678 0.512674
vt 0.471678 0.501974
vt 0.470705 0.501974
vt 0.470705 0.512674
vt 0.474607 0.512680
vt 0.474607 0.504898
vt 0.473635 0.504898
vt 0.473635 0.512680
vt 0.476572 0.512693
vt 0.476572 0.511721
vt 0.481436 0.511721
vt 0.481436 0.512693
vt 0.479490 0.512686
vt 0.479490 0.507822
vt 0.478518 0.507822
vt 0.478518 0.512686
vt 0.470722 0.511717
vt 0.470722 0.510744
vt 0.480450 0.510744
vt 0.480450 0.511717
vt 0.472672 0.511717
vt 0.472672 0.510744
vt 0.480453 0.510744
vt 0.480453 0.511717
vt 0.473631 0.511703
vt 0.473631 0.503922
vt 0.472658 0.503922
vt 0.472658 0.511703
vt 0.476561 0.511717
vt 0.476561 0.510744
vt 0.475588 0.510744
vt 0.475588 0.511717
vt 0.480467 0.511700
vt 0.480467 0.501972
vt 0.479494 0.501972
vt 0.479494 0.511700
vt 0.480467 0.511709
vt 0.480467 0.506845
vt 0.479494 0.506845
vt 0.479494 0.511709
vt 0.471695 0.510740
vt 0.471695 0.509768
vt 0.479477 0.509768
vt 0.479477 0.510740
vt 0.477537 0.510740
vt 0.477537 0.509768
vt 0.476564 0.509768
vt 0.476564 0.510740
vt 0.478518 0.510740
vt 0.478518 0.509768
vt 0.479490 0.509768
vt 0.479490 0.510740
vt 0.479490 0.510740
vt 0.479490 0.509768
vt 0.478518 0.509768
vt 0.478518 0.510740
vt 0.470718 0.509764
vt 0.470718 0.508791
vt 0.478500 0.508791
vt 0.478500 0.509764
vt 0.478514 0.509764
vt 0.478514 0.508791
vt 0.477541 0.508791
vt 0.477541 0.509764
vt 0.472658 0.508787
vt 0.472658 0.507814
vt 0.473631 0.507814
vt 0.473631 0.508787
vt 0.478518 0.508787
vt 0.478518 0.507814
vt 0.479490 0.507814
vt 0.479490 0.508787
vt 0.469748 0.507811
vt 0.469748 0.506838
vt 0.480448 0.506838
vt 0.480448 0.507811
vt 0.470701 0.507801
vt 0.470701 0.501965
vt 0.469728 0.501965
vt 0.469728 0.507801
vt 0.472654 0.507803
vt 0.472654 0.502939
vt 0.471682 0.502939
vt 0.471682 0.507803
vt 0.473635 0.507811
vt 0.473635 0.506838
vt 0.474607 0.506838
vt 0.474607 0.507811
vt 0.471687 0.506834
vt 0.471687 0.505861
vt 0.475578 0.505861
vt 0.475578 0.506834
vt 0.480471 0.506834
vt 0.480471 0.505861
vt 0.481443 0.505861
vt 0.481443 0.506834
vt 0.473635 0.505857
vt 0.473635 0.504885
vt 0.474607 0.504885
vt 0.474607 0.505857
vt 0.473639 0.505857
vt 0.473639 0.504885
vt 0.476557 0.504885
vt 0.476557 0.505857
vt 0.474607 0.505857
vt 0.474607 0.504885
vt 0.473635 0.504885
vt 0.473635 0.505857
vt 0.476561 0.505857
vt 0.476561 0.504885
vt 0.475588 0.504885
vt 0.475588 0.505857
vt 0.472675 0.504881
vt 0.472675 0.503908
vt 0.482403 0.503908
vt 0.482403 0.504881
vt 0.472666 0.504881
vt 0.472666 0.503908
vt 0.477530 0.503908
vt 0.477530 0.504881
vt 0.468779 0.503904
vt 0.468779 0.502932
vt 0.483370 0.502932
vt 0.483370 0.503904
vt 0.468771 0.503904
vt 0.468771 0.502932
vt 0.479471 0.502932
vt 0.479471 0.503904
vt 0.469725 0.503904
vt 0.469725 0.502932
vt 0.468752 0.502932
vt 0.468752 0.503904
vt 0.478514 0.503904
vt 0.478514 0.502932
vt 0.477541 0.502932
vt 0.477541 0.503904
vt 0.483397 0.503899
vt 0.483397 0.500008
vt 0.482424 0.500008
vt 0.482424 0.503899
vt 0.469748 0.502928
vt 0.469748 0.501955
vt 0.480448 0.501955
vt 0.480448 0.502928
vt 0.483400 0.502928
vt 0.483400 0.501955
vt 0.484373 0.501955
vt 0.484373 0.502928
vt 0.484373 0.502926
vt 0.484373 0.500980
vt 0.483400 0.500980
vt 0.483400 0.502926
vt 0.480476 0.501951
vt 0.480476 0.500978
vt 0.484367 0.500978
vt 0.484367 0.501951
vt 0.481449 0.500975
vt 0.481449 0.500002
vt 0.483395 0.500002
vt 0.483395 0.500975
vt 0.482420 0.500975
vt 0.482420 0.500002
vt 0.481447 0.500002
vt 0.481447 0.500975
f 1/1/1 2/2/1 3/3/1 4/4/1
f 5/5/2 6/6/2 7/7/2 8/8/2
f 9/9/3 10/10/3 11/11/3 12/12/3
f 9/13/4 13/14/4 14/15/4 10/16/4
f 11/17/5 15/18/5 16/19/5 12/20/5
f 17/21/3 18/22/3 19/23/3 20/24/3
f 17/25/4 21/26/4 22/27/4 18/28/4
f 19/29/5 23/30/5 24/31/5 20/32/5
f 25/33/3 26/34/3 27/35/3 28/36/3
f 29/37/6 30/38/6 31/39/6 32/40/6
f 25/41/4 33/42/4 34/43/4 26/44/4
f 35/45/5 36/46/5 37/47/5 38/48/5
f 39/49/4 40/50/4 41/51/4 42/52/4
f 43/53/3 44/54/3 45/55/3 46/56/3
f 43/57/4 47/58/4 48/59/4 44/60/4
f 29/61/5 49/62/5 50/63/5 30/64/5
f 51/65/4 52/66/4 53/67/4 54/68/4
f 55/69/6 56/70/6 57/71/6 58/72/6
f 59/73/5 60/74/5 61/75/5 62/76/5
f 63/77/6 64/78/6 65/79/6 66/80/6
f 67/81/3 68/82/3 69/83/3 70/84/3
f 67/85/4 71/86/4 72/87/4 68/88/4
f 55/89/5 73/90/5 74/91/5 56/92/5
f 75/93/4 76/94/4 77/95/4 78/96/4
f 69/97/5 79/98/5 80/99/5 70/100/5
f 81/101/3 82/102/3 83/103/3 84/104/3
f 85/105/5 86/106/5 87/107/5 88/108/5
f 89/109/6 90/110/6 91/111/6 92/112/6
f 93/113/4 90/114/4 89/115/4 94/116/4
f 95/117/3 96/118/3 89/119/3 90/120/3
f 89/121/5 97/122/5 98/123/5 90/124/5
f 99/125/6 100/126/6 101/127/6 102/128/6
f 98/129/3 97/130/3 103/131/3 104/132/3
f 105/133/3 106/134/3 107/135/3 108/136/3
f 105/137/4 109/138/4 110/139/4 106/140/4
f 99/141/5 111/142/5 112/143/5 100/144/5
f 113/145/6 114/146/6 115/147/6 116/148/6
f 117/149/6 118/150/6 119/151/6 120/152/6
f 80/153/3 79/154/3 121/155/3 122/156/3
f 123/157/3 124/158/3 41/159/3 40/160/3
f 53/161/6 52/162/6 125/163/6 126/164/6
f 41/165/5 127/166/5 128/167/5 40/168/5
f 119/169/4 129/170/4 130/171/4 120/172/4
f 131/173/3 132/174/3 133/175/3 134/176/3
f 72/177/6 71/178/6 135/179/6 136/180/6
f 137/181/3 138/182/3 139/183/3 140/184/3
f 141/185/6 142/186/6 143/187/6 144/188/6
f 137/189/4 142/190/4 141/191/4 138/192/4
f 135/193/4 145/194/4 146/195/4 136/196/4
f 139/197/5 147/198/5 148/199/5 140/200/5
f 110/201/6 109/202/6 149/203/6 150/204/6
f 151/205/3 152/206/3 153/207/3 154/208/3
f 153/209/5 155/210/5 156/211/5 154/212/5
f 14/213/6 13/214/6 156/215/6 155/216/6
f 157/217/6 158/218/6 148/219/6 147/220/6
f 159/221/4 158/222/4 157/223/4 160/224/4
