v 1.000000 1.000000 0.468750
v 1.000000 0.000000 0.468750
v 0.000000 0.000000 0.468750
v 0.000000 1.000000 0.468750
v 0.000000 1.000000 0.531250
v 0.000000 0.000000 0.531250
v 1.000000 0.000000 0.531250
v 1.000000 1.000000 0.531250
v 0.250000 0.937500 0.468750
v 0.250000 0.937500 0.531250
v 0.437500 0.937500 0.531250
v 0.437500 0.937500 0.468750
v 0.250000 0.062500 0.468750
v 0.250000 0.062500 0.531250
v 0.437500 0.062500 0.531250
v 0.437500 0.062500 0.468750
v 0.437500 0.875000 0.468750
v 0.437500 0.875000 0.531250
v 0.750000 0.875000 0.531250
v 0.750000 0.875000 0.468750
v 0.750000 0.812500 0.531250
v 0.750000 0.812500 0.468750
v 0.187500 0.812500 0.468750
v 0.187500 0.812500 0.531250
v 0.812500 0.812500 0.531250
v 0.812500 0.812500 0.468750
v 0.187500 0.125000 0.468750
v 0.187500 0.125000 0.531250
v 0.812500 0.750000 0.531250
v 0.812500 0.750000 0.468750
v 0.125000 0.750000 0.468750
v 0.125000 0.750000 0.531250
v 0.875000 0.750000 0.531250
v 0.875000 0.750000 0.468750
v 0.125000 0.187500 0.468750
v 0.125000 0.187500 0.531250
v 0.875000 0.375000 0.531250
v 0.875000 0.375000 0.468750
v 0.000000 0.687500 0.468750
v 0.000000 0.687500 0.531250
v 0.125000 0.687500 0.531250
v 0.125000 0.687500 0.468750
v 0.000000 0.312500 0.468750
v 0.000000 0.312500 0.531250
v 0.062500 0.312500 0.468750
v 0.062500 0.312500 0.531250
v 0.937500 0.375000 0.531250
v 0.937500 0.375000 0.468750
v 0.937500 0.312500 0.531250
v 0.937500 0.312500 0.468750
v 0.062500 0.250000 0.531250
v 0.062500 0.250000 0.468750
v 0.125000 0.250000 0.468750
v 0.125000 0.250000 0.531250
v 1.000000 0.312500 0.531250
v 1.000000 0.312500 0.468750
v 1.000000 0.062500 0.531250
v 1.000000 0.062500 0.468750
v 0.687500 0.187500 0.468750
v 0.687500 0.187500 0.531250
v 0.750000 0.125000 0.468750
v 0.750000 0.125000 0.531250
v 0.562500 0.187500 0.531250
v 0.562500 0.125000 0.531250
v 0.562500 0.125000 0.468750
v 0.562500 0.187500 0.468750
v 0.687500 0.125000 0.468750
v 0.687500 0.125000 0.531250
v 0.750000 0.062500 0.468750
v 0.750000 0.062500 0.531250
vn 0.000000 0.000000 -1.000000
vn 0.000000 0.000000 1.000000
vn 0.000000 1.000000 0.000000
vn -1.000000 0.000000 0.000000
vn 1.000000 0.000000 0.000000
vn 0.000000 -1.000000 0.000000
vt 0.015594 0.499969
vt 0.015594 0.484406
vt 0.000031 0.484406
vt 0.000031 0.499969
vt 0.000031 0.499969
vt 0.000031 0.484406
vt 0.015594 0.484406
vt 0.015594 0.499969
vt 0.003912 0.499022
vt 0.003912 0.498049
vt 0.006830 0.498049
vt 0.006830 0.499022
vt 0.004881 0.498997
vt 0.004881 0.485378
vt 0.003908 0.485378
vt 0.003908 0.498997
vt 0.006834 0.498997
vt 0.006834 0.485378
vt 0.005861 0.485378
vt 0.005861 0.498997
vt 0.006845 0.498045
vt 0.006845 0.497072
vt 0.011709 0.497072
vt 0.011709 0.498045
vt 0.011717 0.498045
vt 0.011717 0.497072
vt 0.010744 0.497072
vt 0.010744 0.498045
vt 0.002949 0.497068
vt 0.002949 0.496096
vt 0.012676 0.496096
vt 0.012676 0.497068
vt 0.003904 0.497049
vt 0.003904 0.486349
vt 0.002932 0.486349
vt 0.002932 0.497049
vt 0.012693 0.497068
vt 0.012693 0.496096
vt 0.011721 0.496096
vt 0.011721 0.497068
vt 0.001976 0.496092
vt 0.001976 0.495119
vt 0.013649 0.495119
vt 0.013649 0.496092
vt 0.002928 0.496077
vt 0.002928 0.487322
vt 0.001955 0.487322
vt 0.001955 0.496077
vt 0.013670 0.496082
vt 0.013670 0.490246
vt 0.012697 0.490246
vt 0.012697 0.496082
vt 0.000004 0.495115
vt 0.000004 0.494143
vt 0.001949 0.494143
vt 0.001949 0.495115
vt 0.000975 0.495106
vt 0.000975 0.489269
vt 0.000002 0.489269
vt 0.000002 0.495106
vt 0.000002 0.490232
vt 0.000002 0.489260
vt 0.000975 0.489260
vt 0.000975 0.490232
vt 0.013674 0.490232
vt 0.013674 0.489260
vt 0.014647 0.489260
vt 0.014647 0.490232
vt 0.014647 0.490232
vt 0.014647 0.489260
vt 0.013674 0.489260
vt 0.013674 0.490232
vt 0.000978 0.489256
vt 0.000978 0.488283
vt 0.001951 0.488283
vt 0.001951 0.489256
vt 0.001951 0.489256
vt 0.001951 0.488283
vt 0.000978 0.488283
vt 0.000978 0.489256
vt 0.014650 0.489256
vt 0.014650 0.488283
vt 0.015623 0.488283
vt 0.015623 0.489256
vt 0.015623 0.489250
vt 0.015623 0.485359
vt 0.014650 0.485359
vt 0.014650 0.489250
vt 0.001970 0.488279
vt 0.001970 0.487307
vt 0.010725 0.487307
vt 0.010725 0.488279
vt 0.002947 0.487303
vt 0.002947 0.486330
vt 0.011702 0.486330
vt 0.011702 0.487303
vt 0.008787 0.487303
vt 0.008787 0.486330
vt 0.007814 0.486330
vt 0.007814 0.487303
vt 0.011717 0.487303
vt 0.011717 0.486330
vt 0.010744 0.486330
vt 0.010744 0.487303
vt 0.003929 0.486326
vt 0.003929 0.485353
vt 0.015602 0.485353
vt 0.015602 0.486326
vt 0.012693 0.486326
vt 0.012693 0.485353
vt 0.011721 0.485353
vt 0.011721 0.486326
f 1/1/1 2/2/1 3/3/1 4/4/1
f 5/5/2 6/6/2 7/7/2 8/8/2
f 9/9/3 10/10/3 11/11/3 12/12/3
f 9/13/4 13/14/4 14/15/4 10/16/4
f 11/17/5 15/18/5 16/19/5 12/20/5
f 17/21/3 18/22/3 19/23/3 20/24/3
f 19/25/5 21/26/5 22/27/5 20/28/5
f 23/29/3 24/30/3 25/31/3 26/32/3
f 23/33/4 27/34/4 28/35/4 24/36/4
f 25/37/5 29/38/5 30/39/5 26/40/5
f 31/41/3 32/42/3 33/43/3 34/44/3
f 31/45/4 35/46/4 36/47/4 32/48/4
f 33/49/5 37/50/5 38/51/5 34/52/5
f 39/53/3 40/54/3 41/55/3 42/56/3
f 39/57/4 43/58/4 44/59/4 40/60/4
f 44/61/6 43/62/6 45/63/6 46/64/6
f 38/65/3 37/66/3 47/67/3 48/68/3
f 47/69/5 49/70/5 50/71/5 48/72/5
f 51/73/6 52/74/6 53/75/6 54/76/6
f 45/77/4 52/78/4 51/79/4 46/80/4
f 50/81/3 49/82/3 55/83/3 56/84/3
f 55/85/5 57/86/5 58/87/5 56/88/5
f 36/89/6 35/90/6 59/91/6 60/92/6
f 28/93/6 27/94/6 61/95/6 62/96/6
f 63/97/5 64/98/5 65/99/5 66/100/5
f 59/101/4 67/102/4 68/103/4 60/104/4
f 14/105/6 13/106/6 58/107/6 57/108/6
f 61/109/4 69/110/4 70/111/4 62/112/4
