v 1.000000 1.000000 0.468750
v 1.000000 0.000000 0.468750
v 0.000000 0.000000 0.468750
v 0.000000 1.000000 0.468750
v 0.000000 1.000000 0.531250
v 0.000000 0.000000 0.531250
v 1.000000 0.000000 0.531250
v 1.000000 1.000000 0.531250
v 0.500000 0.562500 0.468750
v 0.500000 0.562500 0.531250
v 0.562500 0.562500 0.531250
v 0.562500 0.562500 0.468750
v 0.500000 0.000000 0.468750
v 0.500000 0.000000 0.531250
v 0.562500 0.250000 0.531250
v 0.562500 0.250000 0.468750
v 0.375000 0.500000 0.468750
v 0.375000 0.500000 0.531250
v 0.625000 0.500000 0.531250
v 0.625000 0.500000 0.468750
v 0.375000 0.437500 0.531250
v 0.375000 0.437500 0.468750
v 0.437500 0.437500 0.468750
v 0.437500 0.437500 0.531250
v 0.375000 0.312500 0.468750
v 0.375000 0.312500 0.531250
v 0.437500 0.500000 0.531250
v 0.437500 0.000000 0.531250
v 0.437500 0.000000 0.468750
v 0.437500 0.500000 0.468750
v 0.625000 0.312500 0.531250
v 0.625000 0.312500 0.468750
v 0.250000 0.437500 0.468750
v 0.250000 0.437500 0.531250
v 0.750000 0.437500 0.531250
v 0.750000 0.437500 0.468750
v 0.250000 0.312500 0.468750
v 0.250000 0.312500 0.531250
v 0.312500 0.375000 0.531250
v 0.312500 0.375000 0.468750
v 0.375000 0.375000 0.468750
v 0.375000 0.375000 0.531250
v 0.437500 0.375000 0.468750
v 0.437500 0.375000 0.531250
v 0.687500 0.437500 0.468750
v 0.687500 0.312500 0.468750
v 0.687500 0.312500 0.531250
v 0.687500 0.437500 0.531250
v 0.750000 0.250000 0.531250
v 0.750000 0.250000 0.468750
v 0.125000 0.375000 0.468750
v 0.125000 0.375000 0.531250
v 0.812500 0.375000 0.531250
v 0.812500 0.375000 0.468750
v 0.125000 0.125000 0.468750
v 0.125000 0.125000 0.531250
v 0.187500 0.375000 0.531250
v 0.187500 0.000000 0.531250
v 0.187500 0.000000 0.468750
v 0.187500 0.375000 0.468750
v 0.312500 0.312500 0.531250
v 0.312500 0.312500 0.468750
v 0.562500 0.312500 0.531250
v 0.562500 0.312500 0.468750
v 0.812500 0.312500 0.468750
v 0.812500 0.312500 0.531250
v 0.187500 0.312500 0.468750
v 0.187500 0.312500 0.531250
v 0.875000 0.312500 0.531250
v 0.875000 0.312500 0.468750
v 0.500000 0.250000 0.531250
v 0.500000 0.250000 0.468750
v 0.625000 0.187500 0.468750
v 0.625000 0.187500 0.531250
v 0.812500 0.000000 0.468750
v 0.812500 0.000000 0.531250
v 0.875000 0.250000 0.531250
v 0.875000 0.250000 0.468750
v 0.062500 0.250000 0.468750
v 0.062500 0.250000 0.531250
v 0.937500 0.250000 0.531250
v 0.937500 0.250000 0.468750
v 0.062500 0.187500 0.531250
v 0.062500 0.187500 0.468750
v 0.125000 0.187500 0.468750
v 0.125000 0.187500 0.531250
v 0.500000 0.187500 0.531250
v 0.500000 0.187500 0.468750
v 0.687500 0.250000 0.531250
v 0.687500 0.000000 0.531250
v 0.687500 0.000000 0.468750
v 0.687500 0.250000 0.468750
v 0.750000 0.187500 0.468750
v 0.750000 0.187500 0.531250
v 0.937500 0.062500 0.531250
v 0.937500 0.062500 0.468750
v 0.000000 0.187500 0.468750
v 0.000000 0.187500 0.531250
v 1.000000 0.187500 0.531250
v 1.000000 0.187500 0.468750
v 0.062500 0.125000 0.531250
v 0.062500 0.125000 0.468750
v 0.250000 0.125000 0.531250
v 0.250000 0.125000 0.468750
v 1.000000 0.125000 0.468750
v 1.000000 0.125000 0.531250
v 0.187500 0.062500 0.531250
v 0.187500 0.062500 0.468750
v 0.812500 0.062500 0.468750
v 0.812500 0.062500 0.531250
v 0.250000 0.062500 0.531250
v 0.250000 0.062500 0.468750
v 0.312500 0.125000 0.468750
v 0.312500 0.000000 0.468750
v 0.312500 0.000000 0.531250
v 0.312500 0.125000 0.531250
v 1.000000 0.062500 0.531250
v 1.000000 0.062500 0.468750
vn 0.000000 0.000000 -1.000000
vn 0.000000 0.000000 1.000000
vn 0.000000 1.000000 0.000000
vn -1.000000 0.000000 0.000000
vn 1.000000 0.000000 0.000000
vn 0.000000 -1.000000 0.000000
vt 0.312469 0.812469
vt 0.312469 0.796906
vt 0.296906 0.796906
vt 0.296906 0.812469
vt 0.296906 0.812469
vt 0.296906 0.796906
vt 0.312469 0.796906
vt 0.312469 0.812469
vt 0.304689 0.805662
vt 0.304689 0.804689
vt 0.305662 0.804689
vt 0.305662 0.805662
vt 0.305662 0.805647
vt 0.305662 0.796892
vt 0.304689 0.796892
vt 0.304689 0.805647
vt 0.305662 0.805655
vt 0.305662 0.800791
vt 0.304689 0.800791
vt 0.304689 0.805655
vt 0.302742 0.804686
vt 0.302742 0.803713
vt 0.306633 0.803713
vt 0.306633 0.804686
vt 0.302736 0.804686
vt 0.302736 0.803713
vt 0.303709 0.803713
vt 0.303709 0.804686
vt 0.303709 0.804682
vt 0.303709 0.801764
vt 0.302736 0.801764
vt 0.302736 0.804682
vt 0.303709 0.804672
vt 0.303709 0.796890
vt 0.302736 0.796890
vt 0.302736 0.804672
vt 0.306639 0.804682
vt 0.306639 0.801764
vt 0.305666 0.801764
vt 0.305666 0.804682
vt 0.300797 0.803709
vt 0.300797 0.802736
vt 0.308578 0.802736
vt 0.308578 0.803709
vt 0.301756 0.803707
vt 0.301756 0.801762
vt 0.300783 0.801762
vt 0.300783 0.803707
vt 0.301760 0.803709
vt 0.301760 0.802736
vt 0.302732 0.802736
vt 0.302732 0.803709
vt 0.302732 0.803709
vt 0.302732 0.802736
vt 0.301760 0.802736
vt 0.301760 0.803709
vt 0.304686 0.803709
vt 0.304686 0.802736
vt 0.303713 0.802736
vt 0.303713 0.803709
vt 0.308592 0.803707
vt 0.308592 0.801762
vt 0.307619 0.801762
vt 0.307619 0.803707
vt 0.308592 0.803705
vt 0.308592 0.800787
vt 0.307619 0.800787
vt 0.307619 0.803705
vt 0.298849 0.802732
vt 0.298849 0.801760
vt 0.309549 0.801760
vt 0.309549 0.802732
vt 0.299803 0.802727
vt 0.299803 0.798836
vt 0.298830 0.798836
vt 0.298830 0.802727
vt 0.299803 0.802723
vt 0.299803 0.796886
vt 0.298830 0.796886
vt 0.298830 0.802723
vt 0.301756 0.802732
vt 0.301756 0.801760
vt 0.300783 0.801760
vt 0.300783 0.802732
vt 0.305672 0.802732
vt 0.305672 0.801760
vt 0.309563 0.801760
vt 0.309563 0.802732
vt 0.309568 0.802732
vt 0.309568 0.801760
vt 0.308596 0.801760
vt 0.308596 0.802732
vt 0.299826 0.801756
vt 0.299826 0.800783
vt 0.310526 0.800783
vt 0.310526 0.801756
vt 0.304695 0.801756
vt 0.304695 0.800783
vt 0.308586 0.800783
vt 0.308586 0.801756
vt 0.307615 0.801754
vt 0.307615 0.799809
vt 0.306643 0.799809
vt 0.306643 0.801754
vt 0.310545 0.801748
vt 0.310545 0.796885
vt 0.309572 0.796885
vt 0.309572 0.801748
vt 0.310545 0.801756
vt 0.310545 0.800783
vt 0.309572 0.800783
vt 0.309572 0.801756
vt 0.297878 0.800779
vt 0.297878 0.799807
vt 0.311497 0.799807
vt 0.311497 0.800779
vt 0.297853 0.800779
vt 0.297853 0.799807
vt 0.298826 0.799807
vt 0.298826 0.800779
vt 0.298826 0.800779
vt 0.298826 0.799807
vt 0.297853 0.799807
vt 0.297853 0.800779
vt 0.304686 0.800779
vt 0.304686 0.799807
vt 0.303713 0.799807
vt 0.303713 0.800779
vt 0.307615 0.800774
vt 0.307615 0.796883
vt 0.306643 0.796883
vt 0.306643 0.800774
vt 0.309568 0.800779
vt 0.309568 0.799807
vt 0.308596 0.799807
vt 0.308596 0.800779
vt 0.311522 0.800776
vt 0.311522 0.797857
vt 0.310549 0.797857
vt 0.310549 0.800776
vt 0.296906 0.799803
vt 0.296906 0.798830
vt 0.312469 0.798830
vt 0.312469 0.799803
vt 0.297850 0.799799
vt 0.297850 0.796881
vt 0.296877 0.796881
vt 0.296877 0.799799
vt 0.297850 0.799803
vt 0.297850 0.798830
vt 0.296877 0.798830
vt 0.296877 0.799803
vt 0.300804 0.799803
vt 0.300804 0.798830
vt 0.312477 0.798830
vt 0.312477 0.799803
vt 0.312498 0.799799
vt 0.312498 0.796881
vt 0.311525 0.796881
vt 0.311525 0.799799
vt 0.297853 0.798826
vt 0.297853 0.797853
vt 0.298826 0.797853
vt 0.298826 0.798826
vt 0.299824 0.798826
vt 0.299824 0.797853
vt 0.309551 0.797853
vt 0.309551 0.798826
vt 0.300779 0.798826
vt 0.300779 0.797853
vt 0.299807 0.797853
vt 0.299807 0.798826
vt 0.302732 0.798824
vt 0.302732 0.796879
vt 0.301760 0.796879
vt 0.301760 0.798824
vt 0.296906 0.797850
vt 0.296906 0.796877
vt 0.312469 0.796877
vt 0.312469 0.797850
vt 0.311525 0.797850
vt 0.311525 0.796877
vt 0.312498 0.796877
vt 0.312498 0.797850
f 1/1/1 2/2/1 3/3/1 4/4/1
f 5/5/2 6/6/2 7/7/2 8/8/2
f 9/9/3 10/10/3 11/11/3 12/12/3
f 9/13/4 13/14/4 14/15/4 10/16/4
f 11/17/5 15/18/5 16/19/5 12/20/5
f 17/21/3 18/22/3 19/23/3 20/24/3
f 21/25/6 22/26/6 23/27/6 24/28/6
f 17/29/4 25/30/4 26/31/4 18/32/4
f 27/33/5 28/34/5 29/35/5 30/36/5
f 19/37/5 31/38/5 32/39/5 20/40/5
f 33/41/3 34/42/3 35/43/3 36/44/3
f 33/45/4 37/46/4 38/47/4 34/48/4
f 39/49/6 40/50/6 41/51/6 42/52/6
f 21/53/5 42/54/5 41/55/5 22/56/5
f 23/57/4 43/58/4 44/59/4 24/60/4
f 45/61/4 46/62/4 47/63/4 48/64/4
f 35/65/5 49/66/5 50/67/5 36/68/5
f 51/69/3 52/70/3 53/71/3 54/72/3
f 51/73/4 55/74/4 56/75/4 52/76/4
f 57/77/5 58/78/5 59/79/5 60/80/5
f 39/81/5 61/82/5 62/83/5 40/84/5
f 63/85/6 64/86/6 65/87/6 66/88/6
f 53/89/5 66/90/5 65/91/5 54/92/5
f 67/93/3 68/94/3 69/95/3 70/96/3
f 71/97/6 72/98/6 50/99/6 49/100/6
f 32/101/4 73/102/4 74/103/4 31/104/4
f 65/105/4 75/106/4 76/107/4 66/108/4
f 69/109/5 77/110/5 78/111/5 70/112/5
f 79/113/3 80/114/3 81/115/3 82/116/3
f 83/117/6 84/118/6 85/119/6 86/120/6
f 79/121/4 84/122/4 83/123/4 80/124/4
f 71/125/5 87/126/5 88/127/5 72/128/5
f 89/129/5 90/130/5 91/131/5 92/132/5
f 50/133/4 93/134/4 94/135/4 49/136/4
f 81/137/5 95/138/5 96/139/5 82/140/5
f 97/141/3 98/142/3 99/143/3 100/144/3
f 97/145/4 3/146/4 6/147/4 98/148/4
f 83/149/5 101/150/5 102/151/5 84/152/5
f 103/153/6 104/154/6 105/155/6 106/156/6
f 99/157/5 7/158/5 2/159/5 100/160/5
f 102/161/3 101/162/3 56/163/3 55/164/3
f 107/165/6 108/166/6 109/167/6 110/168/6
f 103/169/5 111/170/5 112/171/5 104/172/5
f 113/173/4 114/174/4 115/175/4 116/176/4
f 6/177/6 3/178/6 2/179/6 7/180/6
f 96/181/3 95/182/3 117/183/3 118/184/3
