v 1.000000 1.000000 0.468750
v 1.000000 0.000000 0.468750
v 0.000000 0.000000 0.468750
v 0.000000 1.000000 0.468750
v 0.000000 1.000000 0.531250
v 0.000000 0.000000 0.531250
v 1.000000 0.000000 0.531250
v 1.000000 1.000000 0.531250
v 0.437500 0.750000 0.468750
v 0.437500 0.750000 0.531250
v 0.500000 0.750000 0.531250
v 0.500000 0.750000 0.468750
v 0.437500 0.000000 0.468750
v 0.437500 0.000000 0.531250
v 0.500000 0.437500 0.531250
v 0.500000 0.437500 0.468750
v 0.312500 0.687500 0.468750
v 0.312500 0.687500 0.531250
v 0.750000 0.687500 0.531250
v 0.750000 0.687500 0.468750
v 0.312500 0.375000 0.468750
v 0.312500 0.375000 0.531250
v 0.375000 0.687500 0.531250
v 0.375000 0.000000 0.531250
v 0.375000 0.000000 0.468750
v 0.375000 0.687500 0.468750
v 0.562500 0.687500 0.468750
v 0.562500 0.437500 0.468750
v 0.562500 0.437500 0.531250
v 0.562500 0.687500 0.531250
v 0.625000 0.687500 0.531250
v 0.625000 0.375000 0.531250
v 0.625000 0.375000 0.468750
v 0.625000 0.687500 0.468750
v 0.687500 0.687500 0.468750
v 0.687500 0.062500 0.468750
v 0.687500 0.062500 0.531250
v 0.687500 0.687500 0.531250
v 0.750000 0.062500 0.531250
v 0.750000 0.062500 0.468750
v 0.187500 0.625000 0.468750
v 0.187500 0.625000 0.531250
v 0.875000 0.625000 0.531250
v 0.875000 0.625000 0.468750
v 0.187500 0.000000 0.468750
v 0.187500 0.000000 0.531250
v 0.250000 0.625000 0.531250
v 0.250000 0.375000 0.531250
v 0.250000 0.375000 0.468750
v 0.250000 0.625000 0.468750
v 0.437500 0.562500 0.531250
v 0.437500 0.562500 0.468750
v 0.687500 0.562500 0.468750
v 0.687500 0.562500 0.531250
v 0.812500 0.625000 0.468750
v 0.812500 0.062500 0.468750
v 0.812500 0.062500 0.531250
v 0.812500 0.625000 0.531250
v 0.875000 0.312500 0.531250
v 0.875000 0.312500 0.468750
v 0.250000 0.562500 0.468750
v 0.250000 0.562500 0.531250
v 0.437500 0.375000 0.531250
v 0.437500 0.375000 0.468750
v 0.500000 0.500000 0.531250
v 0.500000 0.500000 0.468750
v 0.562500 0.500000 0.468750
v 0.562500 0.500000 0.531250
v 0.500000 0.562500 0.468750
v 0.500000 0.375000 0.468750
v 0.500000 0.375000 0.531250
v 0.500000 0.562500 0.531250
v 0.062500 0.500000 0.468750
v 0.062500 0.500000 0.531250
v 1.000000 0.500000 0.531250
v 1.000000 0.500000 0.468750
v 0.062500 0.062500 0.468750
v 0.062500 0.062500 0.531250
v 0.125000 0.500000 0.531250
v 0.125000 0.125000 0.531250
v 0.125000 0.125000 0.468750
v 0.125000 0.500000 0.468750
v 0.250000 0.437500 0.531250
v 0.250000 0.437500 0.468750
v 1.000000 0.437500 0.468750
v 1.000000 0.437500 0.531250
v 0.937500 0.500000 0.468750
v 0.937500 0.437500 0.468750
v 0.937500 0.437500 0.531250
v 0.937500 0.500000 0.531250
v 1.000000 0.187500 0.531250
v 1.000000 0.187500 0.468750
v 0.125000 0.437500 0.468750
v 0.125000 0.437500 0.531250
v 0.187500 0.375000 0.531250
v 0.187500 0.375000 0.468750
v 0.937500 0.375000 0.468750
v 0.937500 0.375000 0.531250
v 0.937500 0.062500 0.531250
v 0.937500 0.062500 0.468750
v 0.187500 0.062500 0.531250
v 0.187500 0.062500 0.468750
v 0.250000 0.062500 0.468750
v 0.250000 0.062500 0.531250
v 0.312500 0.312500 0.531250
v 0.312500 0.312500 0.468750
v 0.750000 0.312500 0.468750
v 0.750000 0.312500 0.531250
v 0.562500 0.375000 0.531250
v 0.562500 0.000000 0.531250
v 0.562500 0.000000 0.468750
v 0.562500 0.375000 0.468750
v 0.062500 0.250000 0.531250
v 0.062500 0.250000 0.468750
v 0.875000 0.250000 0.468750
v 0.875000 0.250000 0.531250
v 0.187500 0.312500 0.468750
v 0.187500 0.312500 0.531250
v 0.937500 0.312500 0.531250
v 0.937500 0.312500 0.468750
v 0.312500 0.062500 0.531250
v 0.312500 0.062500 0.468750
v 0.375000 0.312500 0.468750
v 0.375000 0.062500 0.468750
v 0.375000 0.062500 0.531250
v 0.375000 0.312500 0.531250
v 0.687500 0.312500 0.531250
v 0.687500 0.250000 0.531250
v 0.687500 0.250000 0.468750
v 0.687500 0.312500 0.468750
v 0.750000 0.250000 0.468750
v 0.750000 0.250000 0.531250
v 0.000000 0.250000 0.468750
v 0.000000 0.250000 0.531250
v 1.000000 0.250000 0.531250
v 1.000000 0.250000 0.468750
v 0.000000 0.125000 0.468750
v 0.000000 0.125000 0.531250
v 0.062500 0.187500 0.531250
v 0.062500 0.187500 0.468750
v 0.375000 0.187500 0.531250
v 0.375000 0.187500 0.468750
v 0.812500 0.250000 0.531250
v 0.812500 0.000000 0.531250
v 0.812500 0.000000 0.468750
v 0.812500 0.250000 0.468750
v 0.875000 0.187500 0.468750
v 0.875000 0.187500 0.531250
v 0.687500 0.125000 0.468750
v 0.687500 0.125000 0.531250
v 0.437500 0.125000 0.531250
v 0.437500 0.125000 0.468750
v 0.625000 0.062500 0.468750
v 0.625000 0.000000 0.468750
v 0.625000 0.000000 0.531250
v 0.625000 0.062500 0.531250
vn 0.000000 0.000000 -1.000000
vn 0.000000 0.000000 1.000000
vn 0.000000 1.000000 0.000000
vn -1.000000 0.000000 0.000000
vn 1.000000 0.000000 0.000000
vn 0.000000 -1.000000 0.000000
vt 0.312469 0.906219
vt 0.312469 0.890656
vt 0.296906 0.890656
vt 0.296906 0.906219
vt 0.296906 0.906219
vt 0.296906 0.890656
vt 0.312469 0.890656
vt 0.312469 0.906219
vt 0.303713 0.902342
vt 0.303713 0.901369
vt 0.304686 0.901369
vt 0.304686 0.902342
vt 0.304686 0.902321
vt 0.304686 0.890648
vt 0.303713 0.890648
vt 0.303713 0.902321
vt 0.304686 0.902334
vt 0.304686 0.897470
vt 0.303713 0.897470
vt 0.303713 0.902334
vt 0.301771 0.901365
vt 0.301771 0.900393
vt 0.308580 0.900393
vt 0.308580 0.901365
vt 0.302732 0.901358
vt 0.302732 0.896494
vt 0.301760 0.896494
vt 0.301760 0.901358
vt 0.302732 0.901346
vt 0.302732 0.890646
vt 0.301760 0.890646
vt 0.301760 0.901346
vt 0.306639 0.901360
vt 0.306639 0.897469
vt 0.305666 0.897469
vt 0.305666 0.901360
vt 0.306639 0.901358
vt 0.306639 0.896494
vt 0.305666 0.896494
vt 0.305666 0.901358
vt 0.308592 0.901348
vt 0.308592 0.891621
vt 0.307619 0.891621
vt 0.307619 0.901348
vt 0.308592 0.901348
vt 0.308592 0.891621
vt 0.307619 0.891621
vt 0.307619 0.901348
vt 0.299826 0.900389
vt 0.299826 0.899416
vt 0.310526 0.899416
vt 0.310526 0.900389
vt 0.300779 0.900372
vt 0.300779 0.890644
vt 0.299807 0.890644
vt 0.299807 0.900372
vt 0.300779 0.900383
vt 0.300779 0.896492
vt 0.299807 0.896492
vt 0.299807 0.900383
vt 0.303719 0.900389
vt 0.303719 0.899416
vt 0.307610 0.899416
vt 0.307610 0.900389
vt 0.310545 0.900373
vt 0.310545 0.891619
vt 0.309572 0.891619
vt 0.309572 0.900373
vt 0.310545 0.900381
vt 0.310545 0.895517
vt 0.309572 0.895517
vt 0.309572 0.900381
vt 0.300787 0.899412
vt 0.300787 0.898439
vt 0.303705 0.898439
vt 0.303705 0.899412
vt 0.303709 0.899408
vt 0.303709 0.896490
vt 0.302736 0.896490
vt 0.302736 0.899408
vt 0.304689 0.899412
vt 0.304689 0.898439
vt 0.305662 0.898439
vt 0.305662 0.899412
vt 0.305662 0.899408
vt 0.305662 0.896490
vt 0.304689 0.896490
vt 0.304689 0.899408
vt 0.297880 0.898436
vt 0.297880 0.897463
vt 0.312471 0.897463
vt 0.312471 0.898436
vt 0.298826 0.898424
vt 0.298826 0.891615
vt 0.297853 0.891615
vt 0.297853 0.898424
vt 0.298826 0.898426
vt 0.298826 0.892590
vt 0.297853 0.892590
vt 0.297853 0.898426
vt 0.300804 0.898436
vt 0.300804 0.897463
vt 0.312477 0.897463
vt 0.312477 0.898436
vt 0.312498 0.898436
vt 0.312498 0.897463
vt 0.311525 0.897463
vt 0.311525 0.898436
vt 0.312498 0.898428
vt 0.312498 0.893564
vt 0.311525 0.893564
vt 0.311525 0.898428
vt 0.298853 0.897459
vt 0.298853 0.896486
vt 0.311499 0.896486
vt 0.311499 0.897459
vt 0.299828 0.897459
vt 0.299828 0.896486
vt 0.311501 0.896486
vt 0.311501 0.897459
vt 0.311522 0.897449
vt 0.311522 0.891613
vt 0.310549 0.891613
vt 0.310549 0.897449
vt 0.299803 0.896475
vt 0.299803 0.891611
vt 0.298830 0.891611
vt 0.298830 0.896475
vt 0.300789 0.896482
vt 0.300789 0.895510
vt 0.304680 0.895510
vt 0.304680 0.896482
vt 0.301756 0.896475
vt 0.301756 0.891611
vt 0.300783 0.891611
vt 0.300783 0.896475
vt 0.301771 0.896482
vt 0.301771 0.895510
vt 0.308580 0.895510
vt 0.308580 0.896482
vt 0.305662 0.896473
vt 0.305662 0.890636
vt 0.304689 0.890636
vt 0.304689 0.896473
vt 0.297876 0.895506
vt 0.297876 0.894533
vt 0.310522 0.894533
vt 0.310522 0.895506
vt 0.299828 0.895506
vt 0.299828 0.894533
vt 0.311501 0.894533
vt 0.311501 0.895506
vt 0.301756 0.895500
vt 0.301756 0.891609
vt 0.300783 0.891609
vt 0.300783 0.895500
vt 0.303709 0.895500
vt 0.303709 0.891609
vt 0.302736 0.891609
vt 0.302736 0.895500
vt 0.307615 0.895506
vt 0.307615 0.894533
vt 0.306643 0.894533
vt 0.306643 0.895506
vt 0.309568 0.895506
vt 0.309568 0.894533
vt 0.308596 0.894533
vt 0.308596 0.895506
vt 0.296906 0.894529
vt 0.296906 0.893557
vt 0.312469 0.893557
vt 0.312469 0.894529
vt 0.297850 0.894527
vt 0.297850 0.892582
vt 0.296877 0.892582
vt 0.296877 0.894527
vt 0.297850 0.894529
vt 0.297850 0.893557
vt 0.296877 0.893557
vt 0.296877 0.894529
vt 0.302753 0.894529
vt 0.302753 0.893557
vt 0.312481 0.893557
vt 0.312481 0.894529
vt 0.309568 0.894524
vt 0.309568 0.890633
vt 0.308596 0.890633
vt 0.308596 0.894524
vt 0.311522 0.894529
vt 0.311522 0.893557
vt 0.310549 0.893557
vt 0.310549 0.894529
vt 0.296896 0.893553
vt 0.296896 0.892580
vt 0.307596 0.892580
vt 0.307596 0.893553
vt 0.297876 0.893553
vt 0.297876 0.892580
vt 0.310522 0.892580
vt 0.310522 0.893553
vt 0.297878 0.892576
vt 0.297878 0.891603
vt 0.311497 0.891603
vt 0.311497 0.892576
vt 0.298838 0.892576
vt 0.298838 0.891603
vt 0.303701 0.891603
vt 0.303701 0.892576
vt 0.299824 0.891600
vt 0.299824 0.890627
vt 0.309551 0.890627
vt 0.309551 0.891600
vt 0.299824 0.891600
vt 0.299824 0.890627
vt 0.309551 0.890627
vt 0.309551 0.891600
vt 0.307615 0.891600
vt 0.307615 0.890627
vt 0.306643 0.890627
vt 0.306643 0.891600
f 1/1/1 2/2/1 3/3/1 4/4/1
f 5/5/2 6/6/2 7/7/2 8/8/2
f 9/9/3 10/10/3 11/11/3 12/12/3
f 9/13/4 13/14/4 14/15/4 10/16/4
f 11/17/5 15/18/5 16/19/5 12/20/5
f 17/21/3 18/22/3 19/23/3 20/24/3
f 17/25/4 21/26/4 22/27/4 18/28/4
f 23/29/5 24/30/5 25/31/5 26/32/5
f 27/33/4 28/34/4 29/35/4 30/36/4
f 31/37/5 32/38/5 33/39/5 34/40/5
f 35/41/4 36/42/4 37/43/4 38/44/4
f 19/45/5 39/46/5 40/47/5 20/48/5
f 41/49/3 42/50/3 43/51/3 44/52/3
f 41/53/4 45/54/4 46/55/4 42/56/4
f 47/57/5 48/58/5 49/59/5 50/60/5
f 51/61/6 52/62/6 53/63/6 54/64/6
f 55/65/4 56/66/4 57/67/4 58/68/4
f 43/69/5 59/70/5 60/71/5 44/72/5
f 61/73/3 62/74/3 51/75/3 52/76/3
f 51/77/5 63/78/5 64/79/5 52/80/5
f 65/81/6 66/82/6 67/83/6 68/84/6
f 69/85/4 70/86/4 71/87/4 72/88/4
f 73/89/3 74/90/3 75/91/3 76/92/3
f 73/93/4 77/94/4 78/95/4 74/96/4
f 79/97/5 80/98/5 81/99/5 82/100/5
f 83/101/6 84/102/6 85/103/6 86/104/6
f 87/105/4 88/106/4 89/107/4 90/108/4
f 75/109/5 91/110/5 92/111/5 76/112/5
f 93/113/3 94/114/3 89/115/3 88/116/3
f 95/117/6 96/118/6 97/119/6 98/120/6
f 89/121/5 99/122/5 100/123/5 88/124/5
f 95/125/5 101/126/5 102/127/5 96/128/5
f 49/129/3 48/130/3 71/131/3 70/132/3
f 49/133/4 103/134/4 104/135/4 48/136/4
f 105/137/6 106/138/6 107/139/6 108/140/6
f 109/141/5 110/142/5 111/143/5 112/144/5
f 113/145/6 114/146/6 115/147/6 116/148/6
f 117/149/3 118/150/3 119/151/3 120/152/3
f 105/153/5 121/154/5 122/155/5 106/156/5
f 123/157/4 124/158/4 125/159/4 126/160/4
f 127/161/5 128/162/5 129/163/5 130/164/5
f 107/165/4 131/166/4 132/167/4 108/168/4
f 133/169/3 134/170/3 135/171/3 136/172/3
f 133/173/4 137/174/4 138/175/4 134/176/4
f 113/177/5 139/178/5 140/179/5 114/180/5
f 141/181/6 142/182/6 92/183/6 91/184/6
f 143/185/5 144/186/5 145/187/5 146/188/5
f 115/189/4 147/190/4 148/191/4 116/192/4
f 138/193/6 137/194/6 149/195/6 150/196/6
f 140/197/3 139/198/3 148/199/3 147/200/3
f 78/201/6 77/202/6 100/203/6 99/204/6
f 81/205/3 80/206/3 151/207/3 152/208/3
f 102/209/3 101/210/3 57/211/3 56/212/3
f 46/213/6 45/214/6 145/215/6 144/216/6
f 153/217/4 154/218/4 155/219/4 156/220/4
