v 1.000000 1.000000 0.468750
v 1.000000 0.000000 0.468750
v 0.000000 0.000000 0.468750
v 0.000000 1.000000 0.468750
v 0.000000 1.000000 0.531250
v 0.000000 0.000000 0.531250
v 1.000000 0.000000 0.531250
v 1.000000 1.000000 0.531250
v 0.500000 0.625000 0.468750
v 0.500000 0.625000 0.531250
v 0.562500 0.625000 0.531250
v 0.562500 0.625000 0.468750
v 0.500000 0.312500 0.468750
v 0.500000 0.312500 0.531250
v 0.562500 0.187500 0.531250
v 0.562500 0.187500 0.468750
v 0.187500 0.562500 0.468750
v 0.187500 0.562500 0.531250
v 0.750000 0.562500 0.531250
v 0.750000 0.562500 0.468750
v 0.187500 0.500000 0.531250
v 0.187500 0.500000 0.468750
v 0.625000 0.500000 0.468750
v 0.625000 0.500000 0.531250
v 0.187500 0.312500 0.468750
v 0.187500 0.312500 0.531250
v 0.312500 0.562500 0.531250
v 0.312500 0.000000 0.531250
v 0.312500 0.000000 0.468750
v 0.312500 0.562500 0.468750
v 0.437500 0.562500 0.468750
v 0.437500 0.250000 0.468750
v 0.437500 0.250000 0.531250
v 0.437500 0.562500 0.531250
v 0.625000 0.562500 0.531250
v 0.625000 0.312500 0.531250
v 0.625000 0.312500 0.468750
v 0.625000 0.562500 0.468750
v 0.687500 0.562500 0.468750
v 0.687500 0.312500 0.468750
v 0.687500 0.312500 0.531250
v 0.687500 0.562500 0.531250
v 0.750000 0.062500 0.531250
v 0.750000 0.062500 0.468750
v 0.250000 0.500000 0.468750
v 0.250000 0.187500 0.468750
v 0.250000 0.187500 0.531250
v 0.250000 0.500000 0.531250
v 0.312500 0.500000 0.468750
v 0.312500 0.500000 0.531250
v 0.812500 0.500000 0.531250
v 0.812500 0.500000 0.468750
v 0.375000 0.500000 0.531250
v 0.375000 0.250000 0.531250
v 0.375000 0.250000 0.468750
v 0.375000 0.500000 0.468750
v 0.812500 0.000000 0.531250
v 0.812500 0.000000 0.468750
v 0.062500 0.437500 0.468750
v 0.062500 0.437500 0.531250
v 0.937500 0.437500 0.531250
v 0.937500 0.437500 0.468750
v 0.062500 0.000000 0.468750
v 0.062500 0.000000 0.531250
v 0.125000 0.375000 0.531250
v 0.125000 0.375000 0.468750
v 0.500000 0.375000 0.468750
v 0.500000 0.375000 0.531250
v 0.187500 0.437500 0.531250
v 0.187500 0.187500 0.531250
v 0.187500 0.187500 0.468750
v 0.187500 0.437500 0.468750
v 0.875000 0.437500 0.468750
v 0.875000 0.000000 0.468750
v 0.875000 0.000000 0.531250
v 0.875000 0.437500 0.531250
v 0.937500 0.000000 0.531250
v 0.937500 0.000000 0.468750
v 0.000000 0.375000 0.468750
v 0.000000 0.375000 0.531250
v 1.000000 0.375000 0.531250
v 1.000000 0.375000 0.468750
v 0.000000 0.062500 0.468750
v 0.000000 0.062500 0.531250
v 0.125000 0.250000 0.531250
v 0.125000 0.250000 0.468750
v 0.437500 0.375000 0.531250
v 0.437500 0.312500 0.531250
v 0.437500 0.312500 0.468750
v 0.437500 0.375000 0.468750
v 1.000000 0.125000 0.531250
v 1.000000 0.125000 0.468750
v 0.000000 0.250000 0.531250
v 0.000000 0.250000 0.468750
v 0.812500 0.250000 0.468750
v 0.812500 0.250000 0.531250
v 0.625000 0.187500 0.468750
v 0.625000 0.187500 0.531250
v 0.062500 0.187500 0.531250
v 0.062500 0.187500 0.468750
v 0.875000 0.250000 0.531250
v 0.875000 0.250000 0.468750
v 0.812500 0.062500 0.468750
v 0.812500 0.062500 0.531250
v 0.000000 0.187500 0.468750
v 0.000000 0.187500 0.531250
v 0.062500 0.062500 0.531250
v 0.062500 0.062500 0.468750
v 0.125000 0.187500 0.468750
v 0.125000 0.062500 0.468750
v 0.125000 0.062500 0.531250
v 0.125000 0.187500 0.531250
v 0.250000 0.062500 0.531250
v 0.250000 0.062500 0.468750
v 0.312500 0.187500 0.468750
v 0.312500 0.062500 0.468750
v 0.312500 0.062500 0.531250
v 0.312500 0.187500 0.531250
v 0.500000 0.187500 0.531250
v 0.500000 0.125000 0.531250
v 0.500000 0.125000 0.468750
v 0.500000 0.187500 0.468750
v 0.562500 0.125000 0.468750
v 0.562500 0.125000 0.531250
v 0.937500 0.125000 0.531250
v 0.937500 0.125000 0.468750
v 0.875000 0.062500 0.468750
v 0.875000 0.062500 0.531250
v 0.375000 0.062500 0.468750
v 0.375000 0.000000 0.468750
v 0.375000 0.000000 0.531250
v 0.375000 0.062500 0.531250
vn 0.000000 0.000000 -1.000000
vn 0.000000 0.000000 1.000000
vn 0.000000 1.000000 0.000000
vn -1.000000 0.000000 0.000000
vn 1.000000 0.000000 0.000000
vn 0.000000 -1.000000 0.000000
vt 0.312469 0.859344
vt 0.312469 0.843781
vt 0.296906 0.843781
vt 0.296906 0.859344
vt 0.296906 0.859344
vt 0.296906 0.843781
vt 0.312469 0.843781
vt 0.312469 0.859344
vt 0.304689 0.853514
vt 0.304689 0.852541
vt 0.305662 0.852541
vt 0.305662 0.853514
vt 0.305662 0.853506
vt 0.305662 0.848642
vt 0.304689 0.848642
vt 0.304689 0.853506
vt 0.305662 0.853502
vt 0.305662 0.846693
vt 0.304689 0.846693
vt 0.304689 0.853502
vt 0.299822 0.852537
vt 0.299822 0.851564
vt 0.308577 0.851564
vt 0.308577 0.852537
vt 0.299818 0.852537
vt 0.299818 0.851564
vt 0.306627 0.851564
vt 0.306627 0.852537
vt 0.300779 0.852531
vt 0.300779 0.848640
vt 0.299807 0.848640
vt 0.299807 0.852531
vt 0.301756 0.852522
vt 0.301756 0.843767
vt 0.300783 0.843767
vt 0.300783 0.852522
vt 0.304686 0.852530
vt 0.304686 0.847666
vt 0.303713 0.847666
vt 0.303713 0.852530
vt 0.306639 0.852531
vt 0.306639 0.848640
vt 0.305666 0.848640
vt 0.305666 0.852531
vt 0.308592 0.852531
vt 0.308592 0.848640
vt 0.307619 0.848640
vt 0.307619 0.852531
vt 0.308592 0.852524
vt 0.308592 0.844742
vt 0.307619 0.844742
vt 0.307619 0.852524
vt 0.301756 0.851553
vt 0.301756 0.846689
vt 0.300783 0.846689
vt 0.300783 0.851553
vt 0.301773 0.851561
vt 0.301773 0.850588
vt 0.309555 0.850588
vt 0.309555 0.851561
vt 0.302732 0.851555
vt 0.302732 0.847664
vt 0.301760 0.847664
vt 0.301760 0.851555
vt 0.309568 0.851547
vt 0.309568 0.843765
vt 0.308596 0.843765
vt 0.308596 0.851547
vt 0.297878 0.850584
vt 0.297878 0.849611
vt 0.311497 0.849611
vt 0.311497 0.850584
vt 0.298826 0.850573
vt 0.298826 0.843763
vt 0.297853 0.843763
vt 0.297853 0.850573
vt 0.298840 0.850584
vt 0.298840 0.849611
vt 0.304676 0.849611
vt 0.304676 0.850584
vt 0.299803 0.850578
vt 0.299803 0.846687
vt 0.298830 0.846687
vt 0.298830 0.850578
vt 0.311522 0.850573
vt 0.311522 0.843763
vt 0.310549 0.843763
vt 0.310549 0.850573
vt 0.311522 0.850573
vt 0.311522 0.843763
vt 0.310549 0.843763
vt 0.310549 0.850573
vt 0.296906 0.849607
vt 0.296906 0.848635
vt 0.312469 0.848635
vt 0.312469 0.849607
vt 0.297850 0.849600
vt 0.297850 0.844736
vt 0.296877 0.844736
vt 0.296877 0.849600
vt 0.298826 0.849606
vt 0.298826 0.847660
vt 0.297853 0.847660
vt 0.297853 0.849606
vt 0.299818 0.849607
vt 0.299818 0.848635
vt 0.306627 0.848635
vt 0.306627 0.849607
vt 0.303709 0.849607
vt 0.303709 0.848635
vt 0.302736 0.848635
vt 0.302736 0.849607
vt 0.312498 0.849602
vt 0.312498 0.845711
vt 0.311525 0.845711
vt 0.311525 0.849602
vt 0.296900 0.848631
vt 0.296900 0.847658
vt 0.309546 0.847658
vt 0.309546 0.848631
vt 0.303719 0.848631
vt 0.303719 0.847658
vt 0.307610 0.847658
vt 0.307610 0.848631
vt 0.307615 0.848629
vt 0.307615 0.846684
vt 0.306643 0.846684
vt 0.306643 0.848629
vt 0.297867 0.847654
vt 0.297867 0.846682
vt 0.305649 0.846682
vt 0.305649 0.847654
vt 0.298851 0.847654
vt 0.298851 0.846682
vt 0.310524 0.846682
vt 0.310524 0.847654
vt 0.310545 0.847651
vt 0.310545 0.844732
vt 0.309572 0.844732
vt 0.309572 0.847651
vt 0.296894 0.846678
vt 0.296894 0.845705
vt 0.306622 0.845705
vt 0.306622 0.846678
vt 0.297850 0.846676
vt 0.297850 0.844730
vt 0.296877 0.844730
vt 0.296877 0.846676
vt 0.299803 0.846676
vt 0.299803 0.844730
vt 0.298830 0.844730
vt 0.298830 0.846676
vt 0.300779 0.846676
vt 0.300779 0.844730
vt 0.299807 0.844730
vt 0.299807 0.846676
vt 0.302732 0.846676
vt 0.302732 0.844730
vt 0.301760 0.844730
vt 0.301760 0.846676
vt 0.304686 0.846678
vt 0.304686 0.845705
vt 0.303713 0.845705
vt 0.303713 0.846678
vt 0.306639 0.846678
vt 0.306639 0.845705
vt 0.305666 0.845705
vt 0.305666 0.846678
vt 0.311525 0.846678
vt 0.311525 0.845705
vt 0.312498 0.845705
vt 0.312498 0.846678
vt 0.296902 0.845701
vt 0.296902 0.844728
vt 0.310520 0.844728
vt 0.310520 0.845701
vt 0.304689 0.845701
vt 0.304689 0.844728
vt 0.305662 0.844728
vt 0.305662 0.845701
vt 0.297874 0.844725
vt 0.297874 0.843752
vt 0.309547 0.843752
vt 0.309547 0.844725
vt 0.297878 0.844725
vt 0.297878 0.843752
vt 0.311497 0.843752
vt 0.311497 0.844725
vt 0.303709 0.844725
vt 0.303709 0.843752
vt 0.302736 0.843752
vt 0.302736 0.844725
f 1/1/1 2/2/1 3/3/1 4/4/1
f 5/5/2 6/6/2 7/7/2 8/8/2
f 9/9/3 10/10/3 11/11/3 12/12/3
f 9/13/4 13/14/4 14/15/4 10/16/4
f 11/17/5 15/18/5 16/19/5 12/20/5
f 17/21/3 18/22/3 19/23/3 20/24/3
f 21/25/6 22/26/6 23/27/6 24/28/6
f 17/29/4 25/30/4 26/31/4 18/32/4
f 27/33/5 28/34/5 29/35/5 30/36/5
f 31/37/4 32/38/4 33/39/4 34/40/4
f 35/41/5 36/42/5 37/43/5 38/44/5
f 39/45/4 40/46/4 41/47/4 42/48/4
f 19/49/5 43/50/5 44/51/5 20/52/5
f 45/53/4 46/54/4 47/55/4 48/56/4
f 49/57/3 50/58/3 51/59/3 52/60/3
f 53/61/5 54/62/5 55/63/5 56/64/5
f 51/65/5 57/66/5 58/67/5 52/68/5
f 59/69/3 60/70/3 61/71/3 62/72/3
f 59/73/4 63/74/4 64/75/4 60/76/4
f 65/77/6 66/78/6 67/79/6 68/80/6
f 69/81/5 70/82/5 71/83/5 72/84/5
f 73/85/4 74/86/4 75/87/4 76/88/4
f 61/89/5 77/90/5 78/91/5 62/92/5
f 79/93/3 80/94/3 81/95/3 82/96/3
f 79/97/4 83/98/4 84/99/4 80/100/4
f 65/101/5 85/102/5 86/103/5 66/104/5
f 26/105/6 25/106/6 37/107/6 36/108/6
f 87/109/5 88/110/5 89/111/5 90/112/5
f 81/113/5 91/114/5 92/115/5 82/116/5
f 93/117/6 94/118/6 95/119/6 96/120/6
f 89/121/3 88/122/3 41/123/3 40/124/3
f 37/125/4 97/126/4 98/127/4 36/128/4
f 99/129/6 100/130/6 16/131/6 15/132/6
f 86/133/3 85/134/3 101/135/3 102/136/3
f 95/137/4 103/138/4 104/139/4 96/140/4
f 105/141/3 106/142/3 98/143/3 97/144/3
f 99/145/5 107/146/5 108/147/5 100/148/5
f 109/149/4 110/150/4 111/151/4 112/152/4
f 47/153/5 113/154/5 114/155/5 46/156/5
f 115/157/4 116/158/4 117/159/4 118/160/4
f 119/161/5 120/162/5 121/163/5 122/164/5
f 16/165/4 123/166/4 124/167/4 15/168/4
f 125/169/6 126/170/6 92/171/6 91/172/6
f 84/173/6 83/174/6 127/175/6 128/176/6
f 121/177/3 120/178/3 124/179/3 123/180/3
f 108/181/3 107/182/3 104/183/3 103/184/3
f 64/185/6 63/186/6 78/187/6 77/188/6
f 129/189/4 130/190/4 131/191/4 132/192/4
