v 1.000000 1.000000 0.468750
v 1.000000 0.000000 0.468750
v 0.000000 0.000000 0.468750
v 0.000000 1.000000 0.468750
v 0.000000 1.000000 0.531250
v 0.000000 0.000000 0.531250
v 1.000000 0.000000 0.531250
v 1.000000 1.000000 0.531250
v 0.312500 0.875000 0.468750
v 0.312500 0.875000 0.531250
v 0.750000 0.875000 0.531250
v 0.750000 0.875000 0.468750
v 0.312500 0.187500 0.468750
v 0.312500 0.187500 0.531250
v 0.437500 0.875000 0.531250
v 0.437500 0.250000 0.531250
v 0.437500 0.250000 0.468750
v 0.437500 0.875000 0.468750
v 0.625000 0.875000 0.468750
v 0.625000 0.187500 0.468750
v 0.625000 0.187500 0.531250
v 0.625000 0.875000 0.531250
v 0.750000 0.375000 0.531250
v 0.750000 0.375000 0.468750
v 0.312500 0.750000 0.531250
v 0.312500 0.750000 0.468750
v 0.375000 0.750000 0.468750
v 0.375000 0.750000 0.531250
v 0.437500 0.812500 0.468750
v 0.437500 0.812500 0.531250
v 0.500000 0.812500 0.531250
v 0.500000 0.812500 0.468750
v 0.500000 0.312500 0.531250
v 0.500000 0.312500 0.468750
v 0.375000 0.687500 0.531250
v 0.375000 0.687500 0.468750
v 0.750000 0.687500 0.468750
v 0.750000 0.687500 0.531250
v 0.500000 0.750000 0.468750
v 0.500000 0.750000 0.531250
v 0.625000 0.750000 0.531250
v 0.625000 0.750000 0.468750
v 0.437500 0.625000 0.531250
v 0.437500 0.625000 0.468750
v 0.687500 0.625000 0.468750
v 0.687500 0.625000 0.531250
v 0.437500 0.687500 0.468750
v 0.437500 0.062500 0.468750
v 0.437500 0.062500 0.531250
v 0.437500 0.687500 0.531250
v 0.687500 0.687500 0.531250
v 0.687500 0.000000 0.531250
v 0.687500 0.000000 0.468750
v 0.687500 0.687500 0.468750
v 0.812500 0.687500 0.468750
v 0.812500 0.687500 0.531250
v 0.937500 0.687500 0.531250
v 0.937500 0.687500 0.468750
v 0.812500 0.625000 0.468750
v 0.812500 0.625000 0.531250
v 0.937500 0.250000 0.531250
v 0.937500 0.250000 0.468750
v 0.187500 0.625000 0.468750
v 0.187500 0.625000 0.531250
v 0.187500 0.125000 0.468750
v 0.187500 0.125000 0.531250
v 0.312500 0.625000 0.531250
v 0.312500 0.562500 0.531250
v 0.312500 0.562500 0.468750
v 0.312500 0.625000 0.468750
v 0.500000 0.562500 0.531250
v 0.500000 0.562500 0.468750
v 0.937500 0.562500 0.468750
v 0.937500 0.562500 0.531250
v 0.500000 0.625000 0.468750
v 0.500000 0.000000 0.468750
v 0.500000 0.000000 0.531250
v 0.500000 0.625000 0.531250
v 0.625000 0.625000 0.531250
v 0.625000 0.562500 0.531250
v 0.625000 0.562500 0.468750
v 0.625000 0.625000 0.468750
v 0.687500 0.562500 0.468750
v 0.687500 0.562500 0.531250
v 0.187500 0.500000 0.531250
v 0.187500 0.500000 0.468750
v 0.875000 0.500000 0.468750
v 0.875000 0.500000 0.531250
v 0.375000 0.562500 0.531250
v 0.375000 0.437500 0.531250
v 0.375000 0.437500 0.468750
v 0.375000 0.562500 0.468750
v 0.562500 0.562500 0.468750
v 0.562500 0.437500 0.468750
v 0.562500 0.437500 0.531250
v 0.562500 0.562500 0.531250
v 0.875000 0.562500 0.531250
v 0.875000 0.125000 0.531250
v 0.875000 0.125000 0.468750
v 0.875000 0.562500 0.468750
v 0.062500 0.500000 0.468750
v 0.062500 0.500000 0.531250
v 0.500000 0.500000 0.531250
v 0.500000 0.500000 0.468750
v 0.062500 0.375000 0.468750
v 0.062500 0.375000 0.531250
v 0.187500 0.437500 0.531250
v 0.187500 0.437500 0.468750
v 0.250000 0.500000 0.468750
v 0.250000 0.250000 0.468750
v 0.250000 0.250000 0.531250
v 0.250000 0.500000 0.531250
v 0.625000 0.437500 0.468750
v 0.625000 0.437500 0.531250
v 0.125000 0.375000 0.468750
v 0.125000 0.375000 0.531250
v 0.437500 0.437500 0.531250
v 0.437500 0.437500 0.468750
v 0.125000 0.312500 0.531250
v 0.125000 0.312500 0.468750
v 0.125000 0.187500 0.468750
v 0.125000 0.187500 0.531250
v 0.937500 0.375000 0.531250
v 0.937500 0.375000 0.468750
v 0.125000 0.250000 0.468750
v 0.125000 0.250000 0.531250
v 0.562500 0.250000 0.531250
v 0.562500 0.250000 0.468750
v 0.187500 0.187500 0.468750
v 0.187500 0.187500 0.531250
v 0.250000 0.187500 0.531250
v 0.250000 0.187500 0.468750
v 0.562500 0.187500 0.531250
v 0.562500 0.187500 0.468750
v 0.812500 0.250000 0.531250
v 0.812500 0.187500 0.531250
v 0.812500 0.187500 0.468750
v 0.812500 0.250000 0.468750
v 0.875000 0.187500 0.531250
v 0.875000 0.187500 0.468750
v 0.500000 0.062500 0.468750
v 0.500000 0.062500 0.531250
vn 0.000000 0.000000 -1.000000
vn 0.000000 0.000000 1.000000
vn 0.000000 1.000000 0.000000
vn -1.000000 0.000000 0.000000
vn 1.000000 0.000000 0.000000
vn 0.000000 -1.000000 0.000000
vt 0.312469 0.890594
vt 0.312469 0.875031
vt 0.296906 0.875031
vt 0.296906 0.890594
vt 0.296906 0.890594
vt 0.296906 0.875031
vt 0.312469 0.875031
vt 0.312469 0.890594
vt 0.301771 0.888670
vt 0.301771 0.887697
vt 0.308580 0.887697
vt 0.308580 0.888670
vt 0.302732 0.888651
vt 0.302732 0.877951
vt 0.301760 0.877951
vt 0.301760 0.888651
vt 0.303709 0.888653
vt 0.303709 0.878925
vt 0.302736 0.878925
vt 0.302736 0.888653
vt 0.307615 0.888651
vt 0.307615 0.877951
vt 0.306643 0.877951
vt 0.306643 0.888651
vt 0.308592 0.888657
vt 0.308592 0.880875
vt 0.307619 0.880875
vt 0.307619 0.888657
vt 0.301760 0.887693
vt 0.301760 0.886721
vt 0.302732 0.886721
vt 0.302732 0.887693
vt 0.303713 0.887693
vt 0.303713 0.886721
vt 0.304686 0.886721
vt 0.304686 0.887693
vt 0.304686 0.887680
vt 0.304686 0.879898
vt 0.303713 0.879898
vt 0.303713 0.887680
vt 0.302746 0.886717
vt 0.302746 0.885744
vt 0.308582 0.885744
vt 0.308582 0.886717
vt 0.303709 0.886717
vt 0.303709 0.885744
vt 0.302736 0.885744
vt 0.302736 0.886717
vt 0.304691 0.886717
vt 0.304691 0.885744
vt 0.306637 0.885744
vt 0.306637 0.886717
vt 0.303719 0.885740
vt 0.303719 0.884768
vt 0.307610 0.884768
vt 0.307610 0.885740
vt 0.304686 0.885723
vt 0.304686 0.875996
vt 0.303713 0.875996
vt 0.303713 0.885723
vt 0.307615 0.885721
vt 0.307615 0.875021
vt 0.306643 0.875021
vt 0.306643 0.885721
vt 0.309574 0.885740
vt 0.309574 0.884768
vt 0.311520 0.884768
vt 0.311520 0.885740
vt 0.310545 0.885740
vt 0.310545 0.884768
vt 0.309572 0.884768
vt 0.309572 0.885740
vt 0.311522 0.885729
vt 0.311522 0.878920
vt 0.310549 0.878920
vt 0.310549 0.885729
vt 0.299824 0.884764
vt 0.299824 0.883791
vt 0.309551 0.883791
vt 0.309551 0.884764
vt 0.300779 0.884750
vt 0.300779 0.876968
vt 0.299807 0.876968
vt 0.299807 0.884750
vt 0.301756 0.884764
vt 0.301756 0.883791
vt 0.300783 0.883791
vt 0.300783 0.884764
vt 0.304701 0.884764
vt 0.304701 0.883791
vt 0.311510 0.883791
vt 0.311510 0.884764
vt 0.305662 0.884747
vt 0.305662 0.875019
vt 0.304689 0.875019
vt 0.304689 0.884747
vt 0.306639 0.884764
vt 0.306639 0.883791
vt 0.305666 0.883791
vt 0.305666 0.884764
vt 0.308592 0.884764
vt 0.308592 0.883791
vt 0.307619 0.883791
vt 0.307619 0.884764
vt 0.299826 0.883787
vt 0.299826 0.882814
vt 0.310526 0.882814
vt 0.310526 0.883787
vt 0.301769 0.883787
vt 0.301769 0.882814
vt 0.307606 0.882814
vt 0.307606 0.883787
vt 0.302732 0.883785
vt 0.302732 0.881840
vt 0.301760 0.881840
vt 0.301760 0.883785
vt 0.306639 0.883785
vt 0.306639 0.881840
vt 0.305666 0.881840
vt 0.305666 0.883785
vt 0.310545 0.883776
vt 0.310545 0.876966
vt 0.309572 0.876966
vt 0.309572 0.883776
vt 0.297865 0.882811
vt 0.297865 0.881838
vt 0.304674 0.881838
vt 0.304674 0.882811
vt 0.298826 0.882809
vt 0.298826 0.880863
vt 0.297853 0.880863
vt 0.297853 0.882809
vt 0.299803 0.882811
vt 0.299803 0.881838
vt 0.298830 0.881838
vt 0.298830 0.882811
vt 0.301756 0.882805
vt 0.301756 0.878914
vt 0.300783 0.878914
vt 0.300783 0.882805
vt 0.305666 0.882811
vt 0.305666 0.881838
vt 0.306639 0.881838
vt 0.306639 0.882811
vt 0.297853 0.881834
vt 0.297853 0.880861
vt 0.298826 0.880861
vt 0.298826 0.881834
vt 0.299812 0.881834
vt 0.299812 0.880861
vt 0.303703 0.880861
vt 0.303703 0.881834
vt 0.298840 0.880857
vt 0.298840 0.879885
vt 0.304676 0.879885
vt 0.304676 0.880857
vt 0.299803 0.880854
vt 0.299803 0.877935
vt 0.298830 0.877935
vt 0.298830 0.880854
vt 0.308599 0.880857
vt 0.308599 0.879885
vt 0.311518 0.879885
vt 0.311518 0.880857
vt 0.300802 0.879881
vt 0.300802 0.878908
vt 0.311502 0.878908
vt 0.311502 0.879881
vt 0.298841 0.878904
vt 0.298841 0.877932
vt 0.305651 0.877932
vt 0.305651 0.878904
vt 0.298830 0.878904
vt 0.298830 0.877932
vt 0.299803 0.877932
vt 0.299803 0.878904
vt 0.300779 0.878904
vt 0.300779 0.877932
vt 0.299807 0.877932
vt 0.299807 0.878904
vt 0.305662 0.878904
vt 0.305662 0.877932
vt 0.304689 0.877932
vt 0.304689 0.878904
vt 0.309568 0.878904
vt 0.309568 0.877932
vt 0.308596 0.877932
vt 0.308596 0.878904
vt 0.299826 0.877928
vt 0.299826 0.876955
vt 0.310526 0.876955
vt 0.310526 0.877928
vt 0.300800 0.877928
vt 0.300800 0.876955
vt 0.310528 0.876955
vt 0.310528 0.877928
vt 0.303713 0.876951
vt 0.303713 0.875978
vt 0.304686 0.875978
vt 0.304686 0.876951
vt 0.304693 0.875975
vt 0.304693 0.875002
vt 0.307611 0.875002
vt 0.307611 0.875975
f 1/1/1 2/2/1 3/3/1 4/4/1
f 5/5/2 6/6/2 7/7/2 8/8/2
f 9/9/3 10/10/3 11/11/3 12/12/3
f 9/13/4 13/14/4 14/15/4 10/16/4
f 15/17/5 16/18/5 17/19/5 18/20/5
f 19/21/4 20/22/4 21/23/4 22/24/4
f 11/25/5 23/26/5 24/27/5 12/28/5
f 25/29/6 26/30/6 27/31/6 28/32/6
f 29/33/3 30/34/3 31/35/3 32/36/3
f 31/37/5 33/38/5 34/39/5 32/40/5
f 35/41/6 36/42/6 37/43/6 38/44/6
f 27/45/4 36/46/4 35/47/4 28/48/4
f 39/49/3 40/50/3 41/51/3 42/52/3
f 43/53/6 44/54/6 45/55/6 46/56/6
f 47/57/4 48/58/4 49/59/4 50/60/4
f 51/61/5 52/62/5 53/63/5 54/64/5
f 55/65/3 56/66/3 57/67/3 58/68/3
f 55/69/4 59/70/4 60/71/4 56/72/4
f 57/73/5 61/74/5 62/75/5 58/76/5
f 63/77/3 64/78/3 60/79/3 59/80/3
f 63/81/4 65/82/4 66/83/4 64/84/4
f 67/85/5 68/86/5 69/87/5 70/88/5
f 71/89/6 72/90/6 73/91/6 74/92/6
f 75/93/4 76/94/4 77/95/4 78/96/4
f 79/97/5 80/98/5 81/99/5 82/100/5
f 45/101/4 83/102/4 84/103/4 46/104/4
f 85/105/6 86/106/6 87/107/6 88/108/6
f 69/109/3 68/110/3 84/111/3 83/112/3
f 89/113/5 90/114/5 91/115/5 92/116/5
f 93/117/4 94/118/4 95/119/4 96/120/4
f 97/121/5 98/122/5 99/123/5 100/124/5
f 101/125/3 102/126/3 103/127/3 104/128/3
f 101/129/4 105/130/4 106/131/4 102/132/4
f 85/133/5 107/134/5 108/135/5 86/136/5
f 109/137/4 110/138/4 111/139/4 112/140/4
f 95/141/6 94/142/6 113/143/6 114/144/6
f 106/145/6 105/146/6 115/147/6 116/148/6
f 108/149/3 107/150/3 117/151/3 118/152/3
f 119/153/6 120/154/6 34/155/6 33/156/6
f 115/157/4 121/158/4 122/159/4 116/160/4
f 24/161/3 23/162/3 123/163/3 124/164/3
f 111/165/6 110/166/6 62/167/6 61/168/6
f 125/169/3 126/170/3 127/171/3 128/172/3
f 122/173/6 121/174/6 129/175/6 130/176/6
f 111/177/5 131/178/5 132/179/5 110/180/5
f 127/181/5 133/182/5 134/183/5 128/184/5
f 135/185/5 136/186/5 137/187/5 138/188/5
f 66/189/6 65/190/6 99/191/6 98/192/6
f 132/193/3 131/194/3 139/195/3 140/196/3
f 49/197/6 48/198/6 141/199/6 142/200/6
f 77/201/6 76/202/6 53/203/6 52/204/6
