v 1.000000 1.000000 0.468750
v 1.000000 0.000000 0.468750
v 0.000000 0.000000 0.468750
v 0.000000 1.000000 0.468750
v 0.000000 1.000000 0.531250
v 0.000000 0.000000 0.531250
v 1.000000 0.000000 0.531250
v 1.000000 1.000000 0.531250
v 0.437500 0.937500 0.468750
v 0.437500 0.937500 0.531250
v 0.625000 0.937500 0.531250
v 0.625000 0.937500 0.468750
v 0.437500 0.437500 0.468750
v 0.437500 0.437500 0.531250
v 0.625000 0.437500 0.531250
v 0.625000 0.437500 0.468750
v 0.375000 0.875000 0.468750
v 0.375000 0.875000 0.531250
v 0.687500 0.875000 0.531250
v 0.687500 0.875000 0.468750
v 0.375000 0.812500 0.531250
v 0.375000 0.812500 0.468750
v 0.437500 0.812500 0.468750
v 0.437500 0.812500 0.531250
v 0.375000 0.375000 0.468750
v 0.375000 0.375000 0.531250
v 0.687500 0.500000 0.531250
v 0.687500 0.500000 0.468750
v 0.437500 0.750000 0.531250
v 0.437500 0.750000 0.468750
v 0.562500 0.750000 0.468750
v 0.562500 0.750000 0.531250
v 0.687500 0.812500 0.468750
v 0.687500 0.812500 0.531250
v 0.875000 0.812500 0.531250
v 0.875000 0.812500 0.468750
v 0.875000 0.625000 0.531250
v 0.875000 0.625000 0.468750
v 0.562500 0.687500 0.531250
v 0.562500 0.687500 0.468750
v 0.625000 0.687500 0.468750
v 0.625000 0.687500 0.531250
v 0.562500 0.562500 0.468750
v 0.562500 0.562500 0.531250
v 0.625000 0.625000 0.468750
v 0.625000 0.625000 0.531250
v 0.812500 0.625000 0.531250
v 0.812500 0.625000 0.468750
v 0.562500 0.625000 0.468750
v 0.562500 0.625000 0.531250
v 0.687500 0.562500 0.531250
v 0.687500 0.562500 0.468750
v 0.812500 0.562500 0.468750
v 0.812500 0.562500 0.531250
v 0.500000 0.562500 0.468750
v 0.500000 0.562500 0.531250
v 0.500000 0.500000 0.468750
v 0.500000 0.500000 0.531250
v 0.625000 0.500000 0.531250
v 0.625000 0.500000 0.468750
v 0.437500 0.500000 0.468750
v 0.437500 0.500000 0.531250
v 0.562500 0.437500 0.531250
v 0.562500 0.437500 0.468750
v 0.375000 0.437500 0.468750
v 0.375000 0.437500 0.531250
v 0.500000 0.375000 0.531250
v 0.500000 0.375000 0.468750
v 0.562500 0.375000 0.468750
v 0.562500 0.375000 0.531250
v 0.312500 0.375000 0.468750
v 0.312500 0.375000 0.531250
v 0.312500 0.312500 0.468750
v 0.312500 0.312500 0.531250
v 0.437500 0.312500 0.531250
v 0.437500 0.312500 0.468750
v 0.500000 0.312500 0.468750
v 0.500000 0.312500 0.531250
v 0.250000 0.312500 0.468750
v 0.250000 0.312500 0.531250
v 0.250000 0.250000 0.468750
v 0.250000 0.250000 0.531250
v 0.375000 0.250000 0.531250
v 0.375000 0.250000 0.468750
v 0.437500 0.250000 0.468750
v 0.437500 0.250000 0.531250
v 0.187500 0.250000 0.468750
v 0.187500 0.250000 0.531250
v 0.187500 0.187500 0.468750
v 0.187500 0.187500 0.531250
v 0.312500 0.187500 0.531250
v 0.312500 0.187500 0.468750
v 0.375000 0.187500 0.468750
v 0.375000 0.187500 0.531250
v 0.125000 0.187500 0.468750
v 0.125000 0.187500 0.531250
v 0.125000 0.062500 0.468750
v 0.125000 0.062500 0.531250
v 0.250000 0.125000 0.531250
v 0.250000 0.125000 0.468750
v 0.312500 0.125000 0.468750
v 0.312500 0.125000 0.531250
v 0.250000 0.062500 0.468750
v 0.250000 0.062500 0.531250
vn 0.000000 0.000000 -1.000000
vn 0.000000 0.000000 1.000000
vn 0.000000 1.000000 0.000000
vn -1.000000 0.000000 0.000000
vn 1.000000 0.000000 0.000000
vn 0.000000 -1.000000 0.000000
vt 0.140594 0.499969
vt 0.140594 0.484406
vt 0.125031 0.484406
vt 0.125031 0.499969
vt 0.125031 0.499969
vt 0.125031 0.484406
vt 0.140594 0.484406
vt 0.140594 0.499969
vt 0.131842 0.499022
vt 0.131842 0.498049
vt 0.134760 0.498049
vt 0.134760 0.499022
vt 0.132811 0.499008
vt 0.132811 0.491226
vt 0.131838 0.491226
vt 0.131838 0.499008
vt 0.134764 0.499008
vt 0.134764 0.491226
vt 0.133791 0.491226
vt 0.133791 0.499008
vt 0.130869 0.498045
vt 0.130869 0.497072
vt 0.135733 0.497072
vt 0.135733 0.498045
vt 0.130861 0.498045
vt 0.130861 0.497072
vt 0.131834 0.497072
vt 0.131834 0.498045
vt 0.131834 0.498032
vt 0.131834 0.490250
vt 0.130861 0.490250
vt 0.130861 0.498032
vt 0.135740 0.498035
vt 0.135740 0.492199
vt 0.134768 0.492199
vt 0.134768 0.498035
vt 0.131840 0.497068
vt 0.131840 0.496096
vt 0.133785 0.496096
vt 0.133785 0.497068
vt 0.135748 0.497068
vt 0.135748 0.496096
vt 0.138666 0.496096
vt 0.138666 0.497068
vt 0.138670 0.497065
vt 0.138670 0.494146
vt 0.137697 0.494146
vt 0.137697 0.497065
vt 0.133791 0.496092
vt 0.133791 0.495119
vt 0.134764 0.495119
vt 0.134764 0.496092
vt 0.134764 0.496088
vt 0.134764 0.493170
vt 0.133791 0.493170
vt 0.133791 0.496088
vt 0.135740 0.495115
vt 0.135740 0.494143
vt 0.134768 0.494143
vt 0.134768 0.495115
vt 0.137697 0.495115
vt 0.137697 0.494143
vt 0.138670 0.494143
vt 0.138670 0.495115
vt 0.133791 0.494139
vt 0.133791 0.493166
vt 0.134764 0.493166
vt 0.134764 0.494139
vt 0.135746 0.494139
vt 0.135746 0.493166
vt 0.137691 0.493166
vt 0.137691 0.494139
vt 0.137693 0.494139
vt 0.137693 0.493166
vt 0.136721 0.493166
vt 0.136721 0.494139
vt 0.132814 0.493162
vt 0.132814 0.492189
vt 0.133787 0.492189
vt 0.133787 0.493162
vt 0.133787 0.493162
vt 0.133787 0.492189
vt 0.132814 0.492189
vt 0.132814 0.493162
vt 0.134768 0.493162
vt 0.134768 0.492189
vt 0.135740 0.492189
vt 0.135740 0.493162
vt 0.131838 0.492186
vt 0.131838 0.491213
vt 0.132811 0.491213
vt 0.132811 0.492186
vt 0.133791 0.492186
vt 0.133791 0.491213
vt 0.134764 0.491213
vt 0.134764 0.492186
vt 0.130861 0.491209
vt 0.130861 0.490236
vt 0.131834 0.490236
vt 0.131834 0.491209
vt 0.132814 0.491209
vt 0.132814 0.490236
vt 0.133787 0.490236
vt 0.133787 0.491209
vt 0.133787 0.491209
vt 0.133787 0.490236
vt 0.132814 0.490236
vt 0.132814 0.491209
vt 0.129885 0.490232
vt 0.129885 0.489260
vt 0.130857 0.489260
vt 0.130857 0.490232
vt 0.130857 0.490232
vt 0.130857 0.489260
vt 0.129885 0.489260
vt 0.129885 0.490232
vt 0.131838 0.490232
vt 0.131838 0.489260
vt 0.132811 0.489260
vt 0.132811 0.490232
vt 0.132811 0.490232
vt 0.132811 0.489260
vt 0.131838 0.489260
vt 0.131838 0.490232
vt 0.128908 0.489256
vt 0.128908 0.488283
vt 0.129881 0.488283
vt 0.129881 0.489256
vt 0.129881 0.489256
vt 0.129881 0.488283
vt 0.128908 0.488283
vt 0.128908 0.489256
vt 0.130861 0.489256
vt 0.130861 0.488283
vt 0.131834 0.488283
vt 0.131834 0.489256
vt 0.131834 0.489256
vt 0.131834 0.488283
vt 0.130861 0.488283
vt 0.130861 0.489256
vt 0.127932 0.488279
vt 0.127932 0.487307
vt 0.128904 0.487307
vt 0.128904 0.488279
vt 0.128904 0.488279
vt 0.128904 0.487307
vt 0.127932 0.487307
vt 0.127932 0.488279
vt 0.129885 0.488279
vt 0.129885 0.487307
vt 0.130857 0.487307
vt 0.130857 0.488279
vt 0.130857 0.488279
vt 0.130857 0.487307
vt 0.129885 0.487307
vt 0.129885 0.488279
vt 0.126955 0.487303
vt 0.126955 0.486330
vt 0.127928 0.486330
vt 0.127928 0.487303
vt 0.127928 0.487301
vt 0.127928 0.485355
vt 0.126955 0.485355
vt 0.126955 0.487301
vt 0.128908 0.487303
vt 0.128908 0.486330
vt 0.129881 0.486330
vt 0.129881 0.487303
vt 0.129881 0.487303
vt 0.129881 0.486330
vt 0.128908 0.486330
vt 0.128908 0.487303
vt 0.126957 0.486326
vt 0.126957 0.485353
vt 0.128902 0.485353
vt 0.128902 0.486326
vt 0.128904 0.486326
vt 0.128904 0.485353
vt 0.127932 0.485353
vt 0.127932 0.486326
f 1/1/1 2/2/1 3/3/1 4/4/1
f 5/5/2 6/6/2 7/7/2 8/8/2
f 9/9/3 10/10/3 11/11/3 12/12/3
f 9/13/4 13/14/4 14/15/4 10/16/4
f 11/17/5 15/18/5 16/19/5 12/20/5
f 17/21/3 18/22/3 19/23/3 20/24/3
f 21/25/6 22/26/6 23/27/6 24/28/6
f 17/29/4 25/30/4 26/31/4 18/32/4
f 19/33/5 27/34/5 28/35/5 20/36/5
f 29/37/6 30/38/6 31/39/6 32/40/6
f 33/41/3 34/42/3 35/43/3 36/44/3
f 35/45/5 37/46/5 38/47/5 36/48/5
f 39/49/6 40/50/6 41/51/6 42/52/6
f 31/53/4 43/54/4 44/55/4 32/56/4
f 41/57/4 45/58/4 46/59/4 42/60/4
f 47/61/6 48/62/6 38/63/6 37/64/6
f 49/65/3 50/66/3 46/67/3 45/68/3
f 51/69/6 52/70/6 53/71/6 54/72/6
f 47/73/5 54/74/5 53/75/5 48/76/5
f 55/77/3 56/78/3 44/79/3 43/80/3
f 55/81/4 57/82/4 58/83/4 56/84/4
f 59/85/6 60/86/6 28/87/6 27/88/6
f 61/89/3 62/90/3 58/91/3 57/92/3
f 63/93/6 64/94/6 16/95/6 15/96/6
f 65/97/3 66/98/3 14/99/3 13/100/3
f 67/101/6 68/102/6 69/103/6 70/104/6
f 63/105/5 70/106/5 69/107/5 64/108/5
f 71/109/3 72/110/3 26/111/3 25/112/3
f 71/113/4 73/114/4 74/115/4 72/116/4
f 75/117/6 76/118/6 77/119/6 78/120/6
f 67/121/5 78/122/5 77/123/5 68/124/5
f 79/125/3 80/126/3 74/127/3 73/128/3
f 79/129/4 81/130/4 82/131/4 80/132/4
f 83/133/6 84/134/6 85/135/6 86/136/6
f 75/137/5 86/138/5 85/139/5 76/140/5
f 87/141/3 88/142/3 82/143/3 81/144/3
f 87/145/4 89/146/4 90/147/4 88/148/4
f 91/149/6 92/150/6 93/151/6 94/152/6
f 83/153/5 94/154/5 93/155/5 84/156/5
f 95/157/3 96/158/3 90/159/3 89/160/3
f 95/161/4 97/162/4 98/163/4 96/164/4
f 99/165/6 100/166/6 101/167/6 102/168/6
f 91/169/5 102/170/5 101/171/5 92/172/5
f 98/173/6 97/174/6 103/175/6 104/176/6
f 99/177/5 104/178/5 103/179/5 100/180/5
