v 1.000000 1.000000 0.468750
v 1.000000 0.000000 0.468750
v 0.000000 0.000000 0.468750
v 0.000000 1.000000 0.468750
v 0.000000 1.000000 0.531250
v 0.000000 0.000000 0.531250
v 1.000000 0.000000 0.531250
v 1.000000 1.000000 0.531250
v 0.375000 0.875000 0.468750
v 0.375000 0.875000 0.531250
v 0.625000 0.875000 0.531250
v 0.625000 0.875000 0.468750
v 0.375000 0.125000 0.468750
v 0.375000 0.125000 0.531250
v 0.625000 0.125000 0.531250
v 0.625000 0.125000 0.468750
v 0.312500 0.812500 0.468750
v 0.312500 0.812500 0.531250
v 0.687500 0.812500 0.531250
v 0.687500 0.812500 0.468750
v 0.312500 0.187500 0.468750
v 0.312500 0.187500 0.531250
v 0.687500 0.187500 0.531250
v 0.687500 0.187500 0.468750
v 0.250000 0.750000 0.468750
v 0.250000 0.750000 0.531250
v 0.750000 0.750000 0.531250
v 0.750000 0.750000 0.468750
v 0.250000 0.250000 0.468750
v 0.250000 0.250000 0.531250
v 0.750000 0.250000 0.531250
v 0.750000 0.250000 0.468750
v 0.187500 0.687500 0.468750
v 0.187500 0.687500 0.531250
v 0.812500 0.687500 0.531250
v 0.812500 0.687500 0.468750
v 0.187500 0.312500 0.468750
v 0.187500 0.312500 0.531250
v 0.812500 0.312500 0.531250
v 0.812500 0.312500 0.468750
vn 0.000000 0.000000 -1.000000
vn 0.000000 0.000000 1.000000
vn 0.000000 1.000000 0.000000
vn -1.000000 0.000000 0.000000
vn 1.000000 0.000000 0.000000
vn 0.000000 -1.000000 0.000000
vt 0.296844 0.499969
vt 0.296844 0.484406
vt 0.281281 0.484406
vt 0.281281 0.499969
vt 0.281281 0.499969
vt 0.281281 0.484406
vt 0.296844 0.484406
vt 0.296844 0.499969
vt 0.287117 0.498045
vt 0.287117 0.497072
vt 0.291008 0.497072
vt 0.291008 0.498045
vt 0.288084 0.498024
vt 0.288084 0.486351
vt 0.287111 0.486351
vt 0.287111 0.498024
vt 0.291014 0.498024
vt 0.291014 0.486351
vt 0.290041 0.486351
vt 0.290041 0.498024
vt 0.286144 0.497068
vt 0.286144 0.496096
vt 0.291981 0.496096
vt 0.291981 0.497068
vt 0.287107 0.497051
vt 0.287107 0.487324
vt 0.286135 0.487324
vt 0.286135 0.497051
vt 0.291990 0.497051
vt 0.291990 0.487324
vt 0.291018 0.487324
vt 0.291018 0.497051
vt 0.285172 0.496092
vt 0.285172 0.495119
vt 0.292953 0.495119
vt 0.292953 0.496092
vt 0.286131 0.496078
vt 0.286131 0.488297
vt 0.285158 0.488297
vt 0.285158 0.496078
vt 0.292967 0.496078
vt 0.292967 0.488297
vt 0.291994 0.488297
vt 0.291994 0.496078
vt 0.284199 0.495115
vt 0.284199 0.494143
vt 0.293926 0.494143
vt 0.293926 0.495115
vt 0.285154 0.495106
vt 0.285154 0.489269
vt 0.284182 0.489269
vt 0.284182 0.495106
vt 0.293943 0.495106
vt 0.293943 0.489269
vt 0.292971 0.489269
vt 0.292971 0.495106
vt 0.284199 0.490232
vt 0.284199 0.489260
vt 0.293926 0.489260
vt 0.293926 0.490232
vt 0.285172 0.489256
vt 0.285172 0.488283
vt 0.292953 0.488283
vt 0.292953 0.489256
vt 0.286144 0.488279
vt 0.286144 0.487307
vt 0.291981 0.487307
vt 0.291981 0.488279
vt 0.287117 0.487303
vt 0.287117 0.486330
vt 0.291008 0.486330
vt 0.291008 0.487303
f 1/1/1 2/2/1 3/3/1 4/4/1
f 5/5/2 6/6/2 7/7/2 8/8/2
f 9/9/3 10/10/3 11/11/3 12/12/3
f 9/13/4 13/14/4 14/15/4 10/16/4
f 11/17/5 15/18/5 16/19/5 12/20/5
f 17/21/3 18/22/3 19/23/3 20/24/3
f 17/25/4 21/26/4 22/27/4 18/28/4
f 19/29/5 23/30/5 24/31/5 20/32/5
f 25/33/3 26/34/3 27/35/3 28/36/3
f 25/37/4 29/38/4 30/39/4 26/40/4
f 27/41/5 31/42/5 32/43/5 28/44/5
f 33/45/3 34/46/3 35/47/3 36/48/3
f 33/49/4 37/50/4 38/51/4 34/52/4
f 35/53/5 39/54/5 40/55/5 36/56/5
f 38/57/6 37/58/6 40/59/6 39/60/6
f 30/61/6 29/62/6 32/63/6 31/64/6
f 22/65/6 21/66/6 24/67/6 23/68/6
f 14/69/6 13/70/6 16/71/6 15/72/6
