v 1.000000 1.000000 0.468750
v 1.000000 0.000000 0.468750
v 0.000000 0.000000 0.468750
v 0.000000 1.000000 0.468750
v 0.000000 1.000000 0.531250
v 0.000000 0.000000 0.531250
v 1.000000 0.000000 0.531250
v 1.000000 1.000000 0.531250
v 0.437500 0.750000 0.468750
v 0.437500 0.750000 0.531250
v 0.687500 0.750000 0.531250
v 0.687500 0.750000 0.468750
v 0.437500 0.687500 0.468750
v 0.437500 0.687500 0.531250
v 0.687500 0.125000 0.531250
v 0.687500 0.125000 0.468750
v 0.375000 0.687500 0.468750
v 0.375000 0.687500 0.531250
v 0.812500 0.687500 0.531250
v 0.812500 0.687500 0.468750
v 0.375000 0.625000 0.468750
v 0.375000 0.625000 0.531250
v 0.812500 0.312500 0.531250
v 0.812500 0.312500 0.468750
v 0.312500 0.625000 0.468750
v 0.312500 0.625000 0.531250
v 0.875000 0.625000 0.531250
v 0.875000 0.625000 0.468750
v 0.312500 0.437500 0.468750
v 0.312500 0.437500 0.531250
v 0.875000 0.375000 0.531250
v 0.875000 0.375000 0.468750
v 0.250000 0.437500 0.468750
v 0.250000 0.437500 0.531250
v 0.250000 0.250000 0.468750
v 0.250000 0.250000 0.531250
v 0.812500 0.375000 0.531250
v 0.812500 0.375000 0.468750
v 0.187500 0.375000 0.468750
v 0.187500 0.375000 0.531250
v 0.250000 0.375000 0.531250
v 0.250000 0.375000 0.468750
v 0.187500 0.312500 0.531250
v 0.187500 0.312500 0.468750
v 0.500000 0.250000 0.468750
v 0.500000 0.250000 0.531250
v 0.750000 0.312500 0.531250
v 0.750000 0.187500 0.531250
v 0.750000 0.187500 0.468750
v 0.750000 0.312500 0.468750
v 0.500000 0.125000 0.468750
v 0.500000 0.125000 0.531250
v 0.687500 0.187500 0.531250
v 0.687500 0.187500 0.468750
v 0.562500 0.062500 0.531250
v 0.562500 0.062500 0.468750
v 0.625000 0.062500 0.468750
v 0.625000 0.062500 0.531250
v 0.562500 0.125000 0.468750
v 0.562500 0.125000 0.531250
v 0.625000 0.125000 0.531250
v 0.625000 0.125000 0.468750
vn 0.000000 0.000000 -1.000000
vn 0.000000 0.000000 1.000000
vn 0.000000 1.000000 0.000000
vn -1.000000 0.000000 0.000000
vn 1.000000 0.000000 0.000000
vn 0.000000 -1.000000 0.000000
vt 0.484344 0.499969
vt 0.484344 0.484406
vt 0.468781 0.484406
vt 0.468781 0.499969
vt 0.468781 0.499969
vt 0.468781 0.484406
vt 0.484344 0.484406
vt 0.484344 0.499969
vt 0.475594 0.496092
vt 0.475594 0.495119
vt 0.479485 0.495119
vt 0.479485 0.496092
vt 0.476561 0.496092
vt 0.476561 0.495119
vt 0.475588 0.495119
vt 0.475588 0.496092
vt 0.479490 0.496075
vt 0.479490 0.486347
vt 0.478518 0.486347
vt 0.478518 0.496075
vt 0.474623 0.495115
vt 0.474623 0.494143
vt 0.481432 0.494143
vt 0.481432 0.495115
vt 0.475584 0.495115
vt 0.475584 0.494143
vt 0.474611 0.494143
vt 0.474611 0.495115
vt 0.481443 0.495106
vt 0.481443 0.489269
vt 0.480471 0.489269
vt 0.480471 0.495106
vt 0.473650 0.494139
vt 0.473650 0.493166
vt 0.482405 0.493166
vt 0.482405 0.494139
vt 0.474607 0.494135
vt 0.474607 0.491217
vt 0.473635 0.491217
vt 0.473635 0.494135
vt 0.482420 0.494133
vt 0.482420 0.490242
vt 0.481447 0.490242
vt 0.481447 0.494133
vt 0.472658 0.491209
vt 0.472658 0.490236
vt 0.473631 0.490236
vt 0.473631 0.491209
vt 0.473631 0.491205
vt 0.473631 0.488287
vt 0.472658 0.488287
vt 0.472658 0.491205
vt 0.481447 0.491209
vt 0.481447 0.490236
vt 0.482420 0.490236
vt 0.482420 0.491209
vt 0.471682 0.490232
vt 0.471682 0.489260
vt 0.472654 0.489260
vt 0.472654 0.490232
vt 0.471699 0.490232
vt 0.471699 0.489260
vt 0.481426 0.489260
vt 0.481426 0.490232
vt 0.472654 0.490232
vt 0.472654 0.489260
vt 0.471682 0.489260
vt 0.471682 0.490232
vt 0.472664 0.489256
vt 0.472664 0.488283
vt 0.476555 0.488283
vt 0.476555 0.489256
vt 0.480467 0.489254
vt 0.480467 0.487309
vt 0.479494 0.487309
vt 0.479494 0.489254
vt 0.477537 0.488277
vt 0.477537 0.486332
vt 0.476564 0.486332
vt 0.476564 0.488277
vt 0.479494 0.488279
vt 0.479494 0.487307
vt 0.480467 0.487307
vt 0.480467 0.488279
vt 0.476568 0.487303
vt 0.476568 0.486330
vt 0.479486 0.486330
vt 0.479486 0.487303
vt 0.477541 0.486326
vt 0.477541 0.485353
vt 0.478514 0.485353
vt 0.478514 0.486326
vt 0.478514 0.486326
vt 0.478514 0.485353
vt 0.477541 0.485353
vt 0.477541 0.486326
vt 0.478514 0.486326
vt 0.478514 0.485353
vt 0.477541 0.485353
vt 0.477541 0.486326
f 1/1/1 2/2/1 3/3/1 4/4/1
f 5/5/2 6/6/2 7/7/2 8/8/2
f 9/9/3 10/10/3 11/11/3 12/12/3
f 9/13/4 13/14/4 14/15/4 10/16/4
f 11/17/5 15/18/5 16/19/5 12/20/5
f 17/21/3 18/22/3 19/23/3 20/24/3
f 17/25/4 21/26/4 22/27/4 18/28/4
f 19/29/5 23/30/5 24/31/5 20/32/5
f 25/33/3 26/34/3 27/35/3 28/36/3
f 25/37/4 29/38/4 30/39/4 26/40/4
f 27/41/5 31/42/5 32/43/5 28/44/5
f 33/45/3 34/46/3 30/47/3 29/48/3
f 33/49/4 35/50/4 36/51/4 34/52/4
f 37/53/6 38/54/6 32/55/6 31/56/6
f 39/57/3 40/58/3 41/59/3 42/60/3
f 43/61/6 44/62/6 24/63/6 23/64/6
f 39/65/4 44/66/4 43/67/4 40/68/4
f 36/69/6 35/70/6 45/71/6 46/72/6
f 47/73/5 48/74/5 49/75/5 50/76/5
f 45/77/4 51/78/4 52/79/4 46/80/4
f 53/81/6 54/82/6 49/83/6 48/84/6
f 52/85/6 51/86/6 16/87/6 15/88/6
f 55/89/6 56/90/6 57/91/6 58/92/6
f 59/93/4 56/94/4 55/95/4 60/96/4
f 61/97/5 58/98/5 57/99/5 62/100/5
