v 1.000000 1.000000 0.468750
v 1.000000 0.000000 0.468750
v 0.000000 0.000000 0.468750
v 0.000000 1.000000 0.468750
v 0.000000 1.000000 0.531250
v 0.000000 0.000000 0.531250
v 1.000000 0.000000 0.531250
v 1.000000 1.000000 0.531250
v 0.625000 1.000000 0.468750
v 0.625000 1.000000 0.531250
v 0.687500 1.000000 0.531250
v 0.687500 1.000000 0.468750
v 0.625000 0.062500 0.468750
v 0.625000 0.062500 0.531250
v 0.687500 0.187500 0.531250
v 0.687500 0.187500 0.468750
v 0.500000 0.937500 0.468750
v 0.500000 0.937500 0.531250
v 0.812500 0.937500 0.531250
v 0.812500 0.937500 0.468750
v 0.500000 0.312500 0.468750
v 0.500000 0.312500 0.531250
v 0.562500 0.937500 0.531250
v 0.562500 0.000000 0.531250
v 0.562500 0.000000 0.468750
v 0.562500 0.937500 0.468750
v 0.750000 0.937500 0.468750
v 0.750000 0.187500 0.468750
v 0.750000 0.187500 0.531250
v 0.750000 0.937500 0.531250
v 0.812500 0.125000 0.531250
v 0.812500 0.125000 0.468750
v 0.125000 0.875000 0.468750
v 0.125000 0.875000 0.531250
v 0.625000 0.875000 0.531250
v 0.625000 0.875000 0.468750
v 0.125000 0.187500 0.468750
v 0.125000 0.187500 0.531250
v 0.187500 0.875000 0.531250
v 0.187500 0.437500 0.531250
v 0.187500 0.437500 0.468750
v 0.187500 0.875000 0.468750
v 0.500000 0.812500 0.531250
v 0.500000 0.812500 0.468750
v 0.562500 0.812500 0.468750
v 0.562500 0.812500 0.531250
v 0.250000 0.812500 0.468750
v 0.250000 0.812500 0.531250
v 0.750000 0.812500 0.531250
v 0.750000 0.812500 0.468750
v 0.250000 0.125000 0.468750
v 0.250000 0.125000 0.531250
v 0.312500 0.812500 0.531250
v 0.312500 0.312500 0.531250
v 0.312500 0.312500 0.468750
v 0.312500 0.812500 0.468750
v 0.375000 0.812500 0.468750
v 0.375000 0.687500 0.468750
v 0.375000 0.687500 0.531250
v 0.375000 0.812500 0.531250
v 0.437500 0.812500 0.531250
v 0.437500 0.687500 0.531250
v 0.437500 0.687500 0.468750
v 0.437500 0.812500 0.468750
v 0.562500 0.750000 0.531250
v 0.562500 0.750000 0.468750
v 0.812500 0.750000 0.468750
v 0.812500 0.750000 0.531250
v 0.187500 0.750000 0.468750
v 0.187500 0.750000 0.531250
v 0.500000 0.687500 0.531250
v 0.500000 0.687500 0.468750
v 0.562500 0.687500 0.468750
v 0.562500 0.687500 0.531250
v 0.687500 0.750000 0.468750
v 0.687500 0.312500 0.468750
v 0.687500 0.312500 0.531250
v 0.687500 0.750000 0.531250
v 0.750000 0.750000 0.531250
v 0.750000 0.062500 0.531250
v 0.750000 0.062500 0.468750
v 0.750000 0.750000 0.468750
v 0.125000 0.625000 0.531250
v 0.125000 0.625000 0.468750
v 0.750000 0.625000 0.468750
v 0.750000 0.625000 0.531250
v 0.312500 0.687500 0.468750
v 0.312500 0.687500 0.531250
v 0.875000 0.687500 0.531250
v 0.875000 0.687500 0.468750
v 0.500000 0.625000 0.531250
v 0.500000 0.625000 0.468750
v 0.812500 0.687500 0.468750
v 0.812500 0.250000 0.468750
v 0.812500 0.250000 0.531250
v 0.812500 0.687500 0.531250
v 0.875000 0.375000 0.531250
v 0.875000 0.375000 0.468750
v 0.187500 0.562500 0.531250
v 0.187500 0.562500 0.468750
v 0.875000 0.562500 0.468750
v 0.875000 0.562500 0.531250
v 0.187500 0.625000 0.468750
v 0.187500 0.625000 0.531250
v 0.375000 0.625000 0.531250
v 0.375000 0.562500 0.531250
v 0.375000 0.562500 0.468750
v 0.375000 0.625000 0.468750
v 0.812500 0.625000 0.531250
v 0.812500 0.625000 0.468750
v 0.000000 0.562500 0.468750
v 0.000000 0.562500 0.531250
v 0.500000 0.562500 0.531250
v 0.500000 0.562500 0.468750
v 0.000000 0.312500 0.468750
v 0.000000 0.312500 0.531250
v 0.062500 0.562500 0.531250
v 0.062500 0.375000 0.531250
v 0.062500 0.375000 0.468750
v 0.062500 0.562500 0.468750
v 0.312500 0.500000 0.531250
v 0.312500 0.500000 0.468750
v 0.625000 0.500000 0.468750
v 0.625000 0.500000 0.531250
v 0.312500 0.562500 0.468750
v 0.312500 0.562500 0.531250
v 0.625000 0.562500 0.531250
v 0.625000 0.250000 0.531250
v 0.625000 0.250000 0.468750
v 0.625000 0.562500 0.468750
v 0.125000 0.500000 0.468750
v 0.125000 0.500000 0.531250
v 0.875000 0.500000 0.531250
v 0.875000 0.500000 0.468750
v 0.437500 0.500000 0.468750
v 0.437500 0.000000 0.468750
v 0.437500 0.000000 0.531250
v 0.437500 0.500000 0.531250
v 1.000000 0.437500 0.531250
v 1.000000 0.437500 0.468750
v 0.437500 0.375000 0.531250
v 0.437500 0.375000 0.468750
v 0.500000 0.375000 0.468750
v 0.500000 0.375000 0.531250
v 0.937500 0.437500 0.468750
v 0.937500 0.375000 0.468750
v 0.937500 0.375000 0.531250
v 0.937500 0.437500 0.531250
v 1.000000 0.250000 0.531250
v 1.000000 0.250000 0.468750
v 0.812500 0.312500 0.468750
v 0.812500 0.312500 0.531250
v 0.062500 0.250000 0.531250
v 0.062500 0.250000 0.468750
v 0.062500 0.312500 0.468750
v 0.062500 0.312500 0.531250
v 0.250000 0.312500 0.531250
v 0.250000 0.250000 0.531250
v 0.250000 0.250000 0.468750
v 0.250000 0.312500 0.468750
v 0.437500 0.312500 0.468750
v 0.437500 0.312500 0.531250
v 0.937500 0.187500 0.468750
v 0.937500 0.187500 0.531250
v 0.937500 0.250000 0.531250
v 0.937500 0.250000 0.468750
vn 0.000000 0.000000 -1.000000
vn 0.000000 0.000000 1.000000
vn 0.000000 1.000000 0.000000
vn -1.000000 0.000000 0.000000
vn 1.000000 0.000000 0.000000
vn 0.000000 -1.000000 0.000000
vt 0.374969 0.968719
vt 0.374969 0.953156
vt 0.359406 0.953156
vt 0.359406 0.968719
vt 0.359406 0.968719
vt 0.359406 0.953156
vt 0.374969 0.953156
vt 0.374969 0.968719
vt 0.369143 0.968748
vt 0.369143 0.967775
vt 0.370115 0.967775
vt 0.370115 0.968748
vt 0.370115 0.968721
vt 0.370115 0.954130
vt 0.369143 0.954130
vt 0.369143 0.968721
vt 0.370115 0.968725
vt 0.370115 0.956079
vt 0.369143 0.956079
vt 0.369143 0.968725
vt 0.367197 0.967772
vt 0.367197 0.966799
vt 0.372061 0.966799
vt 0.372061 0.967772
vt 0.368162 0.967754
vt 0.368162 0.958027
vt 0.367189 0.958027
vt 0.367189 0.967754
vt 0.368162 0.967745
vt 0.368162 0.953154
vt 0.367189 0.953154
vt 0.367189 0.967745
vt 0.372068 0.967751
vt 0.372068 0.956078
vt 0.371096 0.956078
vt 0.371096 0.967751
vt 0.372068 0.967749
vt 0.372068 0.955103
vt 0.371096 0.955103
vt 0.371096 0.967749
vt 0.361343 0.966795
vt 0.361343 0.965822
vt 0.369125 0.965822
vt 0.369125 0.966795
vt 0.362303 0.966776
vt 0.362303 0.956076
vt 0.361330 0.956076
vt 0.361330 0.966776
vt 0.362303 0.966784
vt 0.362303 0.959974
vt 0.361330 0.959974
vt 0.361330 0.966784
vt 0.367189 0.966795
vt 0.367189 0.965822
vt 0.368162 0.965822
vt 0.368162 0.966795
vt 0.363297 0.965818
vt 0.363297 0.964846
vt 0.371078 0.964846
vt 0.371078 0.965818
vt 0.364256 0.965799
vt 0.364256 0.955099
vt 0.363283 0.955099
vt 0.363283 0.965799
vt 0.364256 0.965805
vt 0.364256 0.958023
vt 0.363283 0.958023
vt 0.363283 0.965805
vt 0.366209 0.965816
vt 0.366209 0.963871
vt 0.365236 0.963871
vt 0.365236 0.965816
vt 0.366209 0.965816
vt 0.366209 0.963871
vt 0.365236 0.963871
vt 0.365236 0.965816
vt 0.368172 0.965818
vt 0.368172 0.964846
vt 0.372063 0.964846
vt 0.372063 0.965818
vt 0.369139 0.965818
vt 0.369139 0.964846
vt 0.368166 0.964846
vt 0.368166 0.965818
vt 0.362316 0.964842
vt 0.362316 0.963869
vt 0.368153 0.963869
vt 0.368153 0.964842
vt 0.367189 0.964842
vt 0.367189 0.963869
vt 0.368162 0.963869
vt 0.368162 0.964842
vt 0.371092 0.964830
vt 0.371092 0.958021
vt 0.370119 0.958021
vt 0.370119 0.964830
vt 0.371092 0.964823
vt 0.371092 0.954123
vt 0.370119 0.954123
vt 0.370119 0.964823
vt 0.361347 0.963865
vt 0.361347 0.962893
vt 0.371075 0.962893
vt 0.371075 0.963865
vt 0.364275 0.963865
vt 0.364275 0.962893
vt 0.373030 0.962893
vt 0.373030 0.963865
vt 0.367186 0.963865
vt 0.367186 0.962893
vt 0.366213 0.962893
vt 0.366213 0.963865
vt 0.373045 0.963854
vt 0.373045 0.957045
vt 0.372072 0.957045
vt 0.372072 0.963854
vt 0.373045 0.963858
vt 0.373045 0.958994
vt 0.372072 0.958994
vt 0.372072 0.963858
vt 0.362326 0.962889
vt 0.362326 0.961916
vt 0.373026 0.961916
vt 0.373026 0.962889
vt 0.363279 0.962889
vt 0.363279 0.961916
vt 0.362307 0.961916
vt 0.362307 0.962889
vt 0.365232 0.962889
vt 0.365232 0.961916
vt 0.364260 0.961916
vt 0.364260 0.962889
vt 0.367197 0.962889
vt 0.367197 0.961916
vt 0.372061 0.961916
vt 0.372061 0.962889
vt 0.359390 0.961912
vt 0.359390 0.960939
vt 0.367172 0.960939
vt 0.367172 0.961912
vt 0.360350 0.961906
vt 0.360350 0.958015
vt 0.359377 0.958015
vt 0.359377 0.961906
vt 0.360350 0.961908
vt 0.360350 0.958990
vt 0.359377 0.958990
vt 0.359377 0.961908
vt 0.364267 0.961912
vt 0.364267 0.960939
vt 0.369131 0.960939
vt 0.369131 0.961912
vt 0.365232 0.961912
vt 0.365232 0.960939
vt 0.364260 0.960939
vt 0.364260 0.961912
vt 0.369139 0.961905
vt 0.369139 0.957041
vt 0.368166 0.957041
vt 0.368166 0.961905
vt 0.361351 0.960936
vt 0.361351 0.959963
vt 0.373024 0.959963
vt 0.373024 0.960936
vt 0.367186 0.960922
vt 0.367186 0.953140
vt 0.366213 0.953140
vt 0.366213 0.960922
vt 0.362329 0.959959
vt 0.362329 0.958986
vt 0.374975 0.958986
vt 0.374975 0.959959
vt 0.366213 0.959959
vt 0.366213 0.958986
vt 0.367186 0.958986
vt 0.367186 0.959959
vt 0.374998 0.959959
vt 0.374998 0.958986
vt 0.374025 0.958986
vt 0.374025 0.959959
vt 0.374998 0.959955
vt 0.374998 0.957037
vt 0.374025 0.957037
vt 0.374025 0.959955
vt 0.359400 0.958982
vt 0.359400 0.958010
vt 0.372046 0.958010
vt 0.372046 0.958982
vt 0.360378 0.958982
vt 0.360378 0.958010
vt 0.373997 0.958010
vt 0.373997 0.958982
vt 0.360380 0.958006
vt 0.360380 0.957033
vt 0.374971 0.957033
vt 0.374971 0.958006
vt 0.361326 0.958006
vt 0.361326 0.957033
vt 0.360353 0.957033
vt 0.360353 0.958006
vt 0.363279 0.958006
vt 0.363279 0.957033
vt 0.362307 0.957033
vt 0.362307 0.958006
vt 0.366213 0.958006
vt 0.366213 0.957033
vt 0.367186 0.957033
vt 0.367186 0.958006
vt 0.361353 0.957029
vt 0.361353 0.956057
vt 0.373999 0.956057
vt 0.373999 0.957029
vt 0.363298 0.957029
vt 0.363298 0.956057
vt 0.372053 0.956057
vt 0.372053 0.957029
vt 0.374022 0.957029
vt 0.374022 0.956057
vt 0.373049 0.956057
vt 0.373049 0.957029
vt 0.363298 0.956053
vt 0.363298 0.955080
vt 0.372053 0.955080
vt 0.372053 0.956053
vt 0.370119 0.956053
vt 0.370119 0.955080
vt 0.371092 0.955080
vt 0.371092 0.956053
vt 0.369144 0.955076
vt 0.369144 0.954103
vt 0.371090 0.954103
vt 0.371090 0.955076
vt 0.366215 0.954100
vt 0.366215 0.953127
vt 0.368160 0.953127
vt 0.368160 0.954100
f 1/1/1 2/2/1 3/3/1 4/4/1
f 5/5/2 6/6/2 7/7/2 8/8/2
f 9/9/3 10/10/3 11/11/3 12/12/3
f 9/13/4 13/14/4 14/15/4 10/16/4
f 11/17/5 15/18/5 16/19/5 12/20/5
f 17/21/3 18/22/3 19/23/3 20/24/3
f 17/25/4 21/26/4 22/27/4 18/28/4
f 23/29/5 24/30/5 25/31/5 26/32/5
f 27/33/4 28/34/4 29/35/4 30/36/4
f 19/37/5 31/38/5 32/39/5 20/40/5
f 33/41/3 34/42/3 35/43/3 36/44/3
f 33/45/4 37/46/4 38/47/4 34/48/4
f 39/49/5 40/50/5 41/51/5 42/52/5
f 43/53/6 44/54/6 45/55/6 46/56/6
f 47/57/3 48/58/3 49/59/3 50/60/3
f 47/61/4 51/62/4 52/63/4 48/64/4
f 53/65/5 54/66/5 55/67/5 56/68/5
f 57/69/4 58/70/4 59/71/4 60/72/4
f 61/73/5 62/74/5 63/75/5 64/76/5
f 65/77/6 66/78/6 67/79/6 68/80/6
f 45/81/4 66/82/4 65/83/4 46/84/4
f 69/85/3 70/86/3 65/87/3 66/88/3
f 71/89/6 72/90/6 73/91/6 74/92/6
f 75/93/4 76/94/4 77/95/4 78/96/4
f 79/97/5 80/98/5 81/99/5 82/100/5
f 83/101/6 84/102/6 85/103/6 86/104/6
f 87/105/3 88/106/3 89/107/3 90/108/3
f 71/109/5 91/110/5 92/111/5 72/112/5
f 93/113/4 94/114/4 95/115/4 96/116/4
f 89/117/5 97/118/5 98/119/5 90/120/5
f 99/121/6 100/122/6 101/123/6 102/124/6
f 103/125/4 100/126/4 99/127/4 104/128/4
f 105/129/5 106/130/5 107/131/5 108/132/5
f 92/133/3 91/134/3 109/135/3 110/136/3
f 111/137/3 112/138/3 113/139/3 114/140/3
f 111/141/4 115/142/4 116/143/4 112/144/4
f 117/145/5 118/146/5 119/147/5 120/148/5
f 121/149/6 122/150/6 123/151/6 124/152/6
f 125/153/4 122/154/4 121/155/4 126/156/4
f 127/157/5 128/158/5 129/159/5 130/160/5
f 131/161/3 132/162/3 133/163/3 134/164/3
f 135/165/4 136/166/4 137/167/4 138/168/4
f 41/169/3 40/170/3 139/171/3 140/172/3
f 141/173/6 142/174/6 143/175/6 144/176/6
f 145/177/4 146/178/4 147/179/4 148/180/4
f 139/181/5 149/182/5 150/183/5 140/184/5
f 116/185/6 115/186/6 151/187/6 152/188/6
f 119/189/3 118/190/3 147/191/3 146/192/3
f 153/193/6 154/194/6 150/195/6 149/196/6
f 155/197/4 154/198/4 153/199/4 156/200/4
f 157/201/5 158/202/5 159/203/5 160/204/5
f 161/205/3 162/206/3 22/207/3 21/208/3
f 38/209/6 37/210/6 163/211/6 164/212/6
f 159/213/3 158/214/3 95/215/3 94/216/3
f 165/217/5 164/218/5 163/219/5 166/220/5
f 52/221/6 51/222/6 32/223/6 31/224/6
f 16/225/3 15/226/3 29/227/3 28/228/3
f 14/229/6 13/230/6 81/231/6 80/232/6
f 137/233/6 136/234/6 25/235/6 24/236/6
