v 1.000000 1.000000 0.468750
v 1.000000 0.000000 0.468750
v 0.000000 0.000000 0.468750
v 0.000000 1.000000 0.468750
v 0.000000 1.000000 0.531250
v 0.000000 0.000000 0.531250
v 1.000000 0.000000 0.531250
v 1.000000 1.000000 0.531250
v 0.375000 0.875000 0.468750
v 0.375000 0.875000 0.531250
v 0.625000 0.875000 0.531250
v 0.625000 0.875000 0.468750
v 0.375000 0.125000 0.468750
v 0.375000 0.125000 0.531250
v 0.625000 0.125000 0.531250
v 0.625000 0.125000 0.468750
v 0.250000 0.812500 0.468750
v 0.250000 0.812500 0.531250
v 0.750000 0.812500 0.531250
v 0.750000 0.812500 0.468750
v 0.250000 0.187500 0.468750
v 0.250000 0.187500 0.531250
v 0.750000 0.187500 0.531250
v 0.750000 0.187500 0.468750
v 0.187500 0.750000 0.468750
v 0.187500 0.750000 0.531250
v 0.812500 0.750000 0.531250
v 0.812500 0.750000 0.468750
v 0.187500 0.250000 0.468750
v 0.187500 0.250000 0.531250
v 0.812500 0.250000 0.531250
v 0.812500 0.250000 0.468750
v 0.125000 0.625000 0.468750
v 0.125000 0.625000 0.531250
v 0.875000 0.625000 0.531250
v 0.875000 0.625000 0.468750
v 0.125000 0.375000 0.468750
v 0.125000 0.375000 0.531250
v 0.875000 0.375000 0.531250
v 0.875000 0.375000 0.468750
vn 0.000000 0.000000 -1.000000
vn 0.000000 0.000000 1.000000
vn 0.000000 1.000000 0.000000
vn -1.000000 0.000000 0.000000
vn 1.000000 0.000000 0.000000
vn 0.000000 -1.000000 0.000000
vt 0.531219 0.999969
vt 0.531219 0.984406
vt 0.515656 0.984406
vt 0.515656 0.999969
vt 0.515656 0.999969
vt 0.515656 0.984406
vt 0.531219 0.984406
vt 0.531219 0.999969
vt 0.521492 0.998045
vt 0.521492 0.997072
vt 0.525383 0.997072
vt 0.525383 0.998045
vt 0.522459 0.998024
vt 0.522459 0.986351
vt 0.521486 0.986351
vt 0.521486 0.998024
vt 0.525389 0.998024
vt 0.525389 0.986351
vt 0.524416 0.986351
vt 0.524416 0.998024
vt 0.519547 0.997068
vt 0.519547 0.996096
vt 0.527328 0.996096
vt 0.527328 0.997068
vt 0.520506 0.997051
vt 0.520506 0.987324
vt 0.519533 0.987324
vt 0.519533 0.997051
vt 0.527342 0.997051
vt 0.527342 0.987324
vt 0.526369 0.987324
vt 0.526369 0.997051
vt 0.518574 0.996092
vt 0.518574 0.995119
vt 0.528301 0.995119
vt 0.528301 0.996092
vt 0.519529 0.996078
vt 0.519529 0.988297
vt 0.518557 0.988297
vt 0.518557 0.996078
vt 0.528318 0.996078
vt 0.528318 0.988297
vt 0.527346 0.988297
vt 0.527346 0.996078
vt 0.517601 0.994139
vt 0.517601 0.993166
vt 0.529274 0.993166
vt 0.529274 0.994139
vt 0.518553 0.994133
vt 0.518553 0.990242
vt 0.517580 0.990242
vt 0.517580 0.994133
vt 0.529295 0.994133
vt 0.529295 0.990242
vt 0.528322 0.990242
vt 0.528322 0.994133
vt 0.517601 0.991209
vt 0.517601 0.990236
vt 0.529274 0.990236
vt 0.529274 0.991209
vt 0.518574 0.989256
vt 0.518574 0.988283
vt 0.528301 0.988283
vt 0.528301 0.989256
vt 0.519547 0.988279
vt 0.519547 0.987307
vt 0.527328 0.987307
vt 0.527328 0.988279
vt 0.521492 0.987303
vt 0.521492 0.986330
vt 0.525383 0.986330
vt 0.525383 0.987303
f 1/1/1 2/2/1 3/3/1 4/4/1
f 5/5/2 6/6/2 7/7/2 8/8/2
f 9/9/3 10/10/3 11/11/3 12/12/3
f 9/13/4 13/14/4 14/15/4 10/16/4
f 11/17/5 15/18/5 16/19/5 12/20/5
f 17/21/3 18/22/3 19/23/3 20/24/3
f 17/25/4 21/26/4 22/27/4 18/28/4
f 19/29/5 23/30/5 24/31/5 20/32/5
f 25/33/3 26/34/3 27/35/3 28/36/3
f 25/37/4 29/38/4 30/39/4 26/40/4
f 27/41/5 31/42/5 32/43/5 28/44/5
f 33/45/3 34/46/3 35/47/3 36/48/3
f 33/49/4 37/50/4 38/51/4 34/52/4
f 35/53/5 39/54/5 40/55/5 36/56/5
f 38/57/6 37/58/6 40/59/6 39/60/6
f 30/61/6 29/62/6 32/63/6 31/64/6
f 22/65/6 21/66/6 24/67/6 23/68/6
f 14/69/6 13/70/6 16/71/6 15/72/6
