v 1.000000 1.000000 0.468750
v 1.000000 0.000000 0.468750
v 0.000000 0.000000 0.468750
v 0.000000 1.000000 0.468750
v 0.000000 1.000000 0.531250
v 0.000000 0.000000 0.531250
v 1.000000 0.000000 0.531250
v 1.000000 1.000000 0.531250
v 0.437500 0.875000 0.468750
v 0.437500 0.875000 0.531250
v 0.562500 0.875000 0.531250
v 0.562500 0.875000 0.468750
v 0.437500 0.812500 0.531250
v 0.437500 0.812500 0.468750
v 0.562500 0.812500 0.468750
v 0.562500 0.812500 0.531250
v 0.437500 0.125000 0.468750
v 0.437500 0.125000 0.531250
v 0.562500 0.125000 0.531250
v 0.562500 0.125000 0.468750
v 0.312500 0.812500 0.468750
v 0.312500 0.812500 0.531250
v 0.687500 0.812500 0.531250
v 0.687500 0.812500 0.468750
v 0.312500 0.187500 0.468750
v 0.312500 0.187500 0.531250
v 0.437500 0.750000 0.531250
v 0.437500 0.750000 0.468750
v 0.562500 0.750000 0.531250
v 0.562500 0.750000 0.468750
v 0.687500 0.750000 0.468750
v 0.687500 0.750000 0.531250
v 0.687500 0.187500 0.531250
v 0.687500 0.187500 0.468750
v 0.250000 0.750000 0.468750
v 0.250000 0.750000 0.531250
v 0.750000 0.750000 0.531250
v 0.750000 0.750000 0.468750
v 0.250000 0.250000 0.468750
v 0.250000 0.250000 0.531250
v 0.312500 0.687500 0.531250
v 0.312500 0.687500 0.468750
v 0.437500 0.687500 0.468750
v 0.437500 0.687500 0.531250
v 0.687500 0.250000 0.468750
v 0.687500 0.250000 0.531250
v 0.750000 0.250000 0.531250
v 0.750000 0.250000 0.468750
v 0.187500 0.687500 0.468750
v 0.187500 0.687500 0.531250
v 0.812500 0.687500 0.531250
v 0.812500 0.687500 0.468750
v 0.187500 0.312500 0.468750
v 0.187500 0.312500 0.531250
v 0.312500 0.312500 0.531250
v 0.312500 0.312500 0.468750
v 0.625000 0.687500 0.531250
v 0.625000 0.312500 0.531250
v 0.625000 0.312500 0.468750
v 0.625000 0.687500 0.468750
v 0.812500 0.312500 0.531250
v 0.812500 0.312500 0.468750
v 0.187500 0.562500 0.531250
v 0.187500 0.562500 0.468750
v 0.625000 0.562500 0.468750
v 0.625000 0.562500 0.531250
v 0.375000 0.625000 0.468750
v 0.375000 0.625000 0.531250
v 0.687500 0.625000 0.531250
v 0.687500 0.625000 0.468750
v 0.375000 0.562500 0.468750
v 0.375000 0.562500 0.531250
v 0.125000 0.562500 0.468750
v 0.125000 0.562500 0.531250
v 0.875000 0.562500 0.531250
v 0.875000 0.562500 0.468750
v 0.125000 0.437500 0.468750
v 0.125000 0.437500 0.531250
v 0.187500 0.437500 0.531250
v 0.187500 0.437500 0.468750
v 0.375000 0.250000 0.531250
v 0.375000 0.250000 0.468750
v 0.500000 0.562500 0.468750
v 0.500000 0.437500 0.468750
v 0.500000 0.437500 0.531250
v 0.500000 0.562500 0.531250
v 0.625000 0.437500 0.468750
v 0.625000 0.437500 0.531250
v 0.750000 0.500000 0.531250
v 0.750000 0.500000 0.468750
v 0.812500 0.500000 0.468750
v 0.812500 0.500000 0.531250
v 0.875000 0.437500 0.531250
v 0.875000 0.437500 0.468750
v 0.812500 0.437500 0.468750
v 0.812500 0.437500 0.531250
v 0.312500 0.375000 0.531250
v 0.312500 0.375000 0.468750
v 0.687500 0.375000 0.468750
v 0.687500 0.375000 0.531250
v 0.750000 0.375000 0.468750
v 0.750000 0.375000 0.531250
v 0.812500 0.375000 0.531250
v 0.812500 0.375000 0.468750
v 0.375000 0.312500 0.531250
v 0.375000 0.312500 0.468750
v 0.562500 0.687500 0.531250
v 0.562500 0.687500 0.468750
v 0.562500 0.250000 0.468750
v 0.562500 0.250000 0.531250
v 0.437500 0.250000 0.531250
v 0.437500 0.250000 0.468750
v 0.312500 0.562500 0.531250
v 0.312500 0.562500 0.468750
v 0.250000 0.562500 0.531250
v 0.250000 0.437500 0.531250
v 0.250000 0.437500 0.468750
v 0.250000 0.562500 0.468750
v 0.562500 0.312500 0.468750
v 0.562500 0.312500 0.531250
vn 0.000000 0.000000 -1.000000
vn 0.000000 0.000000 1.000000
vn 0.000000 1.000000 0.000000
vn 0.000000 -1.000000 0.000000
vn -1.000000 0.000000 0.000000
vn 1.000000 0.000000 0.000000
vt 0.531219 0.968719
vt 0.531219 0.953156
vt 0.515656 0.953156
vt 0.515656 0.968719
vt 0.515656 0.968719
vt 0.515656 0.953156
vt 0.531219 0.953156
vt 0.531219 0.968719
vt 0.522465 0.966795
vt 0.522465 0.965822
vt 0.524410 0.965822
vt 0.524410 0.966795
vt 0.522465 0.966795
vt 0.522465 0.965822
vt 0.524410 0.965822
vt 0.524410 0.966795
vt 0.523436 0.966774
vt 0.523436 0.955101
vt 0.522463 0.955101
vt 0.522463 0.966774
vt 0.524412 0.966774
vt 0.524412 0.955101
vt 0.523439 0.955101
vt 0.523439 0.966774
vt 0.520519 0.965818
vt 0.520519 0.964846
vt 0.526356 0.964846
vt 0.526356 0.965818
vt 0.521482 0.965801
vt 0.521482 0.956074
vt 0.520510 0.956074
vt 0.520510 0.965801
vt 0.522459 0.965818
vt 0.522459 0.964846
vt 0.521486 0.964846
vt 0.521486 0.965818
vt 0.524418 0.965818
vt 0.524418 0.964846
vt 0.526363 0.964846
vt 0.526363 0.965818
vt 0.525389 0.965818
vt 0.525389 0.964846
vt 0.524416 0.964846
vt 0.524416 0.965818
vt 0.526365 0.965801
vt 0.526365 0.956074
vt 0.525393 0.956074
vt 0.525393 0.965801
vt 0.519547 0.964842
vt 0.519547 0.963869
vt 0.527328 0.963869
vt 0.527328 0.964842
vt 0.520506 0.964828
vt 0.520506 0.957047
vt 0.519533 0.957047
vt 0.519533 0.964828
vt 0.520512 0.964842
vt 0.520512 0.963869
vt 0.522457 0.963869
vt 0.522457 0.964842
vt 0.527342 0.964828
vt 0.527342 0.957047
vt 0.526369 0.957047
vt 0.526369 0.964828
vt 0.527342 0.964828
vt 0.527342 0.957047
vt 0.526369 0.957047
vt 0.526369 0.964828
vt 0.518574 0.963865
vt 0.518574 0.962893
vt 0.528301 0.962893
vt 0.528301 0.963865
vt 0.519529 0.963856
vt 0.519529 0.958019
vt 0.518557 0.958019
vt 0.518557 0.963856
vt 0.520506 0.963856
vt 0.520506 0.958019
vt 0.519533 0.958019
vt 0.519533 0.963856
vt 0.525389 0.963856
vt 0.525389 0.958019
vt 0.524416 0.958019
vt 0.524416 0.963856
vt 0.528318 0.963856
vt 0.528318 0.958019
vt 0.527346 0.958019
vt 0.527346 0.963856
vt 0.518568 0.962889
vt 0.518568 0.961916
vt 0.525377 0.961916
vt 0.525377 0.962889
vt 0.521494 0.962889
vt 0.521494 0.961916
vt 0.526358 0.961916
vt 0.526358 0.962889
vt 0.522459 0.962889
vt 0.522459 0.961916
vt 0.521486 0.961916
vt 0.521486 0.962889
vt 0.517601 0.961912
vt 0.517601 0.960939
vt 0.529274 0.960939
vt 0.529274 0.961912
vt 0.518553 0.961910
vt 0.518553 0.959965
vt 0.517580 0.959965
vt 0.517580 0.961910
vt 0.518553 0.961910
vt 0.518553 0.959965
vt 0.517580 0.959965
vt 0.517580 0.961910
vt 0.521482 0.961905
vt 0.521482 0.957041
vt 0.520510 0.957041
vt 0.520510 0.961905
vt 0.524412 0.961910
vt 0.524412 0.959965
vt 0.523439 0.959965
vt 0.523439 0.961910
vt 0.526365 0.961910
vt 0.526365 0.959965
vt 0.525393 0.959965
vt 0.525393 0.961910
vt 0.527346 0.961912
vt 0.527346 0.960939
vt 0.528318 0.960939
vt 0.528318 0.961912
vt 0.529295 0.961910
vt 0.529295 0.959965
vt 0.528322 0.959965
vt 0.528322 0.961910
vt 0.517601 0.960936
vt 0.517601 0.959963
vt 0.529274 0.959963
vt 0.529274 0.960936
vt 0.529295 0.960936
vt 0.529295 0.959963
vt 0.528322 0.959963
vt 0.528322 0.960936
vt 0.518568 0.959959
vt 0.518568 0.958986
vt 0.525377 0.958986
vt 0.525377 0.959959
vt 0.520519 0.959959
vt 0.520519 0.958986
vt 0.526356 0.958986
vt 0.526356 0.959959
vt 0.518574 0.958982
vt 0.518574 0.958010
vt 0.528301 0.958010
vt 0.528301 0.958982
vt 0.527346 0.958982
vt 0.527346 0.958010
vt 0.528318 0.958010
vt 0.528318 0.958982
vt 0.519547 0.958006
vt 0.519547 0.957033
vt 0.527328 0.957033
vt 0.527328 0.958006
vt 0.520510 0.958006
vt 0.520510 0.957033
vt 0.521482 0.957033
vt 0.521482 0.958006
vt 0.520519 0.957029
vt 0.520519 0.956057
vt 0.526356 0.956057
vt 0.526356 0.957029
vt 0.521494 0.957029
vt 0.521494 0.956057
vt 0.526358 0.956057
vt 0.526358 0.957029
vt 0.522465 0.956053
vt 0.522465 0.955080
vt 0.524410 0.955080
vt 0.524410 0.956053
vt 0.531219 0.953094
vt 0.531219 0.937531
vt 0.515656 0.937531
vt 0.515656 0.953094
vt 0.515656 0.953094
vt 0.515656 0.937531
vt 0.531219 0.937531
vt 0.531219 0.953094
vt 0.522465 0.950193
vt 0.522465 0.949221
vt 0.524410 0.949221
vt 0.524410 0.950193
vt 0.522465 0.950193
vt 0.522465 0.949221
vt 0.524410 0.949221
vt 0.524410 0.950193
vt 0.523436 0.950193
vt 0.523436 0.949221
vt 0.522463 0.949221
vt 0.522463 0.950193
vt 0.524412 0.950193
vt 0.524412 0.949221
vt 0.523439 0.949221
vt 0.523439 0.950193
vt 0.524418 0.949217
vt 0.524418 0.948244
vt 0.526363 0.948244
vt 0.526363 0.949217
vt 0.524416 0.949217
vt 0.524416 0.948244
vt 0.525389 0.948244
vt 0.525389 0.949217
vt 0.525389 0.949203
vt 0.525389 0.941422
vt 0.524416 0.941422
vt 0.524416 0.949203
vt 0.526365 0.949203
vt 0.526365 0.941422
vt 0.525393 0.941422
vt 0.525393 0.949203
vt 0.520512 0.948240
vt 0.520512 0.947268
vt 0.522457 0.947268
vt 0.522457 0.948240
vt 0.521482 0.948231
vt 0.521482 0.942394
vt 0.520510 0.942394
vt 0.520510 0.948231
vt 0.521494 0.948240
vt 0.521494 0.947268
vt 0.526358 0.947268
vt 0.526358 0.948240
vt 0.522459 0.948229
vt 0.522459 0.941420
vt 0.521486 0.941420
vt 0.521486 0.948229
vt 0.526365 0.948231
vt 0.526365 0.942394
vt 0.525393 0.942394
vt 0.525393 0.948231
vt 0.520510 0.947264
vt 0.520510 0.946291
vt 0.521482 0.946291
vt 0.521482 0.947264
vt 0.521482 0.947264
vt 0.521482 0.946291
vt 0.520510 0.946291
vt 0.520510 0.947264
vt 0.518568 0.946287
vt 0.518568 0.945314
vt 0.525377 0.945314
vt 0.525377 0.946287
vt 0.519529 0.946285
vt 0.519529 0.944340
vt 0.518557 0.944340
vt 0.518557 0.946285
vt 0.519529 0.946285
vt 0.519529 0.944340
vt 0.518557 0.944340
vt 0.518557 0.946285
vt 0.522459 0.946280
vt 0.522459 0.941416
vt 0.521486 0.941416
vt 0.521486 0.946280
vt 0.523436 0.946285
vt 0.523436 0.944340
vt 0.522463 0.944340
vt 0.522463 0.946285
vt 0.525389 0.946285
vt 0.525389 0.944340
vt 0.524416 0.944340
vt 0.524416 0.946285
vt 0.518568 0.945311
vt 0.518568 0.944338
vt 0.525377 0.944338
vt 0.525377 0.945311
vt 0.527346 0.945311
vt 0.527346 0.944338
vt 0.528318 0.944338
vt 0.528318 0.945311
vt 0.528318 0.945309
vt 0.528318 0.943363
vt 0.527346 0.943363
vt 0.527346 0.945309
vt 0.528318 0.945309
vt 0.528318 0.943363
vt 0.527346 0.943363
vt 0.527346 0.945309
vt 0.527346 0.944334
vt 0.527346 0.943361
vt 0.528318 0.943361
vt 0.528318 0.944334
vt 0.520519 0.943357
vt 0.520519 0.942385
vt 0.526356 0.942385
vt 0.526356 0.943357
vt 0.520510 0.943357
vt 0.520510 0.942385
vt 0.521482 0.942385
vt 0.521482 0.943357
vt 0.521494 0.942381
vt 0.521494 0.941408
vt 0.526358 0.941408
vt 0.526358 0.942381
vt 0.524416 0.942381
vt 0.524416 0.941408
vt 0.525389 0.941408
vt 0.525389 0.942381
f 1/1/1 2/2/1 3/3/1 4/4/1
f 5/5/2 6/6/2 7/7/2 8/8/2
f 9/9/3 10/10/3 11/11/3 12/12/3
f 13/13/4 14/14/4 15/15/4 16/16/4
f 9/17/5 17/18/5 18/19/5 10/20/5
f 11/21/6 19/22/6 20/23/6 12/24/6
f 21/25/3 22/26/3 23/27/3 24/28/3
f 21/29/5 25/30/5 26/31/5 22/32/5
f 13/33/6 27/34/6 28/35/6 14/36/6
f 29/37/4 30/38/4 31/39/4 32/40/4
f 15/41/5 30/42/5 29/43/5 16/44/5
f 23/45/6 33/46/6 34/47/6 24/48/6
f 35/49/3 36/50/3 37/51/3 38/52/3
f 35/53/5 39/54/5 40/55/5 36/56/5
f 41/57/4 42/58/4 43/59/4 44/60/4
f 31/61/5 45/62/5 46/63/5 32/64/5
f 37/65/6 47/66/6 48/67/6 38/68/6
f 49/69/3 50/70/3 51/71/3 52/72/3
f 49/73/5 53/74/5 54/75/5 50/76/5
f 41/77/6 55/78/6 56/79/6 42/80/6
f 57/81/6 58/82/6 59/83/6 60/84/6
f 51/85/6 61/86/6 62/87/6 52/88/6
f 63/89/4 64/90/4 65/91/4 66/92/4
f 67/93/3 68/94/3 69/95/3 70/96/3
f 67/97/5 71/98/5 72/99/5 68/100/5
f 73/101/3 74/102/3 75/103/3 76/104/3
f 73/105/5 77/106/5 78/107/5 74/108/5
f 63/109/6 79/110/6 80/111/6 64/112/6
f 72/113/6 81/114/6 82/115/6 71/116/6
f 83/117/5 84/118/5 85/119/5 86/120/5
f 65/121/5 87/122/5 88/123/5 66/124/5
f 89/125/4 90/126/4 91/127/4 92/128/4
f 75/129/6 93/130/6 94/131/6 76/132/6
f 78/133/4 77/134/4 94/135/4 93/136/4
f 91/137/5 95/138/5 96/139/5 92/140/5
f 80/141/3 79/142/3 88/143/3 87/144/3
f 97/145/4 98/146/4 99/147/4 100/148/4
f 54/149/4 53/150/4 62/151/4 61/152/4
f 101/153/3 102/154/3 103/155/3 104/156/3
f 40/157/4 39/158/4 48/159/4 47/160/4
f 56/161/3 55/162/3 105/163/3 106/164/3
f 26/165/4 25/166/4 34/167/4 33/168/4
f 82/169/3 81/170/3 46/171/3 45/172/3
f 18/173/4 17/174/4 20/175/4 19/176/4
f 1/177/1 2/178/1 3/179/1 4/180/1
f 5/181/2 6/182/2 7/183/2 8/184/2
f 14/185/3 13/186/3 16/187/3 15/188/3
f 27/189/4 28/190/4 30/191/4 29/192/4
f 14/193/5 28/194/5 27/195/5 13/196/5
f 16/197/6 29/198/6 30/199/6 15/200/6
f 30/201/3 29/202/3 32/203/3 31/204/3
f 107/205/4 108/206/4 60/207/4 57/208/4
f 30/209/5 109/210/5 110/211/5 29/212/5
f 32/213/6 46/214/6 45/215/6 31/216/6
f 42/217/3 41/218/3 44/219/3 43/220/3
f 42/221/5 56/222/5 55/223/5 41/224/5
f 68/225/4 67/226/4 70/227/4 69/228/4
f 44/229/6 111/230/6 112/231/6 43/232/6
f 60/233/5 59/234/5 58/235/5 57/236/5
f 113/237/4 114/238/4 71/239/4 72/240/4
f 68/241/6 72/242/6 71/243/6 67/244/6
f 64/245/3 63/246/3 66/247/3 65/248/3
f 64/249/5 80/250/5 79/251/5 63/252/5
f 115/253/6 116/254/6 117/255/6 118/256/6
f 71/257/5 82/258/5 81/259/5 72/260/5
f 86/261/6 85/262/6 84/263/6 83/264/6
f 66/265/6 88/266/6 87/267/6 65/268/6
f 79/269/4 80/270/4 87/271/4 88/272/4
f 90/273/3 89/274/3 92/275/3 91/276/3
f 90/277/5 101/278/5 102/279/5 89/280/5
f 92/281/6 103/282/6 104/283/6 91/284/6
f 102/285/4 101/286/4 104/287/4 103/288/4
f 98/289/3 97/290/3 100/291/3 99/292/3
f 55/293/4 56/294/4 106/295/4 105/296/4
f 81/297/4 82/298/4 45/299/4 46/300/4
f 119/301/3 120/302/3 58/303/3 59/304/3
