v 1.000000 1.000000 0.468750
v 1.000000 0.000000 0.468750
v 0.000000 0.000000 0.468750
v 0.000000 1.000000 0.468750
v 0.000000 1.000000 0.531250
v 0.000000 0.000000 0.531250
v 1.000000 0.000000 0.531250
v 1.000000 1.000000 0.531250
v 0.812500 0.937500 0.468750
v 0.812500 0.937500 0.531250
v 0.937500 0.937500 0.531250
v 0.937500 0.937500 0.468750
v 0.812500 0.250000 0.468750
v 0.812500 0.250000 0.531250
v 0.937500 0.375000 0.531250
v 0.937500 0.375000 0.468750
v 0.750000 0.875000 0.468750
v 0.750000 0.875000 0.531250
v 0.812500 0.875000 0.531250
v 0.812500 0.875000 0.468750
v 0.750000 0.125000 0.468750
v 0.750000 0.125000 0.531250
v 0.687500 0.812500 0.468750
v 0.687500 0.812500 0.531250
v 0.750000 0.812500 0.531250
v 0.750000 0.812500 0.468750
v 0.687500 0.750000 0.468750
v 0.687500 0.750000 0.531250
v 0.625000 0.750000 0.468750
v 0.625000 0.750000 0.531250
v 0.625000 0.062500 0.468750
v 0.625000 0.062500 0.531250
v 0.812500 0.687500 0.531250
v 0.812500 0.687500 0.468750
v 0.875000 0.687500 0.468750
v 0.875000 0.687500 0.531250
v 0.562500 0.687500 0.468750
v 0.562500 0.687500 0.531250
v 0.625000 0.687500 0.531250
v 0.625000 0.687500 0.468750
v 0.562500 0.625000 0.468750
v 0.562500 0.625000 0.531250
v 0.750000 0.625000 0.531250
v 0.750000 0.625000 0.468750
v 0.812500 0.625000 0.468750
v 0.812500 0.625000 0.531250
v 0.812500 0.125000 0.531250
v 0.812500 0.125000 0.468750
v 0.875000 0.375000 0.468750
v 0.875000 0.375000 0.531250
v 0.500000 0.625000 0.468750
v 0.500000 0.625000 0.531250
v 0.500000 0.562500 0.468750
v 0.500000 0.562500 0.531250
v 0.687500 0.562500 0.531250
v 0.687500 0.562500 0.468750
v 0.750000 0.562500 0.468750
v 0.750000 0.562500 0.531250
v 0.750000 0.062500 0.531250
v 0.750000 0.062500 0.468750
v 0.437500 0.562500 0.468750
v 0.437500 0.562500 0.531250
v 0.437500 0.500000 0.468750
v 0.437500 0.500000 0.531250
v 0.625000 0.500000 0.531250
v 0.625000 0.500000 0.468750
v 0.687500 0.500000 0.468750
v 0.687500 0.500000 0.531250
v 0.687500 0.125000 0.531250
v 0.687500 0.125000 0.468750
v 0.375000 0.500000 0.468750
v 0.375000 0.500000 0.531250
v 0.375000 0.125000 0.468750
v 0.375000 0.125000 0.531250
v 0.562500 0.437500 0.531250
v 0.562500 0.437500 0.468750
v 0.625000 0.437500 0.468750
v 0.625000 0.437500 0.531250
v 0.312500 0.437500 0.468750
v 0.312500 0.437500 0.531250
v 0.375000 0.437500 0.531250
v 0.375000 0.437500 0.468750
v 0.312500 0.312500 0.468750
v 0.312500 0.312500 0.531250
v 0.500000 0.375000 0.531250
v 0.500000 0.375000 0.468750
v 0.562500 0.187500 0.531250
v 0.562500 0.187500 0.468750
v 0.500000 0.125000 0.531250
v 0.500000 0.125000 0.468750
v 0.812500 0.375000 0.468750
v 0.812500 0.375000 0.531250
v 0.875000 0.250000 0.531250
v 0.875000 0.250000 0.468750
v 0.250000 0.312500 0.468750
v 0.250000 0.312500 0.531250
v 0.562500 0.312500 0.531250
v 0.562500 0.312500 0.468750
v 0.250000 0.250000 0.468750
v 0.250000 0.250000 0.531250
v 0.187500 0.250000 0.468750
v 0.187500 0.250000 0.531250
v 0.187500 0.187500 0.468750
v 0.187500 0.187500 0.531250
v 0.312500 0.187500 0.531250
v 0.312500 0.187500 0.468750
v 0.125000 0.187500 0.468750
v 0.125000 0.187500 0.531250
v 0.687500 0.187500 0.531250
v 0.687500 0.187500 0.468750
v 0.125000 0.062500 0.468750
v 0.125000 0.062500 0.531250
v 0.250000 0.125000 0.531250
v 0.250000 0.125000 0.468750
v 0.312500 0.125000 0.531250
v 0.312500 0.125000 0.468750
v 0.250000 0.062500 0.531250
v 0.250000 0.062500 0.468750
vn 0.000000 0.000000 -1.000000
vn 0.000000 0.000000 1.000000
vn 0.000000 1.000000 0.000000
vn -1.000000 0.000000 0.000000
vn 1.000000 0.000000 0.000000
vn 0.000000 -1.000000 0.000000
vt 0.531219 0.937469
vt 0.531219 0.921906
vt 0.515656 0.921906
vt 0.515656 0.937469
vt 0.515656 0.937469
vt 0.515656 0.921906
vt 0.531219 0.921906
vt 0.531219 0.937469
vt 0.528324 0.936522
vt 0.528324 0.935549
vt 0.530270 0.935549
vt 0.530270 0.936522
vt 0.529295 0.936502
vt 0.529295 0.925802
vt 0.528322 0.925802
vt 0.528322 0.936502
vt 0.530272 0.936506
vt 0.530272 0.927752
vt 0.529299 0.927752
vt 0.529299 0.936506
vt 0.527346 0.935545
vt 0.527346 0.934572
vt 0.528318 0.934572
vt 0.528318 0.935545
vt 0.528318 0.935524
vt 0.528318 0.923851
vt 0.527346 0.923851
vt 0.527346 0.935524
vt 0.526369 0.934568
vt 0.526369 0.933596
vt 0.527342 0.933596
vt 0.527342 0.934568
vt 0.527342 0.934568
vt 0.527342 0.933596
vt 0.526369 0.933596
vt 0.526369 0.934568
vt 0.525393 0.933592
vt 0.525393 0.932619
vt 0.526365 0.932619
vt 0.526365 0.933592
vt 0.526365 0.933573
vt 0.526365 0.922873
vt 0.525393 0.922873
vt 0.525393 0.933573
vt 0.528322 0.933592
vt 0.528322 0.932619
vt 0.529295 0.932619
vt 0.529295 0.933592
vt 0.524416 0.932615
vt 0.524416 0.931643
vt 0.525389 0.931643
vt 0.525389 0.932615
vt 0.525389 0.932615
vt 0.525389 0.931643
vt 0.524416 0.931643
vt 0.524416 0.932615
vt 0.527346 0.932615
vt 0.527346 0.931643
vt 0.528318 0.931643
vt 0.528318 0.932615
vt 0.528318 0.932600
vt 0.528318 0.923845
vt 0.527346 0.923845
vt 0.527346 0.932600
vt 0.530272 0.932608
vt 0.530272 0.927744
vt 0.529299 0.927744
vt 0.529299 0.932608
vt 0.523439 0.931639
vt 0.523439 0.930666
vt 0.524412 0.930666
vt 0.524412 0.931639
vt 0.524412 0.931639
vt 0.524412 0.930666
vt 0.523439 0.930666
vt 0.523439 0.931639
vt 0.526369 0.931639
vt 0.526369 0.930666
vt 0.527342 0.930666
vt 0.527342 0.931639
vt 0.527342 0.931623
vt 0.527342 0.922869
vt 0.526369 0.922869
vt 0.526369 0.931623
vt 0.522463 0.930662
vt 0.522463 0.929689
vt 0.523436 0.929689
vt 0.523436 0.930662
vt 0.523436 0.930662
vt 0.523436 0.929689
vt 0.522463 0.929689
vt 0.522463 0.930662
vt 0.525393 0.930662
vt 0.525393 0.929689
vt 0.526365 0.929689
vt 0.526365 0.930662
vt 0.526365 0.930651
vt 0.526365 0.923841
vt 0.525393 0.923841
vt 0.525393 0.930651
vt 0.521486 0.929686
vt 0.521486 0.928713
vt 0.522459 0.928713
vt 0.522459 0.929686
vt 0.522459 0.929676
vt 0.522459 0.923840
vt 0.521486 0.923840
vt 0.521486 0.929676
vt 0.524416 0.929686
vt 0.524416 0.928713
vt 0.525389 0.928713
vt 0.525389 0.929686
vt 0.525389 0.929686
vt 0.525389 0.928713
vt 0.524416 0.928713
vt 0.524416 0.929686
vt 0.520510 0.928709
vt 0.520510 0.927736
vt 0.521482 0.927736
vt 0.521482 0.928709
vt 0.521482 0.928707
vt 0.521482 0.926762
vt 0.520510 0.926762
vt 0.520510 0.928707
vt 0.523451 0.928709
vt 0.523451 0.927736
vt 0.530260 0.927736
vt 0.530260 0.928709
vt 0.524412 0.928703
vt 0.524412 0.924812
vt 0.523439 0.924812
vt 0.523439 0.928703
vt 0.523436 0.927727
vt 0.523436 0.923836
vt 0.522463 0.923836
vt 0.522463 0.927727
vt 0.528322 0.927732
vt 0.528322 0.926760
vt 0.529295 0.926760
vt 0.529295 0.927732
vt 0.529295 0.927731
vt 0.529295 0.925785
vt 0.528322 0.925785
vt 0.528322 0.927731
vt 0.519541 0.926756
vt 0.519541 0.925783
vt 0.524405 0.925783
vt 0.524405 0.926756
vt 0.520506 0.926756
vt 0.520506 0.925783
vt 0.519533 0.925783
vt 0.519533 0.926756
vt 0.528322 0.926756
vt 0.528322 0.925783
vt 0.529295 0.925783
vt 0.529295 0.926756
vt 0.518574 0.925779
vt 0.518574 0.924807
vt 0.528301 0.924807
vt 0.528301 0.925779
vt 0.519529 0.925779
vt 0.519529 0.924807
vt 0.518557 0.924807
vt 0.518557 0.925779
vt 0.520515 0.925779
vt 0.520515 0.924807
vt 0.524406 0.924807
vt 0.524406 0.925779
vt 0.517595 0.924803
vt 0.517595 0.923830
vt 0.526350 0.923830
vt 0.526350 0.924803
vt 0.518553 0.924801
vt 0.518553 0.922855
vt 0.517580 0.922855
vt 0.517580 0.924801
vt 0.519548 0.924803
vt 0.519548 0.923830
vt 0.528303 0.923830
vt 0.528303 0.924803
vt 0.520506 0.924803
vt 0.520506 0.923830
vt 0.519533 0.923830
vt 0.519533 0.924803
vt 0.517597 0.923826
vt 0.517597 0.922853
vt 0.527325 0.922853
vt 0.527325 0.923826
vt 0.519529 0.923826
vt 0.519529 0.922853
vt 0.518557 0.922853
vt 0.518557 0.923826
vt 0.526369 0.923826
vt 0.526369 0.922853
vt 0.527342 0.922853
vt 0.527342 0.923826
f 1/1/1 2/2/1 3/3/1 4/4/1
f 5/5/2 6/6/2 7/7/2 8/8/2
f 9/9/3 10/10/3 11/11/3 12/12/3
f 9/13/4 13/14/4 14/15/4 10/16/4
f 11/17/5 15/18/5 16/19/5 12/20/5
f 17/21/3 18/22/3 19/23/3 20/24/3
f 17/25/4 21/26/4 22/27/4 18/28/4
f 23/29/3 24/30/3 25/31/3 26/32/3
f 23/33/4 27/34/4 28/35/4 24/36/4
f 29/37/3 30/38/3 28/39/3 27/40/3
f 29/41/4 31/42/4 32/43/4 30/44/4
f 33/45/6 34/46/6 35/47/6 36/48/6
f 37/49/3 38/50/3 39/51/3 40/52/3
f 37/53/4 41/54/4 42/55/4 38/56/4
f 43/57/6 44/58/6 45/59/6 46/60/6
f 33/61/5 47/62/5 48/63/5 34/64/5
f 35/65/4 49/66/4 50/67/4 36/68/4
f 51/69/3 52/70/3 42/71/3 41/72/3
f 51/73/4 53/74/4 54/75/4 52/76/4
f 55/77/6 56/78/6 57/79/6 58/80/6
f 43/81/5 59/82/5 60/83/5 44/84/5
f 61/85/3 62/86/3 54/87/3 53/88/3
f 61/89/4 63/90/4 64/91/4 62/92/4
f 65/93/6 66/94/6 67/95/6 68/96/6
f 55/97/5 69/98/5 70/99/5 56/100/5
f 71/101/3 72/102/3 64/103/3 63/104/3
f 71/105/4 73/106/4 74/107/4 72/108/4
f 75/109/6 76/110/6 77/111/6 78/112/6
f 65/113/5 78/114/5 77/115/5 66/116/5
f 79/117/3 80/118/3 81/119/3 82/120/3
f 79/121/4 83/122/4 84/123/4 80/124/4
f 85/125/6 86/126/6 16/127/6 15/128/6
f 75/129/5 87/130/5 88/131/5 76/132/5
f 85/133/5 89/134/5 90/135/5 86/136/5
f 91/137/3 92/138/3 50/139/3 49/140/3
f 50/141/5 93/142/5 94/143/5 49/144/5
f 95/145/3 96/146/3 97/147/3 98/148/3
f 95/149/4 99/150/4 100/151/4 96/152/4
f 14/153/6 13/154/6 94/155/6 93/156/6
f 101/157/3 102/158/3 14/159/3 13/160/3
f 101/161/4 103/162/4 104/163/4 102/164/4
f 105/165/6 106/166/6 88/167/6 87/168/6
f 107/169/3 108/170/3 109/171/3 110/172/3
f 107/173/4 111/174/4 112/175/4 108/176/4
f 113/177/6 114/178/6 48/179/6 47/180/6
f 105/181/5 115/182/5 116/183/5 106/184/5
f 112/185/6 111/186/6 60/187/6 59/188/6
f 113/189/5 117/190/5 118/191/5 114/192/5
f 70/193/3 69/194/3 22/195/3 21/196/3
