v 1.000000 1.000000 0.468750
v 1.000000 0.000000 0.468750
v 0.000000 0.000000 0.468750
v 0.000000 1.000000 0.468750
v 0.000000 1.000000 0.531250
v 0.000000 0.000000 0.531250
v 1.000000 0.000000 0.531250
v 1.000000 1.000000 0.531250
v 0.250000 0.937500 0.468750
v 0.250000 0.937500 0.531250
v 0.375000 0.937500 0.531250
v 0.375000 0.937500 0.468750
v 0.250000 0.312500 0.468750
v 0.250000 0.312500 0.531250
v 0.375000 0.312500 0.531250
v 0.375000 0.312500 0.468750
v 0.187500 0.875000 0.468750
v 0.187500 0.875000 0.531250
v 0.437500 0.875000 0.531250
v 0.437500 0.875000 0.468750
v 0.187500 0.375000 0.468750
v 0.187500 0.375000 0.531250
v 0.437500 0.375000 0.531250
v 0.437500 0.375000 0.468750
v 0.125000 0.812500 0.468750
v 0.125000 0.812500 0.531250
v 0.500000 0.812500 0.531250
v 0.500000 0.812500 0.468750
v 0.125000 0.437500 0.468750
v 0.125000 0.437500 0.531250
v 0.312500 0.750000 0.531250
v 0.312500 0.750000 0.468750
v 0.375000 0.750000 0.468750
v 0.375000 0.750000 0.531250
v 0.500000 0.437500 0.531250
v 0.500000 0.437500 0.468750
v 0.312500 0.500000 0.531250
v 0.312500 0.500000 0.468750
v 0.375000 0.687500 0.531250
v 0.375000 0.687500 0.468750
v 0.500000 0.687500 0.468750
v 0.500000 0.687500 0.531250
v 0.375000 0.500000 0.468750
v 0.375000 0.500000 0.531250
v 0.375000 0.562500 0.468750
v 0.375000 0.562500 0.531250
v 0.750000 0.562500 0.531250
v 0.750000 0.562500 0.468750
v 0.687500 0.562500 0.468750
v 0.687500 0.500000 0.468750
v 0.687500 0.500000 0.531250
v 0.687500 0.562500 0.531250
v 0.750000 0.500000 0.531250
v 0.750000 0.500000 0.468750
v 0.812500 0.500000 0.531250
v 0.812500 0.500000 0.468750
v 0.625000 0.500000 0.468750
v 0.625000 0.437500 0.468750
v 0.625000 0.437500 0.531250
v 0.625000 0.500000 0.531250
v 0.812500 0.375000 0.531250
v 0.812500 0.375000 0.468750
v 0.562500 0.437500 0.468750
v 0.562500 0.437500 0.531250
v 0.562500 0.000000 0.468750
v 0.562500 0.000000 0.531250
v 0.500000 0.375000 0.468750
v 0.500000 0.375000 0.531250
v 0.875000 0.375000 0.531250
v 0.875000 0.375000 0.468750
v 0.500000 0.062500 0.468750
v 0.500000 0.062500 0.531250
v 0.875000 0.062500 0.531250
v 0.875000 0.062500 0.468750
v 0.437500 0.312500 0.468750
v 0.437500 0.312500 0.531250
v 0.500000 0.312500 0.531250
v 0.500000 0.312500 0.468750
v 0.437500 0.125000 0.468750
v 0.437500 0.125000 0.531250
v 0.875000 0.250000 0.468750
v 0.875000 0.250000 0.531250
v 0.937500 0.250000 0.531250
v 0.937500 0.250000 0.468750
v 0.937500 0.125000 0.531250
v 0.937500 0.125000 0.468750
v 0.687500 0.000000 0.468750
v 0.687500 0.000000 0.531250
v 0.687500 0.062500 0.531250
v 0.687500 0.062500 0.468750
vn 0.000000 0.000000 -1.000000
vn 0.000000 0.000000 1.000000
vn 0.000000 1.000000 0.000000
vn -1.000000 0.000000 0.000000
vn 1.000000 0.000000 0.000000
vn 0.000000 -1.000000 0.000000
vt 0.531219 0.890594
vt 0.531219 0.875031
vt 0.515656 0.875031
vt 0.515656 0.890594
vt 0.515656 0.890594
vt 0.515656 0.875031
vt 0.531219 0.875031
vt 0.531219 0.890594
vt 0.519535 0.889647
vt 0.519535 0.888674
vt 0.521481 0.888674
vt 0.521481 0.889647
vt 0.520506 0.889629
vt 0.520506 0.879902
vt 0.519533 0.879902
vt 0.519533 0.889629
vt 0.521482 0.889629
vt 0.521482 0.879902
vt 0.520510 0.879902
vt 0.520510 0.889629
vt 0.518562 0.888670
vt 0.518562 0.887697
vt 0.522453 0.887697
vt 0.522453 0.888670
vt 0.519529 0.888657
vt 0.519529 0.880875
vt 0.518557 0.880875
vt 0.518557 0.888657
vt 0.522459 0.888657
vt 0.522459 0.880875
vt 0.521486 0.880875
vt 0.521486 0.888657
vt 0.517590 0.887693
vt 0.517590 0.886721
vt 0.523426 0.886721
vt 0.523426 0.887693
vt 0.518553 0.887684
vt 0.518553 0.881847
vt 0.517580 0.881847
vt 0.517580 0.887684
vt 0.520510 0.887693
vt 0.520510 0.886721
vt 0.521482 0.886721
vt 0.521482 0.887693
vt 0.523436 0.887684
vt 0.523436 0.881847
vt 0.522463 0.881847
vt 0.522463 0.887684
vt 0.520506 0.886711
vt 0.520506 0.882820
vt 0.519533 0.882820
vt 0.519533 0.886711
vt 0.521488 0.886717
vt 0.521488 0.885744
vt 0.523434 0.885744
vt 0.523434 0.886717
vt 0.522459 0.886711
vt 0.522459 0.882820
vt 0.521486 0.882820
vt 0.521486 0.886711
vt 0.521496 0.883787
vt 0.521496 0.882814
vt 0.527332 0.882814
vt 0.527332 0.883787
vt 0.527342 0.883787
vt 0.527342 0.882814
vt 0.526369 0.882814
vt 0.526369 0.883787
vt 0.527342 0.883787
vt 0.527342 0.882814
vt 0.526369 0.882814
vt 0.526369 0.883787
vt 0.517590 0.882811
vt 0.517590 0.881838
vt 0.523426 0.881838
vt 0.523426 0.882811
vt 0.520523 0.882811
vt 0.520523 0.881838
vt 0.528305 0.881838
vt 0.528305 0.882811
vt 0.526365 0.882811
vt 0.526365 0.881838
vt 0.525393 0.881838
vt 0.525393 0.882811
vt 0.528318 0.882809
vt 0.528318 0.880863
vt 0.527346 0.880863
vt 0.527346 0.882809
vt 0.518562 0.881834
vt 0.518562 0.880861
vt 0.522453 0.880861
vt 0.522453 0.881834
vt 0.524416 0.881834
vt 0.524416 0.880861
vt 0.525389 0.880861
vt 0.525389 0.881834
vt 0.525389 0.881823
vt 0.525389 0.875013
vt 0.524416 0.875013
vt 0.524416 0.881823
vt 0.519535 0.880857
vt 0.519535 0.879885
vt 0.521481 0.879885
vt 0.521481 0.880857
vt 0.523449 0.880857
vt 0.523449 0.879885
vt 0.529285 0.879885
vt 0.529285 0.880857
vt 0.524412 0.880850
vt 0.524412 0.875986
vt 0.523439 0.875986
vt 0.523439 0.880850
vt 0.529295 0.880850
vt 0.529295 0.875986
vt 0.528322 0.875986
vt 0.528322 0.880850
vt 0.522463 0.879881
vt 0.522463 0.878908
vt 0.523436 0.878908
vt 0.523436 0.879881
vt 0.523436 0.879877
vt 0.523436 0.876959
vt 0.522463 0.876959
vt 0.522463 0.879877
vt 0.529299 0.878904
vt 0.529299 0.877932
vt 0.530272 0.877932
vt 0.530272 0.878904
vt 0.530272 0.878902
vt 0.530272 0.876957
vt 0.529299 0.876957
vt 0.529299 0.878902
vt 0.522476 0.877928
vt 0.522476 0.876955
vt 0.530258 0.876955
vt 0.530258 0.877928
vt 0.523449 0.876951
vt 0.523449 0.875978
vt 0.529285 0.875978
vt 0.529285 0.876951
vt 0.524418 0.875975
vt 0.524418 0.875002
vt 0.526363 0.875002
vt 0.526363 0.875975
vt 0.526365 0.875975
vt 0.526365 0.875002
vt 0.525393 0.875002
vt 0.525393 0.875975
f 1/1/1 2/2/1 3/3/1 4/4/1
f 5/5/2 6/6/2 7/7/2 8/8/2
f 9/9/3 10/10/3 11/11/3 12/12/3
f 9/13/4 13/14/4 14/15/4 10/16/4
f 11/17/5 15/18/5 16/19/5 12/20/5
f 17/21/3 18/22/3 19/23/3 20/24/3
f 17/25/4 21/26/4 22/27/4 18/28/4
f 19/29/5 23/30/5 24/31/5 20/32/5
f 25/33/3 26/34/3 27/35/3 28/36/3
f 25/37/4 29/38/4 30/39/4 26/40/4
f 31/41/6 32/42/6 33/43/6 34/44/6
f 27/45/5 35/46/5 36/47/5 28/48/5
f 31/49/5 37/50/5 38/51/5 32/52/5
f 39/53/6 40/54/6 41/55/6 42/56/6
f 33/57/4 43/58/4 44/59/4 34/60/4
f 45/61/3 46/62/3 47/63/3 48/64/3
f 49/65/4 50/66/4 51/67/4 52/68/4
f 47/69/5 53/70/5 54/71/5 48/72/5
f 30/73/6 29/74/6 36/75/6 35/76/6
f 38/77/3 37/78/3 55/79/3 56/80/3
f 57/81/4 58/82/4 59/83/4 60/84/4
f 55/85/5 61/86/5 62/87/5 56/88/5
f 22/89/6 21/90/6 24/91/6 23/92/6
f 63/93/3 64/94/3 59/95/3 58/96/3
f 63/97/4 65/98/4 66/99/4 64/100/4
f 14/101/6 13/102/6 16/103/6 15/104/6
f 67/105/3 68/106/3 69/107/3 70/108/3
f 67/109/4 71/110/4 72/111/4 68/112/4
f 69/113/5 73/114/5 74/115/5 70/116/5
f 75/117/3 76/118/3 77/119/3 78/120/3
f 75/121/4 79/122/4 80/123/4 76/124/4
f 81/125/3 82/126/3 83/127/3 84/128/3
f 83/129/5 85/130/5 86/131/5 84/132/5
f 80/133/6 79/134/6 86/135/6 85/136/6
f 72/137/6 71/138/6 74/139/6 73/140/6
f 66/141/6 65/142/6 87/143/6 88/144/6
f 89/145/5 88/146/5 87/147/5 90/148/5
