v 1.000000 1.000000 0.468750
v 1.000000 0.000000 0.468750
v 0.000000 0.000000 0.468750
v 0.000000 1.000000 0.468750
v 0.000000 1.000000 0.531250
v 0.000000 0.000000 0.531250
v 1.000000 0.000000 0.531250
v 1.000000 1.000000 0.531250
v 0.500000 0.875000 0.468750
v 0.500000 0.875000 0.531250
v 0.687500 0.875000 0.531250
v 0.687500 0.875000 0.468750
v 0.500000 0.812500 0.468750
v 0.500000 0.812500 0.531250
v 0.687500 0.062500 0.531250
v 0.687500 0.062500 0.468750
v 0.437500 0.812500 0.468750
v 0.437500 0.812500 0.531250
v 0.750000 0.812500 0.531250
v 0.750000 0.812500 0.468750
v 0.437500 0.750000 0.468750
v 0.437500 0.750000 0.531250
v 0.750000 0.125000 0.531250
v 0.750000 0.125000 0.468750
v 0.375000 0.750000 0.468750
v 0.375000 0.750000 0.531250
v 0.375000 0.687500 0.468750
v 0.375000 0.687500 0.531250
v 0.312500 0.687500 0.468750
v 0.312500 0.687500 0.531250
v 0.812500 0.687500 0.531250
v 0.812500 0.687500 0.468750
v 0.312500 0.062500 0.468750
v 0.312500 0.062500 0.531250
v 0.812500 0.187500 0.531250
v 0.812500 0.187500 0.468750
v 0.250000 0.625000 0.468750
v 0.250000 0.625000 0.531250
v 0.312500 0.625000 0.531250
v 0.312500 0.625000 0.468750
v 0.250000 0.125000 0.468750
v 0.250000 0.125000 0.531250
v 0.187500 0.562500 0.468750
v 0.187500 0.562500 0.531250
v 0.875000 0.562500 0.531250
v 0.875000 0.562500 0.468750
v 0.187500 0.187500 0.468750
v 0.187500 0.187500 0.531250
v 0.875000 0.250000 0.531250
v 0.875000 0.250000 0.468750
v 0.125000 0.500000 0.468750
v 0.125000 0.500000 0.531250
v 0.187500 0.500000 0.531250
v 0.187500 0.500000 0.468750
v 0.125000 0.250000 0.468750
v 0.125000 0.250000 0.531250
v 0.875000 0.437500 0.468750
v 0.875000 0.437500 0.531250
v 0.937500 0.437500 0.531250
v 0.937500 0.437500 0.468750
v 0.937500 0.312500 0.531250
v 0.937500 0.312500 0.468750
v 0.875000 0.312500 0.531250
v 0.875000 0.312500 0.468750
vn 0.000000 0.000000 -1.000000
vn 0.000000 0.000000 1.000000
vn 0.000000 1.000000 0.000000
vn -1.000000 0.000000 0.000000
vn 1.000000 0.000000 0.000000
vn 0.000000 -1.000000 0.000000
vt 0.531219 0.906219
vt 0.531219 0.890656
vt 0.515656 0.890656
vt 0.515656 0.906219
vt 0.515656 0.906219
vt 0.515656 0.890656
vt 0.531219 0.890656
vt 0.531219 0.906219
vt 0.523443 0.904295
vt 0.523443 0.903322
vt 0.526361 0.903322
vt 0.526361 0.904295
vt 0.524412 0.904295
vt 0.524412 0.903322
vt 0.523439 0.903322
vt 0.523439 0.904295
vt 0.526365 0.904272
vt 0.526365 0.891626
vt 0.525393 0.891626
vt 0.525393 0.904272
vt 0.522470 0.903318
vt 0.522470 0.902346
vt 0.527334 0.902346
vt 0.527334 0.903318
vt 0.523436 0.903318
vt 0.523436 0.902346
vt 0.522463 0.902346
vt 0.522463 0.903318
vt 0.527342 0.903299
vt 0.527342 0.892599
vt 0.526369 0.892599
vt 0.526369 0.903299
vt 0.521486 0.902342
vt 0.521486 0.901369
vt 0.522459 0.901369
vt 0.522459 0.902342
vt 0.522459 0.902342
vt 0.522459 0.901369
vt 0.521486 0.901369
vt 0.521486 0.902342
vt 0.520523 0.901365
vt 0.520523 0.900393
vt 0.528305 0.900393
vt 0.528305 0.901365
vt 0.521482 0.901348
vt 0.521482 0.891621
vt 0.520510 0.891621
vt 0.520510 0.901348
vt 0.528318 0.901352
vt 0.528318 0.893570
vt 0.527346 0.893570
vt 0.527346 0.901352
vt 0.519533 0.900389
vt 0.519533 0.899416
vt 0.520506 0.899416
vt 0.520506 0.900389
vt 0.520506 0.900375
vt 0.520506 0.892593
vt 0.519533 0.892593
vt 0.519533 0.900375
vt 0.518576 0.899412
vt 0.518576 0.898439
vt 0.529276 0.898439
vt 0.529276 0.899412
vt 0.519529 0.899403
vt 0.519529 0.893566
vt 0.518557 0.893566
vt 0.518557 0.899403
vt 0.529295 0.899405
vt 0.529295 0.894541
vt 0.528322 0.894541
vt 0.528322 0.899405
vt 0.517580 0.898436
vt 0.517580 0.897463
vt 0.518553 0.897463
vt 0.518553 0.898436
vt 0.518553 0.898430
vt 0.518553 0.894539
vt 0.517580 0.894539
vt 0.517580 0.898430
vt 0.529299 0.897459
vt 0.529299 0.896486
vt 0.530272 0.896486
vt 0.530272 0.897459
vt 0.530272 0.897457
vt 0.530272 0.895512
vt 0.529299 0.895512
vt 0.529299 0.897457
vt 0.529299 0.896482
vt 0.529299 0.895510
vt 0.530272 0.895510
vt 0.530272 0.896482
vt 0.517601 0.895506
vt 0.517601 0.894533
vt 0.529274 0.894533
vt 0.529274 0.895506
vt 0.518574 0.894529
vt 0.518574 0.893557
vt 0.528301 0.893557
vt 0.528301 0.894529
vt 0.519547 0.893553
vt 0.519547 0.892580
vt 0.527328 0.892580
vt 0.527328 0.893553
vt 0.520519 0.892576
vt 0.520519 0.891603
vt 0.526356 0.891603
vt 0.526356 0.892576
f 1/1/1 2/2/1 3/3/1 4/4/1
f 5/5/2 6/6/2 7/7/2 8/8/2
f 9/9/3 10/10/3 11/11/3 12/12/3
f 9/13/4 13/14/4 14/15/4 10/16/4
f 11/17/5 15/18/5 16/19/5 12/20/5
f 17/21/3 18/22/3 19/23/3 20/24/3
f 17/25/4 21/26/4 22/27/4 18/28/4
f 19/29/5 23/30/5 24/31/5 20/32/5
f 25/33/3 26/34/3 22/35/3 21/36/3
f 25/37/4 27/38/4 28/39/4 26/40/4
f 29/41/3 30/42/3 31/43/3 32/44/3
f 29/45/4 33/46/4 34/47/4 30/48/4
f 31/49/5 35/50/5 36/51/5 32/52/5
f 37/53/3 38/54/3 39/55/3 40/56/3
f 37/57/4 41/58/4 42/59/4 38/60/4
f 43/61/3 44/62/3 45/63/3 46/64/3
f 43/65/4 47/66/4 48/67/4 44/68/4
f 45/69/5 49/70/5 50/71/5 46/72/5
f 51/73/3 52/74/3 53/75/3 54/76/3
f 51/77/4 55/78/4 56/79/4 52/80/4
f 57/81/3 58/82/3 59/83/3 60/84/3
f 59/85/5 61/86/5 62/87/5 60/88/5
f 63/89/6 64/90/6 62/91/6 61/92/6
f 56/93/6 55/94/6 50/95/6 49/96/6
f 48/97/6 47/98/6 36/99/6 35/100/6
f 42/101/6 41/102/6 24/103/6 23/104/6
f 34/105/6 33/106/6 16/107/6 15/108/6
