v 1.000000 1.000000 0.468750
v 1.000000 0.000000 0.468750
v 0.000000 0.000000 0.468750
v 0.000000 1.000000 0.468750
v 0.000000 1.000000 0.531250
v 0.000000 0.000000 0.531250
v 1.000000 0.000000 0.531250
v 1.000000 1.000000 0.531250
v 0.437500 1.000000 0.468750
v 0.437500 1.000000 0.531250
v 0.625000 1.000000 0.531250
v 0.625000 1.000000 0.468750
v 0.437500 0.937500 0.468750
v 0.437500 0.937500 0.531250
v 0.625000 0.062500 0.531250
v 0.625000 0.062500 0.468750
v 0.312500 0.937500 0.468750
v 0.312500 0.937500 0.531250
v 0.687500 0.937500 0.531250
v 0.687500 0.937500 0.468750
v 0.312500 0.062500 0.468750
v 0.312500 0.062500 0.531250
v 0.687500 0.875000 0.531250
v 0.687500 0.875000 0.468750
v 0.187500 0.875000 0.468750
v 0.187500 0.875000 0.531250
v 0.750000 0.875000 0.531250
v 0.750000 0.875000 0.468750
v 0.187500 0.187500 0.468750
v 0.187500 0.187500 0.531250
v 0.750000 0.812500 0.531250
v 0.750000 0.812500 0.468750
v 0.125000 0.812500 0.468750
v 0.125000 0.812500 0.531250
v 0.812500 0.812500 0.531250
v 0.812500 0.812500 0.468750
v 0.125000 0.250000 0.468750
v 0.125000 0.250000 0.531250
v 0.812500 0.750000 0.531250
v 0.812500 0.750000 0.468750
v 0.875000 0.750000 0.531250
v 0.875000 0.750000 0.468750
v 0.875000 0.187500 0.531250
v 0.875000 0.187500 0.468750
v 0.062500 0.687500 0.468750
v 0.062500 0.687500 0.531250
v 0.937500 0.687500 0.531250
v 0.937500 0.687500 0.468750
v 0.062500 0.312500 0.468750
v 0.062500 0.312500 0.531250
v 0.937500 0.312500 0.531250
v 0.937500 0.312500 0.468750
v 0.187500 0.250000 0.468750
v 0.187500 0.250000 0.531250
v 0.250000 0.125000 0.531250
v 0.250000 0.125000 0.468750
v 0.312500 0.125000 0.468750
v 0.312500 0.125000 0.531250
v 0.250000 0.187500 0.468750
v 0.250000 0.187500 0.531250
vn 0.000000 0.000000 -1.000000
vn 0.000000 0.000000 1.000000
vn 0.000000 1.000000 0.000000
vn -1.000000 0.000000 0.000000
vn 1.000000 0.000000 0.000000
vn 0.000000 -1.000000 0.000000
vt 0.531219 0.843719
vt 0.531219 0.828156
vt 0.515656 0.828156
vt 0.515656 0.843719
vt 0.515656 0.843719
vt 0.515656 0.828156
vt 0.531219 0.828156
vt 0.531219 0.843719
vt 0.522467 0.843748
vt 0.522467 0.842775
vt 0.525385 0.842775
vt 0.525385 0.843748
vt 0.523436 0.843748
vt 0.523436 0.842775
vt 0.522463 0.842775
vt 0.522463 0.843748
vt 0.525389 0.843721
vt 0.525389 0.829130
vt 0.524416 0.829130
vt 0.524416 0.843721
vt 0.520519 0.842772
vt 0.520519 0.841799
vt 0.526356 0.841799
vt 0.526356 0.842772
vt 0.521482 0.842747
vt 0.521482 0.829128
vt 0.520510 0.829128
vt 0.520510 0.842747
vt 0.526365 0.842772
vt 0.526365 0.841799
vt 0.525393 0.841799
vt 0.525393 0.842772
vt 0.518572 0.841795
vt 0.518572 0.840822
vt 0.527327 0.840822
vt 0.527327 0.841795
vt 0.519529 0.841776
vt 0.519529 0.831076
vt 0.518557 0.831076
vt 0.518557 0.841776
vt 0.527342 0.841795
vt 0.527342 0.840822
vt 0.526369 0.840822
vt 0.526369 0.841795
vt 0.517599 0.840818
vt 0.517599 0.839846
vt 0.528299 0.839846
vt 0.528299 0.840818
vt 0.518553 0.840803
vt 0.518553 0.832048
vt 0.517580 0.832048
vt 0.517580 0.840803
vt 0.528318 0.840818
vt 0.528318 0.839846
vt 0.527346 0.839846
vt 0.527346 0.840818
vt 0.528322 0.839842
vt 0.528322 0.838869
vt 0.529295 0.838869
vt 0.529295 0.839842
vt 0.529295 0.839827
vt 0.529295 0.831072
vt 0.528322 0.831072
vt 0.528322 0.839827
vt 0.516628 0.838865
vt 0.516628 0.837893
vt 0.530247 0.837893
vt 0.530247 0.838865
vt 0.517576 0.838856
vt 0.517576 0.833019
vt 0.516603 0.833019
vt 0.516603 0.838856
vt 0.530272 0.838856
vt 0.530272 0.833019
vt 0.529299 0.833019
vt 0.529299 0.838856
vt 0.516628 0.833982
vt 0.516628 0.833010
vt 0.530247 0.833010
vt 0.530247 0.833982
vt 0.517580 0.833006
vt 0.517580 0.832033
vt 0.518553 0.832033
vt 0.518553 0.833006
vt 0.518576 0.832029
vt 0.518576 0.831057
vt 0.529276 0.831057
vt 0.529276 0.832029
vt 0.519533 0.831053
vt 0.519533 0.830080
vt 0.520506 0.830080
vt 0.520506 0.831053
vt 0.520506 0.831053
vt 0.520506 0.830080
vt 0.519533 0.830080
vt 0.519533 0.831053
vt 0.520517 0.830076
vt 0.520517 0.829103
vt 0.525381 0.829103
vt 0.525381 0.830076
f 1/1/1 2/2/1 3/3/1 4/4/1
f 5/5/2 6/6/2 7/7/2 8/8/2
f 9/9/3 10/10/3 11/11/3 12/12/3
f 9/13/4 13/14/4 14/15/4 10/16/4
f 11/17/5 15/18/5 16/19/5 12/20/5
f 17/21/3 18/22/3 19/23/3 20/24/3
f 17/25/4 21/26/4 22/27/4 18/28/4
f 19/29/5 23/30/5 24/31/5 20/32/5
f 25/33/3 26/34/3 27/35/3 28/36/3
f 25/37/4 29/38/4 30/39/4 26/40/4
f 27/41/5 31/42/5 32/43/5 28/44/5
f 33/45/3 34/46/3 35/47/3 36/48/3
f 33/49/4 37/50/4 38/51/4 34/52/4
f 35/53/5 39/54/5 40/55/5 36/56/5
f 40/57/3 39/58/3 41/59/3 42/60/3
f 41/61/5 43/62/5 44/63/5 42/64/5
f 45/65/3 46/66/3 47/67/3 48/68/3
f 45/69/4 49/70/4 50/71/4 46/72/4
f 47/73/5 51/74/5 52/75/5 48/76/5
f 50/77/6 49/78/6 52/79/6 51/80/6
f 38/81/6 37/82/6 53/83/6 54/84/6
f 30/85/6 29/86/6 44/87/6 43/88/6
f 55/89/6 56/90/6 57/91/6 58/92/6
f 59/93/4 56/94/4 55/95/4 60/96/4
f 22/97/6 21/98/6 16/99/6 15/100/6
