v 1.000000 1.000000 0.468750
v 1.000000 0.000000 0.468750
v 0.000000 0.000000 0.468750
v 0.000000 1.000000 0.468750
v 0.000000 1.000000 0.531250
v 0.000000 0.000000 0.531250
v 1.000000 0.000000 0.531250
v 1.000000 1.000000 0.531250
v 0.437500 0.875000 0.468750
v 0.437500 0.875000 0.531250
v 0.625000 0.875000 0.531250
v 0.625000 0.875000 0.468750
v 0.437500 0.437500 0.468750
v 0.437500 0.437500 0.531250
v 0.625000 0.125000 0.531250
v 0.625000 0.125000 0.468750
v 0.375000 0.812500 0.468750
v 0.375000 0.812500 0.531250
v 0.687500 0.812500 0.531250
v 0.687500 0.812500 0.468750
v 0.375000 0.062500 0.468750
v 0.375000 0.062500 0.531250
v 0.687500 0.062500 0.531250
v 0.687500 0.062500 0.468750
v 0.375000 0.687500 0.531250
v 0.375000 0.687500 0.468750
v 0.687500 0.687500 0.468750
v 0.687500 0.687500 0.531250
v 0.500000 0.687500 0.531250
v 0.500000 0.437500 0.531250
v 0.500000 0.437500 0.468750
v 0.500000 0.687500 0.468750
v 0.562500 0.687500 0.468750
v 0.562500 0.125000 0.468750
v 0.562500 0.125000 0.531250
v 0.562500 0.687500 0.531250
v 0.437500 0.562500 0.531250
v 0.437500 0.562500 0.468750
v 0.625000 0.562500 0.468750
v 0.625000 0.562500 0.531250
v 0.375000 0.562500 0.468750
v 0.375000 0.562500 0.531250
v 0.687500 0.562500 0.531250
v 0.687500 0.562500 0.468750
v 0.375000 0.500000 0.531250
v 0.375000 0.500000 0.468750
v 0.687500 0.500000 0.468750
v 0.687500 0.500000 0.531250
v 0.437500 0.312500 0.531250
v 0.437500 0.312500 0.468750
v 0.625000 0.187500 0.468750
v 0.625000 0.187500 0.531250
v 0.312500 0.500000 0.468750
v 0.312500 0.500000 0.531250
v 0.750000 0.500000 0.531250
v 0.750000 0.500000 0.468750
v 0.312500 0.437500 0.531250
v 0.312500 0.437500 0.468750
v 0.750000 0.437500 0.468750
v 0.750000 0.437500 0.531250
v 0.312500 0.125000 0.468750
v 0.312500 0.125000 0.531250
v 0.375000 0.125000 0.531250
v 0.375000 0.125000 0.468750
v 0.687500 0.125000 0.468750
v 0.687500 0.125000 0.531250
v 0.750000 0.125000 0.531250
v 0.750000 0.125000 0.468750
v 0.250000 0.437500 0.468750
v 0.250000 0.437500 0.531250
v 0.812500 0.437500 0.531250
v 0.812500 0.437500 0.468750
v 0.250000 0.187500 0.468750
v 0.250000 0.187500 0.531250
v 0.312500 0.187500 0.531250
v 0.312500 0.187500 0.468750
v 0.750000 0.187500 0.468750
v 0.750000 0.187500 0.531250
v 0.812500 0.187500 0.531250
v 0.812500 0.187500 0.468750
v 0.375000 0.312500 0.531250
v 0.375000 0.312500 0.468750
v 0.625000 0.312500 0.468750
v 0.625000 0.312500 0.531250
v 0.687500 0.312500 0.531250
v 0.687500 0.312500 0.468750
vn 0.000000 0.000000 -1.000000
vn 0.000000 0.000000 1.000000
vn 0.000000 1.000000 0.000000
vn -1.000000 0.000000 0.000000
vn 1.000000 0.000000 0.000000
vn 0.000000 -1.000000 0.000000
vt 0.531219 0.812469
vt 0.531219 0.796906
vt 0.515656 0.796906
vt 0.515656 0.812469
vt 0.515656 0.812469
vt 0.515656 0.796906
vt 0.531219 0.796906
vt 0.531219 0.812469
vt 0.522467 0.810545
vt 0.522467 0.809572
vt 0.525385 0.809572
vt 0.525385 0.810545
vt 0.523436 0.810534
vt 0.523436 0.803724
vt 0.522463 0.803724
vt 0.522463 0.810534
vt 0.525389 0.810524
vt 0.525389 0.798851
vt 0.524416 0.798851
vt 0.524416 0.810524
vt 0.521494 0.809568
vt 0.521494 0.808596
vt 0.526358 0.808596
vt 0.526358 0.809568
vt 0.522459 0.809547
vt 0.522459 0.797874
vt 0.521486 0.797874
vt 0.521486 0.809547
vt 0.526365 0.809547
vt 0.526365 0.797874
vt 0.525393 0.797874
vt 0.525393 0.809547
vt 0.521494 0.808592
vt 0.521494 0.807619
vt 0.526358 0.807619
vt 0.526358 0.808592
vt 0.523436 0.807610
vt 0.523436 0.803719
vt 0.522463 0.803719
vt 0.522463 0.807610
vt 0.525389 0.807600
vt 0.525389 0.798845
vt 0.524416 0.798845
vt 0.524416 0.807600
vt 0.522467 0.806639
vt 0.522467 0.805666
vt 0.525385 0.805666
vt 0.525385 0.806639
vt 0.521494 0.805662
vt 0.521494 0.804689
vt 0.526358 0.804689
vt 0.526358 0.805662
vt 0.521494 0.805662
vt 0.521494 0.804689
vt 0.526358 0.804689
vt 0.526358 0.805662
vt 0.522459 0.805656
vt 0.522459 0.801765
vt 0.521486 0.801765
vt 0.521486 0.805656
vt 0.526365 0.805653
vt 0.526365 0.799816
vt 0.525393 0.799816
vt 0.525393 0.805653
vt 0.520521 0.804686
vt 0.520521 0.803713
vt 0.527330 0.803713
vt 0.527330 0.804686
vt 0.520521 0.804686
vt 0.520521 0.803713
vt 0.527330 0.803713
vt 0.527330 0.804686
vt 0.521482 0.804676
vt 0.521482 0.798840
vt 0.520510 0.798840
vt 0.520510 0.804676
vt 0.521482 0.804676
vt 0.521482 0.798840
vt 0.520510 0.798840
vt 0.520510 0.804676
vt 0.527342 0.804676
vt 0.527342 0.798840
vt 0.526369 0.798840
vt 0.526369 0.804676
vt 0.527342 0.804676
vt 0.527342 0.798840
vt 0.526369 0.798840
vt 0.526369 0.804676
vt 0.519548 0.803709
vt 0.519548 0.802736
vt 0.528303 0.802736
vt 0.528303 0.803709
vt 0.520506 0.803703
vt 0.520506 0.799812
vt 0.519533 0.799812
vt 0.519533 0.803703
vt 0.520506 0.803703
vt 0.520506 0.799812
vt 0.519533 0.799812
vt 0.519533 0.803703
vt 0.528318 0.803703
vt 0.528318 0.799812
vt 0.527346 0.799812
vt 0.527346 0.803703
vt 0.528318 0.803703
vt 0.528318 0.799812
vt 0.527346 0.799812
vt 0.527346 0.803703
vt 0.521486 0.802732
vt 0.521486 0.801760
vt 0.522459 0.801760
vt 0.522459 0.802732
vt 0.525393 0.801756
vt 0.525393 0.800783
vt 0.526365 0.800783
vt 0.526365 0.801756
vt 0.519548 0.800779
vt 0.519548 0.799807
vt 0.528303 0.799807
vt 0.528303 0.800779
vt 0.520521 0.799803
vt 0.520521 0.798830
vt 0.527330 0.798830
vt 0.527330 0.799803
vt 0.520521 0.799803
vt 0.520521 0.798830
vt 0.527330 0.798830
vt 0.527330 0.799803
vt 0.521494 0.798826
vt 0.521494 0.797853
vt 0.526358 0.797853
vt 0.526358 0.798826
vt 0.521494 0.798826
vt 0.521494 0.797853
vt 0.526358 0.797853
vt 0.526358 0.798826
f 1/1/1 2/2/1 3/3/1 4/4/1
f 5/5/2 6/6/2 7/7/2 8/8/2
f 9/9/3 10/10/3 11/11/3 12/12/3
f 9/13/4 13/14/4 14/15/4 10/16/4
f 11/17/5 15/18/5 16/19/5 12/20/5
f 17/21/3 18/22/3 19/23/3 20/24/3
f 17/25/4 21/26/4 22/27/4 18/28/4
f 19/29/5 23/30/5 24/31/5 20/32/5
f 25/33/6 26/34/6 27/35/6 28/36/6
f 29/37/5 30/38/5 31/39/5 32/40/5
f 33/41/4 34/42/4 35/43/4 36/44/4
f 37/45/6 38/46/6 39/47/6 40/48/6
f 41/49/3 42/50/3 43/51/3 44/52/3
f 45/53/6 46/54/6 47/55/6 48/56/6
f 37/57/5 49/58/5 50/59/5 38/60/5
f 39/61/4 51/62/4 52/63/4 40/64/4
f 53/65/3 54/66/3 55/67/3 56/68/3
f 57/69/6 58/70/6 59/71/6 60/72/6
f 53/73/4 61/74/4 62/75/4 54/76/4
f 45/77/5 63/78/5 64/79/5 46/80/5
f 47/81/4 65/82/4 66/83/4 48/84/4
f 55/85/5 67/86/5 68/87/5 56/88/5
f 69/89/3 70/90/3 71/91/3 72/92/3
f 69/93/4 73/94/4 74/95/4 70/96/4
f 57/97/5 75/98/5 76/99/5 58/100/5
f 59/101/4 77/102/4 78/103/4 60/104/4
f 71/105/5 79/106/5 80/107/5 72/108/5
f 81/109/6 82/110/6 50/111/6 49/112/6
f 83/113/3 84/114/3 85/115/3 86/116/3
f 74/117/6 73/118/6 80/119/6 79/120/6
f 76/121/3 75/122/3 78/123/3 77/124/3
f 62/125/6 61/126/6 68/127/6 67/128/6
f 64/129/3 63/130/3 66/131/3 65/132/3
f 22/133/6 21/134/6 24/135/6 23/136/6
