v 1.000000 1.000000 0.468750
v 1.000000 0.000000 0.468750
v 0.000000 0.000000 0.468750
v 0.000000 1.000000 0.468750
v 0.000000 1.000000 0.531250
v 0.000000 0.000000 0.531250
v 1.000000 0.000000 0.531250
v 1.000000 1.000000 0.531250
v 0.437500 0.812500 0.468750
v 0.437500 0.812500 0.531250
v 0.562500 0.812500 0.531250
v 0.562500 0.812500 0.468750
v 0.437500 0.750000 0.468750
v 0.437500 0.750000 0.531250
v 0.562500 0.750000 0.531250
v 0.562500 0.750000 0.468750
v 0.375000 0.750000 0.468750
v 0.375000 0.750000 0.531250
v 0.625000 0.750000 0.531250
v 0.625000 0.750000 0.468750
v 0.375000 0.125000 0.468750
v 0.375000 0.125000 0.531250
v 0.625000 0.125000 0.531250
v 0.625000 0.125000 0.468750
v 0.312500 0.687500 0.468750
v 0.312500 0.687500 0.531250
v 0.687500 0.687500 0.531250
v 0.687500 0.687500 0.468750
v 0.312500 0.625000 0.468750
v 0.312500 0.625000 0.531250
v 0.687500 0.625000 0.531250
v 0.687500 0.625000 0.468750
v 0.250000 0.625000 0.468750
v 0.250000 0.625000 0.531250
v 0.750000 0.625000 0.531250
v 0.750000 0.625000 0.468750
v 0.250000 0.187500 0.468750
v 0.250000 0.187500 0.531250
v 0.750000 0.187500 0.531250
v 0.750000 0.187500 0.468750
v 0.187500 0.562500 0.468750
v 0.187500 0.562500 0.531250
v 0.812500 0.562500 0.531250
v 0.812500 0.562500 0.468750
v 0.187500 0.250000 0.468750
v 0.187500 0.250000 0.531250
v 0.812500 0.250000 0.531250
v 0.812500 0.250000 0.468750
v 0.125000 0.500000 0.468750
v 0.125000 0.500000 0.531250
v 0.875000 0.500000 0.531250
v 0.875000 0.500000 0.468750
v 0.125000 0.312500 0.468750
v 0.125000 0.312500 0.531250
v 0.875000 0.312500 0.531250
v 0.875000 0.312500 0.468750
vn 0.000000 0.000000 -1.000000
vn 0.000000 0.000000 1.000000
vn 0.000000 1.000000 0.000000
vn -1.000000 0.000000 0.000000
vn 1.000000 0.000000 0.000000
vn 0.000000 -1.000000 0.000000
vt 0.531219 0.718719
vt 0.531219 0.703156
vt 0.515656 0.703156
vt 0.515656 0.718719
vt 0.515656 0.718719
vt 0.515656 0.703156
vt 0.531219 0.703156
vt 0.531219 0.718719
vt 0.522465 0.715818
vt 0.522465 0.714846
vt 0.524410 0.714846
vt 0.524410 0.715818
vt 0.523436 0.715818
vt 0.523436 0.714846
vt 0.522463 0.714846
vt 0.522463 0.715818
vt 0.524412 0.715818
vt 0.524412 0.714846
vt 0.523439 0.714846
vt 0.523439 0.715818
vt 0.521492 0.714842
vt 0.521492 0.713869
vt 0.525383 0.713869
vt 0.525383 0.714842
vt 0.522459 0.714825
vt 0.522459 0.705097
vt 0.521486 0.705097
vt 0.521486 0.714825
vt 0.525389 0.714825
vt 0.525389 0.705097
vt 0.524416 0.705097
vt 0.524416 0.714825
vt 0.520519 0.713865
vt 0.520519 0.712893
vt 0.526356 0.712893
vt 0.526356 0.713865
vt 0.521482 0.713865
vt 0.521482 0.712893
vt 0.520510 0.712893
vt 0.520510 0.713865
vt 0.526365 0.713865
vt 0.526365 0.712893
vt 0.525393 0.712893
vt 0.525393 0.713865
vt 0.519547 0.712889
vt 0.519547 0.711916
vt 0.527328 0.711916
vt 0.527328 0.712889
vt 0.520506 0.712877
vt 0.520506 0.706068
vt 0.519533 0.706068
vt 0.519533 0.712877
vt 0.527342 0.712877
vt 0.527342 0.706068
vt 0.526369 0.706068
vt 0.526369 0.712877
vt 0.518574 0.711912
vt 0.518574 0.710939
vt 0.528301 0.710939
vt 0.528301 0.711912
vt 0.519529 0.711905
vt 0.519529 0.707041
vt 0.518557 0.707041
vt 0.518557 0.711905
vt 0.528318 0.711905
vt 0.528318 0.707041
vt 0.527346 0.707041
vt 0.527346 0.711905
vt 0.517601 0.710936
vt 0.517601 0.709963
vt 0.529274 0.709963
vt 0.529274 0.710936
vt 0.518553 0.710932
vt 0.518553 0.708014
vt 0.517580 0.708014
vt 0.517580 0.710932
vt 0.529295 0.710932
vt 0.529295 0.708014
vt 0.528322 0.708014
vt 0.528322 0.710932
vt 0.517601 0.708982
vt 0.517601 0.708010
vt 0.529274 0.708010
vt 0.529274 0.708982
vt 0.518574 0.708006
vt 0.518574 0.707033
vt 0.528301 0.707033
vt 0.528301 0.708006
vt 0.519547 0.707029
vt 0.519547 0.706057
vt 0.527328 0.706057
vt 0.527328 0.707029
vt 0.521492 0.706053
vt 0.521492 0.705080
vt 0.525383 0.705080
vt 0.525383 0.706053
f 1/1/1 2/2/1 3/3/1 4/4/1
f 5/5/2 6/6/2 7/7/2 8/8/2
f 9/9/3 10/10/3 11/11/3 12/12/3
f 9/13/4 13/14/4 14/15/4 10/16/4
f 11/17/5 15/18/5 16/19/5 12/20/5
f 17/21/3 18/22/3 19/23/3 20/24/3
f 17/25/4 21/26/4 22/27/4 18/28/4
f 19/29/5 23/30/5 24/31/5 20/32/5
f 25/33/3 26/34/3 27/35/3 28/36/3
f 25/37/4 29/38/4 30/39/4 26/40/4
f 27/41/5 31/42/5 32/43/5 28/44/5
f 33/45/3 34/46/3 35/47/3 36/48/3
f 33/49/4 37/50/4 38/51/4 34/52/4
f 35/53/5 39/54/5 40/55/5 36/56/5
f 41/57/3 42/58/3 43/59/3 44/60/3
f 41/61/4 45/62/4 46/63/4 42/64/4
f 43/65/5 47/66/5 48/67/5 44/68/5
f 49/69/3 50/70/3 51/71/3 52/72/3
f 49/73/4 53/74/4 54/75/4 50/76/4
f 51/77/5 55/78/5 56/79/5 52/80/5
f 54/81/6 53/82/6 56/83/6 55/84/6
f 46/85/6 45/86/6 48/87/6 47/88/6
f 38/89/6 37/90/6 40/91/6 39/92/6
f 22/93/6 21/94/6 24/95/6 23/96/6
