v 1.000000 1.000000 0.468750
v 1.000000 0.000000 0.468750
v 0.000000 0.000000 0.468750
v 0.000000 1.000000 0.468750
v 0.000000 1.000000 0.531250
v 0.000000 0.000000 0.531250
v 1.000000 0.000000 0.531250
v 1.000000 1.000000 0.531250
v 0.500000 0.937500 0.468750
v 0.500000 0.937500 0.531250
v 0.687500 0.937500 0.531250
v 0.687500 0.937500 0.468750
v 0.500000 0.062500 0.468750
v 0.500000 0.062500 0.531250
v 0.687500 0.062500 0.531250
v 0.687500 0.062500 0.468750
v 0.437500 0.875000 0.468750
v 0.437500 0.875000 0.531250
v 0.750000 0.875000 0.531250
v 0.750000 0.875000 0.468750
v 0.437500 0.750000 0.468750
v 0.437500 0.750000 0.531250
v 0.750000 0.125000 0.531250
v 0.750000 0.125000 0.468750
v 0.750000 0.812500 0.468750
v 0.750000 0.812500 0.531250
v 0.812500 0.812500 0.531250
v 0.812500 0.812500 0.468750
v 0.812500 0.312500 0.531250
v 0.812500 0.312500 0.468750
v 0.375000 0.750000 0.468750
v 0.375000 0.750000 0.531250
v 0.375000 0.687500 0.468750
v 0.375000 0.687500 0.531250
v 0.437500 0.687500 0.531250
v 0.437500 0.687500 0.468750
v 0.625000 0.687500 0.468750
v 0.625000 0.687500 0.531250
v 0.312500 0.687500 0.468750
v 0.312500 0.687500 0.531250
v 0.875000 0.687500 0.531250
v 0.875000 0.687500 0.468750
v 0.312500 0.625000 0.468750
v 0.312500 0.625000 0.531250
v 0.437500 0.562500 0.531250
v 0.437500 0.562500 0.468750
v 0.562500 0.687500 0.531250
v 0.562500 0.562500 0.531250
v 0.562500 0.562500 0.468750
v 0.562500 0.687500 0.468750
v 0.625000 0.625000 0.531250
v 0.625000 0.625000 0.468750
v 0.687500 0.625000 0.468750
v 0.687500 0.625000 0.531250
v 0.875000 0.375000 0.531250
v 0.875000 0.375000 0.468750
v 0.187500 0.625000 0.468750
v 0.187500 0.625000 0.531250
v 0.187500 0.125000 0.468750
v 0.187500 0.125000 0.531250
v 0.500000 0.562500 0.531250
v 0.500000 0.562500 0.468750
v 0.687500 0.437500 0.468750
v 0.687500 0.437500 0.531250
v 0.125000 0.562500 0.468750
v 0.125000 0.562500 0.531250
v 0.625000 0.562500 0.531250
v 0.625000 0.562500 0.468750
v 0.125000 0.187500 0.468750
v 0.125000 0.187500 0.531250
v 0.500000 0.500000 0.531250
v 0.500000 0.500000 0.468750
v 0.562500 0.500000 0.468750
v 0.562500 0.500000 0.531250
v 0.625000 0.375000 0.531250
v 0.625000 0.375000 0.468750
v 0.062500 0.500000 0.468750
v 0.062500 0.500000 0.531250
v 0.062500 0.250000 0.468750
v 0.062500 0.250000 0.531250
v 0.750000 0.437500 0.468750
v 0.750000 0.437500 0.531250
v 0.750000 0.312500 0.468750
v 0.750000 0.312500 0.531250
v 0.812500 0.375000 0.531250
v 0.812500 0.375000 0.468750
v 0.687500 0.375000 0.531250
v 0.687500 0.375000 0.468750
v 0.125000 0.250000 0.468750
v 0.125000 0.250000 0.531250
v 0.687500 0.312500 0.468750
v 0.687500 0.312500 0.531250
v 0.187500 0.187500 0.468750
v 0.187500 0.187500 0.531250
vn 0.000000 0.000000 -1.000000
vn 0.000000 0.000000 1.000000
vn 0.000000 1.000000 0.000000
vn -1.000000 0.000000 0.000000
vn 1.000000 0.000000 0.000000
vn 0.000000 -1.000000 0.000000
vt 0.531219 0.765594
vt 0.531219 0.750031
vt 0.515656 0.750031
vt 0.515656 0.765594
vt 0.515656 0.765594
vt 0.515656 0.750031
vt 0.531219 0.750031
vt 0.531219 0.765594
vt 0.523443 0.764647
vt 0.523443 0.763674
vt 0.526361 0.763674
vt 0.526361 0.764647
vt 0.524412 0.764622
vt 0.524412 0.751003
vt 0.523439 0.751003
vt 0.523439 0.764622
vt 0.526365 0.764622
vt 0.526365 0.751003
vt 0.525393 0.751003
vt 0.525393 0.764622
vt 0.522470 0.763670
vt 0.522470 0.762697
vt 0.527334 0.762697
vt 0.527334 0.763670
vt 0.523436 0.763668
vt 0.523436 0.761723
vt 0.522463 0.761723
vt 0.522463 0.763668
vt 0.527342 0.763649
vt 0.527342 0.751976
vt 0.526369 0.751976
vt 0.526369 0.763649
vt 0.527346 0.762693
vt 0.527346 0.761721
vt 0.528318 0.761721
vt 0.528318 0.762693
vt 0.528318 0.762680
vt 0.528318 0.754898
vt 0.527346 0.754898
vt 0.527346 0.762680
vt 0.521486 0.761717
vt 0.521486 0.760744
vt 0.522459 0.760744
vt 0.522459 0.761717
vt 0.522459 0.761717
vt 0.522459 0.760744
vt 0.521486 0.760744
vt 0.521486 0.761717
vt 0.522467 0.761717
vt 0.522467 0.760744
vt 0.525385 0.760744
vt 0.525385 0.761717
vt 0.520525 0.760740
vt 0.520525 0.759768
vt 0.529280 0.759768
vt 0.529280 0.760740
vt 0.521482 0.760740
vt 0.521482 0.759768
vt 0.520510 0.759768
vt 0.520510 0.760740
vt 0.522459 0.760738
vt 0.522459 0.758793
vt 0.521486 0.758793
vt 0.521486 0.760738
vt 0.524412 0.760738
vt 0.524412 0.758793
vt 0.523439 0.758793
vt 0.523439 0.760738
vt 0.525393 0.760740
vt 0.525393 0.759768
vt 0.526365 0.759768
vt 0.526365 0.760740
vt 0.526365 0.760740
vt 0.526365 0.759768
vt 0.525393 0.759768
vt 0.525393 0.760740
vt 0.529295 0.760733
vt 0.529295 0.755869
vt 0.528322 0.755869
vt 0.528322 0.760733
vt 0.518559 0.759764
vt 0.518559 0.758791
vt 0.520504 0.758791
vt 0.520504 0.759764
vt 0.519529 0.759750
vt 0.519529 0.751968
vt 0.518557 0.751968
vt 0.518557 0.759750
vt 0.523439 0.759764
vt 0.523439 0.758791
vt 0.524412 0.758791
vt 0.524412 0.759764
vt 0.527342 0.759760
vt 0.527342 0.756842
vt 0.526369 0.756842
vt 0.526369 0.759760
vt 0.517593 0.758787
vt 0.517593 0.757814
vt 0.525375 0.757814
vt 0.525375 0.758787
vt 0.518553 0.758778
vt 0.518553 0.752941
vt 0.517580 0.752941
vt 0.517580 0.758778
vt 0.523436 0.758787
vt 0.523436 0.757814
vt 0.522463 0.757814
vt 0.522463 0.758787
vt 0.525389 0.758787
vt 0.525389 0.757814
vt 0.524416 0.757814
vt 0.524416 0.758787
vt 0.525389 0.758783
vt 0.525389 0.755865
vt 0.524416 0.755865
vt 0.524416 0.758783
vt 0.516617 0.757811
vt 0.516617 0.756838
vt 0.524399 0.756838
vt 0.524399 0.757811
vt 0.517576 0.757805
vt 0.517576 0.753914
vt 0.516603 0.753914
vt 0.516603 0.757805
vt 0.526369 0.757811
vt 0.526369 0.756838
vt 0.527342 0.756838
vt 0.527342 0.757811
vt 0.528318 0.756832
vt 0.528318 0.754887
vt 0.527346 0.754887
vt 0.527346 0.756832
vt 0.528322 0.756834
vt 0.528322 0.755861
vt 0.529295 0.755861
vt 0.529295 0.756834
vt 0.525393 0.755857
vt 0.525393 0.754885
vt 0.526365 0.754885
vt 0.526365 0.755857
vt 0.527346 0.755857
vt 0.527346 0.754885
vt 0.528318 0.754885
vt 0.528318 0.755857
vt 0.516603 0.754881
vt 0.516603 0.753908
vt 0.517576 0.753908
vt 0.517576 0.754881
vt 0.526369 0.754881
vt 0.526369 0.753908
vt 0.527342 0.753908
vt 0.527342 0.754881
vt 0.517580 0.753904
vt 0.517580 0.752932
vt 0.518553 0.752932
vt 0.518553 0.753904
vt 0.518572 0.752928
vt 0.518572 0.751955
vt 0.527327 0.751955
vt 0.527327 0.752928
vt 0.523443 0.751951
vt 0.523443 0.750978
vt 0.526361 0.750978
vt 0.526361 0.751951
f 1/1/1 2/2/1 3/3/1 4/4/1
f 5/5/2 6/6/2 7/7/2 8/8/2
f 9/9/3 10/10/3 11/11/3 12/12/3
f 9/13/4 13/14/4 14/15/4 10/16/4
f 11/17/5 15/18/5 16/19/5 12/20/5
f 17/21/3 18/22/3 19/23/3 20/24/3
f 17/25/4 21/26/4 22/27/4 18/28/4
f 19/29/5 23/30/5 24/31/5 20/32/5
f 25/33/3 26/34/3 27/35/3 28/36/3
f 27/37/5 29/38/5 30/39/5 28/40/5
f 31/41/3 32/42/3 22/43/3 21/44/3
f 31/45/4 33/46/4 34/47/4 32/48/4
f 35/49/6 36/50/6 37/51/6 38/52/6
f 39/53/3 40/54/3 41/55/3 42/56/3
f 39/57/4 43/58/4 44/59/4 40/60/4
f 35/61/5 45/62/5 46/63/5 36/64/5
f 47/65/5 48/66/5 49/67/5 50/68/5
f 51/69/6 52/70/6 53/71/6 54/72/6
f 37/73/4 52/74/4 51/75/4 38/76/4
f 41/77/5 55/78/5 56/79/5 42/80/5
f 57/81/3 58/82/3 44/83/3 43/84/3
f 57/85/4 59/86/4 60/87/4 58/88/4
f 61/89/6 62/90/6 49/91/6 48/92/6
f 53/93/4 63/94/4 64/95/4 54/96/4
f 65/97/3 66/98/3 67/99/3 68/100/3
f 65/101/4 69/102/4 70/103/4 66/104/4
f 61/105/5 71/106/5 72/107/5 62/108/5
f 49/109/4 73/110/4 74/111/4 48/112/4
f 67/113/5 75/114/5 76/115/5 68/116/5
f 77/117/3 78/118/3 74/119/3 73/120/3
f 77/121/4 79/122/4 80/123/4 78/124/4
f 64/125/6 63/126/6 81/127/6 82/128/6
f 81/129/4 83/130/4 84/131/4 82/132/4
f 85/133/6 86/134/6 56/135/6 55/136/6
f 76/137/3 75/138/3 87/139/3 88/140/3
f 84/141/6 83/142/6 30/143/6 29/144/6
f 80/145/6 79/146/6 89/147/6 90/148/6
f 91/149/3 92/150/3 84/151/3 83/152/3
f 70/153/6 69/154/6 93/155/6 94/156/6
f 60/157/6 59/158/6 24/159/6 23/160/6
f 14/161/6 13/162/6 16/163/6 15/164/6
