v 1.000000 1.000000 0.468750
v 1.000000 0.000000 0.468750
v 0.000000 0.000000 0.468750
v 0.000000 1.000000 0.468750
v 0.000000 1.000000 0.531250
v 0.000000 0.000000 0.531250
v 1.000000 0.000000 0.531250
v 1.000000 1.000000 0.531250
v 0.687500 0.812500 0.468750
v 0.687500 0.812500 0.531250
v 0.750000 0.812500 0.531250
v 0.750000 0.812500 0.468750
v 0.687500 0.687500 0.468750
v 0.687500 0.687500 0.531250
v 0.750000 0.375000 0.531250
v 0.750000 0.375000 0.468750
v 0.750000 0.750000 0.468750
v 0.750000 0.750000 0.531250
v 0.875000 0.750000 0.531250
v 0.875000 0.750000 0.468750
v 0.750000 0.687500 0.531250
v 0.750000 0.687500 0.468750
v 0.812500 0.687500 0.468750
v 0.812500 0.687500 0.531250
v 0.875000 0.687500 0.531250
v 0.875000 0.687500 0.468750
v 0.625000 0.687500 0.468750
v 0.625000 0.687500 0.531250
v 0.937500 0.687500 0.531250
v 0.937500 0.687500 0.468750
v 0.625000 0.625000 0.468750
v 0.625000 0.625000 0.531250
v 0.812500 0.625000 0.468750
v 0.812500 0.625000 0.531250
v 0.937500 0.500000 0.531250
v 0.937500 0.500000 0.468750
v 0.562500 0.625000 0.468750
v 0.562500 0.625000 0.531250
v 0.562500 0.500000 0.468750
v 0.562500 0.500000 0.531250
v 0.750000 0.500000 0.531250
v 0.750000 0.500000 0.468750
v 0.125000 0.500000 0.468750
v 0.125000 0.500000 0.531250
v 0.125000 0.437500 0.468750
v 0.125000 0.437500 0.531250
v 0.062500 0.437500 0.468750
v 0.062500 0.437500 0.531250
v 0.062500 0.125000 0.468750
v 0.062500 0.125000 0.531250
v 0.812500 0.375000 0.531250
v 0.812500 0.375000 0.468750
v 0.812500 0.125000 0.531250
v 0.812500 0.125000 0.468750
vn 0.000000 0.000000 -1.000000
vn 0.000000 0.000000 1.000000
vn 0.000000 1.000000 0.000000
vn -1.000000 0.000000 0.000000
vn 1.000000 0.000000 0.000000
vn 0.000000 -1.000000 0.000000
vt 0.531219 0.562469
vt 0.531219 0.546906
vt 0.515656 0.546906
vt 0.515656 0.562469
vt 0.515656 0.562469
vt 0.515656 0.546906
vt 0.531219 0.546906
vt 0.531219 0.562469
vt 0.526369 0.559568
vt 0.526369 0.558596
vt 0.527342 0.558596
vt 0.527342 0.559568
vt 0.527342 0.559566
vt 0.527342 0.557621
vt 0.526369 0.557621
vt 0.526369 0.559566
vt 0.527342 0.559557
vt 0.527342 0.552748
vt 0.526369 0.552748
vt 0.526369 0.559557
vt 0.527348 0.558592
vt 0.527348 0.557619
vt 0.529293 0.557619
vt 0.529293 0.558592
vt 0.527346 0.558592
vt 0.527346 0.557619
vt 0.528318 0.557619
vt 0.528318 0.558592
vt 0.529295 0.558592
vt 0.529295 0.557619
vt 0.528322 0.557619
vt 0.528322 0.558592
vt 0.525400 0.557615
vt 0.525400 0.556643
vt 0.530264 0.556643
vt 0.530264 0.557615
vt 0.526365 0.557615
vt 0.526365 0.556643
vt 0.525393 0.556643
vt 0.525393 0.557615
vt 0.529295 0.557615
vt 0.529295 0.556643
vt 0.528322 0.556643
vt 0.528322 0.557615
vt 0.530272 0.557611
vt 0.530272 0.554693
vt 0.529299 0.554693
vt 0.529299 0.557611
vt 0.524422 0.556639
vt 0.524422 0.555666
vt 0.528313 0.555666
vt 0.528313 0.556639
vt 0.525389 0.556637
vt 0.525389 0.554691
vt 0.524416 0.554691
vt 0.524416 0.556637
vt 0.527349 0.555662
vt 0.527349 0.554689
vt 0.530268 0.554689
vt 0.530268 0.555662
vt 0.517591 0.554686
vt 0.517591 0.553713
vt 0.524401 0.553713
vt 0.524401 0.554686
vt 0.518553 0.554686
vt 0.518553 0.553713
vt 0.517580 0.553713
vt 0.517580 0.554686
vt 0.516603 0.553709
vt 0.516603 0.552736
vt 0.517576 0.552736
vt 0.517576 0.553709
vt 0.517576 0.553701
vt 0.517576 0.548838
vt 0.516603 0.548838
vt 0.516603 0.553701
vt 0.527346 0.552732
vt 0.527346 0.551760
vt 0.528318 0.551760
vt 0.528318 0.552732
vt 0.528318 0.552727
vt 0.528318 0.548836
vt 0.527346 0.548836
vt 0.527346 0.552727
vt 0.516624 0.549803
vt 0.516624 0.548830
vt 0.528297 0.548830
vt 0.528297 0.549803
f 1/1/1 2/2/1 3/3/1 4/4/1
f 5/5/2 6/6/2 7/7/2 8/8/2
f 9/9/3 10/10/3 11/11/3 12/12/3
f 9/13/4 13/14/4 14/15/4 10/16/4
f 11/17/5 15/18/5 16/19/5 12/20/5
f 17/21/3 18/22/3 19/23/3 20/24/3
f 21/25/6 22/26/6 23/27/6 24/28/6
f 19/29/5 25/30/5 26/31/5 20/32/5
f 27/33/3 28/34/3 29/35/3 30/36/3
f 27/37/4 31/38/4 32/39/4 28/40/4
f 23/41/4 33/42/4 34/43/4 24/44/4
f 29/45/5 35/46/5 36/47/5 30/48/5
f 37/49/3 38/50/3 34/51/3 33/52/3
f 37/53/4 39/54/4 40/55/4 38/56/4
f 41/57/6 42/58/6 36/59/6 35/60/6
f 43/61/3 44/62/3 40/63/3 39/64/3
f 43/65/4 45/66/4 46/67/4 44/68/4
f 47/69/3 48/70/3 46/71/3 45/72/3
f 47/73/4 49/74/4 50/75/4 48/76/4
f 16/77/3 15/78/3 51/79/3 52/80/3
f 51/81/5 53/82/5 54/83/5 52/84/5
f 50/85/6 49/86/6 54/87/6 53/88/6
