v 1.000000 1.000000 0.468750
v 1.000000 0.000000 0.468750
v 0.000000 0.000000 0.468750
v 0.000000 1.000000 0.468750
v 0.000000 1.000000 0.531250
v 0.000000 0.000000 0.531250
v 1.000000 0.000000 0.531250
v 1.000000 1.000000 0.531250
v 0.687500 0.875000 0.468750
v 0.687500 0.875000 0.531250
v 0.875000 0.875000 0.531250
v 0.875000 0.875000 0.468750
v 0.687500 0.437500 0.468750
v 0.687500 0.437500 0.531250
v 0.875000 0.562500 0.531250
v 0.875000 0.562500 0.468750
v 0.625000 0.812500 0.468750
v 0.625000 0.812500 0.531250
v 0.937500 0.812500 0.531250
v 0.937500 0.812500 0.468750
v 0.625000 0.750000 0.468750
v 0.625000 0.750000 0.531250
v 0.937500 0.625000 0.531250
v 0.937500 0.625000 0.468750
v 0.562500 0.750000 0.468750
v 0.562500 0.750000 0.531250
v 0.562500 0.562500 0.468750
v 0.562500 0.562500 0.531250
v 0.500000 0.687500 0.468750
v 0.500000 0.687500 0.531250
v 0.562500 0.687500 0.531250
v 0.562500 0.687500 0.468750
v 0.500000 0.625000 0.531250
v 0.500000 0.625000 0.468750
v 0.500000 0.500000 0.468750
v 0.500000 0.500000 0.531250
v 0.812500 0.562500 0.531250
v 0.812500 0.562500 0.468750
v 0.500000 0.562500 0.468750
v 0.500000 0.562500 0.531250
v 0.625000 0.500000 0.531250
v 0.625000 0.500000 0.468750
v 0.812500 0.500000 0.468750
v 0.812500 0.500000 0.531250
v 0.437500 0.500000 0.468750
v 0.437500 0.500000 0.531250
v 0.437500 0.437500 0.468750
v 0.437500 0.437500 0.531250
v 0.562500 0.437500 0.531250
v 0.562500 0.437500 0.468750
v 0.750000 0.437500 0.468750
v 0.750000 0.437500 0.531250
v 0.625000 0.437500 0.531250
v 0.625000 0.437500 0.468750
v 0.750000 0.500000 0.531250
v 0.750000 0.500000 0.468750
v 0.375000 0.437500 0.468750
v 0.375000 0.437500 0.531250
v 0.375000 0.375000 0.468750
v 0.375000 0.375000 0.531250
v 0.500000 0.375000 0.531250
v 0.500000 0.375000 0.468750
v 0.562500 0.375000 0.468750
v 0.562500 0.375000 0.531250
v 0.312500 0.375000 0.468750
v 0.312500 0.375000 0.531250
v 0.312500 0.312500 0.468750
v 0.312500 0.312500 0.531250
v 0.437500 0.312500 0.531250
v 0.437500 0.312500 0.468750
v 0.500000 0.312500 0.468750
v 0.500000 0.312500 0.531250
v 0.250000 0.312500 0.468750
v 0.250000 0.312500 0.531250
v 0.250000 0.250000 0.468750
v 0.250000 0.250000 0.531250
v 0.375000 0.250000 0.531250
v 0.375000 0.250000 0.468750
v 0.437500 0.250000 0.468750
v 0.437500 0.250000 0.531250
v 0.125000 0.250000 0.468750
v 0.125000 0.250000 0.531250
v 0.125000 0.125000 0.468750
v 0.125000 0.125000 0.531250
v 0.312500 0.187500 0.531250
v 0.312500 0.187500 0.468750
v 0.375000 0.187500 0.468750
v 0.375000 0.187500 0.531250
v 0.187500 0.125000 0.468750
v 0.187500 0.125000 0.531250
v 0.312500 0.062500 0.531250
v 0.312500 0.062500 0.468750
v 0.187500 0.062500 0.531250
v 0.187500 0.062500 0.468750
vn 0.000000 0.000000 -1.000000
vn 0.000000 0.000000 1.000000
vn 0.000000 1.000000 0.000000
vn -1.000000 0.000000 0.000000
vn 1.000000 0.000000 0.000000
vn 0.000000 -1.000000 0.000000
vt 0.531219 0.515594
vt 0.531219 0.500031
vt 0.515656 0.500031
vt 0.515656 0.515594
vt 0.515656 0.515594
vt 0.515656 0.500031
vt 0.531219 0.500031
vt 0.531219 0.515594
vt 0.526373 0.513670
vt 0.526373 0.512697
vt 0.529291 0.512697
vt 0.529291 0.513670
vt 0.527342 0.513659
vt 0.527342 0.506849
vt 0.526369 0.506849
vt 0.526369 0.513659
vt 0.529295 0.513662
vt 0.529295 0.508799
vt 0.528322 0.508799
vt 0.528322 0.513662
vt 0.525400 0.512693
vt 0.525400 0.511721
vt 0.530264 0.511721
vt 0.530264 0.512693
vt 0.526365 0.512693
vt 0.526365 0.511721
vt 0.525393 0.511721
vt 0.525393 0.512693
vt 0.530272 0.512690
vt 0.530272 0.509771
vt 0.529299 0.509771
vt 0.529299 0.512690
vt 0.524416 0.511717
vt 0.524416 0.510744
vt 0.525389 0.510744
vt 0.525389 0.511717
vt 0.525389 0.511713
vt 0.525389 0.508795
vt 0.524416 0.508795
vt 0.524416 0.511713
vt 0.523439 0.510740
vt 0.523439 0.509768
vt 0.524412 0.509768
vt 0.524412 0.510740
vt 0.523451 0.510740
vt 0.523451 0.509768
vt 0.530260 0.509768
vt 0.530260 0.510740
vt 0.524412 0.510736
vt 0.524412 0.507818
vt 0.523439 0.507818
vt 0.523439 0.510736
vt 0.528322 0.509764
vt 0.528322 0.508791
vt 0.529295 0.508791
vt 0.529295 0.509764
vt 0.523439 0.508787
vt 0.523439 0.507814
vt 0.524412 0.507814
vt 0.524412 0.508787
vt 0.525396 0.508787
vt 0.525396 0.507814
vt 0.528315 0.507814
vt 0.528315 0.508787
vt 0.528318 0.508787
vt 0.528318 0.507814
vt 0.527346 0.507814
vt 0.527346 0.508787
vt 0.522463 0.507811
vt 0.522463 0.506838
vt 0.523436 0.506838
vt 0.523436 0.507811
vt 0.523436 0.507811
vt 0.523436 0.506838
vt 0.522463 0.506838
vt 0.522463 0.507811
vt 0.524420 0.507811
vt 0.524420 0.506838
vt 0.527338 0.506838
vt 0.527338 0.507811
vt 0.525389 0.507811
vt 0.525389 0.506838
vt 0.524416 0.506838
vt 0.524416 0.507811
vt 0.527342 0.507811
vt 0.527342 0.506838
vt 0.526369 0.506838
vt 0.526369 0.507811
vt 0.521486 0.506834
vt 0.521486 0.505861
vt 0.522459 0.505861
vt 0.522459 0.506834
vt 0.522459 0.506834
vt 0.522459 0.505861
vt 0.521486 0.505861
vt 0.521486 0.506834
vt 0.523439 0.506834
vt 0.523439 0.505861
vt 0.524412 0.505861
vt 0.524412 0.506834
vt 0.524412 0.506834
vt 0.524412 0.505861
vt 0.523439 0.505861
vt 0.523439 0.506834
vt 0.520510 0.505857
vt 0.520510 0.504885
vt 0.521482 0.504885
vt 0.521482 0.505857
vt 0.521482 0.505857
vt 0.521482 0.504885
vt 0.520510 0.504885
vt 0.520510 0.505857
vt 0.522463 0.505857
vt 0.522463 0.504885
vt 0.523436 0.504885
vt 0.523436 0.505857
vt 0.523436 0.505857
vt 0.523436 0.504885
vt 0.522463 0.504885
vt 0.522463 0.505857
vt 0.519533 0.504881
vt 0.519533 0.503908
vt 0.520506 0.503908
vt 0.520506 0.504881
vt 0.520506 0.504881
vt 0.520506 0.503908
vt 0.519533 0.503908
vt 0.519533 0.504881
vt 0.521486 0.504881
vt 0.521486 0.503908
vt 0.522459 0.503908
vt 0.522459 0.504881
vt 0.522459 0.504881
vt 0.522459 0.503908
vt 0.521486 0.503908
vt 0.521486 0.504881
vt 0.517582 0.503904
vt 0.517582 0.502932
vt 0.519527 0.502932
vt 0.519527 0.503904
vt 0.518553 0.503902
vt 0.518553 0.501957
vt 0.517580 0.501957
vt 0.517580 0.503902
vt 0.520510 0.503904
vt 0.520510 0.502932
vt 0.521482 0.502932
vt 0.521482 0.503904
vt 0.521482 0.503904
vt 0.521482 0.502932
vt 0.520510 0.502932
vt 0.520510 0.503904
vt 0.517580 0.502928
vt 0.517580 0.501955
vt 0.518553 0.501955
vt 0.518553 0.502928
vt 0.520506 0.502926
vt 0.520506 0.500980
vt 0.519533 0.500980
vt 0.519533 0.502926
vt 0.518559 0.501951
vt 0.518559 0.500978
vt 0.520504 0.500978
vt 0.520504 0.501951
vt 0.519529 0.501951
vt 0.519529 0.500978
vt 0.518557 0.500978
vt 0.518557 0.501951
f 1/1/1 2/2/1 3/3/1 4/4/1
f 5/5/2 6/6/2 7/7/2 8/8/2
f 9/9/3 10/10/3 11/11/3 12/12/3
f 9/13/4 13/14/4 14/15/4 10/16/4
f 11/17/5 15/18/5 16/19/5 12/20/5
f 17/21/3 18/22/3 19/23/3 20/24/3
f 17/25/4 21/26/4 22/27/4 18/28/4
f 19/29/5 23/30/5 24/31/5 20/32/5
f 25/33/3 26/34/3 22/35/3 21/36/3
f 25/37/4 27/38/4 28/39/4 26/40/4
f 29/41/3 30/42/3 31/43/3 32/44/3
f 33/45/6 34/46/6 24/47/6 23/48/6
f 29/49/4 35/50/4 36/51/4 30/52/4
f 37/53/6 38/54/6 16/55/6 15/56/6
f 39/57/3 40/58/3 28/59/3 27/60/3
f 41/61/6 42/62/6 43/63/6 44/64/6
f 37/65/5 44/66/5 43/67/5 38/68/5
f 45/69/3 46/70/3 36/71/3 35/72/3
f 45/73/4 47/74/4 48/75/4 46/76/4
f 49/77/6 50/78/6 51/79/6 52/80/6
f 41/81/5 53/82/5 54/83/5 42/84/5
f 55/85/5 52/86/5 51/87/5 56/88/5
f 57/89/3 58/90/3 48/91/3 47/92/3
f 57/93/4 59/94/4 60/95/4 58/96/4
f 61/97/6 62/98/6 63/99/6 64/100/6
f 49/101/5 64/102/5 63/103/5 50/104/5
f 65/105/3 66/106/3 60/107/3 59/108/3
f 65/109/4 67/110/4 68/111/4 66/112/4
f 69/113/6 70/114/6 71/115/6 72/116/6
f 61/117/5 72/118/5 71/119/5 62/120/5
f 73/121/3 74/122/3 68/123/3 67/124/3
f 73/125/4 75/126/4 76/127/4 74/128/4
f 77/129/6 78/130/6 79/131/6 80/132/6
f 69/133/5 80/134/5 79/135/5 70/136/5
f 81/137/3 82/138/3 76/139/3 75/140/3
f 81/141/4 83/142/4 84/143/4 82/144/4
f 85/145/6 86/146/6 87/147/6 88/148/6
f 77/149/5 88/150/5 87/151/5 78/152/5
f 84/153/6 83/154/6 89/155/6 90/156/6
f 85/157/5 91/158/5 92/159/5 86/160/5
f 93/161/6 94/162/6 92/163/6 91/164/6
f 89/165/4 94/166/4 93/167/4 90/168/4
