v 1.000000 1.000000 0.468750
v 1.000000 0.000000 0.468750
v 0.000000 0.000000 0.468750
v 0.000000 1.000000 0.468750
v 0.000000 1.000000 0.531250
v 0.000000 0.000000 0.531250
v 1.000000 0.000000 0.531250
v 1.000000 1.000000 0.531250
v 0.625000 0.875000 0.468750
v 0.625000 0.875000 0.531250
v 0.750000 0.875000 0.531250
v 0.750000 0.875000 0.468750
v 0.625000 0.812500 0.468750
v 0.625000 0.812500 0.531250
v 0.750000 0.812500 0.531250
v 0.750000 0.812500 0.468750
v 0.437500 0.812500 0.468750
v 0.437500 0.812500 0.531250
v 0.812500 0.812500 0.531250
v 0.812500 0.812500 0.468750
v 0.437500 0.750000 0.468750
v 0.437500 0.750000 0.531250
v 0.812500 0.250000 0.531250
v 0.812500 0.250000 0.468750
v 0.250000 0.750000 0.468750
v 0.250000 0.750000 0.531250
v 0.875000 0.750000 0.531250
v 0.875000 0.750000 0.468750
v 0.250000 0.687500 0.468750
v 0.250000 0.687500 0.531250
v 0.875000 0.687500 0.531250
v 0.875000 0.687500 0.468750
v 0.062500 0.687500 0.468750
v 0.062500 0.687500 0.531250
v 0.937500 0.687500 0.531250
v 0.937500 0.687500 0.468750
v 0.062500 0.250000 0.468750
v 0.062500 0.250000 0.531250
v 0.937500 0.312500 0.531250
v 0.937500 0.312500 0.468750
v 0.000000 0.625000 0.468750
v 0.000000 0.625000 0.531250
v 1.000000 0.625000 0.531250
v 1.000000 0.625000 0.468750
v 0.000000 0.312500 0.468750
v 0.000000 0.312500 0.531250
v 1.000000 0.375000 0.531250
v 1.000000 0.375000 0.468750
v 0.937500 0.375000 0.531250
v 0.937500 0.375000 0.468750
v 0.125000 0.187500 0.531250
v 0.125000 0.187500 0.468750
v 0.625000 0.187500 0.468750
v 0.625000 0.187500 0.531250
v 0.125000 0.250000 0.468750
v 0.125000 0.250000 0.531250
v 0.625000 0.250000 0.531250
v 0.625000 0.250000 0.468750
v 0.187500 0.125000 0.531250
v 0.187500 0.125000 0.468750
v 0.437500 0.125000 0.468750
v 0.437500 0.125000 0.531250
v 0.187500 0.187500 0.468750
v 0.187500 0.187500 0.531250
v 0.437500 0.187500 0.531250
v 0.437500 0.187500 0.468750
vn 0.000000 0.000000 -1.000000
vn 0.000000 0.000000 1.000000
vn 0.000000 1.000000 0.000000
vn -1.000000 0.000000 0.000000
vn 1.000000 0.000000 0.000000
vn 0.000000 -1.000000 0.000000
vt 0.531219 0.703094
vt 0.531219 0.687531
vt 0.515656 0.687531
vt 0.515656 0.703094
vt 0.515656 0.703094
vt 0.515656 0.687531
vt 0.531219 0.687531
vt 0.531219 0.703094
vt 0.525394 0.701170
vt 0.525394 0.700197
vt 0.527340 0.700197
vt 0.527340 0.701170
vt 0.526365 0.701170
vt 0.526365 0.700197
vt 0.525393 0.700197
vt 0.525393 0.701170
vt 0.527342 0.701170
vt 0.527342 0.700197
vt 0.526369 0.700197
vt 0.526369 0.701170
vt 0.522472 0.700193
vt 0.522472 0.699221
vt 0.528309 0.699221
vt 0.528309 0.700193
vt 0.523436 0.700193
vt 0.523436 0.699221
vt 0.522463 0.699221
vt 0.522463 0.700193
vt 0.528318 0.700178
vt 0.528318 0.691423
vt 0.527346 0.691423
vt 0.527346 0.700178
vt 0.519550 0.699217
vt 0.519550 0.698244
vt 0.529278 0.698244
vt 0.529278 0.699217
vt 0.520506 0.699217
vt 0.520506 0.698244
vt 0.519533 0.698244
vt 0.519533 0.699217
vt 0.529295 0.699217
vt 0.529295 0.698244
vt 0.528322 0.698244
vt 0.528322 0.699217
vt 0.516628 0.698240
vt 0.516628 0.697268
vt 0.530247 0.697268
vt 0.530247 0.698240
vt 0.517576 0.698229
vt 0.517576 0.691420
vt 0.516603 0.691420
vt 0.516603 0.698229
vt 0.530272 0.698231
vt 0.530272 0.692394
vt 0.529299 0.692394
vt 0.529299 0.698231
vt 0.515656 0.697264
vt 0.515656 0.696291
vt 0.531219 0.696291
vt 0.531219 0.697264
vt 0.516600 0.697256
vt 0.516600 0.692392
vt 0.515627 0.692392
vt 0.515627 0.697256
vt 0.531248 0.697258
vt 0.531248 0.693367
vt 0.530275 0.693367
vt 0.530275 0.697258
vt 0.530275 0.694334
vt 0.530275 0.693361
vt 0.531248 0.693361
vt 0.531248 0.694334
vt 0.515654 0.693357
vt 0.515654 0.692385
vt 0.530245 0.692385
vt 0.530245 0.693357
vt 0.516624 0.692381
vt 0.516624 0.691408
vt 0.528297 0.691408
vt 0.528297 0.692381
vt 0.517593 0.691404
vt 0.517593 0.690432
vt 0.525375 0.690432
vt 0.525375 0.691404
vt 0.518553 0.691404
vt 0.518553 0.690432
vt 0.517580 0.690432
vt 0.517580 0.691404
vt 0.525389 0.691404
vt 0.525389 0.690432
vt 0.524416 0.690432
vt 0.524416 0.691404
vt 0.518562 0.690428
vt 0.518562 0.689455
vt 0.522453 0.689455
vt 0.522453 0.690428
vt 0.519529 0.690428
vt 0.519529 0.689455
vt 0.518557 0.689455
vt 0.518557 0.690428
vt 0.522459 0.690428
vt 0.522459 0.689455
vt 0.521486 0.689455
vt 0.521486 0.690428
f 1/1/1 2/2/1 3/3/1 4/4/1
f 5/5/2 6/6/2 7/7/2 8/8/2
f 9/9/3 10/10/3 11/11/3 12/12/3
f 9/13/4 13/14/4 14/15/4 10/16/4
f 11/17/5 15/18/5 16/19/5 12/20/5
f 17/21/3 18/22/3 19/23/3 20/24/3
f 17/25/4 21/26/4 22/27/4 18/28/4
f 19/29/5 23/30/5 24/31/5 20/32/5
f 25/33/3 26/34/3 27/35/3 28/36/3
f 25/37/4 29/38/4 30/39/4 26/40/4
f 27/41/5 31/42/5 32/43/5 28/44/5
f 33/45/3 34/46/3 35/47/3 36/48/3
f 33/49/4 37/50/4 38/51/4 34/52/4
f 35/53/5 39/54/5 40/55/5 36/56/5
f 41/57/3 42/58/3 43/59/3 44/60/3
f 41/61/4 45/62/4 46/63/4 42/64/4
f 43/65/5 47/66/5 48/67/5 44/68/5
f 49/69/6 50/70/6 48/71/6 47/72/6
f 46/73/6 45/74/6 40/75/6 39/76/6
f 38/77/6 37/78/6 24/79/6 23/80/6
f 51/81/6 52/82/6 53/83/6 54/84/6
f 55/85/4 52/86/4 51/87/4 56/88/4
f 57/89/5 54/90/5 53/91/5 58/92/5
f 59/93/6 60/94/6 61/95/6 62/96/6
f 63/97/4 60/98/4 59/99/4 64/100/4
f 65/101/5 62/102/5 61/103/5 66/104/5
