v 1.000000 1.000000 0.468750
v 1.000000 0.000000 0.468750
v 0.000000 0.000000 0.468750
v 0.000000 1.000000 0.468750
v 0.000000 1.000000 0.531250
v 0.000000 0.000000 0.531250
v 1.000000 0.000000 0.531250
v 1.000000 1.000000 0.531250
v 0.000000 0.937500 0.531250
v 0.000000 0.937500 0.468750
v 0.812500 0.937500 0.468750
v 0.812500 0.937500 0.531250
v 0.062500 1.000000 0.531250
v 0.062500 0.937500 0.531250
v 0.062500 0.937500 0.468750
v 0.062500 1.000000 0.468750
v 0.125000 1.000000 0.468750
v 0.125000 0.500000 0.468750
v 0.125000 0.500000 0.531250
v 0.125000 1.000000 0.531250
v 0.187500 1.000000 0.531250
v 0.187500 0.500000 0.531250
v 0.187500 0.500000 0.468750
v 0.187500 1.000000 0.468750
v 0.250000 1.000000 0.468750
v 0.250000 0.687500 0.468750
v 0.250000 0.687500 0.531250
v 0.250000 1.000000 0.531250
v 0.312500 1.000000 0.531250
v 0.312500 0.625000 0.531250
v 0.312500 0.625000 0.468750
v 0.312500 1.000000 0.468750
v 0.375000 1.000000 0.468750
v 0.375000 0.875000 0.468750
v 0.375000 0.875000 0.531250
v 0.375000 1.000000 0.531250
v 0.562500 1.000000 0.531250
v 0.562500 0.312500 0.531250
v 0.562500 0.312500 0.468750
v 0.562500 1.000000 0.468750
v 0.625000 1.000000 0.468750
v 0.625000 0.687500 0.468750
v 0.625000 0.687500 0.531250
v 0.625000 1.000000 0.531250
v 0.687500 1.000000 0.531250
v 0.687500 0.937500 0.531250
v 0.687500 0.937500 0.468750
v 0.687500 1.000000 0.468750
v 0.750000 1.000000 0.468750
v 0.750000 0.500000 0.468750
v 0.750000 0.500000 0.531250
v 0.750000 1.000000 0.531250
v 0.875000 1.000000 0.531250
v 0.875000 0.437500 0.531250
v 0.875000 0.437500 0.468750
v 0.875000 1.000000 0.468750
v 0.937500 1.000000 0.468750
v 0.937500 0.562500 0.468750
v 0.937500 0.562500 0.531250
v 0.937500 1.000000 0.531250
v 1.000000 0.562500 0.531250
v 1.000000 0.562500 0.468750
v 0.750000 0.937500 0.531250
v 0.750000 0.937500 0.468750
v 0.062500 0.875000 0.531250
v 0.062500 0.875000 0.468750
v 1.000000 0.875000 0.468750
v 1.000000 0.875000 0.531250
v 0.062500 0.687500 0.468750
v 0.062500 0.687500 0.531250
v 0.250000 0.937500 0.531250
v 0.250000 0.562500 0.531250
v 0.250000 0.562500 0.468750
v 0.250000 0.937500 0.468750
v 0.500000 0.937500 0.531250
v 0.500000 0.375000 0.531250
v 0.500000 0.375000 0.468750
v 0.500000 0.937500 0.468750
v 0.750000 0.375000 0.531250
v 0.750000 0.375000 0.468750
v 0.812500 0.437500 0.468750
v 0.812500 0.437500 0.531250
v 0.187500 0.875000 0.468750
v 0.187500 0.625000 0.468750
v 0.187500 0.625000 0.531250
v 0.187500 0.875000 0.531250
v 0.312500 0.875000 0.468750
v 0.312500 0.875000 0.531250
v 0.937500 0.875000 0.531250
v 0.937500 0.875000 0.468750
v 0.312500 0.437500 0.468750
v 0.312500 0.437500 0.531250
v 0.375000 0.812500 0.531250
v 0.375000 0.812500 0.468750
v 0.875000 0.812500 0.468750
v 0.875000 0.812500 0.531250
v 0.562500 0.875000 0.468750
v 0.562500 0.562500 0.468750
v 0.562500 0.562500 0.531250
v 0.562500 0.875000 0.531250
v 0.625000 0.875000 0.531250
v 0.625000 0.500000 0.531250
v 0.625000 0.500000 0.468750
v 0.625000 0.875000 0.468750
v 0.687500 0.875000 0.468750
v 0.687500 0.375000 0.468750
v 0.687500 0.375000 0.531250
v 0.687500 0.875000 0.531250
v 0.937500 0.625000 0.531250
v 0.937500 0.625000 0.468750
v 0.062500 0.812500 0.468750
v 0.062500 0.812500 0.531250
v 0.812500 0.812500 0.531250
v 0.812500 0.812500 0.468750
v 0.125000 0.750000 0.531250
v 0.125000 0.750000 0.468750
v 0.812500 0.750000 0.468750
v 0.812500 0.750000 0.531250
v 0.375000 0.437500 0.531250
v 0.375000 0.437500 0.468750
v 0.437500 0.812500 0.468750
v 0.437500 0.375000 0.468750
v 0.437500 0.375000 0.531250
v 0.437500 0.812500 0.531250
v 0.812500 0.562500 0.531250
v 0.812500 0.562500 0.468750
v 0.875000 0.625000 0.468750
v 0.875000 0.625000 0.531250
v 0.687500 0.687500 0.468750
v 0.687500 0.687500 0.531250
v 0.125000 0.687500 0.531250
v 0.125000 0.687500 0.468750
v 0.625000 0.750000 0.468750
v 0.625000 0.750000 0.531250
v 0.687500 0.750000 0.531250
v 0.687500 0.750000 0.468750
v 0.187500 0.687500 0.468750
v 0.187500 0.687500 0.531250
v 0.250000 0.625000 0.531250
v 0.250000 0.625000 0.468750
v 0.125000 0.625000 0.468750
v 0.125000 0.625000 0.531250
v 1.000000 0.625000 0.531250
v 1.000000 0.625000 0.468750
v 0.187500 0.562500 0.531250
v 0.187500 0.562500 0.468750
v 0.812500 0.500000 0.468750
v 0.812500 0.500000 0.531250
v 0.500000 0.562500 0.468750
v 0.500000 0.562500 0.531250
v 0.875000 0.562500 0.531250
v 0.875000 0.562500 0.468750
v 0.500000 0.312500 0.468750
v 0.500000 0.312500 0.531250
v 0.437500 0.500000 0.468750
v 0.437500 0.500000 0.531250
v 0.562500 0.375000 0.531250
v 0.562500 0.375000 0.468750
vn 0.000000 0.000000 -1.000000
vn 0.000000 0.000000 1.000000
vn 0.000000 1.000000 0.000000
vn 0.000000 -1.000000 0.000000
vn -1.000000 0.000000 0.000000
vn 1.000000 0.000000 0.000000
vt 0.421844 0.937469
vt 0.421844 0.921906
vt 0.406281 0.921906
vt 0.406281 0.937469
vt 0.406281 0.937469
vt 0.406281 0.921906
vt 0.421844 0.921906
vt 0.421844 0.937469
vt 0.406281 0.937498
vt 0.406281 0.936525
vt 0.421844 0.936525
vt 0.421844 0.937498
vt 0.406275 0.937498
vt 0.406275 0.936525
vt 0.418921 0.936525
vt 0.418921 0.937498
vt 0.407225 0.937498
vt 0.407225 0.936525
vt 0.406252 0.936525
vt 0.406252 0.937498
vt 0.407225 0.937498
vt 0.407225 0.936525
vt 0.406252 0.936525
vt 0.406252 0.937498
vt 0.409178 0.937485
vt 0.409178 0.929703
vt 0.408205 0.929703
vt 0.408205 0.937485
vt 0.409178 0.937485
vt 0.409178 0.929703
vt 0.408205 0.929703
vt 0.408205 0.937485
vt 0.411131 0.937490
vt 0.411131 0.932627
vt 0.410158 0.932627
vt 0.410158 0.937490
vt 0.411131 0.937489
vt 0.411131 0.931652
vt 0.410158 0.931652
vt 0.410158 0.937489
vt 0.413084 0.937496
vt 0.413084 0.935551
vt 0.412111 0.935551
vt 0.412111 0.937496
vt 0.415037 0.937479
vt 0.415037 0.926779
vt 0.414064 0.926779
vt 0.414064 0.937479
vt 0.416990 0.937490
vt 0.416990 0.932627
vt 0.416018 0.932627
vt 0.416018 0.937490
vt 0.416990 0.937498
vt 0.416990 0.936525
vt 0.416018 0.936525
vt 0.416018 0.937498
vt 0.418943 0.937485
vt 0.418943 0.929703
vt 0.417971 0.929703
vt 0.417971 0.937485
vt 0.419920 0.937483
vt 0.419920 0.928728
vt 0.418947 0.928728
vt 0.418947 0.937483
vt 0.421873 0.937487
vt 0.421873 0.930677
vt 0.420900 0.930677
vt 0.420900 0.937487
vt 0.421873 0.937487
vt 0.421873 0.930677
vt 0.420900 0.930677
vt 0.420900 0.937487
vt 0.407248 0.936522
vt 0.407248 0.935549
vt 0.417948 0.935549
vt 0.417948 0.936522
vt 0.407255 0.936522
vt 0.407255 0.935549
vt 0.421846 0.935549
vt 0.421846 0.936522
vt 0.408201 0.936516
vt 0.408201 0.932625
vt 0.407228 0.932625
vt 0.407228 0.936516
vt 0.410154 0.936512
vt 0.410154 0.930676
vt 0.409182 0.930676
vt 0.409182 0.936512
vt 0.414061 0.936506
vt 0.414061 0.927752
vt 0.413088 0.927752
vt 0.413088 0.936506
vt 0.417967 0.936506
vt 0.417967 0.927752
vt 0.416994 0.927752
vt 0.416994 0.936506
vt 0.419920 0.936508
vt 0.419920 0.928726
vt 0.418947 0.928726
vt 0.418947 0.936508
vt 0.410154 0.935539
vt 0.410154 0.931648
vt 0.409182 0.931648
vt 0.409182 0.935539
vt 0.411152 0.935545
vt 0.411152 0.934572
vt 0.420879 0.934572
vt 0.420879 0.935545
vt 0.412107 0.935534
vt 0.412107 0.928724
vt 0.411135 0.928724
vt 0.411135 0.935534
vt 0.412125 0.935545
vt 0.412125 0.934572
vt 0.419907 0.934572
vt 0.419907 0.935545
vt 0.416014 0.935537
vt 0.416014 0.930674
vt 0.415041 0.930674
vt 0.415041 0.935537
vt 0.416014 0.935535
vt 0.416014 0.929699
vt 0.415041 0.929699
vt 0.415041 0.935535
vt 0.417967 0.935532
vt 0.417967 0.927750
vt 0.416994 0.927750
vt 0.416994 0.935532
vt 0.420897 0.935539
vt 0.420897 0.931648
vt 0.419924 0.931648
vt 0.419924 0.935539
vt 0.407249 0.934568
vt 0.407249 0.933596
vt 0.418922 0.933596
vt 0.418922 0.934568
vt 0.408224 0.934568
vt 0.408224 0.933596
vt 0.418924 0.933596
vt 0.418924 0.934568
vt 0.412107 0.934559
vt 0.412107 0.928722
vt 0.411135 0.928722
vt 0.411135 0.934559
vt 0.414061 0.934557
vt 0.414061 0.927748
vt 0.413088 0.927748
vt 0.413088 0.934557
vt 0.418943 0.934563
vt 0.418943 0.930672
vt 0.417971 0.930672
vt 0.417971 0.934563
vt 0.420897 0.934565
vt 0.420897 0.931646
vt 0.419924 0.931646
vt 0.419924 0.934565
vt 0.407246 0.933592
vt 0.407246 0.932619
vt 0.416973 0.932619
vt 0.416973 0.933592
vt 0.408201 0.933592
vt 0.408201 0.932619
vt 0.407228 0.932619
vt 0.407228 0.933592
vt 0.416018 0.933592
vt 0.416018 0.932619
vt 0.416990 0.932619
vt 0.416990 0.933592
vt 0.409193 0.932615
vt 0.409193 0.931643
vt 0.416002 0.931643
vt 0.416002 0.932615
vt 0.410177 0.932615
vt 0.410177 0.931643
vt 0.420877 0.931643
vt 0.420877 0.932615
vt 0.408230 0.931639
vt 0.408230 0.930666
vt 0.421848 0.930666
vt 0.421848 0.931639
vt 0.409204 0.931639
vt 0.409204 0.930666
vt 0.421850 0.930666
vt 0.421850 0.931639
vt 0.408224 0.930662
vt 0.408224 0.929689
vt 0.418924 0.929689
vt 0.418924 0.930662
vt 0.414074 0.930662
vt 0.414074 0.929689
vt 0.419910 0.929689
vt 0.419910 0.930662
vt 0.415037 0.930656
vt 0.415037 0.926765
vt 0.414064 0.926765
vt 0.414064 0.930656
vt 0.411150 0.929686
vt 0.411150 0.928713
vt 0.419905 0.928713
vt 0.419905 0.929686
vt 0.413095 0.929686
vt 0.413095 0.928713
vt 0.417959 0.928713
vt 0.417959 0.929686
vt 0.413095 0.928709
vt 0.413095 0.927736
vt 0.417959 0.927736
vt 0.417959 0.928709
vt 0.414064 0.927732
vt 0.414064 0.926760
vt 0.415037 0.926760
vt 0.415037 0.927732
vt 0.414064 0.927732
vt 0.414064 0.926760
vt 0.415037 0.926760
vt 0.415037 0.927732
f 1/1/1 2/2/1 3/3/1 4/4/1
f 5/5/2 6/6/2 7/7/2 8/8/2
f 4/9/3 5/10/3 8/11/3 1/12/3
f 9/13/4 10/14/4 11/15/4 12/16/4
f 4/17/5 10/18/5 9/19/5 5/20/5
f 13/21/6 14/22/6 15/23/6 16/24/6
f 17/25/5 18/26/5 19/27/5 20/28/5
f 21/29/6 22/30/6 23/31/6 24/32/6
f 25/33/5 26/34/5 27/35/5 28/36/5
f 29/37/6 30/38/6 31/39/6 32/40/6
f 33/41/5 34/42/5 35/43/5 36/44/5
f 37/45/6 38/46/6 39/47/6 40/48/6
f 41/49/5 42/50/5 43/51/5 44/52/5
f 45/53/6 46/54/6 47/55/6 48/56/6
f 49/57/5 50/58/5 51/59/5 52/60/5
f 53/61/6 54/62/6 55/63/6 56/64/6
f 57/65/5 58/66/5 59/67/5 60/68/5
f 8/69/6 61/70/6 62/71/6 1/72/6
f 15/73/3 14/74/3 63/75/3 64/76/3
f 65/77/4 66/78/4 67/79/4 68/80/4
f 15/81/5 69/82/5 70/83/5 14/84/5
f 71/85/6 72/86/6 73/87/6 74/88/6
f 75/89/6 76/90/6 77/91/6 78/92/6
f 63/93/6 79/94/6 80/95/6 64/96/6
f 11/97/5 81/98/5 82/99/5 12/100/5
f 83/101/5 84/102/5 85/103/5 86/104/5
f 87/105/3 88/106/3 89/107/3 90/108/3
f 87/109/5 91/110/5 92/111/5 88/112/5
f 93/113/4 94/114/4 95/115/4 96/116/4
f 97/117/5 98/118/5 99/119/5 100/120/5
f 101/121/6 102/122/6 103/123/6 104/124/6
f 105/125/5 106/126/5 107/127/5 108/128/5
f 89/129/6 109/130/6 110/131/6 90/132/6
f 111/133/3 112/134/3 113/135/3 114/136/3
f 115/137/4 116/138/4 117/139/4 118/140/4
f 93/141/6 119/142/6 120/143/6 94/144/6
f 121/145/5 122/146/5 123/147/5 124/148/5
f 113/149/6 125/150/6 126/151/6 114/152/6
f 95/153/5 127/154/5 128/155/5 96/156/5
f 70/157/4 69/158/4 129/159/4 130/160/4
f 115/161/6 131/162/6 132/163/6 116/164/6
f 133/165/3 134/166/3 135/167/3 136/168/3
f 137/169/3 138/170/3 43/171/3 42/172/3
f 139/173/4 140/174/4 110/175/4 109/176/4
f 141/177/3 142/178/3 143/179/3 144/180/3
f 145/181/4 146/182/4 62/183/4 61/184/4
f 19/185/4 18/186/4 147/187/4 148/188/4
f 149/189/3 150/190/3 151/191/3 152/192/3
f 149/193/5 153/194/5 154/195/5 150/196/5
f 92/197/4 91/198/4 55/199/4 54/200/4
f 155/201/3 156/202/3 51/203/3 50/204/3
f 123/205/4 122/206/4 80/207/4 79/208/4
f 77/209/3 76/210/3 157/211/3 158/212/3
f 154/213/4 153/214/4 39/215/4 38/216/4
