v 1.000000 1.000000 0.468750
v 1.000000 0.000000 0.468750
v 0.000000 0.000000 0.468750
v 0.000000 1.000000 0.468750
v 0.000000 1.000000 0.531250
v 0.000000 0.000000 0.531250
v 1.000000 0.000000 0.531250
v 1.000000 1.000000 0.531250
v 0.375000 1.000000 0.468750
v 0.375000 1.000000 0.531250
v 0.500000 1.000000 0.531250
v 0.500000 1.000000 0.468750
v 0.375000 0.937500 0.468750
v 0.375000 0.937500 0.531250
v 0.500000 0.937500 0.531250
v 0.500000 0.937500 0.468750
v 0.312500 0.937500 0.468750
v 0.312500 0.937500 0.531250
v 0.562500 0.937500 0.531250
v 0.562500 0.937500 0.468750
v 0.312500 0.875000 0.468750
v 0.312500 0.875000 0.531250
v 0.562500 0.062500 0.531250
v 0.562500 0.062500 0.468750
v 0.250000 0.875000 0.468750
v 0.250000 0.875000 0.531250
v 0.750000 0.875000 0.531250
v 0.750000 0.875000 0.468750
v 0.250000 0.125000 0.468750
v 0.250000 0.125000 0.531250
v 0.750000 0.187500 0.531250
v 0.750000 0.187500 0.468750
v 0.187500 0.812500 0.468750
v 0.187500 0.812500 0.531250
v 0.812500 0.812500 0.531250
v 0.812500 0.812500 0.468750
v 0.187500 0.187500 0.468750
v 0.187500 0.187500 0.531250
v 0.812500 0.250000 0.531250
v 0.812500 0.250000 0.468750
v 0.125000 0.750000 0.468750
v 0.125000 0.750000 0.531250
v 0.875000 0.750000 0.531250
v 0.875000 0.750000 0.468750
v 0.125000 0.250000 0.468750
v 0.125000 0.250000 0.531250
v 0.875000 0.312500 0.531250
v 0.875000 0.312500 0.468750
v 0.062500 0.687500 0.468750
v 0.062500 0.687500 0.531250
v 0.125000 0.687500 0.531250
v 0.125000 0.687500 0.468750
v 0.062500 0.500000 0.468750
v 0.062500 0.500000 0.531250
v 0.812500 0.562500 0.531250
v 0.812500 0.562500 0.468750
v 0.875000 0.562500 0.468750
v 0.875000 0.562500 0.531250
v 0.125000 0.500000 0.468750
v 0.125000 0.500000 0.531250
v 0.125000 0.437500 0.531250
v 0.125000 0.437500 0.468750
v 0.187500 0.437500 0.468750
v 0.187500 0.437500 0.531250
v 0.812500 0.500000 0.468750
v 0.812500 0.500000 0.531250
v 0.875000 0.500000 0.531250
v 0.875000 0.500000 0.468750
v 0.125000 0.375000 0.468750
v 0.125000 0.375000 0.531250
v 0.187500 0.375000 0.531250
v 0.187500 0.375000 0.468750
v 0.812500 0.312500 0.531250
v 0.812500 0.312500 0.468750
v 0.687500 0.125000 0.468750
v 0.687500 0.125000 0.531250
v 0.687500 0.187500 0.531250
v 0.687500 0.187500 0.468750
v 0.437500 0.062500 0.531250
v 0.437500 0.062500 0.468750
v 0.437500 0.125000 0.468750
v 0.437500 0.125000 0.531250
vn 0.000000 0.000000 -1.000000
vn 0.000000 0.000000 1.000000
vn 0.000000 1.000000 0.000000
vn -1.000000 0.000000 0.000000
vn 1.000000 0.000000 0.000000
vn 0.000000 -1.000000 0.000000
vt 0.546844 0.890594
vt 0.546844 0.875031
vt 0.531281 0.875031
vt 0.531281 0.890594
vt 0.531281 0.890594
vt 0.531281 0.875031
vt 0.546844 0.875031
vt 0.546844 0.890594
vt 0.537113 0.890623
vt 0.537113 0.889650
vt 0.539059 0.889650
vt 0.539059 0.890623
vt 0.538084 0.890623
vt 0.538084 0.889650
vt 0.537111 0.889650
vt 0.537111 0.890623
vt 0.539061 0.890623
vt 0.539061 0.889650
vt 0.538088 0.889650
vt 0.538088 0.890623
vt 0.536140 0.889647
vt 0.536140 0.888674
vt 0.540031 0.888674
vt 0.540031 0.889647
vt 0.537107 0.889647
vt 0.537107 0.888674
vt 0.536135 0.888674
vt 0.536135 0.889647
vt 0.540037 0.889622
vt 0.540037 0.876003
vt 0.539064 0.876003
vt 0.539064 0.889622
vt 0.535172 0.888670
vt 0.535172 0.887697
vt 0.542953 0.887697
vt 0.542953 0.888670
vt 0.536131 0.888649
vt 0.536131 0.876976
vt 0.535158 0.876976
vt 0.535158 0.888649
vt 0.542967 0.888651
vt 0.542967 0.877951
vt 0.541994 0.877951
vt 0.541994 0.888651
vt 0.534199 0.887693
vt 0.534199 0.886721
vt 0.543926 0.886721
vt 0.543926 0.887693
vt 0.535154 0.887676
vt 0.535154 0.877949
vt 0.534182 0.877949
vt 0.534182 0.887676
vt 0.543943 0.887678
vt 0.543943 0.878923
vt 0.542971 0.878923
vt 0.542971 0.887678
vt 0.533226 0.886717
vt 0.533226 0.885744
vt 0.544899 0.885744
vt 0.544899 0.886717
vt 0.534178 0.886703
vt 0.534178 0.878922
vt 0.533205 0.878922
vt 0.533205 0.886703
vt 0.544920 0.886705
vt 0.544920 0.879896
vt 0.543947 0.879896
vt 0.543947 0.886705
vt 0.532228 0.885740
vt 0.532228 0.884768
vt 0.533201 0.884768
vt 0.533201 0.885740
vt 0.533201 0.885736
vt 0.533201 0.882818
vt 0.532228 0.882818
vt 0.532228 0.885736
vt 0.543947 0.884764
vt 0.543947 0.883791
vt 0.544920 0.883791
vt 0.544920 0.884764
vt 0.532228 0.883787
vt 0.532228 0.882814
vt 0.533201 0.882814
vt 0.533201 0.883787
vt 0.533205 0.882811
vt 0.533205 0.881838
vt 0.534178 0.881838
vt 0.534178 0.882811
vt 0.543947 0.882811
vt 0.543947 0.881838
vt 0.544920 0.881838
vt 0.544920 0.882811
vt 0.533205 0.880857
vt 0.533205 0.879885
vt 0.534178 0.879885
vt 0.534178 0.880857
vt 0.543947 0.880857
vt 0.543947 0.879885
vt 0.544920 0.879885
vt 0.544920 0.880857
vt 0.533224 0.879881
vt 0.533224 0.878908
vt 0.543924 0.878908
vt 0.543924 0.879881
vt 0.534197 0.878904
vt 0.534197 0.877932
vt 0.542952 0.877932
vt 0.542952 0.878904
vt 0.535170 0.877928
vt 0.535170 0.876955
vt 0.541979 0.876955
vt 0.541979 0.877928
vt 0.541990 0.877928
vt 0.541990 0.876955
vt 0.541018 0.876955
vt 0.541018 0.877928
vt 0.538090 0.876951
vt 0.538090 0.875978
vt 0.540035 0.875978
vt 0.540035 0.876951
vt 0.539061 0.876951
vt 0.539061 0.875978
vt 0.538088 0.875978
vt 0.538088 0.876951
f 1/1/1 2/2/1 3/3/1 4/4/1
f 5/5/2 6/6/2 7/7/2 8/8/2
f 9/9/3 10/10/3 11/11/3 12/12/3
f 9/13/4 13/14/4 14/15/4 10/16/4
f 11/17/5 15/18/5 16/19/5 12/20/5
f 17/21/3 18/22/3 19/23/3 20/24/3
f 17/25/4 21/26/4 22/27/4 18/28/4
f 19/29/5 23/30/5 24/31/5 20/32/5
f 25/33/3 26/34/3 27/35/3 28/36/3
f 25/37/4 29/38/4 30/39/4 26/40/4
f 27/41/5 31/42/5 32/43/5 28/44/5
f 33/45/3 34/46/3 35/47/3 36/48/3
f 33/49/4 37/50/4 38/51/4 34/52/4
f 35/53/5 39/54/5 40/55/5 36/56/5
f 41/57/3 42/58/3 43/59/3 44/60/3
f 41/61/4 45/62/4 46/63/4 42/64/4
f 43/65/5 47/66/5 48/67/5 44/68/5
f 49/69/3 50/70/3 51/71/3 52/72/3
f 49/73/4 53/74/4 54/75/4 50/76/4
f 55/77/6 56/78/6 57/79/6 58/80/6
f 54/81/6 53/82/6 59/83/6 60/84/6
f 61/85/6 62/86/6 63/87/6 64/88/6
f 65/89/3 66/90/3 67/91/3 68/92/3
f 69/93/3 70/94/3 71/95/3 72/96/3
f 73/97/6 74/98/6 48/99/6 47/100/6
f 46/101/6 45/102/6 40/103/6 39/104/6
f 38/105/6 37/106/6 32/107/6 31/108/6
f 30/109/6 29/110/6 75/111/6 76/112/6
f 77/113/5 76/114/5 75/115/5 78/116/5
f 79/117/6 80/118/6 24/119/6 23/120/6
f 81/121/4 80/122/4 79/123/4 82/124/4
