v 1.000000 1.000000 0.468750
v 1.000000 0.000000 0.468750
v 0.000000 0.000000 0.468750
v 0.000000 1.000000 0.468750
v 0.000000 1.000000 0.531250
v 0.000000 0.000000 0.531250
v 1.000000 0.000000 0.531250
v 1.000000 1.000000 0.531250
v 0.375000 0.687500 0.468750
v 0.375000 0.687500 0.531250
v 0.500000 0.687500 0.531250
v 0.500000 0.687500 0.468750
v 0.375000 0.625000 0.468750
v 0.375000 0.625000 0.531250
v 0.500000 0.312500 0.531250
v 0.500000 0.312500 0.468750
v 0.312500 0.625000 0.468750
v 0.312500 0.625000 0.531250
v 0.687500 0.625000 0.531250
v 0.687500 0.625000 0.468750
v 0.312500 0.312500 0.468750
v 0.312500 0.312500 0.531250
v 0.687500 0.375000 0.531250
v 0.687500 0.375000 0.468750
v 0.250000 0.562500 0.468750
v 0.250000 0.562500 0.531250
v 0.750000 0.562500 0.531250
v 0.750000 0.562500 0.468750
v 0.250000 0.375000 0.468750
v 0.250000 0.375000 0.531250
v 0.750000 0.437500 0.531250
v 0.750000 0.437500 0.468750
v 0.687500 0.437500 0.531250
v 0.687500 0.437500 0.468750
vn 0.000000 0.000000 -1.000000
vn 0.000000 0.000000 1.000000
vn 0.000000 1.000000 0.000000
vn -1.000000 0.000000 0.000000
vn 1.000000 0.000000 0.000000
vn 0.000000 -1.000000 0.000000
vt 0.546844 0.687469
vt 0.546844 0.671906
vt 0.531281 0.671906
vt 0.531281 0.687469
vt 0.531281 0.687469
vt 0.531281 0.671906
vt 0.546844 0.671906
vt 0.546844 0.687469
vt 0.537113 0.682615
vt 0.537113 0.681643
vt 0.539059 0.681643
vt 0.539059 0.682615
vt 0.538084 0.682615
vt 0.538084 0.681643
vt 0.537111 0.681643
vt 0.537111 0.682615
vt 0.539061 0.682606
vt 0.539061 0.676769
vt 0.538088 0.676769
vt 0.538088 0.682606
vt 0.536144 0.681639
vt 0.536144 0.680666
vt 0.541981 0.680666
vt 0.541981 0.681639
vt 0.537107 0.681631
vt 0.537107 0.676767
vt 0.536135 0.676767
vt 0.536135 0.681631
vt 0.541990 0.681633
vt 0.541990 0.677742
vt 0.541018 0.677742
vt 0.541018 0.681633
vt 0.535172 0.680662
vt 0.535172 0.679689
vt 0.542953 0.679689
vt 0.542953 0.680662
vt 0.536131 0.680658
vt 0.536131 0.677740
vt 0.535158 0.677740
vt 0.535158 0.680658
vt 0.542967 0.680660
vt 0.542967 0.678715
vt 0.541994 0.678715
vt 0.541994 0.680660
vt 0.541994 0.679686
vt 0.541994 0.678713
vt 0.542967 0.678713
vt 0.542967 0.679686
vt 0.535170 0.678709
vt 0.535170 0.677736
vt 0.541979 0.677736
vt 0.541979 0.678709
vt 0.536139 0.677732
vt 0.536139 0.676760
vt 0.539057 0.676760
vt 0.539057 0.677732
f 1/1/1 2/2/1 3/3/1 4/4/1
f 5/5/2 6/6/2 7/7/2 8/8/2
f 9/9/3 10/10/3 11/11/3 12/12/3
f 9/13/4 13/14/4 14/15/4 10/16/4
f 11/17/5 15/18/5 16/19/5 12/20/5
f 17/21/3 18/22/3 19/23/3 20/24/3
f 17/25/4 21/26/4 22/27/4 18/28/4
f 19/29/5 23/30/5 24/31/5 20/32/5
f 25/33/3 26/34/3 27/35/3 28/36/3
f 25/37/4 29/38/4 30/39/4 26/40/4
f 27/41/5 31/42/5 32/43/5 28/44/5
f 33/45/6 34/46/6 32/47/6 31/48/6
f 30/49/6 29/50/6 24/51/6 23/52/6
f 22/53/6 21/54/6 16/55/6 15/56/6
