v 1.000000 1.000000 0.468750
v 1.000000 0.000000 0.468750
v 0.000000 0.000000 0.468750
v 0.000000 1.000000 0.468750
v 0.000000 1.000000 0.531250
v 0.000000 0.000000 0.531250
v 1.000000 0.000000 0.531250
v 1.000000 1.000000 0.531250
v 0.250000 0.812500 0.468750
v 0.250000 0.812500 0.531250
v 0.750000 0.812500 0.531250
v 0.750000 0.812500 0.468750
v 0.250000 0.750000 0.468750
v 0.250000 0.750000 0.531250
v 0.437500 0.812500 0.531250
v 0.437500 0.250000 0.531250
v 0.437500 0.250000 0.468750
v 0.437500 0.812500 0.468750
v 0.562500 0.812500 0.468750
v 0.562500 0.250000 0.468750
v 0.562500 0.250000 0.531250
v 0.562500 0.812500 0.531250
v 0.750000 0.750000 0.531250
v 0.750000 0.750000 0.468750
v 0.187500 0.750000 0.468750
v 0.187500 0.750000 0.531250
v 0.812500 0.750000 0.531250
v 0.812500 0.750000 0.468750
v 0.187500 0.437500 0.468750
v 0.187500 0.437500 0.531250
v 0.812500 0.437500 0.531250
v 0.812500 0.437500 0.468750
v 0.125000 0.437500 0.468750
v 0.125000 0.437500 0.531250
v 0.875000 0.437500 0.531250
v 0.875000 0.437500 0.468750
v 0.125000 0.375000 0.468750
v 0.125000 0.375000 0.531250
v 0.875000 0.375000 0.531250
v 0.875000 0.375000 0.468750
v 0.062500 0.375000 0.468750
v 0.062500 0.375000 0.531250
v 0.937500 0.375000 0.531250
v 0.937500 0.375000 0.468750
v 0.062500 0.187500 0.468750
v 0.062500 0.187500 0.531250
v 0.937500 0.187500 0.531250
v 0.937500 0.187500 0.468750
v 0.312500 0.250000 0.531250
v 0.312500 0.250000 0.468750
v 0.687500 0.250000 0.468750
v 0.687500 0.250000 0.531250
v 0.312500 0.187500 0.531250
v 0.312500 0.187500 0.468750
v 0.687500 0.187500 0.468750
v 0.687500 0.187500 0.531250
vn 0.000000 0.000000 -1.000000
vn 0.000000 0.000000 1.000000
vn 0.000000 1.000000 0.000000
vn -1.000000 0.000000 0.000000
vn 1.000000 0.000000 0.000000
vn 0.000000 -1.000000 0.000000
vt 0.546844 0.812469
vt 0.546844 0.796906
vt 0.531281 0.796906
vt 0.531281 0.812469
vt 0.531281 0.812469
vt 0.531281 0.796906
vt 0.546844 0.796906
vt 0.546844 0.812469
vt 0.535172 0.809568
vt 0.535172 0.808596
vt 0.542953 0.808596
vt 0.542953 0.809568
vt 0.536131 0.809568
vt 0.536131 0.808596
vt 0.535158 0.808596
vt 0.535158 0.809568
vt 0.538084 0.809553
vt 0.538084 0.800798
vt 0.537111 0.800798
vt 0.537111 0.809553
vt 0.541014 0.809553
vt 0.541014 0.800798
vt 0.540041 0.800798
vt 0.540041 0.809553
vt 0.542967 0.809568
vt 0.542967 0.808596
vt 0.541994 0.808596
vt 0.541994 0.809568
vt 0.534199 0.808592
vt 0.534199 0.807619
vt 0.543926 0.807619
vt 0.543926 0.808592
vt 0.535154 0.808584
vt 0.535154 0.803720
vt 0.534182 0.803720
vt 0.534182 0.808584
vt 0.543943 0.808584
vt 0.543943 0.803720
vt 0.542971 0.803720
vt 0.542971 0.808584
vt 0.533226 0.803709
vt 0.533226 0.802736
vt 0.544899 0.802736
vt 0.544899 0.803709
vt 0.534178 0.803709
vt 0.534178 0.802736
vt 0.533205 0.802736
vt 0.533205 0.803709
vt 0.544920 0.803709
vt 0.544920 0.802736
vt 0.543947 0.802736
vt 0.543947 0.803709
vt 0.532253 0.802732
vt 0.532253 0.801760
vt 0.545872 0.801760
vt 0.545872 0.802732
vt 0.533201 0.802729
vt 0.533201 0.799810
vt 0.532228 0.799810
vt 0.532228 0.802729
vt 0.545897 0.802729
vt 0.545897 0.799810
vt 0.544924 0.799810
vt 0.544924 0.802729
vt 0.536144 0.801756
vt 0.536144 0.800783
vt 0.541981 0.800783
vt 0.541981 0.801756
vt 0.532253 0.800779
vt 0.532253 0.799807
vt 0.545872 0.799807
vt 0.545872 0.800779
vt 0.536131 0.800779
vt 0.536131 0.799807
vt 0.535158 0.799807
vt 0.535158 0.800779
vt 0.542967 0.800779
vt 0.542967 0.799807
vt 0.541994 0.799807
vt 0.541994 0.800779
f 1/1/1 2/2/1 3/3/1 4/4/1
f 5/5/2 6/6/2 7/7/2 8/8/2
f 9/9/3 10/10/3 11/11/3 12/12/3
f 9/13/4 13/14/4 14/15/4 10/16/4
f 15/17/5 16/18/5 17/19/5 18/20/5
f 19/21/4 20/22/4 21/23/4 22/24/4
f 11/25/5 23/26/5 24/27/5 12/28/5
f 25/29/3 26/30/3 27/31/3 28/32/3
f 25/33/4 29/34/4 30/35/4 26/36/4
f 27/37/5 31/38/5 32/39/5 28/40/5
f 33/41/3 34/42/3 35/43/3 36/44/3
f 33/45/4 37/46/4 38/47/4 34/48/4
f 35/49/5 39/50/5 40/51/5 36/52/5
f 41/53/3 42/54/3 43/55/3 44/56/3
f 41/57/4 45/58/4 46/59/4 42/60/4
f 43/61/5 47/62/5 48/63/5 44/64/5
f 49/65/6 50/66/6 51/67/6 52/68/6
f 46/69/6 45/70/6 48/71/6 47/72/6
f 49/73/5 53/74/5 54/75/5 50/76/5
f 51/77/4 55/78/4 56/79/4 52/80/4
