v 1.000000 1.000000 0.468750
v 1.000000 0.000000 0.468750
v 0.000000 0.000000 0.468750
v 0.000000 1.000000 0.468750
v 0.000000 1.000000 0.531250
v 0.000000 0.000000 0.531250
v 1.000000 0.000000 0.531250
v 1.000000 1.000000 0.531250
v 0.625000 0.875000 0.468750
v 0.625000 0.875000 0.531250
v 0.750000 0.875000 0.531250
v 0.750000 0.875000 0.468750
v 0.625000 0.812500 0.468750
v 0.625000 0.812500 0.531250
v 0.750000 0.812500 0.531250
v 0.750000 0.812500 0.468750
v 0.437500 0.812500 0.468750
v 0.437500 0.812500 0.531250
v 0.812500 0.812500 0.531250
v 0.812500 0.812500 0.468750
v 0.437500 0.750000 0.468750
v 0.437500 0.750000 0.531250
v 0.812500 0.250000 0.531250
v 0.812500 0.250000 0.468750
v 0.250000 0.750000 0.468750
v 0.250000 0.750000 0.531250
v 0.875000 0.750000 0.531250
v 0.875000 0.750000 0.468750
v 0.250000 0.687500 0.468750
v 0.250000 0.687500 0.531250
v 0.875000 0.687500 0.531250
v 0.875000 0.687500 0.468750
v 0.062500 0.687500 0.468750
v 0.062500 0.687500 0.531250
v 0.937500 0.687500 0.531250
v 0.937500 0.687500 0.468750
v 0.062500 0.250000 0.468750
v 0.062500 0.250000 0.531250
v 0.937500 0.312500 0.531250
v 0.937500 0.312500 0.468750
v 0.000000 0.625000 0.468750
v 0.000000 0.625000 0.531250
v 1.000000 0.625000 0.531250
v 1.000000 0.625000 0.468750
v 0.000000 0.312500 0.468750
v 0.000000 0.312500 0.531250
v 1.000000 0.375000 0.531250
v 1.000000 0.375000 0.468750
v 0.937500 0.375000 0.531250
v 0.937500 0.375000 0.468750
v 0.125000 0.187500 0.531250
v 0.125000 0.187500 0.468750
v 0.625000 0.187500 0.468750
v 0.625000 0.187500 0.531250
v 0.125000 0.250000 0.468750
v 0.125000 0.250000 0.531250
v 0.625000 0.250000 0.531250
v 0.625000 0.250000 0.468750
v 0.187500 0.125000 0.531250
v 0.187500 0.125000 0.468750
v 0.437500 0.125000 0.468750
v 0.437500 0.125000 0.531250
v 0.187500 0.187500 0.468750
v 0.187500 0.187500 0.531250
v 0.437500 0.187500 0.531250
v 0.437500 0.187500 0.468750
vn 0.000000 0.000000 -1.000000
vn 0.000000 0.000000 1.000000
vn 0.000000 1.000000 0.000000
vn -1.000000 0.000000 0.000000
vn 1.000000 0.000000 0.000000
vn 0.000000 -1.000000 0.000000
vt 0.546844 0.718719
vt 0.546844 0.703156
vt 0.531281 0.703156
vt 0.531281 0.718719
vt 0.531281 0.718719
vt 0.531281 0.703156
vt 0.546844 0.703156
vt 0.546844 0.718719
vt 0.541019 0.716795
vt 0.541019 0.715822
vt 0.542965 0.715822
vt 0.542965 0.716795
vt 0.541990 0.716795
vt 0.541990 0.715822
vt 0.541018 0.715822
vt 0.541018 0.716795
vt 0.542967 0.716795
vt 0.542967 0.715822
vt 0.541994 0.715822
vt 0.541994 0.716795
vt 0.538097 0.715818
vt 0.538097 0.714846
vt 0.543934 0.714846
vt 0.543934 0.715818
vt 0.539061 0.715818
vt 0.539061 0.714846
vt 0.538088 0.714846
vt 0.538088 0.715818
vt 0.543943 0.715803
vt 0.543943 0.707048
vt 0.542971 0.707048
vt 0.542971 0.715803
vt 0.535175 0.714842
vt 0.535175 0.713869
vt 0.544903 0.713869
vt 0.544903 0.714842
vt 0.536131 0.714842
vt 0.536131 0.713869
vt 0.535158 0.713869
vt 0.535158 0.714842
vt 0.544920 0.714842
vt 0.544920 0.713869
vt 0.543947 0.713869
vt 0.543947 0.714842
vt 0.532253 0.713865
vt 0.532253 0.712893
vt 0.545872 0.712893
vt 0.545872 0.713865
vt 0.533201 0.713854
vt 0.533201 0.707045
vt 0.532228 0.707045
vt 0.532228 0.713854
vt 0.545897 0.713856
vt 0.545897 0.708019
vt 0.544924 0.708019
vt 0.544924 0.713856
vt 0.531281 0.712889
vt 0.531281 0.711916
vt 0.546844 0.711916
vt 0.546844 0.712889
vt 0.532225 0.712881
vt 0.532225 0.708017
vt 0.531252 0.708017
vt 0.531252 0.712881
vt 0.546873 0.712883
vt 0.546873 0.708992
vt 0.545900 0.708992
vt 0.545900 0.712883
vt 0.545900 0.709959
vt 0.545900 0.708986
vt 0.546873 0.708986
vt 0.546873 0.709959
vt 0.531279 0.708982
vt 0.531279 0.708010
vt 0.545870 0.708010
vt 0.545870 0.708982
vt 0.532249 0.708006
vt 0.532249 0.707033
vt 0.543922 0.707033
vt 0.543922 0.708006
vt 0.533218 0.707029
vt 0.533218 0.706057
vt 0.541000 0.706057
vt 0.541000 0.707029
vt 0.534178 0.707029
vt 0.534178 0.706057
vt 0.533205 0.706057
vt 0.533205 0.707029
vt 0.541014 0.707029
vt 0.541014 0.706057
vt 0.540041 0.706057
vt 0.540041 0.707029
vt 0.534187 0.706053
vt 0.534187 0.705080
vt 0.538078 0.705080
vt 0.538078 0.706053
vt 0.535154 0.706053
vt 0.535154 0.705080
vt 0.534182 0.705080
vt 0.534182 0.706053
vt 0.538084 0.706053
vt 0.538084 0.705080
vt 0.537111 0.705080
vt 0.537111 0.706053
f 1/1/1 2/2/1 3/3/1 4/4/1
f 5/5/2 6/6/2 7/7/2 8/8/2
f 9/9/3 10/10/3 11/11/3 12/12/3
f 9/13/4 13/14/4 14/15/4 10/16/4
f 11/17/5 15/18/5 16/19/5 12/20/5
f 17/21/3 18/22/3 19/23/3 20/24/3
f 17/25/4 21/26/4 22/27/4 18/28/4
f 19/29/5 23/30/5 24/31/5 20/32/5
f 25/33/3 26/34/3 27/35/3 28/36/3
f 25/37/4 29/38/4 30/39/4 26/40/4
f 27/41/5 31/42/5 32/43/5 28/44/5
f 33/45/3 34/46/3 35/47/3 36/48/3
f 33/49/4 37/50/4 38/51/4 34/52/4
f 35/53/5 39/54/5 40/55/5 36/56/5
f 41/57/3 42/58/3 43/59/3 44/60/3
f 41/61/4 45/62/4 46/63/4 42/64/4
f 43/65/5 47/66/5 48/67/5 44/68/5
f 49/69/6 50/70/6 48/71/6 47/72/6
f 46/73/6 45/74/6 40/75/6 39/76/6
f 38/77/6 37/78/6 24/79/6 23/80/6
f 51/81/6 52/82/6 53/83/6 54/84/6
f 55/85/4 52/86/4 51/87/4 56/88/4
f 57/89/5 54/90/5 53/91/5 58/92/5
f 59/93/6 60/94/6 61/95/6 62/96/6
f 63/97/4 60/98/4 59/99/4 64/100/4
f 65/101/5 62/102/5 61/103/5 66/104/5
