v 1.000000 1.000000 0.468750
v 1.000000 0.000000 0.468750
v 0.000000 0.000000 0.468750
v 0.000000 1.000000 0.468750
v 0.000000 1.000000 0.531250
v 0.000000 0.000000 0.531250
v 1.000000 0.000000 0.531250
v 1.000000 1.000000 0.531250
v 0.125000 0.875000 0.468750
v 0.125000 0.875000 0.531250
v 0.937500 0.875000 0.531250
v 0.937500 0.875000 0.468750
v 0.125000 0.312500 0.468750
v 0.125000 0.312500 0.531250
v 0.937500 0.312500 0.531250
v 0.937500 0.312500 0.468750
v 0.437500 0.312500 0.468750
v 0.437500 0.000000 0.468750
v 0.437500 0.000000 0.531250
v 0.437500 0.312500 0.531250
v 0.625000 0.312500 0.531250
v 0.625000 0.000000 0.531250
v 0.625000 0.000000 0.468750
v 0.625000 0.312500 0.468750
vn 0.000000 0.000000 -1.000000
vn 0.000000 0.000000 1.000000
vn 0.000000 1.000000 0.000000
vn -1.000000 0.000000 0.000000
vn 1.000000 0.000000 0.000000
vn 0.000000 -1.000000 0.000000
vt 0.546844 0.578094
vt 0.546844 0.562531
vt 0.531281 0.562531
vt 0.531281 0.578094
vt 0.531281 0.578094
vt 0.531281 0.562531
vt 0.546844 0.562531
vt 0.546844 0.578094
vt 0.533228 0.576170
vt 0.533228 0.575197
vt 0.545874 0.575197
vt 0.545874 0.576170
vt 0.534178 0.576155
vt 0.534178 0.567400
vt 0.533205 0.567400
vt 0.533205 0.576155
vt 0.545897 0.576155
vt 0.545897 0.567400
vt 0.544924 0.567400
vt 0.544924 0.576155
vt 0.533228 0.568357
vt 0.533228 0.567385
vt 0.545874 0.567385
vt 0.545874 0.568357
vt 0.539061 0.567373
vt 0.539061 0.562510
vt 0.538088 0.562510
vt 0.538088 0.567373
vt 0.541014 0.567373
vt 0.541014 0.562510
vt 0.540041 0.562510
vt 0.540041 0.567373
vt 0.538092 0.563475
vt 0.538092 0.562502
vt 0.541010 0.562502
vt 0.541010 0.563475
f 1/1/1 2/2/1 3/3/1 4/4/1
f 5/5/2 6/6/2 7/7/2 8/8/2
f 9/9/3 10/10/3 11/11/3 12/12/3
f 9/13/4 13/14/4 14/15/4 10/16/4
f 11/17/5 15/18/5 16/19/5 12/20/5
f 14/21/6 13/22/6 16/23/6 15/24/6
f 17/25/4 18/26/4 19/27/4 20/28/4
f 21/29/5 22/30/5 23/31/5 24/32/5
f 19/33/6 18/34/6 23/35/6 22/36/6
