v 1.000000 1.000000 0.468750
v 1.000000 0.000000 0.468750
v 0.000000 0.000000 0.468750
v 0.000000 1.000000 0.468750
v 0.000000 1.000000 0.531250
v 0.000000 0.000000 0.531250
v 1.000000 0.000000 0.531250
v 1.000000 1.000000 0.531250
v 0.187500 0.875000 0.468750
v 0.187500 0.875000 0.531250
v 0.812500 0.875000 0.531250
v 0.812500 0.875000 0.468750
v 0.187500 0.000000 0.468750
v 0.187500 0.000000 0.531250
v 0.500000 0.812500 0.531250
v 0.500000 0.812500 0.468750
v 0.562500 0.812500 0.468750
v 0.562500 0.812500 0.531250
v 0.812500 0.000000 0.531250
v 0.812500 0.000000 0.468750
v 0.375000 0.750000 0.531250
v 0.375000 0.750000 0.468750
v 0.687500 0.750000 0.468750
v 0.687500 0.750000 0.531250
v 0.500000 0.625000 0.531250
v 0.500000 0.625000 0.468750
v 0.562500 0.625000 0.468750
v 0.562500 0.625000 0.531250
v 0.375000 0.625000 0.531250
v 0.375000 0.625000 0.468750
v 0.437500 0.750000 0.468750
v 0.437500 0.625000 0.468750
v 0.437500 0.625000 0.531250
v 0.437500 0.750000 0.531250
v 0.625000 0.750000 0.531250
v 0.625000 0.625000 0.531250
v 0.625000 0.625000 0.468750
v 0.625000 0.750000 0.468750
v 0.687500 0.625000 0.468750
v 0.687500 0.625000 0.531250
v 0.437500 0.562500 0.531250
v 0.437500 0.562500 0.468750
v 0.625000 0.562500 0.468750
v 0.625000 0.562500 0.531250
v 0.437500 0.500000 0.531250
v 0.437500 0.500000 0.468750
v 0.625000 0.500000 0.468750
v 0.625000 0.500000 0.531250
vn 0.000000 0.000000 -1.000000
vn 0.000000 0.000000 1.000000
vn 0.000000 1.000000 0.000000
vn -1.000000 0.000000 0.000000
vn 0.000000 -1.000000 0.000000
vn 1.000000 0.000000 0.000000
vt 0.546844 0.593719
vt 0.546844 0.578156
vt 0.531281 0.578156
vt 0.531281 0.593719
vt 0.531281 0.593719
vt 0.531281 0.578156
vt 0.546844 0.578156
vt 0.546844 0.593719
vt 0.534199 0.591795
vt 0.534199 0.590822
vt 0.543926 0.590822
vt 0.543926 0.591795
vt 0.535154 0.591770
vt 0.535154 0.578152
vt 0.534182 0.578152
vt 0.534182 0.591770
vt 0.539064 0.591795
vt 0.539064 0.590822
vt 0.540037 0.590822
vt 0.540037 0.591795
vt 0.543943 0.591770
vt 0.543943 0.578152
vt 0.542971 0.578152
vt 0.542971 0.591770
vt 0.537119 0.590818
vt 0.537119 0.589846
vt 0.541983 0.589846
vt 0.541983 0.590818
vt 0.539061 0.590815
vt 0.539061 0.587896
vt 0.538088 0.587896
vt 0.538088 0.590815
vt 0.541014 0.590815
vt 0.541014 0.587896
vt 0.540041 0.587896
vt 0.540041 0.590815
vt 0.537107 0.589840
vt 0.537107 0.587894
vt 0.536135 0.587894
vt 0.536135 0.589840
vt 0.539061 0.589840
vt 0.539061 0.587894
vt 0.538088 0.587894
vt 0.538088 0.589840
vt 0.541014 0.589840
vt 0.541014 0.587894
vt 0.540041 0.587894
vt 0.540041 0.589840
vt 0.542967 0.589840
vt 0.542967 0.587894
vt 0.541994 0.587894
vt 0.541994 0.589840
vt 0.537119 0.587889
vt 0.537119 0.586916
vt 0.541983 0.586916
vt 0.541983 0.587889
vt 0.538092 0.587889
vt 0.538092 0.586916
vt 0.541010 0.586916
vt 0.541010 0.587889
vt 0.538084 0.586912
vt 0.538084 0.585939
vt 0.537111 0.585939
vt 0.537111 0.586912
vt 0.541990 0.586912
vt 0.541990 0.585939
vt 0.541018 0.585939
vt 0.541018 0.586912
vt 0.538092 0.585936
vt 0.538092 0.584963
vt 0.541010 0.584963
vt 0.541010 0.585936
vt 0.534199 0.579100
vt 0.534199 0.578127
vt 0.543926 0.578127
vt 0.543926 0.579100
f 1/1/1 2/2/1 3/3/1 4/4/1
f 5/5/2 6/6/2 7/7/2 8/8/2
f 9/9/3 10/10/3 11/11/3 12/12/3
f 9/13/4 13/14/4 14/15/4 10/16/4
f 15/17/5 16/18/5 17/19/5 18/20/5
f 11/21/6 19/22/6 20/23/6 12/24/6
f 21/25/5 22/26/5 23/27/5 24/28/5
f 15/29/6 25/30/6 26/31/6 16/32/6
f 17/33/4 27/34/4 28/35/4 18/36/4
f 21/37/6 29/38/6 30/39/6 22/40/6
f 31/41/4 32/42/4 33/43/4 34/44/4
f 35/45/6 36/46/6 37/47/6 38/48/6
f 23/49/4 39/50/4 40/51/4 24/52/4
f 30/53/3 29/54/3 40/55/3 39/56/3
f 41/57/5 42/58/5 43/59/5 44/60/5
f 41/61/6 45/62/6 46/63/6 42/64/6
f 43/65/4 47/66/4 48/67/4 44/68/4
f 46/69/3 45/70/3 48/71/3 47/72/3
f 14/73/5 13/74/5 20/75/5 19/76/5
