v 0.375000 1.000000 0.000000
v 0.375000 1.000000 0.250000
v 0.625000 1.000000 0.250000
v 0.625000 1.000000 0.000000
v 0.625000 0.000000 0.000000
v 0.375000 0.000000 0.000000
v 0.375000 0.000000 0.250000
v 0.625000 0.000000 0.250000
v 0.375000 1.000000 0.750000
v 0.375000 1.000000 1.000000
v 0.625000 1.000000 1.000000
v 0.625000 1.000000 0.750000
v 0.625000 0.000000 0.750000
v 0.375000 0.000000 0.750000
v 0.375000 0.000000 1.000000
v 0.625000 0.000000 1.000000
v 0.437500 0.812500 1.125000
v 0.437500 0.812500 -0.125000
v 0.562500 0.812500 -0.125000
v 0.562500 0.812500 1.125000
v 0.437500 0.937500 -0.125000
v 0.437500 0.937500 1.125000
v 0.562500 0.937500 1.125000
v 0.562500 0.937500 -0.125000
v 0.437500 0.312500 1.125000
v 0.437500 0.312500 -0.125000
v 0.562500 0.312500 -0.125000
v 0.562500 0.312500 1.125000
v 0.437500 0.437500 -0.125000
v 0.437500 0.437500 1.125000
v 0.562500 0.437500 1.125000
v 0.562500 0.437500 -0.125000
vn 0.000000 1.000000 0.000000
vn 0.000000 0.000000 -1.000000
vn 0.000000 0.000000 1.000000
vn -1.000000 0.000000 0.000000
vn 1.000000 0.000000 0.000000
vn 0.000000 -1.000000 0.000000
vt 0.443367 0.953117
vt 0.443367 0.949226
vt 0.447258 0.949226
vt 0.447258 0.953117
vt 0.443367 0.953094
vt 0.443367 0.937531
vt 0.447258 0.937531
vt 0.447258 0.953094
vt 0.443367 0.953094
vt 0.443367 0.937531
vt 0.447258 0.937531
vt 0.447258 0.953094
vt 0.437508 0.953094
vt 0.437508 0.937531
vt 0.441399 0.937531
vt 0.441399 0.953094
vt 0.437508 0.953094
vt 0.437508 0.937531
vt 0.441399 0.937531
vt 0.441399 0.953094
vt 0.443367 0.941399
vt 0.443367 0.937508
vt 0.447258 0.937508
vt 0.447258 0.941399
vt 0.443367 0.953094
vt 0.443367 0.937531
vt 0.447258 0.937531
vt 0.447258 0.953094
vt 0.443367 0.953094
vt 0.443367 0.937531
vt 0.447258 0.937531
vt 0.447258 0.953094
vt 0.449226 0.953094
vt 0.449226 0.937531
vt 0.453117 0.937531
vt 0.453117 0.953094
vt 0.449226 0.953094
vt 0.449226 0.937531
vt 0.453117 0.937531
vt 0.453117 0.953094
vt 0.444340 0.953094
vt 0.444340 0.937531
vt 0.446285 0.937531
vt 0.446285 0.953094
vt 0.444340 0.953094
vt 0.444340 0.937531
vt 0.446285 0.937531
vt 0.446285 0.953094
vt 0.444340 0.952145
vt 0.444340 0.950199
vt 0.446285 0.950199
vt 0.446285 0.952145
vt 0.444340 0.952145
vt 0.444340 0.950199
vt 0.446285 0.950199
vt 0.446285 0.952145
vt 0.437531 0.952145
vt 0.437531 0.950199
vt 0.453094 0.950199
vt 0.453094 0.952145
vt 0.437531 0.952145
vt 0.437531 0.950199
vt 0.453094 0.950199
vt 0.453094 0.952145
vt 0.444340 0.953094
vt 0.444340 0.937531
vt 0.446285 0.937531
vt 0.446285 0.953094
vt 0.444340 0.953094
vt 0.444340 0.937531
vt 0.446285 0.937531
vt 0.446285 0.953094
vt 0.444340 0.944332
vt 0.444340 0.942387
vt 0.446285 0.942387
vt 0.446285 0.944332
vt 0.444340 0.944332
vt 0.444340 0.942387
vt 0.446285 0.942387
vt 0.446285 0.944332
vt 0.437531 0.944332
vt 0.437531 0.942387
vt 0.453094 0.942387
vt 0.453094 0.944332
vt 0.437531 0.944332
vt 0.437531 0.942387
vt 0.453094 0.942387
vt 0.453094 0.944332
vt 0.443367 0.953117
vt 0.443367 0.949226
vt 0.447258 0.949226
vt 0.447258 0.953117
vt 0.443367 0.941399
vt 0.443367 0.937508
vt 0.447258 0.937508
vt 0.447258 0.941399
f 1/1/1 2/2/1 3/3/1 4/4/1
f 4/5/2 5/6/2 6/7/2 1/8/2
f 2/9/3 7/10/3 8/11/3 3/12/3
f 1/13/4 6/14/4 7/15/4 2/16/4
f 3/17/5 8/18/5 5/19/5 4/20/5
f 9/21/1 10/22/1 11/23/1 12/24/1
f 12/25/2 13/26/2 14/27/2 9/28/2
f 10/29/3 15/30/3 16/31/3 11/32/3
f 9/33/4 14/34/4 15/35/4 10/36/4
f 11/37/5 16/38/5 13/39/5 12/40/5
f 17/41/6 18/42/6 19/43/6 20/44/6
f 21/45/1 22/46/1 23/47/1 24/48/1
f 24/49/2 19/50/2 18/51/2 21/52/2
f 22/53/3 17/54/3 20/55/3 23/56/3
f 21/57/4 18/58/4 17/59/4 22/60/4
f 23/61/5 20/62/5 19/63/5 24/64/5
f 25/65/6 26/66/6 27/67/6 28/68/6
f 29/69/1 30/70/1 31/71/1 32/72/1
f 32/73/2 27/74/2 26/75/2 29/76/2
f 30/77/3 25/78/3 28/79/3 31/80/3
f 29/81/4 26/82/4 25/83/4 30/84/4
f 31/85/5 28/86/5 27/87/5 32/88/5
f 7/89/6 6/90/6 5/91/6 8/92/6
f 15/93/6 14/94/6 13/95/6 16/96/6
