v 1.000000 1.000000 0.468750
v 1.000000 0.000000 0.468750
v 0.000000 0.000000 0.468750
v 0.000000 1.000000 0.468750
v 0.000000 1.000000 0.531250
v 0.000000 0.000000 0.531250
v 1.000000 0.000000 0.531250
v 1.000000 1.000000 0.531250
v 0.250000 0.812500 0.468750
v 0.250000 0.812500 0.531250
v 0.750000 0.812500 0.531250
v 0.750000 0.812500 0.468750
v 0.250000 0.750000 0.468750
v 0.250000 0.750000 0.531250
v 0.437500 0.812500 0.531250
v 0.437500 0.437500 0.531250
v 0.437500 0.437500 0.468750
v 0.437500 0.812500 0.468750
v 0.562500 0.812500 0.468750
v 0.562500 0.437500 0.468750
v 0.562500 0.437500 0.531250
v 0.562500 0.812500 0.531250
v 0.750000 0.750000 0.531250
v 0.750000 0.750000 0.468750
v 0.187500 0.750000 0.468750
v 0.187500 0.750000 0.531250
v 0.812500 0.750000 0.531250
v 0.812500 0.750000 0.468750
v 0.187500 0.375000 0.468750
v 0.187500 0.375000 0.531250
v 0.812500 0.375000 0.531250
v 0.812500 0.375000 0.468750
v 0.312500 0.437500 0.531250
v 0.312500 0.437500 0.468750
v 0.687500 0.437500 0.468750
v 0.687500 0.437500 0.531250
v 0.312500 0.375000 0.531250
v 0.312500 0.375000 0.468750
v 0.687500 0.375000 0.468750
v 0.687500 0.375000 0.531250
v 0.125000 0.437500 0.468750
v 0.125000 0.437500 0.531250
v 0.875000 0.437500 0.531250
v 0.875000 0.437500 0.468750
v 0.125000 0.375000 0.468750
v 0.125000 0.375000 0.531250
v 0.187500 0.437500 0.531250
v 0.187500 0.437500 0.468750
v 0.437500 0.250000 0.531250
v 0.437500 0.250000 0.468750
v 0.562500 0.250000 0.468750
v 0.562500 0.250000 0.531250
v 0.812500 0.437500 0.468750
v 0.812500 0.437500 0.531250
v 0.875000 0.375000 0.531250
v 0.875000 0.375000 0.468750
v 0.062500 0.375000 0.468750
v 0.062500 0.375000 0.531250
v 0.937500 0.375000 0.531250
v 0.937500 0.375000 0.468750
v 0.062500 0.187500 0.468750
v 0.062500 0.187500 0.531250
v 0.937500 0.187500 0.531250
v 0.937500 0.187500 0.468750
v 0.312500 0.250000 0.531250
v 0.312500 0.250000 0.468750
v 0.687500 0.250000 0.468750
v 0.687500 0.250000 0.531250
v 0.312500 0.187500 0.531250
v 0.312500 0.187500 0.468750
v 0.687500 0.187500 0.468750
v 0.687500 0.187500 0.531250
vn 0.000000 0.000000 -1.000000
vn 0.000000 0.000000 1.000000
vn 0.000000 1.000000 0.000000
vn -1.000000 0.000000 0.000000
vn 1.000000 0.000000 0.000000
vn 0.000000 -1.000000 0.000000
vt 0.562469 0.968719
vt 0.562469 0.953156
vt 0.546906 0.953156
vt 0.546906 0.968719
vt 0.546906 0.968719
vt 0.546906 0.953156
vt 0.562469 0.953156
vt 0.562469 0.968719
vt 0.550797 0.965818
vt 0.550797 0.964846
vt 0.558578 0.964846
vt 0.558578 0.965818
vt 0.551756 0.965818
vt 0.551756 0.964846
vt 0.550783 0.964846
vt 0.550783 0.965818
vt 0.553709 0.965809
vt 0.553709 0.959972
vt 0.552736 0.959972
vt 0.552736 0.965809
vt 0.556639 0.965809
vt 0.556639 0.959972
vt 0.555666 0.959972
vt 0.555666 0.965809
vt 0.558592 0.965818
vt 0.558592 0.964846
vt 0.557619 0.964846
vt 0.557619 0.965818
vt 0.549824 0.964842
vt 0.549824 0.963869
vt 0.559551 0.963869
vt 0.559551 0.964842
vt 0.550779 0.964832
vt 0.550779 0.958996
vt 0.549807 0.958996
vt 0.549807 0.964832
vt 0.559568 0.964832
vt 0.559568 0.958996
vt 0.558596 0.958996
vt 0.558596 0.964832
vt 0.551769 0.960936
vt 0.551769 0.959963
vt 0.557606 0.959963
vt 0.557606 0.960936
vt 0.549824 0.959959
vt 0.549824 0.958986
vt 0.559551 0.958986
vt 0.559551 0.959959
vt 0.551756 0.959959
vt 0.551756 0.958986
vt 0.550783 0.958986
vt 0.550783 0.959959
vt 0.558592 0.959959
vt 0.558592 0.958986
vt 0.557619 0.958986
vt 0.557619 0.959959
vt 0.562469 0.953094
vt 0.562469 0.937531
vt 0.546906 0.937531
vt 0.546906 0.953094
vt 0.546906 0.953094
vt 0.546906 0.937531
vt 0.562469 0.937531
vt 0.562469 0.953094
vt 0.548851 0.944334
vt 0.548851 0.943361
vt 0.560524 0.943361
vt 0.560524 0.944334
vt 0.549803 0.944334
vt 0.549803 0.943361
vt 0.548830 0.943361
vt 0.548830 0.944334
vt 0.549803 0.944334
vt 0.549803 0.943361
vt 0.548830 0.943361
vt 0.548830 0.944334
vt 0.552732 0.944334
vt 0.552732 0.943361
vt 0.551760 0.943361
vt 0.551760 0.944334
vt 0.553709 0.944330
vt 0.553709 0.941412
vt 0.552736 0.941412
vt 0.552736 0.944330
vt 0.556639 0.944330
vt 0.556639 0.941412
vt 0.555666 0.941412
vt 0.555666 0.944330
vt 0.557615 0.944334
vt 0.557615 0.943361
vt 0.556643 0.943361
vt 0.556643 0.944334
vt 0.560545 0.944334
vt 0.560545 0.943361
vt 0.559572 0.943361
vt 0.559572 0.944334
vt 0.560545 0.944334
vt 0.560545 0.943361
vt 0.559572 0.943361
vt 0.559572 0.944334
vt 0.547878 0.943357
vt 0.547878 0.942385
vt 0.561497 0.942385
vt 0.561497 0.943357
vt 0.548826 0.943354
vt 0.548826 0.940435
vt 0.547853 0.940435
vt 0.547853 0.943354
vt 0.561522 0.943354
vt 0.561522 0.940435
vt 0.560549 0.940435
vt 0.560549 0.943354
vt 0.551769 0.942381
vt 0.551769 0.941408
vt 0.557606 0.941408
vt 0.557606 0.942381
vt 0.547878 0.941404
vt 0.547878 0.940432
vt 0.561497 0.940432
vt 0.561497 0.941404
vt 0.551756 0.941404
vt 0.551756 0.940432
vt 0.550783 0.940432
vt 0.550783 0.941404
vt 0.558592 0.941404
vt 0.558592 0.940432
vt 0.557619 0.940432
vt 0.557619 0.941404
f 1/1/1 2/2/1 3/3/1 4/4/1
f 5/5/2 6/6/2 7/7/2 8/8/2
f 9/9/3 10/10/3 11/11/3 12/12/3
f 9/13/4 13/14/4 14/15/4 10/16/4
f 15/17/5 16/18/5 17/19/5 18/20/5
f 19/21/4 20/22/4 21/23/4 22/24/4
f 11/25/5 23/26/5 24/27/5 12/28/5
f 25/29/3 26/30/3 27/31/3 28/32/3
f 25/33/4 29/34/4 30/35/4 26/36/4
f 27/37/5 31/38/5 32/39/5 28/40/5
f 33/41/6 34/42/6 35/43/6 36/44/6
f 30/45/6 29/46/6 32/47/6 31/48/6
f 33/49/5 37/50/5 38/51/5 34/52/5
f 35/53/4 39/54/4 40/55/4 36/56/4
f 1/57/1 2/58/1 3/59/1 4/60/1
f 5/61/2 6/62/2 7/63/2 8/64/2
f 41/65/3 42/66/3 43/67/3 44/68/3
f 41/69/4 45/70/4 46/71/4 42/72/4
f 47/73/5 30/74/5 29/75/5 48/76/5
f 34/77/4 38/78/4 37/79/4 33/80/4
f 16/81/5 49/82/5 50/83/5 17/84/5
f 20/85/4 51/86/4 52/87/4 21/88/4
f 36/89/5 40/90/5 39/91/5 35/92/5
f 53/93/4 32/94/4 31/95/4 54/96/4
f 43/97/5 55/98/5 56/99/5 44/100/5
f 57/101/3 58/102/3 59/103/3 60/104/3
f 57/105/4 61/106/4 62/107/4 58/108/4
f 59/109/5 63/110/5 64/111/5 60/112/5
f 65/113/6 66/114/6 67/115/6 68/116/6
f 62/117/6 61/118/6 64/119/6 63/120/6
f 65/121/5 69/122/5 70/123/5 66/124/5
f 67/125/4 71/126/4 72/127/4 68/128/4
