v 1.000000 1.000000 0.468750
v 1.000000 0.000000 0.468750
v 0.000000 0.000000 0.468750
v 0.000000 1.000000 0.468750
v 0.000000 1.000000 0.531250
v 0.000000 0.000000 0.531250
v 1.000000 0.000000 0.531250
v 1.000000 1.000000 0.531250
v 0.375000 0.937500 0.468750
v 0.375000 0.937500 0.531250
v 0.625000 0.937500 0.531250
v 0.625000 0.937500 0.468750
v 0.375000 0.875000 0.468750
v 0.375000 0.875000 0.531250
v 0.625000 0.875000 0.531250
v 0.625000 0.875000 0.468750
v 0.125000 0.875000 0.468750
v 0.125000 0.875000 0.531250
v 0.875000 0.875000 0.531250
v 0.875000 0.875000 0.468750
v 0.125000 0.062500 0.468750
v 0.125000 0.062500 0.531250
v 0.250000 0.875000 0.531250
v 0.250000 0.812500 0.531250
v 0.250000 0.812500 0.468750
v 0.250000 0.875000 0.468750
v 0.312500 0.875000 0.468750
v 0.312500 0.812500 0.468750
v 0.312500 0.812500 0.531250
v 0.312500 0.875000 0.531250
v 0.687500 0.875000 0.531250
v 0.687500 0.812500 0.531250
v 0.687500 0.812500 0.468750
v 0.687500 0.875000 0.468750
v 0.750000 0.875000 0.468750
v 0.750000 0.812500 0.468750
v 0.750000 0.812500 0.531250
v 0.750000 0.875000 0.531250
v 0.875000 0.062500 0.531250
v 0.875000 0.062500 0.468750
v 0.125000 0.750000 0.531250
v 0.125000 0.750000 0.468750
v 0.875000 0.750000 0.468750
v 0.875000 0.750000 0.531250
v 0.187500 0.750000 0.468750
v 0.187500 0.187500 0.468750
v 0.187500 0.187500 0.531250
v 0.187500 0.750000 0.531250
v 0.812500 0.750000 0.531250
v 0.812500 0.187500 0.531250
v 0.812500 0.187500 0.468750
v 0.812500 0.750000 0.468750
v 0.187500 0.625000 0.531250
v 0.187500 0.625000 0.468750
v 0.812500 0.625000 0.468750
v 0.812500 0.625000 0.531250
v 0.250000 0.625000 0.468750
v 0.250000 0.375000 0.468750
v 0.250000 0.375000 0.531250
v 0.250000 0.625000 0.531250
v 0.750000 0.625000 0.531250
v 0.750000 0.375000 0.531250
v 0.750000 0.375000 0.468750
v 0.750000 0.625000 0.468750
v 0.187500 0.375000 0.468750
v 0.187500 0.375000 0.531250
v 0.812500 0.375000 0.531250
v 0.812500 0.375000 0.468750
v 0.125000 0.187500 0.468750
v 0.125000 0.187500 0.531250
v 0.875000 0.187500 0.531250
v 0.875000 0.187500 0.468750
v 0.312500 0.125000 0.531250
v 0.312500 0.125000 0.468750
v 0.687500 0.125000 0.468750
v 0.687500 0.125000 0.531250
v 0.312500 0.062500 0.531250
v 0.312500 0.062500 0.468750
v 0.437500 0.125000 0.468750
v 0.437500 0.062500 0.468750
v 0.437500 0.062500 0.531250
v 0.437500 0.125000 0.531250
v 0.562500 0.125000 0.531250
v 0.562500 0.062500 0.531250
v 0.562500 0.062500 0.468750
v 0.562500 0.125000 0.468750
v 0.687500 0.062500 0.468750
v 0.687500 0.062500 0.531250
vn 0.000000 0.000000 -1.000000
vn 0.000000 0.000000 1.000000
vn 0.000000 1.000000 0.000000
vn -1.000000 0.000000 0.000000
vn 1.000000 0.000000 0.000000
vn 0.000000 -1.000000 0.000000
vt 0.562469 0.984344
vt 0.562469 0.968781
vt 0.546906 0.968781
vt 0.546906 0.984344
vt 0.546906 0.984344
vt 0.546906 0.968781
vt 0.562469 0.968781
vt 0.562469 0.984344
vt 0.552742 0.983397
vt 0.552742 0.982424
vt 0.556633 0.982424
vt 0.556633 0.983397
vt 0.553709 0.983397
vt 0.553709 0.982424
vt 0.552736 0.982424
vt 0.552736 0.983397
vt 0.556639 0.983397
vt 0.556639 0.982424
vt 0.555666 0.982424
vt 0.555666 0.983397
vt 0.548851 0.982420
vt 0.548851 0.981447
vt 0.560524 0.981447
vt 0.560524 0.982420
vt 0.549803 0.982397
vt 0.549803 0.969751
vt 0.548830 0.969751
vt 0.548830 0.982397
vt 0.550779 0.982420
vt 0.550779 0.981447
vt 0.549807 0.981447
vt 0.549807 0.982420
vt 0.552732 0.982420
vt 0.552732 0.981447
vt 0.551760 0.981447
vt 0.551760 0.982420
vt 0.557615 0.982420
vt 0.557615 0.981447
vt 0.556643 0.981447
vt 0.556643 0.982420
vt 0.559568 0.982420
vt 0.559568 0.981447
vt 0.558596 0.981447
vt 0.558596 0.982420
vt 0.560545 0.982397
vt 0.560545 0.969751
vt 0.559572 0.969751
vt 0.559572 0.982397
vt 0.548851 0.981443
vt 0.548851 0.980471
vt 0.560524 0.980471
vt 0.560524 0.981443
vt 0.550797 0.981443
vt 0.550797 0.980471
vt 0.558578 0.980471
vt 0.558578 0.981443
vt 0.550779 0.980452
vt 0.550779 0.971697
vt 0.549807 0.971697
vt 0.549807 0.980452
vt 0.559568 0.980452
vt 0.559568 0.971697
vt 0.558596 0.971697
vt 0.558596 0.980452
vt 0.549824 0.979490
vt 0.549824 0.978518
vt 0.559551 0.978518
vt 0.559551 0.979490
vt 0.551756 0.978508
vt 0.551756 0.974617
vt 0.550783 0.974617
vt 0.550783 0.978508
vt 0.558592 0.978508
vt 0.558592 0.974617
vt 0.557619 0.974617
vt 0.557619 0.978508
vt 0.549824 0.974607
vt 0.549824 0.973635
vt 0.559551 0.973635
vt 0.559551 0.974607
vt 0.548851 0.971678
vt 0.548851 0.970705
vt 0.560524 0.970705
vt 0.560524 0.971678
vt 0.551769 0.971678
vt 0.551769 0.970705
vt 0.557606 0.970705
vt 0.557606 0.971678
vt 0.548851 0.970701
vt 0.548851 0.969728
vt 0.560524 0.969728
vt 0.560524 0.970701
vt 0.551756 0.970701
vt 0.551756 0.969728
vt 0.550783 0.969728
vt 0.550783 0.970701
vt 0.554686 0.970701
vt 0.554686 0.969728
vt 0.553713 0.969728
vt 0.553713 0.970701
vt 0.555662 0.970701
vt 0.555662 0.969728
vt 0.554689 0.969728
vt 0.554689 0.970701
vt 0.558592 0.970701
vt 0.558592 0.969728
vt 0.557619 0.969728
vt 0.557619 0.970701
f 1/1/1 2/2/1 3/3/1 4/4/1
f 5/5/2 6/6/2 7/7/2 8/8/2
f 9/9/3 10/10/3 11/11/3 12/12/3
f 9/13/4 13/14/4 14/15/4 10/16/4
f 11/17/5 15/18/5 16/19/5 12/20/5
f 17/21/3 18/22/3 19/23/3 20/24/3
f 17/25/4 21/26/4 22/27/4 18/28/4
f 23/29/5 24/30/5 25/31/5 26/32/5
f 27/33/4 28/34/4 29/35/4 30/36/4
f 31/37/5 32/38/5 33/39/5 34/40/5
f 35/41/4 36/42/4 37/43/4 38/44/4
f 19/45/5 39/46/5 40/47/5 20/48/5
f 41/49/6 42/50/6 43/51/6 44/52/6
f 25/53/3 24/54/3 37/55/3 36/56/3
f 45/57/4 46/58/4 47/59/4 48/60/4
f 49/61/5 50/62/5 51/63/5 52/64/5
f 53/65/6 54/66/6 55/67/6 56/68/6
f 57/69/4 58/70/4 59/71/4 60/72/4
f 61/73/5 62/74/5 63/75/5 64/76/5
f 65/77/3 66/78/3 67/79/3 68/80/3
f 69/81/3 70/82/3 71/83/3 72/84/3
f 73/85/6 74/86/6 75/87/6 76/88/6
f 22/89/6 21/90/6 40/91/6 39/92/6
f 73/93/5 77/94/5 78/95/5 74/96/5
f 79/97/4 80/98/4 81/99/4 82/100/4
f 83/101/5 84/102/5 85/103/5 86/104/5
f 75/105/4 87/106/4 88/107/4 76/108/4
