v 1.000000 1.000000 0.468750
v 1.000000 0.000000 0.468750
v 0.000000 0.000000 0.468750
v 0.000000 1.000000 0.468750
v 0.000000 1.000000 0.531250
v 0.000000 0.000000 0.531250
v 1.000000 0.000000 0.531250
v 1.000000 1.000000 0.531250
v 0.250000 0.937500 0.468750
v 0.250000 0.937500 0.531250
v 0.812500 0.937500 0.531250
v 0.812500 0.937500 0.468750
v 0.250000 0.125000 0.468750
v 0.250000 0.125000 0.531250
v 0.437500 0.937500 0.531250
v 0.437500 0.812500 0.531250
v 0.437500 0.812500 0.468750
v 0.437500 0.937500 0.468750
v 0.625000 0.937500 0.468750
v 0.625000 0.812500 0.468750
v 0.625000 0.812500 0.531250
v 0.625000 0.937500 0.531250
v 0.812500 0.125000 0.531250
v 0.812500 0.125000 0.468750
v 0.187500 0.875000 0.468750
v 0.187500 0.875000 0.531250
v 0.875000 0.875000 0.531250
v 0.875000 0.875000 0.468750
v 0.187500 0.187500 0.468750
v 0.187500 0.187500 0.531250
v 0.875000 0.187500 0.531250
v 0.875000 0.187500 0.468750
v 0.500000 0.812500 0.531250
v 0.500000 0.687500 0.531250
v 0.500000 0.687500 0.468750
v 0.500000 0.812500 0.468750
v 0.562500 0.812500 0.468750
v 0.562500 0.687500 0.468750
v 0.562500 0.687500 0.531250
v 0.562500 0.812500 0.531250
v 0.125000 0.750000 0.468750
v 0.125000 0.750000 0.531250
v 0.937500 0.750000 0.531250
v 0.937500 0.750000 0.468750
v 0.125000 0.312500 0.468750
v 0.125000 0.312500 0.531250
v 0.937500 0.312500 0.531250
v 0.937500 0.312500 0.468750
v 0.375000 0.062500 0.531250
v 0.375000 0.062500 0.468750
v 0.687500 0.062500 0.468750
v 0.687500 0.062500 0.531250
v 0.375000 0.125000 0.468750
v 0.375000 0.125000 0.531250
v 0.687500 0.125000 0.531250
v 0.687500 0.125000 0.468750
vn 0.000000 0.000000 -1.000000
vn 0.000000 0.000000 1.000000
vn 0.000000 1.000000 0.000000
vn -1.000000 0.000000 0.000000
vn 1.000000 0.000000 0.000000
vn 0.000000 -1.000000 0.000000
vt 0.484344 0.843719
vt 0.484344 0.828156
vt 0.468781 0.828156
vt 0.468781 0.843719
vt 0.468781 0.843719
vt 0.468781 0.828156
vt 0.484344 0.828156
vt 0.484344 0.843719
vt 0.472673 0.842772
vt 0.472673 0.841799
vt 0.481428 0.841799
vt 0.481428 0.842772
vt 0.473631 0.842749
vt 0.473631 0.830103
vt 0.472658 0.830103
vt 0.472658 0.842749
vt 0.475584 0.842770
vt 0.475584 0.840824
vt 0.474611 0.840824
vt 0.474611 0.842770
vt 0.479490 0.842770
vt 0.479490 0.840824
vt 0.478518 0.840824
vt 0.478518 0.842770
vt 0.481443 0.842749
vt 0.481443 0.830103
vt 0.480471 0.830103
vt 0.480471 0.842749
vt 0.471701 0.841795
vt 0.471701 0.840822
vt 0.482401 0.840822
vt 0.482401 0.841795
vt 0.472654 0.841776
vt 0.472654 0.831076
vt 0.471682 0.831076
vt 0.471682 0.841776
vt 0.482420 0.841776
vt 0.482420 0.831076
vt 0.481447 0.831076
vt 0.481447 0.841776
vt 0.475592 0.840818
vt 0.475592 0.839846
vt 0.478510 0.839846
vt 0.478510 0.840818
vt 0.476561 0.840816
vt 0.476561 0.838871
vt 0.475588 0.838871
vt 0.475588 0.840816
vt 0.478514 0.840816
vt 0.478514 0.838871
vt 0.477541 0.838871
vt 0.477541 0.840816
vt 0.470728 0.839842
vt 0.470728 0.838869
vt 0.483374 0.838869
vt 0.483374 0.839842
vt 0.471678 0.839830
vt 0.471678 0.833021
vt 0.470705 0.833021
vt 0.470705 0.839830
vt 0.483397 0.839830
vt 0.483397 0.833021
vt 0.482424 0.833021
vt 0.482424 0.839830
vt 0.476564 0.838865
vt 0.476564 0.837893
vt 0.477537 0.837893
vt 0.477537 0.838865
vt 0.470728 0.833982
vt 0.470728 0.833010
vt 0.483374 0.833010
vt 0.483374 0.833982
vt 0.471701 0.832029
vt 0.471701 0.831057
vt 0.482401 0.831057
vt 0.482401 0.832029
vt 0.472673 0.831053
vt 0.472673 0.830080
vt 0.481428 0.830080
vt 0.481428 0.831053
vt 0.474619 0.830076
vt 0.474619 0.829103
vt 0.479483 0.829103
vt 0.479483 0.830076
vt 0.475584 0.830076
vt 0.475584 0.829103
vt 0.474611 0.829103
vt 0.474611 0.830076
vt 0.479490 0.830076
vt 0.479490 0.829103
vt 0.478518 0.829103
vt 0.478518 0.830076
f 1/1/1 2/2/1 3/3/1 4/4/1
f 5/5/2 6/6/2 7/7/2 8/8/2
f 9/9/3 10/10/3 11/11/3 12/12/3
f 9/13/4 13/14/4 14/15/4 10/16/4
f 15/17/5 16/18/5 17/19/5 18/20/5
f 19/21/4 20/22/4 21/23/4 22/24/4
f 11/25/5 23/26/5 24/27/5 12/28/5
f 25/29/3 26/30/3 27/31/3 28/32/3
f 25/33/4 29/34/4 30/35/4 26/36/4
f 27/37/5 31/38/5 32/39/5 28/40/5
f 17/41/3 16/42/3 21/43/3 20/44/3
f 33/45/5 34/46/5 35/47/5 36/48/5
f 37/49/4 38/50/4 39/51/4 40/52/4
f 41/53/3 42/54/3 43/55/3 44/56/3
f 41/57/4 45/58/4 46/59/4 42/60/4
f 43/61/5 47/62/5 48/63/5 44/64/5
f 35/65/3 34/66/3 39/67/3 38/68/3
f 46/69/6 45/70/6 48/71/6 47/72/6
f 30/73/6 29/74/6 32/75/6 31/76/6
f 14/77/6 13/78/6 24/79/6 23/80/6
f 49/81/6 50/82/6 51/83/6 52/84/6
f 53/85/4 50/86/4 49/87/4 54/88/4
f 55/89/5 52/90/5 51/91/5 56/92/5
