v 1.000000 1.000000 0.468750
v 1.000000 0.000000 0.468750
v 0.000000 0.000000 0.468750
v 0.000000 1.000000 0.468750
v 0.000000 1.000000 0.531250
v 0.000000 0.000000 0.531250
v 1.000000 0.000000 0.531250
v 1.000000 1.000000 0.531250
v 0.500000 0.875000 0.468750
v 0.500000 0.875000 0.531250
v 0.625000 0.875000 0.531250
v 0.625000 0.875000 0.468750
v 0.500000 0.312500 0.468750
v 0.500000 0.312500 0.531250
v 0.625000 0.437500 0.531250
v 0.625000 0.437500 0.468750
v 0.500000 0.750000 0.531250
v 0.500000 0.750000 0.468750
v 0.625000 0.750000 0.468750
v 0.625000 0.750000 0.531250
v 0.250000 0.750000 0.468750
v 0.250000 0.750000 0.531250
v 0.375000 0.750000 0.531250
v 0.375000 0.750000 0.468750
v 0.250000 0.437500 0.468750
v 0.250000 0.437500 0.531250
v 0.375000 0.625000 0.531250
v 0.375000 0.625000 0.468750
v 0.250000 0.625000 0.531250
v 0.250000 0.625000 0.468750
v 0.500000 0.687500 0.468750
v 0.500000 0.687500 0.531250
v 0.812500 0.687500 0.531250
v 0.812500 0.687500 0.468750
v 0.750000 0.687500 0.468750
v 0.750000 0.500000 0.468750
v 0.750000 0.500000 0.531250
v 0.750000 0.687500 0.531250
v 0.812500 0.250000 0.531250
v 0.812500 0.250000 0.468750
v 0.812500 0.625000 0.468750
v 0.812500 0.625000 0.531250
v 0.875000 0.625000 0.531250
v 0.875000 0.625000 0.468750
v 0.875000 0.500000 0.531250
v 0.875000 0.500000 0.468750
v 0.250000 0.500000 0.468750
v 0.250000 0.500000 0.531250
v 0.437500 0.500000 0.531250
v 0.437500 0.500000 0.468750
v 0.312500 0.500000 0.531250
v 0.312500 0.312500 0.531250
v 0.312500 0.312500 0.468750
v 0.312500 0.500000 0.468750
v 0.375000 0.500000 0.468750
v 0.375000 0.375000 0.468750
v 0.375000 0.375000 0.531250
v 0.375000 0.500000 0.531250
v 0.437500 0.375000 0.531250
v 0.437500 0.375000 0.468750
v 0.500000 0.437500 0.531250
v 0.500000 0.437500 0.468750
v 0.187500 0.437500 0.468750
v 0.187500 0.437500 0.531250
v 0.187500 0.312500 0.468750
v 0.187500 0.312500 0.531250
v 0.500000 0.375000 0.468750
v 0.500000 0.375000 0.531250
v 0.812500 0.375000 0.531250
v 0.812500 0.375000 0.468750
v 0.562500 0.375000 0.531250
v 0.562500 0.250000 0.531250
v 0.562500 0.250000 0.468750
v 0.562500 0.375000 0.468750
v 0.687500 0.375000 0.468750
v 0.687500 0.250000 0.468750
v 0.687500 0.250000 0.531250
v 0.687500 0.375000 0.531250
v 0.437500 0.312500 0.468750
v 0.437500 0.312500 0.531250
v 0.437500 0.250000 0.531250
v 0.437500 0.250000 0.468750
vn 0.000000 0.000000 -1.000000
vn 0.000000 0.000000 1.000000
vn 0.000000 1.000000 0.000000
vn -1.000000 0.000000 0.000000
vn 1.000000 0.000000 0.000000
vn 0.000000 -1.000000 0.000000
vt 0.562469 0.656219
vt 0.562469 0.640656
vt 0.546906 0.640656
vt 0.546906 0.656219
vt 0.546906 0.656219
vt 0.546906 0.640656
vt 0.562469 0.640656
vt 0.562469 0.656219
vt 0.554691 0.654295
vt 0.554691 0.653322
vt 0.556637 0.653322
vt 0.556637 0.654295
vt 0.555662 0.654280
vt 0.555662 0.645525
vt 0.554689 0.645525
vt 0.554689 0.654280
vt 0.556639 0.654284
vt 0.556639 0.647474
vt 0.555666 0.647474
vt 0.555666 0.654284
vt 0.554691 0.653318
vt 0.554691 0.652346
vt 0.556637 0.652346
vt 0.556637 0.653318
vt 0.550785 0.652342
vt 0.550785 0.651369
vt 0.552731 0.651369
vt 0.552731 0.652342
vt 0.551756 0.652334
vt 0.551756 0.647470
vt 0.550783 0.647470
vt 0.550783 0.652334
vt 0.552732 0.652340
vt 0.552732 0.650394
vt 0.551760 0.650394
vt 0.551760 0.652340
vt 0.550785 0.651365
vt 0.550785 0.650393
vt 0.552731 0.650393
vt 0.552731 0.651365
vt 0.554697 0.651365
vt 0.554697 0.650393
vt 0.559561 0.650393
vt 0.559561 0.651365
vt 0.559568 0.651361
vt 0.559568 0.648443
vt 0.558596 0.648443
vt 0.558596 0.651361
vt 0.559568 0.651354
vt 0.559568 0.644545
vt 0.558596 0.644545
vt 0.558596 0.651354
vt 0.559572 0.650389
vt 0.559572 0.649416
vt 0.560545 0.649416
vt 0.560545 0.650389
vt 0.560545 0.650387
vt 0.560545 0.648441
vt 0.559572 0.648441
vt 0.559572 0.650387
vt 0.558598 0.649412
vt 0.558598 0.648439
vt 0.560543 0.648439
vt 0.560543 0.649412
vt 0.550787 0.648436
vt 0.550787 0.647463
vt 0.553705 0.647463
vt 0.553705 0.648436
vt 0.551756 0.648432
vt 0.551756 0.645514
vt 0.550783 0.645514
vt 0.550783 0.648432
vt 0.553709 0.648434
vt 0.553709 0.646488
vt 0.552736 0.646488
vt 0.552736 0.648434
vt 0.553709 0.648434
vt 0.553709 0.646488
vt 0.552736 0.646488
vt 0.552736 0.648434
vt 0.554691 0.648436
vt 0.554691 0.647463
vt 0.556637 0.647463
vt 0.556637 0.648436
vt 0.549807 0.647459
vt 0.549807 0.646486
vt 0.550779 0.646486
vt 0.550779 0.647459
vt 0.550779 0.647457
vt 0.550779 0.645512
vt 0.549807 0.645512
vt 0.549807 0.647457
vt 0.552736 0.647459
vt 0.552736 0.646486
vt 0.553709 0.646486
vt 0.553709 0.647459
vt 0.549809 0.646482
vt 0.549809 0.645510
vt 0.551754 0.645510
vt 0.551754 0.646482
vt 0.554697 0.646482
vt 0.554697 0.645510
vt 0.559561 0.645510
vt 0.559561 0.646482
vt 0.555662 0.646481
vt 0.555662 0.644535
vt 0.554689 0.644535
vt 0.554689 0.646481
vt 0.558592 0.646481
vt 0.558592 0.644535
vt 0.557619 0.644535
vt 0.557619 0.646481
vt 0.553713 0.645506
vt 0.553713 0.644533
vt 0.554686 0.644533
vt 0.554686 0.645506
vt 0.553722 0.645506
vt 0.553722 0.644533
vt 0.559559 0.644533
vt 0.559559 0.645506
vt 0.554686 0.645506
vt 0.554686 0.644533
vt 0.553713 0.644533
vt 0.553713 0.645506
f 1/1/1 2/2/1 3/3/1 4/4/1
f 5/5/2 6/6/2 7/7/2 8/8/2
f 9/9/3 10/10/3 11/11/3 12/12/3
f 9/13/4 13/14/4 14/15/4 10/16/4
f 11/17/5 15/18/5 16/19/5 12/20/5
f 17/21/6 18/22/6 19/23/6 20/24/6
f 21/25/3 22/26/3 23/27/3 24/28/3
f 21/29/4 25/30/4 26/31/4 22/32/4
f 23/33/5 27/34/5 28/35/5 24/36/5
f 29/37/6 30/38/6 28/39/6 27/40/6
f 31/41/3 32/42/3 33/43/3 34/44/3
f 35/45/4 36/46/4 37/47/4 38/48/4
f 33/49/5 39/50/5 40/51/5 34/52/5
f 41/53/3 42/54/3 43/55/3 44/56/3
f 43/57/5 45/58/5 46/59/5 44/60/5
f 37/61/6 36/62/6 46/63/6 45/64/6
f 47/65/3 48/66/3 49/67/3 50/68/3
f 51/69/5 52/70/5 53/71/5 54/72/5
f 55/73/4 56/74/4 57/75/4 58/76/4
f 49/77/5 59/78/5 60/79/5 50/80/5
f 61/81/6 62/82/6 16/83/6 15/84/6
f 63/85/3 64/86/3 26/87/3 25/88/3
f 63/89/4 65/90/4 66/91/4 64/92/4
f 57/93/6 56/94/6 60/95/6 59/96/6
f 66/97/6 65/98/6 53/99/6 52/100/6
f 67/101/3 68/102/3 69/103/3 70/104/3
f 71/105/5 72/106/5 73/107/5 74/108/5
f 75/109/4 76/110/4 77/111/4 78/112/4
f 79/113/3 80/114/3 14/115/3 13/116/3
f 81/117/6 82/118/6 40/119/6 39/120/6
f 79/121/4 82/122/4 81/123/4 80/124/4
