v 1.000000 1.000000 0.468750
v 1.000000 0.000000 0.468750
v 0.000000 0.000000 0.468750
v 0.000000 1.000000 0.468750
v 0.000000 1.000000 0.531250
v 0.000000 0.000000 0.531250
v 1.000000 0.000000 0.531250
v 1.000000 1.000000 0.531250
v 0.250000 0.937500 0.468750
v 0.250000 0.937500 0.531250
v 0.500000 0.937500 0.531250
v 0.500000 0.937500 0.468750
v 0.250000 0.625000 0.468750
v 0.250000 0.625000 0.531250
v 0.500000 0.875000 0.531250
v 0.500000 0.875000 0.468750
v 0.250000 0.812500 0.531250
v 0.250000 0.812500 0.468750
v 0.312500 0.812500 0.468750
v 0.312500 0.812500 0.531250
v 0.625000 0.875000 0.531250
v 0.625000 0.875000 0.468750
v 0.625000 0.125000 0.531250
v 0.625000 0.125000 0.468750
v 0.312500 0.125000 0.468750
v 0.312500 0.125000 0.531250
v 0.625000 0.812500 0.468750
v 0.625000 0.812500 0.531250
v 0.750000 0.812500 0.531250
v 0.750000 0.812500 0.468750
v 0.750000 0.312500 0.531250
v 0.750000 0.312500 0.468750
v 0.250000 0.750000 0.468750
v 0.250000 0.750000 0.531250
v 0.875000 0.750000 0.531250
v 0.875000 0.750000 0.468750
v 0.875000 0.562500 0.531250
v 0.875000 0.562500 0.468750
v 0.875000 0.687500 0.468750
v 0.875000 0.687500 0.531250
v 0.937500 0.687500 0.531250
v 0.937500 0.687500 0.468750
v 0.875000 0.625000 0.531250
v 0.875000 0.625000 0.468750
v 0.937500 0.625000 0.468750
v 0.937500 0.625000 0.531250
v 0.187500 0.625000 0.468750
v 0.187500 0.625000 0.531250
v 0.187500 0.187500 0.468750
v 0.187500 0.187500 0.531250
v 0.812500 0.562500 0.531250
v 0.812500 0.562500 0.468750
v 0.812500 0.437500 0.531250
v 0.812500 0.437500 0.468750
v 0.125000 0.500000 0.468750
v 0.125000 0.500000 0.531250
v 0.187500 0.500000 0.531250
v 0.187500 0.500000 0.468750
v 0.125000 0.250000 0.468750
v 0.125000 0.250000 0.531250
v 0.750000 0.437500 0.531250
v 0.750000 0.437500 0.468750
v 0.062500 0.375000 0.468750
v 0.062500 0.375000 0.531250
v 0.125000 0.375000 0.531250
v 0.125000 0.375000 0.468750
v 0.062500 0.312500 0.531250
v 0.062500 0.312500 0.468750
v 0.187500 0.250000 0.468750
v 0.187500 0.250000 0.531250
v 0.687500 0.312500 0.531250
v 0.687500 0.187500 0.531250
v 0.687500 0.187500 0.468750
v 0.687500 0.312500 0.468750
v 0.500000 0.062500 0.531250
v 0.500000 0.062500 0.468750
v 0.562500 0.062500 0.468750
v 0.562500 0.062500 0.531250
v 0.500000 0.125000 0.468750
v 0.500000 0.125000 0.531250
v 0.562500 0.125000 0.531250
v 0.562500 0.125000 0.468750
vn 0.000000 0.000000 -1.000000
vn 0.000000 0.000000 1.000000
vn 0.000000 1.000000 0.000000
vn -1.000000 0.000000 0.000000
vn 1.000000 0.000000 0.000000
vn 0.000000 -1.000000 0.000000
vt 0.562469 0.593719
vt 0.562469 0.578156
vt 0.546906 0.578156
vt 0.546906 0.593719
vt 0.546906 0.593719
vt 0.546906 0.578156
vt 0.562469 0.578156
vt 0.562469 0.593719
vt 0.550789 0.592772
vt 0.550789 0.591799
vt 0.554680 0.591799
vt 0.554680 0.592772
vt 0.551756 0.592764
vt 0.551756 0.587900
vt 0.550783 0.587900
vt 0.550783 0.592764
vt 0.554686 0.592772
vt 0.554686 0.591799
vt 0.553713 0.591799
vt 0.553713 0.592772
vt 0.550783 0.591795
vt 0.550783 0.590822
vt 0.551756 0.590822
vt 0.551756 0.591795
vt 0.554691 0.591795
vt 0.554691 0.590822
vt 0.556637 0.590822
vt 0.556637 0.591795
vt 0.556639 0.591774
vt 0.556639 0.580101
vt 0.555666 0.580101
vt 0.555666 0.591774
vt 0.552732 0.590799
vt 0.552732 0.580099
vt 0.551760 0.580099
vt 0.551760 0.590799
vt 0.556644 0.590818
vt 0.556644 0.589846
vt 0.558590 0.589846
vt 0.558590 0.590818
vt 0.558592 0.590805
vt 0.558592 0.583023
vt 0.557619 0.583023
vt 0.557619 0.590805
vt 0.550800 0.589842
vt 0.550800 0.588869
vt 0.560528 0.588869
vt 0.560528 0.589842
vt 0.560545 0.589838
vt 0.560545 0.586920
vt 0.559572 0.586920
vt 0.559572 0.589838
vt 0.560549 0.588865
vt 0.560549 0.587893
vt 0.561522 0.587893
vt 0.561522 0.588865
vt 0.560549 0.588865
vt 0.560549 0.587893
vt 0.561522 0.587893
vt 0.561522 0.588865
vt 0.561522 0.588865
vt 0.561522 0.587893
vt 0.560549 0.587893
vt 0.560549 0.588865
vt 0.549807 0.587889
vt 0.549807 0.586916
vt 0.550779 0.586916
vt 0.550779 0.587889
vt 0.550779 0.587877
vt 0.550779 0.581068
vt 0.549807 0.581068
vt 0.549807 0.587877
vt 0.559572 0.587889
vt 0.559572 0.586916
vt 0.560545 0.586916
vt 0.560545 0.587889
vt 0.559568 0.586910
vt 0.559568 0.584965
vt 0.558596 0.584965
vt 0.558596 0.586910
vt 0.548830 0.585936
vt 0.548830 0.584963
vt 0.549803 0.584963
vt 0.549803 0.585936
vt 0.549803 0.585930
vt 0.549803 0.582039
vt 0.548830 0.582039
vt 0.548830 0.585930
vt 0.558596 0.585936
vt 0.558596 0.584963
vt 0.559568 0.584963
vt 0.559568 0.585936
vt 0.547853 0.583982
vt 0.547853 0.583010
vt 0.548826 0.583010
vt 0.548826 0.583982
vt 0.547873 0.583982
vt 0.547873 0.583010
vt 0.558573 0.583010
vt 0.558573 0.583982
vt 0.548826 0.583982
vt 0.548826 0.583010
vt 0.547853 0.583010
vt 0.547853 0.583982
vt 0.548830 0.583006
vt 0.548830 0.582033
vt 0.549803 0.582033
vt 0.549803 0.583006
vt 0.557615 0.583004
vt 0.557615 0.581059
vt 0.556643 0.581059
vt 0.556643 0.583004
vt 0.549820 0.582029
vt 0.549820 0.581057
vt 0.557602 0.581057
vt 0.557602 0.582029
vt 0.551767 0.581053
vt 0.551767 0.580080
vt 0.556631 0.580080
vt 0.556631 0.581053
vt 0.554689 0.580076
vt 0.554689 0.579103
vt 0.555662 0.579103
vt 0.555662 0.580076
vt 0.555662 0.580076
vt 0.555662 0.579103
vt 0.554689 0.579103
vt 0.554689 0.580076
vt 0.555662 0.580076
vt 0.555662 0.579103
vt 0.554689 0.579103
vt 0.554689 0.580076
f 1/1/1 2/2/1 3/3/1 4/4/1
f 5/5/2 6/6/2 7/7/2 8/8/2
f 9/9/3 10/10/3 11/11/3 12/12/3
f 9/13/4 13/14/4 14/15/4 10/16/4
f 11/17/5 15/18/5 16/19/5 12/20/5
f 17/21/6 18/22/6 19/23/6 20/24/6
f 16/25/3 15/26/3 21/27/3 22/28/3
f 21/29/5 23/30/5 24/31/5 22/32/5
f 19/33/4 25/34/4 26/35/4 20/36/4
f 27/37/3 28/38/3 29/39/3 30/40/3
f 29/41/5 31/42/5 32/43/5 30/44/5
f 33/45/3 34/46/3 35/47/3 36/48/3
f 35/49/5 37/50/5 38/51/5 36/52/5
f 39/53/3 40/54/3 41/55/3 42/56/3
f 43/57/6 44/58/6 45/59/6 46/60/6
f 41/61/5 46/62/5 45/63/5 42/64/5
f 47/65/3 48/66/3 14/67/3 13/68/3
f 47/69/4 49/70/4 50/71/4 48/72/4
f 51/73/6 52/74/6 38/75/6 37/76/6
f 51/77/5 53/78/5 54/79/5 52/80/5
f 55/81/3 56/82/3 57/83/3 58/84/3
f 55/85/4 59/86/4 60/87/4 56/88/4
f 61/89/6 62/90/6 54/91/6 53/92/6
f 63/93/3 64/94/3 65/95/3 66/96/3
f 67/97/6 68/98/6 32/99/6 31/100/6
f 63/101/4 68/102/4 67/103/4 64/104/4
f 60/105/6 59/106/6 69/107/6 70/108/6
f 71/109/5 72/110/5 73/111/5 74/112/5
f 50/113/6 49/114/6 73/115/6 72/116/6
f 26/117/6 25/118/6 24/119/6 23/120/6
f 75/121/6 76/122/6 77/123/6 78/124/6
f 79/125/4 76/126/4 75/127/4 80/128/4
f 81/129/5 78/130/5 77/131/5 82/132/5
