v 1.000000 1.000000 0.468750
v 1.000000 0.000000 0.468750
v 0.000000 0.000000 0.468750
v 0.000000 1.000000 0.468750
v 0.000000 1.000000 0.531250
v 0.000000 0.000000 0.531250
v 1.000000 0.000000 0.531250
v 1.000000 1.000000 0.531250
v 0.312500 0.812500 0.468750
v 0.312500 0.812500 0.531250
v 0.562500 0.812500 0.531250
v 0.562500 0.812500 0.468750
v 0.312500 0.750000 0.468750
v 0.312500 0.750000 0.531250
v 0.562500 0.750000 0.531250
v 0.562500 0.750000 0.468750
v 0.125000 0.750000 0.468750
v 0.125000 0.750000 0.531250
v 0.812500 0.750000 0.531250
v 0.812500 0.750000 0.468750
v 0.125000 0.250000 0.468750
v 0.125000 0.250000 0.531250
v 0.625000 0.750000 0.531250
v 0.625000 0.312500 0.531250
v 0.625000 0.312500 0.468750
v 0.625000 0.750000 0.468750
v 0.687500 0.750000 0.468750
v 0.687500 0.312500 0.468750
v 0.687500 0.312500 0.531250
v 0.687500 0.750000 0.531250
v 0.812500 0.125000 0.531250
v 0.812500 0.125000 0.468750
v 0.062500 0.687500 0.468750
v 0.062500 0.687500 0.531250
v 0.875000 0.687500 0.531250
v 0.875000 0.687500 0.468750
v 0.062500 0.312500 0.468750
v 0.062500 0.312500 0.531250
v 0.875000 0.312500 0.531250
v 0.875000 0.312500 0.468750
v 0.000000 0.625000 0.468750
v 0.000000 0.625000 0.531250
v 0.062500 0.625000 0.531250
v 0.062500 0.625000 0.468750
v 0.000000 0.375000 0.468750
v 0.000000 0.375000 0.531250
v 0.000000 0.500000 0.531250
v 0.000000 0.500000 0.468750
v 0.062500 0.500000 0.468750
v 0.062500 0.500000 0.531250
v 0.875000 0.562500 0.468750
v 0.875000 0.562500 0.531250
v 0.937500 0.562500 0.531250
v 0.937500 0.562500 0.468750
v 0.937500 0.375000 0.531250
v 0.937500 0.375000 0.468750
v 0.500000 0.437500 0.531250
v 0.500000 0.437500 0.468750
v 0.625000 0.437500 0.468750
v 0.625000 0.437500 0.531250
v 0.000000 0.437500 0.468750
v 0.000000 0.437500 0.531250
v 0.062500 0.437500 0.531250
v 0.062500 0.437500 0.468750
v 0.500000 0.250000 0.531250
v 0.500000 0.250000 0.468750
v 0.625000 0.062500 0.468750
v 0.625000 0.062500 0.531250
v 0.562500 0.375000 0.468750
v 0.562500 0.375000 0.531250
v 0.625000 0.375000 0.531250
v 0.625000 0.375000 0.468750
v 0.562500 0.125000 0.468750
v 0.562500 0.125000 0.531250
v 0.750000 0.312500 0.531250
v 0.750000 0.062500 0.531250
v 0.750000 0.062500 0.468750
v 0.750000 0.312500 0.468750
v 0.250000 0.187500 0.531250
v 0.250000 0.187500 0.468750
v 0.437500 0.187500 0.468750
v 0.437500 0.187500 0.531250
v 0.250000 0.250000 0.468750
v 0.250000 0.250000 0.531250
v 0.437500 0.250000 0.531250
v 0.437500 0.250000 0.468750
v 0.750000 0.250000 0.468750
v 0.750000 0.250000 0.531250
v 0.812500 0.250000 0.531250
v 0.812500 0.250000 0.468750
vn 0.000000 0.000000 -1.000000
vn 0.000000 0.000000 1.000000
vn 0.000000 1.000000 0.000000
vn -1.000000 0.000000 0.000000
vn 1.000000 0.000000 0.000000
vn 0.000000 -1.000000 0.000000
vt 0.562469 0.562469
vt 0.562469 0.546906
vt 0.546906 0.546906
vt 0.546906 0.562469
vt 0.546906 0.562469
vt 0.546906 0.546906
vt 0.562469 0.546906
vt 0.562469 0.562469
vt 0.551765 0.559568
vt 0.551765 0.558596
vt 0.555656 0.558596
vt 0.555656 0.559568
vt 0.552732 0.559568
vt 0.552732 0.558596
vt 0.551760 0.558596
vt 0.551760 0.559568
vt 0.555662 0.559568
vt 0.555662 0.558596
vt 0.554689 0.558596
vt 0.554689 0.559568
vt 0.548849 0.558592
vt 0.548849 0.557619
vt 0.559549 0.557619
vt 0.559549 0.558592
vt 0.549803 0.558578
vt 0.549803 0.550797
vt 0.548830 0.550797
vt 0.548830 0.558578
vt 0.556639 0.558580
vt 0.556639 0.551771
vt 0.555666 0.551771
vt 0.555666 0.558580
vt 0.558592 0.558580
vt 0.558592 0.551771
vt 0.557619 0.551771
vt 0.557619 0.558580
vt 0.559568 0.558575
vt 0.559568 0.548847
vt 0.558596 0.548847
vt 0.558596 0.558575
vt 0.547876 0.557615
vt 0.547876 0.556643
vt 0.560522 0.556643
vt 0.560522 0.557615
vt 0.548826 0.557606
vt 0.548826 0.551769
vt 0.547853 0.551769
vt 0.547853 0.557606
vt 0.560545 0.557606
vt 0.560545 0.551769
vt 0.559572 0.551769
vt 0.559572 0.557606
vt 0.546877 0.556639
vt 0.546877 0.555666
vt 0.547850 0.555666
vt 0.547850 0.556639
vt 0.547850 0.556633
vt 0.547850 0.552742
vt 0.546877 0.552742
vt 0.546877 0.556633
vt 0.546877 0.555662
vt 0.546877 0.554689
vt 0.547850 0.554689
vt 0.547850 0.555662
vt 0.560549 0.555662
vt 0.560549 0.554689
vt 0.561522 0.554689
vt 0.561522 0.555662
vt 0.561522 0.555658
vt 0.561522 0.552740
vt 0.560549 0.552740
vt 0.560549 0.555658
vt 0.554691 0.554686
vt 0.554691 0.553713
vt 0.556637 0.553713
vt 0.556637 0.554686
vt 0.546877 0.553709
vt 0.546877 0.552736
vt 0.547850 0.552736
vt 0.547850 0.553709
vt 0.546904 0.553709
vt 0.546904 0.552736
vt 0.561495 0.552736
vt 0.561495 0.553709
vt 0.554686 0.553705
vt 0.554686 0.550787
vt 0.553713 0.550787
vt 0.553713 0.553705
vt 0.557615 0.553699
vt 0.557615 0.547863
vt 0.556643 0.547863
vt 0.556643 0.553699
vt 0.547876 0.552732
vt 0.547876 0.551760
vt 0.560522 0.551760
vt 0.560522 0.552732
vt 0.555666 0.552732
vt 0.555666 0.551760
vt 0.556639 0.551760
vt 0.556639 0.552732
vt 0.556639 0.552727
vt 0.556639 0.548836
vt 0.555666 0.548836
vt 0.555666 0.552727
vt 0.548840 0.551756
vt 0.548840 0.550783
vt 0.554676 0.550783
vt 0.554676 0.551756
vt 0.556643 0.551756
vt 0.556643 0.550783
vt 0.557615 0.550783
vt 0.557615 0.551756
vt 0.558592 0.551750
vt 0.558592 0.547859
vt 0.557619 0.547859
vt 0.557619 0.551750
vt 0.550787 0.550779
vt 0.550787 0.549807
vt 0.553705 0.549807
vt 0.553705 0.550779
vt 0.551756 0.550779
vt 0.551756 0.549807
vt 0.550783 0.549807
vt 0.550783 0.550779
vt 0.553709 0.550779
vt 0.553709 0.549807
vt 0.552736 0.549807
vt 0.552736 0.550779
vt 0.558596 0.550779
vt 0.558596 0.549807
vt 0.559568 0.549807
vt 0.559568 0.550779
vt 0.555672 0.549803
vt 0.555672 0.548830
vt 0.559563 0.548830
vt 0.559563 0.549803
vt 0.556644 0.548826
vt 0.556644 0.547853
vt 0.558590 0.547853
vt 0.558590 0.548826
f 1/1/1 2/2/1 3/3/1 4/4/1
f 5/5/2 6/6/2 7/7/2 8/8/2
f 9/9/3 10/10/3 11/11/3 12/12/3
f 9/13/4 13/14/4 14/15/4 10/16/4
f 11/17/5 15/18/5 16/19/5 12/20/5
f 17/21/3 18/22/3 19/23/3 20/24/3
f 17/25/4 21/26/4 22/27/4 18/28/4
f 23/29/5 24/30/5 25/31/5 26/32/5
f 27/33/4 28/34/4 29/35/4 30/36/4
f 19/37/5 31/38/5 32/39/5 20/40/5
f 33/41/3 34/42/3 35/43/3 36/44/3
f 33/45/4 37/46/4 38/47/4 34/48/4
f 35/49/5 39/50/5 40/51/5 36/52/5
f 41/53/3 42/54/3 43/55/3 44/56/3
f 41/57/4 45/58/4 46/59/4 42/60/4
f 47/61/6 48/62/6 49/63/6 50/64/6
f 51/65/3 52/66/3 53/67/3 54/68/3
f 53/69/5 55/70/5 56/71/5 54/72/5
f 57/73/6 58/74/6 59/75/6 60/76/6
f 61/77/3 62/78/3 63/79/3 64/80/3
f 46/81/6 45/82/6 56/83/6 55/84/6
f 57/85/5 65/86/5 66/87/5 58/88/5
f 59/89/4 67/90/4 68/91/4 60/92/4
f 38/93/6 37/94/6 40/95/6 39/96/6
f 69/97/3 70/98/3 71/99/3 72/100/3
f 69/101/4 73/102/4 74/103/4 70/104/4
f 22/105/6 21/106/6 66/107/6 65/108/6
f 25/109/3 24/110/3 29/111/3 28/112/3
f 75/113/5 76/114/5 77/115/5 78/116/5
f 79/117/6 80/118/6 81/119/6 82/120/6
f 83/121/4 80/122/4 79/123/4 84/124/4
f 85/125/5 82/126/5 81/127/5 86/128/5
f 87/129/3 88/130/3 89/131/3 90/132/3
f 74/133/6 73/134/6 32/135/6 31/136/6
f 68/137/6 67/138/6 77/139/6 76/140/6
