v 1.000000 1.000000 0.468750
v 1.000000 0.000000 0.468750
v 0.000000 0.000000 0.468750
v 0.000000 1.000000 0.468750
v 0.000000 1.000000 0.531250
v 0.000000 0.000000 0.531250
v 1.000000 0.000000 0.531250
v 1.000000 1.000000 0.531250
v 0.375000 0.875000 0.468750
v 0.375000 0.875000 0.531250
v 0.562500 0.875000 0.531250
v 0.562500 0.875000 0.468750
v 0.375000 0.812500 0.468750
v 0.375000 0.812500 0.531250
v 0.562500 0.812500 0.531250
v 0.562500 0.812500 0.468750
v 0.312500 0.812500 0.468750
v 0.312500 0.812500 0.531250
v 0.625000 0.812500 0.531250
v 0.625000 0.812500 0.468750
v 0.312500 0.187500 0.468750
v 0.312500 0.187500 0.531250
v 0.625000 0.750000 0.531250
v 0.625000 0.750000 0.468750
v 0.875000 0.750000 0.531250
v 0.875000 0.750000 0.468750
v 0.875000 0.375000 0.531250
v 0.875000 0.375000 0.468750
v 0.250000 0.687500 0.468750
v 0.250000 0.687500 0.531250
v 0.937500 0.687500 0.531250
v 0.937500 0.687500 0.468750
v 0.250000 0.250000 0.468750
v 0.250000 0.250000 0.531250
v 0.875000 0.625000 0.531250
v 0.875000 0.625000 0.468750
v 0.937500 0.625000 0.468750
v 0.937500 0.625000 0.531250
v 0.187500 0.625000 0.468750
v 0.187500 0.625000 0.531250
v 0.250000 0.625000 0.531250
v 0.250000 0.625000 0.468750
v 0.187500 0.312500 0.468750
v 0.187500 0.312500 0.531250
v 0.125000 0.562500 0.468750
v 0.125000 0.562500 0.531250
v 0.187500 0.562500 0.531250
v 0.187500 0.562500 0.468750
v 0.125000 0.375000 0.468750
v 0.125000 0.375000 0.531250
v 0.812500 0.312500 0.468750
v 0.812500 0.312500 0.531250
v 0.812500 0.375000 0.531250
v 0.812500 0.375000 0.468750
v 0.750000 0.250000 0.468750
v 0.750000 0.250000 0.531250
v 0.750000 0.312500 0.531250
v 0.750000 0.312500 0.468750
v 0.687500 0.187500 0.468750
v 0.687500 0.187500 0.531250
v 0.687500 0.250000 0.531250
v 0.687500 0.250000 0.468750
vn 0.000000 0.000000 -1.000000
vn 0.000000 0.000000 1.000000
vn 0.000000 1.000000 0.000000
vn -1.000000 0.000000 0.000000
vn 1.000000 0.000000 0.000000
vn 0.000000 -1.000000 0.000000
vt 0.578094 0.531219
vt 0.578094 0.515656
vt 0.562531 0.515656
vt 0.562531 0.531219
vt 0.562531 0.531219
vt 0.562531 0.515656
vt 0.578094 0.515656
vt 0.578094 0.531219
vt 0.568365 0.529295
vt 0.568365 0.528322
vt 0.571283 0.528322
vt 0.571283 0.529295
vt 0.569334 0.529295
vt 0.569334 0.528322
vt 0.568361 0.528322
vt 0.568361 0.529295
vt 0.571287 0.529295
vt 0.571287 0.528322
vt 0.570314 0.528322
vt 0.570314 0.529295
vt 0.567392 0.528318
vt 0.567392 0.527346
vt 0.572256 0.527346
vt 0.572256 0.528318
vt 0.568357 0.528301
vt 0.568357 0.518574
vt 0.567385 0.518574
vt 0.567385 0.528301
vt 0.572264 0.528318
vt 0.572264 0.527346
vt 0.571291 0.527346
vt 0.571291 0.528318
vt 0.572273 0.527342
vt 0.572273 0.526369
vt 0.576164 0.526369
vt 0.576164 0.527342
vt 0.576170 0.527332
vt 0.576170 0.521496
vt 0.575197 0.521496
vt 0.575197 0.527332
vt 0.566427 0.526365
vt 0.566427 0.525393
vt 0.577127 0.525393
vt 0.577127 0.526365
vt 0.567381 0.526354
vt 0.567381 0.519545
vt 0.566408 0.519545
vt 0.566408 0.526354
vt 0.576174 0.526365
vt 0.576174 0.525393
vt 0.577147 0.525393
vt 0.577147 0.526365
vt 0.577147 0.526365
vt 0.577147 0.525393
vt 0.576174 0.525393
vt 0.576174 0.526365
vt 0.565432 0.525389
vt 0.565432 0.524416
vt 0.566404 0.524416
vt 0.566404 0.525389
vt 0.566404 0.525381
vt 0.566404 0.520517
vt 0.565432 0.520517
vt 0.565432 0.525381
vt 0.564455 0.524412
vt 0.564455 0.523439
vt 0.565428 0.523439
vt 0.565428 0.524412
vt 0.565428 0.524408
vt 0.565428 0.521490
vt 0.564455 0.521490
vt 0.564455 0.524408
vt 0.564476 0.522459
vt 0.564476 0.521486
vt 0.576149 0.521486
vt 0.576149 0.522459
vt 0.565449 0.521482
vt 0.565449 0.520510
vt 0.575176 0.520510
vt 0.575176 0.521482
vt 0.575193 0.521482
vt 0.575193 0.520510
vt 0.574221 0.520510
vt 0.574221 0.521482
vt 0.566422 0.520506
vt 0.566422 0.519533
vt 0.574203 0.519533
vt 0.574203 0.520506
vt 0.574217 0.520506
vt 0.574217 0.519533
vt 0.573244 0.519533
vt 0.573244 0.520506
vt 0.567394 0.519529
vt 0.567394 0.518557
vt 0.573231 0.518557
vt 0.573231 0.519529
vt 0.573240 0.519529
vt 0.573240 0.518557
vt 0.572268 0.518557
vt 0.572268 0.519529
f 1/1/1 2/2/1 3/3/1 4/4/1
f 5/5/2 6/6/2 7/7/2 8/8/2
f 9/9/3 10/10/3 11/11/3 12/12/3
f 9/13/4 13/14/4 14/15/4 10/16/4
f 11/17/5 15/18/5 16/19/5 12/20/5
f 17/21/3 18/22/3 19/23/3 20/24/3
f 17/25/4 21/26/4 22/27/4 18/28/4
f 19/29/5 23/30/5 24/31/5 20/32/5
f 24/33/3 23/34/3 25/35/3 26/36/3
f 25/37/5 27/38/5 28/39/5 26/40/5
f 29/41/3 30/42/3 31/43/3 32/44/3
f 29/45/4 33/46/4 34/47/4 30/48/4
f 35/49/6 36/50/6 37/51/6 38/52/6
f 31/53/5 38/54/5 37/55/5 32/56/5
f 39/57/3 40/58/3 41/59/3 42/60/3
f 39/61/4 43/62/4 44/63/4 40/64/4
f 45/65/3 46/66/3 47/67/3 48/68/3
f 45/69/4 49/70/4 50/71/4 46/72/4
f 50/73/6 49/74/6 28/75/6 27/76/6
f 44/77/6 43/78/6 51/79/6 52/80/6
f 53/81/5 52/82/5 51/83/5 54/84/5
f 34/85/6 33/86/6 55/87/6 56/88/6
f 57/89/5 56/90/5 55/91/5 58/92/5
f 22/93/6 21/94/6 59/95/6 60/96/6
f 61/97/5 60/98/5 59/99/5 62/100/5
