v 1.000000 1.000000 0.468750
v 1.000000 0.000000 0.468750
v 0.000000 0.000000 0.468750
v 0.000000 1.000000 0.468750
v 0.000000 1.000000 0.531250
v 0.000000 0.000000 0.531250
v 1.000000 0.000000 0.531250
v 1.000000 1.000000 0.531250
v 0.562500 0.875000 0.468750
v 0.562500 0.875000 0.531250
v 0.750000 0.875000 0.531250
v 0.750000 0.875000 0.468750
v 0.562500 0.812500 0.468750
v 0.562500 0.812500 0.531250
v 0.750000 0.062500 0.531250
v 0.750000 0.062500 0.468750
v 0.312500 0.812500 0.468750
v 0.312500 0.812500 0.531250
v 0.937500 0.812500 0.531250
v 0.937500 0.812500 0.468750
v 0.312500 0.750000 0.468750
v 0.312500 0.750000 0.531250
v 0.437500 0.812500 0.531250
v 0.437500 0.750000 0.531250
v 0.437500 0.750000 0.468750
v 0.437500 0.812500 0.468750
v 0.500000 0.812500 0.468750
v 0.500000 0.062500 0.468750
v 0.500000 0.062500 0.531250
v 0.500000 0.812500 0.531250
v 0.937500 0.375000 0.531250
v 0.937500 0.375000 0.468750
v 0.250000 0.750000 0.468750
v 0.250000 0.750000 0.531250
v 1.000000 0.750000 0.531250
v 1.000000 0.750000 0.468750
v 0.250000 0.687500 0.468750
v 0.250000 0.687500 0.531250
v 1.000000 0.562500 0.531250
v 1.000000 0.562500 0.468750
v 0.187500 0.687500 0.468750
v 0.187500 0.687500 0.531250
v 0.187500 0.062500 0.468750
v 0.187500 0.062500 0.531250
v 0.937500 0.562500 0.531250
v 0.937500 0.562500 0.468750
v 0.125000 0.562500 0.468750
v 0.125000 0.562500 0.531250
v 0.187500 0.562500 0.531250
v 0.187500 0.562500 0.468750
v 0.125000 0.125000 0.468750
v 0.125000 0.125000 0.531250
v 0.062500 0.437500 0.468750
v 0.062500 0.437500 0.531250
v 0.125000 0.437500 0.531250
v 0.125000 0.437500 0.468750
v 0.062500 0.187500 0.468750
v 0.062500 0.187500 0.531250
v 0.875000 0.375000 0.531250
v 0.875000 0.375000 0.468750
v 0.875000 0.187500 0.531250
v 0.875000 0.187500 0.468750
v 0.812500 0.125000 0.468750
v 0.812500 0.125000 0.531250
v 0.812500 0.187500 0.531250
v 0.812500 0.187500 0.468750
v 0.375000 0.125000 0.531250
v 0.375000 0.062500 0.531250
v 0.375000 0.062500 0.468750
v 0.375000 0.125000 0.468750
vn 0.000000 0.000000 -1.000000
vn 0.000000 0.000000 1.000000
vn 0.000000 1.000000 0.000000
vn -1.000000 0.000000 0.000000
vn 1.000000 0.000000 0.000000
vn 0.000000 -1.000000 0.000000
vt 0.593719 0.999969
vt 0.593719 0.984406
vt 0.578156 0.984406
vt 0.578156 0.999969
vt 0.578156 0.999969
vt 0.578156 0.984406
vt 0.593719 0.984406
vt 0.593719 0.999969
vt 0.586920 0.998045
vt 0.586920 0.997072
vt 0.589838 0.997072
vt 0.589838 0.998045
vt 0.587889 0.998045
vt 0.587889 0.997072
vt 0.586916 0.997072
vt 0.586916 0.998045
vt 0.589842 0.998022
vt 0.589842 0.985376
vt 0.588869 0.985376
vt 0.588869 0.998022
vt 0.583027 0.997068
vt 0.583027 0.996096
vt 0.592754 0.996096
vt 0.592754 0.997068
vt 0.583982 0.997068
vt 0.583982 0.996096
vt 0.583010 0.996096
vt 0.583010 0.997068
vt 0.584959 0.997068
vt 0.584959 0.996096
vt 0.583986 0.996096
vt 0.583986 0.997068
vt 0.586912 0.997047
vt 0.586912 0.985374
vt 0.585939 0.985374
vt 0.585939 0.997047
vt 0.592772 0.997057
vt 0.592772 0.990248
vt 0.591799 0.990248
vt 0.591799 0.997057
vt 0.582054 0.996092
vt 0.582054 0.995119
vt 0.593727 0.995119
vt 0.593727 0.996092
vt 0.583006 0.996092
vt 0.583006 0.995119
vt 0.582033 0.995119
vt 0.582033 0.996092
vt 0.593748 0.996088
vt 0.593748 0.993170
vt 0.592775 0.993170
vt 0.592775 0.996088
vt 0.581057 0.995115
vt 0.581057 0.994143
vt 0.582029 0.994143
vt 0.582029 0.995115
vt 0.582029 0.995098
vt 0.582029 0.985371
vt 0.581057 0.985371
vt 0.581057 0.995098
vt 0.592775 0.994139
vt 0.592775 0.993166
vt 0.593748 0.993166
vt 0.593748 0.994139
vt 0.580080 0.993162
vt 0.580080 0.992189
vt 0.581053 0.992189
vt 0.581053 0.993162
vt 0.581053 0.993151
vt 0.581053 0.986341
vt 0.580080 0.986341
vt 0.580080 0.993151
vt 0.579103 0.991209
vt 0.579103 0.990236
vt 0.580076 0.990236
vt 0.580076 0.991209
vt 0.580076 0.991203
vt 0.580076 0.987312
vt 0.579103 0.987312
vt 0.579103 0.991203
vt 0.591799 0.991209
vt 0.591799 0.990236
vt 0.592772 0.990236
vt 0.592772 0.991209
vt 0.591795 0.990229
vt 0.591795 0.987310
vt 0.590822 0.987310
vt 0.590822 0.990229
vt 0.579126 0.988279
vt 0.579126 0.987307
vt 0.591772 0.987307
vt 0.591772 0.988279
vt 0.580099 0.987303
vt 0.580099 0.986330
vt 0.590799 0.986330
vt 0.590799 0.987303
vt 0.590818 0.987303
vt 0.590818 0.986330
vt 0.589846 0.986330
vt 0.589846 0.987303
vt 0.581072 0.986326
vt 0.581072 0.985353
vt 0.589827 0.985353
vt 0.589827 0.986326
vt 0.583982 0.986326
vt 0.583982 0.985353
vt 0.583010 0.985353
vt 0.583010 0.986326
f 1/1/1 2/2/1 3/3/1 4/4/1
f 5/5/2 6/6/2 7/7/2 8/8/2
f 9/9/3 10/10/3 11/11/3 12/12/3
f 9/13/4 13/14/4 14/15/4 10/16/4
f 11/17/5 15/18/5 16/19/5 12/20/5
f 17/21/3 18/22/3 19/23/3 20/24/3
f 17/25/4 21/26/4 22/27/4 18/28/4
f 23/29/5 24/30/5 25/31/5 26/32/5
f 27/33/4 28/34/4 29/35/4 30/36/4
f 19/37/5 31/38/5 32/39/5 20/40/5
f 33/41/3 34/42/3 35/43/3 36/44/3
f 33/45/4 37/46/4 38/47/4 34/48/4
f 35/49/5 39/50/5 40/51/5 36/52/5
f 41/53/3 42/54/3 38/55/3 37/56/3
f 41/57/4 43/58/4 44/59/4 42/60/4
f 45/61/6 46/62/6 40/63/6 39/64/6
f 47/65/3 48/66/3 49/67/3 50/68/3
f 47/69/4 51/70/4 52/71/4 48/72/4
f 53/73/3 54/74/3 55/75/3 56/76/3
f 53/77/4 57/78/4 58/79/4 54/80/4
f 59/81/6 60/82/6 32/83/6 31/84/6
f 59/85/5 61/86/5 62/87/5 60/88/5
f 58/89/6 57/90/6 62/91/6 61/92/6
f 52/93/6 51/94/6 63/95/6 64/96/6
f 65/97/5 64/98/5 63/99/5 66/100/5
f 44/101/6 43/102/6 16/103/6 15/104/6
f 67/105/5 68/106/5 69/107/5 70/108/5
