v 1.000000 1.000000 0.468750
v 1.000000 0.000000 0.468750
v 0.000000 0.000000 0.468750
v 0.000000 1.000000 0.468750
v 0.000000 1.000000 0.531250
v 0.000000 0.000000 0.531250
v 1.000000 0.000000 0.531250
v 1.000000 1.000000 0.531250
v 0.375000 0.812500 0.468750
v 0.375000 0.812500 0.531250
v 0.562500 0.812500 0.531250
v 0.562500 0.812500 0.468750
v 0.375000 0.062500 0.468750
v 0.375000 0.062500 0.531250
v 0.437500 0.812500 0.531250
v 0.437500 0.750000 0.531250
v 0.437500 0.750000 0.468750
v 0.437500 0.812500 0.468750
v 0.500000 0.812500 0.468750
v 0.500000 0.750000 0.468750
v 0.500000 0.750000 0.531250
v 0.500000 0.812500 0.531250
v 0.562500 0.062500 0.531250
v 0.562500 0.062500 0.468750
v 0.375000 0.625000 0.531250
v 0.375000 0.625000 0.468750
v 0.562500 0.625000 0.468750
v 0.562500 0.625000 0.531250
v 0.437500 0.625000 0.468750
v 0.437500 0.000000 0.468750
v 0.437500 0.000000 0.531250
v 0.437500 0.625000 0.531250
v 0.500000 0.625000 0.531250
v 0.500000 0.000000 0.531250
v 0.500000 0.000000 0.468750
v 0.500000 0.625000 0.468750
v 0.312500 0.562500 0.468750
v 0.312500 0.562500 0.531250
v 0.375000 0.562500 0.531250
v 0.375000 0.562500 0.468750
v 0.312500 0.187500 0.468750
v 0.312500 0.187500 0.531250
v 0.375000 0.500000 0.531250
v 0.375000 0.500000 0.468750
v 0.625000 0.500000 0.531250
v 0.625000 0.500000 0.468750
v 0.562500 0.500000 0.468750
v 0.562500 0.375000 0.468750
v 0.562500 0.375000 0.531250
v 0.562500 0.500000 0.531250
v 0.625000 0.187500 0.531250
v 0.625000 0.187500 0.468750
v 0.500000 0.375000 0.468750
v 0.500000 0.375000 0.531250
vn 0.000000 0.000000 -1.000000
vn 0.000000 0.000000 1.000000
vn 0.000000 1.000000 0.000000
vn -1.000000 0.000000 0.000000
vn 1.000000 0.000000 0.000000
vn 0.000000 -1.000000 0.000000
vt 0.218719 0.718719
vt 0.218719 0.703156
vt 0.203156 0.703156
vt 0.203156 0.718719
vt 0.203156 0.718719
vt 0.203156 0.703156
vt 0.218719 0.703156
vt 0.218719 0.718719
vt 0.208990 0.715818
vt 0.208990 0.714846
vt 0.211908 0.714846
vt 0.211908 0.715818
vt 0.209959 0.715797
vt 0.209959 0.704124
vt 0.208986 0.704124
vt 0.208986 0.715797
vt 0.209959 0.715818
vt 0.209959 0.714846
vt 0.208986 0.714846
vt 0.208986 0.715818
vt 0.211912 0.715818
vt 0.211912 0.714846
vt 0.210939 0.714846
vt 0.210939 0.715818
vt 0.211912 0.715797
vt 0.211912 0.704124
vt 0.210939 0.704124
vt 0.210939 0.715797
vt 0.209963 0.714842
vt 0.209963 0.713869
vt 0.210936 0.713869
vt 0.210936 0.714842
vt 0.208990 0.713865
vt 0.208990 0.712893
vt 0.211908 0.712893
vt 0.211908 0.713865
vt 0.210936 0.712872
vt 0.210936 0.703144
vt 0.209963 0.703144
vt 0.209963 0.712872
vt 0.210936 0.712872
vt 0.210936 0.703144
vt 0.209963 0.703144
vt 0.209963 0.712872
vt 0.208010 0.711912
vt 0.208010 0.710939
vt 0.208982 0.710939
vt 0.208982 0.711912
vt 0.208982 0.711903
vt 0.208982 0.706066
vt 0.208010 0.706066
vt 0.208010 0.711903
vt 0.208982 0.711912
vt 0.208982 0.710939
vt 0.208010 0.710939
vt 0.208010 0.711912
vt 0.208992 0.710936
vt 0.208992 0.709963
vt 0.212883 0.709963
vt 0.212883 0.710936
vt 0.212889 0.710934
vt 0.212889 0.708988
vt 0.211916 0.708988
vt 0.211916 0.710934
vt 0.212889 0.710928
vt 0.212889 0.706064
vt 0.211916 0.706064
vt 0.211916 0.710928
vt 0.210939 0.708982
vt 0.210939 0.708010
vt 0.211912 0.708010
vt 0.211912 0.708982
vt 0.208017 0.707029
vt 0.208017 0.706057
vt 0.212881 0.706057
vt 0.212881 0.707029
vt 0.208990 0.705076
vt 0.208990 0.704103
vt 0.211908 0.704103
vt 0.211908 0.705076
vt 0.209963 0.704100
vt 0.209963 0.703127
vt 0.210936 0.703127
vt 0.210936 0.704100
f 1/1/1 2/2/1 3/3/1 4/4/1
f 5/5/2 6/6/2 7/7/2 8/8/2
f 9/9/3 10/10/3 11/11/3 12/12/3
f 9/13/4 13/14/4 14/15/4 10/16/4
f 15/17/5 16/18/5 17/19/5 18/20/5
f 19/21/4 20/22/4 21/23/4 22/24/4
f 11/25/5 23/26/5 24/27/5 12/28/5
f 17/29/3 16/30/3 21/31/3 20/32/3
f 25/33/6 26/34/6 27/35/6 28/36/6
f 29/37/4 30/38/4 31/39/4 32/40/4
f 33/41/5 34/42/5 35/43/5 36/44/5
f 37/45/3 38/46/3 39/47/3 40/48/3
f 37/49/4 41/50/4 42/51/4 38/52/4
f 39/53/5 43/54/5 44/55/5 40/56/5
f 44/57/3 43/58/3 45/59/3 46/60/3
f 47/61/4 48/62/4 49/63/4 50/64/4
f 45/65/5 51/66/5 52/67/5 46/68/5
f 53/69/3 54/70/3 49/71/3 48/72/3
f 42/73/6 41/74/6 52/75/6 51/76/6
f 14/77/6 13/78/6 24/79/6 23/80/6
f 31/81/6 30/82/6 35/83/6 34/84/6
