v 1.000000 1.000000 0.468750
v 1.000000 0.000000 0.468750
v 0.000000 0.000000 0.468750
v 0.000000 1.000000 0.468750
v 0.000000 1.000000 0.531250
v 0.000000 0.000000 0.531250
v 1.000000 0.000000 0.531250
v 1.000000 1.000000 0.531250
v 0.250000 1.000000 0.468750
v 0.250000 1.000000 0.531250
v 0.750000 1.000000 0.531250
v 0.750000 1.000000 0.468750
v 0.250000 0.875000 0.468750
v 0.250000 0.875000 0.531250
v 0.687500 0.937500 0.531250
v 0.687500 0.937500 0.468750
v 0.750000 0.937500 0.468750
v 0.750000 0.937500 0.531250
v 0.312500 0.875000 0.468750
v 0.312500 0.875000 0.531250
v 0.687500 0.687500 0.531250
v 0.687500 0.687500 0.468750
v 0.312500 0.687500 0.468750
v 0.312500 0.687500 0.531250
v 0.375000 0.687500 0.468750
v 0.375000 0.500000 0.468750
v 0.375000 0.500000 0.531250
v 0.375000 0.687500 0.531250
v 0.625000 0.687500 0.531250
v 0.625000 0.375000 0.531250
v 0.625000 0.375000 0.468750
v 0.625000 0.687500 0.468750
v 0.437500 0.500000 0.468750
v 0.437500 0.500000 0.531250
v 0.437500 0.312500 0.468750
v 0.437500 0.312500 0.531250
v 0.562500 0.375000 0.531250
v 0.562500 0.375000 0.468750
v 0.562500 0.312500 0.468750
v 0.562500 0.312500 0.531250
vn 0.000000 0.000000 -1.000000
vn 0.000000 0.000000 1.000000
vn 0.000000 1.000000 0.000000
vn -1.000000 0.000000 0.000000
vn 0.000000 -1.000000 0.000000
vn 1.000000 0.000000 0.000000
vt 0.593719 0.937469
vt 0.593719 0.921906
vt 0.578156 0.921906
vt 0.578156 0.937469
vt 0.578156 0.937469
vt 0.578156 0.921906
vt 0.593719 0.921906
vt 0.593719 0.937469
vt 0.582047 0.937498
vt 0.582047 0.936525
vt 0.589828 0.936525
vt 0.589828 0.937498
vt 0.583006 0.937496
vt 0.583006 0.935551
vt 0.582033 0.935551
vt 0.582033 0.937496
vt 0.588869 0.937498
vt 0.588869 0.936525
vt 0.589842 0.936525
vt 0.589842 0.937498
vt 0.589842 0.937498
vt 0.589842 0.936525
vt 0.588869 0.936525
vt 0.588869 0.937498
vt 0.582033 0.936522
vt 0.582033 0.935549
vt 0.583006 0.935549
vt 0.583006 0.936522
vt 0.588865 0.936516
vt 0.588865 0.932625
vt 0.587893 0.932625
vt 0.587893 0.936516
vt 0.583982 0.935541
vt 0.583982 0.932623
vt 0.583010 0.932623
vt 0.583010 0.935541
vt 0.583019 0.933592
vt 0.583019 0.932619
vt 0.588856 0.932619
vt 0.588856 0.933592
vt 0.584959 0.932611
vt 0.584959 0.929693
vt 0.583986 0.929693
vt 0.583986 0.932611
vt 0.587889 0.932608
vt 0.587889 0.927744
vt 0.586916 0.927744
vt 0.586916 0.932608
vt 0.583986 0.930662
vt 0.583986 0.929689
vt 0.584959 0.929689
vt 0.584959 0.930662
vt 0.585936 0.929682
vt 0.585936 0.926764
vt 0.584963 0.926764
vt 0.584963 0.929682
vt 0.586916 0.928709
vt 0.586916 0.927736
vt 0.587889 0.927736
vt 0.587889 0.928709
vt 0.584965 0.927732
vt 0.584965 0.926760
vt 0.586910 0.926760
vt 0.586910 0.927732
vt 0.586912 0.927732
vt 0.586912 0.926760
vt 0.585939 0.926760
vt 0.585939 0.927732
f 1/1/1 2/2/1 3/3/1 4/4/1
f 5/5/2 6/6/2 7/7/2 8/8/2
f 9/9/3 10/10/3 11/11/3 12/12/3
f 9/13/4 13/14/4 14/15/4 10/16/4
f 15/17/5 16/18/5 17/19/5 18/20/5
f 11/21/6 18/22/6 17/23/6 12/24/6
f 14/25/5 13/26/5 19/27/5 20/28/5
f 15/29/6 21/30/6 22/31/6 16/32/6
f 19/33/4 23/34/4 24/35/4 20/36/4
f 24/37/5 23/38/5 22/39/5 21/40/5
f 25/41/4 26/42/4 27/43/4 28/44/4
f 29/45/6 30/46/6 31/47/6 32/48/6
f 27/49/5 26/50/5 33/51/5 34/52/5
f 33/53/4 35/54/4 36/55/4 34/56/4
f 37/57/5 38/58/5 31/59/5 30/60/5
f 36/61/5 35/62/5 39/63/5 40/64/5
f 37/65/6 40/66/6 39/67/6 38/68/6
