v 1.000000 1.000000 0.468750
v 1.000000 0.000000 0.468750
v 0.000000 0.000000 0.468750
v 0.000000 1.000000 0.468750
v 0.000000 1.000000 0.531250
v 0.000000 0.000000 0.531250
v 1.000000 0.000000 0.531250
v 1.000000 1.000000 0.531250
v 0.312500 0.750000 0.468750
v 0.312500 0.750000 0.531250
v 0.687500 0.750000 0.531250
v 0.687500 0.750000 0.468750
v 0.312500 0.687500 0.468750
v 0.312500 0.687500 0.531250
v 0.687500 0.062500 0.531250
v 0.687500 0.062500 0.468750
v 0.187500 0.687500 0.468750
v 0.187500 0.687500 0.531250
v 0.812500 0.687500 0.531250
v 0.812500 0.687500 0.468750
v 0.187500 0.625000 0.468750
v 0.187500 0.625000 0.531250
v 0.812500 0.125000 0.531250
v 0.812500 0.125000 0.468750
v 0.125000 0.625000 0.468750
v 0.125000 0.625000 0.531250
v 0.875000 0.625000 0.531250
v 0.875000 0.625000 0.468750
v 0.125000 0.187500 0.468750
v 0.125000 0.187500 0.531250
v 0.875000 0.187500 0.531250
v 0.875000 0.187500 0.468750
v 0.062500 0.562500 0.468750
v 0.062500 0.562500 0.531250
v 0.937500 0.562500 0.531250
v 0.937500 0.562500 0.468750
v 0.062500 0.250000 0.468750
v 0.062500 0.250000 0.531250
v 0.937500 0.250000 0.531250
v 0.937500 0.250000 0.468750
v 0.312500 0.250000 0.531250
v 0.312500 0.187500 0.531250
v 0.312500 0.187500 0.468750
v 0.312500 0.250000 0.468750
v 0.375000 0.250000 0.468750
v 0.375000 0.125000 0.468750
v 0.375000 0.125000 0.531250
v 0.375000 0.250000 0.531250
v 0.437500 0.062500 0.531250
v 0.437500 0.062500 0.468750
v 0.437500 0.125000 0.468750
v 0.437500 0.125000 0.531250
vn 0.000000 0.000000 -1.000000
vn 0.000000 0.000000 1.000000
vn 0.000000 1.000000 0.000000
vn -1.000000 0.000000 0.000000
vn 1.000000 0.000000 0.000000
vn 0.000000 -1.000000 0.000000
vt 0.593719 0.749969
vt 0.593719 0.734406
vt 0.578156 0.734406
vt 0.578156 0.749969
vt 0.578156 0.749969
vt 0.578156 0.734406
vt 0.593719 0.734406
vt 0.593719 0.749969
vt 0.583019 0.746092
vt 0.583019 0.745119
vt 0.588856 0.745119
vt 0.588856 0.746092
vt 0.583982 0.746092
vt 0.583982 0.745119
vt 0.583010 0.745119
vt 0.583010 0.746092
vt 0.588865 0.746073
vt 0.588865 0.735373
vt 0.587893 0.735373
vt 0.587893 0.746073
vt 0.581074 0.745115
vt 0.581074 0.744143
vt 0.590801 0.744143
vt 0.590801 0.745115
vt 0.582029 0.745115
vt 0.582029 0.744143
vt 0.581057 0.744143
vt 0.581057 0.745115
vt 0.590818 0.745100
vt 0.590818 0.736345
vt 0.589846 0.736345
vt 0.589846 0.745100
vt 0.580101 0.744139
vt 0.580101 0.743166
vt 0.591774 0.743166
vt 0.591774 0.744139
vt 0.581053 0.744127
vt 0.581053 0.737318
vt 0.580080 0.737318
vt 0.580080 0.744127
vt 0.591795 0.744127
vt 0.591795 0.737318
vt 0.590822 0.737318
vt 0.590822 0.744127
vt 0.579128 0.743162
vt 0.579128 0.742189
vt 0.592747 0.742189
vt 0.592747 0.743162
vt 0.580076 0.743155
vt 0.580076 0.738291
vt 0.579103 0.738291
vt 0.579103 0.743155
vt 0.592772 0.743155
vt 0.592772 0.738291
vt 0.591799 0.738291
vt 0.591799 0.743155
vt 0.579128 0.739256
vt 0.579128 0.738283
vt 0.592747 0.738283
vt 0.592747 0.739256
vt 0.580101 0.738279
vt 0.580101 0.737307
vt 0.591774 0.737307
vt 0.591774 0.738279
vt 0.583006 0.738279
vt 0.583006 0.737307
vt 0.582033 0.737307
vt 0.582033 0.738279
vt 0.584959 0.738277
vt 0.584959 0.736332
vt 0.583986 0.736332
vt 0.583986 0.738277
vt 0.583998 0.737303
vt 0.583998 0.736330
vt 0.590807 0.736330
vt 0.590807 0.737303
vt 0.584969 0.736326
vt 0.584969 0.735353
vt 0.588860 0.735353
vt 0.588860 0.736326
vt 0.585936 0.736326
vt 0.585936 0.735353
vt 0.584963 0.735353
vt 0.584963 0.736326
f 1/1/1 2/2/1 3/3/1 4/4/1
f 5/5/2 6/6/2 7/7/2 8/8/2
f 9/9/3 10/10/3 11/11/3 12/12/3
f 9/13/4 13/14/4 14/15/4 10/16/4
f 11/17/5 15/18/5 16/19/5 12/20/5
f 17/21/3 18/22/3 19/23/3 20/24/3
f 17/25/4 21/26/4 22/27/4 18/28/4
f 19/29/5 23/30/5 24/31/5 20/32/5
f 25/33/3 26/34/3 27/35/3 28/36/3
f 25/37/4 29/38/4 30/39/4 26/40/4
f 27/41/5 31/42/5 32/43/5 28/44/5
f 33/45/3 34/46/3 35/47/3 36/48/3
f 33/49/4 37/50/4 38/51/4 34/52/4
f 35/53/5 39/54/5 40/55/5 36/56/5
f 38/57/6 37/58/6 40/59/6 39/60/6
f 30/61/6 29/62/6 32/63/6 31/64/6
f 41/65/5 42/66/5 43/67/5 44/68/5
f 45/69/4 46/70/4 47/71/4 48/72/4
f 47/73/6 46/74/6 24/75/6 23/76/6
f 49/77/6 50/78/6 16/79/6 15/80/6
f 51/81/4 50/82/4 49/83/4 52/84/4
