v 0.000000 0.500000 0.000000
v 0.000000 0.500000 1.000000
v 1.000000 0.500000 1.000000
v 1.000000 0.500000 0.000000
v 0.500000 1.000000 0.000000
v 0.500000 0.500000 0.000000
v 0.500000 0.500000 1.000000
v 0.500000 1.000000 1.000000
v 0.000000 0.000000 1.000000
v 0.000000 0.000000 0.000000
v 1.000000 0.000000 0.000000
v 1.000000 0.000000 1.000000
v 1.000000 1.000000 1.000000
v 1.000000 1.000000 0.000000
vn 0.000000 1.000000 0.000000
vn -1.000000 0.000000 0.000000
vn 0.000000 -1.000000 0.000000
vn 0.000000 0.000000 -1.000000
vn 0.000000 0.000000 1.000000
vn 1.000000 0.000000 0.000000
vt 0.453156 0.703094
vt 0.453156 0.687531
vt 0.468719 0.687531
vt 0.468719 0.703094
vt 0.453156 0.703110
vt 0.453156 0.695328
vt 0.468719 0.695328
vt 0.468719 0.703110
vt 0.453156 0.703094
vt 0.453156 0.687531
vt 0.468719 0.687531
vt 0.468719 0.703094
vt 0.460953 0.703094
vt 0.460953 0.687531
vt 0.468735 0.687531
vt 0.468735 0.703094
vt 0.453156 0.695297
vt 0.453156 0.687515
vt 0.468719 0.687515
vt 0.468719 0.695297
vt 0.453140 0.703110
vt 0.453140 0.695328
vt 0.460922 0.695328
vt 0.460922 0.703110
vt 0.453156 0.695297
vt 0.453156 0.687515
vt 0.468719 0.687515
vt 0.468719 0.695297
vt 0.460953 0.703110
vt 0.460953 0.695328
vt 0.468735 0.695328
vt 0.468735 0.703110
vt 0.453156 0.695297
vt 0.453156 0.687515
vt 0.468719 0.687515
vt 0.468719 0.695297
vt 0.453156 0.695297
vt 0.453156 0.687515
vt 0.468719 0.687515
vt 0.468719 0.695297
vt 0.453156 0.703110
vt 0.453156 0.695328
vt 0.468719 0.695328
vt 0.468719 0.703110
f 1/1/1 2/2/1 3/3/1 4/4/1
f 5/5/2 6/6/2 7/7/2 8/8/2
f 9/9/3 10/10/3 11/11/3 12/12/3
f 5/13/1 8/14/1 13/15/1 14/16/1
f 4/17/4 11/18/4 10/19/4 1/20/4
f 14/21/4 4/22/4 6/23/4 5/24/4
f 2/25/5 9/26/5 12/27/5 3/28/5
f 8/29/5 7/30/5 3/31/5 13/32/5
f 1/33/2 10/34/2 9/35/2 2/36/2
f 3/37/6 12/38/6 11/39/6 4/40/6
f 13/41/6 3/42/6 4/43/6 14/44/6
