v 1.000000 1.000000 0.468750
v 1.000000 0.000000 0.468750
v 0.000000 0.000000 0.468750
v 0.000000 1.000000 0.468750
v 0.000000 1.000000 0.531250
v 0.000000 0.000000 0.531250
v 1.000000 0.000000 0.531250
v 1.000000 1.000000 0.531250
v 0.562500 1.000000 0.468750
v 0.562500 1.000000 0.531250
v 0.750000 1.000000 0.531250
v 0.750000 1.000000 0.468750
v 0.562500 0.937500 0.468750
v 0.562500 0.937500 0.531250
v 0.750000 0.062500 0.531250
v 0.750000 0.062500 0.468750
v 0.500000 0.937500 0.468750
v 0.500000 0.937500 0.531250
v 0.500000 0.875000 0.468750
v 0.500000 0.875000 0.531250
v 0.062500 0.875000 0.468750
v 0.062500 0.875000 0.531250
v 0.062500 0.187500 0.468750
v 0.062500 0.187500 0.531250
v 0.250000 0.875000 0.531250
v 0.250000 0.812500 0.531250
v 0.250000 0.812500 0.468750
v 0.250000 0.875000 0.468750
v 0.437500 0.875000 0.468750
v 0.437500 0.062500 0.468750
v 0.437500 0.062500 0.531250
v 0.437500 0.875000 0.531250
v 0.437500 0.812500 0.531250
v 0.437500 0.812500 0.468750
v 0.312500 0.812500 0.531250
v 0.312500 0.062500 0.531250
v 0.312500 0.062500 0.468750
v 0.312500 0.812500 0.468750
v 0.375000 0.812500 0.468750
v 0.375000 0.750000 0.468750
v 0.375000 0.750000 0.531250
v 0.375000 0.812500 0.531250
v 0.312500 0.750000 0.468750
v 0.312500 0.750000 0.531250
v 0.062500 0.625000 0.531250
v 0.062500 0.625000 0.468750
v 0.125000 0.625000 0.468750
v 0.125000 0.625000 0.531250
v 0.750000 0.687500 0.468750
v 0.750000 0.687500 0.531250
v 0.875000 0.687500 0.531250
v 0.875000 0.687500 0.468750
v 0.875000 0.187500 0.531250
v 0.875000 0.187500 0.468750
v 0.125000 0.562500 0.531250
v 0.125000 0.562500 0.468750
v 0.187500 0.562500 0.468750
v 0.187500 0.562500 0.531250
v 0.125000 0.125000 0.468750
v 0.125000 0.125000 0.531250
v 0.187500 0.062500 0.468750
v 0.187500 0.062500 0.531250
v 0.812500 0.500000 0.531250
v 0.812500 0.500000 0.468750
v 0.875000 0.500000 0.468750
v 0.875000 0.500000 0.531250
v 0.062500 0.500000 0.468750
v 0.062500 0.500000 0.531250
v 0.187500 0.500000 0.531250
v 0.187500 0.500000 0.468750
v 0.812500 0.125000 0.531250
v 0.812500 0.125000 0.468750
v 0.812500 0.437500 0.468750
v 0.812500 0.437500 0.531250
v 0.937500 0.437500 0.531250
v 0.937500 0.437500 0.468750
v 0.937500 0.250000 0.531250
v 0.937500 0.250000 0.468750
v 0.875000 0.250000 0.531250
v 0.875000 0.250000 0.468750
v 0.562500 0.125000 0.531250
v 0.562500 0.062500 0.531250
v 0.562500 0.062500 0.468750
v 0.562500 0.125000 0.468750
v 0.625000 0.125000 0.468750
v 0.625000 0.062500 0.468750
v 0.625000 0.062500 0.531250
v 0.625000 0.125000 0.531250
vn 0.000000 0.000000 -1.000000
vn 0.000000 0.000000 1.000000
vn 0.000000 1.000000 0.000000
vn -1.000000 0.000000 0.000000
vn 1.000000 0.000000 0.000000
vn 0.000000 -1.000000 0.000000
vt 0.593719 0.687469
vt 0.593719 0.671906
vt 0.578156 0.671906
vt 0.578156 0.687469
vt 0.578156 0.687469
vt 0.578156 0.671906
vt 0.593719 0.671906
vt 0.593719 0.687469
vt 0.586920 0.687498
vt 0.586920 0.686525
vt 0.589838 0.686525
vt 0.589838 0.687498
vt 0.587889 0.687498
vt 0.587889 0.686525
vt 0.586916 0.686525
vt 0.586916 0.687498
vt 0.589842 0.687471
vt 0.589842 0.672880
vt 0.588869 0.672880
vt 0.588869 0.687471
vt 0.585939 0.686522
vt 0.585939 0.685549
vt 0.586912 0.685549
vt 0.586912 0.686522
vt 0.586912 0.686522
vt 0.586912 0.685549
vt 0.585939 0.685549
vt 0.585939 0.686522
vt 0.579115 0.685545
vt 0.579115 0.684572
vt 0.585924 0.684572
vt 0.585924 0.685545
vt 0.580076 0.685526
vt 0.580076 0.674826
vt 0.579103 0.674826
vt 0.579103 0.685526
vt 0.582029 0.685545
vt 0.582029 0.684572
vt 0.581057 0.684572
vt 0.581057 0.685545
vt 0.585936 0.685522
vt 0.585936 0.672876
vt 0.584963 0.672876
vt 0.584963 0.685522
vt 0.582037 0.684568
vt 0.582037 0.683596
vt 0.584955 0.683596
vt 0.584955 0.684568
vt 0.583006 0.684547
vt 0.583006 0.672874
vt 0.582033 0.672874
vt 0.582033 0.684547
vt 0.584959 0.684568
vt 0.584959 0.683596
vt 0.583986 0.683596
vt 0.583986 0.684568
vt 0.583010 0.683592
vt 0.583010 0.682619
vt 0.583982 0.682619
vt 0.583982 0.683592
vt 0.579103 0.682615
vt 0.579103 0.681643
vt 0.580076 0.681643
vt 0.580076 0.682615
vt 0.589848 0.682615
vt 0.589848 0.681643
vt 0.591793 0.681643
vt 0.591793 0.682615
vt 0.591795 0.682602
vt 0.591795 0.674820
vt 0.590822 0.674820
vt 0.590822 0.682602
vt 0.580080 0.681639
vt 0.580080 0.680666
vt 0.581053 0.680666
vt 0.581053 0.681639
vt 0.581053 0.681625
vt 0.581053 0.673843
vt 0.580080 0.673843
vt 0.580080 0.681625
vt 0.582029 0.680649
vt 0.582029 0.672867
vt 0.581057 0.672867
vt 0.581057 0.680649
vt 0.590822 0.680662
vt 0.590822 0.679689
vt 0.591795 0.679689
vt 0.591795 0.680662
vt 0.579105 0.679686
vt 0.579105 0.678713
vt 0.581051 0.678713
vt 0.581051 0.679686
vt 0.590818 0.679676
vt 0.590818 0.673840
vt 0.589846 0.673840
vt 0.589846 0.679676
vt 0.590824 0.678709
vt 0.590824 0.677736
vt 0.592770 0.677736
vt 0.592770 0.678709
vt 0.592772 0.678705
vt 0.592772 0.675787
vt 0.591799 0.675787
vt 0.591799 0.678705
vt 0.591799 0.676756
vt 0.591799 0.675783
vt 0.592772 0.675783
vt 0.592772 0.676756
vt 0.579126 0.675779
vt 0.579126 0.674807
vt 0.591772 0.674807
vt 0.591772 0.675779
vt 0.580099 0.674803
vt 0.580099 0.673830
vt 0.590799 0.673830
vt 0.590799 0.674803
vt 0.581072 0.673826
vt 0.581072 0.672853
vt 0.589827 0.672853
vt 0.589827 0.673826
vt 0.586912 0.673826
vt 0.586912 0.672853
vt 0.585939 0.672853
vt 0.585939 0.673826
vt 0.588865 0.673826
vt 0.588865 0.672853
vt 0.587893 0.672853
vt 0.587893 0.673826
f 1/1/1 2/2/1 3/3/1 4/4/1
f 5/5/2 6/6/2 7/7/2 8/8/2
f 9/9/3 10/10/3 11/11/3 12/12/3
f 9/13/4 13/14/4 14/15/4 10/16/4
f 11/17/5 15/18/5 16/19/5 12/20/5
f 17/21/3 18/22/3 14/23/3 13/24/3
f 17/25/4 19/26/4 20/27/4 18/28/4
f 21/29/3 22/30/3 20/31/3 19/32/3
f 21/33/4 23/34/4 24/35/4 22/36/4
f 25/37/5 26/38/5 27/39/5 28/40/5
f 29/41/4 30/42/4 31/43/4 32/44/4
f 27/45/3 26/46/3 33/47/3 34/48/3
f 35/49/5 36/50/5 37/51/5 38/52/5
f 39/53/4 40/54/4 41/55/4 42/56/4
f 43/57/3 44/58/3 41/59/3 40/60/3
f 45/61/6 46/62/6 47/63/6 48/64/6
f 49/65/3 50/66/3 51/67/3 52/68/3
f 51/69/5 53/70/5 54/71/5 52/72/5
f 55/73/6 56/74/6 57/75/6 58/76/6
f 47/77/4 59/78/4 60/79/4 48/80/4
f 57/81/4 61/82/4 62/83/4 58/84/4
f 63/85/6 64/86/6 65/87/6 66/88/6
f 67/89/3 68/90/3 69/91/3 70/92/3
f 63/93/5 71/94/5 72/95/5 64/96/5
f 73/97/3 74/98/3 75/99/3 76/100/3
f 75/101/5 77/102/5 78/103/5 76/104/5
f 79/105/6 80/106/6 78/107/6 77/108/6
f 24/109/6 23/110/6 54/111/6 53/112/6
f 60/113/6 59/114/6 72/115/6 71/116/6
f 62/117/6 61/118/6 16/119/6 15/120/6
f 81/121/5 82/122/5 83/123/5 84/124/5
f 85/125/4 86/126/4 87/127/4 88/128/4
