v 1.000000 1.000000 0.468750
v 1.000000 0.000000 0.468750
v 0.000000 0.000000 0.468750
v 0.000000 1.000000 0.468750
v 0.000000 1.000000 0.531250
v 0.000000 0.000000 0.531250
v 1.000000 0.000000 0.531250
v 1.000000 1.000000 0.531250
v 0.125000 1.000000 0.468750
v 0.125000 1.000000 0.531250
v 0.875000 1.000000 0.531250
v 0.875000 1.000000 0.468750
v 0.125000 0.000000 0.468750
v 0.125000 0.000000 0.531250
v 0.250000 1.000000 0.531250
v 0.250000 0.000000 0.531250
v 0.250000 0.000000 0.468750
v 0.250000 1.000000 0.468750
v 0.750000 1.000000 0.468750
v 0.750000 0.000000 0.468750
v 0.750000 0.000000 0.531250
v 0.750000 1.000000 0.531250
v 0.875000 0.000000 0.531250
v 0.875000 0.000000 0.468750
v 0.062500 0.937500 0.468750
v 0.062500 0.937500 0.531250
v 0.937500 0.937500 0.531250
v 0.937500 0.937500 0.468750
v 0.062500 0.062500 0.468750
v 0.062500 0.062500 0.531250
v 0.937500 0.062500 0.531250
v 0.937500 0.062500 0.468750
v 0.062500 0.812500 0.531250
v 0.062500 0.812500 0.468750
v 0.937500 0.812500 0.468750
v 0.937500 0.812500 0.531250
v 0.062500 0.687500 0.468750
v 0.062500 0.687500 0.531250
v 0.937500 0.687500 0.531250
v 0.937500 0.687500 0.468750
v 0.062500 0.562500 0.531250
v 0.062500 0.562500 0.468750
v 0.937500 0.562500 0.468750
v 0.937500 0.562500 0.531250
v 0.062500 0.437500 0.468750
v 0.062500 0.437500 0.531250
v 0.937500 0.437500 0.531250
v 0.937500 0.437500 0.468750
v 0.062500 0.312500 0.531250
v 0.062500 0.312500 0.468750
v 0.937500 0.312500 0.468750
v 0.937500 0.312500 0.531250
v 0.062500 0.187500 0.468750
v 0.062500 0.187500 0.531250
v 0.937500 0.187500 0.531250
v 0.937500 0.187500 0.468750
vn 0.000000 0.000000 -1.000000
vn 0.000000 0.000000 1.000000
vn 0.000000 1.000000 0.000000
vn -1.000000 0.000000 0.000000
vn 1.000000 0.000000 0.000000
vn 0.000000 -1.000000 0.000000
vt 0.093719 0.687469
vt 0.093719 0.671906
vt 0.078156 0.671906
vt 0.078156 0.687469
vt 0.078156 0.687469
vt 0.078156 0.671906
vt 0.093719 0.671906
vt 0.093719 0.687469
vt 0.080101 0.687498
vt 0.080101 0.686525
vt 0.091774 0.686525
vt 0.091774 0.687498
vt 0.081053 0.687469
vt 0.081053 0.671906
vt 0.080080 0.671906
vt 0.080080 0.687469
vt 0.082029 0.687469
vt 0.082029 0.671906
vt 0.081057 0.671906
vt 0.081057 0.687469
vt 0.090818 0.687469
vt 0.090818 0.671906
vt 0.089846 0.671906
vt 0.089846 0.687469
vt 0.091795 0.687469
vt 0.091795 0.671906
vt 0.090822 0.671906
vt 0.090822 0.687469
vt 0.079128 0.686522
vt 0.079128 0.685549
vt 0.092747 0.685549
vt 0.092747 0.686522
vt 0.080076 0.686497
vt 0.080076 0.672878
vt 0.079103 0.672878
vt 0.079103 0.686497
vt 0.092772 0.686497
vt 0.092772 0.672878
vt 0.091799 0.672878
vt 0.091799 0.686497
vt 0.079128 0.685545
vt 0.079128 0.684572
vt 0.092747 0.684572
vt 0.092747 0.685545
vt 0.079128 0.682615
vt 0.079128 0.681643
vt 0.092747 0.681643
vt 0.092747 0.682615
vt 0.079128 0.681639
vt 0.079128 0.680666
vt 0.092747 0.680666
vt 0.092747 0.681639
vt 0.079128 0.678709
vt 0.079128 0.677736
vt 0.092747 0.677736
vt 0.092747 0.678709
vt 0.079128 0.677732
vt 0.079128 0.676760
vt 0.092747 0.676760
vt 0.092747 0.677732
vt 0.079128 0.674803
vt 0.079128 0.673830
vt 0.092747 0.673830
vt 0.092747 0.674803
vt 0.079128 0.673826
vt 0.079128 0.672853
vt 0.092747 0.672853
vt 0.092747 0.673826
vt 0.080101 0.672850
vt 0.080101 0.671877
vt 0.091774 0.671877
vt 0.091774 0.672850
f 1/1/1 2/2/1 3/3/1 4/4/1
f 5/5/2 6/6/2 7/7/2 8/8/2
f 9/9/3 10/10/3 11/11/3 12/12/3
f 9/13/4 13/14/4 14/15/4 10/16/4
f 15/17/5 16/18/5 17/19/5 18/20/5
f 19/21/4 20/22/4 21/23/4 22/24/4
f 11/25/5 23/26/5 24/27/5 12/28/5
f 25/29/3 26/30/3 27/31/3 28/32/3
f 25/33/4 29/34/4 30/35/4 26/36/4
f 27/37/5 31/38/5 32/39/5 28/40/5
f 33/41/6 34/42/6 35/43/6 36/44/6
f 37/45/3 38/46/3 39/47/3 40/48/3
f 41/49/6 42/50/6 43/51/6 44/52/6
f 45/53/3 46/54/3 47/55/3 48/56/3
f 49/57/6 50/58/6 51/59/6 52/60/6
f 53/61/3 54/62/3 55/63/3 56/64/3
f 30/65/6 29/66/6 32/67/6 31/68/6
f 14/69/6 13/70/6 24/71/6 23/72/6
