v 1.000000 1.000000 0.468750
v 1.000000 0.000000 0.468750
v 0.000000 0.000000 0.468750
v 0.000000 1.000000 0.468750
v 0.000000 1.000000 0.531250
v 0.000000 0.000000 0.531250
v 1.000000 0.000000 0.531250
v 1.000000 1.000000 0.531250
v 0.750000 0.875000 0.468750
v 0.750000 0.875000 0.531250
v 0.875000 0.875000 0.531250
v 0.875000 0.875000 0.468750
v 0.750000 0.500000 0.468750
v 0.750000 0.500000 0.531250
v 0.875000 0.500000 0.531250
v 0.875000 0.500000 0.468750
v 0.125000 0.562500 0.468750
v 0.125000 0.562500 0.531250
v 0.687500 0.562500 0.531250
v 0.687500 0.562500 0.468750
v 0.125000 0.312500 0.468750
v 0.125000 0.312500 0.531250
v 0.250000 0.562500 0.531250
v 0.250000 0.437500 0.531250
v 0.250000 0.437500 0.468750
v 0.250000 0.562500 0.468750
v 0.500000 0.562500 0.468750
v 0.500000 0.500000 0.468750
v 0.500000 0.500000 0.531250
v 0.500000 0.562500 0.531250
v 0.687500 0.312500 0.531250
v 0.687500 0.312500 0.468750
v 0.375000 0.500000 0.468750
v 0.375000 0.500000 0.531250
v 0.375000 0.437500 0.468750
v 0.375000 0.437500 0.531250
v 0.562500 0.312500 0.531250
v 0.562500 0.312500 0.468750
v 0.062500 0.312500 0.468750
v 0.062500 0.312500 0.531250
v 0.062500 0.125000 0.468750
v 0.062500 0.125000 0.531250
v 0.437500 0.250000 0.531250
v 0.437500 0.250000 0.468750
v 0.562500 0.250000 0.468750
v 0.562500 0.250000 0.531250
v 0.312500 0.187500 0.531250
v 0.312500 0.187500 0.468750
v 0.437500 0.187500 0.468750
v 0.437500 0.187500 0.531250
v 0.312500 0.125000 0.468750
v 0.312500 0.125000 0.531250
vn 0.000000 0.000000 -1.000000
vn 0.000000 0.000000 1.000000
vn 0.000000 1.000000 0.000000
vn -1.000000 0.000000 0.000000
vn 1.000000 0.000000 0.000000
vn 0.000000 -1.000000 0.000000
vt 0.593719 0.562469
vt 0.593719 0.546906
vt 0.578156 0.546906
vt 0.578156 0.562469
vt 0.578156 0.562469
vt 0.578156 0.546906
vt 0.593719 0.546906
vt 0.593719 0.562469
vt 0.589848 0.560545
vt 0.589848 0.559572
vt 0.591793 0.559572
vt 0.591793 0.560545
vt 0.590818 0.560535
vt 0.590818 0.554699
vt 0.589846 0.554699
vt 0.589846 0.560535
vt 0.591795 0.560535
vt 0.591795 0.554699
vt 0.590822 0.554699
vt 0.590822 0.560535
vt 0.580095 0.555662
vt 0.580095 0.554689
vt 0.588850 0.554689
vt 0.588850 0.555662
vt 0.581053 0.555656
vt 0.581053 0.551765
vt 0.580080 0.551765
vt 0.580080 0.555656
vt 0.582029 0.555660
vt 0.582029 0.553715
vt 0.581057 0.553715
vt 0.581057 0.555660
vt 0.586912 0.555662
vt 0.586912 0.554689
vt 0.585939 0.554689
vt 0.585939 0.555662
vt 0.588865 0.555656
vt 0.588865 0.551765
vt 0.587893 0.551765
vt 0.587893 0.555656
vt 0.589848 0.555662
vt 0.589848 0.554689
vt 0.591793 0.554689
vt 0.591793 0.555662
vt 0.583988 0.554686
vt 0.583988 0.553713
vt 0.585934 0.553713
vt 0.585934 0.554686
vt 0.584959 0.554686
vt 0.584959 0.553713
vt 0.583986 0.553713
vt 0.583986 0.554686
vt 0.582035 0.553709
vt 0.582035 0.552736
vt 0.583981 0.552736
vt 0.583981 0.553709
vt 0.586918 0.552732
vt 0.586918 0.551760
vt 0.588863 0.551760
vt 0.588863 0.552732
vt 0.579103 0.551756
vt 0.579103 0.550783
vt 0.580076 0.550783
vt 0.580076 0.551756
vt 0.580076 0.551752
vt 0.580076 0.548834
vt 0.579103 0.548834
vt 0.579103 0.551752
vt 0.584965 0.551756
vt 0.584965 0.550783
vt 0.586910 0.550783
vt 0.586910 0.551756
vt 0.586912 0.551756
vt 0.586912 0.550783
vt 0.585939 0.550783
vt 0.585939 0.551756
vt 0.583012 0.550779
vt 0.583012 0.549807
vt 0.584957 0.549807
vt 0.584957 0.550779
vt 0.584959 0.550779
vt 0.584959 0.549807
vt 0.583986 0.549807
vt 0.583986 0.550779
vt 0.579109 0.549803
vt 0.579109 0.548830
vt 0.583000 0.548830
vt 0.583000 0.549803
vt 0.583006 0.549803
vt 0.583006 0.548830
vt 0.582033 0.548830
vt 0.582033 0.549803
f 1/1/1 2/2/1 3/3/1 4/4/1
f 5/5/2 6/6/2 7/7/2 8/8/2
f 9/9/3 10/10/3 11/11/3 12/12/3
f 9/13/4 13/14/4 14/15/4 10/16/4
f 11/17/5 15/18/5 16/19/5 12/20/5
f 17/21/3 18/22/3 19/23/3 20/24/3
f 17/25/4 21/26/4 22/27/4 18/28/4
f 23/29/5 24/30/5 25/31/5 26/32/5
f 27/33/4 28/34/4 29/35/4 30/36/4
f 19/37/5 31/38/5 32/39/5 20/40/5
f 14/41/6 13/42/6 16/43/6 15/44/6
f 33/45/3 34/46/3 29/47/3 28/48/3
f 33/49/4 35/50/4 36/51/4 34/52/4
f 25/53/3 24/54/3 36/55/3 35/56/3
f 37/57/6 38/58/6 32/59/6 31/60/6
f 39/61/3 40/62/3 22/63/3 21/64/3
f 39/65/4 41/66/4 42/67/4 40/68/4
f 43/69/6 44/70/6 45/71/6 46/72/6
f 37/73/5 46/74/5 45/75/5 38/76/5
f 47/77/6 48/78/6 49/79/6 50/80/6
f 43/81/5 50/82/5 49/83/5 44/84/5
f 42/85/6 41/86/6 51/87/6 52/88/6
f 47/89/5 52/90/5 51/91/5 48/92/5
