v 1.000000 1.000000 0.468750
v 1.000000 0.000000 0.468750
v 0.000000 0.000000 0.468750
v 0.000000 1.000000 0.468750
v 0.000000 1.000000 0.531250
v 0.000000 0.000000 0.531250
v 1.000000 0.000000 0.531250
v 1.000000 1.000000 0.531250
v 0.437500 0.937500 0.468750
v 0.437500 0.937500 0.531250
v 0.562500 0.937500 0.531250
v 0.562500 0.937500 0.468750
v 0.437500 0.125000 0.468750
v 0.437500 0.125000 0.531250
v 0.562500 0.000000 0.531250
v 0.562500 0.000000 0.468750
v 0.375000 0.875000 0.468750
v 0.375000 0.875000 0.531250
v 0.625000 0.875000 0.531250
v 0.625000 0.875000 0.468750
v 0.375000 0.000000 0.468750
v 0.375000 0.000000 0.531250
v 0.625000 0.250000 0.531250
v 0.625000 0.250000 0.468750
v 0.562500 0.750000 0.531250
v 0.562500 0.750000 0.468750
v 0.625000 0.750000 0.468750
v 0.625000 0.750000 0.531250
v 0.125000 0.750000 0.468750
v 0.125000 0.750000 0.531250
v 0.812500 0.750000 0.531250
v 0.812500 0.750000 0.468750
v 0.125000 0.000000 0.468750
v 0.125000 0.000000 0.531250
v 0.250000 0.750000 0.531250
v 0.250000 0.375000 0.531250
v 0.250000 0.375000 0.468750
v 0.250000 0.750000 0.468750
v 0.437500 0.687500 0.531250
v 0.437500 0.687500 0.468750
v 0.562500 0.687500 0.468750
v 0.562500 0.687500 0.531250
v 0.687500 0.750000 0.468750
v 0.687500 0.312500 0.468750
v 0.687500 0.312500 0.531250
v 0.687500 0.750000 0.531250
v 0.812500 0.125000 0.531250
v 0.812500 0.125000 0.468750
v 0.062500 0.687500 0.468750
v 0.062500 0.687500 0.531250
v 0.875000 0.687500 0.531250
v 0.875000 0.687500 0.468750
v 0.062500 0.062500 0.468750
v 0.062500 0.062500 0.531250
v 0.250000 0.625000 0.531250
v 0.250000 0.625000 0.468750
v 0.687500 0.625000 0.468750
v 0.687500 0.625000 0.531250
v 0.312500 0.687500 0.531250
v 0.312500 0.000000 0.531250
v 0.312500 0.000000 0.468750
v 0.312500 0.687500 0.468750
v 0.437500 0.625000 0.531250
v 0.437500 0.625000 0.468750
v 0.625000 0.687500 0.468750
v 0.625000 0.000000 0.468750
v 0.625000 0.000000 0.531250
v 0.625000 0.687500 0.531250
v 0.875000 0.250000 0.531250
v 0.875000 0.250000 0.468750
v 0.062500 0.562500 0.531250
v 0.062500 0.562500 0.468750
v 0.875000 0.562500 0.468750
v 0.875000 0.562500 0.531250
v 0.562500 0.625000 0.531250
v 0.562500 0.625000 0.468750
v 0.125000 0.500000 0.531250
v 0.125000 0.500000 0.468750
v 0.812500 0.500000 0.468750
v 0.812500 0.500000 0.531250
v 0.500000 0.562500 0.531250
v 0.500000 0.062500 0.531250
v 0.500000 0.062500 0.468750
v 0.500000 0.562500 0.468750
v 0.625000 0.562500 0.468750
v 0.625000 0.562500 0.531250
v 0.687500 0.562500 0.531250
v 0.687500 0.562500 0.468750
v 0.187500 0.500000 0.468750
v 0.187500 0.437500 0.468750
v 0.187500 0.437500 0.531250
v 0.187500 0.500000 0.531250
v 0.312500 0.500000 0.468750
v 0.312500 0.500000 0.531250
v 0.562500 0.500000 0.531250
v 0.562500 0.500000 0.468750
v 0.312500 0.437500 0.531250
v 0.312500 0.437500 0.468750
v 0.687500 0.437500 0.468750
v 0.687500 0.437500 0.531250
v 0.312500 0.250000 0.468750
v 0.312500 0.250000 0.531250
v 0.750000 0.500000 0.531250
v 0.750000 0.062500 0.531250
v 0.750000 0.062500 0.468750
v 0.750000 0.500000 0.468750
v 0.125000 0.437500 0.468750
v 0.125000 0.437500 0.531250
v 0.125000 0.375000 0.531250
v 0.125000 0.375000 0.468750
v 0.437500 0.375000 0.468750
v 0.437500 0.375000 0.531250
v 0.812500 0.375000 0.531250
v 0.812500 0.375000 0.468750
v 0.250000 0.312500 0.531250
v 0.250000 0.312500 0.468750
v 0.750000 0.312500 0.468750
v 0.750000 0.312500 0.531250
v 0.375000 0.375000 0.531250
v 0.375000 0.250000 0.531250
v 0.375000 0.250000 0.468750
v 0.375000 0.375000 0.468750
v 0.812500 0.250000 0.468750
v 0.812500 0.250000 0.531250
v 0.500000 0.312500 0.468750
v 0.500000 0.250000 0.468750
v 0.500000 0.250000 0.531250
v 0.500000 0.312500 0.531250
v 0.562500 0.312500 0.468750
v 0.562500 0.312500 0.531250
v 0.875000 0.312500 0.531250
v 0.875000 0.312500 0.468750
v 0.750000 0.125000 0.468750
v 0.750000 0.125000 0.531250
v 0.937500 0.250000 0.531250
v 0.937500 0.250000 0.468750
v 0.375000 0.187500 0.531250
v 0.375000 0.187500 0.468750
v 0.937500 0.187500 0.468750
v 0.937500 0.187500 0.531250
v 0.812500 0.187500 0.468750
v 0.812500 0.187500 0.531250
v 0.125000 0.187500 0.468750
v 0.125000 0.187500 0.531250
v 0.500000 0.125000 0.531250
v 0.500000 0.125000 0.468750
v 0.062500 0.125000 0.468750
v 0.062500 0.125000 0.531250
v 0.687500 0.000000 0.468750
v 0.687500 0.000000 0.531250
v 0.562500 0.062500 0.531250
v 0.562500 0.062500 0.468750
v 0.687500 0.062500 0.531250
v 0.687500 0.062500 0.468750
vn 0.000000 0.000000 -1.000000
vn 0.000000 0.000000 1.000000
vn 0.000000 1.000000 0.000000
vn -1.000000 0.000000 0.000000
vn 1.000000 0.000000 0.000000
vn 0.000000 -1.000000 0.000000
vt 0.281219 0.671844
vt 0.281219 0.656281
vt 0.265656 0.656281
vt 0.265656 0.671844
vt 0.265656 0.671844
vt 0.265656 0.656281
vt 0.281219 0.656281
vt 0.281219 0.671844
vt 0.272465 0.670897
vt 0.272465 0.669924
vt 0.274410 0.669924
vt 0.274410 0.670897
vt 0.273436 0.670874
vt 0.273436 0.658228
vt 0.272463 0.658228
vt 0.272463 0.670874
vt 0.274412 0.670870
vt 0.274412 0.656279
vt 0.273439 0.656279
vt 0.273439 0.670870
vt 0.271492 0.669920
vt 0.271492 0.668947
vt 0.275383 0.668947
vt 0.275383 0.669920
vt 0.272459 0.669895
vt 0.272459 0.656277
vt 0.271486 0.656277
vt 0.271486 0.669895
vt 0.275389 0.669903
vt 0.275389 0.660175
vt 0.274416 0.660175
vt 0.274416 0.669903
vt 0.274416 0.668943
vt 0.274416 0.667971
vt 0.275389 0.667971
vt 0.275389 0.668943
vt 0.267599 0.667967
vt 0.267599 0.666994
vt 0.278299 0.666994
vt 0.278299 0.667967
vt 0.268553 0.667946
vt 0.268553 0.656273
vt 0.267580 0.656273
vt 0.267580 0.667946
vt 0.269529 0.667957
vt 0.269529 0.662121
vt 0.268557 0.662121
vt 0.268557 0.667957
vt 0.272465 0.667967
vt 0.272465 0.666994
vt 0.274410 0.666994
vt 0.274410 0.667967
vt 0.277342 0.667955
vt 0.277342 0.661146
vt 0.276369 0.661146
vt 0.276369 0.667955
vt 0.278318 0.667950
vt 0.278318 0.658222
vt 0.277346 0.658222
vt 0.277346 0.667950
vt 0.266626 0.666990
vt 0.266626 0.666018
vt 0.279272 0.666018
vt 0.279272 0.666990
vt 0.267576 0.666973
vt 0.267576 0.657246
vt 0.266603 0.657246
vt 0.266603 0.666973
vt 0.269545 0.666990
vt 0.269545 0.666018
vt 0.276354 0.666018
vt 0.276354 0.666990
vt 0.270506 0.666971
vt 0.270506 0.656271
vt 0.269533 0.656271
vt 0.269533 0.666971
vt 0.272459 0.666990
vt 0.272459 0.666018
vt 0.271486 0.666018
vt 0.271486 0.666990
vt 0.276365 0.666971
vt 0.276365 0.656271
vt 0.275393 0.656271
vt 0.275393 0.666971
vt 0.279295 0.666979
vt 0.279295 0.660170
vt 0.278322 0.660170
vt 0.278322 0.666979
vt 0.266626 0.666014
vt 0.266626 0.665041
vt 0.279272 0.665041
vt 0.279272 0.666014
vt 0.272465 0.666014
vt 0.272465 0.665041
vt 0.274410 0.665041
vt 0.274410 0.666014
vt 0.267599 0.665037
vt 0.267599 0.664064
vt 0.278299 0.664064
vt 0.278299 0.665037
vt 0.273436 0.665024
vt 0.273436 0.657242
vt 0.272463 0.657242
vt 0.272463 0.665024
vt 0.275393 0.665037
vt 0.275393 0.664064
vt 0.276365 0.664064
vt 0.276365 0.665037
vt 0.269529 0.664061
vt 0.269529 0.663088
vt 0.268557 0.663088
vt 0.268557 0.664061
vt 0.270515 0.664061
vt 0.270515 0.663088
vt 0.274406 0.663088
vt 0.274406 0.664061
vt 0.270519 0.664061
vt 0.270519 0.663088
vt 0.276356 0.663088
vt 0.276356 0.664061
vt 0.271482 0.664055
vt 0.271482 0.660164
vt 0.270510 0.660164
vt 0.270510 0.664055
vt 0.277342 0.664049
vt 0.277342 0.657240
vt 0.276369 0.657240
vt 0.276369 0.664049
vt 0.267580 0.663084
vt 0.267580 0.662111
vt 0.268553 0.662111
vt 0.268553 0.663084
vt 0.267588 0.663084
vt 0.267588 0.662111
vt 0.272451 0.662111
vt 0.272451 0.663084
vt 0.269548 0.662107
vt 0.269548 0.661135
vt 0.278303 0.661135
vt 0.278303 0.662107
vt 0.269547 0.662107
vt 0.269547 0.661135
vt 0.277328 0.661135
vt 0.277328 0.662107
vt 0.270506 0.662107
vt 0.270506 0.661135
vt 0.269533 0.661135
vt 0.269533 0.662107
vt 0.271482 0.662106
vt 0.271482 0.660160
vt 0.270510 0.660160
vt 0.270510 0.662106
vt 0.270523 0.661131
vt 0.270523 0.660158
vt 0.278305 0.660158
vt 0.278305 0.661131
vt 0.274412 0.661131
vt 0.274412 0.660158
vt 0.273439 0.660158
vt 0.273439 0.661131
vt 0.274424 0.661131
vt 0.274424 0.660158
vt 0.279287 0.660158
vt 0.279287 0.661131
vt 0.278318 0.661127
vt 0.278318 0.658209
vt 0.277346 0.658209
vt 0.277346 0.661127
vt 0.271502 0.660154
vt 0.271502 0.659182
vt 0.280256 0.659182
vt 0.280256 0.660154
vt 0.271502 0.660154
vt 0.271502 0.659182
vt 0.280256 0.659182
vt 0.280256 0.660154
vt 0.279295 0.660154
vt 0.279295 0.659182
vt 0.278322 0.659182
vt 0.278322 0.660154
vt 0.280272 0.660154
vt 0.280272 0.659182
vt 0.279299 0.659182
vt 0.279299 0.660154
vt 0.267599 0.659178
vt 0.267599 0.658205
vt 0.278299 0.658205
vt 0.278299 0.659178
vt 0.273447 0.659178
vt 0.273447 0.658205
vt 0.278311 0.658205
vt 0.278311 0.659178
vt 0.266623 0.658201
vt 0.266623 0.657228
vt 0.277323 0.657228
vt 0.277323 0.658201
vt 0.266623 0.658201
vt 0.266623 0.657228
vt 0.277323 0.657228
vt 0.277323 0.658201
vt 0.267595 0.657225
vt 0.267595 0.656252
vt 0.276350 0.656252
vt 0.276350 0.657225
vt 0.273439 0.657225
vt 0.273439 0.656252
vt 0.274412 0.656252
vt 0.274412 0.657225
vt 0.276365 0.657225
vt 0.276365 0.656252
vt 0.275393 0.656252
vt 0.275393 0.657225
f 1/1/1 2/2/1 3/3/1 4/4/1
f 5/5/2 6/6/2 7/7/2 8/8/2
f 9/9/3 10/10/3 11/11/3 12/12/3
f 9/13/4 13/14/4 14/15/4 10/16/4
f 11/17/5 15/18/5 16/19/5 12/20/5
f 17/21/3 18/22/3 19/23/3 20/24/3
f 17/25/4 21/26/4 22/27/4 18/28/4
f 19/29/5 23/30/5 24/31/5 20/32/5
f 25/33/6 26/34/6 27/35/6 28/36/6
f 29/37/3 30/38/3 31/39/3 32/40/3
f 29/41/4 33/42/4 34/43/4 30/44/4
f 35/45/5 36/46/5 37/47/5 38/48/5
f 39/49/6 40/50/6 41/51/6 42/52/6
f 43/53/4 44/54/4 45/55/4 46/56/4
f 31/57/5 47/58/5 48/59/5 32/60/5
f 49/61/3 50/62/3 51/63/3 52/64/3
f 49/65/4 53/66/4 54/67/4 50/68/4
f 55/69/6 56/70/6 57/71/6 58/72/6
f 59/73/5 60/74/5 61/75/5 62/76/5
f 39/77/5 63/78/5 64/79/5 40/80/5
f 65/81/4 66/82/4 67/83/4 68/84/4
f 51/85/5 69/86/5 70/87/5 52/88/5
f 71/89/6 72/90/6 73/91/6 74/92/6
f 64/93/3 63/94/3 75/95/3 76/96/3
f 77/97/6 78/98/6 79/99/6 80/100/6
f 81/101/5 82/102/5 83/103/5 84/104/5
f 85/105/3 86/106/3 87/107/3 88/108/3
f 89/109/4 90/110/4 91/111/4 92/112/4
f 93/113/3 94/114/3 95/115/3 96/116/3
f 97/117/6 98/118/6 99/119/6 100/120/6
f 93/121/4 101/122/4 102/123/4 94/124/4
f 103/125/5 104/126/5 105/127/5 106/128/5
f 107/129/3 108/130/3 91/131/3 90/132/3
f 109/133/6 110/134/6 111/135/6 112/136/6
f 37/137/3 36/138/3 113/139/3 114/140/3
f 115/141/6 116/142/6 117/143/6 118/144/6
f 37/145/4 116/146/4 115/147/4 36/148/4
f 119/149/5 120/150/5 121/151/5 122/152/5
f 102/153/6 101/154/6 123/155/6 124/156/6
f 125/157/4 126/158/4 127/159/4 128/160/4
f 129/161/3 130/162/3 131/163/3 132/164/3
f 117/165/4 133/166/4 134/167/4 118/168/4
f 121/169/3 120/170/3 135/171/3 136/172/3
f 137/173/6 138/174/6 139/175/6 140/176/6
f 123/177/4 141/178/4 142/179/4 124/180/4
f 135/181/5 140/182/5 139/183/5 136/184/5
f 143/185/3 144/186/3 142/187/3 141/188/3
f 145/189/6 146/190/6 48/191/6 47/192/6
f 147/193/3 148/194/3 134/195/3 133/196/3
f 54/197/6 53/198/6 105/199/6 104/200/6
f 34/201/6 33/202/6 149/203/6 150/204/6
f 83/205/3 82/206/3 151/207/3 152/208/3
f 153/209/5 150/210/5 149/211/5 154/212/5
