v 1.000000 1.000000 0.468750
v 1.000000 0.000000 0.468750
v 0.000000 0.000000 0.468750
v 0.000000 1.000000 0.468750
v 0.000000 1.000000 0.531250
v 0.000000 0.000000 0.531250
v 1.000000 0.000000 0.531250
v 1.000000 1.000000 0.531250
v 0.562500 0.750000 0.468750
v 0.562500 0.750000 0.531250
v 0.812500 0.750000 0.531250
v 0.812500 0.750000 0.468750
v 0.562500 0.687500 0.468750
v 0.562500 0.687500 0.531250
v 0.812500 0.187500 0.531250
v 0.812500 0.187500 0.468750
v 0.500000 0.687500 0.468750
v 0.500000 0.687500 0.531250
v 0.875000 0.687500 0.531250
v 0.875000 0.687500 0.468750
v 0.500000 0.625000 0.468750
v 0.500000 0.625000 0.531250
v 0.875000 0.062500 0.531250
v 0.875000 0.062500 0.468750
v 0.375000 0.625000 0.468750
v 0.375000 0.625000 0.531250
v 0.937500 0.625000 0.531250
v 0.937500 0.625000 0.468750
v 0.375000 0.125000 0.468750
v 0.375000 0.125000 0.531250
v 0.937500 0.375000 0.531250
v 0.937500 0.375000 0.468750
v 0.187500 0.562500 0.468750
v 0.187500 0.562500 0.531250
v 0.375000 0.562500 0.531250
v 0.375000 0.562500 0.468750
v 0.187500 0.250000 0.468750
v 0.187500 0.250000 0.531250
v 0.125000 0.500000 0.468750
v 0.125000 0.500000 0.531250
v 0.187500 0.500000 0.531250
v 0.187500 0.500000 0.468750
v 0.125000 0.312500 0.468750
v 0.125000 0.312500 0.531250
v 0.875000 0.375000 0.531250
v 0.875000 0.375000 0.468750
v 0.875000 0.312500 0.468750
v 0.875000 0.312500 0.531250
v 0.750000 0.250000 0.468750
v 0.750000 0.250000 0.531250
v 0.562500 0.187500 0.531250
v 0.562500 0.187500 0.468750
v 0.687500 0.187500 0.468750
v 0.687500 0.187500 0.531250
v 0.687500 0.250000 0.531250
v 0.687500 0.250000 0.468750
v 0.750000 0.062500 0.468750
v 0.750000 0.062500 0.531250
v 0.562500 0.125000 0.468750
v 0.562500 0.125000 0.531250
v 0.875000 0.187500 0.531250
v 0.875000 0.187500 0.468750
vn 0.000000 0.000000 -1.000000
vn 0.000000 0.000000 1.000000
vn 0.000000 1.000000 0.000000
vn -1.000000 0.000000 0.000000
vn 1.000000 0.000000 0.000000
vn 0.000000 -1.000000 0.000000
vt 0.593719 0.531219
vt 0.593719 0.515656
vt 0.578156 0.515656
vt 0.578156 0.531219
vt 0.578156 0.531219
vt 0.578156 0.515656
vt 0.593719 0.515656
vt 0.593719 0.531219
vt 0.586922 0.527342
vt 0.586922 0.526369
vt 0.590813 0.526369
vt 0.590813 0.527342
vt 0.587889 0.527342
vt 0.587889 0.526369
vt 0.586916 0.526369
vt 0.586916 0.527342
vt 0.590818 0.527327
vt 0.590818 0.518572
vt 0.589846 0.518572
vt 0.589846 0.527327
vt 0.585949 0.526365
vt 0.585949 0.525393
vt 0.591785 0.525393
vt 0.591785 0.526365
vt 0.586912 0.526365
vt 0.586912 0.525393
vt 0.585939 0.525393
vt 0.585939 0.526365
vt 0.591795 0.526348
vt 0.591795 0.516621
vt 0.590822 0.516621
vt 0.590822 0.526348
vt 0.584002 0.525389
vt 0.584002 0.524416
vt 0.592756 0.524416
vt 0.592756 0.525389
vt 0.584959 0.525375
vt 0.584959 0.517593
vt 0.583986 0.517593
vt 0.583986 0.525375
vt 0.592772 0.525383
vt 0.592772 0.521492
vt 0.591799 0.521492
vt 0.591799 0.525383
vt 0.581060 0.524412
vt 0.581060 0.523439
vt 0.583979 0.523439
vt 0.583979 0.524412
vt 0.582029 0.524405
vt 0.582029 0.519541
vt 0.581057 0.519541
vt 0.581057 0.524405
vt 0.580080 0.523436
vt 0.580080 0.522463
vt 0.581053 0.522463
vt 0.581053 0.523436
vt 0.581053 0.523432
vt 0.581053 0.520514
vt 0.580080 0.520514
vt 0.580080 0.523432
vt 0.591799 0.522459
vt 0.591799 0.521486
vt 0.592772 0.521486
vt 0.592772 0.522459
vt 0.580101 0.521482
vt 0.580101 0.520510
vt 0.591774 0.520510
vt 0.591774 0.521482
vt 0.581072 0.520506
vt 0.581072 0.519533
vt 0.589827 0.519533
vt 0.589827 0.520506
vt 0.586918 0.519529
vt 0.586918 0.518557
vt 0.588863 0.518557
vt 0.588863 0.519529
vt 0.588865 0.519529
vt 0.588865 0.518557
vt 0.587893 0.518557
vt 0.587893 0.519529
vt 0.590818 0.519526
vt 0.590818 0.516607
vt 0.589846 0.516607
vt 0.589846 0.519526
vt 0.583990 0.518553
vt 0.583990 0.517580
vt 0.586908 0.517580
vt 0.586908 0.518553
vt 0.586912 0.518553
vt 0.586912 0.517580
vt 0.585939 0.517580
vt 0.585939 0.518553
vt 0.590822 0.518553
vt 0.590822 0.517580
vt 0.591795 0.517580
vt 0.591795 0.518553
vt 0.589848 0.517576
vt 0.589848 0.516603
vt 0.591793 0.516603
vt 0.591793 0.517576
f 1/1/1 2/2/1 3/3/1 4/4/1
f 5/5/2 6/6/2 7/7/2 8/8/2
f 9/9/3 10/10/3 11/11/3 12/12/3
f 9/13/4 13/14/4 14/15/4 10/16/4
f 11/17/5 15/18/5 16/19/5 12/20/5
f 17/21/3 18/22/3 19/23/3 20/24/3
f 17/25/4 21/26/4 22/27/4 18/28/4
f 19/29/5 23/30/5 24/31/5 20/32/5
f 25/33/3 26/34/3 27/35/3 28/36/3
f 25/37/4 29/38/4 30/39/4 26/40/4
f 27/41/5 31/42/5 32/43/5 28/44/5
f 33/45/3 34/46/3 35/47/3 36/48/3
f 33/49/4 37/50/4 38/51/4 34/52/4
f 39/53/3 40/54/3 41/55/3 42/56/3
f 39/57/4 43/58/4 44/59/4 40/60/4
f 45/61/6 46/62/6 32/63/6 31/64/6
f 44/65/6 43/66/6 47/67/6 48/68/6
f 38/69/6 37/70/6 49/71/6 50/72/6
f 51/73/6 52/74/6 53/75/6 54/76/6
f 55/77/5 54/78/5 53/79/5 56/80/5
f 49/81/4 57/82/4 58/83/4 50/84/4
f 30/85/6 29/86/6 59/87/6 60/88/6
f 51/89/5 60/90/5 59/91/5 52/92/5
f 16/93/3 15/94/3 61/95/3 62/96/3
f 58/97/6 57/98/6 24/99/6 23/100/6
