v 1.000000 1.000000 0.468750
v 1.000000 0.000000 0.468750
v 0.000000 0.000000 0.468750
v 0.000000 1.000000 0.468750
v 0.000000 1.000000 0.531250
v 0.000000 0.000000 0.531250
v 1.000000 0.000000 0.531250
v 1.000000 1.000000 0.531250
v 0.250000 0.937500 0.468750
v 0.250000 0.937500 0.531250
v 0.500000 0.937500 0.531250
v 0.500000 0.937500 0.468750
v 0.250000 0.875000 0.531250
v 0.250000 0.875000 0.468750
v 0.312500 0.875000 0.468750
v 0.312500 0.875000 0.531250
v 0.250000 0.062500 0.468750
v 0.250000 0.062500 0.531250
v 0.500000 0.875000 0.531250
v 0.500000 0.875000 0.468750
v 0.312500 0.000000 0.468750
v 0.312500 0.000000 0.531250
v 0.687500 0.875000 0.531250
v 0.687500 0.875000 0.468750
v 0.687500 0.000000 0.531250
v 0.687500 0.000000 0.468750
v 0.187500 0.812500 0.468750
v 0.187500 0.812500 0.531250
v 0.812500 0.812500 0.531250
v 0.812500 0.812500 0.468750
v 0.187500 0.125000 0.468750
v 0.187500 0.125000 0.531250
v 0.812500 0.125000 0.531250
v 0.812500 0.125000 0.468750
v 0.125000 0.750000 0.468750
v 0.125000 0.750000 0.531250
v 0.875000 0.750000 0.531250
v 0.875000 0.750000 0.468750
v 0.125000 0.250000 0.468750
v 0.125000 0.250000 0.531250
v 0.875000 0.250000 0.531250
v 0.875000 0.250000 0.468750
v 0.750000 0.062500 0.468750
v 0.750000 0.062500 0.531250
v 0.750000 0.125000 0.531250
v 0.750000 0.125000 0.468750
vn 0.000000 0.000000 -1.000000
vn 0.000000 0.000000 1.000000
vn 0.000000 1.000000 0.000000
vn 0.000000 -1.000000 0.000000
vn -1.000000 0.000000 0.000000
vn 1.000000 0.000000 0.000000
vt 0.593719 0.499969
vt 0.593719 0.484406
vt 0.578156 0.484406
vt 0.578156 0.499969
vt 0.578156 0.499969
vt 0.578156 0.484406
vt 0.593719 0.484406
vt 0.593719 0.499969
vt 0.582039 0.499022
vt 0.582039 0.498049
vt 0.585930 0.498049
vt 0.585930 0.499022
vt 0.582033 0.499022
vt 0.582033 0.498049
vt 0.583006 0.498049
vt 0.583006 0.499022
vt 0.583006 0.498997
vt 0.583006 0.485378
vt 0.582033 0.485378
vt 0.582033 0.498997
vt 0.585936 0.499022
vt 0.585936 0.498049
vt 0.584963 0.498049
vt 0.584963 0.499022
vt 0.583982 0.498020
vt 0.583982 0.484402
vt 0.583010 0.484402
vt 0.583010 0.498020
vt 0.585943 0.498045
vt 0.585943 0.497072
vt 0.588861 0.497072
vt 0.588861 0.498045
vt 0.588865 0.498020
vt 0.588865 0.484402
vt 0.587893 0.484402
vt 0.587893 0.498020
vt 0.581074 0.497068
vt 0.581074 0.496096
vt 0.590801 0.496096
vt 0.590801 0.497068
vt 0.582029 0.497049
vt 0.582029 0.486349
vt 0.581057 0.486349
vt 0.581057 0.497049
vt 0.590818 0.497049
vt 0.590818 0.486349
vt 0.589846 0.486349
vt 0.589846 0.497049
vt 0.580101 0.496092
vt 0.580101 0.495119
vt 0.591774 0.495119
vt 0.591774 0.496092
vt 0.581053 0.496078
vt 0.581053 0.488297
vt 0.580080 0.488297
vt 0.580080 0.496078
vt 0.591795 0.496078
vt 0.591795 0.488297
vt 0.590822 0.488297
vt 0.590822 0.496078
vt 0.580101 0.489256
vt 0.580101 0.488283
vt 0.591774 0.488283
vt 0.591774 0.489256
vt 0.581074 0.487303
vt 0.581074 0.486330
vt 0.590801 0.486330
vt 0.590801 0.487303
vt 0.582047 0.486326
vt 0.582047 0.485353
vt 0.589828 0.485353
vt 0.589828 0.486326
vt 0.589842 0.486326
vt 0.589842 0.485353
vt 0.588869 0.485353
vt 0.588869 0.486326
vt 0.583019 0.485350
vt 0.583019 0.484377
vt 0.588856 0.484377
vt 0.588856 0.485350
f 1/1/1 2/2/1 3/3/1 4/4/1
f 5/5/2 6/6/2 7/7/2 8/8/2
f 9/9/3 10/10/3 11/11/3 12/12/3
f 13/13/4 14/14/4 15/15/4 16/16/4
f 9/17/5 17/18/5 18/19/5 10/20/5
f 11/21/6 19/22/6 20/23/6 12/24/6
f 15/25/5 21/26/5 22/27/5 16/28/5
f 20/29/3 19/30/3 23/31/3 24/32/3
f 23/33/6 25/34/6 26/35/6 24/36/6
f 27/37/3 28/38/3 29/39/3 30/40/3
f 27/41/5 31/42/5 32/43/5 28/44/5
f 29/45/6 33/46/6 34/47/6 30/48/6
f 35/49/3 36/50/3 37/51/3 38/52/3
f 35/53/5 39/54/5 40/55/5 36/56/5
f 37/57/6 41/58/6 42/59/6 38/60/6
f 40/61/4 39/62/4 42/63/4 41/64/4
f 32/65/4 31/66/4 34/67/4 33/68/4
f 18/69/4 17/70/4 43/71/4 44/72/4
f 45/73/6 44/74/6 43/75/6 46/76/6
f 22/77/4 21/78/4 26/79/4 25/80/4
