v 1.000000 1.000000 0.468750
v 1.000000 0.000000 0.468750
v 0.000000 0.000000 0.468750
v 0.000000 1.000000 0.468750
v 0.000000 1.000000 0.531250
v 0.000000 0.000000 0.531250
v 1.000000 0.000000 0.531250
v 1.000000 1.000000 0.531250
v 0.437500 0.875000 0.468750
v 0.437500 0.875000 0.531250
v 0.500000 0.875000 0.531250
v 0.500000 0.875000 0.468750
v 0.437500 0.812500 0.531250
v 0.437500 0.812500 0.468750
v 0.500000 0.812500 0.468750
v 0.500000 0.812500 0.531250
v 0.437500 0.562500 0.468750
v 0.437500 0.562500 0.531250
v 0.500000 0.562500 0.531250
v 0.500000 0.562500 0.468750
v 0.562500 0.812500 0.531250
v 0.562500 0.812500 0.468750
v 0.500000 0.750000 0.468750
v 0.500000 0.750000 0.531250
v 0.562500 0.625000 0.531250
v 0.562500 0.625000 0.468750
v 0.437500 0.750000 0.468750
v 0.437500 0.750000 0.531250
v 0.500000 0.625000 0.531250
v 0.500000 0.625000 0.468750
v 0.375000 0.562500 0.468750
v 0.375000 0.562500 0.531250
v 0.625000 0.562500 0.531250
v 0.625000 0.562500 0.468750
v 0.375000 0.000000 0.468750
v 0.375000 0.000000 0.531250
v 0.625000 0.000000 0.531250
v 0.625000 0.000000 0.468750
vn 0.000000 0.000000 -1.000000
vn 0.000000 0.000000 1.000000
vn 0.000000 1.000000 0.000000
vn 0.000000 -1.000000 0.000000
vn -1.000000 0.000000 0.000000
vn 1.000000 0.000000 0.000000
vt 0.609344 0.984344
vt 0.609344 0.968781
vt 0.593781 0.968781
vt 0.593781 0.984344
vt 0.593781 0.984344
vt 0.593781 0.968781
vt 0.609344 0.968781
vt 0.609344 0.984344
vt 0.600588 0.982420
vt 0.600588 0.981447
vt 0.601561 0.981447
vt 0.601561 0.982420
vt 0.600588 0.982420
vt 0.600588 0.981447
vt 0.601561 0.981447
vt 0.601561 0.982420
vt 0.601561 0.982412
vt 0.601561 0.977549
vt 0.600588 0.977549
vt 0.600588 0.982412
vt 0.601561 0.982412
vt 0.601561 0.977549
vt 0.600588 0.977549
vt 0.600588 0.982412
vt 0.601564 0.981443
vt 0.601564 0.980471
vt 0.602537 0.980471
vt 0.602537 0.981443
vt 0.602537 0.981443
vt 0.602537 0.980471
vt 0.601564 0.980471
vt 0.601564 0.981443
vt 0.602537 0.981440
vt 0.602537 0.978521
vt 0.601564 0.978521
vt 0.601564 0.981440
vt 0.600588 0.980467
vt 0.600588 0.979494
vt 0.601561 0.979494
vt 0.601561 0.980467
vt 0.601564 0.979490
vt 0.601564 0.978518
vt 0.602537 0.978518
vt 0.602537 0.979490
vt 0.599617 0.977537
vt 0.599617 0.976564
vt 0.603508 0.976564
vt 0.603508 0.977537
vt 0.600584 0.977522
vt 0.600584 0.968767
vt 0.599611 0.968767
vt 0.599611 0.977522
vt 0.603514 0.977522
vt 0.603514 0.968767
vt 0.602541 0.968767
vt 0.602541 0.977522
vt 0.599617 0.969725
vt 0.599617 0.968752
vt 0.603508 0.968752
vt 0.603508 0.969725
f 1/1/1 2/2/1 3/3/1 4/4/1
f 5/5/2 6/6/2 7/7/2 8/8/2
f 9/9/3 10/10/3 11/11/3 12/12/3
f 13/13/4 14/14/4 15/15/4 16/16/4
f 9/17/5 17/18/5 18/19/5 10/20/5
f 11/21/6 19/22/6 20/23/6 12/24/6
f 15/25/3 16/26/3 21/27/3 22/28/3
f 15/29/5 23/30/5 24/31/5 16/32/5
f 21/33/6 25/34/6 26/35/6 22/36/6
f 27/37/3 28/38/3 24/39/3 23/40/3
f 29/41/4 30/42/4 26/43/4 25/44/4
f 31/45/3 32/46/3 33/47/3 34/48/3
f 31/49/5 35/50/5 36/51/5 32/52/5
f 33/53/6 37/54/6 38/55/6 34/56/6
f 36/57/4 35/58/4 38/59/4 37/60/4
