v 1.000000 1.000000 0.468750
v 1.000000 0.000000 0.468750
v 0.000000 0.000000 0.468750
v 0.000000 1.000000 0.468750
v 0.000000 1.000000 0.531250
v 0.000000 0.000000 0.531250
v 1.000000 0.000000 0.531250
v 1.000000 1.000000 0.531250
v 0.375000 0.875000 0.468750
v 0.375000 0.875000 0.531250
v 0.625000 0.875000 0.531250
v 0.625000 0.875000 0.468750
v 0.375000 0.125000 0.468750
v 0.375000 0.125000 0.531250
v 0.625000 0.125000 0.531250
v 0.625000 0.125000 0.468750
v 0.250000 0.812500 0.468750
v 0.250000 0.812500 0.531250
v 0.750000 0.812500 0.531250
v 0.750000 0.812500 0.468750
v 0.250000 0.187500 0.468750
v 0.250000 0.187500 0.531250
v 0.750000 0.187500 0.531250
v 0.750000 0.187500 0.468750
v 0.187500 0.750000 0.468750
v 0.187500 0.750000 0.531250
v 0.812500 0.750000 0.531250
v 0.812500 0.750000 0.468750
v 0.187500 0.250000 0.468750
v 0.187500 0.250000 0.531250
v 0.812500 0.250000 0.531250
v 0.812500 0.250000 0.468750
v 0.125000 0.625000 0.468750
v 0.125000 0.625000 0.531250
v 0.875000 0.625000 0.531250
v 0.875000 0.625000 0.468750
v 0.125000 0.375000 0.468750
v 0.125000 0.375000 0.531250
v 0.875000 0.375000 0.531250
v 0.875000 0.375000 0.468750
vn 0.000000 0.000000 -1.000000
vn 0.000000 0.000000 1.000000
vn 0.000000 1.000000 0.000000
vn -1.000000 0.000000 0.000000
vn 1.000000 0.000000 0.000000
vn 0.000000 -1.000000 0.000000
vt 0.609344 0.906219
vt 0.609344 0.890656
vt 0.593781 0.890656
vt 0.593781 0.906219
vt 0.593781 0.906219
vt 0.593781 0.890656
vt 0.609344 0.890656
vt 0.609344 0.906219
vt 0.599617 0.904295
vt 0.599617 0.903322
vt 0.603508 0.903322
vt 0.603508 0.904295
vt 0.600584 0.904274
vt 0.600584 0.892601
vt 0.599611 0.892601
vt 0.599611 0.904274
vt 0.603514 0.904274
vt 0.603514 0.892601
vt 0.602541 0.892601
vt 0.602541 0.904274
vt 0.597672 0.903318
vt 0.597672 0.902346
vt 0.605453 0.902346
vt 0.605453 0.903318
vt 0.598631 0.903301
vt 0.598631 0.893574
vt 0.597658 0.893574
vt 0.597658 0.903301
vt 0.605467 0.903301
vt 0.605467 0.893574
vt 0.604494 0.893574
vt 0.604494 0.903301
vt 0.596699 0.902342
vt 0.596699 0.901369
vt 0.606426 0.901369
vt 0.606426 0.902342
vt 0.597654 0.902328
vt 0.597654 0.894547
vt 0.596682 0.894547
vt 0.596682 0.902328
vt 0.606443 0.902328
vt 0.606443 0.894547
vt 0.605471 0.894547
vt 0.605471 0.902328
vt 0.595726 0.900389
vt 0.595726 0.899416
vt 0.607399 0.899416
vt 0.607399 0.900389
vt 0.596678 0.900383
vt 0.596678 0.896492
vt 0.595705 0.896492
vt 0.595705 0.900383
vt 0.607420 0.900383
vt 0.607420 0.896492
vt 0.606447 0.896492
vt 0.606447 0.900383
vt 0.595726 0.897459
vt 0.595726 0.896486
vt 0.607399 0.896486
vt 0.607399 0.897459
vt 0.596699 0.895506
vt 0.596699 0.894533
vt 0.606426 0.894533
vt 0.606426 0.895506
vt 0.597672 0.894529
vt 0.597672 0.893557
vt 0.605453 0.893557
vt 0.605453 0.894529
vt 0.599617 0.893553
vt 0.599617 0.892580
vt 0.603508 0.892580
vt 0.603508 0.893553
f 1/1/1 2/2/1 3/3/1 4/4/1
f 5/5/2 6/6/2 7/7/2 8/8/2
f 9/9/3 10/10/3 11/11/3 12/12/3
f 9/13/4 13/14/4 14/15/4 10/16/4
f 11/17/5 15/18/5 16/19/5 12/20/5
f 17/21/3 18/22/3 19/23/3 20/24/3
f 17/25/4 21/26/4 22/27/4 18/28/4
f 19/29/5 23/30/5 24/31/5 20/32/5
f 25/33/3 26/34/3 27/35/3 28/36/3
f 25/37/4 29/38/4 30/39/4 26/40/4
f 27/41/5 31/42/5 32/43/5 28/44/5
f 33/45/3 34/46/3 35/47/3 36/48/3
f 33/49/4 37/50/4 38/51/4 34/52/4
f 35/53/5 39/54/5 40/55/5 36/56/5
f 38/57/6 37/58/6 40/59/6 39/60/6
f 30/61/6 29/62/6 32/63/6 31/64/6
f 22/65/6 21/66/6 24/67/6 23/68/6
f 14/69/6 13/70/6 16/71/6 15/72/6
