v 0.187500 0.187500 0.812500
v 0.187500 0.187500 0.187500
v 0.812500 0.187500 0.187500
v 0.812500 0.187500 0.812500
v 0.187500 0.812500 0.187500
v 0.187500 0.812500 0.812500
v 0.812500 0.812500 0.812500
v 0.812500 0.812500 0.187500
v 0.000000 0.000000 1.000000
v 0.000000 0.000000 0.000000
v 1.000000 0.000000 0.000000
v 1.000000 0.000000 1.000000
v 0.000000 1.000000 0.000000
v 0.000000 1.000000 1.000000
v 1.000000 1.000000 1.000000
v 1.000000 1.000000 0.000000
vn 0.000000 -1.000000 0.000000
vn 0.000000 1.000000 0.000000
vn 0.000000 0.000000 -1.000000
vn 0.000000 0.000000 1.000000
vn -1.000000 0.000000 0.000000
vn 1.000000 0.000000 0.000000
vt 0.034199 0.653301
vt 0.034199 0.643574
vt 0.043926 0.643574
vt 0.043926 0.653301
vt 0.034199 0.653301
vt 0.034199 0.643574
vt 0.043926 0.643574
vt 0.043926 0.653301
vt 0.034199 0.653301
vt 0.034199 0.643574
vt 0.043926 0.643574
vt 0.043926 0.653301
vt 0.034199 0.653301
vt 0.034199 0.643574
vt 0.043926 0.643574
vt 0.043926 0.653301
vt 0.034199 0.653301
vt 0.034199 0.643574
vt 0.043926 0.643574
vt 0.043926 0.653301
vt 0.034199 0.653301
vt 0.034199 0.643574
vt 0.043926 0.643574
vt 0.043926 0.653301
vt 0.031281 0.656219
vt 0.031281 0.640656
vt 0.046844 0.640656
vt 0.046844 0.656219
vt 0.031281 0.656219
vt 0.031281 0.640656
vt 0.046844 0.640656
vt 0.046844 0.656219
vt 0.031281 0.656219
vt 0.031281 0.640656
vt 0.046844 0.640656
vt 0.046844 0.656219
vt 0.031281 0.656219
vt 0.031281 0.640656
vt 0.046844 0.640656
vt 0.046844 0.656219
vt 0.031281 0.656219
vt 0.031281 0.640656
vt 0.046844 0.640656
vt 0.046844 0.656219
vt 0.031281 0.656219
vt 0.031281 0.640656
vt 0.046844 0.640656
vt 0.046844 0.656219
f 1/1/1 2/2/1 3/3/1 4/4/1
f 5/5/2 6/6/2 7/7/2 8/8/2
f 8/9/3 3/10/3 2/11/3 5/12/3
f 6/13/4 1/14/4 4/15/4 7/16/4
f 5/17/5 2/18/5 1/19/5 6/20/5
f 7/21/6 4/22/6 3/23/6 8/24/6
f 9/25/1 10/26/1 11/27/1 12/28/1
f 13/29/2 14/30/2 15/31/2 16/32/2
f 16/33/3 11/34/3 10/35/3 13/36/3
f 14/37/4 9/38/4 12/39/4 15/40/4
f 13/41/5 10/42/5 9/43/5 14/44/5
f 15/45/6 12/46/6 11/47/6 16/48/6
