v 1.000000 1.000000 0.468750
v 1.000000 0.000000 0.468750
v 0.000000 0.000000 0.468750
v 0.000000 1.000000 0.468750
v 0.000000 1.000000 0.531250
v 0.000000 0.000000 0.531250
v 1.000000 0.000000 0.531250
v 1.000000 1.000000 0.531250
v 0.500000 1.000000 0.468750
v 0.500000 1.000000 0.531250
v 0.562500 1.000000 0.531250
v 0.562500 1.000000 0.468750
v 0.500000 0.937500 0.468750
v 0.500000 0.937500 0.531250
v 0.562500 0.937500 0.531250
v 0.562500 0.937500 0.468750
v 0.437500 0.937500 0.468750
v 0.437500 0.937500 0.531250
v 0.625000 0.937500 0.531250
v 0.625000 0.937500 0.468750
v 0.437500 0.750000 0.468750
v 0.437500 0.750000 0.531250
v 0.625000 0.812500 0.531250
v 0.625000 0.812500 0.468750
v 0.312500 0.812500 0.468750
v 0.312500 0.812500 0.531250
v 0.687500 0.812500 0.531250
v 0.687500 0.812500 0.468750
v 0.312500 0.687500 0.468750
v 0.312500 0.687500 0.531250
v 0.375000 0.812500 0.531250
v 0.375000 0.750000 0.531250
v 0.375000 0.750000 0.468750
v 0.375000 0.812500 0.468750
v 0.687500 0.687500 0.531250
v 0.687500 0.687500 0.468750
v 0.250000 0.687500 0.468750
v 0.250000 0.687500 0.531250
v 0.750000 0.687500 0.531250
v 0.750000 0.687500 0.468750
v 0.250000 0.500000 0.468750
v 0.250000 0.500000 0.531250
v 0.750000 0.500000 0.531250
v 0.750000 0.500000 0.468750
v 0.187500 0.500000 0.468750
v 0.187500 0.500000 0.531250
v 0.812500 0.500000 0.531250
v 0.812500 0.500000 0.468750
v 0.187500 0.437500 0.468750
v 0.187500 0.437500 0.531250
v 0.812500 0.437500 0.531250
v 0.812500 0.437500 0.468750
v 0.125000 0.437500 0.468750
v 0.125000 0.437500 0.531250
v 0.875000 0.437500 0.531250
v 0.875000 0.437500 0.468750
v 0.125000 0.375000 0.468750
v 0.125000 0.375000 0.531250
v 0.875000 0.375000 0.531250
v 0.875000 0.375000 0.468750
v 0.062500 0.375000 0.468750
v 0.062500 0.375000 0.531250
v 0.937500 0.375000 0.531250
v 0.937500 0.375000 0.468750
v 0.062500 0.062500 0.468750
v 0.062500 0.062500 0.531250
v 0.937500 0.062500 0.531250
v 0.937500 0.062500 0.468750
vn 0.000000 0.000000 -1.000000
vn 0.000000 0.000000 1.000000
vn 0.000000 1.000000 0.000000
vn -1.000000 0.000000 0.000000
vn 1.000000 0.000000 0.000000
vn 0.000000 -1.000000 0.000000
vt 0.609344 0.874969
vt 0.609344 0.859406
vt 0.593781 0.859406
vt 0.593781 0.874969
vt 0.593781 0.874969
vt 0.593781 0.859406
vt 0.609344 0.859406
vt 0.609344 0.874969
vt 0.601564 0.874998
vt 0.601564 0.874025
vt 0.602537 0.874025
vt 0.602537 0.874998
vt 0.602537 0.874998
vt 0.602537 0.874025
vt 0.601564 0.874025
vt 0.601564 0.874998
vt 0.602537 0.874998
vt 0.602537 0.874025
vt 0.601564 0.874025
vt 0.601564 0.874998
vt 0.600592 0.874022
vt 0.600592 0.873049
vt 0.603510 0.873049
vt 0.603510 0.874022
vt 0.601561 0.874018
vt 0.601561 0.871099
vt 0.600588 0.871099
vt 0.600588 0.874018
vt 0.603514 0.874020
vt 0.603514 0.872074
vt 0.602541 0.872074
vt 0.602541 0.874020
vt 0.598644 0.872068
vt 0.598644 0.871096
vt 0.604481 0.871096
vt 0.604481 0.872068
vt 0.599607 0.872066
vt 0.599607 0.870121
vt 0.598635 0.870121
vt 0.598635 0.872066
vt 0.599607 0.872068
vt 0.599607 0.871096
vt 0.598635 0.871096
vt 0.598635 0.872068
vt 0.604490 0.872066
vt 0.604490 0.870121
vt 0.603518 0.870121
vt 0.603518 0.872066
vt 0.599611 0.871092
vt 0.599611 0.870119
vt 0.600584 0.870119
vt 0.600584 0.871092
vt 0.597672 0.870115
vt 0.597672 0.869143
vt 0.605453 0.869143
vt 0.605453 0.870115
vt 0.598631 0.870111
vt 0.598631 0.867193
vt 0.597658 0.867193
vt 0.597658 0.870111
vt 0.605467 0.870111
vt 0.605467 0.867193
vt 0.604494 0.867193
vt 0.604494 0.870111
vt 0.596699 0.867186
vt 0.596699 0.866213
vt 0.606426 0.866213
vt 0.606426 0.867186
vt 0.597654 0.867186
vt 0.597654 0.866213
vt 0.596682 0.866213
vt 0.596682 0.867186
vt 0.606443 0.867186
vt 0.606443 0.866213
vt 0.605471 0.866213
vt 0.605471 0.867186
vt 0.595726 0.866209
vt 0.595726 0.865236
vt 0.607399 0.865236
vt 0.607399 0.866209
vt 0.596678 0.866209
vt 0.596678 0.865236
vt 0.595705 0.865236
vt 0.595705 0.866209
vt 0.607420 0.866209
vt 0.607420 0.865236
vt 0.606447 0.865236
vt 0.606447 0.866209
vt 0.594753 0.865232
vt 0.594753 0.864260
vt 0.608372 0.864260
vt 0.608372 0.865232
vt 0.595701 0.865225
vt 0.595701 0.860361
vt 0.594728 0.860361
vt 0.594728 0.865225
vt 0.608397 0.865225
vt 0.608397 0.860361
vt 0.607424 0.860361
vt 0.607424 0.865225
vt 0.594753 0.861326
vt 0.594753 0.860353
vt 0.608372 0.860353
vt 0.608372 0.861326
f 1/1/1 2/2/1 3/3/1 4/4/1
f 5/5/2 6/6/2 7/7/2 8/8/2
f 9/9/3 10/10/3 11/11/3 12/12/3
f 9/13/4 13/14/4 14/15/4 10/16/4
f 11/17/5 15/18/5 16/19/5 12/20/5
f 17/21/3 18/22/3 19/23/3 20/24/3
f 17/25/4 21/26/4 22/27/4 18/28/4
f 19/29/5 23/30/5 24/31/5 20/32/5
f 25/33/3 26/34/3 27/35/3 28/36/3
f 25/37/4 29/38/4 30/39/4 26/40/4
f 31/41/5 32/42/5 33/43/5 34/44/5
f 27/45/5 35/46/5 36/47/5 28/48/5
f 33/49/3 32/50/3 22/51/3 21/52/3
f 37/53/3 38/54/3 39/55/3 40/56/3
f 37/57/4 41/58/4 42/59/4 38/60/4
f 39/61/5 43/62/5 44/63/5 40/64/5
f 45/65/3 46/66/3 47/67/3 48/68/3
f 45/69/4 49/70/4 50/71/4 46/72/4
f 47/73/5 51/74/5 52/75/5 48/76/5
f 53/77/3 54/78/3 55/79/3 56/80/3
f 53/81/4 57/82/4 58/83/4 54/84/4
f 55/85/5 59/86/5 60/87/5 56/88/5
f 61/89/3 62/90/3 63/91/3 64/92/3
f 61/93/4 65/94/4 66/95/4 62/96/4
f 63/97/5 67/98/5 68/99/5 64/100/5
f 66/101/6 65/102/6 68/103/6 67/104/6
