v 0.062500 0.993750 0.937500
v 0.062500 0.993750 0.062500
v 0.937500 0.993750 0.062500
v 0.937500 0.993750 0.937500
v 0.492825 0.982677 1.000000
v 0.492825 0.982677 0.000000
v 1.416704 0.599994 0.000000
v 1.416704 0.599994 1.000000
v -0.416704 0.599994 1.000000
v -0.416704 0.599994 0.000000
v 0.507175 0.982677 0.000000
v 0.507175 0.982677 1.000000
v 0.000000 0.599994 1.416704
v 0.000000 0.982677 0.492825
v 1.000000 0.982677 0.492825
v 1.000000 0.599994 1.416704
v 0.000000 0.982677 0.507175
v 0.000000 0.599994 -0.416704
v 1.000000 0.599994 -0.416704
v 1.000000 0.982677 0.507175
vn 0.000000 -1.000000 0.000000
vn 0.000000 1.000000 0.000000
vt 0.501003 0.655247
vt 0.501003 0.641628
vt 0.514622 0.641628
vt 0.514622 0.655247
vt 0.501003 0.655247
vt 0.501003 0.641628
vt 0.514622 0.641628
vt 0.514622 0.655247
vt 0.499969 0.640656
vt 0.484406 0.640656
vt 0.484406 0.656219
vt 0.499969 0.656219
vt 0.484406 0.640656
vt 0.499969 0.640656
vt 0.499969 0.656219
vt 0.484406 0.656219
vt 0.484406 0.656219
vt 0.499969 0.656219
vt 0.499969 0.640656
vt 0.484406 0.640656
vt 0.499969 0.656219
vt 0.484406 0.656219
vt 0.484406 0.640656
vt 0.499969 0.640656
vt 0.499969 0.656219
vt 0.499969 0.640656
vt 0.484406 0.640656
vt 0.484406 0.656219
vt 0.499969 0.640656
vt 0.499969 0.656219
vt 0.484406 0.656219
vt 0.484406 0.640656
vt 0.484406 0.640656
vt 0.484406 0.656219
vt 0.499969 0.656219
vt 0.499969 0.640656
vt 0.484406 0.656219
vt 0.484406 0.640656
vt 0.499969 0.640656
vt 0.499969 0.656219
f 1/1/1 2/2/1 3/3/1 4/4/1
f 2/5/2 1/6/2 4/7/2 3/8/2
f 5/9/1 6/10/1 7/11/1 8/12/1
f 6/13/2 5/14/2 8/15/2 7/16/2
f 9/17/1 10/18/1 11/19/1 12/20/1
f 10/21/2 9/22/2 12/23/2 11/24/2
f 13/25/1 14/26/1 15/27/1 16/28/1
f 14/29/2 13/30/2 16/31/2 15/32/2
f 17/33/1 18/34/1 19/35/1 20/36/1
f 18/37/2 17/38/2 20/39/2 19/40/2
