v 1.000000 1.000000 0.468750
v 1.000000 0.000000 0.468750
v 0.000000 0.000000 0.468750
v 0.000000 1.000000 0.468750
v 0.000000 1.000000 0.531250
v 0.000000 0.000000 0.531250
v 1.000000 0.000000 0.531250
v 1.000000 1.000000 0.531250
v 0.125000 0.875000 0.468750
v 0.125000 0.875000 0.531250
v 0.937500 0.875000 0.531250
v 0.937500 0.875000 0.468750
v 0.125000 0.312500 0.468750
v 0.125000 0.312500 0.531250
v 0.937500 0.312500 0.531250
v 0.937500 0.312500 0.468750
v 0.437500 0.312500 0.468750
v 0.437500 0.000000 0.468750
v 0.437500 0.000000 0.531250
v 0.437500 0.312500 0.531250
v 0.625000 0.312500 0.531250
v 0.625000 0.000000 0.531250
v 0.625000 0.000000 0.468750
v 0.625000 0.312500 0.468750
vn 0.000000 0.000000 -1.000000
vn 0.000000 0.000000 1.000000
vn 0.000000 1.000000 0.000000
vn -1.000000 0.000000 0.000000
vn 1.000000 0.000000 0.000000
vn 0.000000 -1.000000 0.000000
vt 0.609344 0.734344
vt 0.609344 0.718781
vt 0.593781 0.718781
vt 0.593781 0.734344
vt 0.593781 0.734344
vt 0.593781 0.718781
vt 0.609344 0.718781
vt 0.609344 0.734344
vt 0.595728 0.732420
vt 0.595728 0.731447
vt 0.608374 0.731447
vt 0.608374 0.732420
vt 0.596678 0.732405
vt 0.596678 0.723650
vt 0.595705 0.723650
vt 0.595705 0.732405
vt 0.608397 0.732405
vt 0.608397 0.723650
vt 0.607424 0.723650
vt 0.607424 0.732405
vt 0.595728 0.724607
vt 0.595728 0.723635
vt 0.608374 0.723635
vt 0.608374 0.724607
vt 0.601561 0.723623
vt 0.601561 0.718760
vt 0.600588 0.718760
vt 0.600588 0.723623
vt 0.603514 0.723623
vt 0.603514 0.718760
vt 0.602541 0.718760
vt 0.602541 0.723623
vt 0.600592 0.719725
vt 0.600592 0.718752
vt 0.603510 0.718752
vt 0.603510 0.719725
f 1/1/1 2/2/1 3/3/1 4/4/1
f 5/5/2 6/6/2 7/7/2 8/8/2
f 9/9/3 10/10/3 11/11/3 12/12/3
f 9/13/4 13/14/4 14/15/4 10/16/4
f 11/17/5 15/18/5 16/19/5 12/20/5
f 14/21/6 13/22/6 16/23/6 15/24/6
f 17/25/4 18/26/4 19/27/4 20/28/4
f 21/29/5 22/30/5 23/31/5 24/32/5
f 19/33/6 18/34/6 23/35/6 22/36/6
