v 1.000000 1.000000 0.468750
v 1.000000 0.000000 0.468750
v 0.000000 0.000000 0.468750
v 0.000000 1.000000 0.468750
v 0.000000 1.000000 0.531250
v 0.000000 0.000000 0.531250
v 1.000000 0.000000 0.531250
v 1.000000 1.000000 0.531250
v 0.250000 0.937500 0.468750
v 0.250000 0.937500 0.531250
v 0.437500 0.937500 0.531250
v 0.437500 0.937500 0.468750
v 0.250000 0.062500 0.468750
v 0.250000 0.062500 0.531250
v 0.437500 0.062500 0.531250
v 0.437500 0.062500 0.468750
v 0.437500 0.875000 0.468750
v 0.437500 0.875000 0.531250
v 0.750000 0.875000 0.531250
v 0.750000 0.875000 0.468750
v 0.750000 0.812500 0.531250
v 0.750000 0.812500 0.468750
v 0.187500 0.812500 0.468750
v 0.187500 0.812500 0.531250
v 0.812500 0.812500 0.531250
v 0.812500 0.812500 0.468750
v 0.187500 0.125000 0.468750
v 0.187500 0.125000 0.531250
v 0.812500 0.750000 0.531250
v 0.812500 0.750000 0.468750
v 0.125000 0.750000 0.468750
v 0.125000 0.750000 0.531250
v 0.875000 0.750000 0.531250
v 0.875000 0.750000 0.468750
v 0.125000 0.187500 0.468750
v 0.125000 0.187500 0.531250
v 0.875000 0.375000 0.531250
v 0.875000 0.375000 0.468750
v 0.000000 0.687500 0.468750
v 0.000000 0.687500 0.531250
v 0.125000 0.687500 0.531250
v 0.125000 0.687500 0.468750
v 0.000000 0.312500 0.468750
v 0.000000 0.312500 0.531250
v 0.062500 0.312500 0.468750
v 0.062500 0.312500 0.531250
v 0.937500 0.375000 0.531250
v 0.937500 0.375000 0.468750
v 0.937500 0.312500 0.531250
v 0.937500 0.312500 0.468750
v 0.062500 0.250000 0.531250
v 0.062500 0.250000 0.468750
v 0.125000 0.250000 0.468750
v 0.125000 0.250000 0.531250
v 1.000000 0.312500 0.531250
v 1.000000 0.312500 0.468750
v 1.000000 0.062500 0.531250
v 1.000000 0.062500 0.468750
v 0.687500 0.187500 0.468750
v 0.687500 0.187500 0.531250
v 0.750000 0.125000 0.468750
v 0.750000 0.125000 0.531250
v 0.562500 0.187500 0.531250
v 0.562500 0.125000 0.531250
v 0.562500 0.125000 0.468750
v 0.562500 0.187500 0.468750
v 0.687500 0.125000 0.468750
v 0.687500 0.125000 0.531250
v 0.750000 0.062500 0.468750
v 0.750000 0.062500 0.531250
vn 0.000000 0.000000 -1.000000
vn 0.000000 0.000000 1.000000
vn 0.000000 1.000000 0.000000
vn -1.000000 0.000000 0.000000
vn 1.000000 0.000000 0.000000
vn 0.000000 -1.000000 0.000000
vt 0.609344 0.765594
vt 0.609344 0.750031
vt 0.593781 0.750031
vt 0.593781 0.765594
vt 0.593781 0.765594
vt 0.593781 0.750031
vt 0.609344 0.750031
vt 0.609344 0.765594
vt 0.597662 0.764647
vt 0.597662 0.763674
vt 0.600580 0.763674
vt 0.600580 0.764647
vt 0.598631 0.764622
vt 0.598631 0.751003
vt 0.597658 0.751003
vt 0.597658 0.764622
vt 0.600584 0.764622
vt 0.600584 0.751003
vt 0.599611 0.751003
vt 0.599611 0.764622
vt 0.600595 0.763670
vt 0.600595 0.762697
vt 0.605459 0.762697
vt 0.605459 0.763670
vt 0.605467 0.763670
vt 0.605467 0.762697
vt 0.604494 0.762697
vt 0.604494 0.763670
vt 0.596699 0.762693
vt 0.596699 0.761721
vt 0.606426 0.761721
vt 0.606426 0.762693
vt 0.597654 0.762674
vt 0.597654 0.751974
vt 0.596682 0.751974
vt 0.596682 0.762674
vt 0.606443 0.762693
vt 0.606443 0.761721
vt 0.605471 0.761721
vt 0.605471 0.762693
vt 0.595726 0.761717
vt 0.595726 0.760744
vt 0.607399 0.760744
vt 0.607399 0.761717
vt 0.596678 0.761702
vt 0.596678 0.752947
vt 0.595705 0.752947
vt 0.595705 0.761702
vt 0.607420 0.761707
vt 0.607420 0.755871
vt 0.606447 0.755871
vt 0.606447 0.761707
vt 0.593754 0.760740
vt 0.593754 0.759768
vt 0.595699 0.759768
vt 0.595699 0.760740
vt 0.594725 0.760731
vt 0.594725 0.754894
vt 0.593752 0.754894
vt 0.593752 0.760731
vt 0.593752 0.755857
vt 0.593752 0.754885
vt 0.594725 0.754885
vt 0.594725 0.755857
vt 0.607424 0.755857
vt 0.607424 0.754885
vt 0.608397 0.754885
vt 0.608397 0.755857
vt 0.608397 0.755857
vt 0.608397 0.754885
vt 0.607424 0.754885
vt 0.607424 0.755857
vt 0.594728 0.754881
vt 0.594728 0.753908
vt 0.595701 0.753908
vt 0.595701 0.754881
vt 0.595701 0.754881
vt 0.595701 0.753908
vt 0.594728 0.753908
vt 0.594728 0.754881
vt 0.608400 0.754881
vt 0.608400 0.753908
vt 0.609373 0.753908
vt 0.609373 0.754881
vt 0.609373 0.754875
vt 0.609373 0.750984
vt 0.608400 0.750984
vt 0.608400 0.754875
vt 0.595720 0.753904
vt 0.595720 0.752932
vt 0.604475 0.752932
vt 0.604475 0.753904
vt 0.596697 0.752928
vt 0.596697 0.751955
vt 0.605452 0.751955
vt 0.605452 0.752928
vt 0.602537 0.752928
vt 0.602537 0.751955
vt 0.601564 0.751955
vt 0.601564 0.752928
vt 0.605467 0.752928
vt 0.605467 0.751955
vt 0.604494 0.751955
vt 0.604494 0.752928
vt 0.597679 0.751951
vt 0.597679 0.750978
vt 0.609352 0.750978
vt 0.609352 0.751951
vt 0.606443 0.751951
vt 0.606443 0.750978
vt 0.605471 0.750978
vt 0.605471 0.751951
f 1/1/1 2/2/1 3/3/1 4/4/1
f 5/5/2 6/6/2 7/7/2 8/8/2
f 9/9/3 10/10/3 11/11/3 12/12/3
f 9/13/4 13/14/4 14/15/4 10/16/4
f 11/17/5 15/18/5 16/19/5 12/20/5
f 17/21/3 18/22/3 19/23/3 20/24/3
f 19/25/5 21/26/5 22/27/5 20/28/5
f 23/29/3 24/30/3 25/31/3 26/32/3
f 23/33/4 27/34/4 28/35/4 24/36/4
f 25/37/5 29/38/5 30/39/5 26/40/5
f 31/41/3 32/42/3 33/43/3 34/44/3
f 31/45/4 35/46/4 36/47/4 32/48/4
f 33/49/5 37/50/5 38/51/5 34/52/5
f 39/53/3 40/54/3 41/55/3 42/56/3
f 39/57/4 43/58/4 44/59/4 40/60/4
f 44/61/6 43/62/6 45/63/6 46/64/6
f 38/65/3 37/66/3 47/67/3 48/68/3
f 47/69/5 49/70/5 50/71/5 48/72/5
f 51/73/6 52/74/6 53/75/6 54/76/6
f 45/77/4 52/78/4 51/79/4 46/80/4
f 50/81/3 49/82/3 55/83/3 56/84/3
f 55/85/5 57/86/5 58/87/5 56/88/5
f 36/89/6 35/90/6 59/91/6 60/92/6
f 28/93/6 27/94/6 61/95/6 62/96/6
f 63/97/5 64/98/5 65/99/5 66/100/5
f 59/101/4 67/102/4 68/103/4 60/104/4
f 14/105/6 13/106/6 58/107/6 57/108/6
f 61/109/4 69/110/4 70/111/4 62/112/4
