v 1.000000 1.000000 0.468750
v 1.000000 0.000000 0.468750
v 0.000000 0.000000 0.468750
v 0.000000 1.000000 0.468750
v 0.000000 1.000000 0.531250
v 0.000000 0.000000 0.531250
v 1.000000 0.000000 0.531250
v 1.000000 1.000000 0.531250
v 0.250000 0.937500 0.468750
v 0.250000 0.937500 0.531250
v 0.500000 0.937500 0.531250
v 0.500000 0.937500 0.468750
v 0.250000 0.062500 0.468750
v 0.250000 0.062500 0.531250
v 0.500000 0.875000 0.531250
v 0.500000 0.875000 0.468750
v 0.187500 0.875000 0.468750
v 0.187500 0.875000 0.531250
v 0.687500 0.875000 0.531250
v 0.687500 0.875000 0.468750
v 0.187500 0.125000 0.468750
v 0.187500 0.125000 0.531250
v 0.687500 0.000000 0.531250
v 0.687500 0.000000 0.468750
v 0.687500 0.812500 0.468750
v 0.687500 0.812500 0.531250
v 0.812500 0.812500 0.531250
v 0.812500 0.812500 0.468750
v 0.812500 0.125000 0.531250
v 0.812500 0.125000 0.468750
v 0.125000 0.750000 0.468750
v 0.125000 0.750000 0.531250
v 0.875000 0.750000 0.531250
v 0.875000 0.750000 0.468750
v 0.125000 0.250000 0.468750
v 0.125000 0.250000 0.531250
v 0.875000 0.250000 0.531250
v 0.875000 0.250000 0.468750
v 0.750000 0.062500 0.468750
v 0.750000 0.062500 0.531250
v 0.750000 0.125000 0.531250
v 0.750000 0.125000 0.468750
v 0.312500 0.000000 0.531250
v 0.312500 0.000000 0.468750
v 0.312500 0.062500 0.468750
v 0.312500 0.062500 0.531250
vn 0.000000 0.000000 -1.000000
vn 0.000000 0.000000 1.000000
vn 0.000000 1.000000 0.000000
vn -1.000000 0.000000 0.000000
vn 1.000000 0.000000 0.000000
vn 0.000000 -1.000000 0.000000
vt 0.624969 0.921844
vt 0.624969 0.906281
vt 0.609406 0.906281
vt 0.609406 0.921844
vt 0.609406 0.921844
vt 0.609406 0.906281
vt 0.624969 0.906281
vt 0.624969 0.921844
vt 0.613289 0.920897
vt 0.613289 0.919924
vt 0.617180 0.919924
vt 0.617180 0.920897
vt 0.614256 0.920872
vt 0.614256 0.907253
vt 0.613283 0.907253
vt 0.613283 0.920872
vt 0.617186 0.920897
vt 0.617186 0.919924
vt 0.616213 0.919924
vt 0.616213 0.920897
vt 0.612320 0.919920
vt 0.612320 0.918947
vt 0.620102 0.918947
vt 0.620102 0.919920
vt 0.613279 0.919899
vt 0.613279 0.908226
vt 0.612307 0.908226
vt 0.612307 0.919899
vt 0.620115 0.919895
vt 0.620115 0.906277
vt 0.619143 0.906277
vt 0.619143 0.919895
vt 0.620121 0.918943
vt 0.620121 0.917971
vt 0.622066 0.917971
vt 0.622066 0.918943
vt 0.622068 0.918924
vt 0.622068 0.908224
vt 0.621096 0.908224
vt 0.621096 0.918924
vt 0.611351 0.917967
vt 0.611351 0.916994
vt 0.623024 0.916994
vt 0.623024 0.917967
vt 0.612303 0.917953
vt 0.612303 0.910172
vt 0.611330 0.910172
vt 0.611330 0.917953
vt 0.623045 0.917953
vt 0.623045 0.910172
vt 0.622072 0.910172
vt 0.622072 0.917953
vt 0.611351 0.911131
vt 0.611351 0.910158
vt 0.623024 0.910158
vt 0.623024 0.911131
vt 0.612324 0.909178
vt 0.612324 0.908205
vt 0.622051 0.908205
vt 0.622051 0.909178
vt 0.613297 0.908201
vt 0.613297 0.907228
vt 0.621078 0.907228
vt 0.621078 0.908201
vt 0.621092 0.908201
vt 0.621092 0.907228
vt 0.620119 0.907228
vt 0.620119 0.908201
vt 0.614269 0.907225
vt 0.614269 0.906252
vt 0.620106 0.906252
vt 0.620106 0.907225
vt 0.615232 0.907225
vt 0.615232 0.906252
vt 0.614260 0.906252
vt 0.614260 0.907225
f 1/1/1 2/2/1 3/3/1 4/4/1
f 5/5/2 6/6/2 7/7/2 8/8/2
f 9/9/3 10/10/3 11/11/3 12/12/3
f 9/13/4 13/14/4 14/15/4 10/16/4
f 11/17/5 15/18/5 16/19/5 12/20/5
f 17/21/3 18/22/3 19/23/3 20/24/3
f 17/25/4 21/26/4 22/27/4 18/28/4
f 19/29/5 23/30/5 24/31/5 20/32/5
f 25/33/3 26/34/3 27/35/3 28/36/3
f 27/37/5 29/38/5 30/39/5 28/40/5
f 31/41/3 32/42/3 33/43/3 34/44/3
f 31/45/4 35/46/4 36/47/4 32/48/4
f 33/49/5 37/50/5 38/51/5 34/52/5
f 36/53/6 35/54/6 38/55/6 37/56/6
f 22/57/6 21/58/6 30/59/6 29/60/6
f 14/61/6 13/62/6 39/63/6 40/64/6
f 41/65/5 40/66/5 39/67/5 42/68/5
f 43/69/6 44/70/6 24/71/6 23/72/6
f 45/73/4 44/74/4 43/75/4 46/76/4
