v 1.000000 1.000000 0.468750
v 1.000000 0.000000 0.468750
v 0.000000 0.000000 0.468750
v 0.000000 1.000000 0.468750
v 0.000000 1.000000 0.531250
v 0.000000 0.000000 0.531250
v 1.000000 0.000000 0.531250
v 1.000000 1.000000 0.531250
v 0.312500 0.937500 0.468750
v 0.312500 0.937500 0.531250
v 0.687500 0.937500 0.531250
v 0.687500 0.937500 0.468750
v 0.312500 0.062500 0.468750
v 0.312500 0.062500 0.531250
v 0.687500 0.062500 0.531250
v 0.687500 0.062500 0.468750
v 0.187500 0.875000 0.468750
v 0.187500 0.875000 0.531250
v 0.812500 0.875000 0.531250
v 0.812500 0.875000 0.468750
v 0.187500 0.187500 0.468750
v 0.187500 0.187500 0.531250
v 0.812500 0.187500 0.531250
v 0.812500 0.187500 0.468750
v 0.125000 0.812500 0.468750
v 0.125000 0.812500 0.531250
v 0.875000 0.812500 0.531250
v 0.875000 0.812500 0.468750
v 0.125000 0.312500 0.468750
v 0.125000 0.312500 0.531250
v 0.875000 0.312500 0.531250
v 0.875000 0.312500 0.468750
v 0.250000 0.125000 0.531250
v 0.250000 0.125000 0.468750
v 0.750000 0.125000 0.468750
v 0.750000 0.125000 0.531250
v 0.250000 0.187500 0.468750
v 0.250000 0.187500 0.531250
v 0.750000 0.187500 0.531250
v 0.750000 0.187500 0.468750
vn 0.000000 0.000000 -1.000000
vn 0.000000 0.000000 1.000000
vn 0.000000 1.000000 0.000000
vn -1.000000 0.000000 0.000000
vn 1.000000 0.000000 0.000000
vn 0.000000 -1.000000 0.000000
vt 0.624969 0.828094
vt 0.624969 0.812531
vt 0.609406 0.812531
vt 0.609406 0.828094
vt 0.609406 0.828094
vt 0.609406 0.812531
vt 0.624969 0.812531
vt 0.624969 0.828094
vt 0.614269 0.827147
vt 0.614269 0.826174
vt 0.620106 0.826174
vt 0.620106 0.827147
vt 0.615232 0.827122
vt 0.615232 0.813503
vt 0.614260 0.813503
vt 0.614260 0.827122
vt 0.620115 0.827122
vt 0.620115 0.813503
vt 0.619143 0.813503
vt 0.619143 0.827122
vt 0.612324 0.826170
vt 0.612324 0.825197
vt 0.622051 0.825197
vt 0.622051 0.826170
vt 0.613279 0.826151
vt 0.613279 0.815451
vt 0.612307 0.815451
vt 0.612307 0.826151
vt 0.622068 0.826151
vt 0.622068 0.815451
vt 0.621096 0.815451
vt 0.621096 0.826151
vt 0.611351 0.825193
vt 0.611351 0.824221
vt 0.623024 0.824221
vt 0.623024 0.825193
vt 0.612303 0.825180
vt 0.612303 0.817398
vt 0.611330 0.817398
vt 0.611330 0.825180
vt 0.623045 0.825180
vt 0.623045 0.817398
vt 0.622072 0.817398
vt 0.622072 0.825180
vt 0.611351 0.818357
vt 0.611351 0.817385
vt 0.623024 0.817385
vt 0.623024 0.818357
vt 0.612324 0.816404
vt 0.612324 0.815432
vt 0.622051 0.815432
vt 0.622051 0.816404
vt 0.613297 0.815428
vt 0.613297 0.814455
vt 0.621078 0.814455
vt 0.621078 0.815428
vt 0.614256 0.815428
vt 0.614256 0.814455
vt 0.613283 0.814455
vt 0.613283 0.815428
vt 0.621092 0.815428
vt 0.621092 0.814455
vt 0.620119 0.814455
vt 0.620119 0.815428
vt 0.614269 0.814451
vt 0.614269 0.813478
vt 0.620106 0.813478
vt 0.620106 0.814451
f 1/1/1 2/2/1 3/3/1 4/4/1
f 5/5/2 6/6/2 7/7/2 8/8/2
f 9/9/3 10/10/3 11/11/3 12/12/3
f 9/13/4 13/14/4 14/15/4 10/16/4
f 11/17/5 15/18/5 16/19/5 12/20/5
f 17/21/3 18/22/3 19/23/3 20/24/3
f 17/25/4 21/26/4 22/27/4 18/28/4
f 19/29/5 23/30/5 24/31/5 20/32/5
f 25/33/3 26/34/3 27/35/3 28/36/3
f 25/37/4 29/38/4 30/39/4 26/40/4
f 27/41/5 31/42/5 32/43/5 28/44/5
f 30/45/6 29/46/6 32/47/6 31/48/6
f 22/49/6 21/50/6 24/51/6 23/52/6
f 33/53/6 34/54/6 35/55/6 36/56/6
f 37/57/4 34/58/4 33/59/4 38/60/4
f 39/61/5 36/62/5 35/63/5 40/64/5
f 14/65/6 13/66/6 16/67/6 15/68/6
