v 1.000000 1.000000 0.468750
v 1.000000 0.000000 0.468750
v 0.000000 0.000000 0.468750
v 0.000000 1.000000 0.468750
v 0.000000 1.000000 0.531250
v 0.000000 0.000000 0.531250
v 1.000000 0.000000 0.531250
v 1.000000 1.000000 0.531250
v 0.437500 0.937500 0.468750
v 0.437500 0.937500 0.531250
v 0.625000 0.937500 0.531250
v 0.625000 0.937500 0.468750
v 0.437500 0.437500 0.468750
v 0.437500 0.437500 0.531250
v 0.625000 0.437500 0.531250
v 0.625000 0.437500 0.468750
v 0.375000 0.875000 0.468750
v 0.375000 0.875000 0.531250
v 0.687500 0.875000 0.531250
v 0.687500 0.875000 0.468750
v 0.375000 0.812500 0.531250
v 0.375000 0.812500 0.468750
v 0.437500 0.812500 0.468750
v 0.437500 0.812500 0.531250
v 0.375000 0.375000 0.468750
v 0.375000 0.375000 0.531250
v 0.687500 0.500000 0.531250
v 0.687500 0.500000 0.468750
v 0.437500 0.750000 0.531250
v 0.437500 0.750000 0.468750
v 0.562500 0.750000 0.468750
v 0.562500 0.750000 0.531250
v 0.687500 0.812500 0.468750
v 0.687500 0.812500 0.531250
v 0.875000 0.812500 0.531250
v 0.875000 0.812500 0.468750
v 0.875000 0.625000 0.531250
v 0.875000 0.625000 0.468750
v 0.562500 0.687500 0.531250
v 0.562500 0.687500 0.468750
v 0.625000 0.687500 0.468750
v 0.625000 0.687500 0.531250
v 0.562500 0.562500 0.468750
v 0.562500 0.562500 0.531250
v 0.625000 0.625000 0.468750
v 0.625000 0.625000 0.531250
v 0.812500 0.625000 0.531250
v 0.812500 0.625000 0.468750
v 0.562500 0.625000 0.468750
v 0.562500 0.625000 0.531250
v 0.687500 0.562500 0.531250
v 0.687500 0.562500 0.468750
v 0.812500 0.562500 0.468750
v 0.812500 0.562500 0.531250
v 0.500000 0.562500 0.468750
v 0.500000 0.562500 0.531250
v 0.500000 0.500000 0.468750
v 0.500000 0.500000 0.531250
v 0.625000 0.500000 0.531250
v 0.625000 0.500000 0.468750
v 0.437500 0.500000 0.468750
v 0.437500 0.500000 0.531250
v 0.562500 0.437500 0.531250
v 0.562500 0.437500 0.468750
v 0.375000 0.437500 0.468750
v 0.375000 0.437500 0.531250
v 0.500000 0.375000 0.531250
v 0.500000 0.375000 0.468750
v 0.562500 0.375000 0.468750
v 0.562500 0.375000 0.531250
v 0.312500 0.375000 0.468750
v 0.312500 0.375000 0.531250
v 0.312500 0.312500 0.468750
v 0.312500 0.312500 0.531250
v 0.437500 0.312500 0.531250
v 0.437500 0.312500 0.468750
v 0.500000 0.312500 0.468750
v 0.500000 0.312500 0.531250
v 0.250000 0.312500 0.468750
v 0.250000 0.312500 0.531250
v 0.250000 0.250000 0.468750
v 0.250000 0.250000 0.531250
v 0.375000 0.250000 0.531250
v 0.375000 0.250000 0.468750
v 0.437500 0.250000 0.468750
v 0.437500 0.250000 0.531250
v 0.187500 0.250000 0.468750
v 0.187500 0.250000 0.531250
v 0.187500 0.187500 0.468750
v 0.187500 0.187500 0.531250
v 0.312500 0.187500 0.531250
v 0.312500 0.187500 0.468750
v 0.375000 0.187500 0.468750
v 0.375000 0.187500 0.531250
v 0.125000 0.187500 0.468750
v 0.125000 0.187500 0.531250
v 0.125000 0.062500 0.468750
v 0.125000 0.062500 0.531250
v 0.250000 0.125000 0.531250
v 0.250000 0.125000 0.468750
v 0.312500 0.125000 0.468750
v 0.312500 0.125000 0.531250
v 0.250000 0.062500 0.468750
v 0.250000 0.062500 0.531250
vn 0.000000 0.000000 -1.000000
vn 0.000000 0.000000 1.000000
vn 0.000000 1.000000 0.000000
vn -1.000000 0.000000 0.000000
vn 1.000000 0.000000 0.000000
vn 0.000000 -1.000000 0.000000
vt 0.624969 0.734344
vt 0.624969 0.718781
vt 0.609406 0.718781
vt 0.609406 0.734344
vt 0.609406 0.734344
vt 0.609406 0.718781
vt 0.624969 0.718781
vt 0.624969 0.734344
vt 0.616217 0.733397
vt 0.616217 0.732424
vt 0.619135 0.732424
vt 0.619135 0.733397
vt 0.617186 0.733383
vt 0.617186 0.725601
vt 0.616213 0.725601
vt 0.616213 0.733383
vt 0.619139 0.733383
vt 0.619139 0.725601
vt 0.618166 0.725601
vt 0.618166 0.733383
vt 0.615244 0.732420
vt 0.615244 0.731447
vt 0.620108 0.731447
vt 0.620108 0.732420
vt 0.615236 0.732420
vt 0.615236 0.731447
vt 0.616209 0.731447
vt 0.616209 0.732420
vt 0.616209 0.732407
vt 0.616209 0.724625
vt 0.615236 0.724625
vt 0.615236 0.732407
vt 0.620115 0.732410
vt 0.620115 0.726574
vt 0.619143 0.726574
vt 0.619143 0.732410
vt 0.616215 0.731443
vt 0.616215 0.730471
vt 0.618160 0.730471
vt 0.618160 0.731443
vt 0.620123 0.731443
vt 0.620123 0.730471
vt 0.623041 0.730471
vt 0.623041 0.731443
vt 0.623045 0.731440
vt 0.623045 0.728521
vt 0.622072 0.728521
vt 0.622072 0.731440
vt 0.618166 0.730467
vt 0.618166 0.729494
vt 0.619139 0.729494
vt 0.619139 0.730467
vt 0.619139 0.730463
vt 0.619139 0.727545
vt 0.618166 0.727545
vt 0.618166 0.730463
vt 0.620115 0.729490
vt 0.620115 0.728518
vt 0.619143 0.728518
vt 0.619143 0.729490
vt 0.622072 0.729490
vt 0.622072 0.728518
vt 0.623045 0.728518
vt 0.623045 0.729490
vt 0.618166 0.728514
vt 0.618166 0.727541
vt 0.619139 0.727541
vt 0.619139 0.728514
vt 0.620121 0.728514
vt 0.620121 0.727541
vt 0.622066 0.727541
vt 0.622066 0.728514
vt 0.622068 0.728514
vt 0.622068 0.727541
vt 0.621096 0.727541
vt 0.621096 0.728514
vt 0.617189 0.727537
vt 0.617189 0.726564
vt 0.618162 0.726564
vt 0.618162 0.727537
vt 0.618162 0.727537
vt 0.618162 0.726564
vt 0.617189 0.726564
vt 0.617189 0.727537
vt 0.619143 0.727537
vt 0.619143 0.726564
vt 0.620115 0.726564
vt 0.620115 0.727537
vt 0.616213 0.726561
vt 0.616213 0.725588
vt 0.617186 0.725588
vt 0.617186 0.726561
vt 0.618166 0.726561
vt 0.618166 0.725588
vt 0.619139 0.725588
vt 0.619139 0.726561
vt 0.615236 0.725584
vt 0.615236 0.724611
vt 0.616209 0.724611
vt 0.616209 0.725584
vt 0.617189 0.725584
vt 0.617189 0.724611
vt 0.618162 0.724611
vt 0.618162 0.725584
vt 0.618162 0.725584
vt 0.618162 0.724611
vt 0.617189 0.724611
vt 0.617189 0.725584
vt 0.614260 0.724607
vt 0.614260 0.723635
vt 0.615232 0.723635
vt 0.615232 0.724607
vt 0.615232 0.724607
vt 0.615232 0.723635
vt 0.614260 0.723635
vt 0.614260 0.724607
vt 0.616213 0.724607
vt 0.616213 0.723635
vt 0.617186 0.723635
vt 0.617186 0.724607
vt 0.617186 0.724607
vt 0.617186 0.723635
vt 0.616213 0.723635
vt 0.616213 0.724607
vt 0.613283 0.723631
vt 0.613283 0.722658
vt 0.614256 0.722658
vt 0.614256 0.723631
vt 0.614256 0.723631
vt 0.614256 0.722658
vt 0.613283 0.722658
vt 0.613283 0.723631
vt 0.615236 0.723631
vt 0.615236 0.722658
vt 0.616209 0.722658
vt 0.616209 0.723631
vt 0.616209 0.723631
vt 0.616209 0.722658
vt 0.615236 0.722658
vt 0.615236 0.723631
vt 0.612307 0.722654
vt 0.612307 0.721682
vt 0.613279 0.721682
vt 0.613279 0.722654
vt 0.613279 0.722654
vt 0.613279 0.721682
vt 0.612307 0.721682
vt 0.612307 0.722654
vt 0.614260 0.722654
vt 0.614260 0.721682
vt 0.615232 0.721682
vt 0.615232 0.722654
vt 0.615232 0.722654
vt 0.615232 0.721682
vt 0.614260 0.721682
vt 0.614260 0.722654
vt 0.611330 0.721678
vt 0.611330 0.720705
vt 0.612303 0.720705
vt 0.612303 0.721678
vt 0.612303 0.721676
vt 0.612303 0.719730
vt 0.611330 0.719730
vt 0.611330 0.721676
vt 0.613283 0.721678
vt 0.613283 0.720705
vt 0.614256 0.720705
vt 0.614256 0.721678
vt 0.614256 0.721678
vt 0.614256 0.720705
vt 0.613283 0.720705
vt 0.613283 0.721678
vt 0.611332 0.720701
vt 0.611332 0.719728
vt 0.613277 0.719728
vt 0.613277 0.720701
vt 0.613279 0.720701
vt 0.613279 0.719728
vt 0.612307 0.719728
vt 0.612307 0.720701
f 1/1/1 2/2/1 3/3/1 4/4/1
f 5/5/2 6/6/2 7/7/2 8/8/2
f 9/9/3 10/10/3 11/11/3 12/12/3
f 9/13/4 13/14/4 14/15/4 10/16/4
f 11/17/5 15/18/5 16/19/5 12/20/5
f 17/21/3 18/22/3 19/23/3 20/24/3
f 21/25/6 22/26/6 23/27/6 24/28/6
f 17/29/4 25/30/4 26/31/4 18/32/4
f 19/33/5 27/34/5 28/35/5 20/36/5
f 29/37/6 30/38/6 31/39/6 32/40/6
f 33/41/3 34/42/3 35/43/3 36/44/3
f 35/45/5 37/46/5 38/47/5 36/48/5
f 39/49/6 40/50/6 41/51/6 42/52/6
f 31/53/4 43/54/4 44/55/4 32/56/4
f 41/57/4 45/58/4 46/59/4 42/60/4
f 47/61/6 48/62/6 38/63/6 37/64/6
f 49/65/3 50/66/3 46/67/3 45/68/3
f 51/69/6 52/70/6 53/71/6 54/72/6
f 47/73/5 54/74/5 53/75/5 48/76/5
f 55/77/3 56/78/3 44/79/3 43/80/3
f 55/81/4 57/82/4 58/83/4 56/84/4
f 59/85/6 60/86/6 28/87/6 27/88/6
f 61/89/3 62/90/3 58/91/3 57/92/3
f 63/93/6 64/94/6 16/95/6 15/96/6
f 65/97/3 66/98/3 14/99/3 13/100/3
f 67/101/6 68/102/6 69/103/6 70/104/6
f 63/105/5 70/106/5 69/107/5 64/108/5
f 71/109/3 72/110/3 26/111/3 25/112/3
f 71/113/4 73/114/4 74/115/4 72/116/4
f 75/117/6 76/118/6 77/119/6 78/120/6
f 67/121/5 78/122/5 77/123/5 68/124/5
f 79/125/3 80/126/3 74/127/3 73/128/3
f 79/129/4 81/130/4 82/131/4 80/132/4
f 83/133/6 84/134/6 85/135/6 86/136/6
f 75/137/5 86/138/5 85/139/5 76/140/5
f 87/141/3 88/142/3 82/143/3 81/144/3
f 87/145/4 89/146/4 90/147/4 88/148/4
f 91/149/6 92/150/6 93/151/6 94/152/6
f 83/153/5 94/154/5 93/155/5 84/156/5
f 95/157/3 96/158/3 90/159/3 89/160/3
f 95/161/4 97/162/4 98/163/4 96/164/4
f 99/165/6 100/166/6 101/167/6 102/168/6
f 91/169/5 102/170/5 101/171/5 92/172/5
f 98/173/6 97/174/6 103/175/6 104/176/6
f 99/177/5 104/178/5 103/179/5 100/180/5
