v 1.000000 1.000000 0.468750
v 1.000000 0.000000 0.468750
v 0.000000 0.000000 0.468750
v 0.000000 1.000000 0.468750
v 0.000000 1.000000 0.531250
v 0.000000 0.000000 0.531250
v 1.000000 0.000000 0.531250
v 1.000000 1.000000 0.531250
v 0.500000 0.937500 0.468750
v 0.500000 0.937500 0.531250
v 0.562500 0.937500 0.531250
v 0.562500 0.937500 0.468750
v 0.500000 0.875000 0.468750
v 0.500000 0.875000 0.531250
v 0.562500 0.875000 0.531250
v 0.562500 0.875000 0.468750
v 0.375000 0.875000 0.468750
v 0.375000 0.875000 0.531250
v 0.687500 0.875000 0.531250
v 0.687500 0.875000 0.468750
v 0.375000 0.062500 0.468750
v 0.375000 0.062500 0.531250
v 0.687500 0.062500 0.531250
v 0.687500 0.062500 0.468750
v 0.312500 0.812500 0.468750
v 0.312500 0.812500 0.531250
v 0.750000 0.812500 0.531250
v 0.750000 0.812500 0.468750
v 0.312500 0.125000 0.468750
v 0.312500 0.125000 0.531250
v 0.750000 0.125000 0.531250
v 0.750000 0.125000 0.468750
v 0.437500 0.000000 0.531250
v 0.437500 0.000000 0.468750
v 0.625000 0.000000 0.468750
v 0.625000 0.000000 0.531250
v 0.437500 0.062500 0.468750
v 0.437500 0.062500 0.531250
v 0.625000 0.062500 0.531250
v 0.625000 0.062500 0.468750
vn 0.000000 0.000000 -1.000000
vn 0.000000 0.000000 1.000000
vn 0.000000 1.000000 0.000000
vn -1.000000 0.000000 0.000000
vn 1.000000 0.000000 0.000000
vn 0.000000 -1.000000 0.000000
vt 0.624969 0.640594
vt 0.624969 0.625031
vt 0.609406 0.625031
vt 0.609406 0.640594
vt 0.609406 0.640594
vt 0.609406 0.625031
vt 0.624969 0.625031
vt 0.624969 0.640594
vt 0.617189 0.639647
vt 0.617189 0.638674
vt 0.618162 0.638674
vt 0.618162 0.639647
vt 0.618162 0.639647
vt 0.618162 0.638674
vt 0.617189 0.638674
vt 0.617189 0.639647
vt 0.618162 0.639647
vt 0.618162 0.638674
vt 0.617189 0.638674
vt 0.617189 0.639647
vt 0.615244 0.638670
vt 0.615244 0.637697
vt 0.620108 0.637697
vt 0.620108 0.638670
vt 0.616209 0.638647
vt 0.616209 0.626001
vt 0.615236 0.626001
vt 0.615236 0.638647
vt 0.620115 0.638647
vt 0.620115 0.626001
vt 0.619143 0.626001
vt 0.619143 0.638647
vt 0.614271 0.637693
vt 0.614271 0.636721
vt 0.621080 0.636721
vt 0.621080 0.637693
vt 0.615232 0.637674
vt 0.615232 0.626974
vt 0.614260 0.626974
vt 0.614260 0.637674
vt 0.621092 0.637674
vt 0.621092 0.626974
vt 0.620119 0.626974
vt 0.620119 0.637674
vt 0.614271 0.627928
vt 0.614271 0.626955
vt 0.621080 0.626955
vt 0.621080 0.627928
vt 0.615244 0.626951
vt 0.615244 0.625978
vt 0.620108 0.625978
vt 0.620108 0.626951
vt 0.616217 0.625975
vt 0.616217 0.625002
vt 0.619135 0.625002
vt 0.619135 0.625975
vt 0.617186 0.625975
vt 0.617186 0.625002
vt 0.616213 0.625002
vt 0.616213 0.625975
vt 0.619139 0.625975
vt 0.619139 0.625002
vt 0.618166 0.625002
vt 0.618166 0.625975
f 1/1/1 2/2/1 3/3/1 4/4/1
f 5/5/2 6/6/2 7/7/2 8/8/2
f 9/9/3 10/10/3 11/11/3 12/12/3
f 9/13/4 13/14/4 14/15/4 10/16/4
f 11/17/5 15/18/5 16/19/5 12/20/5
f 17/21/3 18/22/3 19/23/3 20/24/3
f 17/25/4 21/26/4 22/27/4 18/28/4
f 19/29/5 23/30/5 24/31/5 20/32/5
f 25/33/3 26/34/3 27/35/3 28/36/3
f 25/37/4 29/38/4 30/39/4 26/40/4
f 27/41/5 31/42/5 32/43/5 28/44/5
f 30/45/6 29/46/6 32/47/6 31/48/6
f 22/49/6 21/50/6 24/51/6 23/52/6
f 33/53/6 34/54/6 35/55/6 36/56/6
f 37/57/4 34/58/4 33/59/4 38/60/4
f 39/61/5 36/62/5 35/63/5 40/64/5
