v 1.000000 1.000000 0.468750
v 1.000000 0.000000 0.468750
v 0.000000 0.000000 0.468750
v 0.000000 1.000000 0.468750
v 0.000000 1.000000 0.531250
v 0.000000 0.000000 0.531250
v 1.000000 0.000000 0.531250
v 1.000000 1.000000 0.531250
v 0.687500 0.937500 0.468750
v 0.687500 0.937500 0.531250
v 0.750000 0.937500 0.531250
v 0.750000 0.937500 0.468750
v 0.687500 0.875000 0.468750
v 0.687500 0.875000 0.531250
v 0.750000 0.187500 0.531250
v 0.750000 0.187500 0.468750
v 0.625000 0.875000 0.468750
v 0.625000 0.875000 0.531250
v 0.812500 0.875000 0.531250
v 0.812500 0.875000 0.468750
v 0.625000 0.812500 0.468750
v 0.625000 0.812500 0.531250
v 0.812500 0.250000 0.531250
v 0.812500 0.250000 0.468750
v 0.437500 0.812500 0.468750
v 0.437500 0.812500 0.531250
v 0.437500 0.750000 0.468750
v 0.437500 0.750000 0.531250
v 0.375000 0.750000 0.468750
v 0.375000 0.750000 0.531250
v 0.375000 0.125000 0.468750
v 0.375000 0.125000 0.531250
v 0.312500 0.687500 0.468750
v 0.312500 0.687500 0.531250
v 0.875000 0.687500 0.531250
v 0.875000 0.687500 0.468750
v 0.312500 0.625000 0.468750
v 0.312500 0.625000 0.531250
v 0.875000 0.312500 0.531250
v 0.875000 0.312500 0.468750
v 0.250000 0.625000 0.468750
v 0.250000 0.625000 0.531250
v 0.250000 0.187500 0.468750
v 0.250000 0.187500 0.531250
v 0.812500 0.562500 0.531250
v 0.812500 0.562500 0.468750
v 0.875000 0.562500 0.468750
v 0.875000 0.562500 0.531250
v 0.187500 0.562500 0.468750
v 0.187500 0.562500 0.531250
v 0.250000 0.562500 0.531250
v 0.250000 0.562500 0.468750
v 0.187500 0.250000 0.468750
v 0.187500 0.250000 0.531250
v 0.125000 0.500000 0.468750
v 0.125000 0.500000 0.531250
v 0.875000 0.500000 0.531250
v 0.875000 0.500000 0.468750
v 0.125000 0.312500 0.468750
v 0.125000 0.312500 0.531250
v 0.625000 0.125000 0.468750
v 0.625000 0.125000 0.531250
v 0.625000 0.187500 0.531250
v 0.625000 0.187500 0.468750
vn 0.000000 0.000000 -1.000000
vn 0.000000 0.000000 1.000000
vn 0.000000 1.000000 0.000000
vn -1.000000 0.000000 0.000000
vn 1.000000 0.000000 0.000000
vn 0.000000 -1.000000 0.000000
vt 0.624969 0.624969
vt 0.624969 0.609406
vt 0.609406 0.609406
vt 0.609406 0.624969
vt 0.609406 0.624969
vt 0.609406 0.609406
vt 0.624969 0.609406
vt 0.624969 0.624969
vt 0.620119 0.624022
vt 0.620119 0.623049
vt 0.621092 0.623049
vt 0.621092 0.624022
vt 0.621092 0.624022
vt 0.621092 0.623049
vt 0.620119 0.623049
vt 0.620119 0.624022
vt 0.621092 0.624001
vt 0.621092 0.612328
vt 0.620119 0.612328
vt 0.620119 0.624001
vt 0.619146 0.623045
vt 0.619146 0.622072
vt 0.622065 0.622072
vt 0.622065 0.623045
vt 0.620115 0.623045
vt 0.620115 0.622072
vt 0.619143 0.622072
vt 0.619143 0.623045
vt 0.622068 0.623028
vt 0.622068 0.613300
vt 0.621096 0.613300
vt 0.621096 0.623028
vt 0.616217 0.622068
vt 0.616217 0.621096
vt 0.619135 0.621096
vt 0.619135 0.622068
vt 0.617186 0.622068
vt 0.617186 0.621096
vt 0.616213 0.621096
vt 0.616213 0.622068
vt 0.615236 0.621092
vt 0.615236 0.620119
vt 0.616209 0.620119
vt 0.616209 0.621092
vt 0.616209 0.621075
vt 0.616209 0.611347
vt 0.615236 0.611347
vt 0.615236 0.621075
vt 0.614275 0.620115
vt 0.614275 0.619143
vt 0.623030 0.619143
vt 0.623030 0.620115
vt 0.615232 0.620115
vt 0.615232 0.619143
vt 0.614260 0.619143
vt 0.614260 0.620115
vt 0.623045 0.620106
vt 0.623045 0.614269
vt 0.622072 0.614269
vt 0.622072 0.620106
vt 0.613283 0.619139
vt 0.613283 0.618166
vt 0.614256 0.618166
vt 0.614256 0.619139
vt 0.614256 0.619127
vt 0.614256 0.612318
vt 0.613283 0.612318
vt 0.613283 0.619127
vt 0.622072 0.619139
vt 0.622072 0.618166
vt 0.623045 0.618166
vt 0.623045 0.619139
vt 0.612307 0.618162
vt 0.612307 0.617189
vt 0.613279 0.617189
vt 0.613279 0.618162
vt 0.613279 0.618155
vt 0.613279 0.613291
vt 0.612307 0.613291
vt 0.612307 0.618155
vt 0.611351 0.617186
vt 0.611351 0.616213
vt 0.623024 0.616213
vt 0.623024 0.617186
vt 0.612303 0.617182
vt 0.612303 0.614264
vt 0.611330 0.614264
vt 0.611330 0.617182
vt 0.611351 0.615232
vt 0.611351 0.614260
vt 0.623024 0.614260
vt 0.623024 0.615232
vt 0.612324 0.614256
vt 0.612324 0.613283
vt 0.622051 0.613283
vt 0.622051 0.614256
vt 0.613297 0.613279
vt 0.613297 0.612307
vt 0.621078 0.612307
vt 0.621078 0.613279
vt 0.615242 0.612303
vt 0.615242 0.611330
vt 0.619133 0.611330
vt 0.619133 0.612303
vt 0.619139 0.612303
vt 0.619139 0.611330
vt 0.618166 0.611330
vt 0.618166 0.612303
f 1/1/1 2/2/1 3/3/1 4/4/1
f 5/5/2 6/6/2 7/7/2 8/8/2
f 9/9/3 10/10/3 11/11/3 12/12/3
f 9/13/4 13/14/4 14/15/4 10/16/4
f 11/17/5 15/18/5 16/19/5 12/20/5
f 17/21/3 18/22/3 19/23/3 20/24/3
f 17/25/4 21/26/4 22/27/4 18/28/4
f 19/29/5 23/30/5 24/31/5 20/32/5
f 25/33/3 26/34/3 22/35/3 21/36/3
f 25/37/4 27/38/4 28/39/4 26/40/4
f 29/41/3 30/42/3 28/43/3 27/44/3
f 29/45/4 31/46/4 32/47/4 30/48/4
f 33/49/3 34/50/3 35/51/3 36/52/3
f 33/53/4 37/54/4 38/55/4 34/56/4
f 35/57/5 39/58/5 40/59/5 36/60/5
f 41/61/3 42/62/3 38/63/3 37/64/3
f 41/65/4 43/66/4 44/67/4 42/68/4
f 45/69/6 46/70/6 47/71/6 48/72/6
f 49/73/3 50/74/3 51/75/3 52/76/3
f 49/77/4 53/78/4 54/79/4 50/80/4
f 55/81/3 56/82/3 57/83/3 58/84/3
f 55/85/4 59/86/4 60/87/4 56/88/4
f 60/89/6 59/90/6 40/91/6 39/92/6
f 54/93/6 53/94/6 24/95/6 23/96/6
f 44/97/6 43/98/6 16/99/6 15/100/6
f 32/101/6 31/102/6 61/103/6 62/104/6
f 63/105/5 62/106/5 61/107/5 64/108/5
