v 0.000000 0.312500 0.562500
v 0.000000 0.312500 0.437500
v 0.125000 0.312500 0.437500
v 0.125000 0.312500 0.562500
v 0.000000 1.000000 0.437500
v 0.000000 1.000000 0.562500
v 0.125000 1.000000 0.562500
v 0.125000 1.000000 0.437500
v 0.875000 0.312500 0.562500
v 0.875000 0.312500 0.437500
v 1.000000 0.312500 0.437500
v 1.000000 0.312500 0.562500
v 0.875000 1.000000 0.437500
v 0.875000 1.000000 0.562500
v 1.000000 1.000000 0.562500
v 1.000000 1.000000 0.437500
v 0.375000 0.375000 0.562500
v 0.375000 0.375000 0.437500
v 0.500000 0.375000 0.437500
v 0.500000 0.375000 0.562500
v 0.375000 0.937500 0.437500
v 0.375000 0.937500 0.562500
v 0.500000 0.937500 0.562500
v 0.500000 0.937500 0.437500
v 0.625000 0.375000 0.437500
v 0.625000 0.375000 0.562500
v 0.625000 0.937500 0.562500
v 0.625000 0.937500 0.437500
v 0.125000 0.375000 0.562500
v 0.125000 0.375000 0.437500
v 0.125000 0.562500 0.437500
v 0.125000 0.562500 0.562500
v 0.375000 0.562500 0.562500
v 0.375000 0.562500 0.437500
v 0.125000 0.750000 0.562500
v 0.125000 0.750000 0.437500
v 0.375000 0.750000 0.437500
v 0.375000 0.750000 0.562500
v 0.125000 0.937500 0.437500
v 0.125000 0.937500 0.562500
v 0.875000 0.375000 0.437500
v 0.875000 0.375000 0.562500
v 0.625000 0.562500 0.437500
v 0.625000 0.562500 0.562500
v 0.875000 0.562500 0.562500
v 0.875000 0.562500 0.437500
v 0.625000 0.750000 0.562500
v 0.625000 0.750000 0.437500
v 0.875000 0.750000 0.437500
v 0.875000 0.750000 0.562500
v 0.875000 0.937500 0.562500
v 0.875000 0.937500 0.437500
vn 0.000000 -1.000000 0.000000
vn 0.000000 1.000000 0.000000
vn 0.000000 0.000000 -1.000000
vn 0.000000 0.000000 1.000000
vn 1.000000 0.000000 0.000000
vn -1.000000 0.000000 0.000000
vt 0.171879 0.915035
vt 0.171879 0.913090
vt 0.173824 0.913090
vt 0.173824 0.915035
vt 0.171879 0.915035
vt 0.171879 0.913090
vt 0.173824 0.913090
vt 0.173824 0.915035
vt 0.171879 0.921854
vt 0.171879 0.911154
vt 0.173824 0.911154
vt 0.173824 0.921854
vt 0.171879 0.921854
vt 0.171879 0.911154
vt 0.173824 0.911154
vt 0.173824 0.921854
vt 0.178715 0.921854
vt 0.178715 0.911154
vt 0.180660 0.911154
vt 0.180660 0.921854
vt 0.185551 0.915035
vt 0.185551 0.913090
vt 0.187496 0.913090
vt 0.187496 0.915035
vt 0.185551 0.915035
vt 0.185551 0.913090
vt 0.187496 0.913090
vt 0.187496 0.915035
vt 0.185551 0.921854
vt 0.185551 0.911154
vt 0.187496 0.911154
vt 0.187496 0.921854
vt 0.185551 0.921854
vt 0.185551 0.911154
vt 0.187496 0.911154
vt 0.187496 0.921854
vt 0.178715 0.921854
vt 0.178715 0.911154
vt 0.180660 0.911154
vt 0.180660 0.921854
vt 0.177738 0.915035
vt 0.177738 0.913090
vt 0.179684 0.913090
vt 0.179684 0.915035
vt 0.177738 0.915035
vt 0.177738 0.913090
vt 0.179684 0.913090
vt 0.179684 0.915035
vt 0.177738 0.920881
vt 0.177738 0.912127
vt 0.179684 0.912127
vt 0.179684 0.920881
vt 0.177738 0.920881
vt 0.177738 0.912127
vt 0.179684 0.912127
vt 0.179684 0.920881
vt 0.178715 0.920881
vt 0.178715 0.912127
vt 0.180660 0.912127
vt 0.180660 0.920881
vt 0.178715 0.920881
vt 0.178715 0.912127
vt 0.180660 0.912127
vt 0.180660 0.920881
vt 0.179691 0.915035
vt 0.179691 0.913090
vt 0.181637 0.913090
vt 0.181637 0.915035
vt 0.179691 0.915035
vt 0.179691 0.913090
vt 0.181637 0.913090
vt 0.181637 0.915035
vt 0.179691 0.920881
vt 0.179691 0.912127
vt 0.181637 0.912127
vt 0.181637 0.920881
vt 0.179691 0.920881
vt 0.179691 0.912127
vt 0.181637 0.912127
vt 0.181637 0.920881
vt 0.178715 0.920881
vt 0.178715 0.912127
vt 0.180660 0.912127
vt 0.180660 0.920881
vt 0.178715 0.920881
vt 0.178715 0.912127
vt 0.180660 0.912127
vt 0.180660 0.920881
vt 0.173836 0.915035
vt 0.173836 0.913090
vt 0.177727 0.913090
vt 0.177727 0.915035
vt 0.173836 0.915035
vt 0.173836 0.913090
vt 0.177727 0.913090
vt 0.177727 0.915035
vt 0.173836 0.915033
vt 0.173836 0.912115
vt 0.177727 0.912115
vt 0.177727 0.915033
vt 0.173836 0.915033
vt 0.173836 0.912115
vt 0.177727 0.912115
vt 0.177727 0.915033
vt 0.173836 0.915035
vt 0.173836 0.913090
vt 0.177727 0.913090
vt 0.177727 0.915035
vt 0.173836 0.915035
vt 0.173836 0.913090
vt 0.177727 0.913090
vt 0.177727 0.915035
vt 0.173836 0.920893
vt 0.173836 0.917974
vt 0.177727 0.917974
vt 0.177727 0.920893
vt 0.173836 0.920893
vt 0.173836 0.917974
vt 0.177727 0.917974
vt 0.177727 0.920893
vt 0.181648 0.915035
vt 0.181648 0.913090
vt 0.185539 0.913090
vt 0.185539 0.915035
vt 0.181648 0.915035
vt 0.181648 0.913090
vt 0.185539 0.913090
vt 0.185539 0.915035
vt 0.181648 0.915033
vt 0.181648 0.912115
vt 0.185539 0.912115
vt 0.185539 0.915033
vt 0.181648 0.915033
vt 0.181648 0.912115
vt 0.185539 0.912115
vt 0.185539 0.915033
vt 0.181648 0.915035
vt 0.181648 0.913090
vt 0.185539 0.913090
vt 0.185539 0.915035
vt 0.181648 0.915035
vt 0.181648 0.913090
vt 0.185539 0.913090
vt 0.185539 0.915035
vt 0.181648 0.920893
vt 0.181648 0.917974
vt 0.185539 0.917974
vt 0.185539 0.920893
vt 0.181648 0.920893
vt 0.181648 0.917974
vt 0.185539 0.917974
vt 0.185539 0.920893
vt 0.178715 0.921854
vt 0.178715 0.911154
vt 0.180660 0.911154
vt 0.180660 0.921854
vt 0.178715 0.921854
vt 0.178715 0.911154
vt 0.180660 0.911154
vt 0.180660 0.921854
f 1/1/1 2/2/1 3/3/1 4/4/1
f 5/5/2 6/6/2 7/7/2 8/8/2
f 8/9/3 3/10/3 2/11/3 5/12/3
f 6/13/4 1/14/4 4/15/4 7/16/4
f 7/17/5 4/18/5 3/19/5 8/20/5
f 9/21/1 10/22/1 11/23/1 12/24/1
f 13/25/2 14/26/2 15/27/2 16/28/2
f 16/29/3 11/30/3 10/31/3 13/32/3
f 14/33/4 9/34/4 12/35/4 15/36/4
f 13/37/6 10/38/6 9/39/6 14/40/6
f 17/41/1 18/42/1 19/43/1 20/44/1
f 21/45/2 22/46/2 23/47/2 24/48/2
f 24/49/3 19/50/3 18/51/3 21/52/3
f 22/53/4 17/54/4 20/55/4 23/56/4
f 21/57/6 18/58/6 17/59/6 22/60/6
f 23/61/5 20/62/5 19/63/5 24/64/5
f 20/65/1 19/66/1 25/67/1 26/68/1
f 24/69/2 23/70/2 27/71/2 28/72/2
f 28/73/3 25/74/3 19/75/3 24/76/3
f 23/77/4 20/78/4 26/79/4 27/80/4
f 24/81/6 19/82/6 20/83/6 23/84/6
f 27/85/5 26/86/5 25/87/5 28/88/5
f 29/89/1 30/90/1 18/91/1 17/92/1
f 31/93/2 32/94/2 33/95/2 34/96/2
f 34/97/3 18/98/3 30/99/3 31/100/3
f 32/101/4 29/102/4 17/103/4 33/104/4
f 35/105/1 36/106/1 37/107/1 38/108/1
f 39/109/2 40/110/2 22/111/2 21/112/2
f 21/113/3 37/114/3 36/115/3 39/116/3
f 40/117/4 35/118/4 38/119/4 22/120/4
f 26/121/1 25/122/1 41/123/1 42/124/1
f 43/125/2 44/126/2 45/127/2 46/128/2
f 46/129/3 41/130/3 25/131/3 43/132/3
f 44/133/4 26/134/4 42/135/4 45/136/4
f 47/137/1 48/138/1 49/139/1 50/140/1
f 28/141/2 27/142/2 51/143/2 52/144/2
f 52/145/3 49/146/3 48/147/3 28/148/3
f 27/149/4 47/150/4 50/151/4 51/152/4
f 5/153/6 2/154/6 1/155/6 6/156/6
f 15/157/5 12/158/5 11/159/5 16/160/5
