v 1.000000 1.000000 0.468750
v 1.000000 0.000000 0.468750
v 0.000000 0.000000 0.468750
v 0.000000 1.000000 0.468750
v 0.000000 1.000000 0.531250
v 0.000000 0.000000 0.531250
v 1.000000 0.000000 0.531250
v 1.000000 1.000000 0.531250
v 0.250000 0.937500 0.468750
v 0.250000 0.937500 0.531250
v 0.437500 0.937500 0.531250
v 0.437500 0.937500 0.468750
v 0.250000 0.062500 0.468750
v 0.250000 0.062500 0.531250
v 0.437500 0.062500 0.531250
v 0.437500 0.062500 0.468750
v 0.437500 0.875000 0.468750
v 0.437500 0.875000 0.531250
v 0.750000 0.875000 0.531250
v 0.750000 0.875000 0.468750
v 0.750000 0.812500 0.531250
v 0.750000 0.812500 0.468750
v 0.187500 0.812500 0.468750
v 0.187500 0.812500 0.531250
v 0.812500 0.812500 0.531250
v 0.812500 0.812500 0.468750
v 0.187500 0.125000 0.468750
v 0.187500 0.125000 0.531250
v 0.812500 0.750000 0.531250
v 0.812500 0.750000 0.468750
v 0.125000 0.750000 0.468750
v 0.125000 0.750000 0.531250
v 0.875000 0.750000 0.531250
v 0.875000 0.750000 0.468750
v 0.125000 0.187500 0.468750
v 0.125000 0.187500 0.531250
v 0.875000 0.375000 0.531250
v 0.875000 0.375000 0.468750
v 0.000000 0.687500 0.468750
v 0.000000 0.687500 0.531250
v 0.125000 0.687500 0.531250
v 0.125000 0.687500 0.468750
v 0.000000 0.312500 0.468750
v 0.000000 0.312500 0.531250
v 0.062500 0.312500 0.468750
v 0.062500 0.312500 0.531250
v 0.937500 0.375000 0.531250
v 0.937500 0.375000 0.468750
v 0.937500 0.312500 0.531250
v 0.937500 0.312500 0.468750
v 0.062500 0.250000 0.531250
v 0.062500 0.250000 0.468750
v 0.125000 0.250000 0.468750
v 0.125000 0.250000 0.531250
v 1.000000 0.312500 0.531250
v 1.000000 0.312500 0.468750
v 1.000000 0.062500 0.531250
v 1.000000 0.062500 0.468750
v 0.687500 0.187500 0.468750
v 0.687500 0.187500 0.531250
v 0.750000 0.125000 0.468750
v 0.750000 0.125000 0.531250
v 0.562500 0.187500 0.531250
v 0.562500 0.125000 0.531250
v 0.562500 0.125000 0.468750
v 0.562500 0.187500 0.468750
v 0.687500 0.125000 0.468750
v 0.687500 0.125000 0.531250
v 0.750000 0.062500 0.468750
v 0.750000 0.062500 0.531250
vn 0.000000 0.000000 -1.000000
vn 0.000000 0.000000 1.000000
vn 0.000000 1.000000 0.000000
vn -1.000000 0.000000 0.000000
vn 1.000000 0.000000 0.000000
vn 0.000000 -1.000000 0.000000
vt 0.296844 0.593719
vt 0.296844 0.578156
vt 0.281281 0.578156
vt 0.281281 0.593719
vt 0.281281 0.593719
vt 0.281281 0.578156
vt 0.296844 0.578156
vt 0.296844 0.593719
vt 0.285162 0.592772
vt 0.285162 0.591799
vt 0.288080 0.591799
vt 0.288080 0.592772
vt 0.286131 0.592747
vt 0.286131 0.579128
vt 0.285158 0.579128
vt 0.285158 0.592747
vt 0.288084 0.592747
vt 0.288084 0.579128
vt 0.287111 0.579128
vt 0.287111 0.592747
vt 0.288095 0.591795
vt 0.288095 0.590822
vt 0.292959 0.590822
vt 0.292959 0.591795
vt 0.292967 0.591795
vt 0.292967 0.590822
vt 0.291994 0.590822
vt 0.291994 0.591795
vt 0.284199 0.590818
vt 0.284199 0.589846
vt 0.293926 0.589846
vt 0.293926 0.590818
vt 0.285154 0.590799
vt 0.285154 0.580099
vt 0.284182 0.580099
vt 0.284182 0.590799
vt 0.293943 0.590818
vt 0.293943 0.589846
vt 0.292971 0.589846
vt 0.292971 0.590818
vt 0.283226 0.589842
vt 0.283226 0.588869
vt 0.294899 0.588869
vt 0.294899 0.589842
vt 0.284178 0.589827
vt 0.284178 0.581072
vt 0.283205 0.581072
vt 0.283205 0.589827
vt 0.294920 0.589832
vt 0.294920 0.583996
vt 0.293947 0.583996
vt 0.293947 0.589832
vt 0.281254 0.588865
vt 0.281254 0.587893
vt 0.283199 0.587893
vt 0.283199 0.588865
vt 0.282225 0.588856
vt 0.282225 0.583019
vt 0.281252 0.583019
vt 0.281252 0.588856
vt 0.281252 0.583982
vt 0.281252 0.583010
vt 0.282225 0.583010
vt 0.282225 0.583982
vt 0.294924 0.583982
vt 0.294924 0.583010
vt 0.295897 0.583010
vt 0.295897 0.583982
vt 0.295897 0.583982
vt 0.295897 0.583010
vt 0.294924 0.583010
vt 0.294924 0.583982
vt 0.282228 0.583006
vt 0.282228 0.582033
vt 0.283201 0.582033
vt 0.283201 0.583006
vt 0.283201 0.583006
vt 0.283201 0.582033
vt 0.282228 0.582033
vt 0.282228 0.583006
vt 0.295900 0.583006
vt 0.295900 0.582033
vt 0.296873 0.582033
vt 0.296873 0.583006
vt 0.296873 0.583000
vt 0.296873 0.579109
vt 0.295900 0.579109
vt 0.295900 0.583000
vt 0.283220 0.582029
vt 0.283220 0.581057
vt 0.291975 0.581057
vt 0.291975 0.582029
vt 0.284197 0.581053
vt 0.284197 0.580080
vt 0.292952 0.580080
vt 0.292952 0.581053
vt 0.290037 0.581053
vt 0.290037 0.580080
vt 0.289064 0.580080
vt 0.289064 0.581053
vt 0.292967 0.581053
vt 0.292967 0.580080
vt 0.291994 0.580080
vt 0.291994 0.581053
vt 0.285179 0.580076
vt 0.285179 0.579103
vt 0.296852 0.579103
vt 0.296852 0.580076
vt 0.293943 0.580076
vt 0.293943 0.579103
vt 0.292971 0.579103
vt 0.292971 0.580076
f 1/1/1 2/2/1 3/3/1 4/4/1
f 5/5/2 6/6/2 7/7/2 8/8/2
f 9/9/3 10/10/3 11/11/3 12/12/3
f 9/13/4 13/14/4 14/15/4 10/16/4
f 11/17/5 15/18/5 16/19/5 12/20/5
f 17/21/3 18/22/3 19/23/3 20/24/3
f 19/25/5 21/26/5 22/27/5 20/28/5
f 23/29/3 24/30/3 25/31/3 26/32/3
f 23/33/4 27/34/4 28/35/4 24/36/4
f 25/37/5 29/38/5 30/39/5 26/40/5
f 31/41/3 32/42/3 33/43/3 34/44/3
f 31/45/4 35/46/4 36/47/4 32/48/4
f 33/49/5 37/50/5 38/51/5 34/52/5
f 39/53/3 40/54/3 41/55/3 42/56/3
f 39/57/4 43/58/4 44/59/4 40/60/4
f 44/61/6 43/62/6 45/63/6 46/64/6
f 38/65/3 37/66/3 47/67/3 48/68/3
f 47/69/5 49/70/5 50/71/5 48/72/5
f 51/73/6 52/74/6 53/75/6 54/76/6
f 45/77/4 52/78/4 51/79/4 46/80/4
f 50/81/3 49/82/3 55/83/3 56/84/3
f 55/85/5 57/86/5 58/87/5 56/88/5
f 36/89/6 35/90/6 59/91/6 60/92/6
f 28/93/6 27/94/6 61/95/6 62/96/6
f 63/97/5 64/98/5 65/99/5 66/100/5
f 59/101/4 67/102/4 68/103/4 60/104/4
f 14/105/6 13/106/6 58/107/6 57/108/6
f 61/109/4 69/110/4 70/111/4 62/112/4
