v 1.000000 1.000000 0.468750
v 1.000000 0.000000 0.468750
v 0.000000 0.000000 0.468750
v 0.000000 1.000000 0.468750
v 0.000000 1.000000 0.531250
v 0.000000 0.000000 0.531250
v 1.000000 0.000000 0.531250
v 1.000000 1.000000 0.531250
v 0.437500 0.812500 0.468750
v 0.437500 0.812500 0.531250
v 0.750000 0.812500 0.531250
v 0.750000 0.812500 0.468750
v 0.437500 0.750000 0.468750
v 0.437500 0.750000 0.531250
v 0.750000 0.750000 0.531250
v 0.750000 0.750000 0.468750
v 0.312500 0.750000 0.468750
v 0.312500 0.750000 0.531250
v 0.812500 0.750000 0.531250
v 0.812500 0.750000 0.468750
v 0.312500 0.062500 0.468750
v 0.312500 0.062500 0.531250
v 0.812500 0.187500 0.531250
v 0.812500 0.187500 0.468750
v 0.250000 0.687500 0.468750
v 0.250000 0.687500 0.531250
v 0.875000 0.687500 0.531250
v 0.875000 0.687500 0.468750
v 0.250000 0.125000 0.468750
v 0.250000 0.125000 0.531250
v 0.875000 0.250000 0.531250
v 0.875000 0.250000 0.468750
v 0.187500 0.625000 0.468750
v 0.187500 0.625000 0.531250
v 0.250000 0.625000 0.531250
v 0.250000 0.625000 0.468750
v 0.187500 0.187500 0.468750
v 0.187500 0.187500 0.531250
v 0.875000 0.562500 0.468750
v 0.875000 0.562500 0.531250
v 0.937500 0.562500 0.531250
v 0.937500 0.562500 0.468750
v 0.937500 0.312500 0.531250
v 0.937500 0.312500 0.468750
v 0.125000 0.500000 0.468750
v 0.125000 0.500000 0.531250
v 0.187500 0.500000 0.531250
v 0.187500 0.500000 0.468750
v 0.125000 0.250000 0.468750
v 0.125000 0.250000 0.531250
v 0.875000 0.312500 0.531250
v 0.875000 0.312500 0.468750
v 0.687500 0.125000 0.468750
v 0.687500 0.125000 0.531250
v 0.687500 0.187500 0.531250
v 0.687500 0.187500 0.468750
v 0.562500 0.062500 0.468750
v 0.562500 0.062500 0.531250
v 0.562500 0.125000 0.531250
v 0.562500 0.125000 0.468750
vn 0.000000 0.000000 -1.000000
vn 0.000000 0.000000 1.000000
vn 0.000000 1.000000 0.000000
vn -1.000000 0.000000 0.000000
vn 1.000000 0.000000 0.000000
vn 0.000000 -1.000000 0.000000
vt 0.421844 0.593719
vt 0.421844 0.578156
vt 0.406281 0.578156
vt 0.406281 0.593719
vt 0.406281 0.593719
vt 0.406281 0.578156
vt 0.421844 0.578156
vt 0.421844 0.593719
vt 0.413095 0.590818
vt 0.413095 0.589846
vt 0.417959 0.589846
vt 0.417959 0.590818
vt 0.414061 0.590818
vt 0.414061 0.589846
vt 0.413088 0.589846
vt 0.413088 0.590818
vt 0.417967 0.590818
vt 0.417967 0.589846
vt 0.416994 0.589846
vt 0.416994 0.590818
vt 0.411148 0.589842
vt 0.411148 0.588869
vt 0.418930 0.588869
vt 0.418930 0.589842
vt 0.412107 0.589823
vt 0.412107 0.579123
vt 0.411135 0.579123
vt 0.411135 0.589823
vt 0.418943 0.589827
vt 0.418943 0.581072
vt 0.417971 0.581072
vt 0.417971 0.589827
vt 0.410175 0.588865
vt 0.410175 0.587893
vt 0.419903 0.587893
vt 0.419903 0.588865
vt 0.411131 0.588850
vt 0.411131 0.580095
vt 0.410158 0.580095
vt 0.410158 0.588850
vt 0.419920 0.588854
vt 0.419920 0.582045
vt 0.418947 0.582045
vt 0.418947 0.588854
vt 0.409182 0.587889
vt 0.409182 0.586916
vt 0.410154 0.586916
vt 0.410154 0.587889
vt 0.410154 0.587877
vt 0.410154 0.581068
vt 0.409182 0.581068
vt 0.409182 0.587877
vt 0.419924 0.586912
vt 0.419924 0.585939
vt 0.420897 0.585939
vt 0.420897 0.586912
vt 0.420897 0.586906
vt 0.420897 0.583015
vt 0.419924 0.583015
vt 0.419924 0.586906
vt 0.408205 0.585936
vt 0.408205 0.584963
vt 0.409178 0.584963
vt 0.409178 0.585936
vt 0.409178 0.585930
vt 0.409178 0.582039
vt 0.408205 0.582039
vt 0.408205 0.585930
vt 0.419924 0.583982
vt 0.419924 0.583010
vt 0.420897 0.583010
vt 0.420897 0.583982
vt 0.408226 0.583006
vt 0.408226 0.582033
vt 0.419899 0.582033
vt 0.419899 0.583006
vt 0.409199 0.582029
vt 0.409199 0.581057
vt 0.418926 0.581057
vt 0.418926 0.582029
vt 0.410170 0.581053
vt 0.410170 0.580080
vt 0.416979 0.580080
vt 0.416979 0.581053
vt 0.416990 0.581053
vt 0.416990 0.580080
vt 0.416018 0.580080
vt 0.416018 0.581053
vt 0.411140 0.580076
vt 0.411140 0.579103
vt 0.415031 0.579103
vt 0.415031 0.580076
vt 0.415037 0.580076
vt 0.415037 0.579103
vt 0.414064 0.579103
vt 0.414064 0.580076
f 1/1/1 2/2/1 3/3/1 4/4/1
f 5/5/2 6/6/2 7/7/2 8/8/2
f 9/9/3 10/10/3 11/11/3 12/12/3
f 9/13/4 13/14/4 14/15/4 10/16/4
f 11/17/5 15/18/5 16/19/5 12/20/5
f 17/21/3 18/22/3 19/23/3 20/24/3
f 17/25/4 21/26/4 22/27/4 18/28/4
f 19/29/5 23/30/5 24/31/5 20/32/5
f 25/33/3 26/34/3 27/35/3 28/36/3
f 25/37/4 29/38/4 30/39/4 26/40/4
f 27/41/5 31/42/5 32/43/5 28/44/5
f 33/45/3 34/46/3 35/47/3 36/48/3
f 33/49/4 37/50/4 38/51/4 34/52/4
f 39/53/3 40/54/3 41/55/3 42/56/3
f 41/57/5 43/58/5 44/59/5 42/60/5
f 45/61/3 46/62/3 47/63/3 48/64/3
f 45/65/4 49/66/4 50/67/4 46/68/4
f 51/69/6 52/70/6 44/71/6 43/72/6
f 50/73/6 49/74/6 32/75/6 31/76/6
f 38/77/6 37/78/6 24/79/6 23/80/6
f 30/81/6 29/82/6 53/83/6 54/84/6
f 55/85/5 54/86/5 53/87/5 56/88/5
f 22/89/6 21/90/6 57/91/6 58/92/6
f 59/93/5 58/94/5 57/95/5 60/96/5
