v 1.000000 1.000000 0.468750
v 1.000000 0.000000 0.468750
v 0.000000 0.000000 0.468750
v 0.000000 1.000000 0.468750
v 0.000000 1.000000 0.531250
v 0.000000 0.000000 0.531250
v 1.000000 0.000000 0.531250
v 1.000000 1.000000 0.531250
v 0.312500 0.687500 0.468750
v 0.312500 0.687500 0.531250
v 0.687500 0.687500 0.531250
v 0.687500 0.687500 0.468750
v 0.312500 0.625000 0.468750
v 0.312500 0.625000 0.531250
v 0.687500 0.625000 0.531250
v 0.687500 0.625000 0.468750
v 0.187500 0.625000 0.468750
v 0.187500 0.625000 0.531250
v 0.812500 0.625000 0.531250
v 0.812500 0.625000 0.468750
v 0.187500 0.312500 0.468750
v 0.187500 0.312500 0.531250
v 0.812500 0.312500 0.531250
v 0.812500 0.312500 0.468750
v 0.125000 0.562500 0.468750
v 0.125000 0.562500 0.531250
v 0.875000 0.562500 0.531250
v 0.875000 0.562500 0.468750
v 0.125000 0.375000 0.468750
v 0.125000 0.375000 0.531250
v 0.875000 0.375000 0.531250
v 0.875000 0.375000 0.468750
v 0.250000 0.250000 0.531250
v 0.250000 0.250000 0.468750
v 0.750000 0.250000 0.468750
v 0.750000 0.250000 0.531250
v 0.250000 0.312500 0.468750
v 0.250000 0.312500 0.531250
v 0.750000 0.312500 0.531250
v 0.750000 0.312500 0.468750
v 0.375000 0.187500 0.531250
v 0.375000 0.187500 0.468750
v 0.625000 0.187500 0.468750
v 0.625000 0.187500 0.531250
v 0.375000 0.250000 0.468750
v 0.375000 0.250000 0.531250
v 0.625000 0.250000 0.531250
v 0.625000 0.250000 0.468750
vn 0.000000 0.000000 -1.000000
vn 0.000000 0.000000 1.000000
vn 0.000000 1.000000 0.000000
vn -1.000000 0.000000 0.000000
vn 1.000000 0.000000 0.000000
vn 0.000000 -1.000000 0.000000
vt 0.515594 0.593719
vt 0.515594 0.578156
vt 0.500031 0.578156
vt 0.500031 0.593719
vt 0.500031 0.593719
vt 0.500031 0.578156
vt 0.515594 0.578156
vt 0.515594 0.593719
vt 0.504894 0.588865
vt 0.504894 0.587893
vt 0.510731 0.587893
vt 0.510731 0.588865
vt 0.505857 0.588865
vt 0.505857 0.587893
vt 0.504885 0.587893
vt 0.504885 0.588865
vt 0.510740 0.588865
vt 0.510740 0.587893
vt 0.509768 0.587893
vt 0.509768 0.588865
vt 0.502949 0.587889
vt 0.502949 0.586916
vt 0.512676 0.586916
vt 0.512676 0.587889
vt 0.503904 0.587881
vt 0.503904 0.583017
vt 0.502932 0.583017
vt 0.502932 0.587881
vt 0.512693 0.587881
vt 0.512693 0.583017
vt 0.511721 0.583017
vt 0.511721 0.587881
vt 0.501976 0.586912
vt 0.501976 0.585939
vt 0.513649 0.585939
vt 0.513649 0.586912
vt 0.502928 0.586908
vt 0.502928 0.583990
vt 0.501955 0.583990
vt 0.501955 0.586908
vt 0.513670 0.586908
vt 0.513670 0.583990
vt 0.512697 0.583990
vt 0.512697 0.586908
vt 0.501976 0.584959
vt 0.501976 0.583986
vt 0.513649 0.583986
vt 0.513649 0.584959
vt 0.502949 0.583982
vt 0.502949 0.583010
vt 0.512676 0.583010
vt 0.512676 0.583982
vt 0.503922 0.583006
vt 0.503922 0.582033
vt 0.511703 0.582033
vt 0.511703 0.583006
vt 0.504881 0.583006
vt 0.504881 0.582033
vt 0.503908 0.582033
vt 0.503908 0.583006
vt 0.511717 0.583006
vt 0.511717 0.582033
vt 0.510744 0.582033
vt 0.510744 0.583006
vt 0.505867 0.582029
vt 0.505867 0.581057
vt 0.509758 0.581057
vt 0.509758 0.582029
vt 0.506834 0.582029
vt 0.506834 0.581057
vt 0.505861 0.581057
vt 0.505861 0.582029
vt 0.509764 0.582029
vt 0.509764 0.581057
vt 0.508791 0.581057
vt 0.508791 0.582029
f 1/1/1 2/2/1 3/3/1 4/4/1
f 5/5/2 6/6/2 7/7/2 8/8/2
f 9/9/3 10/10/3 11/11/3 12/12/3
f 9/13/4 13/14/4 14/15/4 10/16/4
f 11/17/5 15/18/5 16/19/5 12/20/5
f 17/21/3 18/22/3 19/23/3 20/24/3
f 17/25/4 21/26/4 22/27/4 18/28/4
f 19/29/5 23/30/5 24/31/5 20/32/5
f 25/33/3 26/34/3 27/35/3 28/36/3
f 25/37/4 29/38/4 30/39/4 26/40/4
f 27/41/5 31/42/5 32/43/5 28/44/5
f 30/45/6 29/46/6 32/47/6 31/48/6
f 22/49/6 21/50/6 24/51/6 23/52/6
f 33/53/6 34/54/6 35/55/6 36/56/6
f 37/57/4 34/58/4 33/59/4 38/60/4
f 39/61/5 36/62/5 35/63/5 40/64/5
f 41/65/6 42/66/6 43/67/6 44/68/6
f 45/69/4 42/70/4 41/71/4 46/72/4
f 47/73/5 44/74/5 43/75/5 48/76/5
