v 0.250000 1.000000 0.250000
v 0.250000 1.000000 0.750000
v 0.750000 1.000000 0.750000
v 0.750000 1.000000 0.250000
v 0.750000 0.000000 0.250000
v 0.250000 0.000000 0.250000
v 0.250000 0.000000 0.750000
v 0.750000 0.000000 0.750000
v 0.312500 0.812500 0.000000
v 0.312500 0.812500 1.000000
v 0.687500 0.812500 1.000000
v 0.687500 0.812500 0.000000
v 0.312500 0.000000 0.000000
v 0.312500 0.000000 1.000000
v 0.687500 0.000000 1.000000
v 0.687500 0.000000 0.000000
vn 0.000000 1.000000 0.000000
vn 0.000000 0.000000 -1.000000
vn 0.000000 0.000000 1.000000
vn -1.000000 0.000000 0.000000
vn 1.000000 0.000000 0.000000
vn 0.000000 -1.000000 0.000000
vt 0.144547 0.855453
vt 0.144547 0.847672
vt 0.152328 0.847672
vt 0.152328 0.855453
vt 0.144547 0.859344
vt 0.144547 0.843781
vt 0.152328 0.843781
vt 0.152328 0.859344
vt 0.144547 0.859344
vt 0.144547 0.843781
vt 0.152328 0.843781
vt 0.152328 0.859344
vt 0.144547 0.859344
vt 0.144547 0.843781
vt 0.152328 0.843781
vt 0.152328 0.859344
vt 0.144547 0.859344
vt 0.144547 0.843781
vt 0.152328 0.843781
vt 0.152328 0.859344
vt 0.145519 0.859344
vt 0.145519 0.843781
vt 0.151356 0.843781
vt 0.151356 0.859344
vt 0.140656 0.856421
vt 0.140656 0.843775
vt 0.156219 0.843775
vt 0.156219 0.856421
vt 0.140656 0.856421
vt 0.140656 0.843775
vt 0.156219 0.843775
vt 0.156219 0.856421
vt 0.144547 0.855453
vt 0.144547 0.847672
vt 0.152328 0.847672
vt 0.152328 0.855453
vt 0.145519 0.859344
vt 0.145519 0.843781
vt 0.151356 0.843781
vt 0.151356 0.859344
vt 0.145519 0.856421
vt 0.145519 0.843775
vt 0.151356 0.843775
vt 0.151356 0.856421
vt 0.145519 0.856421
vt 0.145519 0.843775
vt 0.151356 0.843775
vt 0.151356 0.856421
f 1/1/1 2/2/1 3/3/1 4/4/1
f 4/5/2 5/6/2 6/7/2 1/8/2
f 2/9/3 7/10/3 8/11/3 3/12/3
f 1/13/4 6/14/4 7/15/4 2/16/4
f 3/17/5 8/18/5 5/19/5 4/20/5
f 9/21/1 10/22/1 11/23/1 12/24/1
f 9/25/4 13/26/4 14/27/4 10/28/4
f 11/29/5 15/30/5 16/31/5 12/32/5
f 7/33/6 6/34/6 5/35/6 8/36/6
f 14/37/6 13/38/6 16/39/6 15/40/6
f 12/41/2 16/42/2 13/43/2 9/44/2
f 10/45/3 14/46/3 15/47/3 11/48/3
