v 1.000000 1.000000 0.468750
v 1.000000 0.000000 0.468750
v 0.000000 0.000000 0.468750
v 0.000000 1.000000 0.468750
v 0.000000 1.000000 0.531250
v 0.000000 0.000000 0.531250
v 1.000000 0.000000 0.531250
v 1.000000 1.000000 0.531250
v 0.750000 0.937500 0.468750
v 0.750000 0.937500 0.531250
v 0.875000 0.937500 0.531250
v 0.875000 0.937500 0.468750
v 0.750000 0.875000 0.468750
v 0.750000 0.875000 0.531250
v 0.875000 0.750000 0.531250
v 0.875000 0.750000 0.468750
v 0.687500 0.875000 0.468750
v 0.687500 0.875000 0.531250
v 0.937500 0.875000 0.531250
v 0.937500 0.875000 0.468750
v 0.687500 0.812500 0.468750
v 0.687500 0.812500 0.531250
v 0.875000 0.812500 0.531250
v 0.875000 0.812500 0.468750
v 0.937500 0.812500 0.468750
v 0.937500 0.812500 0.531250
v 0.625000 0.812500 0.468750
v 0.625000 0.812500 0.531250
v 0.625000 0.750000 0.468750
v 0.625000 0.750000 0.531250
v 0.812500 0.750000 0.531250
v 0.812500 0.750000 0.468750
v 0.562500 0.750000 0.468750
v 0.562500 0.750000 0.531250
v 0.562500 0.687500 0.468750
v 0.562500 0.687500 0.531250
v 0.750000 0.687500 0.531250
v 0.750000 0.687500 0.468750
v 0.812500 0.687500 0.468750
v 0.812500 0.687500 0.531250
v 0.500000 0.687500 0.468750
v 0.500000 0.687500 0.531250
v 0.500000 0.625000 0.468750
v 0.500000 0.625000 0.531250
v 0.687500 0.625000 0.531250
v 0.687500 0.625000 0.468750
v 0.750000 0.625000 0.468750
v 0.750000 0.625000 0.531250
v 0.437500 0.625000 0.468750
v 0.437500 0.625000 0.531250
v 0.437500 0.562500 0.468750
v 0.437500 0.562500 0.531250
v 0.625000 0.562500 0.531250
v 0.625000 0.562500 0.468750
v 0.687500 0.562500 0.468750
v 0.687500 0.562500 0.531250
v 0.375000 0.562500 0.468750
v 0.375000 0.562500 0.531250
v 0.375000 0.500000 0.468750
v 0.375000 0.500000 0.531250
v 0.562500 0.500000 0.531250
v 0.562500 0.500000 0.468750
v 0.625000 0.500000 0.468750
v 0.625000 0.500000 0.531250
v 0.312500 0.500000 0.468750
v 0.312500 0.500000 0.531250
v 0.312500 0.437500 0.468750
v 0.312500 0.437500 0.531250
v 0.500000 0.437500 0.531250
v 0.500000 0.437500 0.468750
v 0.562500 0.437500 0.468750
v 0.562500 0.437500 0.531250
v 0.250000 0.437500 0.468750
v 0.250000 0.437500 0.531250
v 0.250000 0.375000 0.468750
v 0.250000 0.375000 0.531250
v 0.437500 0.375000 0.531250
v 0.437500 0.375000 0.468750
v 0.500000 0.375000 0.468750
v 0.500000 0.375000 0.531250
v 0.187500 0.375000 0.468750
v 0.187500 0.375000 0.531250
v 0.187500 0.312500 0.468750
v 0.187500 0.312500 0.531250
v 0.375000 0.312500 0.531250
v 0.375000 0.312500 0.468750
v 0.437500 0.312500 0.468750
v 0.437500 0.312500 0.531250
v 0.125000 0.312500 0.468750
v 0.125000 0.312500 0.531250
v 0.125000 0.250000 0.468750
v 0.125000 0.250000 0.531250
v 0.312500 0.250000 0.531250
v 0.312500 0.250000 0.468750
v 0.375000 0.250000 0.468750
v 0.375000 0.250000 0.531250
v 0.062500 0.250000 0.468750
v 0.062500 0.250000 0.531250
v 0.062500 0.062500 0.468750
v 0.062500 0.062500 0.531250
v 0.250000 0.187500 0.531250
v 0.250000 0.187500 0.468750
v 0.312500 0.187500 0.468750
v 0.312500 0.187500 0.531250
v 0.187500 0.125000 0.531250
v 0.187500 0.125000 0.468750
v 0.250000 0.125000 0.468750
v 0.250000 0.125000 0.531250
v 0.187500 0.062500 0.468750
v 0.187500 0.062500 0.531250
vn 0.000000 0.000000 -1.000000
vn 0.000000 0.000000 1.000000
vn 0.000000 1.000000 0.000000
vn -1.000000 0.000000 0.000000
vn 1.000000 0.000000 0.000000
vn 0.000000 -1.000000 0.000000
vt 0.124969 0.578094
vt 0.124969 0.562531
vt 0.109406 0.562531
vt 0.109406 0.578094
vt 0.109406 0.578094
vt 0.109406 0.562531
vt 0.124969 0.562531
vt 0.124969 0.578094
vt 0.121098 0.577147
vt 0.121098 0.576174
vt 0.123043 0.576174
vt 0.123043 0.577147
vt 0.122068 0.577147
vt 0.122068 0.576174
vt 0.121096 0.576174
vt 0.121096 0.577147
vt 0.123045 0.577143
vt 0.123045 0.574224
vt 0.122072 0.574224
vt 0.122072 0.577143
vt 0.120125 0.576170
vt 0.120125 0.575197
vt 0.124016 0.575197
vt 0.124016 0.576170
vt 0.121092 0.576170
vt 0.121092 0.575197
vt 0.120119 0.575197
vt 0.120119 0.576170
vt 0.123049 0.576170
vt 0.123049 0.575197
vt 0.124022 0.575197
vt 0.124022 0.576170
vt 0.124022 0.576170
vt 0.124022 0.575197
vt 0.123049 0.575197
vt 0.123049 0.576170
vt 0.119143 0.575193
vt 0.119143 0.574221
vt 0.120115 0.574221
vt 0.120115 0.575193
vt 0.120115 0.575193
vt 0.120115 0.574221
vt 0.119143 0.574221
vt 0.119143 0.575193
vt 0.122072 0.575193
vt 0.122072 0.574221
vt 0.123045 0.574221
vt 0.123045 0.575193
vt 0.118166 0.574217
vt 0.118166 0.573244
vt 0.119139 0.573244
vt 0.119139 0.574217
vt 0.119139 0.574217
vt 0.119139 0.573244
vt 0.118166 0.573244
vt 0.118166 0.574217
vt 0.121096 0.574217
vt 0.121096 0.573244
vt 0.122068 0.573244
vt 0.122068 0.574217
vt 0.122068 0.574217
vt 0.122068 0.573244
vt 0.121096 0.573244
vt 0.121096 0.574217
vt 0.117189 0.573240
vt 0.117189 0.572268
vt 0.118162 0.572268
vt 0.118162 0.573240
vt 0.118162 0.573240
vt 0.118162 0.572268
vt 0.117189 0.572268
vt 0.117189 0.573240
vt 0.120119 0.573240
vt 0.120119 0.572268
vt 0.121092 0.572268
vt 0.121092 0.573240
vt 0.121092 0.573240
vt 0.121092 0.572268
vt 0.120119 0.572268
vt 0.120119 0.573240
vt 0.116213 0.572264
vt 0.116213 0.571291
vt 0.117186 0.571291
vt 0.117186 0.572264
vt 0.117186 0.572264
vt 0.117186 0.571291
vt 0.116213 0.571291
vt 0.116213 0.572264
vt 0.119143 0.572264
vt 0.119143 0.571291
vt 0.120115 0.571291
vt 0.120115 0.572264
vt 0.120115 0.572264
vt 0.120115 0.571291
vt 0.119143 0.571291
vt 0.119143 0.572264
vt 0.115236 0.571287
vt 0.115236 0.570314
vt 0.116209 0.570314
vt 0.116209 0.571287
vt 0.116209 0.571287
vt 0.116209 0.570314
vt 0.115236 0.570314
vt 0.115236 0.571287
vt 0.118166 0.571287
vt 0.118166 0.570314
vt 0.119139 0.570314
vt 0.119139 0.571287
vt 0.119139 0.571287
vt 0.119139 0.570314
vt 0.118166 0.570314
vt 0.118166 0.571287
vt 0.114260 0.570311
vt 0.114260 0.569338
vt 0.115232 0.569338
vt 0.115232 0.570311
vt 0.115232 0.570311
vt 0.115232 0.569338
vt 0.114260 0.569338
vt 0.114260 0.570311
vt 0.117189 0.570311
vt 0.117189 0.569338
vt 0.118162 0.569338
vt 0.118162 0.570311
vt 0.118162 0.570311
vt 0.118162 0.569338
vt 0.117189 0.569338
vt 0.117189 0.570311
vt 0.113283 0.569334
vt 0.113283 0.568361
vt 0.114256 0.568361
vt 0.114256 0.569334
vt 0.114256 0.569334
vt 0.114256 0.568361
vt 0.113283 0.568361
vt 0.113283 0.569334
vt 0.116213 0.569334
vt 0.116213 0.568361
vt 0.117186 0.568361
vt 0.117186 0.569334
vt 0.117186 0.569334
vt 0.117186 0.568361
vt 0.116213 0.568361
vt 0.116213 0.569334
vt 0.112307 0.568357
vt 0.112307 0.567385
vt 0.113279 0.567385
vt 0.113279 0.568357
vt 0.113279 0.568357
vt 0.113279 0.567385
vt 0.112307 0.567385
vt 0.112307 0.568357
vt 0.115236 0.568357
vt 0.115236 0.567385
vt 0.116209 0.567385
vt 0.116209 0.568357
vt 0.116209 0.568357
vt 0.116209 0.567385
vt 0.115236 0.567385
vt 0.115236 0.568357
vt 0.111330 0.567381
vt 0.111330 0.566408
vt 0.112303 0.566408
vt 0.112303 0.567381
vt 0.112303 0.567381
vt 0.112303 0.566408
vt 0.111330 0.566408
vt 0.111330 0.567381
vt 0.114260 0.567381
vt 0.114260 0.566408
vt 0.115232 0.566408
vt 0.115232 0.567381
vt 0.115232 0.567381
vt 0.115232 0.566408
vt 0.114260 0.566408
vt 0.114260 0.567381
vt 0.110353 0.566404
vt 0.110353 0.565432
vt 0.111326 0.565432
vt 0.111326 0.566404
vt 0.111326 0.566401
vt 0.111326 0.563482
vt 0.110353 0.563482
vt 0.110353 0.566401
vt 0.113283 0.566404
vt 0.113283 0.565432
vt 0.114256 0.565432
vt 0.114256 0.566404
vt 0.114256 0.566404
vt 0.114256 0.565432
vt 0.113283 0.565432
vt 0.113283 0.566404
vt 0.112307 0.565428
vt 0.112307 0.564455
vt 0.113279 0.564455
vt 0.113279 0.565428
vt 0.113279 0.565428
vt 0.113279 0.564455
vt 0.112307 0.564455
vt 0.112307 0.565428
vt 0.110355 0.564451
vt 0.110355 0.563478
vt 0.112301 0.563478
vt 0.112301 0.564451
vt 0.112303 0.564451
vt 0.112303 0.563478
vt 0.111330 0.563478
vt 0.111330 0.564451
f 1/1/1 2/2/1 3/3/1 4/4/1
f 5/5/2 6/6/2 7/7/2 8/8/2
f 9/9/3 10/10/3 11/11/3 12/12/3
f 9/13/4 13/14/4 14/15/4 10/16/4
f 11/17/5 15/18/5 16/19/5 12/20/5
f 17/21/3 18/22/3 19/23/3 20/24/3
f 17/25/4 21/26/4 22/27/4 18/28/4
f 23/29/6 24/30/6 25/31/6 26/32/6
f 19/33/5 26/34/5 25/35/5 20/36/5
f 27/37/3 28/38/3 22/39/3 21/40/3
f 27/41/4 29/42/4 30/43/4 28/44/4
f 31/45/6 32/46/6 16/47/6 15/48/6
f 33/49/3 34/50/3 30/51/3 29/52/3
f 33/53/4 35/54/4 36/55/4 34/56/4
f 37/57/6 38/58/6 39/59/6 40/60/6
f 31/61/5 40/62/5 39/63/5 32/64/5
f 41/65/3 42/66/3 36/67/3 35/68/3
f 41/69/4 43/70/4 44/71/4 42/72/4
f 45/73/6 46/74/6 47/75/6 48/76/6
f 37/77/5 48/78/5 47/79/5 38/80/5
f 49/81/3 50/82/3 44/83/3 43/84/3
f 49/85/4 51/86/4 52/87/4 50/88/4
f 53/89/6 54/90/6 55/91/6 56/92/6
f 45/93/5 56/94/5 55/95/5 46/96/5
f 57/97/3 58/98/3 52/99/3 51/100/3
f 57/101/4 59/102/4 60/103/4 58/104/4
f 61/105/6 62/106/6 63/107/6 64/108/6
f 53/109/5 64/110/5 63/111/5 54/112/5
f 65/113/3 66/114/3 60/115/3 59/116/3
f 65/117/4 67/118/4 68/119/4 66/120/4
f 69/121/6 70/122/6 71/123/6 72/124/6
f 61/125/5 72/126/5 71/127/5 62/128/5
f 73/129/3 74/130/3 68/131/3 67/132/3
f 73/133/4 75/134/4 76/135/4 74/136/4
f 77/137/6 78/138/6 79/139/6 80/140/6
f 69/141/5 80/142/5 79/143/5 70/144/5
f 81/145/3 82/146/3 76/147/3 75/148/3
f 81/149/4 83/150/4 84/151/4 82/152/4
f 85/153/6 86/154/6 87/155/6 88/156/6
f 77/157/5 88/158/5 87/159/5 78/160/5
f 89/161/3 90/162/3 84/163/3 83/164/3
f 89/165/4 91/166/4 92/167/4 90/168/4
f 93/169/6 94/170/6 95/171/6 96/172/6
f 85/173/5 96/174/5 95/175/5 86/176/5
f 97/177/3 98/178/3 92/179/3 91/180/3
f 97/181/4 99/182/4 100/183/4 98/184/4
f 101/185/6 102/186/6 103/187/6 104/188/6
f 93/189/5 104/190/5 103/191/5 94/192/5
f 105/193/6 106/194/6 107/195/6 108/196/6
f 101/197/5 108/198/5 107/199/5 102/200/5
f 100/201/6 99/202/6 109/203/6 110/204/6
f 105/205/5 110/206/5 109/207/5 106/208/5
