v 1.000000 1.000000 0.468750
v 1.000000 0.000000 0.468750
v 0.000000 0.000000 0.468750
v 0.000000 1.000000 0.468750
v 0.000000 1.000000 0.531250
v 0.000000 0.000000 0.531250
v 1.000000 0.000000 0.531250
v 1.000000 1.000000 0.531250
v 0.437500 0.750000 0.468750
v 0.437500 0.750000 0.531250
v 0.500000 0.750000 0.531250
v 0.500000 0.750000 0.468750
v 0.437500 0.125000 0.468750
v 0.437500 0.125000 0.531250
v 0.500000 0.687500 0.531250
v 0.500000 0.687500 0.468750
v 0.312500 0.687500 0.468750
v 0.312500 0.687500 0.531250
v 0.687500 0.687500 0.531250
v 0.687500 0.687500 0.468750
v 0.312500 0.187500 0.468750
v 0.312500 0.187500 0.531250
v 0.562500 0.687500 0.531250
v 0.562500 0.125000 0.531250
v 0.562500 0.125000 0.468750
v 0.562500 0.687500 0.468750
v 0.625000 0.687500 0.468750
v 0.625000 0.625000 0.468750
v 0.625000 0.625000 0.531250
v 0.625000 0.687500 0.531250
v 0.687500 0.625000 0.531250
v 0.687500 0.625000 0.468750
v 0.250000 0.625000 0.468750
v 0.250000 0.625000 0.531250
v 0.750000 0.625000 0.531250
v 0.750000 0.625000 0.468750
v 0.250000 0.562500 0.468750
v 0.250000 0.562500 0.531250
v 0.750000 0.562500 0.531250
v 0.750000 0.562500 0.468750
v 0.187500 0.562500 0.468750
v 0.187500 0.562500 0.531250
v 0.812500 0.562500 0.531250
v 0.812500 0.562500 0.468750
v 0.187500 0.187500 0.468750
v 0.187500 0.187500 0.531250
v 0.812500 0.187500 0.531250
v 0.812500 0.187500 0.468750
v 0.125000 0.500000 0.468750
v 0.125000 0.500000 0.531250
v 0.875000 0.500000 0.531250
v 0.875000 0.500000 0.468750
v 0.125000 0.250000 0.468750
v 0.125000 0.250000 0.531250
v 0.875000 0.250000 0.531250
v 0.875000 0.250000 0.468750
v 0.875000 0.437500 0.468750
v 0.875000 0.437500 0.531250
v 0.937500 0.437500 0.531250
v 0.937500 0.437500 0.468750
v 0.937500 0.312500 0.531250
v 0.937500 0.312500 0.468750
v 0.062500 0.375000 0.468750
v 0.062500 0.375000 0.531250
v 0.125000 0.375000 0.531250
v 0.125000 0.375000 0.468750
v 0.062500 0.312500 0.531250
v 0.062500 0.312500 0.468750
v 0.250000 0.250000 0.531250
v 0.250000 0.187500 0.531250
v 0.250000 0.187500 0.468750
v 0.250000 0.250000 0.468750
v 0.625000 0.250000 0.531250
v 0.625000 0.187500 0.531250
v 0.625000 0.187500 0.468750
v 0.625000 0.250000 0.468750
v 0.687500 0.250000 0.468750
v 0.687500 0.187500 0.468750
v 0.687500 0.187500 0.531250
v 0.687500 0.250000 0.531250
vn 0.000000 0.000000 -1.000000
vn 0.000000 0.000000 1.000000
vn 0.000000 1.000000 0.000000
vn -1.000000 0.000000 0.000000
vn 1.000000 0.000000 0.000000
vn 0.000000 -1.000000 0.000000
vt 0.156219 0.578094
vt 0.156219 0.562531
vt 0.140656 0.562531
vt 0.140656 0.578094
vt 0.140656 0.578094
vt 0.140656 0.562531
vt 0.156219 0.562531
vt 0.156219 0.578094
vt 0.147463 0.574217
vt 0.147463 0.573244
vt 0.148436 0.573244
vt 0.148436 0.574217
vt 0.148436 0.574200
vt 0.148436 0.564472
vt 0.147463 0.564472
vt 0.147463 0.574200
vt 0.148436 0.574217
vt 0.148436 0.573244
vt 0.147463 0.573244
vt 0.147463 0.574217
vt 0.145519 0.573240
vt 0.145519 0.572268
vt 0.151356 0.572268
vt 0.151356 0.573240
vt 0.146482 0.573227
vt 0.146482 0.565445
vt 0.145510 0.565445
vt 0.145510 0.573227
vt 0.149412 0.573225
vt 0.149412 0.564470
vt 0.148439 0.564470
vt 0.148439 0.573225
vt 0.151365 0.573240
vt 0.151365 0.572268
vt 0.150393 0.572268
vt 0.150393 0.573240
vt 0.151365 0.573240
vt 0.151365 0.572268
vt 0.150393 0.572268
vt 0.150393 0.573240
vt 0.144547 0.572264
vt 0.144547 0.571291
vt 0.152328 0.571291
vt 0.152328 0.572264
vt 0.145506 0.572264
vt 0.145506 0.571291
vt 0.144533 0.571291
vt 0.144533 0.572264
vt 0.152342 0.572264
vt 0.152342 0.571291
vt 0.151369 0.571291
vt 0.151369 0.572264
vt 0.143574 0.571287
vt 0.143574 0.570314
vt 0.153301 0.570314
vt 0.153301 0.571287
vt 0.144529 0.571278
vt 0.144529 0.565441
vt 0.143557 0.565441
vt 0.143557 0.571278
vt 0.153318 0.571278
vt 0.153318 0.565441
vt 0.152346 0.565441
vt 0.152346 0.571278
vt 0.142601 0.570311
vt 0.142601 0.569338
vt 0.154274 0.569338
vt 0.154274 0.570311
vt 0.143553 0.570305
vt 0.143553 0.566414
vt 0.142580 0.566414
vt 0.142580 0.570305
vt 0.154295 0.570305
vt 0.154295 0.566414
vt 0.153322 0.566414
vt 0.153322 0.570305
vt 0.154299 0.569334
vt 0.154299 0.568361
vt 0.155272 0.568361
vt 0.155272 0.569334
vt 0.155272 0.569332
vt 0.155272 0.567387
vt 0.154299 0.567387
vt 0.154299 0.569332
vt 0.141603 0.568357
vt 0.141603 0.567385
vt 0.142576 0.567385
vt 0.142576 0.568357
vt 0.141628 0.568357
vt 0.141628 0.567385
vt 0.155247 0.567385
vt 0.155247 0.568357
vt 0.142576 0.568357
vt 0.142576 0.567385
vt 0.141603 0.567385
vt 0.141603 0.568357
vt 0.142601 0.567381
vt 0.142601 0.566408
vt 0.154274 0.566408
vt 0.154274 0.567381
vt 0.143574 0.566404
vt 0.143574 0.565432
vt 0.153301 0.565432
vt 0.153301 0.566404
vt 0.144529 0.566404
vt 0.144529 0.565432
vt 0.143557 0.565432
vt 0.143557 0.566404
vt 0.150389 0.566404
vt 0.150389 0.565432
vt 0.149416 0.565432
vt 0.149416 0.566404
vt 0.152342 0.566404
vt 0.152342 0.565432
vt 0.151369 0.565432
vt 0.151369 0.566404
vt 0.147465 0.565428
vt 0.147465 0.564455
vt 0.149410 0.564455
vt 0.149410 0.565428
f 1/1/1 2/2/1 3/3/1 4/4/1
f 5/5/2 6/6/2 7/7/2 8/8/2
f 9/9/3 10/10/3 11/11/3 12/12/3
f 9/13/4 13/14/4 14/15/4 10/16/4
f 11/17/5 15/18/5 16/19/5 12/20/5
f 17/21/3 18/22/3 19/23/3 20/24/3
f 17/25/4 21/26/4 22/27/4 18/28/4
f 23/29/5 24/30/5 25/31/5 26/32/5
f 27/33/4 28/34/4 29/35/4 30/36/4
f 19/37/5 31/38/5 32/39/5 20/40/5
f 33/41/3 34/42/3 35/43/3 36/44/3
f 33/45/4 37/46/4 38/47/4 34/48/4
f 35/49/5 39/50/5 40/51/5 36/52/5
f 41/53/3 42/54/3 43/55/3 44/56/3
f 41/57/4 45/58/4 46/59/4 42/60/4
f 43/61/5 47/62/5 48/63/5 44/64/5
f 49/65/3 50/66/3 51/67/3 52/68/3
f 49/69/4 53/70/4 54/71/4 50/72/4
f 51/73/5 55/74/5 56/75/5 52/76/5
f 57/77/3 58/78/3 59/79/3 60/80/3
f 59/81/5 61/82/5 62/83/5 60/84/5
f 63/85/3 64/86/3 65/87/3 66/88/3
f 67/89/6 68/90/6 62/91/6 61/92/6
f 63/93/4 68/94/4 67/95/4 64/96/4
f 54/97/6 53/98/6 56/99/6 55/100/6
f 46/101/6 45/102/6 48/103/6 47/104/6
f 69/105/5 70/106/5 71/107/5 72/108/5
f 73/109/5 74/110/5 75/111/5 76/112/5
f 77/113/4 78/114/4 79/115/4 80/116/4
f 14/117/6 13/118/6 25/119/6 24/120/6
