v 1.000000 1.000000 0.468750
v 1.000000 0.000000 0.468750
v 0.000000 0.000000 0.468750
v 0.000000 1.000000 0.468750
v 0.000000 1.000000 0.531250
v 0.000000 0.000000 0.531250
v 1.000000 0.000000 0.531250
v 1.000000 1.000000 0.531250
v 0.375000 0.750000 0.468750
v 0.375000 0.750000 0.531250
v 0.500000 0.750000 0.531250
v 0.500000 0.750000 0.468750
v 0.375000 0.187500 0.468750
v 0.375000 0.187500 0.531250
v 0.500000 0.500000 0.531250
v 0.500000 0.500000 0.468750
v 0.312500 0.687500 0.468750
v 0.312500 0.687500 0.531250
v 0.875000 0.687500 0.531250
v 0.875000 0.687500 0.468750
v 0.312500 0.562500 0.468750
v 0.312500 0.562500 0.531250
v 0.562500 0.687500 0.531250
v 0.562500 0.000000 0.531250
v 0.562500 0.000000 0.468750
v 0.562500 0.687500 0.468750
v 0.812500 0.687500 0.468750
v 0.812500 0.625000 0.468750
v 0.812500 0.625000 0.531250
v 0.812500 0.687500 0.531250
v 0.875000 0.500000 0.531250
v 0.875000 0.500000 0.468750
v 0.937500 0.562500 0.468750
v 0.937500 0.562500 0.531250
v 0.750000 0.625000 0.468750
v 0.750000 0.625000 0.531250
v 0.937500 0.625000 0.531250
v 0.937500 0.625000 0.468750
v 0.750000 0.500000 0.468750
v 0.750000 0.500000 0.531250
v 0.375000 0.500000 0.531250
v 0.375000 0.500000 0.468750
v 0.500000 0.000000 0.468750
v 0.500000 0.000000 0.531250
v 0.687500 0.437500 0.531250
v 0.687500 0.437500 0.468750
v 0.750000 0.437500 0.468750
v 0.750000 0.437500 0.531250
v 0.687500 0.500000 0.468750
v 0.687500 0.500000 0.531250
v 0.187500 0.437500 0.468750
v 0.187500 0.437500 0.531250
v 0.187500 0.250000 0.468750
v 0.187500 0.250000 0.531250
v 0.312500 0.437500 0.531250
v 0.312500 0.375000 0.531250
v 0.312500 0.375000 0.468750
v 0.312500 0.437500 0.468750
v 0.625000 0.437500 0.468750
v 0.625000 0.375000 0.468750
v 0.625000 0.375000 0.531250
v 0.625000 0.437500 0.531250
v 0.687500 0.312500 0.531250
v 0.687500 0.312500 0.468750
v 0.125000 0.375000 0.468750
v 0.125000 0.375000 0.531250
v 0.125000 0.312500 0.531250
v 0.125000 0.312500 0.468750
v 0.375000 0.375000 0.531250
v 0.375000 0.312500 0.531250
v 0.375000 0.312500 0.468750
v 0.375000 0.375000 0.468750
v 0.437500 0.375000 0.468750
v 0.437500 0.125000 0.468750
v 0.437500 0.125000 0.531250
v 0.437500 0.375000 0.531250
v 0.625000 0.250000 0.468750
v 0.625000 0.250000 0.531250
v 0.250000 0.312500 0.531250
v 0.250000 0.250000 0.531250
v 0.250000 0.250000 0.468750
v 0.250000 0.312500 0.468750
v 0.437500 0.312500 0.531250
v 0.437500 0.312500 0.468750
v 0.437500 0.250000 0.531250
v 0.437500 0.250000 0.468750
v 0.625000 0.312500 0.531250
v 0.625000 0.062500 0.531250
v 0.625000 0.062500 0.468750
v 0.625000 0.312500 0.468750
v 0.437500 0.187500 0.468750
v 0.437500 0.187500 0.531250
v 0.500000 0.250000 0.531250
v 0.500000 0.250000 0.468750
v 0.500000 0.125000 0.468750
v 0.500000 0.125000 0.531250
v 0.562500 0.125000 0.468750
v 0.562500 0.125000 0.531250
v 0.625000 0.125000 0.531250
v 0.625000 0.125000 0.468750
v 0.562500 0.062500 0.531250
v 0.562500 0.062500 0.468750
vn 0.000000 0.000000 -1.000000
vn 0.000000 0.000000 1.000000
vn 0.000000 1.000000 0.000000
vn -1.000000 0.000000 0.000000
vn 1.000000 0.000000 0.000000
vn 0.000000 -1.000000 0.000000
vt 0.062469 0.843719
vt 0.062469 0.828156
vt 0.046906 0.828156
vt 0.046906 0.843719
vt 0.046906 0.843719
vt 0.046906 0.828156
vt 0.062469 0.828156
vt 0.062469 0.843719
vt 0.052738 0.839842
vt 0.052738 0.838869
vt 0.054684 0.838869
vt 0.054684 0.839842
vt 0.053709 0.839827
vt 0.053709 0.831072
vt 0.052736 0.831072
vt 0.052736 0.839827
vt 0.054686 0.839836
vt 0.054686 0.835945
vt 0.053713 0.835945
vt 0.053713 0.839836
vt 0.051775 0.838865
vt 0.051775 0.837893
vt 0.060530 0.837893
vt 0.060530 0.838865
vt 0.052732 0.838863
vt 0.052732 0.836918
vt 0.051760 0.836918
vt 0.051760 0.838863
vt 0.055662 0.838846
vt 0.055662 0.828146
vt 0.054689 0.828146
vt 0.054689 0.838846
vt 0.060545 0.838865
vt 0.060545 0.837893
vt 0.059572 0.837893
vt 0.059572 0.838865
vt 0.060545 0.838861
vt 0.060545 0.835943
vt 0.059572 0.835943
vt 0.059572 0.838861
vt 0.051777 0.837889
vt 0.051777 0.836916
vt 0.061504 0.836916
vt 0.061504 0.837889
vt 0.058599 0.837889
vt 0.058599 0.836916
vt 0.061518 0.836916
vt 0.061518 0.837889
vt 0.059568 0.837887
vt 0.059568 0.835941
vt 0.058596 0.835941
vt 0.058596 0.837887
vt 0.061522 0.837889
vt 0.061522 0.836916
vt 0.060549 0.836916
vt 0.060549 0.837889
vt 0.052750 0.836912
vt 0.052750 0.835939
vt 0.060532 0.835939
vt 0.060532 0.836912
vt 0.054695 0.835936
vt 0.054695 0.834963
vt 0.058586 0.834963
vt 0.058586 0.835936
vt 0.055662 0.835922
vt 0.055662 0.828140
vt 0.054689 0.828140
vt 0.054689 0.835922
vt 0.057619 0.835936
vt 0.057619 0.834963
vt 0.058592 0.834963
vt 0.058592 0.835936
vt 0.058592 0.835936
vt 0.058592 0.834963
vt 0.057619 0.834963
vt 0.057619 0.835936
vt 0.058592 0.835936
vt 0.058592 0.834963
vt 0.057619 0.834963
vt 0.057619 0.835936
vt 0.049820 0.834959
vt 0.049820 0.833986
vt 0.057602 0.833986
vt 0.057602 0.834959
vt 0.050779 0.834955
vt 0.050779 0.832037
vt 0.049807 0.832037
vt 0.049807 0.834955
vt 0.051756 0.834959
vt 0.051756 0.833986
vt 0.050783 0.833986
vt 0.050783 0.834959
vt 0.057615 0.834959
vt 0.057615 0.833986
vt 0.056643 0.833986
vt 0.056643 0.834959
vt 0.057615 0.834957
vt 0.057615 0.833012
vt 0.056643 0.833012
vt 0.056643 0.834957
vt 0.048843 0.833982
vt 0.048843 0.833010
vt 0.056625 0.833010
vt 0.056625 0.833982
vt 0.048845 0.833982
vt 0.048845 0.833010
vt 0.057600 0.833010
vt 0.057600 0.833982
vt 0.049803 0.833982
vt 0.049803 0.833010
vt 0.048830 0.833010
vt 0.048830 0.833982
vt 0.052732 0.833982
vt 0.052732 0.833010
vt 0.051760 0.833010
vt 0.051760 0.833982
vt 0.054686 0.833977
vt 0.054686 0.830086
vt 0.053713 0.830086
vt 0.053713 0.833977
vt 0.049818 0.833006
vt 0.049818 0.832033
vt 0.056627 0.832033
vt 0.056627 0.833006
vt 0.050779 0.833006
vt 0.050779 0.832033
vt 0.049807 0.832033
vt 0.049807 0.833006
vt 0.052736 0.833006
vt 0.052736 0.832033
vt 0.053709 0.832033
vt 0.053709 0.833006
vt 0.053709 0.833006
vt 0.053709 0.832033
vt 0.052736 0.832033
vt 0.052736 0.833006
vt 0.056639 0.833000
vt 0.056639 0.829109
vt 0.055666 0.829109
vt 0.055666 0.833000
vt 0.052736 0.832029
vt 0.052736 0.831057
vt 0.053709 0.831057
vt 0.053709 0.832029
vt 0.053713 0.832029
vt 0.053713 0.831057
vt 0.054686 0.831057
vt 0.054686 0.832029
vt 0.053713 0.831053
vt 0.053713 0.830080
vt 0.054686 0.830080
vt 0.054686 0.831053
vt 0.055666 0.830076
vt 0.055666 0.829103
vt 0.056639 0.829103
vt 0.056639 0.830076
vt 0.055666 0.830076
vt 0.055666 0.829103
vt 0.056639 0.829103
vt 0.056639 0.830076
vt 0.054689 0.829100
vt 0.054689 0.828127
vt 0.055662 0.828127
vt 0.055662 0.829100
f 1/1/1 2/2/1 3/3/1 4/4/1
f 5/5/2 6/6/2 7/7/2 8/8/2
f 9/9/3 10/10/3 11/11/3 12/12/3
f 9/13/4 13/14/4 14/15/4 10/16/4
f 11/17/5 15/18/5 16/19/5 12/20/5
f 17/21/3 18/22/3 19/23/3 20/24/3
f 17/25/4 21/26/4 22/27/4 18/28/4
f 23/29/5 24/30/5 25/31/5 26/32/5
f 27/33/4 28/34/4 29/35/4 30/36/4
f 19/37/5 31/38/5 32/39/5 20/40/5
f 22/41/6 21/42/6 33/43/6 34/44/6
f 35/45/3 36/46/3 37/47/3 38/48/3
f 35/49/4 39/50/4 40/51/4 36/52/4
f 37/53/5 34/54/5 33/55/5 38/56/5
f 41/57/6 42/58/6 32/59/6 31/60/6
f 16/61/3 15/62/3 40/63/3 39/64/3
f 16/65/4 43/66/4 44/67/4 15/68/4
f 45/69/6 46/70/6 47/71/6 48/72/6
f 49/73/4 46/74/4 45/75/4 50/76/4
f 40/77/5 48/78/5 47/79/5 39/80/5
f 51/81/3 52/82/3 45/83/3 46/84/3
f 51/85/4 53/86/4 54/87/4 52/88/4
f 55/89/5 56/90/5 57/91/5 58/92/5
f 59/93/4 60/94/4 61/95/4 62/96/4
f 45/97/5 63/98/5 64/99/5 46/100/5
f 65/101/3 66/102/3 61/103/3 60/104/3
f 67/105/6 68/106/6 64/107/6 63/108/6
f 65/109/4 68/110/4 67/111/4 66/112/4
f 69/113/5 70/114/5 71/115/5 72/116/5
f 73/117/4 74/118/4 75/119/4 76/120/4
f 54/121/6 53/122/6 77/123/6 78/124/6
f 79/125/5 80/126/5 81/127/5 82/128/5
f 71/129/3 70/130/3 83/131/3 84/132/3
f 83/133/5 85/134/5 86/135/5 84/136/5
f 87/137/5 88/138/5 89/139/5 90/140/5
f 14/141/6 13/142/6 91/143/6 92/144/6
f 86/145/3 85/146/3 93/147/3 94/148/3
f 75/149/6 74/150/6 95/151/6 96/152/6
f 97/153/3 98/154/3 99/155/3 100/156/3
f 101/157/6 102/158/6 89/159/6 88/160/6
f 44/161/6 43/162/6 25/163/6 24/164/6
