v 1.000000 1.000000 0.468750
v 1.000000 0.000000 0.468750
v 0.000000 0.000000 0.468750
v 0.000000 1.000000 0.468750
v 0.000000 1.000000 0.531250
v 0.000000 0.000000 0.531250
v 1.000000 0.000000 0.531250
v 1.000000 1.000000 0.531250
v 0.500000 0.937500 0.468750
v 0.500000 0.937500 0.531250
v 0.687500 0.937500 0.531250
v 0.687500 0.937500 0.468750
v 0.500000 0.875000 0.468750
v 0.500000 0.875000 0.531250
v 0.687500 0.875000 0.531250
v 0.687500 0.875000 0.468750
v 0.375000 0.875000 0.468750
v 0.375000 0.875000 0.531250
v 0.750000 0.875000 0.531250
v 0.750000 0.875000 0.468750
v 0.375000 0.812500 0.468750
v 0.375000 0.812500 0.531250
v 0.750000 0.187500 0.531250
v 0.750000 0.187500 0.468750
v 0.250000 0.812500 0.468750
v 0.250000 0.812500 0.531250
v 0.812500 0.812500 0.531250
v 0.812500 0.812500 0.468750
v 0.250000 0.125000 0.468750
v 0.250000 0.125000 0.531250
v 0.812500 0.750000 0.531250
v 0.812500 0.750000 0.468750
v 0.125000 0.750000 0.468750
v 0.125000 0.750000 0.531250
v 0.875000 0.750000 0.531250
v 0.875000 0.750000 0.468750
v 0.125000 0.250000 0.468750
v 0.125000 0.250000 0.531250
v 0.875000 0.250000 0.531250
v 0.875000 0.250000 0.468750
v 0.000000 0.687500 0.468750
v 0.000000 0.687500 0.531250
v 0.937500 0.687500 0.531250
v 0.937500 0.687500 0.468750
v 0.000000 0.375000 0.468750
v 0.000000 0.375000 0.531250
v 0.937500 0.437500 0.531250
v 0.937500 0.437500 0.468750
v 0.937500 0.625000 0.468750
v 0.937500 0.625000 0.531250
v 1.000000 0.625000 0.531250
v 1.000000 0.625000 0.468750
v 0.937500 0.562500 0.531250
v 0.937500 0.562500 0.468750
v 1.000000 0.562500 0.468750
v 1.000000 0.562500 0.531250
v 1.000000 0.312500 0.531250
v 1.000000 0.312500 0.468750
v 0.062500 0.375000 0.468750
v 0.062500 0.375000 0.531250
v 1.000000 0.437500 0.531250
v 1.000000 0.437500 0.468750
v 0.062500 0.312500 0.531250
v 0.062500 0.312500 0.468750
v 0.187500 0.187500 0.531250
v 0.187500 0.187500 0.468750
v 0.187500 0.250000 0.468750
v 0.187500 0.250000 0.531250
v 0.625000 0.125000 0.468750
v 0.625000 0.125000 0.531250
v 0.625000 0.187500 0.531250
v 0.625000 0.187500 0.468750
v 0.312500 0.062500 0.531250
v 0.312500 0.062500 0.468750
v 0.500000 0.062500 0.468750
v 0.500000 0.062500 0.531250
v 0.312500 0.125000 0.468750
v 0.312500 0.125000 0.531250
v 0.500000 0.125000 0.531250
v 0.500000 0.125000 0.468750
vn 0.000000 0.000000 -1.000000
vn 0.000000 0.000000 1.000000
vn 0.000000 1.000000 0.000000
vn -1.000000 0.000000 0.000000
vn 1.000000 0.000000 0.000000
vn 0.000000 -1.000000 0.000000
vt 0.203094 0.578094
vt 0.203094 0.562531
vt 0.187531 0.562531
vt 0.187531 0.578094
vt 0.187531 0.578094
vt 0.187531 0.562531
vt 0.203094 0.562531
vt 0.203094 0.578094
vt 0.195318 0.577147
vt 0.195318 0.576174
vt 0.198236 0.576174
vt 0.198236 0.577147
vt 0.196287 0.577147
vt 0.196287 0.576174
vt 0.195314 0.576174
vt 0.195314 0.577147
vt 0.198240 0.577147
vt 0.198240 0.576174
vt 0.197268 0.576174
vt 0.197268 0.577147
vt 0.193371 0.576170
vt 0.193371 0.575197
vt 0.199207 0.575197
vt 0.199207 0.576170
vt 0.194334 0.576170
vt 0.194334 0.575197
vt 0.193361 0.575197
vt 0.193361 0.576170
vt 0.199217 0.576151
vt 0.199217 0.565451
vt 0.198244 0.565451
vt 0.198244 0.576151
vt 0.191423 0.575193
vt 0.191423 0.574221
vt 0.200178 0.574221
vt 0.200178 0.575193
vt 0.192381 0.575174
vt 0.192381 0.564474
vt 0.191408 0.564474
vt 0.191408 0.575174
vt 0.200193 0.575193
vt 0.200193 0.574221
vt 0.199221 0.574221
vt 0.199221 0.575193
vt 0.189476 0.574217
vt 0.189476 0.573244
vt 0.201149 0.573244
vt 0.201149 0.574217
vt 0.190428 0.574203
vt 0.190428 0.566422
vt 0.189455 0.566422
vt 0.189455 0.574203
vt 0.201170 0.574203
vt 0.201170 0.566422
vt 0.200197 0.566422
vt 0.200197 0.574203
vt 0.187529 0.573240
vt 0.187529 0.572268
vt 0.202120 0.572268
vt 0.202120 0.573240
vt 0.188475 0.573233
vt 0.188475 0.568369
vt 0.187502 0.568369
vt 0.187502 0.573233
vt 0.202147 0.573235
vt 0.202147 0.569344
vt 0.201174 0.569344
vt 0.201174 0.573235
vt 0.202150 0.572264
vt 0.202150 0.571291
vt 0.203123 0.571291
vt 0.203123 0.572264
vt 0.202150 0.572264
vt 0.202150 0.571291
vt 0.203123 0.571291
vt 0.203123 0.572264
vt 0.203123 0.572256
vt 0.203123 0.567392
vt 0.202150 0.567392
vt 0.202150 0.572256
vt 0.187502 0.569334
vt 0.187502 0.568361
vt 0.188475 0.568361
vt 0.188475 0.569334
vt 0.202150 0.569334
vt 0.202150 0.568361
vt 0.203123 0.568361
vt 0.203123 0.569334
vt 0.188505 0.568357
vt 0.188505 0.567385
vt 0.203096 0.567385
vt 0.203096 0.568357
vt 0.189451 0.568357
vt 0.189451 0.567385
vt 0.188478 0.567385
vt 0.188478 0.568357
vt 0.189476 0.567381
vt 0.189476 0.566408
vt 0.201149 0.566408
vt 0.201149 0.567381
vt 0.190447 0.566404
vt 0.190447 0.565432
vt 0.199202 0.565432
vt 0.199202 0.566404
vt 0.191404 0.566404
vt 0.191404 0.565432
vt 0.190432 0.565432
vt 0.190432 0.566404
vt 0.191418 0.565428
vt 0.191418 0.564455
vt 0.197254 0.564455
vt 0.197254 0.565428
vt 0.197264 0.565428
vt 0.197264 0.564455
vt 0.196291 0.564455
vt 0.196291 0.565428
vt 0.192389 0.564451
vt 0.192389 0.563478
vt 0.195307 0.563478
vt 0.195307 0.564451
vt 0.193357 0.564451
vt 0.193357 0.563478
vt 0.192385 0.563478
vt 0.192385 0.564451
vt 0.195311 0.564451
vt 0.195311 0.563478
vt 0.194338 0.563478
vt 0.194338 0.564451
f 1/1/1 2/2/1 3/3/1 4/4/1
f 5/5/2 6/6/2 7/7/2 8/8/2
f 9/9/3 10/10/3 11/11/3 12/12/3
f 9/13/4 13/14/4 14/15/4 10/16/4
f 11/17/5 15/18/5 16/19/5 12/20/5
f 17/21/3 18/22/3 19/23/3 20/24/3
f 17/25/4 21/26/4 22/27/4 18/28/4
f 19/29/5 23/30/5 24/31/5 20/32/5
f 25/33/3 26/34/3 27/35/3 28/36/3
f 25/37/4 29/38/4 30/39/4 26/40/4
f 27/41/5 31/42/5 32/43/5 28/44/5
f 33/45/3 34/46/3 35/47/3 36/48/3
f 33/49/4 37/50/4 38/51/4 34/52/4
f 35/53/5 39/54/5 40/55/5 36/56/5
f 41/57/3 42/58/3 43/59/3 44/60/3
f 41/61/4 45/62/4 46/63/4 42/64/4
f 43/65/5 47/66/5 48/67/5 44/68/5
f 49/69/3 50/70/3 51/71/3 52/72/3
f 53/73/6 54/74/6 55/75/6 56/76/6
f 51/77/5 57/78/5 58/79/5 52/80/5
f 46/81/6 45/82/6 59/83/6 60/84/6
f 48/85/3 47/86/3 61/87/3 62/88/3
f 63/89/6 64/90/6 58/91/6 57/92/6
f 59/93/4 64/94/4 63/95/4 60/96/4
f 38/97/6 37/98/6 40/99/6 39/100/6
f 65/101/6 66/102/6 24/103/6 23/104/6
f 67/105/4 66/106/4 65/107/4 68/108/4
f 30/109/6 29/110/6 69/111/6 70/112/6
f 71/113/5 70/114/5 69/115/5 72/116/5
f 73/117/6 74/118/6 75/119/6 76/120/6
f 77/121/4 74/122/4 73/123/4 78/124/4
f 79/125/5 76/126/5 75/127/5 80/128/5
