v 1.000000 1.000000 0.468750
v 1.000000 0.000000 0.468750
v 0.000000 0.000000 0.468750
v 0.000000 1.000000 0.468750
v 0.000000 1.000000 0.531250
v 0.000000 0.000000 0.531250
v 1.000000 0.000000 0.531250
v 1.000000 1.000000 0.531250
v 0.687500 0.937500 0.468750
v 0.687500 0.937500 0.531250
v 0.937500 0.937500 0.531250
v 0.937500 0.937500 0.468750
v 0.687500 0.562500 0.468750
v 0.687500 0.562500 0.531250
v 0.937500 0.750000 0.531250
v 0.937500 0.750000 0.468750
v 0.500000 0.875000 0.468750
v 0.500000 0.875000 0.531250
v 1.000000 0.875000 0.531250
v 1.000000 0.875000 0.468750
v 0.500000 0.375000 0.468750
v 0.500000 0.375000 0.531250
v 0.937500 0.812500 0.531250
v 0.937500 0.812500 0.468750
v 1.000000 0.812500 0.468750
v 1.000000 0.812500 0.531250
v 0.375000 0.812500 0.468750
v 0.375000 0.812500 0.531250
v 0.500000 0.812500 0.531250
v 0.500000 0.812500 0.468750
v 0.375000 0.250000 0.468750
v 0.375000 0.250000 0.531250
v 0.687500 0.750000 0.531250
v 0.687500 0.750000 0.468750
v 0.312500 0.750000 0.468750
v 0.312500 0.750000 0.531250
v 0.375000 0.750000 0.531250
v 0.375000 0.750000 0.468750
v 0.312500 0.187500 0.468750
v 0.312500 0.187500 0.531250
v 0.500000 0.687500 0.531250
v 0.500000 0.687500 0.468750
v 0.875000 0.687500 0.468750
v 0.875000 0.687500 0.531250
v 0.687500 0.500000 0.531250
v 0.687500 0.500000 0.468750
v 0.812500 0.750000 0.468750
v 0.812500 0.687500 0.468750
v 0.812500 0.687500 0.531250
v 0.812500 0.750000 0.531250
v 0.875000 0.750000 0.531250
v 0.875000 0.750000 0.468750
v 0.250000 0.687500 0.468750
v 0.250000 0.687500 0.531250
v 0.250000 0.625000 0.468750
v 0.250000 0.625000 0.531250
v 0.437500 0.625000 0.531250
v 0.437500 0.625000 0.468750
v 0.812500 0.625000 0.468750
v 0.812500 0.625000 0.531250
v 0.500000 0.312500 0.531250
v 0.500000 0.312500 0.468750
v 0.750000 0.687500 0.468750
v 0.750000 0.625000 0.468750
v 0.750000 0.625000 0.531250
v 0.750000 0.687500 0.531250
v 0.187500 0.625000 0.468750
v 0.187500 0.625000 0.531250
v 0.187500 0.500000 0.468750
v 0.187500 0.500000 0.531250
v 0.375000 0.562500 0.531250
v 0.375000 0.562500 0.468750
v 0.750000 0.562500 0.468750
v 0.750000 0.562500 0.531250
v 0.437500 0.250000 0.531250
v 0.437500 0.250000 0.468750
v 0.312500 0.500000 0.531250
v 0.312500 0.500000 0.468750
v 0.375000 0.187500 0.531250
v 0.375000 0.187500 0.468750
v 0.625000 0.562500 0.468750
v 0.625000 0.562500 0.531250
v 0.625000 0.500000 0.468750
v 0.625000 0.500000 0.531250
v 0.125000 0.500000 0.468750
v 0.125000 0.500000 0.531250
v 0.125000 0.000000 0.468750
v 0.125000 0.000000 0.531250
v 0.312500 0.125000 0.531250
v 0.312500 0.125000 0.468750
v 0.562500 0.437500 0.531250
v 0.562500 0.437500 0.468750
v 0.625000 0.437500 0.468750
v 0.625000 0.437500 0.531250
v 0.562500 0.500000 0.468750
v 0.562500 0.500000 0.531250
v 0.500000 0.437500 0.468750
v 0.500000 0.437500 0.531250
v 0.562500 0.375000 0.468750
v 0.562500 0.375000 0.531250
v 0.250000 0.312500 0.531250
v 0.250000 0.312500 0.468750
v 0.437500 0.375000 0.468750
v 0.437500 0.375000 0.531250
v 0.437500 0.312500 0.468750
v 0.437500 0.312500 0.531250
v 0.062500 0.312500 0.468750
v 0.062500 0.312500 0.531250
v 0.062500 0.062500 0.468750
v 0.062500 0.062500 0.531250
v 0.250000 0.062500 0.531250
v 0.250000 0.062500 0.468750
v 0.312500 0.250000 0.468750
v 0.312500 0.250000 0.531250
v 0.250000 0.187500 0.468750
v 0.250000 0.187500 0.531250
v 0.250000 0.125000 0.531250
v 0.250000 0.125000 0.468750
v 0.187500 0.000000 0.468750
v 0.187500 0.000000 0.531250
v 0.187500 0.062500 0.531250
v 0.187500 0.062500 0.468750
vn 0.000000 0.000000 -1.000000
vn 0.000000 0.000000 1.000000
vn 0.000000 1.000000 0.000000
vn -1.000000 0.000000 0.000000
vn 1.000000 0.000000 0.000000
vn 0.000000 -1.000000 0.000000
vt 0.218719 0.578094
vt 0.218719 0.562531
vt 0.203156 0.562531
vt 0.203156 0.578094
vt 0.203156 0.578094
vt 0.203156 0.562531
vt 0.218719 0.562531
vt 0.218719 0.578094
vt 0.213875 0.577147
vt 0.213875 0.576174
vt 0.217766 0.576174
vt 0.217766 0.577147
vt 0.214842 0.577137
vt 0.214842 0.571301
vt 0.213869 0.571301
vt 0.213869 0.577137
vt 0.217772 0.577143
vt 0.217772 0.574224
vt 0.216799 0.574224
vt 0.216799 0.577143
vt 0.210953 0.576170
vt 0.210953 0.575197
vt 0.218735 0.575197
vt 0.218735 0.576170
vt 0.211912 0.576157
vt 0.211912 0.568375
vt 0.210939 0.568375
vt 0.210939 0.576157
vt 0.217775 0.576170
vt 0.217775 0.575197
vt 0.218748 0.575197
vt 0.218748 0.576170
vt 0.218748 0.576170
vt 0.218748 0.575197
vt 0.217775 0.575197
vt 0.217775 0.576170
vt 0.208988 0.575193
vt 0.208988 0.574221
vt 0.210934 0.574221
vt 0.210934 0.575193
vt 0.209959 0.575178
vt 0.209959 0.566423
vt 0.208986 0.566423
vt 0.208986 0.575178
vt 0.213875 0.575193
vt 0.213875 0.574221
vt 0.217766 0.574221
vt 0.217766 0.575193
vt 0.208010 0.574217
vt 0.208010 0.573244
vt 0.208982 0.573244
vt 0.208982 0.574217
vt 0.208982 0.574202
vt 0.208982 0.565447
vt 0.208010 0.565447
vt 0.208010 0.574202
vt 0.210949 0.574217
vt 0.210949 0.573244
vt 0.216785 0.573244
vt 0.216785 0.574217
vt 0.213865 0.574211
vt 0.213865 0.570320
vt 0.212893 0.570320
vt 0.212893 0.574211
vt 0.216795 0.574217
vt 0.216795 0.573244
vt 0.215822 0.573244
vt 0.215822 0.574217
vt 0.216795 0.574217
vt 0.216795 0.573244
vt 0.215822 0.573244
vt 0.215822 0.574217
vt 0.207048 0.573240
vt 0.207048 0.572268
vt 0.215803 0.572268
vt 0.215803 0.573240
vt 0.208006 0.573240
vt 0.208006 0.572268
vt 0.207033 0.572268
vt 0.207033 0.573240
vt 0.209972 0.573240
vt 0.209972 0.572268
vt 0.215809 0.572268
vt 0.215809 0.573240
vt 0.210936 0.573231
vt 0.210936 0.567394
vt 0.209963 0.567394
vt 0.209963 0.573231
vt 0.215818 0.573240
vt 0.215818 0.572268
vt 0.214846 0.572268
vt 0.214846 0.573240
vt 0.215818 0.573240
vt 0.215818 0.572268
vt 0.214846 0.572268
vt 0.214846 0.573240
vt 0.206072 0.572264
vt 0.206072 0.571291
vt 0.214827 0.571291
vt 0.214827 0.572264
vt 0.207029 0.572262
vt 0.207029 0.570316
vt 0.206057 0.570316
vt 0.206057 0.572262
vt 0.208996 0.572264
vt 0.208996 0.571291
vt 0.214832 0.571291
vt 0.214832 0.572264
vt 0.209959 0.572254
vt 0.209959 0.566418
vt 0.208986 0.566418
vt 0.208986 0.572254
vt 0.214842 0.572264
vt 0.214842 0.571291
vt 0.213869 0.571291
vt 0.213869 0.572264
vt 0.208019 0.571287
vt 0.208019 0.570314
vt 0.213856 0.570314
vt 0.213856 0.571287
vt 0.208982 0.571278
vt 0.208982 0.565441
vt 0.208010 0.565441
vt 0.208010 0.571278
vt 0.212893 0.571287
vt 0.212893 0.570314
vt 0.213865 0.570314
vt 0.213865 0.571287
vt 0.213865 0.571287
vt 0.213865 0.570314
vt 0.212893 0.570314
vt 0.212893 0.571287
vt 0.205093 0.570311
vt 0.205093 0.569338
vt 0.212875 0.569338
vt 0.212875 0.570311
vt 0.206053 0.570297
vt 0.206053 0.562515
vt 0.205080 0.562515
vt 0.205080 0.570297
vt 0.208006 0.570301
vt 0.208006 0.564465
vt 0.207033 0.564465
vt 0.207033 0.570301
vt 0.211916 0.570311
vt 0.211916 0.569338
vt 0.212889 0.569338
vt 0.212889 0.570311
vt 0.212889 0.570311
vt 0.212889 0.569338
vt 0.211916 0.569338
vt 0.211916 0.570311
vt 0.212889 0.570311
vt 0.212889 0.569338
vt 0.211916 0.569338
vt 0.211916 0.570311
vt 0.210939 0.569334
vt 0.210939 0.568361
vt 0.211912 0.568361
vt 0.211912 0.569334
vt 0.210939 0.569334
vt 0.210939 0.568361
vt 0.211912 0.568361
vt 0.211912 0.569334
vt 0.211912 0.569334
vt 0.211912 0.568361
vt 0.210939 0.568361
vt 0.210939 0.569334
vt 0.207039 0.568357
vt 0.207039 0.567385
vt 0.210930 0.567385
vt 0.210930 0.568357
vt 0.209963 0.568357
vt 0.209963 0.567385
vt 0.210936 0.567385
vt 0.210936 0.568357
vt 0.210936 0.568357
vt 0.210936 0.567385
vt 0.209963 0.567385
vt 0.209963 0.568357
vt 0.204113 0.567381
vt 0.204113 0.566408
vt 0.209949 0.566408
vt 0.209949 0.567381
vt 0.205076 0.567375
vt 0.205076 0.563484
vt 0.204103 0.563484
vt 0.204103 0.567375
vt 0.207029 0.567375
vt 0.207029 0.563484
vt 0.206057 0.563484
vt 0.206057 0.567375
vt 0.208986 0.567381
vt 0.208986 0.566408
vt 0.209959 0.566408
vt 0.209959 0.567381
vt 0.208010 0.566404
vt 0.208010 0.565432
vt 0.208982 0.565432
vt 0.208982 0.566404
vt 0.208010 0.566404
vt 0.208010 0.565432
vt 0.208982 0.565432
vt 0.208982 0.566404
vt 0.207033 0.565428
vt 0.207033 0.564455
vt 0.208006 0.564455
vt 0.208006 0.565428
vt 0.207033 0.565428
vt 0.207033 0.564455
vt 0.208006 0.564455
vt 0.208006 0.565428
vt 0.204107 0.564451
vt 0.204107 0.563478
vt 0.207026 0.563478
vt 0.207026 0.564451
vt 0.205080 0.563475
vt 0.205080 0.562502
vt 0.206053 0.562502
vt 0.206053 0.563475
vt 0.206053 0.563475
vt 0.206053 0.562502
vt 0.205080 0.562502
vt 0.205080 0.563475
f 1/1/1 2/2/1 3/3/1 4/4/1
f 5/5/2 6/6/2 7/7/2 8/8/2
f 9/9/3 10/10/3 11/11/3 12/12/3
f 9/13/4 13/14/4 14/15/4 10/16/4
f 11/17/5 15/18/5 16/19/5 12/20/5
f 17/21/3 18/22/3 19/23/3 20/24/3
f 17/25/4 21/26/4 22/27/4 18/28/4
f 23/29/6 24/30/6 25/31/6 26/32/6
f 19/33/5 26/34/5 25/35/5 20/36/5
f 27/37/3 28/38/3 29/39/3 30/40/3
f 27/41/4 31/42/4 32/43/4 28/44/4
f 33/45/6 34/46/6 16/47/6 15/48/6
f 35/49/3 36/50/3 37/51/3 38/52/3
f 35/53/4 39/54/4 40/55/4 36/56/4
f 41/57/6 42/58/6 43/59/6 44/60/6
f 33/61/5 45/62/5 46/63/5 34/64/5
f 47/65/4 48/66/4 49/67/4 50/68/4
f 51/69/5 44/70/5 43/71/5 52/72/5
f 53/73/3 54/74/3 49/75/3 48/76/3
f 53/77/4 55/78/4 56/79/4 54/80/4
f 57/81/6 58/82/6 59/83/6 60/84/6
f 41/85/5 61/86/5 62/87/5 42/88/5
f 63/89/4 64/90/4 65/91/4 66/92/4
f 49/93/5 60/94/5 59/95/5 48/96/5
f 67/97/3 68/98/3 65/99/3 64/100/3
f 67/101/4 69/102/4 70/103/4 68/104/4
f 71/105/6 72/106/6 73/107/6 74/108/6
f 57/109/5 75/110/5 76/111/5 58/112/5
f 65/113/5 74/114/5 73/115/5 64/116/5
f 77/117/6 78/118/6 46/119/6 45/120/6
f 71/121/5 79/122/5 80/123/5 72/124/5
f 81/125/3 82/126/3 14/127/3 13/128/3
f 81/129/4 83/130/4 84/131/4 82/132/4
f 85/133/3 86/134/3 84/135/3 83/136/3
f 85/137/4 87/138/4 88/139/4 86/140/4
f 77/141/5 89/142/5 90/143/5 78/144/5
f 91/145/6 92/146/6 93/147/6 94/148/6
f 95/149/4 92/150/4 91/151/4 96/152/4
f 84/153/5 94/154/5 93/155/5 83/156/5
f 97/157/3 98/158/3 91/159/3 92/160/3
f 22/161/6 21/162/6 99/163/6 100/164/6
f 91/165/5 100/166/5 99/167/5 92/168/5
f 101/169/6 102/170/6 62/171/6 61/172/6
f 103/173/3 104/174/3 22/175/3 21/176/3
f 103/177/4 105/178/4 106/179/4 104/180/4
f 107/181/3 108/182/3 106/183/3 105/184/3
f 107/185/4 109/186/4 110/187/4 108/188/4
f 101/189/5 111/190/5 112/191/5 102/192/5
f 32/193/6 31/194/6 76/195/6 75/196/6
f 113/197/3 114/198/3 32/199/3 31/200/3
f 40/201/6 39/202/6 80/203/6 79/204/6
f 115/205/3 116/206/3 40/207/3 39/208/3
f 117/209/6 118/210/6 90/211/6 89/212/6
f 110/213/6 109/214/6 112/215/6 111/216/6
f 88/217/6 87/218/6 119/219/6 120/220/6
f 121/221/5 120/222/5 119/223/5 122/224/5
