v 1.000000 1.000000 0.468750
v 1.000000 0.000000 0.468750
v 0.000000 0.000000 0.468750
v 0.000000 1.000000 0.468750
v 0.000000 1.000000 0.531250
v 0.000000 0.000000 0.531250
v 1.000000 0.000000 0.531250
v 1.000000 1.000000 0.531250
vn 0.000000 0.000000 -1.000000
vn 0.000000 0.000000 1.000000
vn 0.000000 1.000000 0.000000
vn -1.000000 0.000000 0.000000
vn 1.000000 0.000000 0.000000
vn 0.000000 -1.000000 0.000000
vt 0.140594 0.828094
vt 0.140594 0.812531
vt 0.125031 0.812531
vt 0.125031 0.828094
vt 0.125031 0.828094
vt 0.125031 0.812531
vt 0.140594 0.812531
vt 0.140594 0.828094
vt 0.125031 0.828123
vt 0.125031 0.827150
vt 0.140594 0.827150
vt 0.140594 0.828123
vt 0.125975 0.828094
vt 0.125975 0.812531
vt 0.125002 0.812531
vt 0.125002 0.828094
vt 0.140623 0.828094
vt 0.140623 0.812531
vt 0.139650 0.812531
vt 0.139650 0.828094
vt 0.125031 0.813475
vt 0.125031 0.812502
vt 0.140594 0.812502
vt 0.140594 0.813475
f 1/1/1 2/2/1 3/3/1 4/4/1
f 5/5/2 6/6/2 7/7/2 8/8/2
f 4/9/3 5/10/3 8/11/3 1/12/3
f 4/13/4 3/14/4 6/15/4 5/16/4
f 8/17/5 7/18/5 2/19/5 1/20/5
f 6/21/6 3/22/6 2/23/6 7/24/6
