v 1.000000 1.000000 0.468750
v 1.000000 0.000000 0.468750
v 0.000000 0.000000 0.468750
v 0.000000 1.000000 0.468750
v 0.000000 1.000000 0.531250
v 0.000000 0.000000 0.531250
v 1.000000 0.000000 0.531250
v 1.000000 1.000000 0.531250
v 0.375000 0.500000 0.468750
v 0.375000 0.500000 0.531250
v 0.625000 0.500000 0.531250
v 0.625000 0.500000 0.468750
v 0.375000 0.437500 0.468750
v 0.375000 0.437500 0.531250
v 0.625000 0.437500 0.531250
v 0.625000 0.437500 0.468750
v 0.312500 0.437500 0.468750
v 0.312500 0.437500 0.531250
v 0.687500 0.437500 0.531250
v 0.687500 0.437500 0.468750
v 0.312500 0.375000 0.468750
v 0.312500 0.375000 0.531250
v 0.687500 0.375000 0.531250
v 0.687500 0.375000 0.468750
v 0.250000 0.375000 0.468750
v 0.250000 0.375000 0.531250
v 0.750000 0.375000 0.531250
v 0.750000 0.375000 0.468750
v 0.250000 0.250000 0.468750
v 0.250000 0.250000 0.531250
v 0.750000 0.250000 0.531250
v 0.750000 0.250000 0.468750
v 0.437500 0.250000 0.468750
v 0.437500 0.000000 0.468750
v 0.437500 0.000000 0.531250
v 0.437500 0.250000 0.531250
v 0.562500 0.250000 0.531250
v 0.562500 0.000000 0.531250
v 0.562500 0.000000 0.468750
v 0.562500 0.250000 0.468750
vn 0.000000 0.000000 -1.000000
vn 0.000000 0.000000 1.000000
vn 0.000000 1.000000 0.000000
vn -1.000000 0.000000 0.000000
vn 1.000000 0.000000 0.000000
vn 0.000000 -1.000000 0.000000
vt 0.093719 0.828094
vt 0.093719 0.812531
vt 0.078156 0.812531
vt 0.078156 0.828094
vt 0.078156 0.828094
vt 0.078156 0.812531
vt 0.093719 0.812531
vt 0.093719 0.828094
vt 0.083992 0.820311
vt 0.083992 0.819338
vt 0.087883 0.819338
vt 0.087883 0.820311
vt 0.084959 0.820311
vt 0.084959 0.819338
vt 0.083986 0.819338
vt 0.083986 0.820311
vt 0.087889 0.820311
vt 0.087889 0.819338
vt 0.086916 0.819338
vt 0.086916 0.820311
vt 0.083019 0.819334
vt 0.083019 0.818361
vt 0.088856 0.818361
vt 0.088856 0.819334
vt 0.083982 0.819334
vt 0.083982 0.818361
vt 0.083010 0.818361
vt 0.083010 0.819334
vt 0.088865 0.819334
vt 0.088865 0.818361
vt 0.087893 0.818361
vt 0.087893 0.819334
vt 0.082047 0.818357
vt 0.082047 0.817385
vt 0.089828 0.817385
vt 0.089828 0.818357
vt 0.083006 0.818356
vt 0.083006 0.816410
vt 0.082033 0.816410
vt 0.082033 0.818356
vt 0.089842 0.818356
vt 0.089842 0.816410
vt 0.088869 0.816410
vt 0.088869 0.818356
vt 0.082047 0.817381
vt 0.082047 0.816408
vt 0.089828 0.816408
vt 0.089828 0.817381
vt 0.085936 0.816399
vt 0.085936 0.812508
vt 0.084963 0.812508
vt 0.084963 0.816399
vt 0.086912 0.816399
vt 0.086912 0.812508
vt 0.085939 0.812508
vt 0.085939 0.816399
vt 0.084965 0.813475
vt 0.084965 0.812502
vt 0.086910 0.812502
vt 0.086910 0.813475
f 1/1/1 2/2/1 3/3/1 4/4/1
f 5/5/2 6/6/2 7/7/2 8/8/2
f 9/9/3 10/10/3 11/11/3 12/12/3
f 9/13/4 13/14/4 14/15/4 10/16/4
f 11/17/5 15/18/5 16/19/5 12/20/5
f 17/21/3 18/22/3 19/23/3 20/24/3
f 17/25/4 21/26/4 22/27/4 18/28/4
f 19/29/5 23/30/5 24/31/5 20/32/5
f 25/33/3 26/34/3 27/35/3 28/36/3
f 25/37/4 29/38/4 30/39/4 26/40/4
f 27/41/5 31/42/5 32/43/5 28/44/5
f 30/45/6 29/46/6 32/47/6 31/48/6
f 33/49/4 34/50/4 35/51/4 36/52/4
f 37/53/5 38/54/5 39/55/5 40/56/5
f 35/57/6 34/58/6 39/59/6 38/60/6
