v 1.000000 1.000000 0.468750
v 1.000000 0.000000 0.468750
v 0.000000 0.000000 0.468750
v 0.000000 1.000000 0.468750
v 0.000000 1.000000 0.531250
v 0.000000 0.000000 0.531250
v 1.000000 0.000000 0.531250
v 1.000000 1.000000 0.531250
v 0.187500 0.750000 0.468750
v 0.187500 0.750000 0.531250
v 0.375000 0.750000 0.531250
v 0.375000 0.750000 0.468750
v 0.187500 0.312500 0.468750
v 0.187500 0.312500 0.531250
v 0.375000 0.000000 0.531250
v 0.375000 0.000000 0.468750
v 0.187500 0.625000 0.531250
v 0.187500 0.625000 0.468750
v 0.250000 0.625000 0.468750
v 0.250000 0.625000 0.531250
v 0.437500 0.687500 0.468750
v 0.437500 0.687500 0.531250
v 0.625000 0.687500 0.531250
v 0.625000 0.687500 0.468750
v 0.437500 0.000000 0.468750
v 0.437500 0.000000 0.531250
v 0.625000 0.562500 0.531250
v 0.625000 0.562500 0.468750
v 0.250000 0.562500 0.531250
v 0.250000 0.562500 0.468750
v 0.312500 0.562500 0.468750
v 0.312500 0.562500 0.531250
v 0.375000 0.625000 0.468750
v 0.375000 0.625000 0.531250
v 0.875000 0.625000 0.531250
v 0.875000 0.625000 0.468750
v 0.750000 0.625000 0.468750
v 0.750000 0.500000 0.468750
v 0.750000 0.500000 0.531250
v 0.750000 0.625000 0.531250
v 0.875000 0.000000 0.531250
v 0.875000 0.000000 0.468750
v 0.062500 0.562500 0.468750
v 0.062500 0.562500 0.531250
v 0.937500 0.562500 0.531250
v 0.937500 0.562500 0.468750
v 0.062500 0.062500 0.468750
v 0.062500 0.062500 0.531250
v 0.250000 0.500000 0.531250
v 0.250000 0.500000 0.468750
v 0.312500 0.500000 0.468750
v 0.312500 0.500000 0.531250
v 0.687500 0.562500 0.531250
v 0.687500 0.500000 0.531250
v 0.687500 0.500000 0.468750
v 0.687500 0.562500 0.468750
v 0.937500 0.062500 0.531250
v 0.937500 0.062500 0.468750
v 0.062500 0.437500 0.531250
v 0.062500 0.437500 0.468750
v 0.937500 0.437500 0.468750
v 0.937500 0.437500 0.531250
v 0.125000 0.375000 0.531250
v 0.125000 0.375000 0.468750
v 0.875000 0.375000 0.468750
v 0.875000 0.375000 0.531250
v 0.125000 0.437500 0.468750
v 0.125000 0.000000 0.468750
v 0.125000 0.000000 0.531250
v 0.125000 0.437500 0.531250
v 0.812500 0.375000 0.531250
v 0.812500 0.250000 0.531250
v 0.812500 0.250000 0.468750
v 0.812500 0.375000 0.468750
v 0.000000 0.312500 0.468750
v 0.000000 0.312500 0.531250
v 1.000000 0.312500 0.531250
v 1.000000 0.312500 0.468750
v 0.000000 0.187500 0.468750
v 0.000000 0.187500 0.531250
v 0.875000 0.312500 0.468750
v 0.875000 0.250000 0.468750
v 0.875000 0.250000 0.531250
v 0.875000 0.312500 0.531250
v 1.000000 0.187500 0.531250
v 1.000000 0.187500 0.468750
v 0.062500 0.125000 0.468750
v 0.062500 0.125000 0.531250
v 0.125000 0.125000 0.531250
v 0.125000 0.125000 0.468750
v 0.562500 0.062500 0.531250
v 0.562500 0.000000 0.531250
v 0.562500 0.000000 0.468750
v 0.562500 0.062500 0.468750
v 0.625000 0.062500 0.468750
v 0.625000 0.000000 0.468750
v 0.625000 0.000000 0.531250
v 0.625000 0.062500 0.531250
vn 0.000000 0.000000 -1.000000
vn 0.000000 0.000000 1.000000
vn 0.000000 1.000000 0.000000
vn -1.000000 0.000000 0.000000
vn 1.000000 0.000000 0.000000
vn 0.000000 -1.000000 0.000000
vt 0.203094 0.828094
vt 0.203094 0.812531
vt 0.187531 0.812531
vt 0.187531 0.828094
vt 0.187531 0.828094
vt 0.187531 0.812531
vt 0.203094 0.812531
vt 0.203094 0.828094
vt 0.190435 0.824217
vt 0.190435 0.823244
vt 0.193354 0.823244
vt 0.193354 0.824217
vt 0.191404 0.824205
vt 0.191404 0.817396
vt 0.190432 0.817396
vt 0.190432 0.824205
vt 0.193357 0.824196
vt 0.193357 0.812523
vt 0.192385 0.812523
vt 0.192385 0.824196
vt 0.190432 0.823240
vt 0.190432 0.822268
vt 0.191404 0.822268
vt 0.191404 0.823240
vt 0.194342 0.823240
vt 0.194342 0.822268
vt 0.197260 0.822268
vt 0.197260 0.823240
vt 0.195311 0.823221
vt 0.195311 0.812521
vt 0.194338 0.812521
vt 0.194338 0.823221
vt 0.197264 0.823238
vt 0.197264 0.821293
vt 0.196291 0.821293
vt 0.196291 0.823238
vt 0.191408 0.822264
vt 0.191408 0.821291
vt 0.192381 0.821291
vt 0.192381 0.822264
vt 0.192381 0.822264
vt 0.192381 0.821291
vt 0.191408 0.821291
vt 0.191408 0.822264
vt 0.193375 0.822264
vt 0.193375 0.821291
vt 0.201157 0.821291
vt 0.201157 0.822264
vt 0.200193 0.822262
vt 0.200193 0.820316
vt 0.199221 0.820316
vt 0.199221 0.822262
vt 0.201170 0.822247
vt 0.201170 0.812519
vt 0.200197 0.812519
vt 0.200197 0.822247
vt 0.188503 0.821287
vt 0.188503 0.820314
vt 0.202122 0.820314
vt 0.202122 0.821287
vt 0.189451 0.821274
vt 0.189451 0.813492
vt 0.188478 0.813492
vt 0.188478 0.821274
vt 0.191404 0.821287
vt 0.191404 0.820314
vt 0.190432 0.820314
vt 0.190432 0.821287
vt 0.193357 0.821287
vt 0.193357 0.820314
vt 0.192385 0.820314
vt 0.192385 0.821287
vt 0.198240 0.821287
vt 0.198240 0.820314
vt 0.197268 0.820314
vt 0.197268 0.821287
vt 0.202147 0.821274
vt 0.202147 0.813492
vt 0.201174 0.813492
vt 0.201174 0.821274
vt 0.188503 0.820311
vt 0.188503 0.819338
vt 0.202122 0.819338
vt 0.202122 0.820311
vt 0.191422 0.820311
vt 0.191422 0.819338
vt 0.199203 0.819338
vt 0.199203 0.820311
vt 0.189476 0.819334
vt 0.189476 0.818361
vt 0.201149 0.818361
vt 0.201149 0.819334
vt 0.190428 0.819323
vt 0.190428 0.812513
vt 0.189455 0.812513
vt 0.189455 0.819323
vt 0.200193 0.818356
vt 0.200193 0.816410
vt 0.199221 0.816410
vt 0.199221 0.818356
vt 0.187531 0.817381
vt 0.187531 0.816408
vt 0.203094 0.816408
vt 0.203094 0.817381
vt 0.188475 0.817379
vt 0.188475 0.815434
vt 0.187502 0.815434
vt 0.187502 0.817379
vt 0.202147 0.817381
vt 0.202147 0.816408
vt 0.201174 0.816408
vt 0.201174 0.817381
vt 0.203123 0.817379
vt 0.203123 0.815434
vt 0.202150 0.815434
vt 0.202150 0.817379
vt 0.187531 0.816404
vt 0.187531 0.815432
vt 0.203094 0.815432
vt 0.203094 0.816404
vt 0.200197 0.816404
vt 0.200197 0.815432
vt 0.201170 0.815432
vt 0.201170 0.816404
vt 0.188478 0.814451
vt 0.188478 0.813478
vt 0.189451 0.813478
vt 0.189451 0.814451
vt 0.188503 0.814451
vt 0.188503 0.813478
vt 0.202122 0.813478
vt 0.202122 0.814451
vt 0.189476 0.813475
vt 0.189476 0.812502
vt 0.201149 0.812502
vt 0.201149 0.813475
vt 0.196287 0.813475
vt 0.196287 0.812502
vt 0.195314 0.812502
vt 0.195314 0.813475
vt 0.198240 0.813475
vt 0.198240 0.812502
vt 0.197268 0.812502
vt 0.197268 0.813475
f 1/1/1 2/2/1 3/3/1 4/4/1
f 5/5/2 6/6/2 7/7/2 8/8/2
f 9/9/3 10/10/3 11/11/3 12/12/3
f 9/13/4 13/14/4 14/15/4 10/16/4
f 11/17/5 15/18/5 16/19/5 12/20/5
f 17/21/6 18/22/6 19/23/6 20/24/6
f 21/25/3 22/26/3 23/27/3 24/28/3
f 21/29/4 25/30/4 26/31/4 22/32/4
f 23/33/5 27/34/5 28/35/5 24/36/5
f 29/37/6 30/38/6 31/39/6 32/40/6
f 19/41/4 30/42/4 29/43/4 20/44/4
f 33/45/3 34/46/3 35/47/3 36/48/3
f 37/49/4 38/50/4 39/51/4 40/52/4
f 35/53/5 41/54/5 42/55/5 36/56/5
f 43/57/3 44/58/3 45/59/3 46/60/3
f 43/61/4 47/62/4 48/63/4 44/64/4
f 29/65/5 49/66/5 50/67/5 30/68/5
f 31/69/4 51/70/4 52/71/4 32/72/4
f 53/73/5 54/74/5 55/75/5 56/76/5
f 45/77/5 57/78/5 58/79/5 46/80/5
f 59/81/6 60/82/6 61/83/6 62/84/6
f 50/85/3 49/86/3 39/87/3 38/88/3
f 63/89/6 64/90/6 65/91/6 66/92/6
f 67/93/4 68/94/4 69/95/4 70/96/4
f 71/97/5 72/98/5 73/99/5 74/100/5
f 75/101/3 76/102/3 77/103/3 78/104/3
f 75/105/4 79/106/4 80/107/4 76/108/4
f 81/109/4 82/110/4 83/111/4 84/112/4
f 77/113/5 85/114/5 86/115/5 78/116/5
f 80/117/6 79/118/6 86/119/6 85/120/6
f 73/121/3 72/122/3 83/123/3 82/124/3
f 87/125/3 88/126/3 89/127/3 90/128/3
f 48/129/6 47/130/6 58/131/6 57/132/6
f 69/133/6 68/134/6 42/135/6 41/136/6
f 91/137/5 92/138/5 93/139/5 94/140/5
f 95/141/4 96/142/4 97/143/4 98/144/4
