v 1.000000 1.000000 0.468750
v 1.000000 0.000000 0.468750
v 0.000000 0.000000 0.468750
v 0.000000 1.000000 0.468750
v 0.000000 1.000000 0.531250
v 0.000000 0.000000 0.531250
v 1.000000 0.000000 0.531250
v 1.000000 1.000000 0.531250
v 0.250000 0.812500 0.468750
v 0.250000 0.812500 0.531250
v 0.750000 0.812500 0.531250
v 0.750000 0.812500 0.468750
v 0.250000 0.750000 0.468750
v 0.250000 0.750000 0.531250
v 0.437500 0.812500 0.531250
v 0.437500 0.250000 0.531250
v 0.437500 0.250000 0.468750
v 0.437500 0.812500 0.468750
v 0.562500 0.812500 0.468750
v 0.562500 0.250000 0.468750
v 0.562500 0.250000 0.531250
v 0.562500 0.812500 0.531250
v 0.750000 0.750000 0.531250
v 0.750000 0.750000 0.468750
v 0.187500 0.750000 0.468750
v 0.187500 0.750000 0.531250
v 0.812500 0.750000 0.531250
v 0.812500 0.750000 0.468750
v 0.187500 0.437500 0.468750
v 0.187500 0.437500 0.531250
v 0.812500 0.437500 0.531250
v 0.812500 0.437500 0.468750
v 0.125000 0.437500 0.468750
v 0.125000 0.437500 0.531250
v 0.875000 0.437500 0.531250
v 0.875000 0.437500 0.468750
v 0.125000 0.375000 0.468750
v 0.125000 0.375000 0.531250
v 0.875000 0.375000 0.531250
v 0.875000 0.375000 0.468750
v 0.062500 0.375000 0.468750
v 0.062500 0.375000 0.531250
v 0.937500 0.375000 0.531250
v 0.937500 0.375000 0.468750
v 0.062500 0.187500 0.468750
v 0.062500 0.187500 0.531250
v 0.937500 0.187500 0.531250
v 0.937500 0.187500 0.468750
v 0.312500 0.250000 0.531250
v 0.312500 0.250000 0.468750
v 0.687500 0.250000 0.468750
v 0.687500 0.250000 0.531250
v 0.312500 0.187500 0.531250
v 0.312500 0.187500 0.468750
v 0.687500 0.187500 0.468750
v 0.687500 0.187500 0.531250
vn 0.000000 0.000000 -1.000000
vn 0.000000 0.000000 1.000000
vn 0.000000 1.000000 0.000000
vn -1.000000 0.000000 0.000000
vn 1.000000 0.000000 0.000000
vn 0.000000 -1.000000 0.000000
vt 0.031219 0.562469
vt 0.031219 0.546906
vt 0.015656 0.546906
vt 0.015656 0.562469
vt 0.015656 0.562469
vt 0.015656 0.546906
vt 0.031219 0.546906
vt 0.031219 0.562469
vt 0.019547 0.559568
vt 0.019547 0.558596
vt 0.027328 0.558596
vt 0.027328 0.559568
vt 0.020506 0.559568
vt 0.020506 0.558596
vt 0.019533 0.558596
vt 0.019533 0.559568
vt 0.022459 0.559553
vt 0.022459 0.550798
vt 0.021486 0.550798
vt 0.021486 0.559553
vt 0.025389 0.559553
vt 0.025389 0.550798
vt 0.024416 0.550798
vt 0.024416 0.559553
vt 0.027342 0.559568
vt 0.027342 0.558596
vt 0.026369 0.558596
vt 0.026369 0.559568
vt 0.018574 0.558592
vt 0.018574 0.557619
vt 0.028301 0.557619
vt 0.028301 0.558592
vt 0.019529 0.558584
vt 0.019529 0.553720
vt 0.018557 0.553720
vt 0.018557 0.558584
vt 0.028318 0.558584
vt 0.028318 0.553720
vt 0.027346 0.553720
vt 0.027346 0.558584
vt 0.017601 0.553709
vt 0.017601 0.552736
vt 0.029274 0.552736
vt 0.029274 0.553709
vt 0.018553 0.553709
vt 0.018553 0.552736
vt 0.017580 0.552736
vt 0.017580 0.553709
vt 0.029295 0.553709
vt 0.029295 0.552736
vt 0.028322 0.552736
vt 0.028322 0.553709
vt 0.016628 0.552732
vt 0.016628 0.551760
vt 0.030247 0.551760
vt 0.030247 0.552732
vt 0.017576 0.552729
vt 0.017576 0.549810
vt 0.016603 0.549810
vt 0.016603 0.552729
vt 0.030272 0.552729
vt 0.030272 0.549810
vt 0.029299 0.549810
vt 0.029299 0.552729
vt 0.020519 0.551756
vt 0.020519 0.550783
vt 0.026356 0.550783
vt 0.026356 0.551756
vt 0.016628 0.550779
vt 0.016628 0.549807
vt 0.030247 0.549807
vt 0.030247 0.550779
vt 0.020506 0.550779
vt 0.020506 0.549807
vt 0.019533 0.549807
vt 0.019533 0.550779
vt 0.027342 0.550779
vt 0.027342 0.549807
vt 0.026369 0.549807
vt 0.026369 0.550779
f 1/1/1 2/2/1 3/3/1 4/4/1
f 5/5/2 6/6/2 7/7/2 8/8/2
f 9/9/3 10/10/3 11/11/3 12/12/3
f 9/13/4 13/14/4 14/15/4 10/16/4
f 15/17/5 16/18/5 17/19/5 18/20/5
f 19/21/4 20/22/4 21/23/4 22/24/4
f 11/25/5 23/26/5 24/27/5 12/28/5
f 25/29/3 26/30/3 27/31/3 28/32/3
f 25/33/4 29/34/4 30/35/4 26/36/4
f 27/37/5 31/38/5 32/39/5 28/40/5
f 33/41/3 34/42/3 35/43/3 36/44/3
f 33/45/4 37/46/4 38/47/4 34/48/4
f 35/49/5 39/50/5 40/51/5 36/52/5
f 41/53/3 42/54/3 43/55/3 44/56/3
f 41/57/4 45/58/4 46/59/4 42/60/4
f 43/61/5 47/62/5 48/63/5 44/64/5
f 49/65/6 50/66/6 51/67/6 52/68/6
f 46/69/6 45/70/6 48/71/6 47/72/6
f 49/73/5 53/74/5 54/75/5 50/76/5
f 51/77/4 55/78/4 56/79/4 52/80/4
