v 1.000000 1.000000 0.468750
v 1.000000 0.000000 0.468750
v 0.000000 0.000000 0.468750
v 0.000000 1.000000 0.468750
v 0.000000 1.000000 0.531250
v 0.000000 0.000000 0.531250
v 1.000000 0.000000 0.531250
v 1.000000 1.000000 0.531250
v 0.062500 0.875000 0.468750
v 0.062500 0.875000 0.531250
v 0.937500 0.875000 0.531250
v 0.937500 0.875000 0.468750
v 0.062500 0.500000 0.468750
v 0.062500 0.500000 0.531250
v 0.375000 0.875000 0.531250
v 0.375000 0.750000 0.531250
v 0.375000 0.750000 0.468750
v 0.375000 0.875000 0.468750
v 0.625000 0.875000 0.468750
v 0.625000 0.750000 0.468750
v 0.625000 0.750000 0.531250
v 0.625000 0.875000 0.531250
v 0.937500 0.500000 0.531250
v 0.937500 0.500000 0.468750
v 0.437500 0.750000 0.531250
v 0.437500 0.687500 0.531250
v 0.437500 0.687500 0.468750
v 0.437500 0.750000 0.468750
v 0.562500 0.750000 0.468750
v 0.562500 0.687500 0.468750
v 0.562500 0.687500 0.531250
v 0.562500 0.750000 0.531250
v 0.187500 0.500000 0.468750
v 0.187500 0.187500 0.468750
v 0.187500 0.187500 0.531250
v 0.187500 0.500000 0.531250
v 0.812500 0.500000 0.531250
v 0.812500 0.187500 0.531250
v 0.812500 0.187500 0.468750
v 0.812500 0.500000 0.468750
v 0.250000 0.125000 0.531250
v 0.250000 0.125000 0.468750
v 0.750000 0.125000 0.468750
v 0.750000 0.125000 0.531250
v 0.250000 0.187500 0.468750
v 0.250000 0.187500 0.531250
v 0.750000 0.187500 0.531250
v 0.750000 0.187500 0.468750
v 0.312500 0.062500 0.531250
v 0.312500 0.062500 0.468750
v 0.687500 0.062500 0.468750
v 0.687500 0.062500 0.531250
v 0.312500 0.125000 0.468750
v 0.312500 0.125000 0.531250
v 0.687500 0.125000 0.531250
v 0.687500 0.125000 0.468750
vn 0.000000 0.000000 -1.000000
vn 0.000000 0.000000 1.000000
vn 0.000000 1.000000 0.000000
vn -1.000000 0.000000 0.000000
vn 1.000000 0.000000 0.000000
vn 0.000000 -1.000000 0.000000
vt 0.046844 0.562469
vt 0.046844 0.546906
vt 0.031281 0.546906
vt 0.031281 0.562469
vt 0.031281 0.562469
vt 0.031281 0.546906
vt 0.046844 0.546906
vt 0.046844 0.562469
vt 0.032253 0.560545
vt 0.032253 0.559572
vt 0.045872 0.559572
vt 0.045872 0.560545
vt 0.033201 0.560535
vt 0.033201 0.554699
vt 0.032228 0.554699
vt 0.032228 0.560535
vt 0.037107 0.560543
vt 0.037107 0.558598
vt 0.036135 0.558598
vt 0.036135 0.560543
vt 0.041990 0.560543
vt 0.041990 0.558598
vt 0.041018 0.558598
vt 0.041018 0.560543
vt 0.045897 0.560535
vt 0.045897 0.554699
vt 0.044924 0.554699
vt 0.044924 0.560535
vt 0.037117 0.558592
vt 0.037117 0.557619
vt 0.041008 0.557619
vt 0.041008 0.558592
vt 0.038084 0.558592
vt 0.038084 0.557619
vt 0.037111 0.557619
vt 0.037111 0.558592
vt 0.041014 0.558592
vt 0.041014 0.557619
vt 0.040041 0.557619
vt 0.040041 0.558592
vt 0.038090 0.557615
vt 0.038090 0.556643
vt 0.040035 0.556643
vt 0.040035 0.557615
vt 0.032253 0.555662
vt 0.032253 0.554689
vt 0.045872 0.554689
vt 0.045872 0.555662
vt 0.035154 0.554678
vt 0.035154 0.549814
vt 0.034182 0.549814
vt 0.034182 0.554678
vt 0.043943 0.554678
vt 0.043943 0.549814
vt 0.042971 0.549814
vt 0.042971 0.554678
vt 0.034199 0.550779
vt 0.034199 0.549807
vt 0.043926 0.549807
vt 0.043926 0.550779
vt 0.035172 0.549803
vt 0.035172 0.548830
vt 0.042953 0.548830
vt 0.042953 0.549803
vt 0.036131 0.549803
vt 0.036131 0.548830
vt 0.035158 0.548830
vt 0.035158 0.549803
vt 0.042967 0.549803
vt 0.042967 0.548830
vt 0.041994 0.548830
vt 0.041994 0.549803
vt 0.036144 0.548826
vt 0.036144 0.547853
vt 0.041981 0.547853
vt 0.041981 0.548826
vt 0.037107 0.548826
vt 0.037107 0.547853
vt 0.036135 0.547853
vt 0.036135 0.548826
vt 0.041990 0.548826
vt 0.041990 0.547853
vt 0.041018 0.547853
vt 0.041018 0.548826
f 1/1/1 2/2/1 3/3/1 4/4/1
f 5/5/2 6/6/2 7/7/2 8/8/2
f 9/9/3 10/10/3 11/11/3 12/12/3
f 9/13/4 13/14/4 14/15/4 10/16/4
f 15/17/5 16/18/5 17/19/5 18/20/5
f 19/21/4 20/22/4 21/23/4 22/24/4
f 11/25/5 23/26/5 24/27/5 12/28/5
f 17/29/3 16/30/3 21/31/3 20/32/3
f 25/33/5 26/34/5 27/35/5 28/36/5
f 29/37/4 30/38/4 31/39/4 32/40/4
f 27/41/3 26/42/3 31/43/3 30/44/3
f 14/45/6 13/46/6 24/47/6 23/48/6
f 33/49/4 34/50/4 35/51/4 36/52/4
f 37/53/5 38/54/5 39/55/5 40/56/5
f 35/57/6 34/58/6 39/59/6 38/60/6
f 41/61/6 42/62/6 43/63/6 44/64/6
f 45/65/4 42/66/4 41/67/4 46/68/4
f 47/69/5 44/70/5 43/71/5 48/72/5
f 49/73/6 50/74/6 51/75/6 52/76/6
f 53/77/4 50/78/4 49/79/4 54/80/4
f 55/81/5 52/82/5 51/83/5 56/84/5
