v 1.000000 1.000000 0.468750
v 1.000000 0.000000 0.468750
v 0.000000 0.000000 0.468750
v 0.000000 1.000000 0.468750
v 0.000000 1.000000 0.531250
v 0.000000 0.000000 0.531250
v 1.000000 0.000000 0.531250
v 1.000000 1.000000 0.531250
v 0.375000 0.812500 0.468750
v 0.375000 0.812500 0.531250
v 0.625000 0.812500 0.531250
v 0.625000 0.812500 0.468750
v 0.375000 0.125000 0.468750
v 0.375000 0.125000 0.531250
v 0.625000 0.125000 0.531250
v 0.625000 0.125000 0.468750
v 0.312500 0.750000 0.468750
v 0.312500 0.750000 0.531250
v 0.687500 0.750000 0.531250
v 0.687500 0.750000 0.468750
v 0.312500 0.687500 0.468750
v 0.312500 0.687500 0.531250
v 0.687500 0.687500 0.531250
v 0.687500 0.687500 0.468750
v 0.250000 0.687500 0.468750
v 0.250000 0.687500 0.531250
v 0.750000 0.687500 0.531250
v 0.750000 0.687500 0.468750
v 0.250000 0.187500 0.468750
v 0.250000 0.187500 0.531250
v 0.750000 0.187500 0.531250
v 0.750000 0.187500 0.468750
v 0.187500 0.625000 0.468750
v 0.187500 0.625000 0.531250
v 0.812500 0.625000 0.531250
v 0.812500 0.625000 0.468750
v 0.187500 0.250000 0.468750
v 0.187500 0.250000 0.531250
v 0.812500 0.250000 0.531250
v 0.812500 0.250000 0.468750
v 0.125000 0.500000 0.468750
v 0.125000 0.500000 0.531250
v 0.875000 0.500000 0.531250
v 0.875000 0.500000 0.468750
v 0.125000 0.312500 0.468750
v 0.125000 0.312500 0.531250
v 0.875000 0.312500 0.531250
v 0.875000 0.312500 0.468750
vn 0.000000 0.000000 -1.000000
vn 0.000000 0.000000 1.000000
vn 0.000000 1.000000 0.000000
vn -1.000000 0.000000 0.000000
vn 1.000000 0.000000 0.000000
vn 0.000000 -1.000000 0.000000
vt 0.156219 0.562469
vt 0.156219 0.546906
vt 0.140656 0.546906
vt 0.140656 0.562469
vt 0.140656 0.562469
vt 0.140656 0.546906
vt 0.156219 0.546906
vt 0.156219 0.562469
vt 0.146492 0.559568
vt 0.146492 0.558596
vt 0.150383 0.558596
vt 0.150383 0.559568
vt 0.147459 0.559549
vt 0.147459 0.548849
vt 0.146486 0.548849
vt 0.146486 0.559549
vt 0.150389 0.559549
vt 0.150389 0.548849
vt 0.149416 0.548849
vt 0.149416 0.559549
vt 0.145519 0.558592
vt 0.145519 0.557619
vt 0.151356 0.557619
vt 0.151356 0.558592
vt 0.146482 0.558592
vt 0.146482 0.557619
vt 0.145510 0.557619
vt 0.145510 0.558592
vt 0.151365 0.558592
vt 0.151365 0.557619
vt 0.150393 0.557619
vt 0.150393 0.558592
vt 0.144547 0.557615
vt 0.144547 0.556643
vt 0.152328 0.556643
vt 0.152328 0.557615
vt 0.145506 0.557602
vt 0.145506 0.549820
vt 0.144533 0.549820
vt 0.144533 0.557602
vt 0.152342 0.557602
vt 0.152342 0.549820
vt 0.151369 0.549820
vt 0.151369 0.557602
vt 0.143574 0.556639
vt 0.143574 0.555666
vt 0.153301 0.555666
vt 0.153301 0.556639
vt 0.144529 0.556629
vt 0.144529 0.550793
vt 0.143557 0.550793
vt 0.143557 0.556629
vt 0.153318 0.556629
vt 0.153318 0.550793
vt 0.152346 0.550793
vt 0.152346 0.556629
vt 0.142601 0.554686
vt 0.142601 0.553713
vt 0.154274 0.553713
vt 0.154274 0.554686
vt 0.143553 0.554682
vt 0.143553 0.551764
vt 0.142580 0.551764
vt 0.142580 0.554682
vt 0.154295 0.554682
vt 0.154295 0.551764
vt 0.153322 0.551764
vt 0.153322 0.554682
vt 0.142601 0.552732
vt 0.142601 0.551760
vt 0.154274 0.551760
vt 0.154274 0.552732
vt 0.143574 0.551756
vt 0.143574 0.550783
vt 0.153301 0.550783
vt 0.153301 0.551756
vt 0.144547 0.550779
vt 0.144547 0.549807
vt 0.152328 0.549807
vt 0.152328 0.550779
vt 0.146492 0.549803
vt 0.146492 0.548830
vt 0.150383 0.548830
vt 0.150383 0.549803
f 1/1/1 2/2/1 3/3/1 4/4/1
f 5/5/2 6/6/2 7/7/2 8/8/2
f 9/9/3 10/10/3 11/11/3 12/12/3
f 9/13/4 13/14/4 14/15/4 10/16/4
f 11/17/5 15/18/5 16/19/5 12/20/5
f 17/21/3 18/22/3 19/23/3 20/24/3
f 17/25/4 21/26/4 22/27/4 18/28/4
f 19/29/5 23/30/5 24/31/5 20/32/5
f 25/33/3 26/34/3 27/35/3 28/36/3
f 25/37/4 29/38/4 30/39/4 26/40/4
f 27/41/5 31/42/5 32/43/5 28/44/5
f 33/45/3 34/46/3 35/47/3 36/48/3
f 33/49/4 37/50/4 38/51/4 34/52/4
f 35/53/5 39/54/5 40/55/5 36/56/5
f 41/57/3 42/58/3 43/59/3 44/60/3
f 41/61/4 45/62/4 46/63/4 42/64/4
f 43/65/5 47/66/5 48/67/5 44/68/5
f 46/69/6 45/70/6 48/71/6 47/72/6
f 38/73/6 37/74/6 40/75/6 39/76/6
f 30/77/6 29/78/6 32/79/6 31/80/6
f 14/81/6 13/82/6 16/83/6 15/84/6
