v 1.000000 1.000000 0.468750
v 1.000000 0.000000 0.468750
v 0.000000 0.000000 0.468750
v 0.000000 1.000000 0.468750
v 0.000000 1.000000 0.531250
v 0.000000 0.000000 0.531250
v 1.000000 0.000000 0.531250
v 1.000000 1.000000 0.531250
v 0.375000 1.000000 0.468750
v 0.375000 1.000000 0.531250
v 0.625000 1.000000 0.531250
v 0.625000 1.000000 0.468750
v 0.375000 0.000000 0.468750
v 0.375000 0.000000 0.531250
v 0.625000 0.000000 0.531250
v 0.625000 0.000000 0.468750
v 0.250000 0.937500 0.468750
v 0.250000 0.937500 0.531250
v 0.750000 0.937500 0.531250
v 0.750000 0.937500 0.468750
v 0.250000 0.062500 0.468750
v 0.250000 0.062500 0.531250
v 0.750000 0.062500 0.531250
v 0.750000 0.062500 0.468750
v 0.187500 0.875000 0.468750
v 0.187500 0.875000 0.531250
v 0.812500 0.875000 0.531250
v 0.812500 0.875000 0.468750
v 0.187500 0.125000 0.468750
v 0.187500 0.125000 0.531250
v 0.812500 0.125000 0.531250
v 0.812500 0.125000 0.468750
v 0.125000 0.812500 0.468750
v 0.125000 0.812500 0.531250
v 0.875000 0.812500 0.531250
v 0.875000 0.812500 0.468750
v 0.125000 0.187500 0.468750
v 0.125000 0.187500 0.531250
v 0.875000 0.187500 0.531250
v 0.875000 0.187500 0.468750
v 0.062500 0.687500 0.468750
v 0.062500 0.687500 0.531250
v 0.937500 0.687500 0.531250
v 0.937500 0.687500 0.468750
v 0.062500 0.312500 0.468750
v 0.062500 0.312500 0.531250
v 0.937500 0.312500 0.531250
v 0.937500 0.312500 0.468750
vn 0.000000 0.000000 -1.000000
vn 0.000000 0.000000 1.000000
vn 0.000000 1.000000 0.000000
vn -1.000000 0.000000 0.000000
vn 1.000000 0.000000 0.000000
vn 0.000000 -1.000000 0.000000
vt 0.171844 0.562469
vt 0.171844 0.546906
vt 0.156281 0.546906
vt 0.156281 0.562469
vt 0.156281 0.562469
vt 0.156281 0.546906
vt 0.171844 0.546906
vt 0.171844 0.562469
vt 0.162117 0.562498
vt 0.162117 0.561525
vt 0.166008 0.561525
vt 0.166008 0.562498
vt 0.163084 0.562469
vt 0.163084 0.546906
vt 0.162111 0.546906
vt 0.162111 0.562469
vt 0.166014 0.562469
vt 0.166014 0.546906
vt 0.165041 0.546906
vt 0.165041 0.562469
vt 0.160172 0.561522
vt 0.160172 0.560549
vt 0.167953 0.560549
vt 0.167953 0.561522
vt 0.161131 0.561497
vt 0.161131 0.547878
vt 0.160158 0.547878
vt 0.160158 0.561497
vt 0.167967 0.561497
vt 0.167967 0.547878
vt 0.166994 0.547878
vt 0.166994 0.561497
vt 0.159199 0.560545
vt 0.159199 0.559572
vt 0.168926 0.559572
vt 0.168926 0.560545
vt 0.160154 0.560524
vt 0.160154 0.548851
vt 0.159182 0.548851
vt 0.159182 0.560524
vt 0.168943 0.560524
vt 0.168943 0.548851
vt 0.167971 0.548851
vt 0.167971 0.560524
vt 0.158226 0.559568
vt 0.158226 0.558596
vt 0.169899 0.558596
vt 0.169899 0.559568
vt 0.159178 0.559551
vt 0.159178 0.549824
vt 0.158205 0.549824
vt 0.158205 0.559551
vt 0.169920 0.559551
vt 0.169920 0.549824
vt 0.168947 0.549824
vt 0.168947 0.559551
vt 0.157253 0.557615
vt 0.157253 0.556643
vt 0.170872 0.556643
vt 0.170872 0.557615
vt 0.158201 0.557606
vt 0.158201 0.551769
vt 0.157228 0.551769
vt 0.157228 0.557606
vt 0.170897 0.557606
vt 0.170897 0.551769
vt 0.169924 0.551769
vt 0.169924 0.557606
vt 0.157253 0.552732
vt 0.157253 0.551760
vt 0.170872 0.551760
vt 0.170872 0.552732
vt 0.158226 0.550779
vt 0.158226 0.549807
vt 0.169899 0.549807
vt 0.169899 0.550779
vt 0.159199 0.549803
vt 0.159199 0.548830
vt 0.168926 0.548830
vt 0.168926 0.549803
vt 0.160172 0.548826
vt 0.160172 0.547853
vt 0.167953 0.547853
vt 0.167953 0.548826
vt 0.162117 0.547850
vt 0.162117 0.546877
vt 0.166008 0.546877
vt 0.166008 0.547850
f 1/1/1 2/2/1 3/3/1 4/4/1
f 5/5/2 6/6/2 7/7/2 8/8/2
f 9/9/3 10/10/3 11/11/3 12/12/3
f 9/13/4 13/14/4 14/15/4 10/16/4
f 11/17/5 15/18/5 16/19/5 12/20/5
f 17/21/3 18/22/3 19/23/3 20/24/3
f 17/25/4 21/26/4 22/27/4 18/28/4
f 19/29/5 23/30/5 24/31/5 20/32/5
f 25/33/3 26/34/3 27/35/3 28/36/3
f 25/37/4 29/38/4 30/39/4 26/40/4
f 27/41/5 31/42/5 32/43/5 28/44/5
f 33/45/3 34/46/3 35/47/3 36/48/3
f 33/49/4 37/50/4 38/51/4 34/52/4
f 35/53/5 39/54/5 40/55/5 36/56/5
f 41/57/3 42/58/3 43/59/3 44/60/3
f 41/61/4 45/62/4 46/63/4 42/64/4
f 43/65/5 47/66/5 48/67/5 44/68/5
f 46/69/6 45/70/6 48/71/6 47/72/6
f 38/73/6 37/74/6 40/75/6 39/76/6
f 30/77/6 29/78/6 32/79/6 31/80/6
f 22/81/6 21/82/6 24/83/6 23/84/6
f 14/85/6 13/86/6 16/87/6 15/88/6
