v 1.000000 1.000000 0.468750
v 1.000000 0.000000 0.468750
v 0.000000 0.000000 0.468750
v 0.000000 1.000000 0.468750
v 0.000000 1.000000 0.531250
v 0.000000 0.000000 0.531250
v 1.000000 0.000000 0.531250
v 1.000000 1.000000 0.531250
v 0.000000 0.937500 0.531250
v 0.000000 0.937500 0.468750
v 1.000000 0.937500 0.468750
v 1.000000 0.937500 0.531250
v 0.062500 1.000000 0.531250
v 0.062500 0.000000 0.531250
v 0.062500 0.000000 0.468750
v 0.062500 1.000000 0.468750
v 0.500000 1.000000 0.468750
v 0.500000 0.812500 0.468750
v 0.500000 0.812500 0.531250
v 0.500000 1.000000 0.531250
v 0.562500 1.000000 0.531250
v 0.562500 0.187500 0.531250
v 0.562500 0.187500 0.468750
v 0.562500 1.000000 0.468750
v 0.937500 1.000000 0.468750
v 0.937500 0.000000 0.468750
v 0.937500 0.000000 0.531250
v 0.937500 1.000000 0.531250
v 0.062500 0.937500 0.468750
v 0.062500 0.937500 0.531250
v 0.937500 0.937500 0.531250
v 0.937500 0.937500 0.468750
v 0.062500 0.875000 0.531250
v 0.062500 0.875000 0.468750
v 0.937500 0.875000 0.468750
v 0.937500 0.875000 0.531250
v 0.062500 0.062500 0.468750
v 0.062500 0.062500 0.531250
v 0.125000 0.937500 0.531250
v 0.125000 0.062500 0.531250
v 0.125000 0.062500 0.468750
v 0.125000 0.937500 0.468750
v 0.375000 0.937500 0.468750
v 0.375000 0.000000 0.468750
v 0.375000 0.000000 0.531250
v 0.375000 0.937500 0.531250
v 0.687500 0.937500 0.531250
v 0.687500 0.312500 0.531250
v 0.687500 0.312500 0.468750
v 0.687500 0.937500 0.468750
v 0.875000 0.937500 0.468750
v 0.875000 0.062500 0.468750
v 0.875000 0.062500 0.531250
v 0.875000 0.937500 0.531250
v 0.937500 0.062500 0.531250
v 0.937500 0.062500 0.468750
v 0.125000 0.875000 0.468750
v 0.125000 0.875000 0.531250
v 0.875000 0.875000 0.531250
v 0.875000 0.875000 0.468750
v 0.125000 0.812500 0.531250
v 0.125000 0.812500 0.468750
v 0.875000 0.812500 0.468750
v 0.875000 0.812500 0.531250
v 0.125000 0.125000 0.468750
v 0.125000 0.125000 0.531250
v 0.375000 0.875000 0.531250
v 0.375000 0.250000 0.531250
v 0.375000 0.250000 0.468750
v 0.375000 0.875000 0.468750
v 0.687500 0.875000 0.468750
v 0.687500 0.562500 0.468750
v 0.687500 0.562500 0.531250
v 0.687500 0.875000 0.531250
v 0.750000 0.875000 0.531250
v 0.750000 0.250000 0.531250
v 0.750000 0.250000 0.468750
v 0.750000 0.875000 0.468750
v 0.812500 0.875000 0.468750
v 0.812500 0.687500 0.468750
v 0.812500 0.687500 0.531250
v 0.812500 0.875000 0.531250
v 0.875000 0.125000 0.531250
v 0.875000 0.125000 0.468750
v 0.187500 0.812500 0.468750
v 0.187500 0.187500 0.468750
v 0.187500 0.187500 0.531250
v 0.187500 0.812500 0.531250
v 0.250000 0.812500 0.531250
v 0.250000 0.250000 0.531250
v 0.250000 0.250000 0.468750
v 0.250000 0.812500 0.468750
v 0.437500 0.812500 0.468750
v 0.437500 0.812500 0.531250
v 0.812500 0.812500 0.531250
v 0.812500 0.812500 0.468750
v 0.437500 0.250000 0.468750
v 0.437500 0.250000 0.531250
v 0.500000 0.750000 0.531250
v 0.500000 0.750000 0.468750
v 0.812500 0.750000 0.468750
v 0.812500 0.750000 0.531250
v 0.750000 0.812500 0.468750
v 0.750000 0.187500 0.468750
v 0.750000 0.187500 0.531250
v 0.750000 0.812500 0.531250
v 0.812500 0.312500 0.531250
v 0.812500 0.312500 0.468750
v 0.187500 0.687500 0.531250
v 0.187500 0.687500 0.468750
v 0.875000 0.687500 0.468750
v 0.875000 0.687500 0.531250
v 0.250000 0.750000 0.468750
v 0.250000 0.750000 0.531250
v 0.875000 0.750000 0.531250
v 0.875000 0.750000 0.468750
v 0.312500 0.750000 0.531250
v 0.312500 0.187500 0.531250
v 0.312500 0.187500 0.468750
v 0.312500 0.750000 0.468750
v 0.500000 0.250000 0.531250
v 0.500000 0.250000 0.468750
v 0.562500 0.750000 0.468750
v 0.562500 0.250000 0.468750
v 0.562500 0.250000 0.531250
v 0.562500 0.750000 0.531250
v 0.625000 0.750000 0.531250
v 0.625000 0.062500 0.531250
v 0.625000 0.062500 0.468750
v 0.625000 0.750000 0.468750
v 0.125000 0.687500 0.468750
v 0.125000 0.687500 0.531250
v 0.937500 0.687500 0.531250
v 0.937500 0.687500 0.468750
v 0.187500 0.125000 0.531250
v 0.187500 0.125000 0.468750
v 0.312500 0.625000 0.531250
v 0.312500 0.625000 0.468750
v 0.687500 0.625000 0.468750
v 0.687500 0.625000 0.531250
v 0.312500 0.687500 0.468750
v 0.312500 0.125000 0.468750
v 0.312500 0.125000 0.531250
v 0.312500 0.687500 0.531250
v 0.625000 0.687500 0.468750
v 0.625000 0.125000 0.468750
v 0.625000 0.125000 0.531250
v 0.625000 0.687500 0.531250
v 0.250000 0.625000 0.468750
v 0.250000 0.625000 0.531250
v 0.750000 0.625000 0.531250
v 0.750000 0.625000 0.468750
v 0.250000 0.437500 0.468750
v 0.250000 0.437500 0.531250
v 0.562500 0.562500 0.531250
v 0.562500 0.562500 0.468750
v 0.937500 0.562500 0.468750
v 0.937500 0.562500 0.531250
v 0.000000 0.562500 0.468750
v 0.000000 0.562500 0.531250
v 1.000000 0.562500 0.531250
v 1.000000 0.562500 0.468750
v 0.000000 0.500000 0.531250
v 0.000000 0.500000 0.468750
v 0.437500 0.500000 0.468750
v 0.437500 0.500000 0.531250
v 0.062500 0.437500 0.531250
v 0.062500 0.437500 0.468750
v 0.937500 0.437500 0.468750
v 0.937500 0.437500 0.531250
v 0.562500 0.500000 0.468750
v 0.562500 0.500000 0.531250
v 0.937500 0.500000 0.531250
v 0.937500 0.500000 0.468750
v 0.125000 0.437500 0.468750
v 0.125000 0.437500 0.531250
v 0.437500 0.437500 0.531250
v 0.437500 0.437500 0.468750
v 0.375000 0.375000 0.531250
v 0.375000 0.375000 0.468750
v 1.000000 0.375000 0.468750
v 1.000000 0.375000 0.531250
v 0.125000 0.312500 0.531250
v 0.125000 0.312500 0.468750
v 0.625000 0.375000 0.468750
v 0.625000 0.375000 0.531250
v 0.937500 0.375000 0.531250
v 0.937500 0.375000 0.468750
v 0.187500 0.312500 0.468750
v 0.187500 0.312500 0.531250
v 0.750000 0.312500 0.531250
v 0.750000 0.312500 0.468750
v 0.312500 0.250000 0.531250
v 0.312500 0.250000 0.468750
v 0.937500 0.250000 0.468750
v 0.937500 0.250000 0.531250
v 0.875000 0.250000 0.531250
v 0.875000 0.250000 0.468750
v 0.125000 0.187500 0.468750
v 0.125000 0.187500 0.531250
v 0.437500 0.187500 0.531250
v 0.437500 0.000000 0.531250
v 0.437500 0.000000 0.468750
v 0.437500 0.187500 0.468750
v 0.062500 0.125000 0.468750
v 0.062500 0.125000 0.531250
v 0.937500 0.125000 0.531250
v 0.937500 0.125000 0.468750
v 0.000000 0.062500 0.468750
v 0.000000 0.062500 0.531250
v 1.000000 0.062500 0.531250
v 1.000000 0.062500 0.468750
vn 0.000000 0.000000 -1.000000
vn 0.000000 0.000000 1.000000
vn 0.000000 1.000000 0.000000
vn 0.000000 -1.000000 0.000000
vn -1.000000 0.000000 0.000000
vn 1.000000 0.000000 0.000000
vt 0.015594 0.765594
vt 0.015594 0.750031
vt 0.000031 0.750031
vt 0.000031 0.765594
vt 0.000031 0.765594
vt 0.000031 0.750031
vt 0.015594 0.750031
vt 0.015594 0.765594
vt 0.000031 0.765623
vt 0.000031 0.764650
vt 0.015594 0.764650
vt 0.015594 0.765623
vt 0.000031 0.765623
vt 0.000031 0.764650
vt 0.015594 0.764650
vt 0.015594 0.765623
vt 0.000975 0.765594
vt 0.000975 0.750031
vt 0.000002 0.750031
vt 0.000002 0.765594
vt 0.000975 0.765594
vt 0.000975 0.750031
vt 0.000002 0.750031
vt 0.000002 0.765594
vt 0.008787 0.765619
vt 0.008787 0.762701
vt 0.007814 0.762701
vt 0.007814 0.765619
vt 0.008787 0.765600
vt 0.008787 0.752954
vt 0.007814 0.752954
vt 0.007814 0.765600
vt 0.015623 0.765594
vt 0.015623 0.750031
vt 0.014650 0.750031
vt 0.014650 0.765594
vt 0.015623 0.765594
vt 0.015623 0.750031
vt 0.014650 0.750031
vt 0.014650 0.765594
vt 0.001003 0.764647
vt 0.001003 0.763674
vt 0.014622 0.763674
vt 0.014622 0.764647
vt 0.001003 0.764647
vt 0.001003 0.763674
vt 0.014622 0.763674
vt 0.014622 0.764647
vt 0.001951 0.764622
vt 0.001951 0.751003
vt 0.000978 0.751003
vt 0.000978 0.764622
vt 0.001951 0.764622
vt 0.001951 0.751003
vt 0.000978 0.751003
vt 0.000978 0.764622
vt 0.006834 0.764620
vt 0.006834 0.750029
vt 0.005861 0.750029
vt 0.005861 0.764620
vt 0.010740 0.764629
vt 0.010740 0.754902
vt 0.009768 0.754902
vt 0.009768 0.764629
vt 0.014647 0.764622
vt 0.014647 0.751003
vt 0.013674 0.751003
vt 0.013674 0.764622
vt 0.014647 0.764622
vt 0.014647 0.751003
vt 0.013674 0.751003
vt 0.013674 0.764622
vt 0.001976 0.763670
vt 0.001976 0.762697
vt 0.013649 0.762697
vt 0.013649 0.763670
vt 0.001976 0.763670
vt 0.001976 0.762697
vt 0.013649 0.762697
vt 0.013649 0.763670
vt 0.002928 0.763649
vt 0.002928 0.751976
vt 0.001955 0.751976
vt 0.001955 0.763649
vt 0.005857 0.763653
vt 0.005857 0.753925
vt 0.004885 0.753925
vt 0.004885 0.763653
vt 0.011717 0.763662
vt 0.011717 0.758799
vt 0.010744 0.758799
vt 0.010744 0.763662
vt 0.011717 0.763653
vt 0.011717 0.753925
vt 0.010744 0.753925
vt 0.010744 0.763653
vt 0.013670 0.763666
vt 0.013670 0.760748
vt 0.012697 0.760748
vt 0.012697 0.763666
vt 0.013670 0.763649
vt 0.013670 0.751976
vt 0.012697 0.751976
vt 0.012697 0.763649
vt 0.003904 0.762676
vt 0.003904 0.752949
vt 0.002932 0.752949
vt 0.002932 0.762676
vt 0.003904 0.762678
vt 0.003904 0.753923
vt 0.002932 0.753923
vt 0.002932 0.762678
vt 0.006847 0.762693
vt 0.006847 0.761721
vt 0.012684 0.761721
vt 0.012684 0.762693
vt 0.007811 0.762678
vt 0.007811 0.753923
vt 0.006838 0.753923
vt 0.006838 0.762678
vt 0.007822 0.762693
vt 0.007822 0.761721
vt 0.012686 0.761721
vt 0.012686 0.762693
vt 0.012693 0.762676
vt 0.012693 0.752949
vt 0.011721 0.752949
vt 0.011721 0.762676
vt 0.012693 0.762680
vt 0.012693 0.754898
vt 0.011721 0.754898
vt 0.011721 0.762680
vt 0.002951 0.761717
vt 0.002951 0.760744
vt 0.013651 0.760744
vt 0.013651 0.761717
vt 0.003925 0.761717
vt 0.003925 0.760744
vt 0.013653 0.760744
vt 0.013653 0.761717
vt 0.004881 0.761702
vt 0.004881 0.752947
vt 0.003908 0.752947
vt 0.003908 0.761702
vt 0.007811 0.761703
vt 0.007811 0.753922
vt 0.006838 0.753922
vt 0.006838 0.761703
vt 0.009764 0.761703
vt 0.009764 0.753922
vt 0.008791 0.753922
vt 0.008791 0.761703
vt 0.009764 0.761698
vt 0.009764 0.750998
vt 0.008791 0.750998
vt 0.008791 0.761698
vt 0.001978 0.760740
vt 0.001978 0.759768
vt 0.014624 0.759768
vt 0.014624 0.760740
vt 0.002928 0.760725
vt 0.002928 0.751970
vt 0.001955 0.751970
vt 0.001955 0.760725
vt 0.004894 0.760740
vt 0.004894 0.759768
vt 0.010731 0.759768
vt 0.010731 0.760740
vt 0.005857 0.760725
vt 0.005857 0.751970
vt 0.004885 0.751970
vt 0.004885 0.760725
vt 0.010740 0.760725
vt 0.010740 0.751970
vt 0.009768 0.751970
vt 0.009768 0.760725
vt 0.003922 0.759764
vt 0.003922 0.758791
vt 0.011703 0.758791
vt 0.011703 0.759764
vt 0.004881 0.759760
vt 0.004881 0.756842
vt 0.003908 0.756842
vt 0.003908 0.759760
vt 0.008801 0.759764
vt 0.008801 0.758791
vt 0.014637 0.758791
vt 0.014637 0.759764
vt 0.000031 0.758787
vt 0.000031 0.757814
vt 0.015594 0.757814
vt 0.015594 0.758787
vt 0.000013 0.758787
vt 0.000013 0.757814
vt 0.006823 0.757814
vt 0.006823 0.758787
vt 0.001003 0.757811
vt 0.001003 0.756838
vt 0.014622 0.756838
vt 0.014622 0.757811
vt 0.008801 0.757811
vt 0.008801 0.756838
vt 0.014637 0.756838
vt 0.014637 0.757811
vt 0.001963 0.756834
vt 0.001963 0.755861
vt 0.006826 0.755861
vt 0.006826 0.756834
vt 0.005878 0.756834
vt 0.005878 0.755861
vt 0.015606 0.755861
vt 0.015606 0.756834
vt 0.001974 0.755857
vt 0.001974 0.754885
vt 0.012674 0.754885
vt 0.012674 0.755857
vt 0.009775 0.755857
vt 0.009775 0.754885
vt 0.014639 0.754885
vt 0.014639 0.755857
vt 0.002947 0.754881
vt 0.002947 0.753908
vt 0.011702 0.753908
vt 0.011702 0.754881
vt 0.004902 0.754881
vt 0.004902 0.753908
vt 0.014629 0.753908
vt 0.014629 0.754881
vt 0.002941 0.753904
vt 0.002941 0.752932
vt 0.008778 0.752932
vt 0.008778 0.753904
vt 0.003925 0.753904
vt 0.003925 0.752932
vt 0.013653 0.752932
vt 0.013653 0.753904
vt 0.001972 0.752928
vt 0.001972 0.751955
vt 0.011700 0.751955
vt 0.011700 0.752928
vt 0.001976 0.752928
vt 0.001976 0.751955
vt 0.013649 0.751955
vt 0.013649 0.752928
vt 0.006834 0.752924
vt 0.006834 0.750006
vt 0.005861 0.750006
vt 0.005861 0.752924
vt 0.001003 0.751951
vt 0.001003 0.750978
vt 0.014622 0.750978
vt 0.014622 0.751951
vt 0.001003 0.751951
vt 0.001003 0.750978
vt 0.014622 0.750978
vt 0.014622 0.751951
vt 0.000031 0.750975
vt 0.000031 0.750002
vt 0.015594 0.750002
vt 0.015594 0.750975
vt 0.000031 0.750975
vt 0.000031 0.750002
vt 0.015594 0.750002
vt 0.015594 0.750975
f 1/1/1 2/2/1 3/3/1 4/4/1
f 5/5/2 6/6/2 7/7/2 8/8/2
f 4/9/3 5/10/3 8/11/3 1/12/3
f 9/13/4 10/14/4 11/15/4 12/16/4
f 4/17/5 3/18/5 6/19/5 5/20/5
f 13/21/6 14/22/6 15/23/6 16/24/6
f 17/25/5 18/26/5 19/27/5 20/28/5
f 21/29/6 22/30/6 23/31/6 24/32/6
f 25/33/5 26/34/5 27/35/5 28/36/5
f 8/37/6 7/38/6 2/39/6 1/40/6
f 29/41/3 30/42/3 31/43/3 32/44/3
f 33/45/4 34/46/4 35/47/4 36/48/4
f 29/49/5 37/50/5 38/51/5 30/52/5
f 39/53/6 40/54/6 41/55/6 42/56/6
f 43/57/5 44/58/5 45/59/5 46/60/5
f 47/61/6 48/62/6 49/63/6 50/64/6
f 51/65/5 52/66/5 53/67/5 54/68/5
f 31/69/6 55/70/6 56/71/6 32/72/6
f 57/73/3 58/74/3 59/75/3 60/76/3
f 61/77/4 62/78/4 63/79/4 64/80/4
f 57/81/5 65/82/5 66/83/5 58/84/5
f 67/85/6 68/86/6 69/87/6 70/88/6
f 71/89/5 72/90/5 73/91/5 74/92/5
f 75/93/6 76/94/6 77/95/6 78/96/6
f 79/97/5 80/98/5 81/99/5 82/100/5
f 59/101/6 83/102/6 84/103/6 60/104/6
f 85/105/5 86/106/5 87/107/5 88/108/5
f 89/109/6 90/110/6 91/111/6 92/112/6
f 93/113/3 94/114/3 95/115/3 96/116/3
f 93/117/5 97/118/5 98/119/5 94/120/5
f 99/121/4 100/122/4 101/123/4 102/124/4
f 103/125/5 104/126/5 105/127/5 106/128/5
f 95/129/6 107/130/6 108/131/6 96/132/6
f 109/133/4 110/134/4 111/135/4 112/136/4
f 113/137/3 114/138/3 115/139/3 116/140/3
f 117/141/6 118/142/6 119/143/6 120/144/6
f 99/145/6 121/146/6 122/147/6 100/148/6
f 123/149/5 124/150/5 125/151/5 126/152/5
f 127/153/6 128/154/6 129/155/6 130/156/6
f 131/157/3 132/158/3 133/159/3 134/160/3
f 109/161/6 135/162/6 136/163/6 110/164/6
f 137/165/4 138/166/4 139/167/4 140/168/4
f 141/169/5 142/170/5 143/171/5 144/172/5
f 145/173/5 146/174/5 147/175/5 148/176/5
f 149/177/3 150/178/3 151/179/3 152/180/3
f 149/181/5 153/182/5 154/183/5 150/184/5
f 155/185/4 156/186/4 157/187/4 158/188/4
f 159/189/3 160/190/3 161/191/3 162/192/3
f 163/193/4 164/194/4 165/195/4 166/196/4
f 167/197/4 168/198/4 169/199/4 170/200/4
f 171/201/3 172/202/3 173/203/3 174/204/3
f 175/205/3 176/206/3 177/207/3 178/208/3
f 179/209/4 180/210/4 181/211/4 182/212/4
f 183/213/4 184/214/4 108/215/4 107/216/4
f 185/217/3 186/218/3 187/219/3 188/220/3
f 189/221/3 190/222/3 191/223/3 192/224/3
f 193/225/4 194/226/4 195/227/4 196/228/4
f 87/229/4 86/230/4 23/231/4 22/232/4
f 91/233/3 90/234/3 197/235/3 198/236/3
f 199/237/3 200/238/3 105/239/3 104/240/3
f 66/241/4 65/242/4 84/243/4 83/244/4
f 201/245/6 202/246/6 203/247/6 204/248/6
f 205/249/3 206/250/3 207/251/3 208/252/3
f 38/253/4 37/254/4 56/255/4 55/256/4
f 209/257/3 210/258/3 211/259/3 212/260/3
f 6/261/4 3/262/4 2/263/4 7/264/4
