v 1.000000 1.000000 0.468750
v 1.000000 0.000000 0.468750
v 0.000000 0.000000 0.468750
v 0.000000 1.000000 0.468750
v 0.000000 1.000000 0.531250
v 0.000000 0.000000 0.531250
v 1.000000 0.000000 0.531250
v 1.000000 1.000000 0.531250
v 0.625000 0.937500 0.468750
v 0.625000 0.937500 0.531250
v 0.812500 0.937500 0.531250
v 0.812500 0.937500 0.468750
v 0.625000 0.187500 0.468750
v 0.625000 0.187500 0.531250
v 0.812500 0.875000 0.531250
v 0.812500 0.875000 0.468750
v 0.187500 0.875000 0.468750
v 0.187500 0.875000 0.531250
v 0.875000 0.875000 0.531250
v 0.875000 0.875000 0.468750
v 0.187500 0.312500 0.468750
v 0.187500 0.312500 0.531250
v 0.437500 0.875000 0.531250
v 0.437500 0.812500 0.531250
v 0.437500 0.812500 0.468750
v 0.437500 0.875000 0.468750
v 0.562500 0.875000 0.468750
v 0.562500 0.250000 0.468750
v 0.562500 0.250000 0.531250
v 0.562500 0.875000 0.531250
v 0.875000 0.312500 0.531250
v 0.875000 0.312500 0.468750
v 0.125000 0.812500 0.468750
v 0.125000 0.812500 0.531250
v 0.937500 0.812500 0.531250
v 0.937500 0.812500 0.468750
v 0.125000 0.375000 0.468750
v 0.125000 0.375000 0.531250
v 0.937500 0.125000 0.531250
v 0.937500 0.125000 0.468750
v 0.062500 0.750000 0.468750
v 0.062500 0.750000 0.531250
v 1.000000 0.750000 0.531250
v 1.000000 0.750000 0.468750
v 0.062500 0.562500 0.468750
v 0.062500 0.562500 0.531250
v 1.000000 0.500000 0.531250
v 1.000000 0.500000 0.468750
v 0.125000 0.562500 0.468750
v 0.125000 0.562500 0.531250
v 0.937500 0.500000 0.531250
v 0.937500 0.500000 0.468750
v 0.875000 0.437500 0.531250
v 0.875000 0.437500 0.468750
v 0.937500 0.437500 0.468750
v 0.937500 0.437500 0.531250
v 0.437500 0.375000 0.468750
v 0.437500 0.375000 0.531250
v 0.562500 0.312500 0.468750
v 0.562500 0.312500 0.531250
v 0.375000 0.375000 0.531250
v 0.375000 0.250000 0.531250
v 0.375000 0.250000 0.468750
v 0.375000 0.375000 0.468750
v 0.437500 0.312500 0.468750
v 0.437500 0.312500 0.531250
v 0.250000 0.250000 0.531250
v 0.250000 0.250000 0.468750
v 0.625000 0.250000 0.468750
v 0.625000 0.250000 0.531250
v 0.250000 0.312500 0.468750
v 0.250000 0.312500 0.531250
v 0.937500 0.312500 0.531250
v 0.937500 0.312500 0.468750
v 0.750000 0.187500 0.468750
v 0.750000 0.187500 0.531250
v 0.750000 0.125000 0.531250
v 0.750000 0.125000 0.468750
vn 0.000000 0.000000 -1.000000
vn 0.000000 0.000000 1.000000
vn 0.000000 1.000000 0.000000
vn -1.000000 0.000000 0.000000
vn 1.000000 0.000000 0.000000
vn 0.000000 -1.000000 0.000000
vt 0.296844 0.515594
vt 0.296844 0.500031
vt 0.281281 0.500031
vt 0.281281 0.515594
vt 0.281281 0.515594
vt 0.281281 0.500031
vt 0.296844 0.500031
vt 0.296844 0.515594
vt 0.291021 0.514647
vt 0.291021 0.513674
vt 0.293940 0.513674
vt 0.293940 0.514647
vt 0.291990 0.514626
vt 0.291990 0.502953
vt 0.291018 0.502953
vt 0.291018 0.514626
vt 0.293943 0.514647
vt 0.293943 0.513674
vt 0.292971 0.513674
vt 0.292971 0.514647
vt 0.284201 0.513670
vt 0.284201 0.512697
vt 0.294901 0.512697
vt 0.294901 0.513670
vt 0.285154 0.513655
vt 0.285154 0.504900
vt 0.284182 0.504900
vt 0.284182 0.513655
vt 0.288084 0.513670
vt 0.288084 0.512697
vt 0.287111 0.512697
vt 0.287111 0.513670
vt 0.291014 0.513653
vt 0.291014 0.503925
vt 0.290041 0.503925
vt 0.290041 0.513653
vt 0.294920 0.513655
vt 0.294920 0.504900
vt 0.293947 0.504900
vt 0.293947 0.513655
vt 0.283228 0.512693
vt 0.283228 0.511721
vt 0.295874 0.511721
vt 0.295874 0.512693
vt 0.284178 0.512682
vt 0.284178 0.505873
vt 0.283205 0.505873
vt 0.283205 0.512682
vt 0.295897 0.512674
vt 0.295897 0.501974
vt 0.294924 0.501974
vt 0.294924 0.512674
vt 0.282255 0.511717
vt 0.282255 0.510744
vt 0.296846 0.510744
vt 0.296846 0.511717
vt 0.283201 0.511713
vt 0.283201 0.508795
vt 0.282228 0.508795
vt 0.282228 0.511713
vt 0.296873 0.511711
vt 0.296873 0.507820
vt 0.295900 0.507820
vt 0.295900 0.511711
vt 0.282228 0.509764
vt 0.282228 0.508791
vt 0.283201 0.508791
vt 0.283201 0.509764
vt 0.295900 0.508787
vt 0.295900 0.507814
vt 0.296873 0.507814
vt 0.296873 0.508787
vt 0.294924 0.507811
vt 0.294924 0.506838
vt 0.295897 0.506838
vt 0.295897 0.507811
vt 0.283213 0.506834
vt 0.283213 0.505861
vt 0.288076 0.505861
vt 0.288076 0.506834
vt 0.284191 0.505857
vt 0.284191 0.504885
vt 0.290028 0.504885
vt 0.290028 0.505857
vt 0.287107 0.505856
vt 0.287107 0.503910
vt 0.286135 0.503910
vt 0.286135 0.505856
vt 0.289061 0.505857
vt 0.289061 0.504885
vt 0.288088 0.504885
vt 0.288088 0.505857
vt 0.285168 0.504881
vt 0.285168 0.503908
vt 0.291004 0.503908
vt 0.291004 0.504881
vt 0.286131 0.504881
vt 0.286131 0.503908
vt 0.285158 0.503908
vt 0.285158 0.504881
vt 0.294924 0.504881
vt 0.294924 0.503908
vt 0.295897 0.503908
vt 0.295897 0.504881
vt 0.291019 0.503904
vt 0.291019 0.502932
vt 0.292965 0.502932
vt 0.292965 0.503904
vt 0.292974 0.502928
vt 0.292974 0.501955
vt 0.295893 0.501955
vt 0.295893 0.502928
vt 0.293943 0.502928
vt 0.293943 0.501955
vt 0.292971 0.501955
vt 0.292971 0.502928
f 1/1/1 2/2/1 3/3/1 4/4/1
f 5/5/2 6/6/2 7/7/2 8/8/2
f 9/9/3 10/10/3 11/11/3 12/12/3
f 9/13/4 13/14/4 14/15/4 10/16/4
f 11/17/5 15/18/5 16/19/5 12/20/5
f 17/21/3 18/22/3 19/23/3 20/24/3
f 17/25/4 21/26/4 22/27/4 18/28/4
f 23/29/5 24/30/5 25/31/5 26/32/5
f 27/33/4 28/34/4 29/35/4 30/36/4
f 19/37/5 31/38/5 32/39/5 20/40/5
f 33/41/3 34/42/3 35/43/3 36/44/3
f 33/45/4 37/46/4 38/47/4 34/48/4
f 35/49/5 39/50/5 40/51/5 36/52/5
f 41/53/3 42/54/3 43/55/3 44/56/3
f 41/57/4 45/58/4 46/59/4 42/60/4
f 43/61/5 47/62/5 48/63/5 44/64/5
f 46/65/6 45/66/6 49/67/6 50/68/6
f 51/69/6 52/70/6 48/71/6 47/72/6
f 53/73/6 54/74/6 55/75/6 56/76/6
f 38/77/6 37/78/6 57/79/6 58/80/6
f 22/81/6 21/82/6 59/83/6 60/84/6
f 61/85/5 62/86/5 63/87/5 64/88/5
f 57/89/4 65/90/4 66/91/4 58/92/4
f 67/93/6 68/94/6 69/95/6 70/96/6
f 71/97/4 68/98/4 67/99/4 72/100/4
f 32/101/3 31/102/3 73/103/3 74/104/3
f 14/105/6 13/106/6 75/107/6 76/108/6
f 77/109/6 78/110/6 40/111/6 39/112/6
f 75/113/4 78/114/4 77/115/4 76/116/4
