v 1.000000 1.000000 0.468750
v 1.000000 0.000000 0.468750
v 0.000000 0.000000 0.468750
v 0.000000 1.000000 0.468750
v 0.000000 1.000000 0.531250
v 0.000000 0.000000 0.531250
v 1.000000 0.000000 0.531250
v 1.000000 1.000000 0.531250
v 0.562500 0.812500 0.468750
v 0.562500 0.812500 0.531250
v 0.812500 0.812500 0.531250
v 0.812500 0.812500 0.468750
v 0.562500 0.750000 0.468750
v 0.562500 0.750000 0.531250
v 0.812500 0.250000 0.531250
v 0.812500 0.250000 0.468750
v 0.500000 0.750000 0.468750
v 0.500000 0.750000 0.531250
v 0.875000 0.750000 0.531250
v 0.875000 0.750000 0.468750
v 0.500000 0.687500 0.468750
v 0.500000 0.687500 0.531250
v 0.875000 0.312500 0.531250
v 0.875000 0.312500 0.468750
v 0.437500 0.687500 0.468750
v 0.437500 0.687500 0.531250
v 0.937500 0.687500 0.531250
v 0.937500 0.687500 0.468750
v 0.437500 0.625000 0.468750
v 0.437500 0.625000 0.531250
v 0.937500 0.437500 0.531250
v 0.937500 0.437500 0.468750
v 0.375000 0.625000 0.468750
v 0.375000 0.625000 0.531250
v 0.375000 0.562500 0.468750
v 0.375000 0.562500 0.531250
v 0.312500 0.562500 0.468750
v 0.312500 0.562500 0.531250
v 0.312500 0.062500 0.468750
v 0.312500 0.062500 0.531250
v 0.250000 0.500000 0.468750
v 0.250000 0.500000 0.531250
v 0.312500 0.500000 0.531250
v 0.312500 0.500000 0.468750
v 0.250000 0.437500 0.468750
v 0.250000 0.437500 0.531250
v 0.875000 0.437500 0.531250
v 0.875000 0.437500 0.468750
v 0.187500 0.437500 0.468750
v 0.187500 0.437500 0.531250
v 0.187500 0.125000 0.468750
v 0.187500 0.125000 0.531250
v 0.125000 0.375000 0.468750
v 0.125000 0.375000 0.531250
v 0.187500 0.375000 0.531250
v 0.187500 0.375000 0.468750
v 0.125000 0.250000 0.468750
v 0.125000 0.250000 0.531250
v 0.812500 0.312500 0.531250
v 0.812500 0.312500 0.468750
v 0.625000 0.187500 0.531250
v 0.625000 0.187500 0.468750
v 0.750000 0.187500 0.468750
v 0.750000 0.187500 0.531250
v 0.750000 0.250000 0.531250
v 0.750000 0.250000 0.468750
v 0.625000 0.125000 0.468750
v 0.625000 0.125000 0.531250
v 0.562500 0.062500 0.468750
v 0.562500 0.062500 0.531250
v 0.562500 0.125000 0.531250
v 0.562500 0.125000 0.468750
vn 0.000000 0.000000 -1.000000
vn 0.000000 0.000000 1.000000
vn 0.000000 1.000000 0.000000
vn -1.000000 0.000000 0.000000
vn 1.000000 0.000000 0.000000
vn 0.000000 -1.000000 0.000000
vt 0.281219 0.515594
vt 0.281219 0.500031
vt 0.265656 0.500031
vt 0.265656 0.515594
vt 0.265656 0.515594
vt 0.265656 0.500031
vt 0.281219 0.500031
vt 0.281219 0.515594
vt 0.274422 0.512693
vt 0.274422 0.511721
vt 0.278313 0.511721
vt 0.278313 0.512693
vt 0.275389 0.512693
vt 0.275389 0.511721
vt 0.274416 0.511721
vt 0.274416 0.512693
vt 0.278318 0.512678
vt 0.278318 0.503923
vt 0.277346 0.503923
vt 0.277346 0.512678
vt 0.273449 0.511717
vt 0.273449 0.510744
vt 0.279285 0.510744
vt 0.279285 0.511717
vt 0.274412 0.511717
vt 0.274412 0.510744
vt 0.273439 0.510744
vt 0.273439 0.511717
vt 0.279295 0.511705
vt 0.279295 0.504896
vt 0.278322 0.504896
vt 0.278322 0.511705
vt 0.272476 0.510740
vt 0.272476 0.509768
vt 0.280258 0.509768
vt 0.280258 0.510740
vt 0.273436 0.510740
vt 0.273436 0.509768
vt 0.272463 0.509768
vt 0.272463 0.510740
vt 0.280272 0.510735
vt 0.280272 0.506844
vt 0.279299 0.506844
vt 0.279299 0.510735
vt 0.271486 0.509764
vt 0.271486 0.508791
vt 0.272459 0.508791
vt 0.272459 0.509764
vt 0.272459 0.509764
vt 0.272459 0.508791
vt 0.271486 0.508791
vt 0.271486 0.509764
vt 0.270510 0.508787
vt 0.270510 0.507814
vt 0.271482 0.507814
vt 0.271482 0.508787
vt 0.271482 0.508774
vt 0.271482 0.500992
vt 0.270510 0.500992
vt 0.270510 0.508774
vt 0.269533 0.507811
vt 0.269533 0.506838
vt 0.270506 0.506838
vt 0.270506 0.507811
vt 0.270506 0.507811
vt 0.270506 0.506838
vt 0.269533 0.506838
vt 0.269533 0.507811
vt 0.279299 0.507811
vt 0.279299 0.506838
vt 0.280272 0.506838
vt 0.280272 0.507811
vt 0.268557 0.506834
vt 0.268557 0.505861
vt 0.269529 0.505861
vt 0.269529 0.506834
vt 0.269529 0.506826
vt 0.269529 0.501963
vt 0.268557 0.501963
vt 0.268557 0.506826
vt 0.267580 0.505857
vt 0.267580 0.504885
vt 0.268553 0.504885
vt 0.268553 0.505857
vt 0.268553 0.505856
vt 0.268553 0.503910
vt 0.267580 0.503910
vt 0.267580 0.505856
vt 0.278322 0.505857
vt 0.278322 0.504885
vt 0.279295 0.504885
vt 0.279295 0.505857
vt 0.267599 0.504881
vt 0.267599 0.503908
vt 0.278299 0.503908
vt 0.278299 0.504881
vt 0.275394 0.503904
vt 0.275394 0.502932
vt 0.277340 0.502932
vt 0.277340 0.503904
vt 0.277342 0.503904
vt 0.277342 0.502932
vt 0.276369 0.502932
vt 0.276369 0.503904
vt 0.268568 0.502928
vt 0.268568 0.501955
vt 0.275377 0.501955
vt 0.275377 0.502928
vt 0.275389 0.502928
vt 0.275389 0.501955
vt 0.274416 0.501955
vt 0.274416 0.502928
vt 0.270515 0.501951
vt 0.270515 0.500978
vt 0.274406 0.500978
vt 0.274406 0.501951
vt 0.274412 0.501951
vt 0.274412 0.500978
vt 0.273439 0.500978
vt 0.273439 0.501951
f 1/1/1 2/2/1 3/3/1 4/4/1
f 5/5/2 6/6/2 7/7/2 8/8/2
f 9/9/3 10/10/3 11/11/3 12/12/3
f 9/13/4 13/14/4 14/15/4 10/16/4
f 11/17/5 15/18/5 16/19/5 12/20/5
f 17/21/3 18/22/3 19/23/3 20/24/3
f 17/25/4 21/26/4 22/27/4 18/28/4
f 19/29/5 23/30/5 24/31/5 20/32/5
f 25/33/3 26/34/3 27/35/3 28/36/3
f 25/37/4 29/38/4 30/39/4 26/40/4
f 27/41/5 31/42/5 32/43/5 28/44/5
f 33/45/3 34/46/3 30/47/3 29/48/3
f 33/49/4 35/50/4 36/51/4 34/52/4
f 37/53/3 38/54/3 36/55/3 35/56/3
f 37/57/4 39/58/4 40/59/4 38/60/4
f 41/61/3 42/62/3 43/63/3 44/64/3
f 41/65/4 45/66/4 46/67/4 42/68/4
f 47/69/6 48/70/6 32/71/6 31/72/6
f 49/73/3 50/74/3 46/75/3 45/76/3
f 49/77/4 51/78/4 52/79/4 50/80/4
f 53/81/3 54/82/3 55/83/3 56/84/3
f 53/85/4 57/86/4 58/87/4 54/88/4
f 59/89/6 60/90/6 24/91/6 23/92/6
f 58/93/6 57/94/6 16/95/6 15/96/6
f 61/97/6 62/98/6 63/99/6 64/100/6
f 65/101/5 64/102/5 63/103/5 66/104/5
f 52/105/6 51/106/6 67/107/6 68/108/6
f 61/109/5 68/110/5 67/111/5 62/112/5
f 40/113/6 39/114/6 69/115/6 70/116/6
f 71/117/5 70/118/5 69/119/5 72/120/5
