v 1.000000 1.000000 0.468750
v 1.000000 0.000000 0.468750
v 0.000000 0.000000 0.468750
v 0.000000 1.000000 0.468750
v 0.000000 1.000000 0.531250
v 0.000000 0.000000 0.531250
v 1.000000 0.000000 0.531250
v 1.000000 1.000000 0.531250
v 0.125000 0.875000 0.468750
v 0.125000 0.875000 0.531250
v 0.937500 0.875000 0.531250
v 0.937500 0.875000 0.468750
v 0.125000 0.312500 0.468750
v 0.125000 0.312500 0.531250
v 0.937500 0.312500 0.531250
v 0.937500 0.312500 0.468750
v 0.437500 0.312500 0.468750
v 0.437500 0.000000 0.468750
v 0.437500 0.000000 0.531250
v 0.437500 0.312500 0.531250
v 0.625000 0.312500 0.531250
v 0.625000 0.000000 0.531250
v 0.625000 0.000000 0.468750
v 0.625000 0.312500 0.468750
vn 0.000000 0.000000 -1.000000
vn 0.000000 0.000000 1.000000
vn 0.000000 1.000000 0.000000
vn -1.000000 0.000000 0.000000
vn 1.000000 0.000000 0.000000
vn 0.000000 -1.000000 0.000000
vt 0.390594 0.515594
vt 0.390594 0.500031
vt 0.375031 0.500031
vt 0.375031 0.515594
vt 0.375031 0.515594
vt 0.375031 0.500031
vt 0.390594 0.500031
vt 0.390594 0.515594
vt 0.376978 0.513670
vt 0.376978 0.512697
vt 0.389624 0.512697
vt 0.389624 0.513670
vt 0.377928 0.513655
vt 0.377928 0.504900
vt 0.376955 0.504900
vt 0.376955 0.513655
vt 0.389647 0.513655
vt 0.389647 0.504900
vt 0.388674 0.504900
vt 0.388674 0.513655
vt 0.376978 0.505857
vt 0.376978 0.504885
vt 0.389624 0.504885
vt 0.389624 0.505857
vt 0.382811 0.504873
vt 0.382811 0.500010
vt 0.381838 0.500010
vt 0.381838 0.504873
vt 0.384764 0.504873
vt 0.384764 0.500010
vt 0.383791 0.500010
vt 0.383791 0.504873
vt 0.381842 0.500975
vt 0.381842 0.500002
vt 0.384760 0.500002
vt 0.384760 0.500975
f 1/1/1 2/2/1 3/3/1 4/4/1
f 5/5/2 6/6/2 7/7/2 8/8/2
f 9/9/3 10/10/3 11/11/3 12/12/3
f 9/13/4 13/14/4 14/15/4 10/16/4
f 11/17/5 15/18/5 16/19/5 12/20/5
f 14/21/6 13/22/6 16/23/6 15/24/6
f 17/25/4 18/26/4 19/27/4 20/28/4
f 21/29/5 22/30/5 23/31/5 24/32/5
f 19/33/6 18/34/6 23/35/6 22/36/6
