v 1.000000 1.000000 0.468750
v 1.000000 0.000000 0.468750
v 0.000000 0.000000 0.468750
v 0.000000 1.000000 0.468750
v 0.000000 1.000000 0.531250
v 0.000000 0.000000 0.531250
v 1.000000 0.000000 0.531250
v 1.000000 1.000000 0.531250
v 0.312500 0.750000 0.468750
v 0.312500 0.750000 0.531250
v 0.562500 0.750000 0.531250
v 0.562500 0.750000 0.468750
v 0.312500 0.687500 0.531250
v 0.312500 0.687500 0.468750
v 0.375000 0.687500 0.468750
v 0.375000 0.687500 0.531250
v 0.312500 0.250000 0.468750
v 0.312500 0.250000 0.531250
v 0.375000 0.750000 0.531250
v 0.375000 0.000000 0.531250
v 0.375000 0.000000 0.468750
v 0.375000 0.750000 0.468750
v 0.500000 0.750000 0.468750
v 0.500000 0.187500 0.468750
v 0.500000 0.187500 0.531250
v 0.500000 0.750000 0.531250
v 0.562500 0.125000 0.531250
v 0.562500 0.125000 0.468750
v 0.250000 0.687500 0.468750
v 0.250000 0.687500 0.531250
v 0.687500 0.687500 0.531250
v 0.687500 0.687500 0.468750
v 0.250000 0.000000 0.468750
v 0.250000 0.000000 0.531250
v 0.312500 0.125000 0.531250
v 0.312500 0.125000 0.468750
v 0.375000 0.125000 0.468750
v 0.375000 0.125000 0.531250
v 0.437500 0.687500 0.531250
v 0.437500 0.187500 0.531250
v 0.437500 0.187500 0.468750
v 0.437500 0.687500 0.468750
v 0.625000 0.625000 0.531250
v 0.625000 0.625000 0.468750
v 0.687500 0.625000 0.468750
v 0.687500 0.625000 0.531250
v 0.625000 0.687500 0.468750
v 0.625000 0.125000 0.468750
v 0.625000 0.125000 0.531250
v 0.625000 0.687500 0.531250
v 0.687500 0.187500 0.531250
v 0.687500 0.187500 0.468750
v 0.187500 0.625000 0.468750
v 0.187500 0.625000 0.531250
v 0.750000 0.625000 0.531250
v 0.750000 0.625000 0.468750
v 0.187500 0.562500 0.531250
v 0.187500 0.562500 0.468750
v 0.750000 0.562500 0.468750
v 0.750000 0.562500 0.531250
v 0.187500 0.125000 0.468750
v 0.187500 0.125000 0.531250
v 0.687500 0.000000 0.468750
v 0.687500 0.000000 0.531250
v 0.750000 0.312500 0.531250
v 0.750000 0.312500 0.468750
v 0.125000 0.562500 0.468750
v 0.125000 0.562500 0.531250
v 0.812500 0.562500 0.531250
v 0.812500 0.562500 0.468750
v 0.125000 0.000000 0.468750
v 0.125000 0.000000 0.531250
v 0.187500 0.000000 0.531250
v 0.187500 0.000000 0.468750
v 0.750000 0.500000 0.531250
v 0.750000 0.500000 0.468750
v 0.812500 0.500000 0.468750
v 0.812500 0.500000 0.531250
v 0.812500 0.000000 0.531250
v 0.812500 0.000000 0.468750
v 0.125000 0.437500 0.531250
v 0.125000 0.437500 0.468750
v 0.187500 0.437500 0.468750
v 0.187500 0.437500 0.531250
v 0.437500 0.500000 0.468750
v 0.437500 0.500000 0.531250
v 0.875000 0.500000 0.531250
v 0.875000 0.500000 0.468750
v 0.812500 0.187500 0.468750
v 0.812500 0.187500 0.531250
v 0.875000 0.062500 0.531250
v 0.875000 0.062500 0.468750
v 0.812500 0.437500 0.531250
v 0.812500 0.437500 0.468750
v 0.437500 0.375000 0.531250
v 0.437500 0.375000 0.468750
v 0.812500 0.375000 0.468750
v 0.812500 0.375000 0.531250
v 0.000000 0.375000 0.468750
v 0.000000 0.375000 0.531250
v 0.937500 0.375000 0.531250
v 0.937500 0.375000 0.468750
v 0.000000 0.187500 0.468750
v 0.000000 0.187500 0.531250
v 0.062500 0.312500 0.531250
v 0.062500 0.312500 0.468750
v 0.875000 0.312500 0.468750
v 0.875000 0.312500 0.531250
v 0.125000 0.375000 0.531250
v 0.125000 0.125000 0.531250
v 0.125000 0.125000 0.468750
v 0.125000 0.375000 0.468750
v 0.937500 0.125000 0.531250
v 0.937500 0.125000 0.468750
v 0.062500 0.187500 0.531250
v 0.062500 0.187500 0.468750
v 0.250000 0.312500 0.531250
v 0.250000 0.187500 0.531250
v 0.250000 0.187500 0.468750
v 0.250000 0.312500 0.468750
v 0.375000 0.250000 0.468750
v 0.375000 0.250000 0.531250
v 0.875000 0.250000 0.468750
v 0.875000 0.250000 0.531250
v 0.812500 0.250000 0.468750
v 0.812500 0.250000 0.531250
v 0.062500 0.125000 0.531250
v 0.062500 0.125000 0.468750
v 0.375000 0.062500 0.531250
v 0.375000 0.062500 0.468750
v 0.500000 0.125000 0.531250
v 0.500000 0.000000 0.531250
v 0.500000 0.000000 0.468750
v 0.500000 0.125000 0.468750
v 0.562500 0.000000 0.468750
v 0.562500 0.000000 0.531250
v 0.437500 0.062500 0.468750
v 0.437500 0.000000 0.468750
v 0.437500 0.000000 0.531250
v 0.437500 0.062500 0.531250
v 0.625000 0.062500 0.531250
v 0.625000 0.000000 0.531250
v 0.625000 0.000000 0.468750
v 0.625000 0.062500 0.468750
vn 0.000000 0.000000 -1.000000
vn 0.000000 0.000000 1.000000
vn 0.000000 1.000000 0.000000
vn 0.000000 -1.000000 0.000000
vn -1.000000 0.000000 0.000000
vn 1.000000 0.000000 0.000000
vt 0.265594 0.749969
vt 0.265594 0.734406
vt 0.250031 0.734406
vt 0.250031 0.749969
vt 0.250031 0.749969
vt 0.250031 0.734406
vt 0.265594 0.734406
vt 0.265594 0.749969
vt 0.254890 0.746092
vt 0.254890 0.745119
vt 0.258781 0.745119
vt 0.258781 0.746092
vt 0.254885 0.746092
vt 0.254885 0.745119
vt 0.255857 0.745119
vt 0.255857 0.746092
vt 0.255857 0.746078
vt 0.255857 0.738297
vt 0.254885 0.738297
vt 0.254885 0.746078
vt 0.255857 0.746071
vt 0.255857 0.734398
vt 0.254885 0.734398
vt 0.254885 0.746071
vt 0.258787 0.746077
vt 0.258787 0.737322
vt 0.257814 0.737322
vt 0.257814 0.746077
vt 0.258787 0.746075
vt 0.258787 0.736347
vt 0.257814 0.736347
vt 0.257814 0.746075
vt 0.253920 0.745115
vt 0.253920 0.744143
vt 0.260729 0.744143
vt 0.260729 0.745115
vt 0.254881 0.745096
vt 0.254881 0.734396
vt 0.253908 0.734396
vt 0.253908 0.745096
vt 0.254881 0.745100
vt 0.254881 0.736345
vt 0.253908 0.736345
vt 0.253908 0.745100
vt 0.256834 0.745100
vt 0.256834 0.736345
vt 0.255861 0.736345
vt 0.255861 0.745100
vt 0.256834 0.745102
vt 0.256834 0.737320
vt 0.255861 0.737320
vt 0.255861 0.745102
vt 0.259768 0.745115
vt 0.259768 0.744143
vt 0.260740 0.744143
vt 0.260740 0.745115
vt 0.260740 0.745100
vt 0.260740 0.736345
vt 0.259768 0.736345
vt 0.259768 0.745100
vt 0.260740 0.745102
vt 0.260740 0.737320
vt 0.259768 0.737320
vt 0.259768 0.745102
vt 0.252947 0.744139
vt 0.252947 0.743166
vt 0.261702 0.743166
vt 0.261702 0.744139
vt 0.252947 0.744139
vt 0.252947 0.743166
vt 0.261702 0.743166
vt 0.261702 0.744139
vt 0.253904 0.744125
vt 0.253904 0.736343
vt 0.252932 0.736343
vt 0.252932 0.744125
vt 0.261717 0.744122
vt 0.261717 0.734394
vt 0.260744 0.734394
vt 0.260744 0.744122
vt 0.261717 0.744131
vt 0.261717 0.739267
vt 0.260744 0.739267
vt 0.260744 0.744131
vt 0.251974 0.743162
vt 0.251974 0.742189
vt 0.262674 0.742189
vt 0.262674 0.743162
vt 0.252928 0.743147
vt 0.252928 0.734392
vt 0.251955 0.734392
vt 0.251955 0.743147
vt 0.252928 0.743147
vt 0.252928 0.734392
vt 0.251955 0.734392
vt 0.251955 0.743147
vt 0.261721 0.743162
vt 0.261721 0.742189
vt 0.262693 0.742189
vt 0.262693 0.743162
vt 0.262693 0.743162
vt 0.262693 0.742189
vt 0.261721 0.742189
vt 0.261721 0.743162
vt 0.262693 0.743147
vt 0.262693 0.734392
vt 0.261721 0.734392
vt 0.261721 0.743147
vt 0.251955 0.742186
vt 0.251955 0.741213
vt 0.252928 0.741213
vt 0.252928 0.742186
vt 0.256849 0.742186
vt 0.256849 0.741213
vt 0.263659 0.741213
vt 0.263659 0.742186
vt 0.263670 0.742178
vt 0.263670 0.737314
vt 0.262697 0.737314
vt 0.262697 0.742178
vt 0.263670 0.742174
vt 0.263670 0.735365
vt 0.262697 0.735365
vt 0.262697 0.742174
vt 0.252949 0.741209
vt 0.252949 0.740236
vt 0.262676 0.740236
vt 0.262676 0.741209
vt 0.256847 0.741209
vt 0.256847 0.740236
vt 0.262684 0.740236
vt 0.262684 0.741209
vt 0.250029 0.740232
vt 0.250029 0.739260
vt 0.264620 0.739260
vt 0.264620 0.740232
vt 0.250975 0.740229
vt 0.250975 0.737310
vt 0.250002 0.737310
vt 0.250002 0.740229
vt 0.251001 0.740232
vt 0.251001 0.739260
vt 0.263647 0.739260
vt 0.263647 0.740232
vt 0.251951 0.740227
vt 0.251951 0.736336
vt 0.250978 0.736336
vt 0.250978 0.740227
vt 0.264647 0.740227
vt 0.264647 0.736336
vt 0.263674 0.736336
vt 0.263674 0.740227
vt 0.250975 0.739254
vt 0.250975 0.737309
vt 0.250002 0.737309
vt 0.250002 0.739254
vt 0.253904 0.739254
vt 0.253904 0.737309
vt 0.252932 0.737309
vt 0.252932 0.739254
vt 0.254885 0.739256
vt 0.254885 0.738283
vt 0.255857 0.738283
vt 0.255857 0.739256
vt 0.264647 0.739256
vt 0.264647 0.738283
vt 0.263674 0.738283
vt 0.263674 0.739256
vt 0.250002 0.738279
vt 0.250002 0.737307
vt 0.250975 0.737307
vt 0.250975 0.738279
vt 0.262697 0.738279
vt 0.262697 0.737307
vt 0.263670 0.737307
vt 0.263670 0.738279
vt 0.250999 0.737303
vt 0.250999 0.736330
vt 0.262672 0.736330
vt 0.262672 0.737303
vt 0.251003 0.737303
vt 0.251003 0.736330
vt 0.264622 0.736330
vt 0.264622 0.737303
vt 0.251951 0.737303
vt 0.251951 0.736330
vt 0.250978 0.736330
vt 0.250978 0.737303
vt 0.251968 0.736326
vt 0.251968 0.735353
vt 0.259750 0.735353
vt 0.259750 0.736326
vt 0.255875 0.736326
vt 0.255875 0.735353
vt 0.263657 0.735353
vt 0.263657 0.736326
vt 0.257811 0.736324
vt 0.257811 0.734379
vt 0.256838 0.734379
vt 0.256838 0.736324
vt 0.259764 0.736324
vt 0.259764 0.734379
vt 0.258791 0.734379
vt 0.258791 0.736324
vt 0.251974 0.735350
vt 0.251974 0.734377
vt 0.262674 0.734377
vt 0.262674 0.735350
vt 0.257811 0.735350
vt 0.257811 0.734377
vt 0.256838 0.734377
vt 0.256838 0.735350
vt 0.259764 0.735350
vt 0.259764 0.734377
vt 0.258791 0.734377
vt 0.258791 0.735350
f 1/1/1 2/2/1 3/3/1 4/4/1
f 5/5/2 6/6/2 7/7/2 8/8/2
f 9/9/3 10/10/3 11/11/3 12/12/3
f 13/13/4 14/14/4 15/15/4 16/16/4
f 9/17/5 17/18/5 18/19/5 10/20/5
f 19/21/6 20/22/6 21/23/6 22/24/6
f 23/25/5 24/26/5 25/27/5 26/28/5
f 11/29/6 27/30/6 28/31/6 12/32/6
f 29/33/3 30/34/3 31/35/3 32/36/3
f 29/37/5 33/38/5 34/39/5 30/40/5
f 13/41/6 35/42/6 36/43/6 14/44/6
f 15/45/5 37/46/5 38/47/5 16/48/5
f 39/49/6 40/50/6 41/51/6 42/52/6
f 43/53/4 44/54/4 45/55/4 46/56/4
f 47/57/5 48/58/5 49/59/5 50/60/5
f 31/61/6 51/62/6 52/63/6 32/64/6
f 53/65/3 54/66/3 55/67/3 56/68/3
f 57/69/4 58/70/4 59/71/4 60/72/4
f 53/73/5 61/74/5 62/75/5 54/76/5
f 45/77/5 63/78/5 64/79/5 46/80/5
f 55/81/6 65/82/6 66/83/6 56/84/6
f 67/85/3 68/86/3 69/87/3 70/88/3
f 67/89/5 71/90/5 72/91/5 68/92/5
f 57/93/6 73/94/6 74/95/6 58/96/6
f 75/97/4 76/98/4 77/99/4 78/100/4
f 59/101/5 76/102/5 75/103/5 60/104/5
f 69/105/6 79/106/6 80/107/6 70/108/6
f 81/109/4 82/110/4 83/111/4 84/112/4
f 85/113/3 86/114/3 87/115/3 88/116/3
f 77/117/5 89/118/5 90/119/5 78/120/5
f 87/121/6 91/122/6 92/123/6 88/124/6
f 83/125/3 84/126/3 93/127/3 94/128/3
f 95/129/4 96/130/4 97/131/4 98/132/4
f 99/133/3 100/134/3 101/135/3 102/136/3
f 99/137/5 103/138/5 104/139/5 100/140/5
f 105/141/4 106/142/4 107/143/4 108/144/4
f 109/145/6 110/146/6 111/147/6 112/148/6
f 101/149/6 113/150/6 114/151/6 102/152/6
f 105/153/6 115/154/6 116/155/6 106/156/6
f 117/157/6 118/158/6 119/159/6 120/160/6
f 18/161/4 17/162/4 121/163/4 122/164/4
f 107/165/5 123/166/5 124/167/5 108/168/5
f 104/169/4 103/170/4 116/171/4 115/172/4
f 125/173/3 126/174/3 124/175/3 123/176/3
f 116/177/3 115/178/3 90/179/3 89/180/3
f 127/181/4 128/182/4 114/183/4 113/184/4
f 116/185/5 128/186/5 127/187/5 115/188/5
f 111/189/3 110/190/3 49/191/3 48/192/3
f 129/193/4 130/194/4 92/195/4 91/196/4
f 131/197/6 132/198/6 133/199/6 134/200/6
f 28/201/5 135/202/5 136/203/5 27/204/5
f 72/205/4 71/206/4 80/207/4 79/208/4
f 137/209/5 138/210/5 139/211/5 140/212/5
f 141/213/6 142/214/6 143/215/6 144/216/6
