v 1.000000 1.000000 0.468750
v 1.000000 0.000000 0.468750
v 0.000000 0.000000 0.468750
v 0.000000 1.000000 0.468750
v 0.000000 1.000000 0.531250
v 0.000000 0.000000 0.531250
v 1.000000 0.000000 0.531250
v 1.000000 1.000000 0.531250
v 0.375000 0.750000 0.468750
v 0.375000 0.750000 0.531250
v 0.625000 0.750000 0.531250
v 0.625000 0.750000 0.468750
v 0.375000 0.687500 0.468750
v 0.375000 0.687500 0.531250
v 0.625000 0.687500 0.531250
v 0.625000 0.687500 0.468750
v 0.312500 0.687500 0.468750
v 0.312500 0.687500 0.531250
v 0.687500 0.687500 0.531250
v 0.687500 0.687500 0.468750
v 0.312500 0.500000 0.468750
v 0.312500 0.500000 0.531250
v 0.687500 0.500000 0.531250
v 0.687500 0.500000 0.468750
v 0.187500 0.500000 0.468750
v 0.187500 0.500000 0.531250
v 0.812500 0.500000 0.531250
v 0.812500 0.500000 0.468750
v 0.187500 0.375000 0.468750
v 0.187500 0.375000 0.531250
v 0.812500 0.375000 0.531250
v 0.812500 0.375000 0.468750
v 0.250000 0.312500 0.531250
v 0.250000 0.312500 0.468750
v 0.750000 0.312500 0.468750
v 0.750000 0.312500 0.531250
v 0.250000 0.375000 0.468750
v 0.250000 0.375000 0.531250
v 0.750000 0.375000 0.531250
v 0.750000 0.375000 0.468750
v 0.437500 0.312500 0.468750
v 0.437500 0.000000 0.468750
v 0.437500 0.000000 0.531250
v 0.437500 0.312500 0.531250
v 0.562500 0.312500 0.531250
v 0.562500 0.000000 0.531250
v 0.562500 0.000000 0.468750
v 0.562500 0.312500 0.468750
vn 0.000000 0.000000 -1.000000
vn 0.000000 0.000000 1.000000
vn 0.000000 1.000000 0.000000
vn -1.000000 0.000000 0.000000
vn 1.000000 0.000000 0.000000
vn 0.000000 -1.000000 0.000000
vt 0.203094 0.749969
vt 0.203094 0.734406
vt 0.187531 0.734406
vt 0.187531 0.749969
vt 0.187531 0.749969
vt 0.187531 0.734406
vt 0.203094 0.734406
vt 0.203094 0.749969
vt 0.193367 0.746092
vt 0.193367 0.745119
vt 0.197258 0.745119
vt 0.197258 0.746092
vt 0.194334 0.746092
vt 0.194334 0.745119
vt 0.193361 0.745119
vt 0.193361 0.746092
vt 0.197264 0.746092
vt 0.197264 0.745119
vt 0.196291 0.745119
vt 0.196291 0.746092
vt 0.192394 0.745115
vt 0.192394 0.744143
vt 0.198231 0.744143
vt 0.198231 0.745115
vt 0.193357 0.745111
vt 0.193357 0.742193
vt 0.192385 0.742193
vt 0.192385 0.745111
vt 0.198240 0.745111
vt 0.198240 0.742193
vt 0.197268 0.742193
vt 0.197268 0.745111
vt 0.190449 0.742186
vt 0.190449 0.741213
vt 0.200176 0.741213
vt 0.200176 0.742186
vt 0.191404 0.742184
vt 0.191404 0.740238
vt 0.190432 0.740238
vt 0.190432 0.742184
vt 0.200193 0.742184
vt 0.200193 0.740238
vt 0.199221 0.740238
vt 0.199221 0.742184
vt 0.190449 0.741209
vt 0.190449 0.740236
vt 0.200176 0.740236
vt 0.200176 0.741209
vt 0.191422 0.740232
vt 0.191422 0.739260
vt 0.199203 0.739260
vt 0.199203 0.740232
vt 0.192381 0.740232
vt 0.192381 0.739260
vt 0.191408 0.739260
vt 0.191408 0.740232
vt 0.199217 0.740232
vt 0.199217 0.739260
vt 0.198244 0.739260
vt 0.198244 0.740232
vt 0.195311 0.739248
vt 0.195311 0.734385
vt 0.194338 0.734385
vt 0.194338 0.739248
vt 0.196287 0.739248
vt 0.196287 0.734385
vt 0.195314 0.734385
vt 0.195314 0.739248
vt 0.194340 0.735350
vt 0.194340 0.734377
vt 0.196285 0.734377
vt 0.196285 0.735350
f 1/1/1 2/2/1 3/3/1 4/4/1
f 5/5/2 6/6/2 7/7/2 8/8/2
f 9/9/3 10/10/3 11/11/3 12/12/3
f 9/13/4 13/14/4 14/15/4 10/16/4
f 11/17/5 15/18/5 16/19/5 12/20/5
f 17/21/3 18/22/3 19/23/3 20/24/3
f 17/25/4 21/26/4 22/27/4 18/28/4
f 19/29/5 23/30/5 24/31/5 20/32/5
f 25/33/3 26/34/3 27/35/3 28/36/3
f 25/37/4 29/38/4 30/39/4 26/40/4
f 27/41/5 31/42/5 32/43/5 28/44/5
f 30/45/6 29/46/6 32/47/6 31/48/6
f 33/49/6 34/50/6 35/51/6 36/52/6
f 37/53/4 34/54/4 33/55/4 38/56/4
f 39/57/5 36/58/5 35/59/5 40/60/5
f 41/61/4 42/62/4 43/63/4 44/64/4
f 45/65/5 46/66/5 47/67/5 48/68/5
f 43/69/6 42/70/6 47/71/6 46/72/6
