v 0.062500 0.062500 0.062500
v 0.062500 0.062500 0.937500
v 0.937500 0.062500 0.937500
v 0.937500 0.062500 0.062500
v 0.937500 0.000000 0.062500
v 0.062500 0.000000 0.062500
v 0.062500 0.000000 0.937500
v 0.937500 0.000000 0.937500
vn 0.000000 1.000000 0.000000
vn 0.000000 0.000000 -1.000000
vn 0.000000 0.000000 1.000000
vn -1.000000 0.000000 0.000000
vn 1.000000 0.000000 0.000000
vn 0.000000 -1.000000 0.000000
vt 0.282253 0.889622
vt 0.282253 0.876003
vt 0.295872 0.876003
vt 0.295872 0.889622
vt 0.282253 0.875975
vt 0.282253 0.875002
vt 0.295872 0.875002
vt 0.295872 0.875975
vt 0.282253 0.875975
vt 0.282253 0.875002
vt 0.295872 0.875002
vt 0.295872 0.875975
vt 0.282253 0.875975
vt 0.282253 0.875002
vt 0.295872 0.875002
vt 0.295872 0.875975
vt 0.282253 0.875975
vt 0.282253 0.875002
vt 0.295872 0.875002
vt 0.295872 0.875975
vt 0.282253 0.889622
vt 0.282253 0.876003
vt 0.295872 0.876003
vt 0.295872 0.889622
f 1/1/1 2/2/1 3/3/1 4/4/1
f 4/5/2 5/6/2 6/7/2 1/8/2
f 2/9/3 7/10/3 8/11/3 3/12/3
f 1/13/4 6/14/4 7/15/4 2/16/4
f 3/17/5 8/18/5 5/19/5 4/20/5
f 7/21/6 6/22/6 5/23/6 8/24/6
