v 1.000000 1.000000 0.468750
v 1.000000 0.000000 0.468750
v 0.000000 0.000000 0.468750
v 0.000000 1.000000 0.468750
v 0.000000 1.000000 0.531250
v 0.000000 0.000000 0.531250
v 1.000000 0.000000 0.531250
v 1.000000 1.000000 0.531250
v 0.625000 1.000000 0.468750
v 0.625000 1.000000 0.531250
v 0.687500 1.000000 0.531250
v 0.687500 1.000000 0.468750
v 0.625000 0.062500 0.468750
v 0.625000 0.062500 0.531250
v 0.687500 0.187500 0.531250
v 0.687500 0.187500 0.468750
v 0.500000 0.937500 0.468750
v 0.500000 0.937500 0.531250
v 0.812500 0.937500 0.531250
v 0.812500 0.937500 0.468750
v 0.500000 0.312500 0.468750
v 0.500000 0.312500 0.531250
v 0.562500 0.937500 0.531250
v 0.562500 0.000000 0.531250
v 0.562500 0.000000 0.468750
v 0.562500 0.937500 0.468750
v 0.750000 0.937500 0.468750
v 0.750000 0.187500 0.468750
v 0.750000 0.187500 0.531250
v 0.750000 0.937500 0.531250
v 0.812500 0.125000 0.531250
v 0.812500 0.125000 0.468750
v 0.125000 0.875000 0.468750
v 0.125000 0.875000 0.531250
v 0.625000 0.875000 0.531250
v 0.625000 0.875000 0.468750
v 0.125000 0.187500 0.468750
v 0.125000 0.187500 0.531250
v 0.187500 0.875000 0.531250
v 0.187500 0.437500 0.531250
v 0.187500 0.437500 0.468750
v 0.187500 0.875000 0.468750
v 0.500000 0.812500 0.531250
v 0.500000 0.812500 0.468750
v 0.562500 0.812500 0.468750
v 0.562500 0.812500 0.531250
v 0.250000 0.812500 0.468750
v 0.250000 0.812500 0.531250
v 0.750000 0.812500 0.531250
v 0.750000 0.812500 0.468750
v 0.250000 0.125000 0.468750
v 0.250000 0.125000 0.531250
v 0.312500 0.812500 0.531250
v 0.312500 0.312500 0.531250
v 0.312500 0.312500 0.468750
v 0.312500 0.812500 0.468750
v 0.375000 0.812500 0.468750
v 0.375000 0.687500 0.468750
v 0.375000 0.687500 0.531250
v 0.375000 0.812500 0.531250
v 0.437500 0.812500 0.531250
v 0.437500 0.687500 0.531250
v 0.437500 0.687500 0.468750
v 0.437500 0.812500 0.468750
v 0.562500 0.750000 0.531250
v 0.562500 0.750000 0.468750
v 0.812500 0.750000 0.468750
v 0.812500 0.750000 0.531250
v 0.187500 0.750000 0.468750
v 0.187500 0.750000 0.531250
v 0.500000 0.687500 0.531250
v 0.500000 0.687500 0.468750
v 0.562500 0.687500 0.468750
v 0.562500 0.687500 0.531250
v 0.687500 0.750000 0.468750
v 0.687500 0.312500 0.468750
v 0.687500 0.312500 0.531250
v 0.687500 0.750000 0.531250
v 0.750000 0.750000 0.531250
v 0.750000 0.062500 0.531250
v 0.750000 0.062500 0.468750
v 0.750000 0.750000 0.468750
v 0.125000 0.625000 0.531250
v 0.125000 0.625000 0.468750
v 0.750000 0.625000 0.468750
v 0.750000 0.625000 0.531250
v 0.312500 0.687500 0.468750
v 0.312500 0.687500 0.531250
v 0.875000 0.687500 0.531250
v 0.875000 0.687500 0.468750
v 0.500000 0.625000 0.531250
v 0.500000 0.625000 0.468750
v 0.812500 0.687500 0.468750
v 0.812500 0.250000 0.468750
v 0.812500 0.250000 0.531250
v 0.812500 0.687500 0.531250
v 0.875000 0.375000 0.531250
v 0.875000 0.375000 0.468750
v 0.187500 0.562500 0.531250
v 0.187500 0.562500 0.468750
v 0.875000 0.562500 0.468750
v 0.875000 0.562500 0.531250
v 0.187500 0.625000 0.468750
v 0.187500 0.625000 0.531250
v 0.375000 0.625000 0.531250
v 0.375000 0.562500 0.531250
v 0.375000 0.562500 0.468750
v 0.375000 0.625000 0.468750
v 0.812500 0.625000 0.531250
v 0.812500 0.625000 0.468750
v 0.000000 0.562500 0.468750
v 0.000000 0.562500 0.531250
v 0.500000 0.562500 0.531250
v 0.500000 0.562500 0.468750
v 0.000000 0.312500 0.468750
v 0.000000 0.312500 0.531250
v 0.062500 0.562500 0.531250
v 0.062500 0.375000 0.531250
v 0.062500 0.375000 0.468750
v 0.062500 0.562500 0.468750
v 0.312500 0.500000 0.531250
v 0.312500 0.500000 0.468750
v 0.625000 0.500000 0.468750
v 0.625000 0.500000 0.531250
v 0.312500 0.562500 0.468750
v 0.312500 0.562500 0.531250
v 0.625000 0.562500 0.531250
v 0.625000 0.250000 0.531250
v 0.625000 0.250000 0.468750
v 0.625000 0.562500 0.468750
v 0.125000 0.500000 0.468750
v 0.125000 0.500000 0.531250
v 0.875000 0.500000 0.531250
v 0.875000 0.500000 0.468750
v 0.437500 0.500000 0.468750
v 0.437500 0.000000 0.468750
v 0.437500 0.000000 0.531250
v 0.437500 0.500000 0.531250
v 1.000000 0.437500 0.531250
v 1.000000 0.437500 0.468750
v 0.437500 0.375000 0.531250
v 0.437500 0.375000 0.468750
v 0.500000 0.375000 0.468750
v 0.500000 0.375000 0.531250
v 0.937500 0.437500 0.468750
v 0.937500 0.375000 0.468750
v 0.937500 0.375000 0.531250
v 0.937500 0.437500 0.531250
v 1.000000 0.250000 0.531250
v 1.000000 0.250000 0.468750
v 0.812500 0.312500 0.468750
v 0.812500 0.312500 0.531250
v 0.062500 0.250000 0.531250
v 0.062500 0.250000 0.468750
v 0.062500 0.312500 0.468750
v 0.062500 0.312500 0.531250
v 0.250000 0.312500 0.531250
v 0.250000 0.250000 0.531250
v 0.250000 0.250000 0.468750
v 0.250000 0.312500 0.468750
v 0.437500 0.312500 0.468750
v 0.437500 0.312500 0.531250
v 0.937500 0.187500 0.468750
v 0.937500 0.187500 0.531250
v 0.937500 0.250000 0.531250
v 0.937500 0.250000 0.468750
vn 0.000000 0.000000 -1.000000
vn 0.000000 0.000000 1.000000
vn 0.000000 1.000000 0.000000
vn -1.000000 0.000000 0.000000
vn 1.000000 0.000000 0.000000
vn 0.000000 -1.000000 0.000000
vt 0.312469 0.937469
vt 0.312469 0.921906
vt 0.296906 0.921906
vt 0.296906 0.937469
vt 0.296906 0.937469
vt 0.296906 0.921906
vt 0.312469 0.921906
vt 0.312469 0.937469
vt 0.306643 0.937498
vt 0.306643 0.936525
vt 0.307615 0.936525
vt 0.307615 0.937498
vt 0.307615 0.937471
vt 0.307615 0.922880
vt 0.306643 0.922880
vt 0.306643 0.937471
vt 0.307615 0.937475
vt 0.307615 0.924829
vt 0.306643 0.924829
vt 0.306643 0.937475
vt 0.304697 0.936522
vt 0.304697 0.935549
vt 0.309561 0.935549
vt 0.309561 0.936522
vt 0.305662 0.936504
vt 0.305662 0.926777
vt 0.304689 0.926777
vt 0.304689 0.936504
vt 0.305662 0.936495
vt 0.305662 0.921904
vt 0.304689 0.921904
vt 0.304689 0.936495
vt 0.309568 0.936501
vt 0.309568 0.924828
vt 0.308596 0.924828
vt 0.308596 0.936501
vt 0.309568 0.936499
vt 0.309568 0.923853
vt 0.308596 0.923853
vt 0.308596 0.936499
vt 0.298843 0.935545
vt 0.298843 0.934572
vt 0.306625 0.934572
vt 0.306625 0.935545
vt 0.299803 0.935526
vt 0.299803 0.924826
vt 0.298830 0.924826
vt 0.298830 0.935526
vt 0.299803 0.935534
vt 0.299803 0.928724
vt 0.298830 0.928724
vt 0.298830 0.935534
vt 0.304689 0.935545
vt 0.304689 0.934572
vt 0.305662 0.934572
vt 0.305662 0.935545
vt 0.300797 0.934568
vt 0.300797 0.933596
vt 0.308578 0.933596
vt 0.308578 0.934568
vt 0.301756 0.934549
vt 0.301756 0.923849
vt 0.300783 0.923849
vt 0.300783 0.934549
vt 0.301756 0.934555
vt 0.301756 0.926773
vt 0.300783 0.926773
vt 0.300783 0.934555
vt 0.303709 0.934566
vt 0.303709 0.932621
vt 0.302736 0.932621
vt 0.302736 0.934566
vt 0.303709 0.934566
vt 0.303709 0.932621
vt 0.302736 0.932621
vt 0.302736 0.934566
vt 0.305672 0.934568
vt 0.305672 0.933596
vt 0.309563 0.933596
vt 0.309563 0.934568
vt 0.306639 0.934568
vt 0.306639 0.933596
vt 0.305666 0.933596
vt 0.305666 0.934568
vt 0.299816 0.933592
vt 0.299816 0.932619
vt 0.305653 0.932619
vt 0.305653 0.933592
vt 0.304689 0.933592
vt 0.304689 0.932619
vt 0.305662 0.932619
vt 0.305662 0.933592
vt 0.308592 0.933580
vt 0.308592 0.926771
vt 0.307619 0.926771
vt 0.307619 0.933580
vt 0.308592 0.933573
vt 0.308592 0.922873
vt 0.307619 0.922873
vt 0.307619 0.933573
vt 0.298847 0.932615
vt 0.298847 0.931643
vt 0.308575 0.931643
vt 0.308575 0.932615
vt 0.301775 0.932615
vt 0.301775 0.931643
vt 0.310530 0.931643
vt 0.310530 0.932615
vt 0.304686 0.932615
vt 0.304686 0.931643
vt 0.303713 0.931643
vt 0.303713 0.932615
vt 0.310545 0.932604
vt 0.310545 0.925795
vt 0.309572 0.925795
vt 0.309572 0.932604
vt 0.310545 0.932608
vt 0.310545 0.927744
vt 0.309572 0.927744
vt 0.309572 0.932608
vt 0.299826 0.931639
vt 0.299826 0.930666
vt 0.310526 0.930666
vt 0.310526 0.931639
vt 0.300779 0.931639
vt 0.300779 0.930666
vt 0.299807 0.930666
vt 0.299807 0.931639
vt 0.302732 0.931639
vt 0.302732 0.930666
vt 0.301760 0.930666
vt 0.301760 0.931639
vt 0.304697 0.931639
vt 0.304697 0.930666
vt 0.309561 0.930666
vt 0.309561 0.931639
vt 0.296890 0.930662
vt 0.296890 0.929689
vt 0.304672 0.929689
vt 0.304672 0.930662
vt 0.297850 0.930656
vt 0.297850 0.926765
vt 0.296877 0.926765
vt 0.296877 0.930656
vt 0.297850 0.930658
vt 0.297850 0.927740
vt 0.296877 0.927740
vt 0.296877 0.930658
vt 0.301767 0.930662
vt 0.301767 0.929689
vt 0.306631 0.929689
vt 0.306631 0.930662
vt 0.302732 0.930662
vt 0.302732 0.929689
vt 0.301760 0.929689
vt 0.301760 0.930662
vt 0.306639 0.930655
vt 0.306639 0.925791
vt 0.305666 0.925791
vt 0.305666 0.930655
vt 0.298851 0.929686
vt 0.298851 0.928713
vt 0.310524 0.928713
vt 0.310524 0.929686
vt 0.304686 0.929672
vt 0.304686 0.921890
vt 0.303713 0.921890
vt 0.303713 0.929672
vt 0.299829 0.928709
vt 0.299829 0.927736
vt 0.312475 0.927736
vt 0.312475 0.928709
vt 0.303713 0.928709
vt 0.303713 0.927736
vt 0.304686 0.927736
vt 0.304686 0.928709
vt 0.312498 0.928709
vt 0.312498 0.927736
vt 0.311525 0.927736
vt 0.311525 0.928709
vt 0.312498 0.928705
vt 0.312498 0.925787
vt 0.311525 0.925787
vt 0.311525 0.928705
vt 0.296900 0.927732
vt 0.296900 0.926760
vt 0.309546 0.926760
vt 0.309546 0.927732
vt 0.297878 0.927732
vt 0.297878 0.926760
vt 0.311497 0.926760
vt 0.311497 0.927732
vt 0.297880 0.926756
vt 0.297880 0.925783
vt 0.312471 0.925783
vt 0.312471 0.926756
vt 0.298826 0.926756
vt 0.298826 0.925783
vt 0.297853 0.925783
vt 0.297853 0.926756
vt 0.300779 0.926756
vt 0.300779 0.925783
vt 0.299807 0.925783
vt 0.299807 0.926756
vt 0.303713 0.926756
vt 0.303713 0.925783
vt 0.304686 0.925783
vt 0.304686 0.926756
vt 0.298853 0.925779
vt 0.298853 0.924807
vt 0.311499 0.924807
vt 0.311499 0.925779
vt 0.300798 0.925779
vt 0.300798 0.924807
vt 0.309553 0.924807
vt 0.309553 0.925779
vt 0.311522 0.925779
vt 0.311522 0.924807
vt 0.310549 0.924807
vt 0.310549 0.925779
vt 0.300798 0.924803
vt 0.300798 0.923830
vt 0.309553 0.923830
vt 0.309553 0.924803
vt 0.307619 0.924803
vt 0.307619 0.923830
vt 0.308592 0.923830
vt 0.308592 0.924803
vt 0.306644 0.923826
vt 0.306644 0.922853
vt 0.308590 0.922853
vt 0.308590 0.923826
vt 0.303715 0.922850
vt 0.303715 0.921877
vt 0.305660 0.921877
vt 0.305660 0.922850
f 1/1/1 2/2/1 3/3/1 4/4/1
f 5/5/2 6/6/2 7/7/2 8/8/2
f 9/9/3 10/10/3 11/11/3 12/12/3
f 9/13/4 13/14/4 14/15/4 10/16/4
f 11/17/5 15/18/5 16/19/5 12/20/5
f 17/21/3 18/22/3 19/23/3 20/24/3
f 17/25/4 21/26/4 22/27/4 18/28/4
f 23/29/5 24/30/5 25/31/5 26/32/5
f 27/33/4 28/34/4 29/35/4 30/36/4
f 19/37/5 31/38/5 32/39/5 20/40/5
f 33/41/3 34/42/3 35/43/3 36/44/3
f 33/45/4 37/46/4 38/47/4 34/48/4
f 39/49/5 40/50/5 41/51/5 42/52/5
f 43/53/6 44/54/6 45/55/6 46/56/6
f 47/57/3 48/58/3 49/59/3 50/60/3
f 47/61/4 51/62/4 52/63/4 48/64/4
f 53/65/5 54/66/5 55/67/5 56/68/5
f 57/69/4 58/70/4 59/71/4 60/72/4
f 61/73/5 62/74/5 63/75/5 64/76/5
f 65/77/6 66/78/6 67/79/6 68/80/6
f 45/81/4 66/82/4 65/83/4 46/84/4
f 69/85/3 70/86/3 65/87/3 66/88/3
f 71/89/6 72/90/6 73/91/6 74/92/6
f 75/93/4 76/94/4 77/95/4 78/96/4
f 79/97/5 80/98/5 81/99/5 82/100/5
f 83/101/6 84/102/6 85/103/6 86/104/6
f 87/105/3 88/106/3 89/107/3 90/108/3
f 71/109/5 91/110/5 92/111/5 72/112/5
f 93/113/4 94/114/4 95/115/4 96/116/4
f 89/117/5 97/118/5 98/119/5 90/120/5
f 99/121/6 100/122/6 101/123/6 102/124/6
f 103/125/4 100/126/4 99/127/4 104/128/4
f 105/129/5 106/130/5 107/131/5 108/132/5
f 92/133/3 91/134/3 109/135/3 110/136/3
f 111/137/3 112/138/3 113/139/3 114/140/3
f 111/141/4 115/142/4 116/143/4 112/144/4
f 117/145/5 118/146/5 119/147/5 120/148/5
f 121/149/6 122/150/6 123/151/6 124/152/6
f 125/153/4 122/154/4 121/155/4 126/156/4
f 127/157/5 128/158/5 129/159/5 130/160/5
f 131/161/3 132/162/3 133/163/3 134/164/3
f 135/165/4 136/166/4 137/167/4 138/168/4
f 41/169/3 40/170/3 139/171/3 140/172/3
f 141/173/6 142/174/6 143/175/6 144/176/6
f 145/177/4 146/178/4 147/179/4 148/180/4
f 139/181/5 149/182/5 150/183/5 140/184/5
f 116/185/6 115/186/6 151/187/6 152/188/6
f 119/189/3 118/190/3 147/191/3 146/192/3
f 153/193/6 154/194/6 150/195/6 149/196/6
f 155/197/4 154/198/4 153/199/4 156/200/4
f 157/201/5 158/202/5 159/203/5 160/204/5
f 161/205/3 162/206/3 22/207/3 21/208/3
f 38/209/6 37/210/6 163/211/6 164/212/6
f 159/213/3 158/214/3 95/215/3 94/216/3
f 165/217/5 164/218/5 163/219/5 166/220/5
f 52/221/6 51/222/6 32/223/6 31/224/6
f 16/225/3 15/226/3 29/227/3 28/228/3
f 14/229/6 13/230/6 81/231/6 80/232/6
f 137/233/6 136/234/6 25/235/6 24/236/6
