v 1.000000 1.000000 0.468750
v 1.000000 0.000000 0.468750
v 0.000000 0.000000 0.468750
v 0.000000 1.000000 0.468750
v 0.000000 1.000000 0.531250
v 0.000000 0.000000 0.531250
v 1.000000 0.000000 0.531250
v 1.000000 1.000000 0.531250
v 0.375000 0.687500 0.468750
v 0.375000 0.687500 0.531250
v 0.437500 0.687500 0.531250
v 0.437500 0.687500 0.468750
v 0.375000 0.000000 0.468750
v 0.375000 0.000000 0.531250
v 0.437500 0.250000 0.531250
v 0.437500 0.250000 0.468750
v 0.250000 0.625000 0.468750
v 0.250000 0.625000 0.531250
v 0.812500 0.625000 0.531250
v 0.812500 0.625000 0.468750
v 0.250000 0.562500 0.531250
v 0.250000 0.562500 0.468750
v 0.812500 0.562500 0.468750
v 0.812500 0.562500 0.531250
v 0.250000 0.312500 0.468750
v 0.250000 0.312500 0.531250
v 0.312500 0.625000 0.531250
v 0.312500 0.000000 0.531250
v 0.312500 0.000000 0.468750
v 0.312500 0.625000 0.468750
v 0.500000 0.625000 0.531250
v 0.500000 0.125000 0.531250
v 0.500000 0.125000 0.468750
v 0.500000 0.625000 0.468750
v 0.625000 0.625000 0.468750
v 0.625000 0.250000 0.468750
v 0.625000 0.250000 0.531250
v 0.625000 0.625000 0.531250
v 0.687500 0.625000 0.531250
v 0.687500 0.125000 0.531250
v 0.687500 0.125000 0.468750
v 0.687500 0.625000 0.468750
v 0.750000 0.625000 0.468750
v 0.750000 0.562500 0.468750
v 0.750000 0.562500 0.531250
v 0.750000 0.625000 0.531250
v 0.812500 0.187500 0.531250
v 0.812500 0.187500 0.468750
v 0.062500 0.562500 0.468750
v 0.062500 0.562500 0.531250
v 0.937500 0.562500 0.531250
v 0.937500 0.562500 0.468750
v 0.062500 0.500000 0.531250
v 0.062500 0.500000 0.468750
v 0.500000 0.500000 0.468750
v 0.500000 0.500000 0.531250
v 0.062500 0.062500 0.468750
v 0.062500 0.062500 0.531250
v 0.125000 0.562500 0.531250
v 0.125000 0.187500 0.531250
v 0.125000 0.187500 0.468750
v 0.125000 0.562500 0.468750
v 0.312500 0.562500 0.468750
v 0.312500 0.062500 0.468750
v 0.312500 0.062500 0.531250
v 0.312500 0.562500 0.531250
v 0.750000 0.062500 0.531250
v 0.750000 0.062500 0.468750
v 0.875000 0.562500 0.468750
v 0.875000 0.187500 0.468750
v 0.875000 0.187500 0.531250
v 0.875000 0.562500 0.531250
v 0.937500 0.062500 0.531250
v 0.937500 0.062500 0.468750
v 0.125000 0.500000 0.468750
v 0.125000 0.500000 0.531250
v 1.000000 0.500000 0.531250
v 1.000000 0.500000 0.468750
v 0.125000 0.000000 0.468750
v 0.125000 0.000000 0.531250
v 0.250000 0.500000 0.531250
v 0.250000 0.062500 0.531250
v 0.250000 0.062500 0.468750
v 0.250000 0.500000 0.468750
v 0.375000 0.437500 0.531250
v 0.375000 0.437500 0.468750
v 0.687500 0.437500 0.468750
v 0.687500 0.437500 0.531250
v 0.562500 0.500000 0.468750
v 0.562500 0.125000 0.468750
v 0.562500 0.125000 0.531250
v 0.562500 0.500000 0.531250
v 1.000000 0.187500 0.531250
v 1.000000 0.187500 0.468750
v 0.062500 0.437500 0.468750
v 0.062500 0.437500 0.531250
v 0.875000 0.437500 0.531250
v 0.875000 0.437500 0.468750
v 0.187500 0.375000 0.531250
v 0.187500 0.375000 0.468750
v 1.000000 0.375000 0.468750
v 1.000000 0.375000 0.531250
v 0.375000 0.375000 0.531250
v 0.375000 0.375000 0.468750
v 0.437500 0.437500 0.468750
v 0.437500 0.375000 0.468750
v 0.437500 0.375000 0.531250
v 0.437500 0.437500 0.531250
v 0.687500 0.312500 0.468750
v 0.687500 0.312500 0.531250
v 0.062500 0.312500 0.531250
v 0.062500 0.312500 0.468750
v 0.625000 0.312500 0.468750
v 0.625000 0.312500 0.531250
v 0.187500 0.125000 0.531250
v 0.187500 0.125000 0.468750
v 0.625000 0.375000 0.531250
v 0.625000 0.375000 0.468750
v 0.875000 0.375000 0.531250
v 0.875000 0.000000 0.531250
v 0.875000 0.000000 0.468750
v 0.875000 0.375000 0.468750
v 0.187500 0.312500 0.468750
v 0.187500 0.312500 0.531250
v 0.937500 0.312500 0.531250
v 0.937500 0.312500 0.468750
v 0.187500 0.187500 0.468750
v 0.187500 0.187500 0.531250
v 0.250000 0.250000 0.531250
v 0.250000 0.250000 0.468750
v 0.875000 0.250000 0.468750
v 0.875000 0.250000 0.531250
v 0.062500 0.250000 0.468750
v 0.062500 0.250000 0.531250
v 1.000000 0.250000 0.531250
v 1.000000 0.250000 0.468750
v 0.000000 0.187500 0.468750
v 0.000000 0.187500 0.531250
v 0.000000 0.125000 0.531250
v 0.000000 0.125000 0.468750
v 0.062500 0.125000 0.468750
v 0.062500 0.125000 0.531250
v 0.937500 0.125000 0.531250
v 0.937500 0.125000 0.468750
v 0.812500 0.125000 0.468750
v 0.812500 0.062500 0.468750
v 0.812500 0.062500 0.531250
v 0.812500 0.125000 0.531250
vn 0.000000 0.000000 -1.000000
vn 0.000000 0.000000 1.000000
vn 0.000000 1.000000 0.000000
vn -1.000000 0.000000 0.000000
vn 1.000000 0.000000 0.000000
vn 0.000000 -1.000000 0.000000
vt 0.296844 0.749969
vt 0.296844 0.734406
vt 0.281281 0.734406
vt 0.281281 0.749969
vt 0.281281 0.749969
vt 0.281281 0.734406
vt 0.296844 0.734406
vt 0.296844 0.749969
vt 0.287111 0.745115
vt 0.287111 0.744143
vt 0.288084 0.744143
vt 0.288084 0.745115
vt 0.288084 0.745096
vt 0.288084 0.734396
vt 0.287111 0.734396
vt 0.287111 0.745096
vt 0.288084 0.745104
vt 0.288084 0.738295
vt 0.287111 0.738295
vt 0.287111 0.745104
vt 0.285173 0.744139
vt 0.285173 0.743166
vt 0.293928 0.743166
vt 0.293928 0.744139
vt 0.285173 0.744139
vt 0.285173 0.743166
vt 0.293928 0.743166
vt 0.293928 0.744139
vt 0.286131 0.744131
vt 0.286131 0.739267
vt 0.285158 0.739267
vt 0.285158 0.744131
vt 0.286131 0.744122
vt 0.286131 0.734394
vt 0.285158 0.734394
vt 0.285158 0.744122
vt 0.289061 0.744125
vt 0.289061 0.736343
vt 0.288088 0.736343
vt 0.288088 0.744125
vt 0.291990 0.744129
vt 0.291990 0.738293
vt 0.291018 0.738293
vt 0.291018 0.744129
vt 0.291990 0.744125
vt 0.291990 0.736343
vt 0.291018 0.736343
vt 0.291018 0.744125
vt 0.293943 0.744139
vt 0.293943 0.743166
vt 0.292971 0.743166
vt 0.292971 0.744139
vt 0.293943 0.744127
vt 0.293943 0.737318
vt 0.292971 0.737318
vt 0.292971 0.744127
vt 0.282253 0.743162
vt 0.282253 0.742189
vt 0.295872 0.742189
vt 0.295872 0.743162
vt 0.282240 0.743162
vt 0.282240 0.742189
vt 0.289049 0.742189
vt 0.289049 0.743162
vt 0.283201 0.743149
vt 0.283201 0.735367
vt 0.282228 0.735367
vt 0.282228 0.743149
vt 0.283201 0.743153
vt 0.283201 0.737316
vt 0.282228 0.737316
vt 0.282228 0.743153
vt 0.287107 0.743149
vt 0.287107 0.735367
vt 0.286135 0.735367
vt 0.286135 0.743149
vt 0.292967 0.743149
vt 0.292967 0.735367
vt 0.291994 0.735367
vt 0.291994 0.743149
vt 0.295897 0.743153
vt 0.295897 0.737316
vt 0.294924 0.737316
vt 0.294924 0.743153
vt 0.295897 0.743149
vt 0.295897 0.735367
vt 0.294924 0.735367
vt 0.294924 0.743149
vt 0.283230 0.742186
vt 0.283230 0.741213
vt 0.296848 0.741213
vt 0.296848 0.742186
vt 0.284178 0.742172
vt 0.284178 0.734390
vt 0.283205 0.734390
vt 0.283205 0.742172
vt 0.285154 0.742174
vt 0.285154 0.735365
vt 0.284182 0.735365
vt 0.284182 0.742174
vt 0.287119 0.742186
vt 0.287119 0.741213
vt 0.291983 0.741213
vt 0.291983 0.742186
vt 0.291014 0.742176
vt 0.291014 0.736340
vt 0.290041 0.736340
vt 0.290041 0.742176
vt 0.296873 0.742178
vt 0.296873 0.737314
vt 0.295900 0.737314
vt 0.295900 0.742178
vt 0.282251 0.741209
vt 0.282251 0.740236
vt 0.294897 0.740236
vt 0.294897 0.741209
vt 0.284204 0.741209
vt 0.284204 0.740236
vt 0.296850 0.740236
vt 0.296850 0.741209
vt 0.287107 0.741209
vt 0.287107 0.740236
vt 0.286135 0.740236
vt 0.286135 0.741209
vt 0.289061 0.741209
vt 0.289061 0.740236
vt 0.288088 0.740236
vt 0.288088 0.741209
vt 0.292967 0.741207
vt 0.292967 0.739262
vt 0.291994 0.739262
vt 0.291994 0.741207
vt 0.282244 0.740232
vt 0.282244 0.739260
vt 0.290998 0.739260
vt 0.290998 0.740232
vt 0.284178 0.740227
vt 0.284178 0.736336
vt 0.283205 0.736336
vt 0.283205 0.740227
vt 0.287117 0.740232
vt 0.287117 0.739260
vt 0.291008 0.739260
vt 0.291008 0.740232
vt 0.291014 0.740232
vt 0.291014 0.739260
vt 0.290041 0.739260
vt 0.290041 0.740232
vt 0.294920 0.740223
vt 0.294920 0.734386
vt 0.293947 0.734386
vt 0.293947 0.740223
vt 0.284203 0.739256
vt 0.284203 0.738283
vt 0.295876 0.738283
vt 0.295876 0.739256
vt 0.285154 0.739254
vt 0.285154 0.737309
vt 0.284182 0.737309
vt 0.284182 0.739254
vt 0.285175 0.739256
vt 0.285175 0.738283
vt 0.294903 0.738283
vt 0.294903 0.739256
vt 0.282255 0.738279
vt 0.282255 0.737307
vt 0.296846 0.737307
vt 0.296846 0.738279
vt 0.284204 0.738279
vt 0.284204 0.737307
vt 0.296850 0.737307
vt 0.296850 0.738279
vt 0.281256 0.737303
vt 0.281256 0.736330
vt 0.284174 0.736330
vt 0.284174 0.737303
vt 0.281252 0.737303
vt 0.281252 0.736330
vt 0.282225 0.736330
vt 0.282225 0.737303
vt 0.282225 0.737303
vt 0.282225 0.736330
vt 0.281252 0.736330
vt 0.281252 0.737303
vt 0.282253 0.736326
vt 0.282253 0.735353
vt 0.295872 0.735353
vt 0.295872 0.736326
vt 0.284203 0.736326
vt 0.284203 0.735353
vt 0.295876 0.735353
vt 0.295876 0.736326
vt 0.294920 0.736326
vt 0.294920 0.735353
vt 0.293947 0.735353
vt 0.293947 0.736326
vt 0.283226 0.735350
vt 0.283226 0.734377
vt 0.294899 0.734377
vt 0.294899 0.735350
vt 0.285173 0.735350
vt 0.285173 0.734377
vt 0.293928 0.734377
vt 0.293928 0.735350
f 1/1/1 2/2/1 3/3/1 4/4/1
f 5/5/2 6/6/2 7/7/2 8/8/2
f 9/9/3 10/10/3 11/11/3 12/12/3
f 9/13/4 13/14/4 14/15/4 10/16/4
f 11/17/5 15/18/5 16/19/5 12/20/5
f 17/21/3 18/22/3 19/23/3 20/24/3
f 21/25/6 22/26/6 23/27/6 24/28/6
f 17/29/4 25/30/4 26/31/4 18/32/4
f 27/33/5 28/34/5 29/35/5 30/36/5
f 31/37/5 32/38/5 33/39/5 34/40/5
f 35/41/4 36/42/4 37/43/4 38/44/4
f 39/45/5 40/46/5 41/47/5 42/48/5
f 43/49/4 44/50/4 45/51/4 46/52/4
f 19/53/5 47/54/5 48/55/5 20/56/5
f 49/57/3 50/58/3 51/59/3 52/60/3
f 53/61/6 54/62/6 55/63/6 56/64/6
f 49/65/4 57/66/4 58/67/4 50/68/4
f 59/69/5 60/70/5 61/71/5 62/72/5
f 63/73/4 64/74/4 65/75/4 66/76/4
f 45/77/5 67/78/5 68/79/5 44/80/5
f 69/81/4 70/82/4 71/83/4 72/84/4
f 51/85/5 73/86/5 74/87/5 52/88/5
f 75/89/3 76/90/3 77/91/3 78/92/3
f 75/93/4 79/94/4 80/95/4 76/96/4
f 81/97/5 82/98/5 83/99/5 84/100/5
f 85/101/6 86/102/6 87/103/6 88/104/6
f 89/105/4 90/106/4 91/107/4 92/108/4
f 77/109/5 93/110/5 94/111/5 78/112/5
f 95/113/3 96/114/3 97/115/3 98/116/3
f 99/117/6 100/118/6 101/119/6 102/120/6
f 85/121/5 103/122/5 104/123/5 86/124/5
f 105/125/4 106/126/4 107/127/4 108/128/4
f 87/129/4 109/130/4 110/131/4 88/132/4
f 111/133/6 112/134/6 113/135/6 114/136/6
f 99/137/5 115/138/5 116/139/5 100/140/5
f 104/141/3 103/142/3 117/143/3 118/144/3
f 117/145/5 114/146/5 113/147/5 118/148/5
f 119/149/5 120/150/5 121/151/5 122/152/5
f 123/153/3 124/154/3 125/155/3 126/156/3
f 123/157/4 127/158/4 128/159/4 124/160/4
f 129/161/6 130/162/6 131/163/6 132/164/6
f 133/165/3 134/166/3 135/167/3 136/168/3
f 128/169/6 127/170/6 94/171/6 93/172/6
f 137/173/3 138/174/3 128/175/3 127/176/3
f 139/177/6 140/178/6 141/179/6 142/180/6
f 137/181/4 140/182/4 139/183/4 138/184/4
f 58/185/6 57/186/6 74/187/6 73/188/6
f 116/189/3 115/190/3 143/191/3 144/192/3
f 145/193/4 146/194/4 147/195/4 148/196/4
f 80/197/6 79/198/6 121/199/6 120/200/6
f 83/201/3 82/202/3 147/203/3 146/204/3
