v 1.000000 1.000000 0.468750
v 1.000000 0.000000 0.468750
v 0.000000 0.000000 0.468750
v 0.000000 1.000000 0.468750
v 0.000000 1.000000 0.531250
v 0.000000 0.000000 0.531250
v 1.000000 0.000000 0.531250
v 1.000000 1.000000 0.531250
v 0.687500 1.000000 0.468750
v 0.687500 1.000000 0.531250
v 0.750000 1.000000 0.531250
v 0.750000 1.000000 0.468750
v 0.687500 0.125000 0.468750
v 0.687500 0.125000 0.531250
v 0.750000 0.062500 0.531250
v 0.750000 0.062500 0.468750
v 0.250000 0.937500 0.468750
v 0.250000 0.937500 0.531250
v 0.687500 0.937500 0.531250
v 0.687500 0.937500 0.468750
v 0.250000 0.250000 0.468750
v 0.250000 0.250000 0.531250
v 0.312500 0.937500 0.531250
v 0.312500 0.562500 0.531250
v 0.312500 0.562500 0.468750
v 0.312500 0.937500 0.468750
v 0.625000 0.937500 0.468750
v 0.625000 0.812500 0.468750
v 0.625000 0.812500 0.531250
v 0.625000 0.937500 0.531250
v 0.687500 0.875000 0.531250
v 0.687500 0.875000 0.468750
v 0.750000 0.875000 0.468750
v 0.750000 0.875000 0.531250
v 0.500000 0.875000 0.468750
v 0.500000 0.875000 0.531250
v 0.562500 0.875000 0.531250
v 0.562500 0.875000 0.468750
v 0.500000 0.250000 0.468750
v 0.500000 0.250000 0.531250
v 0.562500 0.625000 0.531250
v 0.562500 0.625000 0.468750
v 0.687500 0.250000 0.531250
v 0.687500 0.250000 0.468750
v 0.250000 0.750000 0.531250
v 0.250000 0.750000 0.468750
v 0.687500 0.750000 0.468750
v 0.687500 0.750000 0.531250
v 0.312500 0.812500 0.468750
v 0.312500 0.812500 0.531250
v 0.375000 0.812500 0.531250
v 0.375000 0.250000 0.531250
v 0.375000 0.250000 0.468750
v 0.375000 0.812500 0.468750
v 0.312500 0.750000 0.468750
v 0.312500 0.187500 0.468750
v 0.312500 0.187500 0.531250
v 0.312500 0.750000 0.531250
v 0.375000 0.750000 0.468750
v 0.375000 0.750000 0.531250
v 0.750000 0.750000 0.531250
v 0.750000 0.750000 0.468750
v 0.437500 0.750000 0.531250
v 0.437500 0.687500 0.531250
v 0.437500 0.687500 0.468750
v 0.437500 0.750000 0.468750
v 0.562500 0.687500 0.531250
v 0.562500 0.687500 0.468750
v 0.750000 0.687500 0.468750
v 0.750000 0.687500 0.531250
v 0.625000 0.750000 0.531250
v 0.625000 0.000000 0.531250
v 0.625000 0.000000 0.468750
v 0.625000 0.750000 0.468750
v 0.312500 0.625000 0.531250
v 0.312500 0.625000 0.468750
v 0.375000 0.625000 0.468750
v 0.375000 0.625000 0.531250
v 0.500000 0.687500 0.531250
v 0.500000 0.687500 0.468750
v 0.125000 0.625000 0.468750
v 0.125000 0.625000 0.531250
v 0.937500 0.625000 0.531250
v 0.937500 0.625000 0.468750
v 0.125000 0.562500 0.531250
v 0.125000 0.562500 0.468750
v 0.937500 0.562500 0.468750
v 0.937500 0.562500 0.531250
v 0.375000 0.125000 0.468750
v 0.375000 0.125000 0.531250
v 0.812500 0.625000 0.468750
v 0.812500 0.562500 0.468750
v 0.812500 0.562500 0.531250
v 0.812500 0.625000 0.531250
v 0.187500 0.500000 0.531250
v 0.187500 0.500000 0.468750
v 0.875000 0.500000 0.468750
v 0.875000 0.500000 0.531250
v 0.187500 0.562500 0.468750
v 0.187500 0.562500 0.531250
v 0.437500 0.562500 0.468750
v 0.437500 0.000000 0.468750
v 0.437500 0.000000 0.531250
v 0.437500 0.562500 0.531250
v 0.875000 0.562500 0.531250
v 0.875000 0.562500 0.468750
v 0.312500 0.437500 0.531250
v 0.312500 0.437500 0.468750
v 0.750000 0.437500 0.468750
v 0.750000 0.437500 0.531250
v 0.375000 0.500000 0.468750
v 0.375000 0.500000 0.531250
v 0.687500 0.500000 0.531250
v 0.687500 0.500000 0.468750
v 0.375000 0.375000 0.531250
v 0.375000 0.375000 0.468750
v 0.687500 0.375000 0.468750
v 0.687500 0.375000 0.531250
v 0.437500 0.312500 0.531250
v 0.437500 0.312500 0.468750
v 0.500000 0.312500 0.468750
v 0.500000 0.312500 0.531250
v 0.250000 0.312500 0.468750
v 0.250000 0.312500 0.531250
v 0.687500 0.312500 0.531250
v 0.687500 0.312500 0.468750
v 0.375000 0.187500 0.468750
v 0.375000 0.187500 0.531250
v 0.812500 0.125000 0.468750
v 0.812500 0.125000 0.531250
v 0.687500 0.187500 0.468750
v 0.687500 0.187500 0.531250
v 0.812500 0.187500 0.531250
v 0.812500 0.187500 0.468750
v 0.625000 0.125000 0.468750
v 0.625000 0.125000 0.531250
v 0.625000 0.062500 0.531250
v 0.625000 0.062500 0.468750
vn 0.000000 0.000000 -1.000000
vn 0.000000 0.000000 1.000000
vn 0.000000 1.000000 0.000000
vn -1.000000 0.000000 0.000000
vn 1.000000 0.000000 0.000000
vn 0.000000 -1.000000 0.000000
vt 0.312469 0.953094
vt 0.312469 0.937531
vt 0.296906 0.937531
vt 0.296906 0.953094
vt 0.296906 0.953094
vt 0.296906 0.937531
vt 0.312469 0.937531
vt 0.312469 0.953094
vt 0.307619 0.953123
vt 0.307619 0.952150
vt 0.308592 0.952150
vt 0.308592 0.953123
vt 0.308592 0.953098
vt 0.308592 0.939480
vt 0.307619 0.939480
vt 0.307619 0.953098
vt 0.308592 0.953096
vt 0.308592 0.938505
vt 0.307619 0.938505
vt 0.307619 0.953096
vt 0.300795 0.952147
vt 0.300795 0.951174
vt 0.307604 0.951174
vt 0.307604 0.952147
vt 0.301756 0.952127
vt 0.301756 0.941427
vt 0.300783 0.941427
vt 0.300783 0.952127
vt 0.301756 0.952137
vt 0.301756 0.946301
vt 0.300783 0.946301
vt 0.300783 0.952137
vt 0.307615 0.952145
vt 0.307615 0.950199
vt 0.306643 0.950199
vt 0.306643 0.952145
vt 0.307619 0.952147
vt 0.307619 0.951174
vt 0.308592 0.951174
vt 0.308592 0.952147
vt 0.304689 0.951170
vt 0.304689 0.950197
vt 0.305662 0.950197
vt 0.305662 0.951170
vt 0.305662 0.951153
vt 0.305662 0.941425
vt 0.304689 0.941425
vt 0.304689 0.951153
vt 0.305662 0.951164
vt 0.305662 0.947273
vt 0.304689 0.947273
vt 0.304689 0.951164
vt 0.307615 0.951153
vt 0.307615 0.941425
vt 0.306643 0.941425
vt 0.306643 0.951153
vt 0.300795 0.950193
vt 0.300795 0.949221
vt 0.307604 0.949221
vt 0.307604 0.950193
vt 0.301767 0.950193
vt 0.301767 0.949221
vt 0.306631 0.949221
vt 0.306631 0.950193
vt 0.302732 0.950178
vt 0.302732 0.941423
vt 0.301760 0.941423
vt 0.301760 0.950178
vt 0.302732 0.949202
vt 0.302732 0.940447
vt 0.301760 0.940447
vt 0.301760 0.949202
vt 0.302746 0.949217
vt 0.302746 0.948244
vt 0.308582 0.948244
vt 0.308582 0.949217
vt 0.303709 0.949217
vt 0.303709 0.948244
vt 0.302736 0.948244
vt 0.302736 0.949217
vt 0.305670 0.949217
vt 0.305670 0.948244
vt 0.308588 0.948244
vt 0.308588 0.949217
vt 0.306639 0.949196
vt 0.306639 0.937523
vt 0.305666 0.937523
vt 0.305666 0.949196
vt 0.301760 0.948240
vt 0.301760 0.947268
vt 0.302732 0.947268
vt 0.302732 0.948240
vt 0.303713 0.948240
vt 0.303713 0.947268
vt 0.304686 0.947268
vt 0.304686 0.948240
vt 0.298853 0.947264
vt 0.298853 0.946291
vt 0.311499 0.946291
vt 0.311499 0.947264
vt 0.298853 0.947264
vt 0.298853 0.946291
vt 0.311499 0.946291
vt 0.311499 0.947264
vt 0.299803 0.947264
vt 0.299803 0.946291
vt 0.298830 0.946291
vt 0.298830 0.947264
vt 0.303709 0.947250
vt 0.303709 0.939468
vt 0.302736 0.939468
vt 0.302736 0.947250
vt 0.310545 0.947264
vt 0.310545 0.946291
vt 0.309572 0.946291
vt 0.309572 0.947264
vt 0.311522 0.947264
vt 0.311522 0.946291
vt 0.310549 0.946291
vt 0.310549 0.947264
vt 0.299826 0.946287
vt 0.299826 0.945314
vt 0.310526 0.945314
vt 0.310526 0.946287
vt 0.300779 0.946287
vt 0.300779 0.945314
vt 0.299807 0.945314
vt 0.299807 0.946287
vt 0.301773 0.946287
vt 0.301773 0.945314
vt 0.309555 0.945314
vt 0.309555 0.946287
vt 0.304686 0.946272
vt 0.304686 0.937517
vt 0.303713 0.937517
vt 0.303713 0.946272
vt 0.310545 0.946287
vt 0.310545 0.945314
vt 0.309572 0.945314
vt 0.309572 0.946287
vt 0.301771 0.945311
vt 0.301771 0.944338
vt 0.308580 0.944338
vt 0.308580 0.945311
vt 0.302744 0.945311
vt 0.302744 0.944338
vt 0.307608 0.944338
vt 0.307608 0.945311
vt 0.302744 0.944334
vt 0.302744 0.943361
vt 0.307608 0.943361
vt 0.307608 0.944334
vt 0.303713 0.943357
vt 0.303713 0.942385
vt 0.304686 0.942385
vt 0.304686 0.943357
vt 0.300795 0.942381
vt 0.300795 0.941408
vt 0.307604 0.941408
vt 0.307604 0.942381
vt 0.300795 0.942381
vt 0.300795 0.941408
vt 0.307604 0.941408
vt 0.307604 0.942381
vt 0.301760 0.941404
vt 0.301760 0.940432
vt 0.302732 0.940432
vt 0.302732 0.941404
vt 0.302738 0.941404
vt 0.302738 0.940432
vt 0.304684 0.940432
vt 0.304684 0.941404
vt 0.302748 0.940428
vt 0.302748 0.939455
vt 0.309557 0.939455
vt 0.309557 0.940428
vt 0.307621 0.940428
vt 0.307621 0.939455
vt 0.309566 0.939455
vt 0.309566 0.940428
vt 0.309568 0.940428
vt 0.309568 0.939455
vt 0.308596 0.939455
vt 0.308596 0.940428
vt 0.306643 0.939451
vt 0.306643 0.938478
vt 0.307615 0.938478
vt 0.307615 0.939451
vt 0.306644 0.939451
vt 0.306644 0.938478
vt 0.308590 0.938478
vt 0.308590 0.939451
vt 0.303717 0.938475
vt 0.303717 0.937502
vt 0.306635 0.937502
vt 0.306635 0.938475
f 1/1/1 2/2/1 3/3/1 4/4/1
f 5/5/2 6/6/2 7/7/2 8/8/2
f 9/9/3 10/10/3 11/11/3 12/12/3
f 9/13/4 13/14/4 14/15/4 10/16/4
f 11/17/5 15/18/5 16/19/5 12/20/5
f 17/21/3 18/22/3 19/23/3 20/24/3
f 17/25/4 21/26/4 22/27/4 18/28/4
f 23/29/5 24/30/5 25/31/5 26/32/5
f 27/33/4 28/34/4 29/35/4 30/36/4
f 31/37/6 32/38/6 33/39/6 34/40/6
f 35/41/3 36/42/3 37/43/3 38/44/3
f 35/45/4 39/46/4 40/47/4 36/48/4
f 37/49/5 41/50/5 42/51/5 38/52/5
f 31/53/5 43/54/5 44/55/5 32/56/5
f 45/57/6 46/58/6 47/59/6 48/60/6
f 49/61/3 50/62/3 29/63/3 28/64/3
f 51/65/5 52/66/5 53/67/5 54/68/5
f 55/69/4 56/70/4 57/71/4 58/72/4
f 59/73/3 60/74/3 61/75/3 62/76/3
f 63/77/5 64/78/5 65/79/5 66/80/5
f 67/81/6 68/82/6 69/83/6 70/84/6
f 71/85/5 72/86/5 73/87/5 74/88/5
f 75/89/6 76/90/6 77/91/6 78/92/6
f 65/93/3 64/94/3 79/95/3 80/96/3
f 81/97/3 82/98/3 83/99/3 84/100/3
f 85/101/6 86/102/6 87/103/6 88/104/6
f 81/105/4 86/106/4 85/107/4 82/108/4
f 77/109/4 89/110/4 90/111/4 78/112/4
f 91/113/4 92/114/4 93/115/4 94/116/4
f 83/117/5 88/118/5 87/119/5 84/120/5
f 95/121/6 96/122/6 97/123/6 98/124/6
f 99/125/4 96/126/4 95/127/4 100/128/4
f 25/129/3 24/130/3 93/131/3 92/132/3
f 101/133/4 102/134/4 103/135/4 104/136/4
f 105/137/5 98/138/5 97/139/5 106/140/5
f 107/141/6 108/142/6 109/143/6 110/144/6
f 111/145/3 112/146/3 113/147/3 114/148/3
f 115/149/6 116/150/6 117/151/6 118/152/6
f 119/153/6 120/154/6 121/155/6 122/156/6
f 123/157/3 124/158/3 125/159/3 126/160/3
f 22/161/6 21/162/6 44/163/6 43/164/6
f 57/165/6 56/166/6 127/167/6 128/168/6
f 53/169/3 52/170/3 40/171/3 39/172/3
f 90/173/6 89/174/6 129/175/6 130/176/6
f 131/177/3 132/178/3 133/179/3 134/180/3
f 133/181/5 130/182/5 129/183/5 134/184/5
f 135/185/3 136/186/3 14/187/3 13/188/3
f 137/189/6 138/190/6 16/191/6 15/192/6
f 103/193/6 102/194/6 73/195/6 72/196/6
