v 1.000000 1.000000 0.468750
v 1.000000 0.000000 0.468750
v 0.000000 0.000000 0.468750
v 0.000000 1.000000 0.468750
v 0.000000 1.000000 0.531250
v 0.000000 0.000000 0.531250
v 1.000000 0.000000 0.531250
v 1.000000 1.000000 0.531250
v 0.250000 0.812500 0.468750
v 0.250000 0.812500 0.531250
v 0.750000 0.812500 0.531250
v 0.750000 0.812500 0.468750
v 0.250000 0.750000 0.468750
v 0.250000 0.750000 0.531250
v 0.437500 0.812500 0.531250
v 0.437500 0.250000 0.531250
v 0.437500 0.250000 0.468750
v 0.437500 0.812500 0.468750
v 0.562500 0.812500 0.468750
v 0.562500 0.250000 0.468750
v 0.562500 0.250000 0.531250
v 0.562500 0.812500 0.531250
v 0.750000 0.750000 0.531250
v 0.750000 0.750000 0.468750
v 0.187500 0.750000 0.468750
v 0.187500 0.750000 0.531250
v 0.812500 0.750000 0.531250
v 0.812500 0.750000 0.468750
v 0.187500 0.437500 0.468750
v 0.187500 0.437500 0.531250
v 0.812500 0.437500 0.531250
v 0.812500 0.437500 0.468750
v 0.125000 0.437500 0.468750
v 0.125000 0.437500 0.531250
v 0.875000 0.437500 0.531250
v 0.875000 0.437500 0.468750
v 0.125000 0.375000 0.468750
v 0.125000 0.375000 0.531250
v 0.875000 0.375000 0.531250
v 0.875000 0.375000 0.468750
v 0.062500 0.375000 0.468750
v 0.062500 0.375000 0.531250
v 0.937500 0.375000 0.531250
v 0.937500 0.375000 0.468750
v 0.062500 0.187500 0.468750
v 0.062500 0.187500 0.531250
v 0.937500 0.187500 0.531250
v 0.937500 0.187500 0.468750
v 0.312500 0.250000 0.531250
v 0.312500 0.250000 0.468750
v 0.687500 0.250000 0.468750
v 0.687500 0.250000 0.531250
v 0.312500 0.187500 0.531250
v 0.312500 0.187500 0.468750
v 0.687500 0.187500 0.468750
v 0.687500 0.187500 0.531250
vn 0.000000 0.000000 -1.000000
vn 0.000000 0.000000 1.000000
vn 0.000000 1.000000 0.000000
vn -1.000000 0.000000 0.000000
vn 1.000000 0.000000 0.000000
vn 0.000000 -1.000000 0.000000
vt 0.093719 0.499969
vt 0.093719 0.484406
vt 0.078156 0.484406
vt 0.078156 0.499969
vt 0.078156 0.499969
vt 0.078156 0.484406
vt 0.093719 0.484406
vt 0.093719 0.499969
vt 0.082047 0.497068
vt 0.082047 0.496096
vt 0.089828 0.496096
vt 0.089828 0.497068
vt 0.083006 0.497068
vt 0.083006 0.496096
vt 0.082033 0.496096
vt 0.082033 0.497068
vt 0.084959 0.497053
vt 0.084959 0.488298
vt 0.083986 0.488298
vt 0.083986 0.497053
vt 0.087889 0.497053
vt 0.087889 0.488298
vt 0.086916 0.488298
vt 0.086916 0.497053
vt 0.089842 0.497068
vt 0.089842 0.496096
vt 0.088869 0.496096
vt 0.088869 0.497068
vt 0.081074 0.496092
vt 0.081074 0.495119
vt 0.090801 0.495119
vt 0.090801 0.496092
vt 0.082029 0.496084
vt 0.082029 0.491220
vt 0.081057 0.491220
vt 0.081057 0.496084
vt 0.090818 0.496084
vt 0.090818 0.491220
vt 0.089846 0.491220
vt 0.089846 0.496084
vt 0.080101 0.491209
vt 0.080101 0.490236
vt 0.091774 0.490236
vt 0.091774 0.491209
vt 0.081053 0.491209
vt 0.081053 0.490236
vt 0.080080 0.490236
vt 0.080080 0.491209
vt 0.091795 0.491209
vt 0.091795 0.490236
vt 0.090822 0.490236
vt 0.090822 0.491209
vt 0.079128 0.490232
vt 0.079128 0.489260
vt 0.092747 0.489260
vt 0.092747 0.490232
vt 0.080076 0.490229
vt 0.080076 0.487310
vt 0.079103 0.487310
vt 0.079103 0.490229
vt 0.092772 0.490229
vt 0.092772 0.487310
vt 0.091799 0.487310
vt 0.091799 0.490229
vt 0.083019 0.489256
vt 0.083019 0.488283
vt 0.088856 0.488283
vt 0.088856 0.489256
vt 0.079128 0.488279
vt 0.079128 0.487307
vt 0.092747 0.487307
vt 0.092747 0.488279
vt 0.083006 0.488279
vt 0.083006 0.487307
vt 0.082033 0.487307
vt 0.082033 0.488279
vt 0.089842 0.488279
vt 0.089842 0.487307
vt 0.088869 0.487307
vt 0.088869 0.488279
f 1/1/1 2/2/1 3/3/1 4/4/1
f 5/5/2 6/6/2 7/7/2 8/8/2
f 9/9/3 10/10/3 11/11/3 12/12/3
f 9/13/4 13/14/4 14/15/4 10/16/4
f 15/17/5 16/18/5 17/19/5 18/20/5
f 19/21/4 20/22/4 21/23/4 22/24/4
f 11/25/5 23/26/5 24/27/5 12/28/5
f 25/29/3 26/30/3 27/31/3 28/32/3
f 25/33/4 29/34/4 30/35/4 26/36/4
f 27/37/5 31/38/5 32/39/5 28/40/5
f 33/41/3 34/42/3 35/43/3 36/44/3
f 33/45/4 37/46/4 38/47/4 34/48/4
f 35/49/5 39/50/5 40/51/5 36/52/5
f 41/53/3 42/54/3 43/55/3 44/56/3
f 41/57/4 45/58/4 46/59/4 42/60/4
f 43/61/5 47/62/5 48/63/5 44/64/5
f 49/65/6 50/66/6 51/67/6 52/68/6
f 46/69/6 45/70/6 48/71/6 47/72/6
f 49/73/5 53/74/5 54/75/5 50/76/5
f 51/77/4 55/78/4 56/79/4 52/80/4
