v 1.000000 1.000000 0.468750
v 1.000000 0.000000 0.468750
v 0.000000 0.000000 0.468750
v 0.000000 1.000000 0.468750
v 0.000000 1.000000 0.531250
v 0.000000 0.000000 0.531250
v 1.000000 0.000000 0.531250
v 1.000000 1.000000 0.531250
v 0.375000 0.875000 0.468750
v 0.375000 0.875000 0.531250
v 0.687500 0.875000 0.531250
v 0.687500 0.875000 0.468750
v 0.375000 0.375000 0.468750
v 0.375000 0.375000 0.531250
v 0.687500 0.500000 0.531250
v 0.687500 0.500000 0.468750
v 0.312500 0.812500 0.468750
v 0.312500 0.812500 0.531250
v 0.875000 0.812500 0.531250
v 0.875000 0.812500 0.468750
v 0.312500 0.750000 0.531250
v 0.312500 0.750000 0.468750
v 0.375000 0.750000 0.468750
v 0.375000 0.750000 0.531250
v 0.312500 0.312500 0.468750
v 0.312500 0.312500 0.531250
v 0.875000 0.250000 0.531250
v 0.875000 0.250000 0.468750
v 0.375000 0.687500 0.531250
v 0.375000 0.687500 0.468750
v 0.625000 0.687500 0.468750
v 0.625000 0.687500 0.531250
v 0.625000 0.625000 0.468750
v 0.625000 0.625000 0.531250
v 0.562500 0.625000 0.468750
v 0.562500 0.625000 0.531250
v 0.937500 0.625000 0.531250
v 0.937500 0.625000 0.468750
v 0.562500 0.562500 0.468750
v 0.562500 0.562500 0.531250
v 0.687500 0.562500 0.531250
v 0.687500 0.562500 0.468750
v 0.750000 0.562500 0.468750
v 0.750000 0.562500 0.531250
v 0.937500 0.312500 0.531250
v 0.937500 0.312500 0.468750
v 0.500000 0.562500 0.468750
v 0.500000 0.562500 0.531250
v 0.500000 0.500000 0.468750
v 0.500000 0.500000 0.531250
v 0.625000 0.500000 0.531250
v 0.625000 0.500000 0.468750
v 0.750000 0.312500 0.468750
v 0.750000 0.312500 0.531250
v 0.437500 0.500000 0.468750
v 0.437500 0.500000 0.531250
v 0.437500 0.437500 0.468750
v 0.437500 0.437500 0.531250
v 0.562500 0.437500 0.531250
v 0.562500 0.437500 0.468750
v 0.625000 0.437500 0.468750
v 0.625000 0.437500 0.531250
v 0.375000 0.437500 0.468750
v 0.375000 0.437500 0.531250
v 0.500000 0.375000 0.531250
v 0.500000 0.375000 0.468750
v 0.562500 0.375000 0.468750
v 0.562500 0.375000 0.531250
v 0.312500 0.375000 0.468750
v 0.312500 0.375000 0.531250
v 0.437500 0.312500 0.531250
v 0.437500 0.312500 0.468750
v 0.500000 0.312500 0.531250
v 0.500000 0.312500 0.468750
v 0.250000 0.312500 0.468750
v 0.250000 0.312500 0.531250
v 0.250000 0.250000 0.468750
v 0.250000 0.250000 0.531250
v 0.375000 0.250000 0.531250
v 0.375000 0.250000 0.468750
v 0.437500 0.250000 0.531250
v 0.437500 0.250000 0.468750
v 0.812500 0.312500 0.468750
v 0.812500 0.250000 0.468750
v 0.812500 0.250000 0.531250
v 0.812500 0.312500 0.531250
v 0.187500 0.250000 0.468750
v 0.187500 0.250000 0.531250
v 0.187500 0.187500 0.468750
v 0.187500 0.187500 0.531250
v 0.312500 0.187500 0.531250
v 0.312500 0.187500 0.468750
v 0.375000 0.187500 0.468750
v 0.375000 0.187500 0.531250
v 0.125000 0.187500 0.468750
v 0.125000 0.187500 0.531250
v 0.125000 0.062500 0.468750
v 0.125000 0.062500 0.531250
v 0.250000 0.125000 0.531250
v 0.250000 0.125000 0.468750
v 0.312500 0.125000 0.468750
v 0.312500 0.125000 0.531250
v 0.250000 0.062500 0.468750
v 0.250000 0.062500 0.531250
vn 0.000000 0.000000 -1.000000
vn 0.000000 0.000000 1.000000
vn 0.000000 1.000000 0.000000
vn -1.000000 0.000000 0.000000
vn 1.000000 0.000000 0.000000
vn 0.000000 -1.000000 0.000000
vt 0.187469 0.499969
vt 0.187469 0.484406
vt 0.171906 0.484406
vt 0.171906 0.499969
vt 0.171906 0.499969
vt 0.171906 0.484406
vt 0.187469 0.484406
vt 0.187469 0.499969
vt 0.177744 0.498045
vt 0.177744 0.497072
vt 0.182608 0.497072
vt 0.182608 0.498045
vt 0.178709 0.498032
vt 0.178709 0.490250
vt 0.177736 0.490250
vt 0.177736 0.498032
vt 0.182615 0.498035
vt 0.182615 0.492199
vt 0.181643 0.492199
vt 0.181643 0.498035
vt 0.176775 0.497068
vt 0.176775 0.496096
vt 0.185530 0.496096
vt 0.185530 0.497068
vt 0.176760 0.497068
vt 0.176760 0.496096
vt 0.177732 0.496096
vt 0.177732 0.497068
vt 0.177732 0.497055
vt 0.177732 0.489273
vt 0.176760 0.489273
vt 0.176760 0.497055
vt 0.185545 0.497053
vt 0.185545 0.488298
vt 0.184572 0.488298
vt 0.184572 0.497053
vt 0.177742 0.496092
vt 0.177742 0.495119
vt 0.181633 0.495119
vt 0.181633 0.496092
vt 0.182615 0.495115
vt 0.182615 0.494143
vt 0.181643 0.494143
vt 0.181643 0.495115
vt 0.180676 0.494139
vt 0.180676 0.493166
vt 0.186512 0.493166
vt 0.186512 0.494139
vt 0.181639 0.494139
vt 0.181639 0.493166
vt 0.180666 0.493166
vt 0.180666 0.494139
vt 0.182619 0.494139
vt 0.182619 0.493166
vt 0.183592 0.493166
vt 0.183592 0.494139
vt 0.186522 0.494131
vt 0.186522 0.489267
vt 0.185549 0.489267
vt 0.185549 0.494131
vt 0.179689 0.493162
vt 0.179689 0.492189
vt 0.180662 0.492189
vt 0.180662 0.493162
vt 0.180662 0.493162
vt 0.180662 0.492189
vt 0.179689 0.492189
vt 0.179689 0.493162
vt 0.181643 0.493162
vt 0.181643 0.492189
vt 0.182615 0.492189
vt 0.182615 0.493162
vt 0.184568 0.493156
vt 0.184568 0.489265
vt 0.183596 0.489265
vt 0.183596 0.493156
vt 0.178713 0.492186
vt 0.178713 0.491213
vt 0.179686 0.491213
vt 0.179686 0.492186
vt 0.179686 0.492186
vt 0.179686 0.491213
vt 0.178713 0.491213
vt 0.178713 0.492186
vt 0.180666 0.492186
vt 0.180666 0.491213
vt 0.181639 0.491213
vt 0.181639 0.492186
vt 0.181639 0.492186
vt 0.181639 0.491213
vt 0.180666 0.491213
vt 0.180666 0.492186
vt 0.177736 0.491209
vt 0.177736 0.490236
vt 0.178709 0.490236
vt 0.178709 0.491209
vt 0.179689 0.491209
vt 0.179689 0.490236
vt 0.180662 0.490236
vt 0.180662 0.491209
vt 0.180662 0.491209
vt 0.180662 0.490236
vt 0.179689 0.490236
vt 0.179689 0.491209
vt 0.176760 0.490232
vt 0.176760 0.489260
vt 0.177732 0.489260
vt 0.177732 0.490232
vt 0.178726 0.490232
vt 0.178726 0.489260
vt 0.186508 0.489260
vt 0.186508 0.490232
vt 0.179686 0.490232
vt 0.179686 0.489260
vt 0.178713 0.489260
vt 0.178713 0.490232
vt 0.175783 0.489256
vt 0.175783 0.488283
vt 0.176756 0.488283
vt 0.176756 0.489256
vt 0.176756 0.489256
vt 0.176756 0.488283
vt 0.175783 0.488283
vt 0.175783 0.489256
vt 0.177750 0.489256
vt 0.177750 0.488283
vt 0.185532 0.488283
vt 0.185532 0.489256
vt 0.178709 0.489256
vt 0.178709 0.488283
vt 0.177736 0.488283
vt 0.177736 0.489256
vt 0.185545 0.489256
vt 0.185545 0.488283
vt 0.184572 0.488283
vt 0.184572 0.489256
vt 0.174807 0.488279
vt 0.174807 0.487307
vt 0.175779 0.487307
vt 0.175779 0.488279
vt 0.175779 0.488279
vt 0.175779 0.487307
vt 0.174807 0.487307
vt 0.174807 0.488279
vt 0.176760 0.488279
vt 0.176760 0.487307
vt 0.177732 0.487307
vt 0.177732 0.488279
vt 0.177732 0.488279
vt 0.177732 0.487307
vt 0.176760 0.487307
vt 0.176760 0.488279
vt 0.173830 0.487303
vt 0.173830 0.486330
vt 0.174803 0.486330
vt 0.174803 0.487303
vt 0.174803 0.487301
vt 0.174803 0.485355
vt 0.173830 0.485355
vt 0.173830 0.487301
vt 0.175783 0.487303
vt 0.175783 0.486330
vt 0.176756 0.486330
vt 0.176756 0.487303
vt 0.176756 0.487303
vt 0.176756 0.486330
vt 0.175783 0.486330
vt 0.175783 0.487303
vt 0.173832 0.486326
vt 0.173832 0.485353
vt 0.175777 0.485353
vt 0.175777 0.486326
vt 0.175779 0.486326
vt 0.175779 0.485353
vt 0.174807 0.485353
vt 0.174807 0.486326
f 1/1/1 2/2/1 3/3/1 4/4/1
f 5/5/2 6/6/2 7/7/2 8/8/2
f 9/9/3 10/10/3 11/11/3 12/12/3
f 9/13/4 13/14/4 14/15/4 10/16/4
f 11/17/5 15/18/5 16/19/5 12/20/5
f 17/21/3 18/22/3 19/23/3 20/24/3
f 21/25/6 22/26/6 23/27/6 24/28/6
f 17/29/4 25/30/4 26/31/4 18/32/4
f 19/33/5 27/34/5 28/35/5 20/36/5
f 29/37/6 30/38/6 31/39/6 32/40/6
f 31/41/4 33/42/4 34/43/4 32/44/4
f 35/45/3 36/46/3 37/47/3 38/48/3
f 35/49/4 39/50/4 40/51/4 36/52/4
f 41/53/6 42/54/6 43/55/6 44/56/6
f 37/57/5 45/58/5 46/59/5 38/60/5
f 47/61/3 48/62/3 40/63/3 39/64/3
f 47/65/4 49/66/4 50/67/4 48/68/4
f 51/69/6 52/70/6 16/71/6 15/72/6
f 43/73/4 53/74/4 54/75/4 44/76/4
f 55/77/3 56/78/3 50/79/3 49/80/3
f 55/81/4 57/82/4 58/83/4 56/84/4
f 59/85/6 60/86/6 61/87/6 62/88/6
f 51/89/5 62/90/5 61/91/5 52/92/5
f 63/93/3 64/94/3 58/95/3 57/96/3
f 65/97/6 66/98/6 67/99/6 68/100/6
f 59/101/5 68/102/5 67/103/5 60/104/5
f 69/105/3 70/106/3 14/107/3 13/108/3
f 71/109/6 72/110/6 46/111/6 45/112/6
f 65/113/5 73/114/5 74/115/5 66/116/5
f 75/117/3 76/118/3 26/119/3 25/120/3
f 75/121/4 77/122/4 78/123/4 76/124/4
f 79/125/6 80/126/6 28/127/6 27/128/6
f 71/129/5 81/130/5 82/131/5 72/132/5
f 83/133/4 84/134/4 85/135/4 86/136/4
f 87/137/3 88/138/3 78/139/3 77/140/3
f 87/141/4 89/142/4 90/143/4 88/144/4
f 91/145/6 92/146/6 93/147/6 94/148/6
f 79/149/5 94/150/5 93/151/5 80/152/5
f 95/153/3 96/154/3 90/155/3 89/156/3
f 95/157/4 97/158/4 98/159/4 96/160/4
f 99/161/6 100/162/6 101/163/6 102/164/6
f 91/165/5 102/166/5 101/167/5 92/168/5
f 98/169/6 97/170/6 103/171/6 104/172/6
f 99/173/5 104/174/5 103/175/5 100/176/5
