v 0.375000 0.937500 0.625000
v 0.375000 0.937500 0.375000
v 0.625000 0.937500 0.375000
v 0.625000 0.937500 0.625000
v 0.375000 1.000000 0.375000
v 0.375000 1.000000 0.625000
v 0.625000 1.000000 0.625000
v 0.625000 1.000000 0.375000
v 0.312500 0.875000 0.687500
v 0.312500 0.875000 0.312500
v 0.687500 0.875000 0.312500
v 0.687500 0.875000 0.687500
v 0.312500 0.937500 0.312500
v 0.312500 0.937500 0.687500
v 0.687500 0.937500 0.687500
v 0.687500 0.937500 0.312500
v 0.312500 0.812500 0.687500
v 0.312500 0.812500 0.312500
v 0.687500 0.812500 0.312500
v 0.687500 0.812500 0.687500
v 0.187500 0.687500 0.812500
v 0.187500 0.687500 0.187500
v 0.812500 0.687500 0.187500
v 0.812500 0.687500 0.812500
v 0.187500 0.812500 0.187500
v 0.187500 0.812500 0.812500
v 0.812500 0.812500 0.812500
v 0.812500 0.812500 0.187500
v 0.125000 0.500000 0.875000
v 0.125000 0.500000 0.125000
v 0.875000 0.500000 0.125000
v 0.875000 0.500000 0.875000
v 0.125000 0.687500 0.125000
v 0.125000 0.687500 0.875000
v 0.875000 0.687500 0.875000
v 0.875000 0.687500 0.125000
v 0.062500 0.187500 0.937500
v 0.062500 0.187500 0.062500
v 0.937500 0.187500 0.062500
v 0.937500 0.187500 0.937500
v 0.062500 0.500000 0.062500
v 0.062500 0.500000 0.937500
v 0.937500 0.500000 0.937500
v 0.937500 0.500000 0.062500
v 0.125000 0.062500 0.875000
v 0.125000 0.062500 0.125000
v 0.875000 0.062500 0.125000
v 0.875000 0.062500 0.875000
v 0.125000 0.187500 0.125000
v 0.125000 0.187500 0.875000
v 0.875000 0.187500 0.875000
v 0.875000 0.187500 0.125000
v 0.187500 0.000000 0.812500
v 0.187500 0.000000 0.187500
v 0.812500 0.000000 0.187500
v 0.812500 0.000000 0.812500
v 0.187500 0.062500 0.187500
v 0.187500 0.062500 0.812500
v 0.812500 0.062500 0.812500
v 0.812500 0.062500 0.187500
vn 0.000000 -1.000000 0.000000
vn 0.000000 1.000000 0.000000
vn 0.000000 0.000000 -1.000000
vn 0.000000 0.000000 1.000000
vn -1.000000 0.000000 0.000000
vn 1.000000 0.000000 0.000000
vt 0.333992 0.822258
vt 0.333992 0.818367
vt 0.337883 0.818367
vt 0.337883 0.822258
vt 0.333992 0.822258
vt 0.333992 0.818367
vt 0.337883 0.818367
vt 0.337883 0.822258
vt 0.333992 0.813475
vt 0.333992 0.812502
vt 0.337883 0.812502
vt 0.337883 0.813475
vt 0.333992 0.813475
vt 0.333992 0.812502
vt 0.337883 0.812502
vt 0.337883 0.813475
vt 0.333992 0.813475
vt 0.333992 0.812502
vt 0.337883 0.812502
vt 0.337883 0.813475
vt 0.333992 0.813475
vt 0.333992 0.812502
vt 0.337883 0.812502
vt 0.337883 0.813475
vt 0.333019 0.823231
vt 0.333019 0.817394
vt 0.338856 0.817394
vt 0.338856 0.823231
vt 0.333019 0.823231
vt 0.333019 0.817394
vt 0.338856 0.817394
vt 0.338856 0.823231
vt 0.333019 0.814451
vt 0.333019 0.813478
vt 0.338856 0.813478
vt 0.338856 0.814451
vt 0.333019 0.814451
vt 0.333019 0.813478
vt 0.338856 0.813478
vt 0.338856 0.814451
vt 0.333019 0.814451
vt 0.333019 0.813478
vt 0.338856 0.813478
vt 0.338856 0.814451
vt 0.333019 0.814451
vt 0.333019 0.813478
vt 0.338856 0.813478
vt 0.338856 0.814451
vt 0.332047 0.824203
vt 0.332047 0.816422
vt 0.339828 0.816422
vt 0.339828 0.824203
vt 0.332047 0.824203
vt 0.332047 0.816422
vt 0.339828 0.816422
vt 0.339828 0.824203
vt 0.332047 0.815428
vt 0.332047 0.814455
vt 0.339828 0.814455
vt 0.339828 0.815428
vt 0.332047 0.815428
vt 0.332047 0.814455
vt 0.339828 0.814455
vt 0.339828 0.815428
vt 0.332047 0.815428
vt 0.332047 0.814455
vt 0.339828 0.814455
vt 0.339828 0.815428
vt 0.332047 0.815428
vt 0.332047 0.814455
vt 0.339828 0.814455
vt 0.339828 0.815428
vt 0.331074 0.825176
vt 0.331074 0.815449
vt 0.340801 0.815449
vt 0.340801 0.825176
vt 0.331074 0.825176
vt 0.331074 0.815449
vt 0.340801 0.815449
vt 0.340801 0.825176
vt 0.331074 0.817379
vt 0.331074 0.815434
vt 0.340801 0.815434
vt 0.340801 0.817379
vt 0.331074 0.817379
vt 0.331074 0.815434
vt 0.340801 0.815434
vt 0.340801 0.817379
vt 0.331074 0.817379
vt 0.331074 0.815434
vt 0.340801 0.815434
vt 0.340801 0.817379
vt 0.331074 0.817379
vt 0.331074 0.815434
vt 0.340801 0.815434
vt 0.340801 0.817379
vt 0.330101 0.826149
vt 0.330101 0.814476
vt 0.341774 0.814476
vt 0.341774 0.826149
vt 0.330101 0.826149
vt 0.330101 0.814476
vt 0.341774 0.814476
vt 0.341774 0.826149
vt 0.330101 0.820307
vt 0.330101 0.817389
vt 0.341774 0.817389
vt 0.341774 0.820307
vt 0.330101 0.820307
vt 0.330101 0.817389
vt 0.341774 0.817389
vt 0.341774 0.820307
vt 0.330101 0.820307
vt 0.330101 0.817389
vt 0.341774 0.817389
vt 0.341774 0.820307
vt 0.330101 0.820307
vt 0.330101 0.817389
vt 0.341774 0.817389
vt 0.341774 0.820307
vt 0.329128 0.827122
vt 0.329128 0.813503
vt 0.342747 0.813503
vt 0.342747 0.827122
vt 0.329128 0.827122
vt 0.329128 0.813503
vt 0.342747 0.813503
vt 0.342747 0.827122
vt 0.329128 0.825186
vt 0.329128 0.820322
vt 0.342747 0.820322
vt 0.342747 0.825186
vt 0.329128 0.825186
vt 0.329128 0.820322
vt 0.342747 0.820322
vt 0.342747 0.825186
vt 0.329128 0.825186
vt 0.329128 0.820322
vt 0.342747 0.820322
vt 0.342747 0.825186
vt 0.329128 0.825186
vt 0.329128 0.820322
vt 0.342747 0.820322
vt 0.342747 0.825186
vt 0.330101 0.826149
vt 0.330101 0.814476
vt 0.341774 0.814476
vt 0.341774 0.826149
vt 0.330101 0.826149
vt 0.330101 0.814476
vt 0.341774 0.814476
vt 0.341774 0.826149
vt 0.330101 0.827145
vt 0.330101 0.825199
vt 0.341774 0.825199
vt 0.341774 0.827145
vt 0.330101 0.827145
vt 0.330101 0.825199
vt 0.341774 0.825199
vt 0.341774 0.827145
vt 0.330101 0.827145
vt 0.330101 0.825199
vt 0.341774 0.825199
vt 0.341774 0.827145
vt 0.330101 0.827145
vt 0.330101 0.825199
vt 0.341774 0.825199
vt 0.341774 0.827145
vt 0.331074 0.825176
vt 0.331074 0.815449
vt 0.340801 0.815449
vt 0.340801 0.825176
vt 0.331074 0.825176
vt 0.331074 0.815449
vt 0.340801 0.815449
vt 0.340801 0.825176
vt 0.331074 0.828123
vt 0.331074 0.827150
vt 0.340801 0.827150
vt 0.340801 0.828123
vt 0.331074 0.828123
vt 0.331074 0.827150
vt 0.340801 0.827150
vt 0.340801 0.828123
vt 0.331074 0.828123
vt 0.331074 0.827150
vt 0.340801 0.827150
vt 0.340801 0.828123
vt 0.331074 0.828123
vt 0.331074 0.827150
vt 0.340801 0.827150
vt 0.340801 0.828123
f 1/1/1 2/2/1 3/3/1 4/4/1
f 5/5/2 6/6/2 7/7/2 8/8/2
f 8/9/3 3/10/3 2/11/3 5/12/3
f 6/13/4 1/14/4 4/15/4 7/16/4
f 5/17/5 2/18/5 1/19/5 6/20/5
f 7/21/6 4/22/6 3/23/6 8/24/6
f 9/25/1 10/26/1 11/27/1 12/28/1
f 13/29/2 14/30/2 15/31/2 16/32/2
f 16/33/3 11/34/3 10/35/3 13/36/3
f 14/37/4 9/38/4 12/39/4 15/40/4
f 13/41/5 10/42/5 9/43/5 14/44/5
f 15/45/6 12/46/6 11/47/6 16/48/6
f 17/49/1 18/50/1 19/51/1 20/52/1
f 10/53/2 9/54/2 12/55/2 11/56/2
f 11/57/3 19/58/3 18/59/3 10/60/3
f 9/61/4 17/62/4 20/63/4 12/64/4
f 10/65/5 18/66/5 17/67/5 9/68/5
f 12/69/6 20/70/6 19/71/6 11/72/6
f 21/73/1 22/74/1 23/75/1 24/76/1
f 25/77/2 26/78/2 27/79/2 28/80/2
f 28/81/3 23/82/3 22/83/3 25/84/3
f 26/85/4 21/86/4 24/87/4 27/88/4
f 25/89/5 22/90/5 21/91/5 26/92/5
f 27/93/6 24/94/6 23/95/6 28/96/6
f 29/97/1 30/98/1 31/99/1 32/100/1
f 33/101/2 34/102/2 35/103/2 36/104/2
f 36/105/3 31/106/3 30/107/3 33/108/3
f 34/109/4 29/110/4 32/111/4 35/112/4
f 33/113/5 30/114/5 29/115/5 34/116/5
f 35/117/6 32/118/6 31/119/6 36/120/6
f 37/121/1 38/122/1 39/123/1 40/124/1
f 41/125/2 42/126/2 43/127/2 44/128/2
f 44/129/3 39/130/3 38/131/3 41/132/3
f 42/133/4 37/134/4 40/135/4 43/136/4
f 41/137/5 38/138/5 37/139/5 42/140/5
f 43/141/6 40/142/6 39/143/6 44/144/6
f 45/145/1 46/146/1 47/147/1 48/148/1
f 49/149/2 50/150/2 51/151/2 52/152/2
f 52/153/3 47/154/3 46/155/3 49/156/3
f 50/157/4 45/158/4 48/159/4 51/160/4
f 49/161/5 46/162/5 45/163/5 50/164/5
f 51/165/6 48/166/6 47/167/6 52/168/6
f 53/169/1 54/170/1 55/171/1 56/172/1
f 57/173/2 58/174/2 59/175/2 60/176/2
f 60/177/3 55/178/3 54/179/3 57/180/3
f 58/181/4 53/182/4 56/183/4 59/184/4
f 57/185/5 54/186/5 53/187/5 58/188/5
f 59/189/6 56/190/6 55/191/6 60/192/6
