v 1.000000 1.000000 0.468750
v 1.000000 0.000000 0.468750
v 0.000000 0.000000 0.468750
v 0.000000 1.000000 0.468750
v 0.000000 1.000000 0.531250
v 0.000000 0.000000 0.531250
v 1.000000 0.000000 0.531250
v 1.000000 1.000000 0.531250
v 0.437500 0.937500 0.468750
v 0.437500 0.937500 0.531250
v 0.562500 0.937500 0.531250
v 0.562500 0.937500 0.468750
v 0.437500 0.875000 0.468750
v 0.437500 0.875000 0.531250
v 0.562500 0.062500 0.531250
v 0.562500 0.062500 0.468750
v 0.375000 0.875000 0.468750
v 0.375000 0.875000 0.531250
v 0.875000 0.875000 0.531250
v 0.875000 0.875000 0.468750
v 0.375000 0.000000 0.468750
v 0.375000 0.000000 0.531250
v 0.687500 0.875000 0.531250
v 0.687500 0.187500 0.531250
v 0.687500 0.187500 0.468750
v 0.687500 0.875000 0.468750
v 0.812500 0.875000 0.468750
v 0.812500 0.812500 0.468750
v 0.812500 0.812500 0.531250
v 0.812500 0.875000 0.531250
v 0.875000 0.375000 0.531250
v 0.875000 0.375000 0.468750
v 0.312500 0.812500 0.468750
v 0.312500 0.812500 0.531250
v 0.937500 0.812500 0.531250
v 0.937500 0.812500 0.468750
v 0.312500 0.750000 0.468750
v 0.312500 0.750000 0.531250
v 0.937500 0.437500 0.531250
v 0.937500 0.437500 0.468750
v 0.250000 0.750000 0.468750
v 0.250000 0.750000 0.531250
v 1.000000 0.750000 0.531250
v 1.000000 0.750000 0.468750
v 0.250000 0.062500 0.468750
v 0.250000 0.062500 0.531250
v 1.000000 0.500000 0.531250
v 1.000000 0.500000 0.468750
v 0.187500 0.687500 0.468750
v 0.187500 0.687500 0.531250
v 0.250000 0.687500 0.531250
v 0.250000 0.687500 0.468750
v 0.187500 0.625000 0.468750
v 0.187500 0.625000 0.531250
v 0.125000 0.625000 0.468750
v 0.125000 0.625000 0.531250
v 0.125000 0.125000 0.468750
v 0.125000 0.125000 0.531250
v 0.062500 0.562500 0.468750
v 0.062500 0.562500 0.531250
v 0.125000 0.562500 0.531250
v 0.125000 0.562500 0.468750
v 0.062500 0.187500 0.468750
v 0.062500 0.187500 0.531250
v 0.937500 0.500000 0.531250
v 0.937500 0.500000 0.468750
v 0.000000 0.500000 0.468750
v 0.000000 0.500000 0.531250
v 0.062500 0.500000 0.531250
v 0.062500 0.500000 0.468750
v 0.000000 0.250000 0.468750
v 0.000000 0.250000 0.531250
v 0.875000 0.437500 0.531250
v 0.875000 0.437500 0.468750
v 0.812500 0.375000 0.531250
v 0.812500 0.375000 0.468750
v 0.062500 0.312500 0.531250
v 0.062500 0.312500 0.468750
v 0.812500 0.312500 0.468750
v 0.812500 0.312500 0.531250
v 0.750000 0.250000 0.468750
v 0.750000 0.250000 0.531250
v 0.062500 0.250000 0.531250
v 0.062500 0.250000 0.468750
v 0.750000 0.312500 0.531250
v 0.750000 0.312500 0.468750
v 0.125000 0.250000 0.531250
v 0.125000 0.250000 0.468750
v 0.625000 0.125000 0.468750
v 0.625000 0.125000 0.531250
v 0.625000 0.187500 0.531250
v 0.625000 0.187500 0.468750
v 0.500000 0.000000 0.468750
v 0.500000 0.000000 0.531250
v 0.500000 0.062500 0.531250
v 0.500000 0.062500 0.468750
vn 0.000000 0.000000 -1.000000
vn 0.000000 0.000000 1.000000
vn 0.000000 1.000000 0.000000
vn -1.000000 0.000000 0.000000
vn 1.000000 0.000000 0.000000
vn 0.000000 -1.000000 0.000000
vt 0.249969 0.499969
vt 0.249969 0.484406
vt 0.234406 0.484406
vt 0.234406 0.499969
vt 0.234406 0.499969
vt 0.234406 0.484406
vt 0.249969 0.484406
vt 0.249969 0.499969
vt 0.241215 0.499022
vt 0.241215 0.498049
vt 0.243160 0.498049
vt 0.243160 0.499022
vt 0.242186 0.499022
vt 0.242186 0.498049
vt 0.241213 0.498049
vt 0.241213 0.499022
vt 0.243162 0.498997
vt 0.243162 0.485378
vt 0.242189 0.485378
vt 0.242189 0.498997
vt 0.240250 0.498045
vt 0.240250 0.497072
vt 0.248032 0.497072
vt 0.248032 0.498045
vt 0.241209 0.498020
vt 0.241209 0.484402
vt 0.240236 0.484402
vt 0.240236 0.498020
vt 0.245115 0.498026
vt 0.245115 0.487326
vt 0.244143 0.487326
vt 0.244143 0.498026
vt 0.248045 0.498045
vt 0.248045 0.497072
vt 0.247072 0.497072
vt 0.247072 0.498045
vt 0.248045 0.498032
vt 0.248045 0.490250
vt 0.247072 0.490250
vt 0.247072 0.498032
vt 0.239277 0.497068
vt 0.239277 0.496096
vt 0.249004 0.496096
vt 0.249004 0.497068
vt 0.240232 0.497068
vt 0.240232 0.496096
vt 0.239260 0.496096
vt 0.239260 0.497068
vt 0.249022 0.497059
vt 0.249022 0.491222
vt 0.248049 0.491222
vt 0.248049 0.497059
vt 0.238304 0.496092
vt 0.238304 0.495119
vt 0.249977 0.495119
vt 0.249977 0.496092
vt 0.239256 0.496073
vt 0.239256 0.485373
vt 0.238283 0.485373
vt 0.238283 0.496073
vt 0.249998 0.496086
vt 0.249998 0.492195
vt 0.249025 0.492195
vt 0.249025 0.496086
vt 0.237307 0.495115
vt 0.237307 0.494143
vt 0.238279 0.494143
vt 0.238279 0.495115
vt 0.238279 0.495115
vt 0.238279 0.494143
vt 0.237307 0.494143
vt 0.237307 0.495115
vt 0.236330 0.494139
vt 0.236330 0.493166
vt 0.237303 0.493166
vt 0.237303 0.494139
vt 0.237303 0.494125
vt 0.237303 0.486343
vt 0.236330 0.486343
vt 0.236330 0.494125
vt 0.235353 0.493162
vt 0.235353 0.492189
vt 0.236326 0.492189
vt 0.236326 0.493162
vt 0.236326 0.493153
vt 0.236326 0.487316
vt 0.235353 0.487316
vt 0.235353 0.493153
vt 0.249025 0.493162
vt 0.249025 0.492189
vt 0.249998 0.492189
vt 0.249998 0.493162
vt 0.234377 0.492186
vt 0.234377 0.491213
vt 0.235350 0.491213
vt 0.235350 0.492186
vt 0.235350 0.492180
vt 0.235350 0.488289
vt 0.234377 0.488289
vt 0.234377 0.492180
vt 0.248049 0.492186
vt 0.248049 0.491213
vt 0.249022 0.491213
vt 0.249022 0.492186
vt 0.247072 0.491209
vt 0.247072 0.490236
vt 0.248045 0.490236
vt 0.248045 0.491209
vt 0.235374 0.490232
vt 0.235374 0.489260
vt 0.247047 0.489260
vt 0.247047 0.490232
vt 0.247068 0.490232
vt 0.247068 0.489260
vt 0.246096 0.489260
vt 0.246096 0.490232
vt 0.234398 0.489256
vt 0.234398 0.488283
vt 0.246071 0.488283
vt 0.246071 0.489256
vt 0.235350 0.489256
vt 0.235350 0.488283
vt 0.234377 0.488283
vt 0.234377 0.489256
vt 0.246092 0.489256
vt 0.246092 0.488283
vt 0.245119 0.488283
vt 0.245119 0.489256
vt 0.235353 0.488279
vt 0.235353 0.487307
vt 0.236326 0.487307
vt 0.236326 0.488279
vt 0.235371 0.488279
vt 0.235371 0.487307
vt 0.245098 0.487307
vt 0.245098 0.488279
vt 0.236343 0.487303
vt 0.236343 0.486330
vt 0.244125 0.486330
vt 0.244125 0.487303
vt 0.244139 0.487303
vt 0.244139 0.486330
vt 0.243166 0.486330
vt 0.243166 0.487303
vt 0.238291 0.486326
vt 0.238291 0.485353
vt 0.243155 0.485353
vt 0.243155 0.486326
vt 0.240238 0.485350
vt 0.240238 0.484377
vt 0.242184 0.484377
vt 0.242184 0.485350
vt 0.242186 0.485350
vt 0.242186 0.484377
vt 0.241213 0.484377
vt 0.241213 0.485350
f 1/1/1 2/2/1 3/3/1 4/4/1
f 5/5/2 6/6/2 7/7/2 8/8/2
f 9/9/3 10/10/3 11/11/3 12/12/3
f 9/13/4 13/14/4 14/15/4 10/16/4
f 11/17/5 15/18/5 16/19/5 12/20/5
f 17/21/3 18/22/3 19/23/3 20/24/3
f 17/25/4 21/26/4 22/27/4 18/28/4
f 23/29/5 24/30/5 25/31/5 26/32/5
f 27/33/4 28/34/4 29/35/4 30/36/4
f 19/37/5 31/38/5 32/39/5 20/40/5
f 33/41/3 34/42/3 35/43/3 36/44/3
f 33/45/4 37/46/4 38/47/4 34/48/4
f 35/49/5 39/50/5 40/51/5 36/52/5
f 41/53/3 42/54/3 43/55/3 44/56/3
f 41/57/4 45/58/4 46/59/4 42/60/4
f 43/61/5 47/62/5 48/63/5 44/64/5
f 49/65/3 50/66/3 51/67/3 52/68/3
f 49/69/4 53/70/4 54/71/4 50/72/4
f 55/73/3 56/74/3 54/75/3 53/76/3
f 55/77/4 57/78/4 58/79/4 56/80/4
f 59/81/3 60/82/3 61/83/3 62/84/3
f 59/85/4 63/86/4 64/87/4 60/88/4
f 65/89/6 66/90/6 48/91/6 47/92/6
f 67/93/3 68/94/3 69/95/3 70/96/3
f 67/97/4 71/98/4 72/99/4 68/100/4
f 73/101/6 74/102/6 40/103/6 39/104/6
f 75/105/6 76/106/6 32/107/6 31/108/6
f 77/109/6 78/110/6 79/111/6 80/112/6
f 75/113/5 80/114/5 79/115/5 76/116/5
f 72/117/6 71/118/6 81/119/6 82/120/6
f 77/121/5 83/122/5 84/123/5 78/124/5
f 85/125/5 82/126/5 81/127/5 86/128/5
f 84/129/3 83/130/3 87/131/3 88/132/3
f 64/133/6 63/134/6 25/135/6 24/136/6
f 58/137/6 57/138/6 89/139/6 90/140/6
f 91/141/5 90/142/5 89/143/5 92/144/5
f 46/145/6 45/146/6 16/147/6 15/148/6
f 22/149/6 21/150/6 93/151/6 94/152/6
f 95/153/5 94/154/5 93/155/5 96/156/5
