v 1.000000 1.000000 0.468750
v 1.000000 0.000000 0.468750
v 0.000000 0.000000 0.468750
v 0.000000 1.000000 0.468750
v 0.000000 1.000000 0.531250
v 0.000000 0.000000 0.531250
v 1.000000 0.000000 0.531250
v 1.000000 1.000000 0.531250
v 0.250000 0.875000 0.468750
v 0.250000 0.875000 0.531250
v 0.750000 0.875000 0.531250
v 0.750000 0.875000 0.468750
v 0.250000 0.812500 0.468750
v 0.250000 0.812500 0.531250
v 0.750000 0.812500 0.531250
v 0.750000 0.812500 0.468750
v 0.125000 0.812500 0.468750
v 0.125000 0.812500 0.531250
v 0.875000 0.812500 0.531250
v 0.875000 0.812500 0.468750
v 0.125000 0.250000 0.468750
v 0.125000 0.250000 0.531250
v 0.437500 0.750000 0.531250
v 0.437500 0.750000 0.468750
v 0.562500 0.750000 0.468750
v 0.562500 0.750000 0.531250
v 0.875000 0.250000 0.531250
v 0.875000 0.250000 0.468750
v 0.062500 0.750000 0.468750
v 0.062500 0.750000 0.531250
v 0.937500 0.750000 0.531250
v 0.937500 0.750000 0.468750
v 0.062500 0.375000 0.468750
v 0.062500 0.375000 0.531250
v 0.437500 0.250000 0.531250
v 0.437500 0.250000 0.468750
v 0.562500 0.250000 0.468750
v 0.562500 0.250000 0.531250
v 0.937500 0.375000 0.531250
v 0.937500 0.375000 0.468750
v 0.187500 0.250000 0.468750
v 0.187500 0.125000 0.468750
v 0.187500 0.125000 0.531250
v 0.187500 0.250000 0.531250
v 0.312500 0.187500 0.531250
v 0.312500 0.187500 0.468750
v 0.687500 0.187500 0.468750
v 0.687500 0.187500 0.531250
v 0.375000 0.250000 0.531250
v 0.375000 0.187500 0.531250
v 0.375000 0.187500 0.468750
v 0.375000 0.250000 0.468750
v 0.625000 0.250000 0.468750
v 0.625000 0.187500 0.468750
v 0.625000 0.187500 0.531250
v 0.625000 0.250000 0.531250
v 0.812500 0.250000 0.531250
v 0.812500 0.125000 0.531250
v 0.812500 0.125000 0.468750
v 0.812500 0.250000 0.468750
v 0.312500 0.125000 0.531250
v 0.312500 0.125000 0.468750
v 0.687500 0.125000 0.468750
v 0.687500 0.125000 0.531250
vn 0.000000 0.000000 -1.000000
vn 0.000000 0.000000 1.000000
vn 0.000000 1.000000 0.000000
vn -1.000000 0.000000 0.000000
vn 1.000000 0.000000 0.000000
vn 0.000000 -1.000000 0.000000
vt 0.281219 0.499969
vt 0.281219 0.484406
vt 0.265656 0.484406
vt 0.265656 0.499969
vt 0.265656 0.499969
vt 0.265656 0.484406
vt 0.281219 0.484406
vt 0.281219 0.499969
vt 0.269547 0.498045
vt 0.269547 0.497072
vt 0.277328 0.497072
vt 0.277328 0.498045
vt 0.270506 0.498045
vt 0.270506 0.497072
vt 0.269533 0.497072
vt 0.269533 0.498045
vt 0.277342 0.498045
vt 0.277342 0.497072
vt 0.276369 0.497072
vt 0.276369 0.498045
vt 0.267601 0.497068
vt 0.267601 0.496096
vt 0.279274 0.496096
vt 0.279274 0.497068
vt 0.268553 0.497053
vt 0.268553 0.488298
vt 0.267580 0.488298
vt 0.267580 0.497053
vt 0.272465 0.497068
vt 0.272465 0.496096
vt 0.274410 0.496096
vt 0.274410 0.497068
vt 0.279295 0.497053
vt 0.279295 0.488298
vt 0.278322 0.488298
vt 0.278322 0.497053
vt 0.266628 0.496092
vt 0.266628 0.495119
vt 0.280247 0.495119
vt 0.280247 0.496092
vt 0.267576 0.496082
vt 0.267576 0.490246
vt 0.266603 0.490246
vt 0.266603 0.496082
vt 0.272459 0.496078
vt 0.272459 0.488297
vt 0.271486 0.488297
vt 0.271486 0.496078
vt 0.275389 0.496078
vt 0.275389 0.488297
vt 0.274416 0.488297
vt 0.274416 0.496078
vt 0.280272 0.496082
vt 0.280272 0.490246
vt 0.279299 0.490246
vt 0.279299 0.496082
vt 0.266628 0.491209
vt 0.266628 0.490236
vt 0.280247 0.490236
vt 0.280247 0.491209
vt 0.267601 0.489256
vt 0.267601 0.488283
vt 0.279274 0.488283
vt 0.279274 0.489256
vt 0.269529 0.488277
vt 0.269529 0.486332
vt 0.268557 0.486332
vt 0.268557 0.488277
vt 0.270519 0.488279
vt 0.270519 0.487307
vt 0.276356 0.487307
vt 0.276356 0.488279
vt 0.271482 0.488279
vt 0.271482 0.487307
vt 0.270510 0.487307
vt 0.270510 0.488279
vt 0.276365 0.488279
vt 0.276365 0.487307
vt 0.275393 0.487307
vt 0.275393 0.488279
vt 0.278318 0.488277
vt 0.278318 0.486332
vt 0.277346 0.486332
vt 0.277346 0.488277
vt 0.268574 0.487303
vt 0.268574 0.486330
vt 0.278301 0.486330
vt 0.278301 0.487303
vt 0.270506 0.487303
vt 0.270506 0.486330
vt 0.269533 0.486330
vt 0.269533 0.487303
vt 0.277342 0.487303
vt 0.277342 0.486330
vt 0.276369 0.486330
vt 0.276369 0.487303
f 1/1/1 2/2/1 3/3/1 4/4/1
f 5/5/2 6/6/2 7/7/2 8/8/2
f 9/9/3 10/10/3 11/11/3 12/12/3
f 9/13/4 13/14/4 14/15/4 10/16/4
f 11/17/5 15/18/5 16/19/5 12/20/5
f 17/21/3 18/22/3 19/23/3 20/24/3
f 17/25/4 21/26/4 22/27/4 18/28/4
f 23/29/6 24/30/6 25/31/6 26/32/6
f 19/33/5 27/34/5 28/35/5 20/36/5
f 29/37/3 30/38/3 31/39/3 32/40/3
f 29/41/4 33/42/4 34/43/4 30/44/4
f 23/45/5 35/46/5 36/47/5 24/48/5
f 25/49/4 37/50/4 38/51/4 26/52/4
f 31/53/5 39/54/5 40/55/5 32/56/5
f 34/57/6 33/58/6 40/59/6 39/60/6
f 22/61/6 21/62/6 28/63/6 27/64/6
f 41/65/4 42/66/4 43/67/4 44/68/4
f 45/69/6 46/70/6 47/71/6 48/72/6
f 49/73/5 50/74/5 51/75/5 52/76/5
f 53/77/4 54/78/4 55/79/4 56/80/4
f 57/81/5 58/82/5 59/83/5 60/84/5
f 43/85/6 42/86/6 59/87/6 58/88/6
f 45/89/5 61/90/5 62/91/5 46/92/5
f 47/93/4 63/94/4 64/95/4 48/96/4
