v 0.375000 0.062500 0.375000
v 0.375000 0.062500 0.625000
v 0.625000 0.062500 0.625000
v 0.625000 0.062500 0.375000
v 0.625000 0.000000 0.375000
v 0.375000 0.000000 0.375000
v 0.375000 0.000000 0.625000
v 0.625000 0.000000 0.625000
v 0.562500 1.000000 0.437500
v 0.562500 0.062500 0.437500
v 0.437500 0.062500 0.437500
v 0.437500 1.000000 0.437500
v 0.437500 1.000000 0.562500
v 0.437500 0.062500 0.562500
v 0.562500 0.062500 0.562500
v 0.562500 1.000000 0.562500
vn 0.000000 1.000000 0.000000
vn 0.000000 0.000000 -1.000000
vn 0.000000 0.000000 1.000000
vn -1.000000 0.000000 0.000000
vn 1.000000 0.000000 0.000000
vn 0.000000 -1.000000 0.000000
vt 0.345711 0.857414
vt 0.345711 0.853523
vt 0.349602 0.853523
vt 0.349602 0.857414
vt 0.345711 0.853514
vt 0.345711 0.852541
vt 0.349602 0.852541
vt 0.349602 0.853514
vt 0.345711 0.853514
vt 0.345711 0.852541
vt 0.349602 0.852541
vt 0.349602 0.853514
vt 0.345711 0.853514
vt 0.345711 0.852541
vt 0.349602 0.852541
vt 0.349602 0.853514
vt 0.345711 0.853514
vt 0.345711 0.852541
vt 0.349602 0.852541
vt 0.349602 0.853514
vt 0.343754 0.859346
vt 0.343754 0.844755
vt 0.345699 0.844755
vt 0.345699 0.859346
vt 0.343754 0.859346
vt 0.343754 0.844755
vt 0.345699 0.844755
vt 0.345699 0.859346
vt 0.343754 0.859346
vt 0.343754 0.844755
vt 0.345699 0.844755
vt 0.345699 0.859346
vt 0.343754 0.859346
vt 0.343754 0.844755
vt 0.345699 0.844755
vt 0.345699 0.859346
vt 0.349602 0.853523
vt 0.349602 0.857414
vt 0.345711 0.857414
vt 0.345711 0.853523
vt 0.345707 0.859371
vt 0.345707 0.857426
vt 0.347652 0.857426
vt 0.347652 0.859371
f 1/1/1 2/2/1 3/3/1 4/4/1
f 4/5/2 5/6/2 6/7/2 1/8/2
f 2/9/3 7/10/3 8/11/3 3/12/3
f 1/13/4 6/14/4 7/15/4 2/16/4
f 3/17/5 8/18/5 5/19/5 4/20/5
f 9/21/2 10/22/2 11/23/2 12/24/2
f 13/25/3 14/26/3 15/27/3 16/28/3
f 12/29/4 11/30/4 14/31/4 13/32/4
f 16/33/5 15/34/5 10/35/5 9/36/5
f 7/37/6 6/38/6 5/39/6 8/40/6
f 12/41/1 13/42/1 16/43/1 9/44/1
