v 1.000000 1.000000 0.468750
v 1.000000 0.000000 0.468750
v 0.000000 0.000000 0.468750
v 0.000000 1.000000 0.468750
v 0.000000 1.000000 0.531250
v 0.000000 0.000000 0.531250
v 1.000000 0.000000 0.531250
v 1.000000 1.000000 0.531250
v 0.437500 0.875000 0.468750
v 0.437500 0.875000 0.531250
v 0.625000 0.875000 0.531250
v 0.625000 0.875000 0.468750
v 0.437500 0.062500 0.468750
v 0.437500 0.062500 0.531250
v 0.625000 0.062500 0.531250
v 0.625000 0.062500 0.468750
v 0.312500 0.812500 0.468750
v 0.312500 0.812500 0.531250
v 0.750000 0.812500 0.531250
v 0.750000 0.812500 0.468750
v 0.312500 0.125000 0.468750
v 0.312500 0.125000 0.531250
v 0.750000 0.125000 0.531250
v 0.750000 0.125000 0.468750
v 0.250000 0.750000 0.468750
v 0.250000 0.750000 0.531250
v 0.812500 0.750000 0.531250
v 0.812500 0.750000 0.468750
v 0.250000 0.187500 0.468750
v 0.250000 0.187500 0.531250
v 0.812500 0.187500 0.531250
v 0.812500 0.187500 0.468750
v 0.187500 0.687500 0.468750
v 0.187500 0.687500 0.531250
v 0.875000 0.687500 0.531250
v 0.875000 0.687500 0.468750
v 0.187500 0.250000 0.468750
v 0.187500 0.250000 0.531250
v 0.875000 0.250000 0.531250
v 0.875000 0.250000 0.468750
v 0.125000 0.562500 0.468750
v 0.125000 0.562500 0.531250
v 0.937500 0.562500 0.531250
v 0.937500 0.562500 0.468750
v 0.125000 0.375000 0.468750
v 0.125000 0.375000 0.531250
v 0.937500 0.375000 0.531250
v 0.937500 0.375000 0.468750
vn 0.000000 0.000000 -1.000000
vn 0.000000 0.000000 1.000000
vn 0.000000 1.000000 0.000000
vn -1.000000 0.000000 0.000000
vn 1.000000 0.000000 0.000000
vn 0.000000 -1.000000 0.000000
vt 0.421844 0.499969
vt 0.421844 0.484406
vt 0.406281 0.484406
vt 0.406281 0.499969
vt 0.406281 0.499969
vt 0.406281 0.484406
vt 0.421844 0.484406
vt 0.421844 0.499969
vt 0.413092 0.498045
vt 0.413092 0.497072
vt 0.416010 0.497072
vt 0.416010 0.498045
vt 0.414061 0.498022
vt 0.414061 0.485376
vt 0.413088 0.485376
vt 0.413088 0.498022
vt 0.416014 0.498022
vt 0.416014 0.485376
vt 0.415041 0.485376
vt 0.415041 0.498022
vt 0.411146 0.497068
vt 0.411146 0.496096
vt 0.417955 0.496096
vt 0.417955 0.497068
vt 0.412107 0.497049
vt 0.412107 0.486349
vt 0.411135 0.486349
vt 0.411135 0.497049
vt 0.417967 0.497049
vt 0.417967 0.486349
vt 0.416994 0.486349
vt 0.416994 0.497049
vt 0.410173 0.496092
vt 0.410173 0.495119
vt 0.418928 0.495119
vt 0.418928 0.496092
vt 0.411131 0.496077
vt 0.411131 0.487322
vt 0.410158 0.487322
vt 0.410158 0.496077
vt 0.418943 0.496077
vt 0.418943 0.487322
vt 0.417971 0.487322
vt 0.417971 0.496077
vt 0.409201 0.495115
vt 0.409201 0.494143
vt 0.419901 0.494143
vt 0.419901 0.495115
vt 0.410154 0.495104
vt 0.410154 0.488295
vt 0.409182 0.488295
vt 0.409182 0.495104
vt 0.419920 0.495104
vt 0.419920 0.488295
vt 0.418947 0.488295
vt 0.418947 0.495104
vt 0.408228 0.493162
vt 0.408228 0.492189
vt 0.420874 0.492189
vt 0.420874 0.493162
vt 0.409178 0.493158
vt 0.409178 0.490240
vt 0.408205 0.490240
vt 0.408205 0.493158
vt 0.420897 0.493158
vt 0.420897 0.490240
vt 0.419924 0.490240
vt 0.419924 0.493158
vt 0.408228 0.491209
vt 0.408228 0.490236
vt 0.420874 0.490236
vt 0.420874 0.491209
vt 0.409201 0.489256
vt 0.409201 0.488283
vt 0.419901 0.488283
vt 0.419901 0.489256
vt 0.410173 0.488279
vt 0.410173 0.487307
vt 0.418928 0.487307
vt 0.418928 0.488279
vt 0.411146 0.487303
vt 0.411146 0.486330
vt 0.417955 0.486330
vt 0.417955 0.487303
vt 0.413092 0.486326
vt 0.413092 0.485353
vt 0.416010 0.485353
vt 0.416010 0.486326
f 1/1/1 2/2/1 3/3/1 4/4/1
f 5/5/2 6/6/2 7/7/2 8/8/2
f 9/9/3 10/10/3 11/11/3 12/12/3
f 9/13/4 13/14/4 14/15/4 10/16/4
f 11/17/5 15/18/5 16/19/5 12/20/5
f 17/21/3 18/22/3 19/23/3 20/24/3
f 17/25/4 21/26/4 22/27/4 18/28/4
f 19/29/5 23/30/5 24/31/5 20/32/5
f 25/33/3 26/34/3 27/35/3 28/36/3
f 25/37/4 29/38/4 30/39/4 26/40/4
f 27/41/5 31/42/5 32/43/5 28/44/5
f 33/45/3 34/46/3 35/47/3 36/48/3
f 33/49/4 37/50/4 38/51/4 34/52/4
f 35/53/5 39/54/5 40/55/5 36/56/5
f 41/57/3 42/58/3 43/59/3 44/60/3
f 41/61/4 45/62/4 46/63/4 42/64/4
f 43/65/5 47/66/5 48/67/5 44/68/5
f 46/69/6 45/70/6 48/71/6 47/72/6
f 38/73/6 37/74/6 40/75/6 39/76/6
f 30/77/6 29/78/6 32/79/6 31/80/6
f 22/81/6 21/82/6 24/83/6 23/84/6
f 14/85/6 13/86/6 16/87/6 15/88/6
