v 1.000000 1.000000 0.468750
v 1.000000 0.000000 0.468750
v 0.000000 0.000000 0.468750
v 0.000000 1.000000 0.468750
v 0.000000 1.000000 0.531250
v 0.000000 0.000000 0.531250
v 1.000000 0.000000 0.531250
v 1.000000 1.000000 0.531250
v 0.750000 0.875000 0.468750
v 0.750000 0.875000 0.531250
v 0.812500 0.875000 0.531250
v 0.812500 0.875000 0.468750
v 0.750000 0.750000 0.468750
v 0.750000 0.750000 0.531250
v 0.812500 0.375000 0.531250
v 0.812500 0.375000 0.468750
v 0.812500 0.812500 0.468750
v 0.812500 0.812500 0.531250
v 0.875000 0.812500 0.531250
v 0.875000 0.812500 0.468750
v 0.875000 0.437500 0.531250
v 0.875000 0.437500 0.468750
v 0.687500 0.750000 0.468750
v 0.687500 0.750000 0.531250
v 0.687500 0.687500 0.468750
v 0.687500 0.687500 0.531250
v 0.625000 0.687500 0.468750
v 0.625000 0.687500 0.531250
v 0.937500 0.687500 0.531250
v 0.937500 0.687500 0.468750
v 0.625000 0.562500 0.468750
v 0.625000 0.562500 0.531250
v 0.875000 0.625000 0.531250
v 0.875000 0.625000 0.468750
v 0.937500 0.625000 0.468750
v 0.937500 0.625000 0.531250
v 0.812500 0.562500 0.531250
v 0.812500 0.562500 0.468750
v 0.875000 0.562500 0.468750
v 0.875000 0.562500 0.531250
v 0.500000 0.562500 0.468750
v 0.500000 0.562500 0.531250
v 0.500000 0.437500 0.468750
v 0.500000 0.437500 0.531250
v 0.375000 0.500000 0.468750
v 0.375000 0.500000 0.531250
v 0.875000 0.500000 0.531250
v 0.875000 0.500000 0.468750
v 0.375000 0.437500 0.468750
v 0.375000 0.437500 0.531250
v 0.437500 0.500000 0.531250
v 0.437500 0.062500 0.531250
v 0.437500 0.062500 0.468750
v 0.437500 0.500000 0.468750
v 0.812500 0.437500 0.531250
v 0.812500 0.437500 0.468750
v 0.312500 0.437500 0.468750
v 0.312500 0.437500 0.531250
v 0.312500 0.062500 0.468750
v 0.312500 0.062500 0.531250
v 0.687500 0.375000 0.531250
v 0.687500 0.375000 0.468750
v 0.687500 0.312500 0.531250
v 0.687500 0.312500 0.468750
v 0.187500 0.312500 0.468750
v 0.187500 0.312500 0.531250
v 0.750000 0.312500 0.531250
v 0.750000 0.312500 0.468750
v 0.187500 0.250000 0.531250
v 0.187500 0.250000 0.468750
v 0.750000 0.250000 0.468750
v 0.750000 0.250000 0.531250
v 0.250000 0.250000 0.468750
v 0.250000 0.187500 0.468750
v 0.250000 0.187500 0.531250
v 0.250000 0.250000 0.531250
v 0.562500 0.187500 0.531250
v 0.562500 0.187500 0.468750
v 0.625000 0.187500 0.468750
v 0.625000 0.187500 0.531250
v 0.625000 0.250000 0.531250
v 0.625000 0.250000 0.468750
v 0.125000 0.187500 0.468750
v 0.125000 0.187500 0.531250
v 0.125000 0.125000 0.531250
v 0.125000 0.125000 0.468750
v 0.562500 0.125000 0.468750
v 0.562500 0.125000 0.531250
vn 0.000000 0.000000 -1.000000
vn 0.000000 0.000000 1.000000
vn 0.000000 1.000000 0.000000
vn -1.000000 0.000000 0.000000
vn 1.000000 0.000000 0.000000
vn 0.000000 -1.000000 0.000000
vt 0.468719 0.499969
vt 0.468719 0.484406
vt 0.453156 0.484406
vt 0.453156 0.499969
vt 0.453156 0.499969
vt 0.453156 0.484406
vt 0.468719 0.484406
vt 0.468719 0.499969
vt 0.464846 0.498045
vt 0.464846 0.497072
vt 0.465818 0.497072
vt 0.465818 0.498045
vt 0.465818 0.498043
vt 0.465818 0.496098
vt 0.464846 0.496098
vt 0.464846 0.498043
vt 0.465818 0.498032
vt 0.465818 0.490250
vt 0.464846 0.490250
vt 0.464846 0.498032
vt 0.465822 0.497068
vt 0.465822 0.496096
vt 0.466795 0.496096
vt 0.466795 0.497068
vt 0.466795 0.497059
vt 0.466795 0.491222
vt 0.465822 0.491222
vt 0.465822 0.497059
vt 0.463869 0.496092
vt 0.463869 0.495119
vt 0.464842 0.495119
vt 0.464842 0.496092
vt 0.464842 0.496092
vt 0.464842 0.495119
vt 0.463869 0.495119
vt 0.463869 0.496092
vt 0.462900 0.495115
vt 0.462900 0.494143
vt 0.467764 0.494143
vt 0.467764 0.495115
vt 0.463865 0.495113
vt 0.463865 0.493168
vt 0.462893 0.493168
vt 0.462893 0.495113
vt 0.466799 0.495115
vt 0.466799 0.494143
vt 0.467772 0.494143
vt 0.467772 0.495115
vt 0.467772 0.495115
vt 0.467772 0.494143
vt 0.466799 0.494143
vt 0.466799 0.495115
vt 0.465822 0.494139
vt 0.465822 0.493166
vt 0.466795 0.493166
vt 0.466795 0.494139
vt 0.460941 0.493162
vt 0.460941 0.492189
vt 0.462887 0.492189
vt 0.462887 0.493162
vt 0.461912 0.493160
vt 0.461912 0.491215
vt 0.460939 0.491215
vt 0.460939 0.493160
vt 0.459000 0.492186
vt 0.459000 0.491213
vt 0.466782 0.491213
vt 0.466782 0.492186
vt 0.459959 0.492186
vt 0.459959 0.491213
vt 0.458986 0.491213
vt 0.458986 0.492186
vt 0.459959 0.492174
vt 0.459959 0.485365
vt 0.458986 0.485365
vt 0.458986 0.492174
vt 0.465822 0.492186
vt 0.465822 0.491213
vt 0.466795 0.491213
vt 0.466795 0.492186
vt 0.458014 0.491209
vt 0.458014 0.490236
vt 0.460932 0.490236
vt 0.460932 0.491209
vt 0.458982 0.491199
vt 0.458982 0.485363
vt 0.458010 0.485363
vt 0.458010 0.491199
vt 0.463871 0.491209
vt 0.463871 0.490236
vt 0.465816 0.490236
vt 0.465816 0.491209
vt 0.463865 0.490232
vt 0.463865 0.489260
vt 0.462893 0.489260
vt 0.462893 0.490232
vt 0.456072 0.489256
vt 0.456072 0.488283
vt 0.464827 0.488283
vt 0.464827 0.489256
vt 0.456072 0.489256
vt 0.456072 0.488283
vt 0.464827 0.488283
vt 0.464827 0.489256
vt 0.457029 0.489256
vt 0.457029 0.488283
vt 0.456057 0.488283
vt 0.456057 0.489256
vt 0.464842 0.489256
vt 0.464842 0.488283
vt 0.463869 0.488283
vt 0.463869 0.489256
vt 0.458006 0.488279
vt 0.458006 0.487307
vt 0.457033 0.487307
vt 0.457033 0.488279
vt 0.461916 0.488279
vt 0.461916 0.487307
vt 0.462889 0.487307
vt 0.462889 0.488279
vt 0.462889 0.488279
vt 0.462889 0.487307
vt 0.461916 0.487307
vt 0.461916 0.488279
vt 0.455082 0.487303
vt 0.455082 0.486330
vt 0.457027 0.486330
vt 0.457027 0.487303
vt 0.455091 0.487303
vt 0.455091 0.486330
vt 0.461901 0.486330
vt 0.461901 0.487303
vt 0.456053 0.487303
vt 0.456053 0.486330
vt 0.455080 0.486330
vt 0.455080 0.487303
vt 0.461912 0.487303
vt 0.461912 0.486330
vt 0.460939 0.486330
vt 0.460939 0.487303
vt 0.458012 0.486326
vt 0.458012 0.485353
vt 0.459957 0.485353
vt 0.459957 0.486326
f 1/1/1 2/2/1 3/3/1 4/4/1
f 5/5/2 6/6/2 7/7/2 8/8/2
f 9/9/3 10/10/3 11/11/3 12/12/3
f 9/13/4 13/14/4 14/15/4 10/16/4
f 11/17/5 15/18/5 16/19/5 12/20/5
f 17/21/3 18/22/3 19/23/3 20/24/3
f 19/25/5 21/26/5 22/27/5 20/28/5
f 23/29/3 24/30/3 14/31/3 13/32/3
f 23/33/4 25/34/4 26/35/4 24/36/4
f 27/37/3 28/38/3 29/39/3 30/40/3
f 27/41/4 31/42/4 32/43/4 28/44/4
f 33/45/6 34/46/6 35/47/6 36/48/6
f 29/49/5 36/50/5 35/51/5 30/52/5
f 37/53/6 38/54/6 39/55/6 40/56/6
f 41/57/3 42/58/3 32/59/3 31/60/3
f 41/61/4 43/62/4 44/63/4 42/64/4
f 45/65/3 46/66/3 47/67/3 48/68/3
f 45/69/4 49/70/4 50/71/4 46/72/4
f 51/73/5 52/74/5 53/75/5 54/76/5
f 55/77/6 56/78/6 22/79/6 21/80/6
f 57/81/3 58/82/3 44/83/3 43/84/3
f 57/85/4 59/86/4 60/87/4 58/88/4
f 61/89/6 62/90/6 16/91/6 15/92/6
f 61/93/5 63/94/5 64/95/5 62/96/5
f 65/97/3 66/98/3 67/99/3 68/100/3
f 69/101/6 70/102/6 71/103/6 72/104/6
f 65/105/4 70/106/4 69/107/4 66/108/4
f 67/109/5 72/110/5 71/111/5 68/112/5
f 73/113/4 74/114/4 75/115/4 76/116/4
f 77/117/6 78/118/6 79/119/6 80/120/6
f 81/121/5 80/122/5 79/123/5 82/124/5
f 83/125/3 84/126/3 75/127/3 74/128/3
f 85/129/6 86/130/6 87/131/6 88/132/6
f 83/133/4 86/134/4 85/135/4 84/136/4
f 77/137/5 88/138/5 87/139/5 78/140/5
f 60/141/6 59/142/6 53/143/6 52/144/6
