v 1.000000 1.000000 0.468750
v 1.000000 0.000000 0.468750
v 0.000000 0.000000 0.468750
v 0.000000 1.000000 0.468750
v 0.000000 1.000000 0.531250
v 0.000000 0.000000 0.531250
v 1.000000 0.000000 0.531250
v 1.000000 1.000000 0.531250
v 0.375000 0.875000 0.468750
v 0.375000 0.875000 0.531250
v 0.625000 0.875000 0.531250
v 0.625000 0.875000 0.468750
v 0.375000 0.187500 0.468750
v 0.375000 0.187500 0.531250
v 0.625000 0.187500 0.531250
v 0.625000 0.187500 0.468750
v 0.250000 0.812500 0.468750
v 0.250000 0.812500 0.531250
v 0.750000 0.812500 0.531250
v 0.750000 0.812500 0.468750
v 0.250000 0.375000 0.468750
v 0.250000 0.375000 0.531250
v 0.750000 0.375000 0.531250
v 0.750000 0.375000 0.468750
v 0.187500 0.750000 0.468750
v 0.187500 0.750000 0.531250
v 0.812500 0.750000 0.531250
v 0.812500 0.750000 0.468750
v 0.187500 0.500000 0.468750
v 0.187500 0.500000 0.531250
v 0.812500 0.500000 0.531250
v 0.812500 0.500000 0.468750
v 0.312500 0.375000 0.468750
v 0.312500 0.250000 0.468750
v 0.312500 0.250000 0.531250
v 0.312500 0.375000 0.531250
v 0.687500 0.375000 0.531250
v 0.687500 0.250000 0.531250
v 0.687500 0.250000 0.468750
v 0.687500 0.375000 0.468750
vn 0.000000 0.000000 -1.000000
vn 0.000000 0.000000 1.000000
vn 0.000000 1.000000 0.000000
vn -1.000000 0.000000 0.000000
vn 1.000000 0.000000 0.000000
vn 0.000000 -1.000000 0.000000
vt 0.531219 0.859344
vt 0.531219 0.843781
vt 0.515656 0.843781
vt 0.515656 0.859344
vt 0.515656 0.859344
vt 0.515656 0.843781
vt 0.531219 0.843781
vt 0.531219 0.859344
vt 0.521492 0.857420
vt 0.521492 0.856447
vt 0.525383 0.856447
vt 0.525383 0.857420
vt 0.522459 0.857401
vt 0.522459 0.846701
vt 0.521486 0.846701
vt 0.521486 0.857401
vt 0.525389 0.857401
vt 0.525389 0.846701
vt 0.524416 0.846701
vt 0.524416 0.857401
vt 0.519547 0.856443
vt 0.519547 0.855471
vt 0.527328 0.855471
vt 0.527328 0.856443
vt 0.520506 0.856432
vt 0.520506 0.849623
vt 0.519533 0.849623
vt 0.519533 0.856432
vt 0.527342 0.856432
vt 0.527342 0.849623
vt 0.526369 0.849623
vt 0.526369 0.856432
vt 0.518574 0.855467
vt 0.518574 0.854494
vt 0.528301 0.854494
vt 0.528301 0.855467
vt 0.519529 0.855461
vt 0.519529 0.851570
vt 0.518557 0.851570
vt 0.518557 0.855461
vt 0.528318 0.855461
vt 0.528318 0.851570
vt 0.527346 0.851570
vt 0.527346 0.855461
vt 0.518574 0.852537
vt 0.518574 0.851564
vt 0.528301 0.851564
vt 0.528301 0.852537
vt 0.519547 0.850584
vt 0.519547 0.849611
vt 0.527328 0.849611
vt 0.527328 0.850584
vt 0.521482 0.849606
vt 0.521482 0.847660
vt 0.520510 0.847660
vt 0.520510 0.849606
vt 0.526365 0.849606
vt 0.526365 0.847660
vt 0.525393 0.847660
vt 0.525393 0.849606
vt 0.520519 0.848631
vt 0.520519 0.847658
vt 0.526356 0.847658
vt 0.526356 0.848631
vt 0.521492 0.847654
vt 0.521492 0.846682
vt 0.525383 0.846682
vt 0.525383 0.847654
f 1/1/1 2/2/1 3/3/1 4/4/1
f 5/5/2 6/6/2 7/7/2 8/8/2
f 9/9/3 10/10/3 11/11/3 12/12/3
f 9/13/4 13/14/4 14/15/4 10/16/4
f 11/17/5 15/18/5 16/19/5 12/20/5
f 17/21/3 18/22/3 19/23/3 20/24/3
f 17/25/4 21/26/4 22/27/4 18/28/4
f 19/29/5 23/30/5 24/31/5 20/32/5
f 25/33/3 26/34/3 27/35/3 28/36/3
f 25/37/4 29/38/4 30/39/4 26/40/4
f 27/41/5 31/42/5 32/43/5 28/44/5
f 30/45/6 29/46/6 32/47/6 31/48/6
f 22/49/6 21/50/6 24/51/6 23/52/6
f 33/53/4 34/54/4 35/55/4 36/56/4
f 37/57/5 38/58/5 39/59/5 40/60/5
f 35/61/6 34/62/6 39/63/6 38/64/6
f 14/65/6 13/66/6 16/67/6 15/68/6
