v 1.000000 1.000000 0.468750
v 1.000000 0.000000 0.468750
v 0.000000 0.000000 0.468750
v 0.000000 1.000000 0.468750
v 0.000000 1.000000 0.531250
v 0.000000 0.000000 0.531250
v 1.000000 0.000000 0.531250
v 1.000000 1.000000 0.531250
v 0.562500 0.937500 0.468750
v 0.562500 0.937500 0.531250
v 0.687500 0.937500 0.531250
v 0.687500 0.937500 0.468750
v 0.562500 0.875000 0.468750
v 0.562500 0.875000 0.531250
v 0.687500 0.875000 0.531250
v 0.687500 0.875000 0.468750
v 0.500000 0.875000 0.468750
v 0.500000 0.875000 0.531250
v 0.750000 0.875000 0.531250
v 0.750000 0.875000 0.468750
v 0.500000 0.500000 0.468750
v 0.500000 0.500000 0.531250
v 0.750000 0.750000 0.531250
v 0.750000 0.750000 0.468750
v 0.437500 0.812500 0.468750
v 0.437500 0.812500 0.531250
v 0.500000 0.812500 0.531250
v 0.500000 0.812500 0.468750
v 0.437500 0.437500 0.468750
v 0.437500 0.437500 0.531250
v 0.375000 0.750000 0.468750
v 0.375000 0.750000 0.531250
v 0.812500 0.750000 0.531250
v 0.812500 0.750000 0.468750
v 0.375000 0.375000 0.468750
v 0.375000 0.375000 0.531250
v 0.812500 0.437500 0.531250
v 0.812500 0.437500 0.468750
v 0.375000 0.625000 0.531250
v 0.375000 0.625000 0.468750
v 0.437500 0.625000 0.468750
v 0.437500 0.625000 0.531250
v 0.437500 0.562500 0.531250
v 0.437500 0.562500 0.468750
v 0.500000 0.562500 0.468750
v 0.500000 0.562500 0.531250
v 0.812500 0.625000 0.468750
v 0.812500 0.625000 0.531250
v 0.875000 0.625000 0.531250
v 0.875000 0.625000 0.468750
v 0.875000 0.500000 0.531250
v 0.875000 0.500000 0.468750
v 0.625000 0.500000 0.531250
v 0.625000 0.500000 0.468750
v 0.437500 0.500000 0.468750
v 0.437500 0.500000 0.531250
v 0.562500 0.437500 0.531250
v 0.562500 0.437500 0.468750
v 0.625000 0.437500 0.531250
v 0.625000 0.437500 0.468750
v 0.687500 0.500000 0.468750
v 0.687500 0.437500 0.468750
v 0.687500 0.437500 0.531250
v 0.687500 0.500000 0.531250
v 0.375000 0.437500 0.468750
v 0.375000 0.437500 0.531250
v 0.500000 0.375000 0.531250
v 0.500000 0.375000 0.468750
v 0.562500 0.375000 0.468750
v 0.562500 0.375000 0.531250
v 0.312500 0.375000 0.468750
v 0.312500 0.375000 0.531250
v 0.312500 0.312500 0.468750
v 0.312500 0.312500 0.531250
v 0.437500 0.312500 0.531250
v 0.437500 0.312500 0.468750
v 0.500000 0.312500 0.468750
v 0.500000 0.312500 0.531250
v 0.250000 0.312500 0.468750
v 0.250000 0.312500 0.531250
v 0.250000 0.250000 0.468750
v 0.250000 0.250000 0.531250
v 0.375000 0.250000 0.531250
v 0.375000 0.250000 0.468750
v 0.437500 0.250000 0.468750
v 0.437500 0.250000 0.531250
v 0.187500 0.250000 0.468750
v 0.187500 0.250000 0.531250
v 0.187500 0.187500 0.468750
v 0.187500 0.187500 0.531250
v 0.312500 0.187500 0.531250
v 0.312500 0.187500 0.468750
v 0.375000 0.187500 0.468750
v 0.375000 0.187500 0.531250
v 0.125000 0.187500 0.468750
v 0.125000 0.187500 0.531250
v 0.125000 0.062500 0.468750
v 0.125000 0.062500 0.531250
v 0.250000 0.125000 0.531250
v 0.250000 0.125000 0.468750
v 0.312500 0.125000 0.468750
v 0.312500 0.125000 0.531250
v 0.250000 0.062500 0.468750
v 0.250000 0.062500 0.531250
vn 0.000000 0.000000 -1.000000
vn 0.000000 0.000000 1.000000
vn 0.000000 1.000000 0.000000
vn -1.000000 0.000000 0.000000
vn 1.000000 0.000000 0.000000
vn 0.000000 -1.000000 0.000000
vt 0.531219 0.656219
vt 0.531219 0.640656
vt 0.515656 0.640656
vt 0.515656 0.656219
vt 0.515656 0.656219
vt 0.515656 0.640656
vt 0.531219 0.640656
vt 0.531219 0.656219
vt 0.524418 0.655272
vt 0.524418 0.654299
vt 0.526363 0.654299
vt 0.526363 0.655272
vt 0.525389 0.655272
vt 0.525389 0.654299
vt 0.524416 0.654299
vt 0.524416 0.655272
vt 0.526365 0.655272
vt 0.526365 0.654299
vt 0.525393 0.654299
vt 0.525393 0.655272
vt 0.523445 0.654295
vt 0.523445 0.653322
vt 0.527336 0.653322
vt 0.527336 0.654295
vt 0.524412 0.654285
vt 0.524412 0.648449
vt 0.523439 0.648449
vt 0.523439 0.654285
vt 0.527342 0.654293
vt 0.527342 0.652348
vt 0.526369 0.652348
vt 0.526369 0.654293
vt 0.522463 0.653318
vt 0.522463 0.652346
vt 0.523436 0.652346
vt 0.523436 0.653318
vt 0.523436 0.653309
vt 0.523436 0.647472
vt 0.522463 0.647472
vt 0.522463 0.653309
vt 0.521498 0.652342
vt 0.521498 0.651369
vt 0.528307 0.651369
vt 0.528307 0.652342
vt 0.522459 0.652332
vt 0.522459 0.646496
vt 0.521486 0.646496
vt 0.521486 0.652332
vt 0.528318 0.652334
vt 0.528318 0.647470
vt 0.527346 0.647470
vt 0.527346 0.652334
vt 0.521486 0.651365
vt 0.521486 0.650393
vt 0.522459 0.650393
vt 0.522459 0.651365
vt 0.522463 0.650389
vt 0.522463 0.649416
vt 0.523436 0.649416
vt 0.523436 0.650389
vt 0.528322 0.650389
vt 0.528322 0.649416
vt 0.529295 0.649416
vt 0.529295 0.650389
vt 0.529295 0.650387
vt 0.529295 0.648441
vt 0.528322 0.648441
vt 0.528322 0.650387
vt 0.525398 0.649412
vt 0.525398 0.648439
vt 0.529289 0.648439
vt 0.529289 0.649412
vt 0.522463 0.648436
vt 0.522463 0.647463
vt 0.523436 0.647463
vt 0.523436 0.648436
vt 0.524422 0.648436
vt 0.524422 0.647463
vt 0.528313 0.647463
vt 0.528313 0.648436
vt 0.525389 0.648436
vt 0.525389 0.647463
vt 0.524416 0.647463
vt 0.524416 0.648436
vt 0.527342 0.648436
vt 0.527342 0.647463
vt 0.526369 0.647463
vt 0.526369 0.648436
vt 0.521486 0.647459
vt 0.521486 0.646486
vt 0.522459 0.646486
vt 0.522459 0.647459
vt 0.523439 0.647459
vt 0.523439 0.646486
vt 0.524412 0.646486
vt 0.524412 0.647459
vt 0.524412 0.647459
vt 0.524412 0.646486
vt 0.523439 0.646486
vt 0.523439 0.647459
vt 0.520510 0.646482
vt 0.520510 0.645510
vt 0.521482 0.645510
vt 0.521482 0.646482
vt 0.521482 0.646482
vt 0.521482 0.645510
vt 0.520510 0.645510
vt 0.520510 0.646482
vt 0.522463 0.646482
vt 0.522463 0.645510
vt 0.523436 0.645510
vt 0.523436 0.646482
vt 0.523436 0.646482
vt 0.523436 0.645510
vt 0.522463 0.645510
vt 0.522463 0.646482
vt 0.519533 0.645506
vt 0.519533 0.644533
vt 0.520506 0.644533
vt 0.520506 0.645506
vt 0.520506 0.645506
vt 0.520506 0.644533
vt 0.519533 0.644533
vt 0.519533 0.645506
vt 0.521486 0.645506
vt 0.521486 0.644533
vt 0.522459 0.644533
vt 0.522459 0.645506
vt 0.522459 0.645506
vt 0.522459 0.644533
vt 0.521486 0.644533
vt 0.521486 0.645506
vt 0.518557 0.644529
vt 0.518557 0.643557
vt 0.519529 0.643557
vt 0.519529 0.644529
vt 0.519529 0.644529
vt 0.519529 0.643557
vt 0.518557 0.643557
vt 0.518557 0.644529
vt 0.520510 0.644529
vt 0.520510 0.643557
vt 0.521482 0.643557
vt 0.521482 0.644529
vt 0.521482 0.644529
vt 0.521482 0.643557
vt 0.520510 0.643557
vt 0.520510 0.644529
vt 0.517580 0.643553
vt 0.517580 0.642580
vt 0.518553 0.642580
vt 0.518553 0.643553
vt 0.518553 0.643551
vt 0.518553 0.641605
vt 0.517580 0.641605
vt 0.517580 0.643551
vt 0.519533 0.643553
vt 0.519533 0.642580
vt 0.520506 0.642580
vt 0.520506 0.643553
vt 0.520506 0.643553
vt 0.520506 0.642580
vt 0.519533 0.642580
vt 0.519533 0.643553
vt 0.517582 0.642576
vt 0.517582 0.641603
vt 0.519527 0.641603
vt 0.519527 0.642576
vt 0.519529 0.642576
vt 0.519529 0.641603
vt 0.518557 0.641603
vt 0.518557 0.642576
f 1/1/1 2/2/1 3/3/1 4/4/1
f 5/5/2 6/6/2 7/7/2 8/8/2
f 9/9/3 10/10/3 11/11/3 12/12/3
f 9/13/4 13/14/4 14/15/4 10/16/4
f 11/17/5 15/18/5 16/19/5 12/20/5
f 17/21/3 18/22/3 19/23/3 20/24/3
f 17/25/4 21/26/4 22/27/4 18/28/4
f 19/29/5 23/30/5 24/31/5 20/32/5
f 25/33/3 26/34/3 27/35/3 28/36/3
f 25/37/4 29/38/4 30/39/4 26/40/4
f 31/41/3 32/42/3 33/43/3 34/44/3
f 31/45/4 35/46/4 36/47/4 32/48/4
f 33/49/5 37/50/5 38/51/5 34/52/5
f 39/53/6 40/54/6 41/55/6 42/56/6
f 43/57/6 44/58/6 45/59/6 46/60/6
f 47/61/3 48/62/3 49/63/3 50/64/3
f 49/65/5 51/66/5 52/67/5 50/68/5
f 53/69/6 54/70/6 52/71/6 51/72/6
f 55/73/3 56/74/3 22/75/3 21/76/3
f 57/77/6 58/78/6 38/79/6 37/80/6
f 53/81/5 59/82/5 60/83/5 54/84/5
f 61/85/4 62/86/4 63/87/4 64/88/4
f 65/89/3 66/90/3 30/91/3 29/92/3
f 67/93/6 68/94/6 69/95/6 70/96/6
f 57/97/5 70/98/5 69/99/5 58/100/5
f 71/101/3 72/102/3 36/103/3 35/104/3
f 71/105/4 73/106/4 74/107/4 72/108/4
f 75/109/6 76/110/6 77/111/6 78/112/6
f 67/113/5 78/114/5 77/115/5 68/116/5
f 79/117/3 80/118/3 74/119/3 73/120/3
f 79/121/4 81/122/4 82/123/4 80/124/4
f 83/125/6 84/126/6 85/127/6 86/128/6
f 75/129/5 86/130/5 85/131/5 76/132/5
f 87/133/3 88/134/3 82/135/3 81/136/3
f 87/137/4 89/138/4 90/139/4 88/140/4
f 91/141/6 92/142/6 93/143/6 94/144/6
f 83/145/5 94/146/5 93/147/5 84/148/5
f 95/149/3 96/150/3 90/151/3 89/152/3
f 95/153/4 97/154/4 98/155/4 96/156/4
f 99/157/6 100/158/6 101/159/6 102/160/6
f 91/161/5 102/162/5 101/163/5 92/164/5
f 98/165/6 97/166/6 103/167/6 104/168/6
f 99/169/5 104/170/5 103/171/5 100/172/5
