v 1.000000 1.000000 0.468750
v 1.000000 0.000000 0.468750
v 0.000000 0.000000 0.468750
v 0.000000 1.000000 0.468750
v 0.000000 1.000000 0.531250
v 0.000000 0.000000 0.531250
v 1.000000 0.000000 0.531250
v 1.000000 1.000000 0.531250
v 0.062500 0.875000 0.468750
v 0.062500 0.875000 0.531250
v 0.937500 0.875000 0.531250
v 0.937500 0.875000 0.468750
v 0.062500 0.500000 0.468750
v 0.062500 0.500000 0.531250
v 0.375000 0.875000 0.531250
v 0.375000 0.750000 0.531250
v 0.375000 0.750000 0.468750
v 0.375000 0.875000 0.468750
v 0.625000 0.875000 0.468750
v 0.625000 0.750000 0.468750
v 0.625000 0.750000 0.531250
v 0.625000 0.875000 0.531250
v 0.937500 0.500000 0.531250
v 0.937500 0.500000 0.468750
v 0.437500 0.750000 0.531250
v 0.437500 0.687500 0.531250
v 0.437500 0.687500 0.468750
v 0.437500 0.750000 0.468750
v 0.562500 0.750000 0.468750
v 0.562500 0.687500 0.468750
v 0.562500 0.687500 0.531250
v 0.562500 0.750000 0.531250
v 0.187500 0.500000 0.468750
v 0.187500 0.187500 0.468750
v 0.187500 0.187500 0.531250
v 0.187500 0.500000 0.531250
v 0.812500 0.500000 0.531250
v 0.812500 0.187500 0.531250
v 0.812500 0.187500 0.468750
v 0.812500 0.500000 0.468750
v 0.250000 0.125000 0.531250
v 0.250000 0.125000 0.468750
v 0.750000 0.125000 0.468750
v 0.750000 0.125000 0.531250
v 0.250000 0.187500 0.468750
v 0.250000 0.187500 0.531250
v 0.750000 0.187500 0.531250
v 0.750000 0.187500 0.468750
v 0.312500 0.062500 0.531250
v 0.312500 0.062500 0.468750
v 0.687500 0.062500 0.468750
v 0.687500 0.062500 0.531250
v 0.312500 0.125000 0.468750
v 0.312500 0.125000 0.531250
v 0.687500 0.125000 0.531250
v 0.687500 0.125000 0.468750
vn 0.000000 0.000000 -1.000000
vn 0.000000 0.000000 1.000000
vn 0.000000 1.000000 0.000000
vn -1.000000 0.000000 0.000000
vn 1.000000 0.000000 0.000000
vn 0.000000 -1.000000 0.000000
vt 0.531219 0.609344
vt 0.531219 0.593781
vt 0.515656 0.593781
vt 0.515656 0.609344
vt 0.515656 0.609344
vt 0.515656 0.593781
vt 0.531219 0.593781
vt 0.531219 0.609344
vt 0.516628 0.607420
vt 0.516628 0.606447
vt 0.530247 0.606447
vt 0.530247 0.607420
vt 0.517576 0.607410
vt 0.517576 0.601574
vt 0.516603 0.601574
vt 0.516603 0.607410
vt 0.521482 0.607418
vt 0.521482 0.605473
vt 0.520510 0.605473
vt 0.520510 0.607418
vt 0.526365 0.607418
vt 0.526365 0.605473
vt 0.525393 0.605473
vt 0.525393 0.607418
vt 0.530272 0.607410
vt 0.530272 0.601574
vt 0.529299 0.601574
vt 0.529299 0.607410
vt 0.521492 0.605467
vt 0.521492 0.604494
vt 0.525383 0.604494
vt 0.525383 0.605467
vt 0.522459 0.605467
vt 0.522459 0.604494
vt 0.521486 0.604494
vt 0.521486 0.605467
vt 0.525389 0.605467
vt 0.525389 0.604494
vt 0.524416 0.604494
vt 0.524416 0.605467
vt 0.522465 0.604490
vt 0.522465 0.603518
vt 0.524410 0.603518
vt 0.524410 0.604490
vt 0.516628 0.602537
vt 0.516628 0.601564
vt 0.530247 0.601564
vt 0.530247 0.602537
vt 0.519529 0.601553
vt 0.519529 0.596689
vt 0.518557 0.596689
vt 0.518557 0.601553
vt 0.528318 0.601553
vt 0.528318 0.596689
vt 0.527346 0.596689
vt 0.527346 0.601553
vt 0.518574 0.597654
vt 0.518574 0.596682
vt 0.528301 0.596682
vt 0.528301 0.597654
vt 0.519547 0.596678
vt 0.519547 0.595705
vt 0.527328 0.595705
vt 0.527328 0.596678
vt 0.520506 0.596678
vt 0.520506 0.595705
vt 0.519533 0.595705
vt 0.519533 0.596678
vt 0.527342 0.596678
vt 0.527342 0.595705
vt 0.526369 0.595705
vt 0.526369 0.596678
vt 0.520519 0.595701
vt 0.520519 0.594728
vt 0.526356 0.594728
vt 0.526356 0.595701
vt 0.521482 0.595701
vt 0.521482 0.594728
vt 0.520510 0.594728
vt 0.520510 0.595701
vt 0.526365 0.595701
vt 0.526365 0.594728
vt 0.525393 0.594728
vt 0.525393 0.595701
f 1/1/1 2/2/1 3/3/1 4/4/1
f 5/5/2 6/6/2 7/7/2 8/8/2
f 9/9/3 10/10/3 11/11/3 12/12/3
f 9/13/4 13/14/4 14/15/4 10/16/4
f 15/17/5 16/18/5 17/19/5 18/20/5
f 19/21/4 20/22/4 21/23/4 22/24/4
f 11/25/5 23/26/5 24/27/5 12/28/5
f 17/29/3 16/30/3 21/31/3 20/32/3
f 25/33/5 26/34/5 27/35/5 28/36/5
f 29/37/4 30/38/4 31/39/4 32/40/4
f 27/41/3 26/42/3 31/43/3 30/44/3
f 14/45/6 13/46/6 24/47/6 23/48/6
f 33/49/4 34/50/4 35/51/4 36/52/4
f 37/53/5 38/54/5 39/55/5 40/56/5
f 35/57/6 34/58/6 39/59/6 38/60/6
f 41/61/6 42/62/6 43/63/6 44/64/6
f 45/65/4 42/66/4 41/67/4 46/68/4
f 47/69/5 44/70/5 43/71/5 48/72/5
f 49/73/6 50/74/6 51/75/6 52/76/6
f 53/77/4 50/78/4 49/79/4 54/80/4
f 55/81/5 52/82/5 51/83/5 56/84/5
