v 1.000000 1.000000 0.468750
v 1.000000 0.000000 0.468750
v 0.000000 0.000000 0.468750
v 0.000000 1.000000 0.468750
v 0.000000 1.000000 0.531250
v 0.000000 0.000000 0.531250
v 1.000000 0.000000 0.531250
v 1.000000 1.000000 0.531250
v 0.375000 0.875000 0.468750
v 0.375000 0.875000 0.531250
v 0.687500 0.875000 0.531250
v 0.687500 0.875000 0.468750
v 0.375000 0.375000 0.468750
v 0.375000 0.375000 0.531250
v 0.687500 0.500000 0.531250
v 0.687500 0.500000 0.468750
v 0.312500 0.812500 0.468750
v 0.312500 0.812500 0.531250
v 0.875000 0.812500 0.531250
v 0.875000 0.812500 0.468750
v 0.312500 0.750000 0.531250
v 0.312500 0.750000 0.468750
v 0.375000 0.750000 0.468750
v 0.375000 0.750000 0.531250
v 0.312500 0.312500 0.468750
v 0.312500 0.312500 0.531250
v 0.875000 0.250000 0.531250
v 0.875000 0.250000 0.468750
v 0.375000 0.687500 0.531250
v 0.375000 0.687500 0.468750
v 0.625000 0.687500 0.468750
v 0.625000 0.687500 0.531250
v 0.625000 0.625000 0.468750
v 0.625000 0.625000 0.531250
v 0.562500 0.625000 0.468750
v 0.562500 0.625000 0.531250
v 0.937500 0.625000 0.531250
v 0.937500 0.625000 0.468750
v 0.562500 0.562500 0.468750
v 0.562500 0.562500 0.531250
v 0.687500 0.562500 0.531250
v 0.687500 0.562500 0.468750
v 0.750000 0.562500 0.468750
v 0.750000 0.562500 0.531250
v 0.937500 0.312500 0.531250
v 0.937500 0.312500 0.468750
v 0.500000 0.562500 0.468750
v 0.500000 0.562500 0.531250
v 0.500000 0.500000 0.468750
v 0.500000 0.500000 0.531250
v 0.625000 0.500000 0.531250
v 0.625000 0.500000 0.468750
v 0.750000 0.312500 0.468750
v 0.750000 0.312500 0.531250
v 0.437500 0.500000 0.468750
v 0.437500 0.500000 0.531250
v 0.437500 0.437500 0.468750
v 0.437500 0.437500 0.531250
v 0.562500 0.437500 0.531250
v 0.562500 0.437500 0.468750
v 0.625000 0.437500 0.468750
v 0.625000 0.437500 0.531250
v 0.375000 0.437500 0.468750
v 0.375000 0.437500 0.531250
v 0.500000 0.375000 0.531250
v 0.500000 0.375000 0.468750
v 0.562500 0.375000 0.468750
v 0.562500 0.375000 0.531250
v 0.312500 0.375000 0.468750
v 0.312500 0.375000 0.531250
v 0.437500 0.312500 0.531250
v 0.437500 0.312500 0.468750
v 0.500000 0.312500 0.531250
v 0.500000 0.312500 0.468750
v 0.250000 0.312500 0.468750
v 0.250000 0.312500 0.531250
v 0.250000 0.250000 0.468750
v 0.250000 0.250000 0.531250
v 0.375000 0.250000 0.531250
v 0.375000 0.250000 0.468750
v 0.437500 0.250000 0.531250
v 0.437500 0.250000 0.468750
v 0.812500 0.312500 0.468750
v 0.812500 0.250000 0.468750
v 0.812500 0.250000 0.531250
v 0.812500 0.312500 0.531250
v 0.187500 0.250000 0.468750
v 0.187500 0.250000 0.531250
v 0.187500 0.187500 0.468750
v 0.187500 0.187500 0.531250
v 0.312500 0.187500 0.531250
v 0.312500 0.187500 0.468750
v 0.375000 0.187500 0.468750
v 0.375000 0.187500 0.531250
v 0.125000 0.187500 0.468750
v 0.125000 0.187500 0.531250
v 0.125000 0.062500 0.468750
v 0.125000 0.062500 0.531250
v 0.250000 0.125000 0.531250
v 0.250000 0.125000 0.468750
v 0.312500 0.125000 0.468750
v 0.312500 0.125000 0.531250
v 0.250000 0.062500 0.468750
v 0.250000 0.062500 0.531250
vn 0.000000 0.000000 -1.000000
vn 0.000000 0.000000 1.000000
vn 0.000000 1.000000 0.000000
vn -1.000000 0.000000 0.000000
vn 1.000000 0.000000 0.000000
vn 0.000000 -1.000000 0.000000
vt 0.531219 0.531219
vt 0.531219 0.515656
vt 0.515656 0.515656
vt 0.515656 0.531219
vt 0.515656 0.531219
vt 0.515656 0.515656
vt 0.531219 0.515656
vt 0.531219 0.531219
vt 0.521494 0.529295
vt 0.521494 0.528322
vt 0.526358 0.528322
vt 0.526358 0.529295
vt 0.522459 0.529282
vt 0.522459 0.521500
vt 0.521486 0.521500
vt 0.521486 0.529282
vt 0.526365 0.529285
vt 0.526365 0.523449
vt 0.525393 0.523449
vt 0.525393 0.529285
vt 0.520525 0.528318
vt 0.520525 0.527346
vt 0.529280 0.527346
vt 0.529280 0.528318
vt 0.520510 0.528318
vt 0.520510 0.527346
vt 0.521482 0.527346
vt 0.521482 0.528318
vt 0.521482 0.528305
vt 0.521482 0.520523
vt 0.520510 0.520523
vt 0.520510 0.528305
vt 0.529295 0.528303
vt 0.529295 0.519548
vt 0.528322 0.519548
vt 0.528322 0.528303
vt 0.521492 0.527342
vt 0.521492 0.526369
vt 0.525383 0.526369
vt 0.525383 0.527342
vt 0.526365 0.526365
vt 0.526365 0.525393
vt 0.525393 0.525393
vt 0.525393 0.526365
vt 0.524426 0.525389
vt 0.524426 0.524416
vt 0.530262 0.524416
vt 0.530262 0.525389
vt 0.525389 0.525389
vt 0.525389 0.524416
vt 0.524416 0.524416
vt 0.524416 0.525389
vt 0.526369 0.525389
vt 0.526369 0.524416
vt 0.527342 0.524416
vt 0.527342 0.525389
vt 0.530272 0.525381
vt 0.530272 0.520517
vt 0.529299 0.520517
vt 0.529299 0.525381
vt 0.523439 0.524412
vt 0.523439 0.523439
vt 0.524412 0.523439
vt 0.524412 0.524412
vt 0.524412 0.524412
vt 0.524412 0.523439
vt 0.523439 0.523439
vt 0.523439 0.524412
vt 0.525393 0.524412
vt 0.525393 0.523439
vt 0.526365 0.523439
vt 0.526365 0.524412
vt 0.528318 0.524406
vt 0.528318 0.520515
vt 0.527346 0.520515
vt 0.527346 0.524406
vt 0.522463 0.523436
vt 0.522463 0.522463
vt 0.523436 0.522463
vt 0.523436 0.523436
vt 0.523436 0.523436
vt 0.523436 0.522463
vt 0.522463 0.522463
vt 0.522463 0.523436
vt 0.524416 0.523436
vt 0.524416 0.522463
vt 0.525389 0.522463
vt 0.525389 0.523436
vt 0.525389 0.523436
vt 0.525389 0.522463
vt 0.524416 0.522463
vt 0.524416 0.523436
vt 0.521486 0.522459
vt 0.521486 0.521486
vt 0.522459 0.521486
vt 0.522459 0.522459
vt 0.523439 0.522459
vt 0.523439 0.521486
vt 0.524412 0.521486
vt 0.524412 0.522459
vt 0.524412 0.522459
vt 0.524412 0.521486
vt 0.523439 0.521486
vt 0.523439 0.522459
vt 0.520510 0.521482
vt 0.520510 0.520510
vt 0.521482 0.520510
vt 0.521482 0.521482
vt 0.522476 0.521482
vt 0.522476 0.520510
vt 0.530258 0.520510
vt 0.530258 0.521482
vt 0.523436 0.521482
vt 0.523436 0.520510
vt 0.522463 0.520510
vt 0.522463 0.521482
vt 0.519533 0.520506
vt 0.519533 0.519533
vt 0.520506 0.519533
vt 0.520506 0.520506
vt 0.520506 0.520506
vt 0.520506 0.519533
vt 0.519533 0.519533
vt 0.519533 0.520506
vt 0.521500 0.520506
vt 0.521500 0.519533
vt 0.529282 0.519533
vt 0.529282 0.520506
vt 0.522459 0.520506
vt 0.522459 0.519533
vt 0.521486 0.519533
vt 0.521486 0.520506
vt 0.529295 0.520506
vt 0.529295 0.519533
vt 0.528322 0.519533
vt 0.528322 0.520506
vt 0.518557 0.519529
vt 0.518557 0.518557
vt 0.519529 0.518557
vt 0.519529 0.519529
vt 0.519529 0.519529
vt 0.519529 0.518557
vt 0.518557 0.518557
vt 0.518557 0.519529
vt 0.520510 0.519529
vt 0.520510 0.518557
vt 0.521482 0.518557
vt 0.521482 0.519529
vt 0.521482 0.519529
vt 0.521482 0.518557
vt 0.520510 0.518557
vt 0.520510 0.519529
vt 0.517580 0.518553
vt 0.517580 0.517580
vt 0.518553 0.517580
vt 0.518553 0.518553
vt 0.518553 0.518551
vt 0.518553 0.516605
vt 0.517580 0.516605
vt 0.517580 0.518551
vt 0.519533 0.518553
vt 0.519533 0.517580
vt 0.520506 0.517580
vt 0.520506 0.518553
vt 0.520506 0.518553
vt 0.520506 0.517580
vt 0.519533 0.517580
vt 0.519533 0.518553
vt 0.517582 0.517576
vt 0.517582 0.516603
vt 0.519527 0.516603
vt 0.519527 0.517576
vt 0.519529 0.517576
vt 0.519529 0.516603
vt 0.518557 0.516603
vt 0.518557 0.517576
f 1/1/1 2/2/1 3/3/1 4/4/1
f 5/5/2 6/6/2 7/7/2 8/8/2
f 9/9/3 10/10/3 11/11/3 12/12/3
f 9/13/4 13/14/4 14/15/4 10/16/4
f 11/17/5 15/18/5 16/19/5 12/20/5
f 17/21/3 18/22/3 19/23/3 20/24/3
f 21/25/6 22/26/6 23/27/6 24/28/6
f 17/29/4 25/30/4 26/31/4 18/32/4
f 19/33/5 27/34/5 28/35/5 20/36/5
f 29/37/6 30/38/6 31/39/6 32/40/6
f 31/41/4 33/42/4 34/43/4 32/44/4
f 35/45/3 36/46/3 37/47/3 38/48/3
f 35/49/4 39/50/4 40/51/4 36/52/4
f 41/53/6 42/54/6 43/55/6 44/56/6
f 37/57/5 45/58/5 46/59/5 38/60/5
f 47/61/3 48/62/3 40/63/3 39/64/3
f 47/65/4 49/66/4 50/67/4 48/68/4
f 51/69/6 52/70/6 16/71/6 15/72/6
f 43/73/4 53/74/4 54/75/4 44/76/4
f 55/77/3 56/78/3 50/79/3 49/80/3
f 55/81/4 57/82/4 58/83/4 56/84/4
f 59/85/6 60/86/6 61/87/6 62/88/6
f 51/89/5 62/90/5 61/91/5 52/92/5
f 63/93/3 64/94/3 58/95/3 57/96/3
f 65/97/6 66/98/6 67/99/6 68/100/6
f 59/101/5 68/102/5 67/103/5 60/104/5
f 69/105/3 70/106/3 14/107/3 13/108/3
f 71/109/6 72/110/6 46/111/6 45/112/6
f 65/113/5 73/114/5 74/115/5 66/116/5
f 75/117/3 76/118/3 26/119/3 25/120/3
f 75/121/4 77/122/4 78/123/4 76/124/4
f 79/125/6 80/126/6 28/127/6 27/128/6
f 71/129/5 81/130/5 82/131/5 72/132/5
f 83/133/4 84/134/4 85/135/4 86/136/4
f 87/137/3 88/138/3 78/139/3 77/140/3
f 87/141/4 89/142/4 90/143/4 88/144/4
f 91/145/6 92/146/6 93/147/6 94/148/6
f 79/149/5 94/150/5 93/151/5 80/152/5
f 95/153/3 96/154/3 90/155/3 89/156/3
f 95/157/4 97/158/4 98/159/4 96/160/4
f 99/161/6 100/162/6 101/163/6 102/164/6
f 91/165/5 102/166/5 101/167/5 92/168/5
f 98/169/6 97/170/6 103/171/6 104/172/6
f 99/173/5 104/174/5 103/175/5 100/176/5
