v 1.000000 1.000000 0.468750
v 1.000000 0.000000 0.468750
v 0.000000 0.000000 0.468750
v 0.000000 1.000000 0.468750
v 0.000000 1.000000 0.531250
v 0.000000 0.000000 0.531250
v 1.000000 0.000000 0.531250
v 1.000000 1.000000 0.531250
v 0.375000 0.750000 0.468750
v 0.375000 0.750000 0.531250
v 0.625000 0.750000 0.531250
v 0.625000 0.750000 0.468750
v 0.375000 0.187500 0.468750
v 0.375000 0.187500 0.531250
v 0.625000 0.187500 0.531250
v 0.625000 0.187500 0.468750
v 0.250000 0.687500 0.468750
v 0.250000 0.687500 0.531250
v 0.750000 0.687500 0.531250
v 0.750000 0.687500 0.468750
v 0.250000 0.250000 0.468750
v 0.250000 0.250000 0.531250
v 0.750000 0.250000 0.531250
v 0.750000 0.250000 0.468750
v 0.187500 0.625000 0.468750
v 0.187500 0.625000 0.531250
v 0.812500 0.625000 0.531250
v 0.812500 0.625000 0.468750
v 0.187500 0.312500 0.468750
v 0.187500 0.312500 0.531250
v 0.812500 0.312500 0.531250
v 0.812500 0.312500 0.468750
v 0.125000 0.562500 0.468750
v 0.125000 0.562500 0.531250
v 0.875000 0.562500 0.531250
v 0.875000 0.562500 0.468750
v 0.125000 0.375000 0.468750
v 0.125000 0.375000 0.531250
v 0.875000 0.375000 0.531250
v 0.875000 0.375000 0.468750
vn 0.000000 0.000000 -1.000000
vn 0.000000 0.000000 1.000000
vn 0.000000 1.000000 0.000000
vn -1.000000 0.000000 0.000000
vn 1.000000 0.000000 0.000000
vn 0.000000 -1.000000 0.000000
vt 0.546844 0.984344
vt 0.546844 0.968781
vt 0.531281 0.968781
vt 0.531281 0.984344
vt 0.531281 0.984344
vt 0.531281 0.968781
vt 0.546844 0.968781
vt 0.546844 0.984344
vt 0.537117 0.980467
vt 0.537117 0.979494
vt 0.541008 0.979494
vt 0.541008 0.980467
vt 0.538084 0.980452
vt 0.538084 0.971697
vt 0.537111 0.971697
vt 0.537111 0.980452
vt 0.541014 0.980452
vt 0.541014 0.971697
vt 0.540041 0.971697
vt 0.540041 0.980452
vt 0.535172 0.979490
vt 0.535172 0.978518
vt 0.542953 0.978518
vt 0.542953 0.979490
vt 0.536131 0.979479
vt 0.536131 0.972670
vt 0.535158 0.972670
vt 0.535158 0.979479
vt 0.542967 0.979479
vt 0.542967 0.972670
vt 0.541994 0.972670
vt 0.541994 0.979479
vt 0.534199 0.978514
vt 0.534199 0.977541
vt 0.543926 0.977541
vt 0.543926 0.978514
vt 0.535154 0.978506
vt 0.535154 0.973642
vt 0.534182 0.973642
vt 0.534182 0.978506
vt 0.543943 0.978506
vt 0.543943 0.973642
vt 0.542971 0.973642
vt 0.542971 0.978506
vt 0.533226 0.977537
vt 0.533226 0.976564
vt 0.544899 0.976564
vt 0.544899 0.977537
vt 0.534178 0.977533
vt 0.534178 0.974615
vt 0.533205 0.974615
vt 0.533205 0.977533
vt 0.544920 0.977533
vt 0.544920 0.974615
vt 0.543947 0.974615
vt 0.543947 0.977533
vt 0.533226 0.975584
vt 0.533226 0.974611
vt 0.544899 0.974611
vt 0.544899 0.975584
vt 0.534199 0.974607
vt 0.534199 0.973635
vt 0.543926 0.973635
vt 0.543926 0.974607
vt 0.535172 0.973631
vt 0.535172 0.972658
vt 0.542953 0.972658
vt 0.542953 0.973631
vt 0.537117 0.972654
vt 0.537117 0.971682
vt 0.541008 0.971682
vt 0.541008 0.972654
f 1/1/1 2/2/1 3/3/1 4/4/1
f 5/5/2 6/6/2 7/7/2 8/8/2
f 9/9/3 10/10/3 11/11/3 12/12/3
f 9/13/4 13/14/4 14/15/4 10/16/4
f 11/17/5 15/18/5 16/19/5 12/20/5
f 17/21/3 18/22/3 19/23/3 20/24/3
f 17/25/4 21/26/4 22/27/4 18/28/4
f 19/29/5 23/30/5 24/31/5 20/32/5
f 25/33/3 26/34/3 27/35/3 28/36/3
f 25/37/4 29/38/4 30/39/4 26/40/4
f 27/41/5 31/42/5 32/43/5 28/44/5
f 33/45/3 34/46/3 35/47/3 36/48/3
f 33/49/4 37/50/4 38/51/4 34/52/4
f 35/53/5 39/54/5 40/55/5 36/56/5
f 38/57/6 37/58/6 40/59/6 39/60/6
f 30/61/6 29/62/6 32/63/6 31/64/6
f 22/65/6 21/66/6 24/67/6 23/68/6
f 14/69/6 13/70/6 16/71/6 15/72/6
