v 0.062500 0.062500 0.937500
v 0.062500 0.062500 0.062500
v 0.937500 0.062500 0.062500
v 0.937500 0.062500 0.937500
v 0.062500 0.937500 0.062500
v 0.062500 0.937500 0.937500
v 0.937500 0.937500 0.937500
v 0.937500 0.937500 0.062500
v 0.000000 0.000000 1.000000
v 0.000000 0.000000 0.000000
v 1.000000 0.000000 0.000000
v 1.000000 0.000000 1.000000
v 0.000000 1.000000 0.000000
v 0.000000 1.000000 1.000000
v 1.000000 1.000000 1.000000
v 1.000000 1.000000 0.000000
vn 0.000000 -1.000000 0.000000
vn 0.000000 1.000000 0.000000
vn 0.000000 0.000000 -1.000000
vn 0.000000 0.000000 1.000000
vn -1.000000 0.000000 0.000000
vn 1.000000 0.000000 0.000000
vt 0.407253 0.889622
vt 0.407253 0.876003
vt 0.420872 0.876003
vt 0.420872 0.889622
vt 0.407253 0.858372
vt 0.407253 0.844753
vt 0.420872 0.844753
vt 0.420872 0.858372
vt 0.407253 0.873997
vt 0.407253 0.860378
vt 0.420872 0.860378
vt 0.420872 0.873997
vt 0.407253 0.873997
vt 0.407253 0.860378
vt 0.420872 0.860378
vt 0.420872 0.873997
vt 0.407253 0.873997
vt 0.407253 0.860378
vt 0.420872 0.860378
vt 0.420872 0.873997
vt 0.407253 0.873997
vt 0.407253 0.860378
vt 0.420872 0.860378
vt 0.420872 0.873997
vt 0.406281 0.890594
vt 0.406281 0.875031
vt 0.421844 0.875031
vt 0.421844 0.890594
vt 0.406281 0.890594
vt 0.406281 0.875031
vt 0.421844 0.875031
vt 0.421844 0.890594
vt 0.406281 0.890594
vt 0.406281 0.875031
vt 0.421844 0.875031
vt 0.421844 0.890594
vt 0.406281 0.890594
vt 0.406281 0.875031
vt 0.421844 0.875031
vt 0.421844 0.890594
vt 0.406281 0.890594
vt 0.406281 0.875031
vt 0.421844 0.875031
vt 0.421844 0.890594
vt 0.406281 0.890594
vt 0.406281 0.875031
vt 0.421844 0.875031
vt 0.421844 0.890594
f 1/1/1 2/2/1 3/3/1 4/4/1
f 5/5/2 6/6/2 7/7/2 8/8/2
f 8/9/3 3/10/3 2/11/3 5/12/3
f 6/13/4 1/14/4 4/15/4 7/16/4
f 5/17/5 2/18/5 1/19/5 6/20/5
f 7/21/6 4/22/6 3/23/6 8/24/6
f 9/25/1 10/26/1 11/27/1 12/28/1
f 13/29/2 14/30/2 15/31/2 16/32/2
f 16/33/3 11/34/3 10/35/3 13/36/3
f 14/37/4 9/38/4 12/39/4 15/40/4
f 13/41/5 10/42/5 9/43/5 14/44/5
f 15/45/6 12/46/6 11/47/6 16/48/6
