v 1.000000 1.000000 0.468750
v 1.000000 0.000000 0.468750
v 0.000000 0.000000 0.468750
v 0.000000 1.000000 0.468750
v 0.000000 1.000000 0.531250
v 0.000000 0.000000 0.531250
v 1.000000 0.000000 0.531250
v 1.000000 1.000000 0.531250
v 0.625000 0.812500 0.468750
v 0.625000 0.812500 0.531250
v 0.812500 0.812500 0.531250
v 0.812500 0.812500 0.468750
v 0.625000 0.625000 0.468750
v 0.625000 0.625000 0.531250
v 0.812500 0.375000 0.531250
v 0.812500 0.375000 0.468750
v 0.562500 0.750000 0.468750
v 0.562500 0.750000 0.531250
v 0.875000 0.750000 0.531250
v 0.875000 0.750000 0.468750
v 0.562500 0.687500 0.531250
v 0.562500 0.687500 0.468750
v 0.625000 0.687500 0.468750
v 0.625000 0.687500 0.531250
v 0.562500 0.562500 0.468750
v 0.562500 0.562500 0.531250
v 0.875000 0.500000 0.531250
v 0.875000 0.500000 0.468750
v 0.562500 0.625000 0.468750
v 0.562500 0.625000 0.531250
v 0.375000 0.562500 0.468750
v 0.375000 0.562500 0.531250
v 0.375000 0.187500 0.468750
v 0.375000 0.187500 0.531250
v 0.812500 0.500000 0.531250
v 0.812500 0.500000 0.468750
v 0.250000 0.500000 0.468750
v 0.250000 0.500000 0.531250
v 0.375000 0.500000 0.531250
v 0.375000 0.500000 0.468750
v 0.250000 0.250000 0.468750
v 0.250000 0.250000 0.531250
v 0.187500 0.437500 0.468750
v 0.187500 0.437500 0.531250
v 0.250000 0.437500 0.531250
v 0.250000 0.437500 0.468750
v 0.187500 0.312500 0.468750
v 0.187500 0.312500 0.531250
v 0.750000 0.375000 0.531250
v 0.750000 0.375000 0.468750
v 0.750000 0.312500 0.468750
v 0.750000 0.312500 0.531250
v 0.687500 0.250000 0.468750
v 0.687500 0.250000 0.531250
v 0.687500 0.312500 0.531250
v 0.687500 0.312500 0.468750
v 0.562500 0.187500 0.468750
v 0.562500 0.187500 0.531250
v 0.562500 0.250000 0.531250
v 0.562500 0.250000 0.468750
vn 0.000000 0.000000 -1.000000
vn 0.000000 0.000000 1.000000
vn 0.000000 1.000000 0.000000
vn -1.000000 0.000000 0.000000
vn 1.000000 0.000000 0.000000
vn 0.000000 -1.000000 0.000000
vt 0.546844 0.843719
vt 0.546844 0.828156
vt 0.531281 0.828156
vt 0.531281 0.843719
vt 0.531281 0.843719
vt 0.531281 0.828156
vt 0.546844 0.828156
vt 0.546844 0.843719
vt 0.541021 0.840818
vt 0.541021 0.839846
vt 0.543940 0.839846
vt 0.543940 0.840818
vt 0.541990 0.840815
vt 0.541990 0.837896
vt 0.541018 0.837896
vt 0.541018 0.840815
vt 0.543943 0.840807
vt 0.543943 0.833998
vt 0.542971 0.833998
vt 0.542971 0.840807
vt 0.540049 0.839842
vt 0.540049 0.838869
vt 0.544912 0.838869
vt 0.544912 0.839842
vt 0.540041 0.839842
vt 0.540041 0.838869
vt 0.541014 0.838869
vt 0.541014 0.839842
vt 0.541014 0.839838
vt 0.541014 0.836920
vt 0.540041 0.836920
vt 0.540041 0.839838
vt 0.544920 0.839836
vt 0.544920 0.835945
vt 0.543947 0.835945
vt 0.543947 0.839836
vt 0.540041 0.837889
vt 0.540041 0.836916
vt 0.541014 0.836916
vt 0.541014 0.837889
vt 0.537115 0.836912
vt 0.537115 0.835939
vt 0.540033 0.835939
vt 0.540033 0.836912
vt 0.538084 0.836903
vt 0.538084 0.831066
vt 0.537111 0.831066
vt 0.537111 0.836903
vt 0.543947 0.836912
vt 0.543947 0.835939
vt 0.544920 0.835939
vt 0.544920 0.836912
vt 0.535160 0.835936
vt 0.535160 0.834963
vt 0.537106 0.834963
vt 0.537106 0.835936
vt 0.536131 0.835930
vt 0.536131 0.832039
vt 0.535158 0.832039
vt 0.535158 0.835930
vt 0.534182 0.834959
vt 0.534182 0.833986
vt 0.535154 0.833986
vt 0.535154 0.834959
vt 0.535154 0.834957
vt 0.535154 0.833012
vt 0.534182 0.833012
vt 0.534182 0.834957
vt 0.542971 0.834959
vt 0.542971 0.833986
vt 0.543943 0.833986
vt 0.543943 0.834959
vt 0.534197 0.833982
vt 0.534197 0.833010
vt 0.542952 0.833010
vt 0.542952 0.833982
vt 0.542967 0.833982
vt 0.542967 0.833010
vt 0.541994 0.833010
vt 0.541994 0.833982
vt 0.535170 0.833006
vt 0.535170 0.832033
vt 0.541979 0.832033
vt 0.541979 0.833006
vt 0.541990 0.833006
vt 0.541990 0.832033
vt 0.541018 0.832033
vt 0.541018 0.833006
vt 0.537115 0.832029
vt 0.537115 0.831057
vt 0.540033 0.831057
vt 0.540033 0.832029
vt 0.540037 0.832029
vt 0.540037 0.831057
vt 0.539064 0.831057
vt 0.539064 0.832029
f 1/1/1 2/2/1 3/3/1 4/4/1
f 5/5/2 6/6/2 7/7/2 8/8/2
f 9/9/3 10/10/3 11/11/3 12/12/3
f 9/13/4 13/14/4 14/15/4 10/16/4
f 11/17/5 15/18/5 16/19/5 12/20/5
f 17/21/3 18/22/3 19/23/3 20/24/3
f 21/25/6 22/26/6 23/27/6 24/28/6
f 17/29/4 25/30/4 26/31/4 18/32/4
f 19/33/5 27/34/5 28/35/5 20/36/5
f 29/37/3 30/38/3 14/39/3 13/40/3
f 31/41/3 32/42/3 26/43/3 25/44/3
f 31/45/4 33/46/4 34/47/4 32/48/4
f 35/49/6 36/50/6 28/51/6 27/52/6
f 37/53/3 38/54/3 39/55/3 40/56/3
f 37/57/4 41/58/4 42/59/4 38/60/4
f 43/61/3 44/62/3 45/63/3 46/64/3
f 43/65/4 47/66/4 48/67/4 44/68/4
f 49/69/6 50/70/6 16/71/6 15/72/6
f 48/73/6 47/74/6 51/75/6 52/76/6
f 49/77/5 52/78/5 51/79/5 50/80/5
f 42/81/6 41/82/6 53/83/6 54/84/6
f 55/85/5 54/86/5 53/87/5 56/88/5
f 34/89/6 33/90/6 57/91/6 58/92/6
f 59/93/5 58/94/5 57/95/5 60/96/5
