v 1.000000 1.000000 0.468750
v 1.000000 0.000000 0.468750
v 0.000000 0.000000 0.468750
v 0.000000 1.000000 0.468750
v 0.000000 1.000000 0.531250
v 0.000000 0.000000 0.531250
v 1.000000 0.000000 0.531250
v 1.000000 1.000000 0.531250
v 0.312500 0.812500 0.468750
v 0.312500 0.812500 0.531250
v 0.687500 0.812500 0.531250
v 0.687500 0.812500 0.468750
v 0.312500 0.750000 0.468750
v 0.312500 0.750000 0.531250
v 0.687500 0.750000 0.531250
v 0.687500 0.750000 0.468750
v 0.250000 0.750000 0.468750
v 0.250000 0.750000 0.531250
v 0.750000 0.750000 0.531250
v 0.750000 0.750000 0.468750
v 0.250000 0.250000 0.468750
v 0.250000 0.250000 0.531250
v 0.750000 0.250000 0.531250
v 0.750000 0.250000 0.468750
v 0.187500 0.687500 0.468750
v 0.187500 0.687500 0.531250
v 0.812500 0.687500 0.531250
v 0.812500 0.687500 0.468750
v 0.187500 0.312500 0.468750
v 0.187500 0.312500 0.531250
v 0.812500 0.312500 0.531250
v 0.812500 0.312500 0.468750
v 0.375000 0.312500 0.531250
v 0.375000 0.250000 0.531250
v 0.375000 0.250000 0.468750
v 0.375000 0.312500 0.468750
v 0.625000 0.312500 0.468750
v 0.625000 0.250000 0.468750
v 0.625000 0.250000 0.531250
v 0.625000 0.312500 0.531250
vn 0.000000 0.000000 -1.000000
vn 0.000000 0.000000 1.000000
vn 0.000000 1.000000 0.000000
vn -1.000000 0.000000 0.000000
vn 1.000000 0.000000 0.000000
vn 0.000000 -1.000000 0.000000
vt 0.546844 0.765594
vt 0.546844 0.750031
vt 0.531281 0.750031
vt 0.531281 0.765594
vt 0.531281 0.765594
vt 0.531281 0.750031
vt 0.546844 0.750031
vt 0.546844 0.765594
vt 0.536144 0.762693
vt 0.536144 0.761721
vt 0.541981 0.761721
vt 0.541981 0.762693
vt 0.537107 0.762693
vt 0.537107 0.761721
vt 0.536135 0.761721
vt 0.536135 0.762693
vt 0.541990 0.762693
vt 0.541990 0.761721
vt 0.541018 0.761721
vt 0.541018 0.762693
vt 0.535172 0.761717
vt 0.535172 0.760744
vt 0.542953 0.760744
vt 0.542953 0.761717
vt 0.536131 0.761703
vt 0.536131 0.753922
vt 0.535158 0.753922
vt 0.535158 0.761703
vt 0.542967 0.761703
vt 0.542967 0.753922
vt 0.541994 0.753922
vt 0.541994 0.761703
vt 0.534199 0.760740
vt 0.534199 0.759768
vt 0.543926 0.759768
vt 0.543926 0.760740
vt 0.535154 0.760731
vt 0.535154 0.754894
vt 0.534182 0.754894
vt 0.534182 0.760731
vt 0.543943 0.760731
vt 0.543943 0.754894
vt 0.542971 0.754894
vt 0.542971 0.760731
vt 0.534199 0.755857
vt 0.534199 0.754885
vt 0.543926 0.754885
vt 0.543926 0.755857
vt 0.535172 0.754881
vt 0.535172 0.753908
vt 0.542953 0.753908
vt 0.542953 0.754881
vt 0.537107 0.754881
vt 0.537107 0.753908
vt 0.536135 0.753908
vt 0.536135 0.754881
vt 0.541990 0.754881
vt 0.541990 0.753908
vt 0.541018 0.753908
vt 0.541018 0.754881
f 1/1/1 2/2/1 3/3/1 4/4/1
f 5/5/2 6/6/2 7/7/2 8/8/2
f 9/9/3 10/10/3 11/11/3 12/12/3
f 9/13/4 13/14/4 14/15/4 10/16/4
f 11/17/5 15/18/5 16/19/5 12/20/5
f 17/21/3 18/22/3 19/23/3 20/24/3
f 17/25/4 21/26/4 22/27/4 18/28/4
f 19/29/5 23/30/5 24/31/5 20/32/5
f 25/33/3 26/34/3 27/35/3 28/36/3
f 25/37/4 29/38/4 30/39/4 26/40/4
f 27/41/5 31/42/5 32/43/5 28/44/5
f 30/45/6 29/46/6 32/47/6 31/48/6
f 22/49/6 21/50/6 24/51/6 23/52/6
f 33/53/5 34/54/5 35/55/5 36/56/5
f 37/57/4 38/58/4 39/59/4 40/60/4
