v 1.000000 1.000000 0.468750
v 1.000000 0.000000 0.468750
v 0.000000 0.000000 0.468750
v 0.000000 1.000000 0.468750
v 0.000000 1.000000 0.531250
v 0.000000 0.000000 0.531250
v 1.000000 0.000000 0.531250
v 1.000000 1.000000 0.531250
v 0.250000 0.875000 0.468750
v 0.250000 0.875000 0.531250
v 0.750000 0.875000 0.531250
v 0.750000 0.875000 0.468750
v 0.250000 0.812500 0.468750
v 0.250000 0.812500 0.531250
v 0.750000 0.812500 0.531250
v 0.750000 0.812500 0.468750
v 0.187500 0.812500 0.468750
v 0.187500 0.812500 0.531250
v 0.812500 0.812500 0.531250
v 0.812500 0.812500 0.468750
v 0.187500 0.125000 0.468750
v 0.187500 0.125000 0.531250
v 0.812500 0.125000 0.531250
v 0.812500 0.125000 0.468750
v 0.437500 0.562500 0.531250
v 0.437500 0.562500 0.468750
v 0.562500 0.562500 0.468750
v 0.562500 0.562500 0.531250
v 0.437500 0.125000 0.531250
v 0.437500 0.125000 0.468750
v 0.562500 0.125000 0.468750
v 0.562500 0.125000 0.531250
vn 0.000000 0.000000 -1.000000
vn 0.000000 0.000000 1.000000
vn 0.000000 1.000000 0.000000
vn -1.000000 0.000000 0.000000
vn 1.000000 0.000000 0.000000
vn 0.000000 -1.000000 0.000000
vt 0.546844 0.703094
vt 0.546844 0.687531
vt 0.531281 0.687531
vt 0.531281 0.703094
vt 0.531281 0.703094
vt 0.531281 0.687531
vt 0.546844 0.687531
vt 0.546844 0.703094
vt 0.535172 0.701170
vt 0.535172 0.700197
vt 0.542953 0.700197
vt 0.542953 0.701170
vt 0.536131 0.701170
vt 0.536131 0.700197
vt 0.535158 0.700197
vt 0.535158 0.701170
vt 0.542967 0.701170
vt 0.542967 0.700197
vt 0.541994 0.700197
vt 0.541994 0.701170
vt 0.534199 0.700193
vt 0.534199 0.699221
vt 0.543926 0.699221
vt 0.543926 0.700193
vt 0.535154 0.700174
vt 0.535154 0.689474
vt 0.534182 0.689474
vt 0.534182 0.700174
vt 0.543943 0.700174
vt 0.543943 0.689474
vt 0.542971 0.689474
vt 0.542971 0.700174
vt 0.538090 0.697264
vt 0.538090 0.696291
vt 0.540035 0.696291
vt 0.540035 0.697264
vt 0.538084 0.696276
vt 0.538084 0.689466
vt 0.537111 0.689466
vt 0.537111 0.696276
vt 0.541014 0.696276
vt 0.541014 0.689466
vt 0.540041 0.689466
vt 0.540041 0.696276
vt 0.534199 0.690428
vt 0.534199 0.689455
vt 0.543926 0.689455
vt 0.543926 0.690428
f 1/1/1 2/2/1 3/3/1 4/4/1
f 5/5/2 6/6/2 7/7/2 8/8/2
f 9/9/3 10/10/3 11/11/3 12/12/3
f 9/13/4 13/14/4 14/15/4 10/16/4
f 11/17/5 15/18/5 16/19/5 12/20/5
f 17/21/3 18/22/3 19/23/3 20/24/3
f 17/25/4 21/26/4 22/27/4 18/28/4
f 19/29/5 23/30/5 24/31/5 20/32/5
f 25/33/6 26/34/6 27/35/6 28/36/6
f 25/37/5 29/38/5 30/39/5 26/40/5
f 27/41/4 31/42/4 32/43/4 28/44/4
f 22/45/6 21/46/6 24/47/6 23/48/6
