v 1.000000 1.000000 0.468750
v 1.000000 0.000000 0.468750
v 0.000000 0.000000 0.468750
v 0.000000 1.000000 0.468750
v 0.000000 1.000000 0.531250
v 0.000000 0.000000 0.531250
v 1.000000 0.000000 0.531250
v 1.000000 1.000000 0.531250
v 0.437500 0.875000 0.468750
v 0.437500 0.875000 0.531250
v 0.562500 0.875000 0.531250
v 0.562500 0.875000 0.468750
v 0.437500 0.812500 0.468750
v 0.437500 0.812500 0.531250
v 0.562500 0.812500 0.531250
v 0.562500 0.812500 0.468750
v 0.062500 0.812500 0.468750
v 0.062500 0.812500 0.531250
v 0.937500 0.812500 0.531250
v 0.937500 0.812500 0.468750
v 0.062500 0.062500 0.468750
v 0.062500 0.062500 0.531250
v 0.937500 0.062500 0.531250
v 0.937500 0.062500 0.468750
vn 0.000000 0.000000 -1.000000
vn 0.000000 0.000000 1.000000
vn 0.000000 1.000000 0.000000
vn -1.000000 0.000000 0.000000
vn 1.000000 0.000000 0.000000
vn 0.000000 -1.000000 0.000000
vt 0.546844 0.624969
vt 0.546844 0.609406
vt 0.531281 0.609406
vt 0.531281 0.624969
vt 0.531281 0.624969
vt 0.531281 0.609406
vt 0.546844 0.609406
vt 0.546844 0.624969
vt 0.538090 0.623045
vt 0.538090 0.622072
vt 0.540035 0.622072
vt 0.540035 0.623045
vt 0.539061 0.623045
vt 0.539061 0.622072
vt 0.538088 0.622072
vt 0.538088 0.623045
vt 0.540037 0.623045
vt 0.540037 0.622072
vt 0.539064 0.622072
vt 0.539064 0.623045
vt 0.532253 0.622068
vt 0.532253 0.621096
vt 0.545872 0.621096
vt 0.545872 0.622068
vt 0.533201 0.622047
vt 0.533201 0.610374
vt 0.532228 0.610374
vt 0.532228 0.622047
vt 0.545897 0.622047
vt 0.545897 0.610374
vt 0.544924 0.610374
vt 0.544924 0.622047
vt 0.532253 0.611326
vt 0.532253 0.610353
vt 0.545872 0.610353
vt 0.545872 0.611326
f 1/1/1 2/2/1 3/3/1 4/4/1
f 5/5/2 6/6/2 7/7/2 8/8/2
f 9/9/3 10/10/3 11/11/3 12/12/3
f 9/13/4 13/14/4 14/15/4 10/16/4
f 11/17/5 15/18/5 16/19/5 12/20/5
f 17/21/3 18/22/3 19/23/3 20/24/3
f 17/25/4 21/26/4 22/27/4 18/28/4
f 19/29/5 23/30/5 24/31/5 20/32/5
f 22/33/6 21/34/6 24/35/6 23/36/6
