v 0.312500 0.375000 0.625000
v 0.312500 0.375000 0.375000
v 0.687500 0.375000 0.375000
v 0.687500 0.375000 0.625000
v 0.312500 0.625000 0.375000
v 0.312500 0.625000 0.625000
v 0.687500 0.625000 0.625000
v 0.687500 0.625000 0.375000
vn 0.000000 -1.000000 0.000000
vn 0.000000 1.000000 0.000000
vn 0.000000 0.000000 -1.000000
vn 0.000000 0.000000 1.000000
vn -1.000000 0.000000 0.000000
vn 1.000000 0.000000 0.000000
vt 0.442394 0.947258
vt 0.442394 0.943367
vt 0.448231 0.943367
vt 0.448231 0.947258
vt 0.442394 0.943367
vt 0.442394 0.947258
vt 0.448231 0.947258
vt 0.448231 0.943367
vt 0.442394 0.941399
vt 0.442394 0.937508
vt 0.448231 0.937508
vt 0.448231 0.941399
vt 0.442394 0.941399
vt 0.442394 0.937508
vt 0.448231 0.937508
vt 0.448231 0.941399
vt 0.443367 0.941399
vt 0.443367 0.937508
vt 0.447258 0.937508
vt 0.447258 0.941399
vt 0.443367 0.941399
vt 0.443367 0.937508
vt 0.447258 0.937508
vt 0.447258 0.941399
f 1/1/1 2/2/1 3/3/1 4/4/1
f 5/5/2 6/6/2 7/7/2 8/8/2
f 8/9/3 3/10/3 2/11/3 5/12/3
f 6/13/4 1/14/4 4/15/4 7/16/4
f 5/17/5 2/18/5 1/19/5 6/20/5
f 7/21/6 4/22/6 3/23/6 8/24/6
