v 1.000000 1.000000 0.468750
v 1.000000 0.000000 0.468750
v 0.000000 0.000000 0.468750
v 0.000000 1.000000 0.468750
v 0.000000 1.000000 0.531250
v 0.000000 0.000000 0.531250
v 1.000000 0.000000 0.531250
v 1.000000 1.000000 0.531250
v 0.312500 0.937500 0.468750
v 0.312500 0.937500 0.531250
v 0.562500 0.937500 0.531250
v 0.562500 0.937500 0.468750
v 0.312500 0.000000 0.468750
v 0.312500 0.000000 0.531250
v 0.437500 0.937500 0.531250
v 0.437500 0.875000 0.531250
v 0.437500 0.875000 0.468750
v 0.437500 0.937500 0.468750
v 0.500000 0.937500 0.468750
v 0.500000 0.875000 0.468750
v 0.500000 0.875000 0.531250
v 0.500000 0.937500 0.531250
v 0.562500 0.875000 0.531250
v 0.562500 0.875000 0.468750
v 0.687500 0.875000 0.531250
v 0.687500 0.875000 0.468750
v 0.687500 0.000000 0.531250
v 0.687500 0.000000 0.468750
v 0.687500 0.812500 0.468750
v 0.687500 0.812500 0.531250
v 0.750000 0.812500 0.531250
v 0.750000 0.812500 0.468750
v 0.750000 0.250000 0.531250
v 0.750000 0.250000 0.468750
v 0.250000 0.750000 0.468750
v 0.250000 0.750000 0.531250
v 0.312500 0.750000 0.531250
v 0.312500 0.750000 0.468750
v 0.250000 0.687500 0.531250
v 0.250000 0.687500 0.468750
v 0.687500 0.687500 0.468750
v 0.687500 0.687500 0.531250
v 0.250000 0.375000 0.468750
v 0.250000 0.375000 0.531250
v 0.312500 0.625000 0.531250
v 0.312500 0.625000 0.468750
v 0.750000 0.625000 0.468750
v 0.750000 0.625000 0.531250
v 0.625000 0.687500 0.531250
v 0.625000 0.062500 0.531250
v 0.625000 0.062500 0.468750
v 0.625000 0.687500 0.468750
v 0.687500 0.250000 0.468750
v 0.687500 0.250000 0.531250
v 0.375000 0.625000 0.468750
v 0.375000 0.062500 0.468750
v 0.375000 0.062500 0.531250
v 0.375000 0.625000 0.531250
v 0.187500 0.562500 0.468750
v 0.187500 0.562500 0.531250
v 0.687500 0.562500 0.531250
v 0.687500 0.562500 0.468750
v 0.187500 0.500000 0.531250
v 0.187500 0.500000 0.468750
v 0.250000 0.500000 0.468750
v 0.250000 0.500000 0.531250
v 0.312500 0.437500 0.531250
v 0.312500 0.437500 0.468750
v 0.375000 0.437500 0.468750
v 0.375000 0.437500 0.531250
v 0.437500 0.375000 0.468750
v 0.437500 0.375000 0.531250
v 0.312500 0.375000 0.531250
v 0.312500 0.375000 0.468750
v 0.687500 0.437500 0.468750
v 0.687500 0.437500 0.531250
v 0.750000 0.437500 0.531250
v 0.750000 0.437500 0.468750
v 0.437500 0.312500 0.468750
v 0.437500 0.312500 0.531250
v 0.625000 0.312500 0.531250
v 0.625000 0.312500 0.468750
v 0.687500 0.312500 0.468750
v 0.687500 0.312500 0.531250
v 0.375000 0.312500 0.468750
v 0.375000 0.312500 0.531250
v 0.312500 0.187500 0.468750
v 0.312500 0.187500 0.531250
v 0.687500 0.187500 0.531250
v 0.687500 0.187500 0.468750
v 0.312500 0.125000 0.531250
v 0.312500 0.125000 0.468750
v 0.687500 0.125000 0.468750
v 0.687500 0.125000 0.531250
v 0.312500 0.062500 0.468750
v 0.312500 0.062500 0.531250
v 0.687500 0.062500 0.531250
v 0.687500 0.062500 0.468750
vn 0.000000 0.000000 -1.000000
vn 0.000000 0.000000 1.000000
vn 0.000000 1.000000 0.000000
vn -1.000000 0.000000 0.000000
vn 1.000000 0.000000 0.000000
vn 0.000000 -1.000000 0.000000
vt 0.453094 0.937469
vt 0.453094 0.921906
vt 0.437531 0.921906
vt 0.437531 0.937469
vt 0.437531 0.937469
vt 0.437531 0.921906
vt 0.453094 0.921906
vt 0.453094 0.937469
vt 0.442390 0.936522
vt 0.442390 0.935549
vt 0.446281 0.935549
vt 0.446281 0.936522
vt 0.443357 0.936495
vt 0.443357 0.921904
vt 0.442385 0.921904
vt 0.442385 0.936495
vt 0.444334 0.936522
vt 0.444334 0.935549
vt 0.443361 0.935549
vt 0.443361 0.936522
vt 0.446287 0.936522
vt 0.446287 0.935549
vt 0.445314 0.935549
vt 0.445314 0.936522
vt 0.446287 0.936522
vt 0.446287 0.935549
vt 0.445314 0.935549
vt 0.445314 0.936522
vt 0.444344 0.935545
vt 0.444344 0.934572
vt 0.448235 0.934572
vt 0.448235 0.935545
vt 0.448240 0.935520
vt 0.448240 0.921902
vt 0.447268 0.921902
vt 0.447268 0.935520
vt 0.448244 0.934568
vt 0.448244 0.933596
vt 0.449217 0.933596
vt 0.449217 0.934568
vt 0.449217 0.934553
vt 0.449217 0.925798
vt 0.448244 0.925798
vt 0.448244 0.934553
vt 0.441408 0.933592
vt 0.441408 0.932619
vt 0.442381 0.932619
vt 0.442381 0.933592
vt 0.441420 0.933592
vt 0.441420 0.932619
vt 0.448229 0.932619
vt 0.448229 0.933592
vt 0.442381 0.933582
vt 0.442381 0.927746
vt 0.441408 0.927746
vt 0.441408 0.933582
vt 0.442396 0.932615
vt 0.442396 0.931643
vt 0.449205 0.931643
vt 0.449205 0.932615
vt 0.447264 0.932598
vt 0.447264 0.922871
vt 0.446291 0.922871
vt 0.446291 0.932598
vt 0.449217 0.932604
vt 0.449217 0.925795
vt 0.448244 0.925795
vt 0.448244 0.932604
vt 0.444334 0.931623
vt 0.444334 0.922869
vt 0.443361 0.922869
vt 0.443361 0.931623
vt 0.440445 0.930662
vt 0.440445 0.929689
vt 0.448227 0.929689
vt 0.448227 0.930662
vt 0.440432 0.930662
vt 0.440432 0.929689
vt 0.441404 0.929689
vt 0.441404 0.930662
vt 0.441404 0.930662
vt 0.441404 0.929689
vt 0.440432 0.929689
vt 0.440432 0.930662
vt 0.442385 0.929686
vt 0.442385 0.928713
vt 0.443357 0.928713
vt 0.443357 0.929686
vt 0.441412 0.928709
vt 0.441412 0.927736
vt 0.444330 0.927736
vt 0.444330 0.928709
vt 0.442381 0.928709
vt 0.442381 0.927736
vt 0.441408 0.927736
vt 0.441408 0.928709
vt 0.448244 0.928709
vt 0.448244 0.927736
vt 0.449217 0.927736
vt 0.449217 0.928709
vt 0.445311 0.927732
vt 0.445311 0.926760
vt 0.444338 0.926760
vt 0.444338 0.927732
vt 0.447268 0.927732
vt 0.447268 0.926760
vt 0.448240 0.926760
vt 0.448240 0.927732
vt 0.443361 0.926756
vt 0.443361 0.925783
vt 0.444334 0.925783
vt 0.444334 0.926756
vt 0.448244 0.926756
vt 0.448244 0.925783
vt 0.449217 0.925783
vt 0.449217 0.926756
vt 0.442394 0.924803
vt 0.442394 0.923830
vt 0.448231 0.923830
vt 0.448231 0.924803
vt 0.442394 0.924803
vt 0.442394 0.923830
vt 0.448231 0.923830
vt 0.448231 0.924803
vt 0.442394 0.922850
vt 0.442394 0.921877
vt 0.448231 0.921877
vt 0.448231 0.922850
vt 0.442394 0.922850
vt 0.442394 0.921877
vt 0.448231 0.921877
vt 0.448231 0.922850
f 1/1/1 2/2/1 3/3/1 4/4/1
f 5/5/2 6/6/2 7/7/2 8/8/2
f 9/9/3 10/10/3 11/11/3 12/12/3
f 9/13/4 13/14/4 14/15/4 10/16/4
f 15/17/5 16/18/5 17/19/5 18/20/5
f 19/21/4 20/22/4 21/23/4 22/24/4
f 11/25/5 23/26/5 24/27/5 12/28/5
f 17/29/3 16/30/3 25/31/3 26/32/3
f 25/33/5 27/34/5 28/35/5 26/36/5
f 29/37/3 30/38/3 31/39/3 32/40/3
f 31/41/5 33/42/5 34/43/5 32/44/5
f 35/45/3 36/46/3 37/47/3 38/48/3
f 39/49/6 40/50/6 41/51/6 42/52/6
f 35/53/4 43/54/4 44/55/4 36/56/4
f 45/57/6 46/58/6 47/59/6 48/60/6
f 49/61/5 50/62/5 51/63/5 52/64/5
f 41/65/4 53/66/4 54/67/4 42/68/4
f 55/69/4 56/70/4 57/71/4 58/72/4
f 59/73/3 60/74/3 61/75/3 62/76/3
f 63/77/6 64/78/6 65/79/6 66/80/6
f 59/81/4 64/82/4 63/83/4 60/84/4
f 67/85/6 68/86/6 69/87/6 70/88/6
f 44/89/6 43/90/6 71/91/6 72/92/6
f 67/93/5 73/94/5 74/95/5 68/96/5
f 75/97/3 76/98/3 77/99/3 78/100/3
f 71/101/4 79/102/4 80/103/4 72/104/4
f 81/105/6 82/106/6 83/107/6 84/108/6
f 85/109/3 86/110/3 80/111/3 79/112/3
f 54/113/6 53/114/6 34/115/6 33/116/6
f 87/117/3 88/118/3 89/119/3 90/120/3
f 91/121/6 92/122/6 93/123/6 94/124/6
f 95/125/3 96/126/3 97/127/3 98/128/3
f 14/129/6 13/130/6 28/131/6 27/132/6
