v 1.000000 1.000000 0.468750
v 1.000000 0.000000 0.468750
v 0.000000 0.000000 0.468750
v 0.000000 1.000000 0.468750
v 0.000000 1.000000 0.531250
v 0.000000 0.000000 0.531250
v 1.000000 0.000000 0.531250
v 1.000000 1.000000 0.531250
v 0.500000 0.625000 0.468750
v 0.500000 0.625000 0.531250
v 0.562500 0.625000 0.531250
v 0.562500 0.625000 0.468750
v 0.500000 0.562500 0.468750
v 0.500000 0.562500 0.531250
v 0.562500 0.562500 0.531250
v 0.562500 0.562500 0.468750
v 0.437500 0.562500 0.468750
v 0.437500 0.562500 0.531250
v 0.625000 0.562500 0.531250
v 0.625000 0.562500 0.468750
v 0.437500 0.500000 0.468750
v 0.437500 0.500000 0.531250
v 0.625000 0.500000 0.531250
v 0.625000 0.500000 0.468750
v 0.375000 0.500000 0.468750
v 0.375000 0.500000 0.531250
v 0.687500 0.500000 0.531250
v 0.687500 0.500000 0.468750
v 0.375000 0.250000 0.468750
v 0.375000 0.250000 0.531250
v 0.687500 0.312500 0.531250
v 0.687500 0.312500 0.468750
v 0.125000 0.375000 0.468750
v 0.125000 0.375000 0.531250
v 0.875000 0.375000 0.531250
v 0.875000 0.375000 0.468750
v 0.125000 0.125000 0.468750
v 0.125000 0.125000 0.531250
v 0.250000 0.375000 0.531250
v 0.250000 0.312500 0.531250
v 0.250000 0.312500 0.468750
v 0.250000 0.375000 0.468750
v 0.750000 0.375000 0.468750
v 0.750000 0.312500 0.468750
v 0.750000 0.312500 0.531250
v 0.750000 0.375000 0.531250
v 0.875000 0.125000 0.531250
v 0.875000 0.125000 0.468750
v 0.312500 0.312500 0.531250
v 0.312500 0.250000 0.531250
v 0.312500 0.250000 0.468750
v 0.312500 0.312500 0.468750
v 0.187500 0.125000 0.468750
v 0.187500 0.000000 0.468750
v 0.187500 0.000000 0.531250
v 0.187500 0.125000 0.531250
v 0.812500 0.125000 0.531250
v 0.812500 0.000000 0.531250
v 0.812500 0.000000 0.468750
v 0.812500 0.125000 0.468750
vn 0.000000 0.000000 -1.000000
vn 0.000000 0.000000 1.000000
vn 0.000000 1.000000 0.000000
vn -1.000000 0.000000 0.000000
vn 1.000000 0.000000 0.000000
vn 0.000000 -1.000000 0.000000
vt 0.453094 0.812469
vt 0.453094 0.796906
vt 0.437531 0.796906
vt 0.437531 0.812469
vt 0.437531 0.812469
vt 0.437531 0.796906
vt 0.453094 0.796906
vt 0.453094 0.812469
vt 0.445314 0.806639
vt 0.445314 0.805666
vt 0.446287 0.805666
vt 0.446287 0.806639
vt 0.446287 0.806639
vt 0.446287 0.805666
vt 0.445314 0.805666
vt 0.445314 0.806639
vt 0.446287 0.806639
vt 0.446287 0.805666
vt 0.445314 0.805666
vt 0.445314 0.806639
vt 0.444342 0.805662
vt 0.444342 0.804689
vt 0.447260 0.804689
vt 0.447260 0.805662
vt 0.445311 0.805662
vt 0.445311 0.804689
vt 0.444338 0.804689
vt 0.444338 0.805662
vt 0.447264 0.805662
vt 0.447264 0.804689
vt 0.446291 0.804689
vt 0.446291 0.805662
vt 0.443369 0.804686
vt 0.443369 0.803713
vt 0.448233 0.803713
vt 0.448233 0.804686
vt 0.444334 0.804680
vt 0.444334 0.800789
vt 0.443361 0.800789
vt 0.443361 0.804680
vt 0.448240 0.804682
vt 0.448240 0.801764
vt 0.447268 0.801764
vt 0.447268 0.804682
vt 0.439476 0.802732
vt 0.439476 0.801760
vt 0.451149 0.801760
vt 0.451149 0.802732
vt 0.440428 0.802727
vt 0.440428 0.798836
vt 0.439455 0.798836
vt 0.439455 0.802727
vt 0.441404 0.802732
vt 0.441404 0.801760
vt 0.440432 0.801760
vt 0.440432 0.802732
vt 0.450193 0.802732
vt 0.450193 0.801760
vt 0.449221 0.801760
vt 0.449221 0.802732
vt 0.451170 0.802727
vt 0.451170 0.798836
vt 0.450197 0.798836
vt 0.450197 0.802727
vt 0.441422 0.801756
vt 0.441422 0.800783
vt 0.449203 0.800783
vt 0.449203 0.801756
vt 0.442381 0.801756
vt 0.442381 0.800783
vt 0.441408 0.800783
vt 0.441408 0.801756
vt 0.442385 0.800779
vt 0.442385 0.799807
vt 0.443357 0.799807
vt 0.443357 0.800779
vt 0.439476 0.799803
vt 0.439476 0.798830
vt 0.451149 0.798830
vt 0.451149 0.799803
vt 0.441404 0.798824
vt 0.441404 0.796879
vt 0.440432 0.796879
vt 0.440432 0.798824
vt 0.450193 0.798824
vt 0.450193 0.796879
vt 0.449221 0.796879
vt 0.449221 0.798824
vt 0.440449 0.797850
vt 0.440449 0.796877
vt 0.450176 0.796877
vt 0.450176 0.797850
f 1/1/1 2/2/1 3/3/1 4/4/1
f 5/5/2 6/6/2 7/7/2 8/8/2
f 9/9/3 10/10/3 11/11/3 12/12/3
f 9/13/4 13/14/4 14/15/4 10/16/4
f 11/17/5 15/18/5 16/19/5 12/20/5
f 17/21/3 18/22/3 19/23/3 20/24/3
f 17/25/4 21/26/4 22/27/4 18/28/4
f 19/29/5 23/30/5 24/31/5 20/32/5
f 25/33/3 26/34/3 27/35/3 28/36/3
f 25/37/4 29/38/4 30/39/4 26/40/4
f 27/41/5 31/42/5 32/43/5 28/44/5
f 33/45/3 34/46/3 35/47/3 36/48/3
f 33/49/4 37/50/4 38/51/4 34/52/4
f 39/53/5 40/54/5 41/55/5 42/56/5
f 43/57/4 44/58/4 45/59/4 46/60/4
f 35/61/5 47/62/5 48/63/5 36/64/5
f 41/65/3 40/66/3 45/67/3 44/68/3
f 49/69/5 50/70/5 51/71/5 52/72/5
f 51/73/3 50/74/3 30/75/3 29/76/3
f 38/77/6 37/78/6 48/79/6 47/80/6
f 53/81/4 54/82/4 55/83/4 56/84/4
f 57/85/5 58/86/5 59/87/5 60/88/5
f 55/89/6 54/90/6 59/91/6 58/92/6
