v 1.000000 1.000000 0.468750
v 1.000000 0.000000 0.468750
v 0.000000 0.000000 0.468750
v 0.000000 1.000000 0.468750
v 0.000000 1.000000 0.531250
v 0.000000 0.000000 0.531250
v 1.000000 0.000000 0.531250
v 1.000000 1.000000 0.531250
v 0.187500 0.750000 0.468750
v 0.187500 0.750000 0.531250
v 0.312500 0.750000 0.531250
v 0.312500 0.750000 0.468750
v 0.187500 0.125000 0.468750
v 0.187500 0.125000 0.531250
v 0.312500 0.687500 0.531250
v 0.312500 0.687500 0.468750
v 0.125000 0.687500 0.468750
v 0.125000 0.687500 0.531250
v 0.812500 0.687500 0.531250
v 0.812500 0.687500 0.468750
v 0.125000 0.625000 0.531250
v 0.125000 0.625000 0.468750
v 0.187500 0.625000 0.468750
v 0.187500 0.625000 0.531250
v 0.125000 0.000000 0.468750
v 0.125000 0.000000 0.531250
v 0.375000 0.687500 0.531250
v 0.375000 0.000000 0.531250
v 0.375000 0.000000 0.468750
v 0.375000 0.687500 0.468750
v 0.687500 0.687500 0.468750
v 0.687500 0.625000 0.468750
v 0.687500 0.625000 0.531250
v 0.687500 0.687500 0.531250
v 0.812500 0.125000 0.531250
v 0.812500 0.125000 0.468750
v 0.187500 0.562500 0.531250
v 0.187500 0.562500 0.468750
v 0.875000 0.562500 0.468750
v 0.875000 0.562500 0.531250
v 0.375000 0.625000 0.468750
v 0.375000 0.625000 0.531250
v 0.875000 0.625000 0.531250
v 0.875000 0.625000 0.468750
v 0.437500 0.625000 0.531250
v 0.437500 0.562500 0.531250
v 0.437500 0.562500 0.468750
v 0.437500 0.625000 0.468750
v 0.625000 0.625000 0.468750
v 0.625000 0.562500 0.468750
v 0.625000 0.562500 0.531250
v 0.625000 0.625000 0.531250
v 0.875000 0.000000 0.531250
v 0.875000 0.000000 0.468750
v 0.250000 0.562500 0.468750
v 0.250000 0.187500 0.468750
v 0.250000 0.187500 0.531250
v 0.250000 0.562500 0.531250
v 0.500000 0.562500 0.531250
v 0.500000 0.500000 0.531250
v 0.500000 0.500000 0.468750
v 0.500000 0.562500 0.468750
v 0.562500 0.562500 0.468750
v 0.562500 0.500000 0.468750
v 0.562500 0.500000 0.531250
v 0.562500 0.562500 0.531250
v 0.750000 0.500000 0.531250
v 0.750000 0.500000 0.468750
v 0.812500 0.500000 0.468750
v 0.812500 0.500000 0.531250
v 0.187500 0.500000 0.468750
v 0.187500 0.500000 0.531250
v 0.750000 0.187500 0.531250
v 0.750000 0.187500 0.468750
v 0.125000 0.437500 0.468750
v 0.125000 0.437500 0.531250
v 0.187500 0.437500 0.531250
v 0.187500 0.437500 0.468750
v 0.062500 0.375000 0.468750
v 0.062500 0.375000 0.531250
v 0.812500 0.375000 0.531250
v 0.812500 0.375000 0.468750
v 0.062500 0.312500 0.531250
v 0.062500 0.312500 0.468750
v 0.812500 0.312500 0.468750
v 0.812500 0.312500 0.531250
v 0.125000 0.250000 0.531250
v 0.125000 0.250000 0.468750
v 0.187500 0.250000 0.468750
v 0.187500 0.250000 0.531250
v 0.187500 0.312500 0.531250
v 0.187500 0.312500 0.468750
v 0.312500 0.312500 0.468750
v 0.312500 0.250000 0.468750
v 0.312500 0.250000 0.531250
v 0.312500 0.312500 0.531250
v 0.250000 0.250000 0.468750
v 0.250000 0.250000 0.531250
v 0.187500 0.187500 0.468750
v 0.187500 0.187500 0.531250
v 0.812500 0.187500 0.531250
v 0.812500 0.187500 0.468750
v 0.125000 0.125000 0.468750
v 0.125000 0.125000 0.531250
v 0.875000 0.125000 0.531250
v 0.875000 0.125000 0.468750
v 0.375000 0.062500 0.531250
v 0.375000 0.062500 0.468750
v 0.437500 0.062500 0.468750
v 0.437500 0.062500 0.531250
v 0.437500 0.000000 0.468750
v 0.437500 0.000000 0.531250
vn 0.000000 0.000000 -1.000000
vn 0.000000 0.000000 1.000000
vn 0.000000 1.000000 0.000000
vn -1.000000 0.000000 0.000000
vn 1.000000 0.000000 0.000000
vn 0.000000 -1.000000 0.000000
vt 0.453094 0.781219
vt 0.453094 0.765656
vt 0.437531 0.765656
vt 0.437531 0.781219
vt 0.437531 0.781219
vt 0.437531 0.765656
vt 0.453094 0.765656
vt 0.453094 0.781219
vt 0.440434 0.777342
vt 0.440434 0.776369
vt 0.442379 0.776369
vt 0.442379 0.777342
vt 0.441404 0.777325
vt 0.441404 0.767597
vt 0.440432 0.767597
vt 0.440432 0.777325
vt 0.442381 0.777342
vt 0.442381 0.776369
vt 0.441408 0.776369
vt 0.441408 0.777342
vt 0.439474 0.776365
vt 0.439474 0.775393
vt 0.450174 0.775393
vt 0.450174 0.776365
vt 0.439455 0.776365
vt 0.439455 0.775393
vt 0.440428 0.775393
vt 0.440428 0.776365
vt 0.440428 0.776346
vt 0.440428 0.765646
vt 0.439455 0.765646
vt 0.439455 0.776346
vt 0.443357 0.776346
vt 0.443357 0.765646
vt 0.442385 0.765646
vt 0.442385 0.776346
vt 0.449217 0.776365
vt 0.449217 0.775393
vt 0.448244 0.775393
vt 0.448244 0.776365
vt 0.450193 0.776350
vt 0.450193 0.767595
vt 0.449221 0.767595
vt 0.449221 0.776350
vt 0.440451 0.775389
vt 0.440451 0.774416
vt 0.451151 0.774416
vt 0.451151 0.775389
vt 0.443375 0.775389
vt 0.443375 0.774416
vt 0.451157 0.774416
vt 0.451157 0.775389
vt 0.444334 0.775389
vt 0.444334 0.774416
vt 0.443361 0.774416
vt 0.443361 0.775389
vt 0.448240 0.775389
vt 0.448240 0.774416
vt 0.447268 0.774416
vt 0.447268 0.775389
vt 0.451170 0.775372
vt 0.451170 0.765644
vt 0.450197 0.765644
vt 0.450197 0.775372
vt 0.442381 0.774403
vt 0.442381 0.768566
vt 0.441408 0.768566
vt 0.441408 0.774403
vt 0.444342 0.774412
vt 0.444342 0.773439
vt 0.447260 0.773439
vt 0.447260 0.774412
vt 0.445311 0.774412
vt 0.445311 0.773439
vt 0.444338 0.773439
vt 0.444338 0.774412
vt 0.447264 0.774412
vt 0.447264 0.773439
vt 0.446291 0.773439
vt 0.446291 0.774412
vt 0.449221 0.774412
vt 0.449221 0.773439
vt 0.450193 0.773439
vt 0.450193 0.774412
vt 0.440441 0.773436
vt 0.440441 0.772463
vt 0.446278 0.772463
vt 0.446278 0.773436
vt 0.449217 0.773428
vt 0.449217 0.768564
vt 0.448244 0.768564
vt 0.448244 0.773428
vt 0.439455 0.772459
vt 0.439455 0.771486
vt 0.440428 0.771486
vt 0.440428 0.772459
vt 0.438499 0.771482
vt 0.438499 0.770510
vt 0.450172 0.770510
vt 0.450172 0.771482
vt 0.438499 0.771482
vt 0.438499 0.770510
vt 0.450172 0.770510
vt 0.450172 0.771482
vt 0.439451 0.771482
vt 0.439451 0.770510
vt 0.438478 0.770510
vt 0.438478 0.771482
vt 0.439455 0.770506
vt 0.439455 0.769533
vt 0.440428 0.769533
vt 0.440428 0.770506
vt 0.440428 0.770506
vt 0.440428 0.769533
vt 0.439455 0.769533
vt 0.439455 0.770506
vt 0.443357 0.770506
vt 0.443357 0.769533
vt 0.442385 0.769533
vt 0.442385 0.770506
vt 0.441408 0.769529
vt 0.441408 0.768557
vt 0.442381 0.768557
vt 0.442381 0.769529
vt 0.440449 0.768553
vt 0.440449 0.767580
vt 0.450176 0.767580
vt 0.450176 0.768553
vt 0.439476 0.767576
vt 0.439476 0.766603
vt 0.451149 0.766603
vt 0.451149 0.767576
vt 0.443361 0.767576
vt 0.443361 0.766603
vt 0.444334 0.766603
vt 0.444334 0.767576
vt 0.439476 0.766600
vt 0.439476 0.765627
vt 0.451149 0.765627
vt 0.451149 0.766600
vt 0.445311 0.766600
vt 0.445311 0.765627
vt 0.444338 0.765627
vt 0.444338 0.766600
f 1/1/1 2/2/1 3/3/1 4/4/1
f 5/5/2 6/6/2 7/7/2 8/8/2
f 9/9/3 10/10/3 11/11/3 12/12/3
f 9/13/4 13/14/4 14/15/4 10/16/4
f 11/17/5 15/18/5 16/19/5 12/20/5
f 17/21/3 18/22/3 19/23/3 20/24/3
f 21/25/6 22/26/6 23/27/6 24/28/6
f 17/29/4 25/30/4 26/31/4 18/32/4
f 27/33/5 28/34/5 29/35/5 30/36/5
f 31/37/4 32/38/4 33/39/4 34/40/4
f 19/41/5 35/42/5 36/43/5 20/44/5
f 37/45/6 38/46/6 39/47/6 40/48/6
f 41/49/3 42/50/3 43/51/3 44/52/3
f 45/53/5 46/54/5 47/55/5 48/56/5
f 49/57/4 50/58/4 51/59/4 52/60/4
f 43/61/5 53/62/5 54/63/5 44/64/5
f 55/65/4 56/66/4 57/67/4 58/68/4
f 47/69/3 46/70/3 51/71/3 50/72/3
f 59/73/5 60/74/5 61/75/5 62/76/5
f 63/77/4 64/78/4 65/79/4 66/80/4
f 67/81/6 68/82/6 69/83/6 70/84/6
f 71/85/3 72/86/3 65/87/3 64/88/3
f 67/89/5 73/90/5 74/91/5 68/92/5
f 75/93/3 76/94/3 77/95/3 78/96/3
f 79/97/3 80/98/3 81/99/3 82/100/3
f 83/101/6 84/102/6 85/103/6 86/104/6
f 79/105/4 84/106/4 83/107/4 80/108/4
f 87/109/6 88/110/6 89/111/6 90/112/6
f 91/113/5 90/114/5 89/115/5 92/116/5
f 93/117/4 94/118/4 95/119/4 96/120/4
f 97/121/3 98/122/3 95/123/3 94/124/3
f 99/125/3 100/126/3 101/127/3 102/128/3
f 103/129/3 104/130/3 105/131/3 106/132/3
f 107/133/6 108/134/6 109/135/6 110/136/6
f 26/137/6 25/138/6 54/139/6 53/140/6
f 109/141/4 111/142/4 112/143/4 110/144/4
