v 1.000000 1.000000 0.468750
v 1.000000 0.000000 0.468750
v 0.000000 0.000000 0.468750
v 0.000000 1.000000 0.468750
v 0.000000 1.000000 0.531250
v 0.000000 0.000000 0.531250
v 1.000000 0.000000 0.531250
v 1.000000 1.000000 0.531250
v 0.687500 0.812500 0.468750
v 0.687500 0.812500 0.531250
v 0.750000 0.812500 0.531250
v 0.750000 0.812500 0.468750
v 0.687500 0.687500 0.468750
v 0.687500 0.687500 0.531250
v 0.750000 0.375000 0.531250
v 0.750000 0.375000 0.468750
v 0.750000 0.750000 0.468750
v 0.750000 0.750000 0.531250
v 0.875000 0.750000 0.531250
v 0.875000 0.750000 0.468750
v 0.750000 0.687500 0.531250
v 0.750000 0.687500 0.468750
v 0.812500 0.687500 0.468750
v 0.812500 0.687500 0.531250
v 0.875000 0.687500 0.531250
v 0.875000 0.687500 0.468750
v 0.625000 0.687500 0.468750
v 0.625000 0.687500 0.531250
v 0.937500 0.687500 0.531250
v 0.937500 0.687500 0.468750
v 0.625000 0.625000 0.468750
v 0.625000 0.625000 0.531250
v 0.812500 0.625000 0.468750
v 0.812500 0.625000 0.531250
v 0.937500 0.500000 0.531250
v 0.937500 0.500000 0.468750
v 0.562500 0.625000 0.468750
v 0.562500 0.625000 0.531250
v 0.562500 0.500000 0.468750
v 0.562500 0.500000 0.531250
v 0.750000 0.500000 0.531250
v 0.750000 0.500000 0.468750
v 0.125000 0.500000 0.468750
v 0.125000 0.500000 0.531250
v 0.125000 0.437500 0.468750
v 0.125000 0.437500 0.531250
v 0.062500 0.437500 0.468750
v 0.062500 0.437500 0.531250
v 0.062500 0.125000 0.468750
v 0.062500 0.125000 0.531250
v 0.812500 0.375000 0.531250
v 0.812500 0.375000 0.468750
v 0.812500 0.125000 0.531250
v 0.812500 0.125000 0.468750
vn 0.000000 0.000000 -1.000000
vn 0.000000 0.000000 1.000000
vn 0.000000 1.000000 0.000000
vn -1.000000 0.000000 0.000000
vn 1.000000 0.000000 0.000000
vn 0.000000 -1.000000 0.000000
vt 0.562469 0.874969
vt 0.562469 0.859406
vt 0.546906 0.859406
vt 0.546906 0.874969
vt 0.546906 0.874969
vt 0.546906 0.859406
vt 0.562469 0.859406
vt 0.562469 0.874969
vt 0.557619 0.872068
vt 0.557619 0.871096
vt 0.558592 0.871096
vt 0.558592 0.872068
vt 0.558592 0.872066
vt 0.558592 0.870121
vt 0.557619 0.870121
vt 0.557619 0.872066
vt 0.558592 0.872057
vt 0.558592 0.865248
vt 0.557619 0.865248
vt 0.557619 0.872057
vt 0.558598 0.871092
vt 0.558598 0.870119
vt 0.560543 0.870119
vt 0.560543 0.871092
vt 0.558596 0.871092
vt 0.558596 0.870119
vt 0.559568 0.870119
vt 0.559568 0.871092
vt 0.560545 0.871092
vt 0.560545 0.870119
vt 0.559572 0.870119
vt 0.559572 0.871092
vt 0.556650 0.870115
vt 0.556650 0.869143
vt 0.561514 0.869143
vt 0.561514 0.870115
vt 0.557615 0.870115
vt 0.557615 0.869143
vt 0.556643 0.869143
vt 0.556643 0.870115
vt 0.560545 0.870115
vt 0.560545 0.869143
vt 0.559572 0.869143
vt 0.559572 0.870115
vt 0.561522 0.870111
vt 0.561522 0.867193
vt 0.560549 0.867193
vt 0.560549 0.870111
vt 0.555672 0.869139
vt 0.555672 0.868166
vt 0.559563 0.868166
vt 0.559563 0.869139
vt 0.556639 0.869137
vt 0.556639 0.867191
vt 0.555666 0.867191
vt 0.555666 0.869137
vt 0.558599 0.868162
vt 0.558599 0.867189
vt 0.561518 0.867189
vt 0.561518 0.868162
vt 0.548841 0.867186
vt 0.548841 0.866213
vt 0.555651 0.866213
vt 0.555651 0.867186
vt 0.549803 0.867186
vt 0.549803 0.866213
vt 0.548830 0.866213
vt 0.548830 0.867186
vt 0.547853 0.866209
vt 0.547853 0.865236
vt 0.548826 0.865236
vt 0.548826 0.866209
vt 0.548826 0.866201
vt 0.548826 0.861338
vt 0.547853 0.861338
vt 0.547853 0.866201
vt 0.558596 0.865232
vt 0.558596 0.864260
vt 0.559568 0.864260
vt 0.559568 0.865232
vt 0.559568 0.865227
vt 0.559568 0.861336
vt 0.558596 0.861336
vt 0.558596 0.865227
vt 0.547874 0.862303
vt 0.547874 0.861330
vt 0.559547 0.861330
vt 0.559547 0.862303
f 1/1/1 2/2/1 3/3/1 4/4/1
f 5/5/2 6/6/2 7/7/2 8/8/2
f 9/9/3 10/10/3 11/11/3 12/12/3
f 9/13/4 13/14/4 14/15/4 10/16/4
f 11/17/5 15/18/5 16/19/5 12/20/5
f 17/21/3 18/22/3 19/23/3 20/24/3
f 21/25/6 22/26/6 23/27/6 24/28/6
f 19/29/5 25/30/5 26/31/5 20/32/5
f 27/33/3 28/34/3 29/35/3 30/36/3
f 27/37/4 31/38/4 32/39/4 28/40/4
f 23/41/4 33/42/4 34/43/4 24/44/4
f 29/45/5 35/46/5 36/47/5 30/48/5
f 37/49/3 38/50/3 34/51/3 33/52/3
f 37/53/4 39/54/4 40/55/4 38/56/4
f 41/57/6 42/58/6 36/59/6 35/60/6
f 43/61/3 44/62/3 40/63/3 39/64/3
f 43/65/4 45/66/4 46/67/4 44/68/4
f 47/69/3 48/70/3 46/71/3 45/72/3
f 47/73/4 49/74/4 50/75/4 48/76/4
f 16/77/3 15/78/3 51/79/3 52/80/3
f 51/81/5 53/82/5 54/83/5 52/84/5
f 50/85/6 49/86/6 54/87/6 53/88/6
