v 1.000000 1.000000 0.468750
v 1.000000 0.000000 0.468750
v 0.000000 0.000000 0.468750
v 0.000000 1.000000 0.468750
v 0.000000 1.000000 0.531250
v 0.000000 0.000000 0.531250
v 1.000000 0.000000 0.531250
v 1.000000 1.000000 0.531250
v 0.437500 0.625000 0.468750
v 0.437500 0.625000 0.531250
v 0.562500 0.625000 0.531250
v 0.562500 0.625000 0.468750
v 0.437500 0.000000 0.468750
v 0.437500 0.000000 0.531250
v 0.562500 0.000000 0.531250
v 0.562500 0.000000 0.468750
vn 0.000000 0.000000 -1.000000
vn 0.000000 0.000000 1.000000
vn 0.000000 1.000000 0.000000
vn -1.000000 0.000000 0.000000
vn 1.000000 0.000000 0.000000
vn 0.000000 -1.000000 0.000000
vt 0.468719 0.953094
vt 0.468719 0.937531
vt 0.453156 0.937531
vt 0.453156 0.953094
vt 0.453156 0.953094
vt 0.453156 0.937531
vt 0.468719 0.937531
vt 0.468719 0.953094
vt 0.459965 0.947264
vt 0.459965 0.946291
vt 0.461910 0.946291
vt 0.461910 0.947264
vt 0.460936 0.947247
vt 0.460936 0.937519
vt 0.459963 0.937519
vt 0.459963 0.947247
vt 0.461912 0.947247
vt 0.461912 0.937519
vt 0.460939 0.937519
vt 0.460939 0.947247
vt 0.459965 0.938475
vt 0.459965 0.937502
vt 0.461910 0.937502
vt 0.461910 0.938475
f 1/1/1 2/2/1 3/3/1 4/4/1
f 5/5/2 6/6/2 7/7/2 8/8/2
f 9/9/3 10/10/3 11/11/3 12/12/3
f 9/13/4 13/14/4 14/15/4 10/16/4
f 11/17/5 15/18/5 16/19/5 12/20/5
f 14/21/6 13/22/6 16/23/6 15/24/6
