v 0.375000 0.750000 0.625000
v 0.375000 0.750000 0.375000
v 0.625000 0.750000 0.375000
v 0.625000 0.750000 0.625000
v 0.375000 1.000000 0.375000
v 0.375000 1.000000 0.625000
v 0.625000 1.000000 0.625000
v 0.625000 1.000000 0.375000
v 0.437500 0.000000 0.562500
v 0.437500 0.000000 0.437500
v 0.562500 0.000000 0.437500
v 0.562500 0.000000 0.562500
v 0.562500 0.750000 0.437500
v 0.437500 0.750000 0.437500
v 0.437500 0.750000 0.562500
v 0.562500 0.750000 0.562500
vn 0.000000 -1.000000 0.000000
vn 0.000000 1.000000 0.000000
vn 0.000000 0.000000 -1.000000
vn 0.000000 0.000000 1.000000
vn -1.000000 0.000000 0.000000
vn 1.000000 0.000000 0.000000
vt 0.468758 0.921867
vt 0.468758 0.917976
vt 0.472649 0.917976
vt 0.472649 0.921867
vt 0.472649 0.917976
vt 0.472649 0.921867
vt 0.468758 0.921867
vt 0.468758 0.917976
vt 0.468758 0.921867
vt 0.468758 0.917976
vt 0.472649 0.917976
vt 0.472649 0.921867
vt 0.468758 0.921867
vt 0.468758 0.917976
vt 0.472649 0.917976
vt 0.472649 0.921867
vt 0.468758 0.921867
vt 0.468758 0.917976
vt 0.472649 0.917976
vt 0.472649 0.921867
vt 0.468758 0.921867
vt 0.468758 0.917976
vt 0.472649 0.917976
vt 0.472649 0.921867
vt 0.468754 0.917946
vt 0.468754 0.906273
vt 0.470699 0.906273
vt 0.470699 0.917946
vt 0.468754 0.917946
vt 0.468754 0.906273
vt 0.470699 0.906273
vt 0.470699 0.917946
vt 0.468754 0.917946
vt 0.468754 0.906273
vt 0.470699 0.906273
vt 0.470699 0.917946
vt 0.468754 0.917946
vt 0.468754 0.906273
vt 0.470699 0.906273
vt 0.470699 0.917946
vt 0.468754 0.917946
vt 0.468754 0.906273
vt 0.470699 0.906273
vt 0.470699 0.917946
f 1/1/1 2/2/1 3/3/1 4/4/1
f 5/5/2 6/6/2 7/7/2 8/8/2
f 8/9/3 3/10/3 2/11/3 5/12/3
f 6/13/4 1/14/4 4/15/4 7/16/4
f 5/17/5 2/18/5 1/19/5 6/20/5
f 7/21/6 4/22/6 3/23/6 8/24/6
f 9/25/1 10/26/1 11/27/1 12/28/1
f 13/29/3 11/30/3 10/31/3 14/32/3
f 15/33/4 9/34/4 12/35/4 16/36/4
f 14/37/5 10/38/5 9/39/5 15/40/5
f 16/41/6 12/42/6 11/43/6 13/44/6
