v 1.000000 1.000000 0.468750
v 1.000000 0.000000 0.468750
v 0.000000 0.000000 0.468750
v 0.000000 1.000000 0.468750
v 0.000000 1.000000 0.531250
v 0.000000 0.000000 0.531250
v 1.000000 0.000000 0.531250
v 1.000000 1.000000 0.531250
v 0.125000 0.875000 0.468750
v 0.125000 0.875000 0.531250
v 0.812500 0.875000 0.531250
v 0.812500 0.875000 0.468750
v 0.125000 0.312500 0.468750
v 0.125000 0.312500 0.531250
v 0.250000 0.875000 0.531250
v 0.250000 0.375000 0.531250
v 0.250000 0.375000 0.468750
v 0.250000 0.875000 0.468750
v 0.687500 0.875000 0.468750
v 0.687500 0.187500 0.468750
v 0.687500 0.187500 0.531250
v 0.687500 0.875000 0.531250
v 0.812500 0.125000 0.531250
v 0.812500 0.125000 0.468750
v 0.125000 0.750000 0.531250
v 0.125000 0.750000 0.468750
v 0.812500 0.750000 0.468750
v 0.812500 0.750000 0.531250
v 0.250000 0.812500 0.468750
v 0.250000 0.812500 0.531250
v 0.687500 0.812500 0.531250
v 0.687500 0.812500 0.468750
v 0.312500 0.812500 0.531250
v 0.312500 0.000000 0.531250
v 0.312500 0.000000 0.468750
v 0.312500 0.812500 0.468750
v 0.625000 0.812500 0.468750
v 0.625000 0.062500 0.468750
v 0.625000 0.062500 0.531250
v 0.625000 0.812500 0.531250
v 0.187500 0.687500 0.531250
v 0.187500 0.687500 0.468750
v 0.750000 0.687500 0.468750
v 0.750000 0.687500 0.531250
v 0.187500 0.750000 0.468750
v 0.187500 0.000000 0.468750
v 0.187500 0.000000 0.531250
v 0.187500 0.750000 0.531250
v 0.312500 0.750000 0.468750
v 0.312500 0.750000 0.531250
v 0.625000 0.750000 0.531250
v 0.625000 0.750000 0.468750
v 0.375000 0.750000 0.531250
v 0.375000 0.250000 0.531250
v 0.375000 0.250000 0.468750
v 0.375000 0.750000 0.468750
v 0.562500 0.750000 0.468750
v 0.562500 0.375000 0.468750
v 0.562500 0.375000 0.531250
v 0.562500 0.750000 0.531250
v 0.750000 0.750000 0.531250
v 0.750000 0.062500 0.531250
v 0.750000 0.062500 0.468750
v 0.750000 0.750000 0.468750
v 0.250000 0.625000 0.531250
v 0.250000 0.625000 0.468750
v 0.687500 0.625000 0.468750
v 0.687500 0.625000 0.531250
v 0.250000 0.687500 0.468750
v 0.250000 0.062500 0.468750
v 0.250000 0.062500 0.531250
v 0.250000 0.687500 0.531250
v 0.687500 0.687500 0.531250
v 0.687500 0.312500 0.531250
v 0.687500 0.312500 0.468750
v 0.687500 0.687500 0.468750
v 0.312500 0.562500 0.531250
v 0.312500 0.562500 0.468750
v 0.625000 0.562500 0.468750
v 0.625000 0.562500 0.531250
v 0.312500 0.625000 0.468750
v 0.312500 0.625000 0.531250
v 0.375000 0.625000 0.468750
v 0.375000 0.625000 0.531250
v 0.562500 0.625000 0.531250
v 0.562500 0.625000 0.468750
v 0.437500 0.625000 0.531250
v 0.437500 0.562500 0.531250
v 0.437500 0.562500 0.468750
v 0.437500 0.625000 0.468750
v 0.500000 0.625000 0.468750
v 0.500000 0.000000 0.468750
v 0.500000 0.000000 0.531250
v 0.500000 0.625000 0.531250
v 0.625000 0.625000 0.531250
v 0.625000 0.000000 0.531250
v 0.625000 0.000000 0.468750
v 0.625000 0.625000 0.468750
v 0.375000 0.562500 0.468750
v 0.375000 0.437500 0.468750
v 0.375000 0.437500 0.531250
v 0.375000 0.562500 0.531250
v 0.500000 0.562500 0.531250
v 0.500000 0.562500 0.468750
v 0.500000 0.500000 0.531250
v 0.500000 0.500000 0.468750
v 0.562500 0.500000 0.468750
v 0.562500 0.500000 0.531250
v 0.562500 0.562500 0.531250
v 0.562500 0.062500 0.531250
v 0.562500 0.062500 0.468750
v 0.562500 0.562500 0.468750
v 0.875000 0.437500 0.468750
v 0.875000 0.437500 0.531250
v 0.500000 0.375000 0.531250
v 0.500000 0.375000 0.468750
v 0.625000 0.500000 0.468750
v 0.625000 0.500000 0.531250
v 0.875000 0.500000 0.531250
v 0.875000 0.500000 0.468750
v 0.875000 0.187500 0.531250
v 0.875000 0.187500 0.468750
v 0.062500 0.437500 0.468750
v 0.062500 0.437500 0.531250
v 0.625000 0.437500 0.531250
v 0.625000 0.437500 0.468750
v 0.062500 0.375000 0.531250
v 0.062500 0.375000 0.468750
v 0.812500 0.375000 0.468750
v 0.812500 0.375000 0.531250
v 0.437500 0.437500 0.468750
v 0.437500 0.125000 0.468750
v 0.437500 0.125000 0.531250
v 0.437500 0.437500 0.531250
v 0.187500 0.250000 0.531250
v 0.187500 0.250000 0.468750
v 0.250000 0.250000 0.468750
v 0.250000 0.250000 0.531250
v 0.312500 0.312500 0.468750
v 0.312500 0.312500 0.531250
v 0.875000 0.312500 0.531250
v 0.875000 0.312500 0.468750
v 0.750000 0.312500 0.468750
v 0.750000 0.250000 0.468750
v 0.750000 0.250000 0.531250
v 0.750000 0.312500 0.531250
v 0.250000 0.187500 0.531250
v 0.250000 0.187500 0.468750
v 0.625000 0.187500 0.468750
v 0.625000 0.187500 0.531250
v 0.250000 0.125000 0.468750
v 0.250000 0.125000 0.531250
v 0.312500 0.125000 0.531250
v 0.312500 0.125000 0.468750
v 0.187500 0.062500 0.468750
v 0.187500 0.062500 0.531250
vn 0.000000 0.000000 -1.000000
vn 0.000000 0.000000 1.000000
vn 0.000000 1.000000 0.000000
vn -1.000000 0.000000 0.000000
vn 1.000000 0.000000 0.000000
vn 0.000000 -1.000000 0.000000
vt 0.484344 0.874969
vt 0.484344 0.859406
vt 0.468781 0.859406
vt 0.468781 0.874969
vt 0.468781 0.874969
vt 0.468781 0.859406
vt 0.484344 0.859406
vt 0.484344 0.874969
vt 0.470724 0.873045
vt 0.470724 0.872072
vt 0.481424 0.872072
vt 0.481424 0.873045
vt 0.471678 0.873030
vt 0.471678 0.864275
vt 0.470705 0.864275
vt 0.470705 0.873030
vt 0.472654 0.873032
vt 0.472654 0.865250
vt 0.471682 0.865250
vt 0.471682 0.873032
vt 0.480467 0.873026
vt 0.480467 0.862326
vt 0.479494 0.862326
vt 0.479494 0.873026
vt 0.481443 0.873024
vt 0.481443 0.861351
vt 0.480471 0.861351
vt 0.480471 0.873024
vt 0.470724 0.872068
vt 0.470724 0.871096
vt 0.481424 0.871096
vt 0.481424 0.872068
vt 0.472670 0.872068
vt 0.472670 0.871096
vt 0.479479 0.871096
vt 0.479479 0.872068
vt 0.473631 0.872046
vt 0.473631 0.859400
vt 0.472658 0.859400
vt 0.472658 0.872046
vt 0.479490 0.872047
vt 0.479490 0.860374
vt 0.478518 0.860374
vt 0.478518 0.872047
vt 0.471697 0.871092
vt 0.471697 0.870119
vt 0.480452 0.870119
vt 0.480452 0.871092
vt 0.472654 0.871071
vt 0.472654 0.859398
vt 0.471682 0.859398
vt 0.471682 0.871071
vt 0.473642 0.871092
vt 0.473642 0.870119
vt 0.478506 0.870119
vt 0.478506 0.871092
vt 0.474607 0.871078
vt 0.474607 0.863297
vt 0.473635 0.863297
vt 0.473635 0.871078
vt 0.478514 0.871082
vt 0.478514 0.865246
vt 0.477541 0.865246
vt 0.477541 0.871082
vt 0.480467 0.871073
vt 0.480467 0.860373
vt 0.479494 0.860373
vt 0.479494 0.871073
vt 0.472670 0.870115
vt 0.472670 0.869143
vt 0.479479 0.869143
vt 0.479479 0.870115
vt 0.473631 0.870098
vt 0.473631 0.860371
vt 0.472658 0.860371
vt 0.472658 0.870098
vt 0.479490 0.870106
vt 0.479490 0.864269
vt 0.478518 0.864269
vt 0.478518 0.870106
vt 0.473642 0.869139
vt 0.473642 0.868166
vt 0.478506 0.868166
vt 0.478506 0.869139
vt 0.474607 0.869139
vt 0.474607 0.868166
vt 0.473635 0.868166
vt 0.473635 0.869139
vt 0.474615 0.869139
vt 0.474615 0.868166
vt 0.477533 0.868166
vt 0.477533 0.869139
vt 0.475584 0.869139
vt 0.475584 0.868166
vt 0.474611 0.868166
vt 0.474611 0.869139
vt 0.477537 0.869122
vt 0.477537 0.859394
vt 0.476564 0.859394
vt 0.476564 0.869122
vt 0.478514 0.869122
vt 0.478514 0.859394
vt 0.477541 0.859394
vt 0.477541 0.869122
vt 0.475584 0.868160
vt 0.475584 0.866215
vt 0.474611 0.866215
vt 0.474611 0.868160
vt 0.475588 0.868162
vt 0.475588 0.867189
vt 0.476561 0.867189
vt 0.476561 0.868162
vt 0.476564 0.868162
vt 0.476564 0.867189
vt 0.477537 0.867189
vt 0.477537 0.868162
vt 0.477537 0.868149
vt 0.477537 0.860367
vt 0.476564 0.860367
vt 0.476564 0.868149
vt 0.474625 0.867186
vt 0.474625 0.866213
vt 0.482407 0.866213
vt 0.482407 0.867186
vt 0.476561 0.867184
vt 0.476561 0.865238
vt 0.475588 0.865238
vt 0.475588 0.867184
vt 0.478523 0.867186
vt 0.478523 0.866213
vt 0.482414 0.866213
vt 0.482414 0.867186
vt 0.482420 0.867178
vt 0.482420 0.862314
vt 0.481447 0.862314
vt 0.481447 0.867178
vt 0.469744 0.866209
vt 0.469744 0.865236
vt 0.478498 0.865236
vt 0.478498 0.866209
vt 0.469749 0.866209
vt 0.469749 0.865236
vt 0.481422 0.865236
vt 0.481422 0.866209
vt 0.470701 0.866209
vt 0.470701 0.865236
vt 0.469728 0.865236
vt 0.469728 0.866209
vt 0.476561 0.866201
vt 0.476561 0.861338
vt 0.475588 0.861338
vt 0.475588 0.866201
vt 0.470720 0.865232
vt 0.470720 0.864260
vt 0.479475 0.864260
vt 0.479475 0.865232
vt 0.472666 0.865232
vt 0.472666 0.864260
vt 0.477530 0.864260
vt 0.477530 0.865232
vt 0.471682 0.864256
vt 0.471682 0.863283
vt 0.472654 0.863283
vt 0.472654 0.864256
vt 0.473650 0.864256
vt 0.473650 0.863283
vt 0.482405 0.863283
vt 0.482405 0.864256
vt 0.481443 0.864256
vt 0.481443 0.863283
vt 0.480471 0.863283
vt 0.480471 0.864256
vt 0.472675 0.863279
vt 0.472675 0.862307
vt 0.482403 0.862307
vt 0.482403 0.863279
vt 0.474621 0.863279
vt 0.474621 0.862307
vt 0.480457 0.862307
vt 0.480457 0.863279
vt 0.475597 0.862303
vt 0.475597 0.861330
vt 0.481434 0.861330
vt 0.481434 0.862303
vt 0.478518 0.862303
vt 0.478518 0.861330
vt 0.479490 0.861330
vt 0.479490 0.862303
vt 0.472658 0.861326
vt 0.472658 0.860353
vt 0.473631 0.860353
vt 0.473631 0.861326
vt 0.478519 0.861326
vt 0.478519 0.860353
vt 0.480465 0.860353
vt 0.480465 0.861326
vt 0.471693 0.860350
vt 0.471693 0.859377
vt 0.478502 0.859377
vt 0.478502 0.860350
vt 0.471693 0.860350
vt 0.471693 0.859377
vt 0.478502 0.859377
vt 0.478502 0.860350
f 1/1/1 2/2/1 3/3/1 4/4/1
f 5/5/2 6/6/2 7/7/2 8/8/2
f 9/9/3 10/10/3 11/11/3 12/12/3
f 9/13/4 13/14/4 14/15/4 10/16/4
f 15/17/5 16/18/5 17/19/5 18/20/5
f 19/21/4 20/22/4 21/23/4 22/24/4
f 11/25/5 23/26/5 24/27/5 12/28/5
f 25/29/6 26/30/6 27/31/6 28/32/6
f 29/33/3 30/34/3 31/35/3 32/36/3
f 33/37/5 34/38/5 35/39/5 36/40/5
f 37/41/4 38/42/4 39/43/4 40/44/4
f 41/45/6 42/46/6 43/47/6 44/48/6
f 45/49/4 46/50/4 47/51/4 48/52/4
f 49/53/3 50/54/3 51/55/3 52/56/3
f 53/57/5 54/58/5 55/59/5 56/60/5
f 57/61/4 58/62/4 59/63/4 60/64/4
f 61/65/5 62/66/5 63/67/5 64/68/5
f 65/69/6 66/70/6 67/71/6 68/72/6
f 69/73/4 70/74/4 71/75/4 72/76/4
f 73/77/5 74/78/5 75/79/5 76/80/5
f 77/81/6 78/82/6 79/83/6 80/84/6
f 81/85/4 78/86/4 77/87/4 82/88/4
f 83/89/3 84/90/3 85/91/3 86/92/3
f 87/93/5 88/94/5 89/95/5 90/96/5
f 91/97/4 92/98/4 93/99/4 94/100/4
f 95/101/5 96/102/5 97/103/5 98/104/5
f 99/105/4 100/106/4 101/107/4 102/108/4
f 89/109/3 88/110/3 103/111/3 104/112/3
f 105/113/6 106/114/6 107/115/6 108/116/6
f 109/117/5 110/118/5 111/119/5 112/120/5
f 101/121/6 100/122/6 113/123/6 114/124/6
f 105/125/5 115/126/5 116/127/5 106/128/5
f 117/129/3 118/130/3 119/131/3 120/132/3
f 119/133/5 121/134/5 122/135/5 120/136/5
f 123/137/3 124/138/3 125/139/3 126/140/3
f 127/141/6 128/142/6 129/143/6 130/144/6
f 123/145/4 128/146/4 127/147/4 124/148/4
f 131/149/4 132/150/4 133/151/4 134/152/4
f 14/153/6 13/154/6 75/155/6 74/156/6
f 17/157/3 16/158/3 59/159/3 58/160/3
f 135/161/6 136/162/6 137/163/6 138/164/6
f 139/165/3 140/166/3 141/167/3 142/168/3
f 143/169/4 144/170/4 145/171/4 146/172/4
f 147/173/6 148/174/6 122/175/6 121/176/6
f 55/177/3 54/178/3 145/179/3 144/180/3
f 133/181/6 132/182/6 24/183/6 23/184/6
f 149/185/3 150/186/3 21/187/3 20/188/3
f 151/189/3 152/190/3 153/191/3 154/192/3
f 39/193/6 38/194/6 63/195/6 62/196/6
f 155/197/3 156/198/3 39/199/3 38/200/3
f 47/201/6 46/202/6 97/203/6 96/204/6
