v 1.000000 1.000000 0.468750
v 1.000000 0.000000 0.468750
v 0.000000 0.000000 0.468750
v 0.000000 1.000000 0.468750
v 0.000000 1.000000 0.531250
v 0.000000 0.000000 0.531250
v 1.000000 0.000000 0.531250
v 1.000000 1.000000 0.531250
v 0.500000 0.937500 0.468750
v 0.500000 0.937500 0.531250
v 0.562500 0.937500 0.531250
v 0.562500 0.937500 0.468750
v 0.500000 0.875000 0.468750
v 0.500000 0.875000 0.531250
v 0.562500 0.875000 0.531250
v 0.562500 0.875000 0.468750
v 0.375000 0.875000 0.468750
v 0.375000 0.875000 0.531250
v 0.687500 0.875000 0.531250
v 0.687500 0.875000 0.468750
v 0.375000 0.062500 0.468750
v 0.375000 0.062500 0.531250
v 0.687500 0.062500 0.531250
v 0.687500 0.062500 0.468750
v 0.312500 0.812500 0.468750
v 0.312500 0.812500 0.531250
v 0.750000 0.812500 0.531250
v 0.750000 0.812500 0.468750
v 0.312500 0.125000 0.468750
v 0.312500 0.125000 0.531250
v 0.750000 0.125000 0.531250
v 0.750000 0.125000 0.468750
v 0.437500 0.000000 0.531250
v 0.437500 0.000000 0.468750
v 0.625000 0.000000 0.468750
v 0.625000 0.000000 0.531250
v 0.437500 0.062500 0.468750
v 0.437500 0.062500 0.531250
v 0.625000 0.062500 0.531250
v 0.625000 0.062500 0.468750
vn 0.000000 0.000000 -1.000000
vn 0.000000 0.000000 1.000000
vn 0.000000 1.000000 0.000000
vn -1.000000 0.000000 0.000000
vn 1.000000 0.000000 0.000000
vn 0.000000 -1.000000 0.000000
vt 0.562469 0.765594
vt 0.562469 0.750031
vt 0.546906 0.750031
vt 0.546906 0.765594
vt 0.546906 0.765594
vt 0.546906 0.750031
vt 0.562469 0.750031
vt 0.562469 0.765594
vt 0.554689 0.764647
vt 0.554689 0.763674
vt 0.555662 0.763674
vt 0.555662 0.764647
vt 0.555662 0.764647
vt 0.555662 0.763674
vt 0.554689 0.763674
vt 0.554689 0.764647
vt 0.555662 0.764647
vt 0.555662 0.763674
vt 0.554689 0.763674
vt 0.554689 0.764647
vt 0.552744 0.763670
vt 0.552744 0.762697
vt 0.557608 0.762697
vt 0.557608 0.763670
vt 0.553709 0.763647
vt 0.553709 0.751001
vt 0.552736 0.751001
vt 0.552736 0.763647
vt 0.557615 0.763647
vt 0.557615 0.751001
vt 0.556643 0.751001
vt 0.556643 0.763647
vt 0.551771 0.762693
vt 0.551771 0.761721
vt 0.558580 0.761721
vt 0.558580 0.762693
vt 0.552732 0.762674
vt 0.552732 0.751974
vt 0.551760 0.751974
vt 0.551760 0.762674
vt 0.558592 0.762674
vt 0.558592 0.751974
vt 0.557619 0.751974
vt 0.557619 0.762674
vt 0.551771 0.752928
vt 0.551771 0.751955
vt 0.558580 0.751955
vt 0.558580 0.752928
vt 0.552744 0.751951
vt 0.552744 0.750978
vt 0.557608 0.750978
vt 0.557608 0.751951
vt 0.553717 0.750975
vt 0.553717 0.750002
vt 0.556635 0.750002
vt 0.556635 0.750975
vt 0.554686 0.750975
vt 0.554686 0.750002
vt 0.553713 0.750002
vt 0.553713 0.750975
vt 0.556639 0.750975
vt 0.556639 0.750002
vt 0.555666 0.750002
vt 0.555666 0.750975
f 1/1/1 2/2/1 3/3/1 4/4/1
f 5/5/2 6/6/2 7/7/2 8/8/2
f 9/9/3 10/10/3 11/11/3 12/12/3
f 9/13/4 13/14/4 14/15/4 10/16/4
f 11/17/5 15/18/5 16/19/5 12/20/5
f 17/21/3 18/22/3 19/23/3 20/24/3
f 17/25/4 21/26/4 22/27/4 18/28/4
f 19/29/5 23/30/5 24/31/5 20/32/5
f 25/33/3 26/34/3 27/35/3 28/36/3
f 25/37/4 29/38/4 30/39/4 26/40/4
f 27/41/5 31/42/5 32/43/5 28/44/5
f 30/45/6 29/46/6 32/47/6 31/48/6
f 22/49/6 21/50/6 24/51/6 23/52/6
f 33/53/6 34/54/6 35/55/6 36/56/6
f 37/57/4 34/58/4 33/59/4 38/60/4
f 39/61/5 36/62/5 35/63/5 40/64/5
