v 1.000000 1.000000 0.468750
v 1.000000 0.000000 0.468750
v 0.000000 0.000000 0.468750
v 0.000000 1.000000 0.468750
v 0.000000 1.000000 0.531250
v 0.000000 0.000000 0.531250
v 1.000000 0.000000 0.531250
v 1.000000 1.000000 0.531250
v 0.375000 0.500000 0.468750
v 0.375000 0.500000 0.531250
v 0.687500 0.500000 0.531250
v 0.687500 0.500000 0.468750
v 0.375000 0.437500 0.531250
v 0.375000 0.437500 0.468750
v 0.437500 0.437500 0.468750
v 0.437500 0.437500 0.531250
v 0.375000 0.125000 0.468750
v 0.375000 0.125000 0.531250
v 0.437500 0.500000 0.531250
v 0.437500 0.500000 0.468750
v 0.500000 0.500000 0.468750
v 0.500000 0.437500 0.468750
v 0.500000 0.437500 0.531250
v 0.500000 0.500000 0.531250
v 0.687500 0.125000 0.531250
v 0.687500 0.125000 0.468750
v 0.312500 0.437500 0.468750
v 0.312500 0.437500 0.531250
v 0.750000 0.437500 0.531250
v 0.750000 0.437500 0.468750
v 0.312500 0.187500 0.468750
v 0.312500 0.187500 0.531250
v 0.375000 0.312500 0.531250
v 0.375000 0.312500 0.468750
v 0.437500 0.312500 0.468750
v 0.437500 0.312500 0.531250
v 0.750000 0.187500 0.531250
v 0.750000 0.187500 0.468750
v 0.625000 0.312500 0.531250
v 0.625000 0.312500 0.468750
v 0.687500 0.312500 0.468750
v 0.687500 0.312500 0.531250
v 0.625000 0.187500 0.531250
v 0.625000 0.187500 0.468750
v 0.687500 0.187500 0.468750
v 0.687500 0.187500 0.531250
v 0.562500 0.187500 0.531250
v 0.562500 0.125000 0.531250
v 0.562500 0.125000 0.468750
v 0.562500 0.187500 0.468750
v 0.625000 0.125000 0.468750
v 0.625000 0.125000 0.531250
v 0.437500 0.687500 0.468750
v 0.437500 0.687500 0.531250
v 0.625000 0.687500 0.531250
v 0.625000 0.687500 0.468750
v 0.500000 0.687500 0.531250
v 0.500000 0.687500 0.468750
v 0.562500 0.687500 0.468750
v 0.562500 0.687500 0.531250
v 0.437500 0.562500 0.531250
v 0.437500 0.562500 0.468750
v 0.625000 0.562500 0.468750
v 0.625000 0.562500 0.531250
v 0.500000 0.625000 0.468750
v 0.500000 0.625000 0.531250
v 0.562500 0.625000 0.531250
v 0.562500 0.625000 0.468750
v 0.375000 0.562500 0.468750
v 0.375000 0.562500 0.531250
v 0.687500 0.562500 0.531250
v 0.687500 0.562500 0.468750
v 0.375000 0.062500 0.468750
v 0.375000 0.062500 0.531250
v 0.687500 0.062500 0.531250
v 0.687500 0.062500 0.468750
v 0.312500 0.500000 0.468750
v 0.312500 0.500000 0.531250
v 0.750000 0.500000 0.531250
v 0.750000 0.500000 0.468750
v 0.312500 0.125000 0.468750
v 0.312500 0.125000 0.531250
v 0.750000 0.125000 0.531250
v 0.750000 0.125000 0.468750
v 0.250000 0.437500 0.468750
v 0.250000 0.437500 0.531250
v 0.812500 0.437500 0.531250
v 0.812500 0.437500 0.468750
v 0.250000 0.187500 0.468750
v 0.250000 0.187500 0.531250
v 0.812500 0.187500 0.531250
v 0.812500 0.187500 0.468750
vn 0.000000 0.000000 -1.000000
vn 0.000000 0.000000 1.000000
vn 0.000000 1.000000 0.000000
vn 0.000000 -1.000000 0.000000
vn -1.000000 0.000000 0.000000
vn 1.000000 0.000000 0.000000
vt 0.593719 0.843719
vt 0.593719 0.828156
vt 0.578156 0.828156
vt 0.578156 0.843719
vt 0.578156 0.843719
vt 0.578156 0.828156
vt 0.593719 0.828156
vt 0.593719 0.843719
vt 0.583994 0.835936
vt 0.583994 0.834963
vt 0.588858 0.834963
vt 0.588858 0.835936
vt 0.583986 0.835936
vt 0.583986 0.834963
vt 0.584959 0.834963
vt 0.584959 0.835936
vt 0.584959 0.835926
vt 0.584959 0.830090
vt 0.583986 0.830090
vt 0.583986 0.835926
vt 0.584959 0.835936
vt 0.584959 0.834963
vt 0.583986 0.834963
vt 0.583986 0.835936
vt 0.586912 0.835936
vt 0.586912 0.834963
vt 0.585939 0.834963
vt 0.585939 0.835936
vt 0.588865 0.835926
vt 0.588865 0.830090
vt 0.587893 0.830090
vt 0.587893 0.835926
vt 0.583021 0.834959
vt 0.583021 0.833986
vt 0.589830 0.833986
vt 0.589830 0.834959
vt 0.583982 0.834953
vt 0.583982 0.831062
vt 0.583010 0.831062
vt 0.583010 0.834953
vt 0.583982 0.834957
vt 0.583982 0.833012
vt 0.583010 0.833012
vt 0.583010 0.834957
vt 0.585936 0.834957
vt 0.585936 0.833012
vt 0.584963 0.833012
vt 0.584963 0.834957
vt 0.589842 0.834953
vt 0.589842 0.831062
vt 0.588869 0.831062
vt 0.588869 0.834953
vt 0.587893 0.833982
vt 0.587893 0.833010
vt 0.588865 0.833010
vt 0.588865 0.833982
vt 0.583986 0.833006
vt 0.583986 0.832033
vt 0.584959 0.832033
vt 0.584959 0.833006
vt 0.587889 0.833004
vt 0.587889 0.831059
vt 0.586916 0.831059
vt 0.586916 0.833004
vt 0.589842 0.833004
vt 0.589842 0.831059
vt 0.588869 0.831059
vt 0.588869 0.833004
vt 0.583021 0.832029
vt 0.583021 0.831057
vt 0.589830 0.831057
vt 0.589830 0.832029
vt 0.583994 0.831053
vt 0.583994 0.830080
vt 0.588858 0.830080
vt 0.588858 0.831053
vt 0.586912 0.831053
vt 0.586912 0.830080
vt 0.585939 0.830080
vt 0.585939 0.831053
vt 0.587893 0.831053
vt 0.587893 0.830080
vt 0.588865 0.830080
vt 0.588865 0.831053
vt 0.588865 0.831053
vt 0.588865 0.830080
vt 0.587893 0.830080
vt 0.587893 0.831053
vt 0.562469 0.734344
vt 0.562469 0.718781
vt 0.546906 0.718781
vt 0.546906 0.734344
vt 0.546906 0.734344
vt 0.546906 0.718781
vt 0.562469 0.718781
vt 0.562469 0.734344
vt 0.553717 0.729490
vt 0.553717 0.728518
vt 0.556635 0.728518
vt 0.556635 0.729490
vt 0.554686 0.729485
vt 0.554686 0.725594
vt 0.553713 0.725594
vt 0.553713 0.729485
vt 0.554686 0.729485
vt 0.554686 0.725594
vt 0.553713 0.725594
vt 0.553713 0.729485
vt 0.556639 0.729475
vt 0.556639 0.720720
vt 0.555666 0.720720
vt 0.555666 0.729475
vt 0.556639 0.729475
vt 0.556639 0.720720
vt 0.555666 0.720720
vt 0.555666 0.729475
vt 0.553717 0.728514
vt 0.553717 0.727541
vt 0.556635 0.727541
vt 0.556635 0.728514
vt 0.554689 0.728514
vt 0.554689 0.727541
vt 0.555662 0.727541
vt 0.555662 0.728514
vt 0.552744 0.727537
vt 0.552744 0.726564
vt 0.557608 0.726564
vt 0.557608 0.727537
vt 0.552744 0.727537
vt 0.552744 0.726564
vt 0.557608 0.726564
vt 0.557608 0.727537
vt 0.553709 0.727524
vt 0.553709 0.719742
vt 0.552736 0.719742
vt 0.552736 0.727524
vt 0.553709 0.727531
vt 0.553709 0.723640
vt 0.552736 0.723640
vt 0.552736 0.727531
vt 0.557615 0.727528
vt 0.557615 0.721691
vt 0.556643 0.721691
vt 0.556643 0.727528
vt 0.557615 0.727524
vt 0.557615 0.719742
vt 0.556643 0.719742
vt 0.556643 0.727524
vt 0.551771 0.726561
vt 0.551771 0.725588
vt 0.558580 0.725588
vt 0.558580 0.726561
vt 0.551771 0.726561
vt 0.551771 0.725588
vt 0.558580 0.725588
vt 0.558580 0.726561
vt 0.552732 0.726551
vt 0.552732 0.720715
vt 0.551760 0.720715
vt 0.551760 0.726551
vt 0.552732 0.726551
vt 0.552732 0.720715
vt 0.551760 0.720715
vt 0.551760 0.726551
vt 0.558592 0.726551
vt 0.558592 0.720715
vt 0.557619 0.720715
vt 0.557619 0.726551
vt 0.558592 0.726551
vt 0.558592 0.720715
vt 0.557619 0.720715
vt 0.557619 0.726551
vt 0.550798 0.725584
vt 0.550798 0.724611
vt 0.559553 0.724611
vt 0.559553 0.725584
vt 0.551756 0.725578
vt 0.551756 0.721687
vt 0.550783 0.721687
vt 0.550783 0.725578
vt 0.551756 0.725578
vt 0.551756 0.721687
vt 0.550783 0.721687
vt 0.550783 0.725578
vt 0.559568 0.725578
vt 0.559568 0.721687
vt 0.558596 0.721687
vt 0.558596 0.725578
vt 0.559568 0.725578
vt 0.559568 0.721687
vt 0.558596 0.721687
vt 0.558596 0.725578
vt 0.552736 0.724607
vt 0.552736 0.723635
vt 0.553709 0.723635
vt 0.553709 0.724607
vt 0.556643 0.723631
vt 0.556643 0.722658
vt 0.557615 0.722658
vt 0.557615 0.723631
vt 0.550798 0.722654
vt 0.550798 0.721682
vt 0.559553 0.721682
vt 0.559553 0.722654
vt 0.551771 0.721678
vt 0.551771 0.720705
vt 0.558580 0.720705
vt 0.558580 0.721678
vt 0.551771 0.721678
vt 0.551771 0.720705
vt 0.558580 0.720705
vt 0.558580 0.721678
vt 0.552744 0.720701
vt 0.552744 0.719728
vt 0.557608 0.719728
vt 0.557608 0.720701
vt 0.552744 0.720701
vt 0.552744 0.719728
vt 0.557608 0.719728
vt 0.557608 0.720701
f 1/1/1 2/2/1 3/3/1 4/4/1
f 5/5/2 6/6/2 7/7/2 8/8/2
f 9/9/3 10/10/3 11/11/3 12/12/3
f 13/13/4 14/14/4 15/15/4 16/16/4
f 9/17/5 17/18/5 18/19/5 10/20/5
f 19/21/6 16/22/6 15/23/6 20/24/6
f 21/25/5 22/26/5 23/27/5 24/28/5
f 11/29/6 25/30/6 26/31/6 12/32/6
f 27/33/3 28/34/3 29/35/3 30/36/3
f 27/37/5 31/38/5 32/39/5 28/40/5
f 13/41/6 33/42/6 34/43/6 14/44/6
f 15/45/5 35/46/5 36/47/5 16/48/5
f 29/49/6 37/50/6 38/51/6 30/52/6
f 39/53/4 40/54/4 41/55/4 42/56/4
f 34/57/3 33/58/3 36/59/3 35/60/3
f 39/61/6 43/62/6 44/63/6 40/64/6
f 41/65/5 45/66/5 46/67/5 42/68/5
f 32/69/4 31/70/4 38/71/4 37/72/4
f 18/73/4 17/74/4 26/75/4 25/76/4
f 47/77/6 48/78/6 49/79/6 50/80/6
f 44/81/3 43/82/3 46/83/3 45/84/3
f 44/85/5 51/86/5 52/87/5 43/88/5
f 1/89/1 2/90/1 3/91/1 4/92/1
f 5/93/2 6/94/2 7/95/2 8/96/2
f 53/97/3 54/98/3 55/99/3 56/100/3
f 53/101/5 15/102/5 16/103/5 54/104/5
f 57/105/6 23/106/6 22/107/6 58/108/6
f 59/109/5 49/110/5 48/111/5 60/112/5
f 55/113/6 52/114/6 51/115/6 56/116/6
f 61/117/4 62/118/4 63/119/4 64/120/4
f 65/121/3 66/122/3 67/123/3 68/124/3
f 69/125/3 70/126/3 71/127/3 72/128/3
f 10/129/4 9/130/4 12/131/4 11/132/4
f 69/133/5 73/134/5 74/135/5 70/136/5
f 61/137/6 36/138/6 35/139/6 62/140/6
f 63/141/5 44/142/5 43/143/5 64/144/5
f 71/145/6 75/146/6 76/147/6 72/148/6
f 77/149/3 78/150/3 79/151/3 80/152/3
f 28/153/4 27/154/4 30/155/4 29/156/4
f 77/157/5 81/158/5 82/159/5 78/160/5
f 10/161/6 18/162/6 17/163/6 9/164/6
f 12/165/5 26/166/5 25/167/5 11/168/5
f 79/169/6 83/170/6 84/171/6 80/172/6
f 85/173/3 86/174/3 87/175/3 88/176/3
f 85/177/5 89/178/5 90/179/5 86/180/5
f 28/181/6 32/182/6 31/183/6 27/184/6
f 30/185/5 38/186/5 37/187/5 29/188/5
f 87/189/6 91/190/6 92/191/6 88/192/6
f 33/193/4 34/194/4 35/195/4 36/196/4
f 40/197/3 39/198/3 42/199/3 41/200/3
f 90/201/4 89/202/4 92/203/4 91/204/4
f 31/205/3 32/206/3 37/207/3 38/208/3
f 82/209/4 81/210/4 84/211/4 83/212/4
f 17/213/3 18/214/3 25/215/3 26/216/3
f 74/217/4 73/218/4 76/219/4 75/220/4
