v 1.000000 1.000000 0.468750
v 1.000000 0.000000 0.468750
v 0.000000 0.000000 0.468750
v 0.000000 1.000000 0.468750
v 0.000000 1.000000 0.531250
v 0.000000 0.000000 0.531250
v 1.000000 0.000000 0.531250
v 1.000000 1.000000 0.531250
v 0.375000 0.875000 0.468750
v 0.375000 0.875000 0.531250
v 0.625000 0.875000 0.531250
v 0.625000 0.875000 0.468750
v 0.375000 0.125000 0.468750
v 0.375000 0.125000 0.531250
v 0.625000 0.125000 0.531250
v 0.625000 0.125000 0.468750
v 0.250000 0.812500 0.468750
v 0.250000 0.812500 0.531250
v 0.750000 0.812500 0.531250
v 0.750000 0.812500 0.468750
v 0.250000 0.187500 0.468750
v 0.250000 0.187500 0.531250
v 0.750000 0.187500 0.531250
v 0.750000 0.187500 0.468750
v 0.187500 0.750000 0.468750
v 0.187500 0.750000 0.531250
v 0.812500 0.750000 0.531250
v 0.812500 0.750000 0.468750
v 0.187500 0.250000 0.468750
v 0.187500 0.250000 0.531250
v 0.812500 0.250000 0.531250
v 0.812500 0.250000 0.468750
v 0.125000 0.625000 0.468750
v 0.125000 0.625000 0.531250
v 0.875000 0.625000 0.531250
v 0.875000 0.625000 0.468750
v 0.125000 0.375000 0.468750
v 0.125000 0.375000 0.531250
v 0.875000 0.375000 0.531250
v 0.875000 0.375000 0.468750
vn 0.000000 0.000000 -1.000000
vn 0.000000 0.000000 1.000000
vn 0.000000 1.000000 0.000000
vn -1.000000 0.000000 0.000000
vn 1.000000 0.000000 0.000000
vn 0.000000 -1.000000 0.000000
vt 0.562469 0.687469
vt 0.562469 0.671906
vt 0.546906 0.671906
vt 0.546906 0.687469
vt 0.546906 0.687469
vt 0.546906 0.671906
vt 0.562469 0.671906
vt 0.562469 0.687469
vt 0.552742 0.685545
vt 0.552742 0.684572
vt 0.556633 0.684572
vt 0.556633 0.685545
vt 0.553709 0.685524
vt 0.553709 0.673851
vt 0.552736 0.673851
vt 0.552736 0.685524
vt 0.556639 0.685524
vt 0.556639 0.673851
vt 0.555666 0.673851
vt 0.555666 0.685524
vt 0.550797 0.684568
vt 0.550797 0.683596
vt 0.558578 0.683596
vt 0.558578 0.684568
vt 0.551756 0.684551
vt 0.551756 0.674824
vt 0.550783 0.674824
vt 0.550783 0.684551
vt 0.558592 0.684551
vt 0.558592 0.674824
vt 0.557619 0.674824
vt 0.557619 0.684551
vt 0.549824 0.683592
vt 0.549824 0.682619
vt 0.559551 0.682619
vt 0.559551 0.683592
vt 0.550779 0.683578
vt 0.550779 0.675797
vt 0.549807 0.675797
vt 0.549807 0.683578
vt 0.559568 0.683578
vt 0.559568 0.675797
vt 0.558596 0.675797
vt 0.558596 0.683578
vt 0.548851 0.681639
vt 0.548851 0.680666
vt 0.560524 0.680666
vt 0.560524 0.681639
vt 0.549803 0.681633
vt 0.549803 0.677742
vt 0.548830 0.677742
vt 0.548830 0.681633
vt 0.560545 0.681633
vt 0.560545 0.677742
vt 0.559572 0.677742
vt 0.559572 0.681633
vt 0.548851 0.678709
vt 0.548851 0.677736
vt 0.560524 0.677736
vt 0.560524 0.678709
vt 0.549824 0.676756
vt 0.549824 0.675783
vt 0.559551 0.675783
vt 0.559551 0.676756
vt 0.550797 0.675779
vt 0.550797 0.674807
vt 0.558578 0.674807
vt 0.558578 0.675779
vt 0.552742 0.674803
vt 0.552742 0.673830
vt 0.556633 0.673830
vt 0.556633 0.674803
f 1/1/1 2/2/1 3/3/1 4/4/1
f 5/5/2 6/6/2 7/7/2 8/8/2
f 9/9/3 10/10/3 11/11/3 12/12/3
f 9/13/4 13/14/4 14/15/4 10/16/4
f 11/17/5 15/18/5 16/19/5 12/20/5
f 17/21/3 18/22/3 19/23/3 20/24/3
f 17/25/4 21/26/4 22/27/4 18/28/4
f 19/29/5 23/30/5 24/31/5 20/32/5
f 25/33/3 26/34/3 27/35/3 28/36/3
f 25/37/4 29/38/4 30/39/4 26/40/4
f 27/41/5 31/42/5 32/43/5 28/44/5
f 33/45/3 34/46/3 35/47/3 36/48/3
f 33/49/4 37/50/4 38/51/4 34/52/4
f 35/53/5 39/54/5 40/55/5 36/56/5
f 38/57/6 37/58/6 40/59/6 39/60/6
f 30/61/6 29/62/6 32/63/6 31/64/6
f 22/65/6 21/66/6 24/67/6 23/68/6
f 14/69/6 13/70/6 16/71/6 15/72/6
