v 1.000000 1.000000 0.468750
v 1.000000 0.000000 0.468750
v 0.000000 0.000000 0.468750
v 0.000000 1.000000 0.468750
v 0.000000 1.000000 0.531250
v 0.000000 0.000000 0.531250
v 1.000000 0.000000 0.531250
v 1.000000 1.000000 0.531250
v 0.312500 0.812500 0.468750
v 0.312500 0.812500 0.531250
v 0.625000 0.812500 0.531250
v 0.625000 0.812500 0.468750
v 0.312500 0.187500 0.468750
v 0.312500 0.187500 0.531250
v 0.625000 0.187500 0.531250
v 0.625000 0.187500 0.468750
v 0.125000 0.750000 0.468750
v 0.125000 0.750000 0.531250
v 0.812500 0.750000 0.531250
v 0.812500 0.750000 0.468750
v 0.125000 0.250000 0.468750
v 0.125000 0.250000 0.531250
v 0.812500 0.250000 0.531250
v 0.812500 0.250000 0.468750
v 0.062500 0.687500 0.468750
v 0.062500 0.687500 0.531250
v 0.875000 0.687500 0.531250
v 0.875000 0.687500 0.468750
v 0.062500 0.312500 0.468750
v 0.062500 0.312500 0.531250
v 0.875000 0.312500 0.531250
v 0.875000 0.312500 0.468750
v 0.000000 0.625000 0.468750
v 0.000000 0.625000 0.531250
v 0.937500 0.625000 0.531250
v 0.937500 0.625000 0.468750
v 0.000000 0.375000 0.468750
v 0.000000 0.375000 0.531250
v 0.937500 0.375000 0.531250
v 0.937500 0.375000 0.468750
vn 0.000000 0.000000 -1.000000
vn 0.000000 0.000000 1.000000
vn 0.000000 1.000000 0.000000
vn -1.000000 0.000000 0.000000
vn 1.000000 0.000000 0.000000
vn 0.000000 -1.000000 0.000000
vt 0.578094 0.968719
vt 0.578094 0.953156
vt 0.562531 0.953156
vt 0.562531 0.968719
vt 0.562531 0.968719
vt 0.562531 0.953156
vt 0.578094 0.953156
vt 0.578094 0.968719
vt 0.567392 0.965818
vt 0.567392 0.964846
vt 0.572256 0.964846
vt 0.572256 0.965818
vt 0.568357 0.965801
vt 0.568357 0.956074
vt 0.567385 0.956074
vt 0.567385 0.965801
vt 0.572264 0.965801
vt 0.572264 0.956074
vt 0.571291 0.956074
vt 0.571291 0.965801
vt 0.564474 0.964842
vt 0.564474 0.963869
vt 0.575174 0.963869
vt 0.575174 0.964842
vt 0.565428 0.964828
vt 0.565428 0.957047
vt 0.564455 0.957047
vt 0.564455 0.964828
vt 0.575193 0.964828
vt 0.575193 0.957047
vt 0.574221 0.957047
vt 0.574221 0.964828
vt 0.563501 0.963865
vt 0.563501 0.962893
vt 0.576147 0.962893
vt 0.576147 0.963865
vt 0.564451 0.963856
vt 0.564451 0.958019
vt 0.563478 0.958019
vt 0.563478 0.963856
vt 0.576170 0.963856
vt 0.576170 0.958019
vt 0.575197 0.958019
vt 0.575197 0.963856
vt 0.562529 0.962889
vt 0.562529 0.961916
vt 0.577120 0.961916
vt 0.577120 0.962889
vt 0.563475 0.962883
vt 0.563475 0.958992
vt 0.562502 0.958992
vt 0.562502 0.962883
vt 0.577147 0.962883
vt 0.577147 0.958992
vt 0.576174 0.958992
vt 0.576174 0.962883
vt 0.562529 0.959959
vt 0.562529 0.958986
vt 0.577120 0.958986
vt 0.577120 0.959959
vt 0.563501 0.958982
vt 0.563501 0.958010
vt 0.576147 0.958010
vt 0.576147 0.958982
vt 0.564474 0.958006
vt 0.564474 0.957033
vt 0.575174 0.957033
vt 0.575174 0.958006
vt 0.567392 0.957029
vt 0.567392 0.956057
vt 0.572256 0.956057
vt 0.572256 0.957029
f 1/1/1 2/2/1 3/3/1 4/4/1
f 5/5/2 6/6/2 7/7/2 8/8/2
f 9/9/3 10/10/3 11/11/3 12/12/3
f 9/13/4 13/14/4 14/15/4 10/16/4
f 11/17/5 15/18/5 16/19/5 12/20/5
f 17/21/3 18/22/3 19/23/3 20/24/3
f 17/25/4 21/26/4 22/27/4 18/28/4
f 19/29/5 23/30/5 24/31/5 20/32/5
f 25/33/3 26/34/3 27/35/3 28/36/3
f 25/37/4 29/38/4 30/39/4 26/40/4
f 27/41/5 31/42/5 32/43/5 28/44/5
f 33/45/3 34/46/3 35/47/3 36/48/3
f 33/49/4 37/50/4 38/51/4 34/52/4
f 35/53/5 39/54/5 40/55/5 36/56/5
f 38/57/6 37/58/6 40/59/6 39/60/6
f 30/61/6 29/62/6 32/63/6 31/64/6
f 22/65/6 21/66/6 24/67/6 23/68/6
f 14/69/6 13/70/6 16/71/6 15/72/6
