v 1.000000 1.000000 0.468750
v 1.000000 0.000000 0.468750
v 0.000000 0.000000 0.468750
v 0.000000 1.000000 0.468750
v 0.000000 1.000000 0.531250
v 0.000000 0.000000 0.531250
v 1.000000 0.000000 0.531250
v 1.000000 1.000000 0.531250
v 0.687500 0.937500 0.468750
v 0.687500 0.937500 0.531250
v 0.812500 0.937500 0.531250
v 0.812500 0.937500 0.468750
v 0.687500 0.875000 0.468750
v 0.687500 0.875000 0.531250
v 0.812500 0.250000 0.531250
v 0.812500 0.250000 0.468750
v 0.625000 0.875000 0.468750
v 0.625000 0.875000 0.531250
v 0.875000 0.875000 0.531250
v 0.875000 0.875000 0.468750
v 0.625000 0.750000 0.468750
v 0.625000 0.750000 0.531250
v 0.875000 0.500000 0.531250
v 0.875000 0.500000 0.468750
v 0.562500 0.750000 0.468750
v 0.562500 0.750000 0.531250
v 0.562500 0.625000 0.468750
v 0.562500 0.625000 0.531250
v 0.500000 0.625000 0.468750
v 0.500000 0.625000 0.531250
v 0.500000 0.562500 0.468750
v 0.500000 0.562500 0.531250
v 0.437500 0.562500 0.468750
v 0.437500 0.562500 0.531250
v 0.437500 0.500000 0.468750
v 0.437500 0.500000 0.531250
v 0.812500 0.500000 0.531250
v 0.812500 0.500000 0.468750
v 0.312500 0.500000 0.468750
v 0.312500 0.500000 0.531250
v 0.312500 0.437500 0.468750
v 0.312500 0.437500 0.531250
v 0.250000 0.437500 0.468750
v 0.250000 0.437500 0.531250
v 0.250000 0.375000 0.468750
v 0.250000 0.375000 0.531250
v 0.187500 0.375000 0.468750
v 0.187500 0.375000 0.531250
v 0.187500 0.000000 0.468750
v 0.187500 0.000000 0.531250
v 0.125000 0.312500 0.468750
v 0.125000 0.312500 0.531250
v 0.187500 0.312500 0.531250
v 0.187500 0.312500 0.468750
v 0.125000 0.062500 0.468750
v 0.125000 0.062500 0.531250
v 0.750000 0.250000 0.531250
v 0.750000 0.250000 0.468750
v 0.750000 0.125000 0.531250
v 0.750000 0.125000 0.468750
v 0.687500 0.125000 0.531250
v 0.687500 0.125000 0.468750
v 0.687500 0.062500 0.468750
v 0.687500 0.062500 0.531250
v 0.562500 0.000000 0.468750
v 0.562500 0.000000 0.531250
v 0.562500 0.062500 0.531250
v 0.562500 0.062500 0.468750
vn 0.000000 0.000000 -1.000000
vn 0.000000 0.000000 1.000000
vn 0.000000 1.000000 0.000000
vn -1.000000 0.000000 0.000000
vn 1.000000 0.000000 0.000000
vn 0.000000 -1.000000 0.000000
vt 0.578094 0.874969
vt 0.578094 0.859406
vt 0.562531 0.859406
vt 0.562531 0.874969
vt 0.562531 0.874969
vt 0.562531 0.859406
vt 0.578094 0.859406
vt 0.578094 0.874969
vt 0.573246 0.874022
vt 0.573246 0.873049
vt 0.575191 0.873049
vt 0.575191 0.874022
vt 0.574217 0.874022
vt 0.574217 0.873049
vt 0.573244 0.873049
vt 0.573244 0.874022
vt 0.575193 0.874002
vt 0.575193 0.863302
vt 0.574221 0.863302
vt 0.574221 0.874002
vt 0.572273 0.873045
vt 0.572273 0.872072
vt 0.576164 0.872072
vt 0.576164 0.873045
vt 0.573240 0.873043
vt 0.573240 0.871098
vt 0.572268 0.871098
vt 0.572268 0.873043
vt 0.576170 0.873035
vt 0.576170 0.867199
vt 0.575197 0.867199
vt 0.575197 0.873035
vt 0.571291 0.871092
vt 0.571291 0.870119
vt 0.572264 0.870119
vt 0.572264 0.871092
vt 0.572264 0.871090
vt 0.572264 0.869144
vt 0.571291 0.869144
vt 0.571291 0.871090
vt 0.570314 0.869139
vt 0.570314 0.868166
vt 0.571287 0.868166
vt 0.571287 0.869139
vt 0.571287 0.869139
vt 0.571287 0.868166
vt 0.570314 0.868166
vt 0.570314 0.869139
vt 0.569338 0.868162
vt 0.569338 0.867189
vt 0.570311 0.867189
vt 0.570311 0.868162
vt 0.570311 0.868162
vt 0.570311 0.867189
vt 0.569338 0.867189
vt 0.569338 0.868162
vt 0.575197 0.868162
vt 0.575197 0.867189
vt 0.576170 0.867189
vt 0.576170 0.868162
vt 0.567387 0.867186
vt 0.567387 0.866213
vt 0.569332 0.866213
vt 0.569332 0.867186
vt 0.568357 0.867186
vt 0.568357 0.866213
vt 0.567385 0.866213
vt 0.567385 0.867186
vt 0.566408 0.866209
vt 0.566408 0.865236
vt 0.567381 0.865236
vt 0.567381 0.866209
vt 0.567381 0.866209
vt 0.567381 0.865236
vt 0.566408 0.865236
vt 0.566408 0.866209
vt 0.565432 0.865232
vt 0.565432 0.864260
vt 0.566404 0.864260
vt 0.566404 0.865232
vt 0.566404 0.865223
vt 0.566404 0.859386
vt 0.565432 0.859386
vt 0.565432 0.865223
vt 0.564455 0.864256
vt 0.564455 0.863283
vt 0.565428 0.863283
vt 0.565428 0.864256
vt 0.565428 0.864250
vt 0.565428 0.860359
vt 0.564455 0.860359
vt 0.564455 0.864250
vt 0.574221 0.864256
vt 0.574221 0.863283
vt 0.575193 0.863283
vt 0.575193 0.864256
vt 0.574217 0.863277
vt 0.574217 0.861332
vt 0.573244 0.861332
vt 0.573244 0.863277
vt 0.573244 0.862303
vt 0.573244 0.861330
vt 0.574217 0.861330
vt 0.574217 0.862303
vt 0.564470 0.861326
vt 0.564470 0.860353
vt 0.573225 0.860353
vt 0.573225 0.861326
vt 0.573240 0.861326
vt 0.573240 0.860353
vt 0.572268 0.860353
vt 0.572268 0.861326
vt 0.565441 0.860350
vt 0.565441 0.859377
vt 0.571278 0.859377
vt 0.571278 0.860350
vt 0.571287 0.860350
vt 0.571287 0.859377
vt 0.570314 0.859377
vt 0.570314 0.860350
f 1/1/1 2/2/1 3/3/1 4/4/1
f 5/5/2 6/6/2 7/7/2 8/8/2
f 9/9/3 10/10/3 11/11/3 12/12/3
f 9/13/4 13/14/4 14/15/4 10/16/4
f 11/17/5 15/18/5 16/19/5 12/20/5
f 17/21/3 18/22/3 19/23/3 20/24/3
f 17/25/4 21/26/4 22/27/4 18/28/4
f 19/29/5 23/30/5 24/31/5 20/32/5
f 25/33/3 26/34/3 22/35/3 21/36/3
f 25/37/4 27/38/4 28/39/4 26/40/4
f 29/41/3 30/42/3 28/43/3 27/44/3
f 29/45/4 31/46/4 32/47/4 30/48/4
f 33/49/3 34/50/3 32/51/3 31/52/3
f 33/53/4 35/54/4 36/55/4 34/56/4
f 37/57/6 38/58/6 24/59/6 23/60/6
f 39/61/3 40/62/3 36/63/3 35/64/3
f 39/65/4 41/66/4 42/67/4 40/68/4
f 43/69/3 44/70/3 42/71/3 41/72/3
f 43/73/4 45/74/4 46/75/4 44/76/4
f 47/77/3 48/78/3 46/79/3 45/80/3
f 47/81/4 49/82/4 50/83/4 48/84/4
f 51/85/3 52/86/3 53/87/3 54/88/3
f 51/89/4 55/90/4 56/91/4 52/92/4
f 57/93/6 58/94/6 16/95/6 15/96/6
f 57/97/5 59/98/5 60/99/5 58/100/5
f 61/101/6 62/102/6 60/103/6 59/104/6
f 56/105/6 55/106/6 63/107/6 64/108/6
f 61/109/5 64/110/5 63/111/5 62/112/5
f 50/113/6 49/114/6 65/115/6 66/116/6
f 67/117/5 66/118/5 65/119/5 68/120/5
