v 1.000000 1.000000 0.468750
v 1.000000 0.000000 0.468750
v 0.000000 0.000000 0.468750
v 0.000000 1.000000 0.468750
v 0.000000 1.000000 0.531250
v 0.000000 0.000000 0.531250
v 1.000000 0.000000 0.531250
v 1.000000 1.000000 0.531250
v 0.625000 0.937500 0.468750
v 0.625000 0.937500 0.531250
v 0.875000 0.937500 0.531250
v 0.875000 0.937500 0.468750
v 0.625000 0.875000 0.468750
v 0.625000 0.875000 0.531250
v 0.875000 0.500000 0.531250
v 0.875000 0.500000 0.468750
v 0.562500 0.875000 0.468750
v 0.562500 0.875000 0.531250
v 0.937500 0.875000 0.531250
v 0.937500 0.875000 0.468750
v 0.562500 0.750000 0.468750
v 0.562500 0.750000 0.531250
v 0.937500 0.562500 0.531250
v 0.937500 0.562500 0.468750
v 0.687500 0.750000 0.531250
v 0.687500 0.750000 0.468750
v 0.812500 0.750000 0.468750
v 0.812500 0.750000 0.531250
v 0.437500 0.750000 0.468750
v 0.437500 0.750000 0.531250
v 0.437500 0.687500 0.468750
v 0.437500 0.687500 0.531250
v 0.687500 0.375000 0.531250
v 0.687500 0.375000 0.468750
v 0.812500 0.562500 0.468750
v 0.812500 0.562500 0.531250
v 0.375000 0.687500 0.468750
v 0.375000 0.687500 0.531250
v 0.375000 0.625000 0.468750
v 0.375000 0.625000 0.531250
v 0.312500 0.625000 0.468750
v 0.312500 0.625000 0.531250
v 0.750000 0.625000 0.531250
v 0.750000 0.625000 0.468750
v 0.312500 0.562500 0.468750
v 0.312500 0.562500 0.531250
v 0.750000 0.562500 0.531250
v 0.750000 0.562500 0.468750
v 0.875000 0.562500 0.531250
v 0.875000 0.562500 0.468750
v 0.250000 0.562500 0.468750
v 0.250000 0.562500 0.531250
v 0.250000 0.500000 0.468750
v 0.250000 0.500000 0.531250
v 0.812500 0.500000 0.531250
v 0.812500 0.500000 0.468750
v 0.187500 0.500000 0.468750
v 0.187500 0.500000 0.531250
v 0.187500 0.437500 0.468750
v 0.187500 0.437500 0.531250
v 0.687500 0.437500 0.531250
v 0.687500 0.437500 0.468750
v 0.812500 0.437500 0.468750
v 0.812500 0.437500 0.531250
v 0.125000 0.437500 0.468750
v 0.125000 0.437500 0.531250
v 0.125000 0.000000 0.468750
v 0.125000 0.000000 0.531250
v 0.625000 0.375000 0.531250
v 0.625000 0.375000 0.468750
v 0.062500 0.375000 0.468750
v 0.062500 0.375000 0.531250
v 0.125000 0.375000 0.531250
v 0.125000 0.375000 0.468750
v 0.062500 0.062500 0.468750
v 0.062500 0.062500 0.531250
v 0.562500 0.312500 0.531250
v 0.562500 0.312500 0.468750
v 0.625000 0.312500 0.468750
v 0.625000 0.312500 0.531250
v 0.000000 0.312500 0.468750
v 0.000000 0.312500 0.531250
v 0.062500 0.312500 0.531250
v 0.062500 0.312500 0.468750
v 0.000000 0.125000 0.468750
v 0.000000 0.125000 0.531250
v 0.500000 0.250000 0.531250
v 0.500000 0.250000 0.468750
v 0.562500 0.250000 0.468750
v 0.562500 0.250000 0.531250
v 0.437500 0.187500 0.531250
v 0.437500 0.187500 0.468750
v 0.500000 0.187500 0.468750
v 0.500000 0.187500 0.531250
v 0.437500 0.125000 0.468750
v 0.437500 0.125000 0.531250
v 0.375000 0.062500 0.468750
v 0.375000 0.062500 0.531250
v 0.375000 0.125000 0.531250
v 0.375000 0.125000 0.468750
v 0.312500 0.000000 0.468750
v 0.312500 0.000000 0.531250
v 0.312500 0.062500 0.531250
v 0.312500 0.062500 0.468750
vn 0.000000 0.000000 -1.000000
vn 0.000000 0.000000 1.000000
vn 0.000000 1.000000 0.000000
vn -1.000000 0.000000 0.000000
vn 1.000000 0.000000 0.000000
vn 0.000000 -1.000000 0.000000
vt 0.578094 0.859344
vt 0.578094 0.843781
vt 0.562531 0.843781
vt 0.562531 0.859344
vt 0.562531 0.859344
vt 0.562531 0.843781
vt 0.578094 0.843781
vt 0.578094 0.859344
vt 0.572273 0.858397
vt 0.572273 0.857424
vt 0.576164 0.857424
vt 0.576164 0.858397
vt 0.573240 0.858397
vt 0.573240 0.857424
vt 0.572268 0.857424
vt 0.572268 0.858397
vt 0.576170 0.858385
vt 0.576170 0.851576
vt 0.575197 0.851576
vt 0.575197 0.858385
vt 0.571301 0.857420
vt 0.571301 0.856447
vt 0.577137 0.856447
vt 0.577137 0.857420
vt 0.572264 0.857418
vt 0.572264 0.855473
vt 0.571291 0.855473
vt 0.571291 0.857418
vt 0.577147 0.857412
vt 0.577147 0.852549
vt 0.576174 0.852549
vt 0.576174 0.857412
vt 0.573246 0.856443
vt 0.573246 0.855471
vt 0.575191 0.855471
vt 0.575191 0.856443
vt 0.569340 0.855467
vt 0.569340 0.854494
vt 0.571285 0.854494
vt 0.571285 0.855467
vt 0.570311 0.855467
vt 0.570311 0.854494
vt 0.569338 0.854494
vt 0.569338 0.855467
vt 0.573240 0.855457
vt 0.573240 0.849621
vt 0.572268 0.849621
vt 0.572268 0.855457
vt 0.576170 0.855463
vt 0.576170 0.852545
vt 0.575197 0.852545
vt 0.575197 0.855463
vt 0.568361 0.854490
vt 0.568361 0.853518
vt 0.569334 0.853518
vt 0.569334 0.854490
vt 0.569334 0.854490
vt 0.569334 0.853518
vt 0.568361 0.853518
vt 0.568361 0.854490
vt 0.567396 0.853514
vt 0.567396 0.852541
vt 0.574205 0.852541
vt 0.574205 0.853514
vt 0.568357 0.853514
vt 0.568357 0.852541
vt 0.567385 0.852541
vt 0.567385 0.853514
vt 0.574217 0.853514
vt 0.574217 0.852541
vt 0.573244 0.852541
vt 0.573244 0.853514
vt 0.576174 0.853514
vt 0.576174 0.852541
vt 0.577147 0.852541
vt 0.577147 0.853514
vt 0.566423 0.852537
vt 0.566423 0.851564
vt 0.575178 0.851564
vt 0.575178 0.852537
vt 0.567381 0.852537
vt 0.567381 0.851564
vt 0.566408 0.851564
vt 0.566408 0.852537
vt 0.575197 0.852537
vt 0.575197 0.851564
vt 0.576170 0.851564
vt 0.576170 0.852537
vt 0.565432 0.851561
vt 0.565432 0.850588
vt 0.566404 0.850588
vt 0.566404 0.851561
vt 0.566404 0.851561
vt 0.566404 0.850588
vt 0.565432 0.850588
vt 0.565432 0.851561
vt 0.573246 0.851561
vt 0.573246 0.850588
vt 0.575191 0.850588
vt 0.575191 0.851561
vt 0.575193 0.851561
vt 0.575193 0.850588
vt 0.574221 0.850588
vt 0.574221 0.851561
vt 0.564455 0.850584
vt 0.564455 0.849611
vt 0.565428 0.849611
vt 0.565428 0.850584
vt 0.565428 0.850573
vt 0.565428 0.843763
vt 0.564455 0.843763
vt 0.564455 0.850573
vt 0.572268 0.850584
vt 0.572268 0.849611
vt 0.573240 0.849611
vt 0.573240 0.850584
vt 0.563478 0.849607
vt 0.563478 0.848635
vt 0.564451 0.848635
vt 0.564451 0.849607
vt 0.564451 0.849600
vt 0.564451 0.844736
vt 0.563478 0.844736
vt 0.563478 0.849600
vt 0.571291 0.849607
vt 0.571291 0.848635
vt 0.572264 0.848635
vt 0.572264 0.849607
vt 0.572264 0.849607
vt 0.572264 0.848635
vt 0.571291 0.848635
vt 0.571291 0.849607
vt 0.562502 0.848631
vt 0.562502 0.847658
vt 0.563475 0.847658
vt 0.563475 0.848631
vt 0.563475 0.848627
vt 0.563475 0.845709
vt 0.562502 0.845709
vt 0.562502 0.848627
vt 0.570314 0.848631
vt 0.570314 0.847658
vt 0.571287 0.847658
vt 0.571287 0.848631
vt 0.571287 0.848631
vt 0.571287 0.847658
vt 0.570314 0.847658
vt 0.570314 0.848631
vt 0.569338 0.847654
vt 0.569338 0.846682
vt 0.570311 0.846682
vt 0.570311 0.847654
vt 0.570311 0.847654
vt 0.570311 0.846682
vt 0.569338 0.846682
vt 0.569338 0.847654
vt 0.562513 0.846678
vt 0.562513 0.845705
vt 0.569323 0.845705
vt 0.569323 0.846678
vt 0.569334 0.846678
vt 0.569334 0.845705
vt 0.568361 0.845705
vt 0.568361 0.846678
vt 0.563486 0.845701
vt 0.563486 0.844728
vt 0.568350 0.844728
vt 0.568350 0.845701
vt 0.568357 0.845701
vt 0.568357 0.844728
vt 0.567385 0.844728
vt 0.567385 0.845701
vt 0.564459 0.844725
vt 0.564459 0.843752
vt 0.567377 0.843752
vt 0.567377 0.844725
vt 0.567381 0.844725
vt 0.567381 0.843752
vt 0.566408 0.843752
vt 0.566408 0.844725
f 1/1/1 2/2/1 3/3/1 4/4/1
f 5/5/2 6/6/2 7/7/2 8/8/2
f 9/9/3 10/10/3 11/11/3 12/12/3
f 9/13/4 13/14/4 14/15/4 10/16/4
f 11/17/5 15/18/5 16/19/5 12/20/5
f 17/21/3 18/22/3 19/23/3 20/24/3
f 17/25/4 21/26/4 22/27/4 18/28/4
f 19/29/5 23/30/5 24/31/5 20/32/5
f 25/33/6 26/34/6 27/35/6 28/36/6
f 29/37/3 30/38/3 22/39/3 21/40/3
f 29/41/4 31/42/4 32/43/4 30/44/4
f 25/45/5 33/46/5 34/47/5 26/48/5
f 27/49/4 35/50/4 36/51/4 28/52/4
f 37/53/3 38/54/3 32/55/3 31/56/3
f 37/57/4 39/58/4 40/59/4 38/60/4
f 41/61/3 42/62/3 43/63/3 44/64/3
f 41/65/4 45/66/4 46/67/4 42/68/4
f 43/69/5 47/70/5 48/71/5 44/72/5
f 49/73/6 50/74/6 24/75/6 23/76/6
f 51/77/3 52/78/3 36/79/3 35/80/3
f 51/81/4 53/82/4 54/83/4 52/84/4
f 55/85/6 56/86/6 16/87/6 15/88/6
f 57/89/3 58/90/3 54/91/3 53/92/3
f 57/93/4 59/94/4 60/95/4 58/96/4
f 61/97/6 62/98/6 63/99/6 64/100/6
f 55/101/5 64/102/5 63/103/5 56/104/5
f 65/105/3 66/106/3 60/107/3 59/108/3
f 65/109/4 67/110/4 68/111/4 66/112/4
f 69/113/6 70/114/6 34/115/6 33/116/6
f 71/117/3 72/118/3 73/119/3 74/120/3
f 71/121/4 75/122/4 76/123/4 72/124/4
f 77/125/6 78/126/6 79/127/6 80/128/6
f 69/129/5 80/130/5 79/131/5 70/132/5
f 81/133/3 82/134/3 83/135/3 84/136/3
f 81/137/4 85/138/4 86/139/4 82/140/4
f 87/141/6 88/142/6 89/143/6 90/144/6
f 77/145/5 90/146/5 89/147/5 78/148/5
f 91/149/6 92/150/6 93/151/6 94/152/6
f 87/153/5 94/154/5 93/155/5 88/156/5
f 86/157/6 85/158/6 95/159/6 96/160/6
f 91/161/5 96/162/5 95/163/5 92/164/5
f 76/165/6 75/166/6 97/167/6 98/168/6
f 99/169/5 98/170/5 97/171/5 100/172/5
f 68/173/6 67/174/6 101/175/6 102/176/6
f 103/177/5 102/178/5 101/179/5 104/180/5
