v 1.000000 1.000000 0.468750
v 1.000000 0.000000 0.468750
v 0.000000 0.000000 0.468750
v 0.000000 1.000000 0.468750
v 0.000000 1.000000 0.531250
v 0.000000 0.000000 0.531250
v 1.000000 0.000000 0.531250
v 1.000000 1.000000 0.531250
v 0.375000 0.875000 0.468750
v 0.375000 0.875000 0.531250
v 0.687500 0.875000 0.531250
v 0.687500 0.875000 0.468750
v 0.375000 0.375000 0.468750
v 0.375000 0.375000 0.531250
v 0.687500 0.500000 0.531250
v 0.687500 0.500000 0.468750
v 0.312500 0.812500 0.468750
v 0.312500 0.812500 0.531250
v 0.875000 0.812500 0.531250
v 0.875000 0.812500 0.468750
v 0.312500 0.750000 0.531250
v 0.312500 0.750000 0.468750
v 0.375000 0.750000 0.468750
v 0.375000 0.750000 0.531250
v 0.312500 0.312500 0.468750
v 0.312500 0.312500 0.531250
v 0.875000 0.250000 0.531250
v 0.875000 0.250000 0.468750
v 0.375000 0.687500 0.531250
v 0.375000 0.687500 0.468750
v 0.625000 0.687500 0.468750
v 0.625000 0.687500 0.531250
v 0.625000 0.625000 0.468750
v 0.625000 0.625000 0.531250
v 0.562500 0.625000 0.468750
v 0.562500 0.625000 0.531250
v 0.937500 0.625000 0.531250
v 0.937500 0.625000 0.468750
v 0.562500 0.562500 0.468750
v 0.562500 0.562500 0.531250
v 0.687500 0.562500 0.531250
v 0.687500 0.562500 0.468750
v 0.750000 0.562500 0.468750
v 0.750000 0.562500 0.531250
v 0.937500 0.312500 0.531250
v 0.937500 0.312500 0.468750
v 0.500000 0.562500 0.468750
v 0.500000 0.562500 0.531250
v 0.500000 0.500000 0.468750
v 0.500000 0.500000 0.531250
v 0.625000 0.500000 0.531250
v 0.625000 0.500000 0.468750
v 0.750000 0.312500 0.468750
v 0.750000 0.312500 0.531250
v 0.437500 0.500000 0.468750
v 0.437500 0.500000 0.531250
v 0.437500 0.437500 0.468750
v 0.437500 0.437500 0.531250
v 0.562500 0.437500 0.531250
v 0.562500 0.437500 0.468750
v 0.625000 0.437500 0.468750
v 0.625000 0.437500 0.531250
v 0.375000 0.437500 0.468750
v 0.375000 0.437500 0.531250
v 0.500000 0.375000 0.531250
v 0.500000 0.375000 0.468750
v 0.562500 0.375000 0.468750
v 0.562500 0.375000 0.531250
v 0.312500 0.375000 0.468750
v 0.312500 0.375000 0.531250
v 0.437500 0.312500 0.531250
v 0.437500 0.312500 0.468750
v 0.500000 0.312500 0.531250
v 0.500000 0.312500 0.468750
v 0.250000 0.312500 0.468750
v 0.250000 0.312500 0.531250
v 0.250000 0.250000 0.468750
v 0.250000 0.250000 0.531250
v 0.375000 0.250000 0.531250
v 0.375000 0.250000 0.468750
v 0.437500 0.250000 0.531250
v 0.437500 0.250000 0.468750
v 0.812500 0.312500 0.468750
v 0.812500 0.250000 0.468750
v 0.812500 0.250000 0.531250
v 0.812500 0.312500 0.531250
v 0.187500 0.250000 0.468750
v 0.187500 0.250000 0.531250
v 0.187500 0.187500 0.468750
v 0.187500 0.187500 0.531250
v 0.312500 0.187500 0.531250
v 0.312500 0.187500 0.468750
v 0.375000 0.187500 0.468750
v 0.375000 0.187500 0.531250
v 0.125000 0.187500 0.468750
v 0.125000 0.187500 0.531250
v 0.125000 0.062500 0.468750
v 0.125000 0.062500 0.531250
v 0.250000 0.125000 0.531250
v 0.250000 0.125000 0.468750
v 0.312500 0.125000 0.468750
v 0.312500 0.125000 0.531250
v 0.250000 0.062500 0.468750
v 0.250000 0.062500 0.531250
vn 0.000000 0.000000 -1.000000
vn 0.000000 0.000000 1.000000
vn 0.000000 1.000000 0.000000
vn -1.000000 0.000000 0.000000
vn 1.000000 0.000000 0.000000
vn 0.000000 -1.000000 0.000000
vt 0.578094 0.656219
vt 0.578094 0.640656
vt 0.562531 0.640656
vt 0.562531 0.656219
vt 0.562531 0.656219
vt 0.562531 0.640656
vt 0.578094 0.640656
vt 0.578094 0.656219
vt 0.568369 0.654295
vt 0.568369 0.653322
vt 0.573233 0.653322
vt 0.573233 0.654295
vt 0.569334 0.654282
vt 0.569334 0.646500
vt 0.568361 0.646500
vt 0.568361 0.654282
vt 0.573240 0.654285
vt 0.573240 0.648449
vt 0.572268 0.648449
vt 0.572268 0.654285
vt 0.567400 0.653318
vt 0.567400 0.652346
vt 0.576155 0.652346
vt 0.576155 0.653318
vt 0.567385 0.653318
vt 0.567385 0.652346
vt 0.568357 0.652346
vt 0.568357 0.653318
vt 0.568357 0.653305
vt 0.568357 0.645523
vt 0.567385 0.645523
vt 0.567385 0.653305
vt 0.576170 0.653303
vt 0.576170 0.644548
vt 0.575197 0.644548
vt 0.575197 0.653303
vt 0.568367 0.652342
vt 0.568367 0.651369
vt 0.572258 0.651369
vt 0.572258 0.652342
vt 0.573240 0.651365
vt 0.573240 0.650393
vt 0.572268 0.650393
vt 0.572268 0.651365
vt 0.571301 0.650389
vt 0.571301 0.649416
vt 0.577137 0.649416
vt 0.577137 0.650389
vt 0.572264 0.650389
vt 0.572264 0.649416
vt 0.571291 0.649416
vt 0.571291 0.650389
vt 0.573244 0.650389
vt 0.573244 0.649416
vt 0.574217 0.649416
vt 0.574217 0.650389
vt 0.577147 0.650381
vt 0.577147 0.645517
vt 0.576174 0.645517
vt 0.576174 0.650381
vt 0.570314 0.649412
vt 0.570314 0.648439
vt 0.571287 0.648439
vt 0.571287 0.649412
vt 0.571287 0.649412
vt 0.571287 0.648439
vt 0.570314 0.648439
vt 0.570314 0.649412
vt 0.572268 0.649412
vt 0.572268 0.648439
vt 0.573240 0.648439
vt 0.573240 0.649412
vt 0.575193 0.649406
vt 0.575193 0.645515
vt 0.574221 0.645515
vt 0.574221 0.649406
vt 0.569338 0.648436
vt 0.569338 0.647463
vt 0.570311 0.647463
vt 0.570311 0.648436
vt 0.570311 0.648436
vt 0.570311 0.647463
vt 0.569338 0.647463
vt 0.569338 0.648436
vt 0.571291 0.648436
vt 0.571291 0.647463
vt 0.572264 0.647463
vt 0.572264 0.648436
vt 0.572264 0.648436
vt 0.572264 0.647463
vt 0.571291 0.647463
vt 0.571291 0.648436
vt 0.568361 0.647459
vt 0.568361 0.646486
vt 0.569334 0.646486
vt 0.569334 0.647459
vt 0.570314 0.647459
vt 0.570314 0.646486
vt 0.571287 0.646486
vt 0.571287 0.647459
vt 0.571287 0.647459
vt 0.571287 0.646486
vt 0.570314 0.646486
vt 0.570314 0.647459
vt 0.567385 0.646482
vt 0.567385 0.645510
vt 0.568357 0.645510
vt 0.568357 0.646482
vt 0.569351 0.646482
vt 0.569351 0.645510
vt 0.577133 0.645510
vt 0.577133 0.646482
vt 0.570311 0.646482
vt 0.570311 0.645510
vt 0.569338 0.645510
vt 0.569338 0.646482
vt 0.566408 0.645506
vt 0.566408 0.644533
vt 0.567381 0.644533
vt 0.567381 0.645506
vt 0.567381 0.645506
vt 0.567381 0.644533
vt 0.566408 0.644533
vt 0.566408 0.645506
vt 0.568375 0.645506
vt 0.568375 0.644533
vt 0.576157 0.644533
vt 0.576157 0.645506
vt 0.569334 0.645506
vt 0.569334 0.644533
vt 0.568361 0.644533
vt 0.568361 0.645506
vt 0.576170 0.645506
vt 0.576170 0.644533
vt 0.575197 0.644533
vt 0.575197 0.645506
vt 0.565432 0.644529
vt 0.565432 0.643557
vt 0.566404 0.643557
vt 0.566404 0.644529
vt 0.566404 0.644529
vt 0.566404 0.643557
vt 0.565432 0.643557
vt 0.565432 0.644529
vt 0.567385 0.644529
vt 0.567385 0.643557
vt 0.568357 0.643557
vt 0.568357 0.644529
vt 0.568357 0.644529
vt 0.568357 0.643557
vt 0.567385 0.643557
vt 0.567385 0.644529
vt 0.564455 0.643553
vt 0.564455 0.642580
vt 0.565428 0.642580
vt 0.565428 0.643553
vt 0.565428 0.643551
vt 0.565428 0.641605
vt 0.564455 0.641605
vt 0.564455 0.643551
vt 0.566408 0.643553
vt 0.566408 0.642580
vt 0.567381 0.642580
vt 0.567381 0.643553
vt 0.567381 0.643553
vt 0.567381 0.642580
vt 0.566408 0.642580
vt 0.566408 0.643553
vt 0.564457 0.642576
vt 0.564457 0.641603
vt 0.566402 0.641603
vt 0.566402 0.642576
vt 0.566404 0.642576
vt 0.566404 0.641603
vt 0.565432 0.641603
vt 0.565432 0.642576
f 1/1/1 2/2/1 3/3/1 4/4/1
f 5/5/2 6/6/2 7/7/2 8/8/2
f 9/9/3 10/10/3 11/11/3 12/12/3
f 9/13/4 13/14/4 14/15/4 10/16/4
f 11/17/5 15/18/5 16/19/5 12/20/5
f 17/21/3 18/22/3 19/23/3 20/24/3
f 21/25/6 22/26/6 23/27/6 24/28/6
f 17/29/4 25/30/4 26/31/4 18/32/4
f 19/33/5 27/34/5 28/35/5 20/36/5
f 29/37/6 30/38/6 31/39/6 32/40/6
f 31/41/4 33/42/4 34/43/4 32/44/4
f 35/45/3 36/46/3 37/47/3 38/48/3
f 35/49/4 39/50/4 40/51/4 36/52/4
f 41/53/6 42/54/6 43/55/6 44/56/6
f 37/57/5 45/58/5 46/59/5 38/60/5
f 47/61/3 48/62/3 40/63/3 39/64/3
f 47/65/4 49/66/4 50/67/4 48/68/4
f 51/69/6 52/70/6 16/71/6 15/72/6
f 43/73/4 53/74/4 54/75/4 44/76/4
f 55/77/3 56/78/3 50/79/3 49/80/3
f 55/81/4 57/82/4 58/83/4 56/84/4
f 59/85/6 60/86/6 61/87/6 62/88/6
f 51/89/5 62/90/5 61/91/5 52/92/5
f 63/93/3 64/94/3 58/95/3 57/96/3
f 65/97/6 66/98/6 67/99/6 68/100/6
f 59/101/5 68/102/5 67/103/5 60/104/5
f 69/105/3 70/106/3 14/107/3 13/108/3
f 71/109/6 72/110/6 46/111/6 45/112/6
f 65/113/5 73/114/5 74/115/5 66/116/5
f 75/117/3 76/118/3 26/119/3 25/120/3
f 75/121/4 77/122/4 78/123/4 76/124/4
f 79/125/6 80/126/6 28/127/6 27/128/6
f 71/129/5 81/130/5 82/131/5 72/132/5
f 83/133/4 84/134/4 85/135/4 86/136/4
f 87/137/3 88/138/3 78/139/3 77/140/3
f 87/141/4 89/142/4 90/143/4 88/144/4
f 91/145/6 92/146/6 93/147/6 94/148/6
f 79/149/5 94/150/5 93/151/5 80/152/5
f 95/153/3 96/154/3 90/155/3 89/156/3
f 95/157/4 97/158/4 98/159/4 96/160/4
f 99/161/6 100/162/6 101/163/6 102/164/6
f 91/165/5 102/166/5 101/167/5 92/168/5
f 98/169/6 97/170/6 103/171/6 104/172/6
f 99/173/5 104/174/5 103/175/5 100/176/5
