v 1.000000 1.000000 0.468750
v 1.000000 0.000000 0.468750
v 0.000000 0.000000 0.468750
v 0.000000 1.000000 0.468750
v 0.000000 1.000000 0.531250
v 0.000000 0.000000 0.531250
v 1.000000 0.000000 0.531250
v 1.000000 1.000000 0.531250
v 0.312500 0.812500 0.468750
v 0.312500 0.812500 0.531250
v 0.687500 0.812500 0.531250
v 0.687500 0.812500 0.468750
v 0.312500 0.750000 0.468750
v 0.312500 0.750000 0.531250
v 0.687500 0.750000 0.531250
v 0.687500 0.750000 0.468750
v 0.250000 0.750000 0.468750
v 0.250000 0.750000 0.531250
v 0.750000 0.750000 0.531250
v 0.750000 0.750000 0.468750
v 0.250000 0.250000 0.468750
v 0.250000 0.250000 0.531250
v 0.750000 0.250000 0.531250
v 0.750000 0.250000 0.468750
v 0.187500 0.687500 0.468750
v 0.187500 0.687500 0.531250
v 0.812500 0.687500 0.531250
v 0.812500 0.687500 0.468750
v 0.187500 0.312500 0.468750
v 0.187500 0.312500 0.531250
v 0.812500 0.312500 0.531250
v 0.812500 0.312500 0.468750
v 0.375000 0.312500 0.531250
v 0.375000 0.250000 0.531250
v 0.375000 0.250000 0.468750
v 0.375000 0.312500 0.468750
v 0.625000 0.312500 0.468750
v 0.625000 0.250000 0.468750
v 0.625000 0.250000 0.531250
v 0.625000 0.312500 0.531250
vn 0.000000 0.000000 -1.000000
vn 0.000000 0.000000 1.000000
vn 0.000000 1.000000 0.000000
vn -1.000000 0.000000 0.000000
vn 1.000000 0.000000 0.000000
vn 0.000000 -1.000000 0.000000
vt 0.578094 0.718719
vt 0.578094 0.703156
vt 0.562531 0.703156
vt 0.562531 0.718719
vt 0.562531 0.718719
vt 0.562531 0.703156
vt 0.578094 0.703156
vt 0.578094 0.718719
vt 0.567394 0.715818
vt 0.567394 0.714846
vt 0.573231 0.714846
vt 0.573231 0.715818
vt 0.568357 0.715818
vt 0.568357 0.714846
vt 0.567385 0.714846
vt 0.567385 0.715818
vt 0.573240 0.715818
vt 0.573240 0.714846
vt 0.572268 0.714846
vt 0.572268 0.715818
vt 0.566422 0.714842
vt 0.566422 0.713869
vt 0.574203 0.713869
vt 0.574203 0.714842
vt 0.567381 0.714828
vt 0.567381 0.707047
vt 0.566408 0.707047
vt 0.566408 0.714828
vt 0.574217 0.714828
vt 0.574217 0.707047
vt 0.573244 0.707047
vt 0.573244 0.714828
vt 0.565449 0.713865
vt 0.565449 0.712893
vt 0.575176 0.712893
vt 0.575176 0.713865
vt 0.566404 0.713856
vt 0.566404 0.708019
vt 0.565432 0.708019
vt 0.565432 0.713856
vt 0.575193 0.713856
vt 0.575193 0.708019
vt 0.574221 0.708019
vt 0.574221 0.713856
vt 0.565449 0.708982
vt 0.565449 0.708010
vt 0.575176 0.708010
vt 0.575176 0.708982
vt 0.566422 0.708006
vt 0.566422 0.707033
vt 0.574203 0.707033
vt 0.574203 0.708006
vt 0.568357 0.708006
vt 0.568357 0.707033
vt 0.567385 0.707033
vt 0.567385 0.708006
vt 0.573240 0.708006
vt 0.573240 0.707033
vt 0.572268 0.707033
vt 0.572268 0.708006
f 1/1/1 2/2/1 3/3/1 4/4/1
f 5/5/2 6/6/2 7/7/2 8/8/2
f 9/9/3 10/10/3 11/11/3 12/12/3
f 9/13/4 13/14/4 14/15/4 10/16/4
f 11/17/5 15/18/5 16/19/5 12/20/5
f 17/21/3 18/22/3 19/23/3 20/24/3
f 17/25/4 21/26/4 22/27/4 18/28/4
f 19/29/5 23/30/5 24/31/5 20/32/5
f 25/33/3 26/34/3 27/35/3 28/36/3
f 25/37/4 29/38/4 30/39/4 26/40/4
f 27/41/5 31/42/5 32/43/5 28/44/5
f 30/45/6 29/46/6 32/47/6 31/48/6
f 22/49/6 21/50/6 24/51/6 23/52/6
f 33/53/5 34/54/5 35/55/5 36/56/5
f 37/57/4 38/58/4 39/59/4 40/60/4
