v 1.000000 1.000000 0.468750
v 1.000000 0.000000 0.468750
v 0.000000 0.000000 0.468750
v 0.000000 1.000000 0.468750
v 0.000000 1.000000 0.531250
v 0.000000 0.000000 0.531250
v 1.000000 0.000000 0.531250
v 1.000000 1.000000 0.531250
v 0.562500 0.937500 0.468750
v 0.562500 0.937500 0.531250
v 0.687500 0.937500 0.531250
v 0.687500 0.937500 0.468750
v 0.562500 0.875000 0.468750
v 0.562500 0.875000 0.531250
v 0.687500 0.187500 0.531250
v 0.687500 0.187500 0.468750
v 0.437500 0.875000 0.468750
v 0.437500 0.875000 0.531250
v 0.750000 0.875000 0.531250
v 0.750000 0.875000 0.468750
v 0.437500 0.812500 0.468750
v 0.437500 0.812500 0.531250
v 0.750000 0.250000 0.531250
v 0.750000 0.250000 0.468750
v 0.312500 0.812500 0.468750
v 0.312500 0.812500 0.531250
v 0.812500 0.812500 0.531250
v 0.812500 0.812500 0.468750
v 0.312500 0.062500 0.468750
v 0.312500 0.062500 0.531250
v 0.812500 0.312500 0.531250
v 0.812500 0.312500 0.468750
v 0.187500 0.750000 0.468750
v 0.187500 0.750000 0.531250
v 0.875000 0.750000 0.531250
v 0.875000 0.750000 0.468750
v 0.187500 0.187500 0.468750
v 0.187500 0.187500 0.531250
v 0.875000 0.375000 0.531250
v 0.875000 0.375000 0.468750
v 0.125000 0.687500 0.468750
v 0.125000 0.687500 0.531250
v 0.937500 0.687500 0.531250
v 0.937500 0.687500 0.468750
v 0.125000 0.250000 0.468750
v 0.125000 0.250000 0.531250
v 0.875000 0.625000 0.531250
v 0.875000 0.625000 0.468750
v 0.937500 0.625000 0.468750
v 0.937500 0.625000 0.531250
v 0.062500 0.625000 0.468750
v 0.062500 0.625000 0.531250
v 0.125000 0.625000 0.531250
v 0.125000 0.625000 0.468750
v 0.062500 0.562500 0.531250
v 0.062500 0.562500 0.468750
v 0.875000 0.562500 0.468750
v 0.875000 0.562500 0.531250
v 0.062500 0.312500 0.468750
v 0.062500 0.312500 0.531250
v 0.125000 0.500000 0.531250
v 0.125000 0.500000 0.468750
v 0.187500 0.500000 0.468750
v 0.187500 0.500000 0.531250
v 0.750000 0.500000 0.468750
v 0.750000 0.500000 0.531250
v 0.812500 0.500000 0.531250
v 0.812500 0.500000 0.468750
v 0.125000 0.437500 0.468750
v 0.125000 0.437500 0.531250
v 0.875000 0.437500 0.531250
v 0.875000 0.437500 0.468750
v 0.812500 0.375000 0.531250
v 0.812500 0.375000 0.468750
v 0.062500 0.375000 0.468750
v 0.062500 0.375000 0.531250
v 0.125000 0.375000 0.531250
v 0.125000 0.375000 0.468750
v 0.250000 0.125000 0.531250
v 0.250000 0.125000 0.468750
v 0.562500 0.125000 0.468750
v 0.562500 0.125000 0.531250
v 0.250000 0.187500 0.468750
v 0.250000 0.187500 0.531250
v 0.562500 0.187500 0.531250
v 0.562500 0.187500 0.468750
v 0.437500 0.062500 0.468750
v 0.437500 0.062500 0.531250
v 0.437500 0.125000 0.531250
v 0.437500 0.125000 0.468750
vn 0.000000 0.000000 -1.000000
vn 0.000000 0.000000 1.000000
vn 0.000000 1.000000 0.000000
vn -1.000000 0.000000 0.000000
vn 1.000000 0.000000 0.000000
vn 0.000000 -1.000000 0.000000
vt 0.578094 0.640594
vt 0.578094 0.625031
vt 0.562531 0.625031
vt 0.562531 0.640594
vt 0.562531 0.640594
vt 0.562531 0.625031
vt 0.578094 0.625031
vt 0.578094 0.640594
vt 0.571293 0.639647
vt 0.571293 0.638674
vt 0.573238 0.638674
vt 0.573238 0.639647
vt 0.572264 0.639647
vt 0.572264 0.638674
vt 0.571291 0.638674
vt 0.571291 0.639647
vt 0.573240 0.639626
vt 0.573240 0.627953
vt 0.572268 0.627953
vt 0.572268 0.639626
vt 0.569345 0.638670
vt 0.569345 0.637697
vt 0.574209 0.637697
vt 0.574209 0.638670
vt 0.570311 0.638670
vt 0.570311 0.637697
vt 0.569338 0.637697
vt 0.569338 0.638670
vt 0.574217 0.638653
vt 0.574217 0.628925
vt 0.573244 0.628925
vt 0.573244 0.638653
vt 0.567398 0.637693
vt 0.567398 0.636721
vt 0.575180 0.636721
vt 0.575180 0.637693
vt 0.568357 0.637672
vt 0.568357 0.625999
vt 0.567385 0.625999
vt 0.567385 0.637672
vt 0.575193 0.637680
vt 0.575193 0.629898
vt 0.574221 0.629898
vt 0.574221 0.637680
vt 0.565451 0.636717
vt 0.565451 0.635744
vt 0.576151 0.635744
vt 0.576151 0.636717
vt 0.566404 0.636702
vt 0.566404 0.627947
vt 0.565432 0.627947
vt 0.565432 0.636702
vt 0.576170 0.636707
vt 0.576170 0.630871
vt 0.575197 0.630871
vt 0.575197 0.636707
vt 0.564478 0.635740
vt 0.564478 0.634768
vt 0.577124 0.634768
vt 0.577124 0.635740
vt 0.565428 0.635729
vt 0.565428 0.628920
vt 0.564455 0.628920
vt 0.564455 0.635729
vt 0.576174 0.635740
vt 0.576174 0.634768
vt 0.577147 0.634768
vt 0.577147 0.635740
vt 0.577147 0.635740
vt 0.577147 0.634768
vt 0.576174 0.634768
vt 0.576174 0.635740
vt 0.563478 0.634764
vt 0.563478 0.633791
vt 0.564451 0.633791
vt 0.564451 0.634764
vt 0.563501 0.634764
vt 0.563501 0.633791
vt 0.576147 0.633791
vt 0.576147 0.634764
vt 0.564451 0.634756
vt 0.564451 0.629892
vt 0.563478 0.629892
vt 0.563478 0.634756
vt 0.564455 0.633787
vt 0.564455 0.632814
vt 0.565428 0.632814
vt 0.565428 0.633787
vt 0.574221 0.632811
vt 0.574221 0.631838
vt 0.575193 0.631838
vt 0.575193 0.632811
vt 0.564476 0.631834
vt 0.564476 0.630861
vt 0.576149 0.630861
vt 0.576149 0.631834
vt 0.575197 0.631834
vt 0.575197 0.630861
vt 0.576170 0.630861
vt 0.576170 0.631834
vt 0.563478 0.630857
vt 0.563478 0.629885
vt 0.564451 0.629885
vt 0.564451 0.630857
vt 0.563499 0.630857
vt 0.563499 0.629885
vt 0.575172 0.629885
vt 0.575172 0.630857
vt 0.564472 0.629881
vt 0.564472 0.628908
vt 0.574200 0.628908
vt 0.574200 0.629881
vt 0.565445 0.628904
vt 0.565445 0.627932
vt 0.573227 0.627932
vt 0.573227 0.628904
vt 0.566416 0.627928
vt 0.566416 0.626955
vt 0.571280 0.626955
vt 0.571280 0.627928
vt 0.567381 0.627928
vt 0.567381 0.626955
vt 0.566408 0.626955
vt 0.566408 0.627928
vt 0.571287 0.627928
vt 0.571287 0.626955
vt 0.570314 0.626955
vt 0.570314 0.627928
vt 0.567387 0.626951
vt 0.567387 0.625978
vt 0.569332 0.625978
vt 0.569332 0.626951
vt 0.569334 0.626951
vt 0.569334 0.625978
vt 0.568361 0.625978
vt 0.568361 0.626951
f 1/1/1 2/2/1 3/3/1 4/4/1
f 5/5/2 6/6/2 7/7/2 8/8/2
f 9/9/3 10/10/3 11/11/3 12/12/3
f 9/13/4 13/14/4 14/15/4 10/16/4
f 11/17/5 15/18/5 16/19/5 12/20/5
f 17/21/3 18/22/3 19/23/3 20/24/3
f 17/25/4 21/26/4 22/27/4 18/28/4
f 19/29/5 23/30/5 24/31/5 20/32/5
f 25/33/3 26/34/3 27/35/3 28/36/3
f 25/37/4 29/38/4 30/39/4 26/40/4
f 27/41/5 31/42/5 32/43/5 28/44/5
f 33/45/3 34/46/3 35/47/3 36/48/3
f 33/49/4 37/50/4 38/51/4 34/52/4
f 35/53/5 39/54/5 40/55/5 36/56/5
f 41/57/3 42/58/3 43/59/3 44/60/3
f 41/61/4 45/62/4 46/63/4 42/64/4
f 47/65/6 48/66/6 49/67/6 50/68/6
f 43/69/5 50/70/5 49/71/5 44/72/5
f 51/73/3 52/74/3 53/75/3 54/76/3
f 55/77/6 56/78/6 57/79/6 58/80/6
f 51/81/4 59/82/4 60/83/4 52/84/4
f 61/85/6 62/86/6 63/87/6 64/88/6
f 65/89/3 66/90/3 67/91/3 68/92/3
f 69/93/3 70/94/3 71/95/3 72/96/3
f 73/97/6 74/98/6 40/99/6 39/100/6
f 75/101/3 76/102/3 77/103/3 78/104/3
f 60/105/6 59/106/6 32/107/6 31/108/6
f 46/109/6 45/110/6 24/111/6 23/112/6
f 38/113/6 37/114/6 16/115/6 15/116/6
f 79/117/6 80/118/6 81/119/6 82/120/6
f 83/121/4 80/122/4 79/123/4 84/124/4
f 85/125/5 82/126/5 81/127/5 86/128/5
f 30/129/6 29/130/6 87/131/6 88/132/6
f 89/133/5 88/134/5 87/135/5 90/136/5
