v 1.000000 1.000000 0.468750
v 1.000000 0.000000 0.468750
v 0.000000 0.000000 0.468750
v 0.000000 1.000000 0.468750
v 0.000000 1.000000 0.531250
v 0.000000 0.000000 0.531250
v 1.000000 0.000000 0.531250
v 1.000000 1.000000 0.531250
v 0.437500 0.687500 0.468750
v 0.437500 0.687500 0.531250
v 0.500000 0.687500 0.531250
v 0.500000 0.687500 0.468750
v 0.437500 0.375000 0.468750
v 0.437500 0.375000 0.531250
v 0.500000 0.375000 0.531250
v 0.500000 0.375000 0.468750
v 0.125000 0.625000 0.468750
v 0.125000 0.625000 0.531250
v 0.812500 0.625000 0.531250
v 0.812500 0.625000 0.468750
v 0.125000 0.500000 0.468750
v 0.125000 0.500000 0.531250
v 0.187500 0.625000 0.531250
v 0.187500 0.375000 0.531250
v 0.187500 0.375000 0.468750
v 0.187500 0.625000 0.468750
v 0.250000 0.625000 0.468750
v 0.250000 0.375000 0.468750
v 0.250000 0.375000 0.531250
v 0.250000 0.625000 0.531250
v 0.312500 0.625000 0.531250
v 0.312500 0.562500 0.531250
v 0.312500 0.562500 0.468750
v 0.312500 0.625000 0.468750
v 0.562500 0.625000 0.468750
v 0.562500 0.375000 0.468750
v 0.562500 0.375000 0.531250
v 0.562500 0.625000 0.531250
v 0.625000 0.625000 0.531250
v 0.625000 0.375000 0.531250
v 0.625000 0.375000 0.468750
v 0.625000 0.625000 0.468750
v 0.750000 0.625000 0.468750
v 0.750000 0.562500 0.468750
v 0.750000 0.562500 0.531250
v 0.750000 0.625000 0.531250
v 0.812500 0.375000 0.531250
v 0.812500 0.375000 0.468750
v 0.375000 0.562500 0.531250
v 0.375000 0.375000 0.531250
v 0.375000 0.375000 0.468750
v 0.375000 0.562500 0.468750
v 0.687500 0.562500 0.468750
v 0.687500 0.375000 0.468750
v 0.687500 0.375000 0.531250
v 0.687500 0.562500 0.531250
v 0.062500 0.500000 0.468750
v 0.062500 0.500000 0.531250
v 0.937500 0.500000 0.531250
v 0.937500 0.500000 0.468750
v 0.062500 0.375000 0.468750
v 0.062500 0.375000 0.531250
v 0.875000 0.500000 0.468750
v 0.875000 0.375000 0.468750
v 0.875000 0.375000 0.531250
v 0.875000 0.500000 0.531250
v 0.937500 0.375000 0.531250
v 0.937500 0.375000 0.468750
vn 0.000000 0.000000 -1.000000
vn 0.000000 0.000000 1.000000
vn 0.000000 1.000000 0.000000
vn -1.000000 0.000000 0.000000
vn 1.000000 0.000000 0.000000
vn 0.000000 -1.000000 0.000000
vt 0.578094 0.812469
vt 0.578094 0.796906
vt 0.562531 0.796906
vt 0.562531 0.812469
vt 0.562531 0.812469
vt 0.562531 0.796906
vt 0.578094 0.796906
vt 0.578094 0.812469
vt 0.569338 0.807615
vt 0.569338 0.806643
vt 0.570311 0.806643
vt 0.570311 0.807615
vt 0.570311 0.807608
vt 0.570311 0.802744
vt 0.569338 0.802744
vt 0.569338 0.807608
vt 0.570311 0.807608
vt 0.570311 0.802744
vt 0.569338 0.802744
vt 0.569338 0.807608
vt 0.564474 0.806639
vt 0.564474 0.805666
vt 0.575174 0.805666
vt 0.575174 0.806639
vt 0.565428 0.806637
vt 0.565428 0.804691
vt 0.564455 0.804691
vt 0.564455 0.806637
vt 0.565428 0.806633
vt 0.565428 0.802742
vt 0.564455 0.802742
vt 0.564455 0.806633
vt 0.567381 0.806633
vt 0.567381 0.802742
vt 0.566408 0.802742
vt 0.566408 0.806633
vt 0.567381 0.806639
vt 0.567381 0.805666
vt 0.566408 0.805666
vt 0.566408 0.806639
vt 0.572264 0.806633
vt 0.572264 0.802742
vt 0.571291 0.802742
vt 0.571291 0.806633
vt 0.572264 0.806633
vt 0.572264 0.802742
vt 0.571291 0.802742
vt 0.571291 0.806633
vt 0.575193 0.806639
vt 0.575193 0.805666
vt 0.574221 0.805666
vt 0.574221 0.806639
vt 0.575193 0.806633
vt 0.575193 0.802742
vt 0.574221 0.802742
vt 0.574221 0.806633
vt 0.567396 0.805662
vt 0.567396 0.804689
vt 0.574205 0.804689
vt 0.574205 0.805662
vt 0.568357 0.805658
vt 0.568357 0.802740
vt 0.567385 0.802740
vt 0.567385 0.805658
vt 0.574217 0.805658
vt 0.574217 0.802740
vt 0.573244 0.802740
vt 0.573244 0.805658
vt 0.563503 0.804686
vt 0.563503 0.803713
vt 0.577122 0.803713
vt 0.577122 0.804686
vt 0.564451 0.804684
vt 0.564451 0.802738
vt 0.563478 0.802738
vt 0.563478 0.804684
vt 0.577147 0.804684
vt 0.577147 0.802738
vt 0.576174 0.802738
vt 0.576174 0.804684
vt 0.577147 0.804684
vt 0.577147 0.802738
vt 0.576174 0.802738
vt 0.576174 0.804684
vt 0.563503 0.803709
vt 0.563503 0.802736
vt 0.577122 0.802736
vt 0.577122 0.803709
f 1/1/1 2/2/1 3/3/1 4/4/1
f 5/5/2 6/6/2 7/7/2 8/8/2
f 9/9/3 10/10/3 11/11/3 12/12/3
f 9/13/4 13/14/4 14/15/4 10/16/4
f 11/17/5 15/18/5 16/19/5 12/20/5
f 17/21/3 18/22/3 19/23/3 20/24/3
f 17/25/4 21/26/4 22/27/4 18/28/4
f 23/29/5 24/30/5 25/31/5 26/32/5
f 27/33/4 28/34/4 29/35/4 30/36/4
f 31/37/5 32/38/5 33/39/5 34/40/5
f 35/41/4 36/42/4 37/43/4 38/44/4
f 39/45/5 40/46/5 41/47/5 42/48/5
f 43/49/4 44/50/4 45/51/4 46/52/4
f 19/53/5 47/54/5 48/55/5 20/56/5
f 33/57/3 32/58/3 45/59/3 44/60/3
f 49/61/5 50/62/5 51/63/5 52/64/5
f 53/65/4 54/66/4 55/67/4 56/68/4
f 57/69/3 58/70/3 59/71/3 60/72/3
f 57/73/4 61/74/4 62/75/4 58/76/4
f 63/77/4 64/78/4 65/79/4 66/80/4
f 59/81/5 67/82/5 68/83/5 60/84/5
f 62/85/6 61/86/6 68/87/6 67/88/6
