v 1.000000 1.000000 0.468750
v 1.000000 0.000000 0.468750
v 0.000000 0.000000 0.468750
v 0.000000 1.000000 0.468750
v 0.000000 1.000000 0.531250
v 0.000000 0.000000 0.531250
v 1.000000 0.000000 0.531250
v 1.000000 1.000000 0.531250
v 0.500000 0.937500 0.468750
v 0.500000 0.937500 0.531250
v 0.562500 0.937500 0.531250
v 0.562500 0.937500 0.468750
v 0.500000 0.875000 0.468750
v 0.500000 0.875000 0.531250
v 0.562500 0.875000 0.531250
v 0.562500 0.875000 0.468750
v 0.375000 0.875000 0.468750
v 0.375000 0.875000 0.531250
v 0.687500 0.875000 0.531250
v 0.687500 0.875000 0.468750
v 0.375000 0.062500 0.468750
v 0.375000 0.062500 0.531250
v 0.687500 0.062500 0.531250
v 0.687500 0.062500 0.468750
v 0.312500 0.812500 0.468750
v 0.312500 0.812500 0.531250
v 0.750000 0.812500 0.531250
v 0.750000 0.812500 0.468750
v 0.312500 0.125000 0.468750
v 0.312500 0.125000 0.531250
v 0.750000 0.125000 0.531250
v 0.750000 0.125000 0.468750
v 0.437500 0.000000 0.531250
v 0.437500 0.000000 0.468750
v 0.625000 0.000000 0.468750
v 0.625000 0.000000 0.531250
v 0.437500 0.062500 0.468750
v 0.437500 0.062500 0.531250
v 0.625000 0.062500 0.531250
v 0.625000 0.062500 0.468750
vn 0.000000 0.000000 -1.000000
vn 0.000000 0.000000 1.000000
vn 0.000000 1.000000 0.000000
vn -1.000000 0.000000 0.000000
vn 1.000000 0.000000 0.000000
vn 0.000000 -1.000000 0.000000
vt 0.578094 0.546844
vt 0.578094 0.531281
vt 0.562531 0.531281
vt 0.562531 0.546844
vt 0.562531 0.546844
vt 0.562531 0.531281
vt 0.578094 0.531281
vt 0.578094 0.546844
vt 0.570314 0.545897
vt 0.570314 0.544924
vt 0.571287 0.544924
vt 0.571287 0.545897
vt 0.571287 0.545897
vt 0.571287 0.544924
vt 0.570314 0.544924
vt 0.570314 0.545897
vt 0.571287 0.545897
vt 0.571287 0.544924
vt 0.570314 0.544924
vt 0.570314 0.545897
vt 0.568369 0.544920
vt 0.568369 0.543947
vt 0.573233 0.543947
vt 0.573233 0.544920
vt 0.569334 0.544897
vt 0.569334 0.532251
vt 0.568361 0.532251
vt 0.568361 0.544897
vt 0.573240 0.544897
vt 0.573240 0.532251
vt 0.572268 0.532251
vt 0.572268 0.544897
vt 0.567396 0.543943
vt 0.567396 0.542971
vt 0.574205 0.542971
vt 0.574205 0.543943
vt 0.568357 0.543924
vt 0.568357 0.533224
vt 0.567385 0.533224
vt 0.567385 0.543924
vt 0.574217 0.543924
vt 0.574217 0.533224
vt 0.573244 0.533224
vt 0.573244 0.543924
vt 0.567396 0.534178
vt 0.567396 0.533205
vt 0.574205 0.533205
vt 0.574205 0.534178
vt 0.568369 0.533201
vt 0.568369 0.532228
vt 0.573233 0.532228
vt 0.573233 0.533201
vt 0.569342 0.532225
vt 0.569342 0.531252
vt 0.572260 0.531252
vt 0.572260 0.532225
vt 0.570311 0.532225
vt 0.570311 0.531252
vt 0.569338 0.531252
vt 0.569338 0.532225
vt 0.572264 0.532225
vt 0.572264 0.531252
vt 0.571291 0.531252
vt 0.571291 0.532225
f 1/1/1 2/2/1 3/3/1 4/4/1
f 5/5/2 6/6/2 7/7/2 8/8/2
f 9/9/3 10/10/3 11/11/3 12/12/3
f 9/13/4 13/14/4 14/15/4 10/16/4
f 11/17/5 15/18/5 16/19/5 12/20/5
f 17/21/3 18/22/3 19/23/3 20/24/3
f 17/25/4 21/26/4 22/27/4 18/28/4
f 19/29/5 23/30/5 24/31/5 20/32/5
f 25/33/3 26/34/3 27/35/3 28/36/3
f 25/37/4 29/38/4 30/39/4 26/40/4
f 27/41/5 31/42/5 32/43/5 28/44/5
f 30/45/6 29/46/6 32/47/6 31/48/6
f 22/49/6 21/50/6 24/51/6 23/52/6
f 33/53/6 34/54/6 35/55/6 36/56/6
f 37/57/4 34/58/4 33/59/4 38/60/4
f 39/61/5 36/62/5 35/63/5 40/64/5
