v 1.000000 1.000000 0.468750
v 1.000000 0.000000 0.468750
v 0.000000 0.000000 0.468750
v 0.000000 1.000000 0.468750
v 0.000000 1.000000 0.531250
v 0.000000 0.000000 0.531250
v 1.000000 0.000000 0.531250
v 1.000000 1.000000 0.531250
v 0.375000 0.812500 0.468750
v 0.375000 0.812500 0.531250
v 0.562500 0.812500 0.531250
v 0.562500 0.812500 0.468750
v 0.375000 0.062500 0.468750
v 0.375000 0.062500 0.531250
v 0.437500 0.812500 0.531250
v 0.437500 0.750000 0.531250
v 0.437500 0.750000 0.468750
v 0.437500 0.812500 0.468750
v 0.500000 0.812500 0.468750
v 0.500000 0.750000 0.468750
v 0.500000 0.750000 0.531250
v 0.500000 0.812500 0.531250
v 0.562500 0.062500 0.531250
v 0.562500 0.062500 0.468750
v 0.375000 0.625000 0.531250
v 0.375000 0.625000 0.468750
v 0.562500 0.625000 0.468750
v 0.562500 0.625000 0.531250
v 0.437500 0.625000 0.468750
v 0.437500 0.000000 0.468750
v 0.437500 0.000000 0.531250
v 0.437500 0.625000 0.531250
v 0.500000 0.625000 0.531250
v 0.500000 0.000000 0.531250
v 0.500000 0.000000 0.468750
v 0.500000 0.625000 0.468750
v 0.562500 0.562500 0.468750
v 0.562500 0.562500 0.531250
v 0.625000 0.562500 0.531250
v 0.625000 0.562500 0.468750
v 0.562500 0.500000 0.468750
v 0.562500 0.500000 0.531250
v 0.625000 0.187500 0.531250
v 0.625000 0.187500 0.468750
v 0.312500 0.500000 0.468750
v 0.312500 0.500000 0.531250
v 0.312500 0.187500 0.468750
v 0.312500 0.187500 0.531250
v 0.375000 0.500000 0.531250
v 0.375000 0.375000 0.531250
v 0.375000 0.375000 0.468750
v 0.375000 0.500000 0.468750
v 0.437500 0.375000 0.531250
v 0.437500 0.375000 0.468750
vn 0.000000 0.000000 -1.000000
vn 0.000000 0.000000 1.000000
vn 0.000000 1.000000 0.000000
vn -1.000000 0.000000 0.000000
vn 1.000000 0.000000 0.000000
vn 0.000000 -1.000000 0.000000
vt 0.484344 0.734344
vt 0.484344 0.718781
vt 0.468781 0.718781
vt 0.468781 0.734344
vt 0.468781 0.734344
vt 0.468781 0.718781
vt 0.484344 0.718781
vt 0.484344 0.734344
vt 0.474615 0.731443
vt 0.474615 0.730471
vt 0.477533 0.730471
vt 0.477533 0.731443
vt 0.475584 0.731422
vt 0.475584 0.719749
vt 0.474611 0.719749
vt 0.474611 0.731422
vt 0.475584 0.731443
vt 0.475584 0.730471
vt 0.474611 0.730471
vt 0.474611 0.731443
vt 0.477537 0.731443
vt 0.477537 0.730471
vt 0.476564 0.730471
vt 0.476564 0.731443
vt 0.477537 0.731422
vt 0.477537 0.719749
vt 0.476564 0.719749
vt 0.476564 0.731422
vt 0.475588 0.730467
vt 0.475588 0.729494
vt 0.476561 0.729494
vt 0.476561 0.730467
vt 0.474615 0.729490
vt 0.474615 0.728518
vt 0.477533 0.728518
vt 0.477533 0.729490
vt 0.476561 0.728497
vt 0.476561 0.718769
vt 0.475588 0.718769
vt 0.475588 0.728497
vt 0.476561 0.728497
vt 0.476561 0.718769
vt 0.475588 0.718769
vt 0.475588 0.728497
vt 0.477541 0.727537
vt 0.477541 0.726564
vt 0.478514 0.726564
vt 0.478514 0.727537
vt 0.478514 0.727537
vt 0.478514 0.726564
vt 0.477541 0.726564
vt 0.477541 0.727537
vt 0.478514 0.727528
vt 0.478514 0.721691
vt 0.477541 0.721691
vt 0.477541 0.727528
vt 0.473640 0.726561
vt 0.473640 0.725588
vt 0.477531 0.725588
vt 0.477531 0.726561
vt 0.474607 0.726553
vt 0.474607 0.721689
vt 0.473635 0.721689
vt 0.473635 0.726553
vt 0.474607 0.726559
vt 0.474607 0.724613
vt 0.473635 0.724613
vt 0.473635 0.726559
vt 0.474611 0.724607
vt 0.474611 0.723635
vt 0.475584 0.723635
vt 0.475584 0.724607
vt 0.473642 0.722654
vt 0.473642 0.721682
vt 0.478506 0.721682
vt 0.478506 0.722654
vt 0.474615 0.720701
vt 0.474615 0.719728
vt 0.477533 0.719728
vt 0.477533 0.720701
vt 0.475588 0.719725
vt 0.475588 0.718752
vt 0.476561 0.718752
vt 0.476561 0.719725
f 1/1/1 2/2/1 3/3/1 4/4/1
f 5/5/2 6/6/2 7/7/2 8/8/2
f 9/9/3 10/10/3 11/11/3 12/12/3
f 9/13/4 13/14/4 14/15/4 10/16/4
f 15/17/5 16/18/5 17/19/5 18/20/5
f 19/21/4 20/22/4 21/23/4 22/24/4
f 11/25/5 23/26/5 24/27/5 12/28/5
f 17/29/3 16/30/3 21/31/3 20/32/3
f 25/33/6 26/34/6 27/35/6 28/36/6
f 29/37/4 30/38/4 31/39/4 32/40/4
f 33/41/5 34/42/5 35/43/5 36/44/5
f 37/45/3 38/46/3 39/47/3 40/48/3
f 37/49/4 41/50/4 42/51/4 38/52/4
f 39/53/5 43/54/5 44/55/5 40/56/5
f 45/57/3 46/58/3 42/59/3 41/60/3
f 45/61/4 47/62/4 48/63/4 46/64/4
f 49/65/5 50/66/5 51/67/5 52/68/5
f 51/69/3 50/70/3 53/71/3 54/72/3
f 48/73/6 47/74/6 44/75/6 43/76/6
f 14/77/6 13/78/6 24/79/6 23/80/6
f 31/81/6 30/82/6 35/83/6 34/84/6
