v 1.000000 1.000000 0.468750
v 1.000000 0.000000 0.468750
v 0.000000 0.000000 0.468750
v 0.000000 1.000000 0.468750
v 0.000000 1.000000 0.531250
v 0.000000 0.000000 0.531250
v 1.000000 0.000000 0.531250
v 1.000000 1.000000 0.531250
v 0.500000 0.937500 0.468750
v 0.500000 0.937500 0.531250
v 0.562500 0.937500 0.531250
v 0.562500 0.937500 0.468750
v 0.500000 0.875000 0.468750
v 0.500000 0.875000 0.531250
v 0.562500 0.875000 0.531250
v 0.562500 0.875000 0.468750
v 0.437500 0.875000 0.468750
v 0.437500 0.875000 0.531250
v 0.625000 0.875000 0.531250
v 0.625000 0.875000 0.468750
v 0.437500 0.812500 0.468750
v 0.437500 0.812500 0.531250
v 0.500000 0.812500 0.531250
v 0.500000 0.812500 0.468750
v 0.562500 0.812500 0.468750
v 0.562500 0.812500 0.531250
v 0.625000 0.812500 0.531250
v 0.625000 0.812500 0.468750
v 0.375000 0.812500 0.468750
v 0.375000 0.812500 0.531250
v 0.687500 0.812500 0.531250
v 0.687500 0.812500 0.468750
v 0.375000 0.750000 0.468750
v 0.375000 0.750000 0.531250
v 0.500000 0.750000 0.531250
v 0.500000 0.750000 0.468750
v 0.562500 0.750000 0.468750
v 0.562500 0.750000 0.531250
v 0.687500 0.750000 0.531250
v 0.687500 0.750000 0.468750
v 0.125000 0.750000 0.468750
v 0.125000 0.750000 0.531250
v 0.937500 0.750000 0.531250
v 0.937500 0.750000 0.468750
v 0.125000 0.062500 0.468750
v 0.125000 0.062500 0.531250
v 0.937500 0.062500 0.531250
v 0.937500 0.062500 0.468750
vn 0.000000 0.000000 -1.000000
vn 0.000000 0.000000 1.000000
vn 0.000000 1.000000 0.000000
vn -1.000000 0.000000 0.000000
vn 1.000000 0.000000 0.000000
vn 0.000000 -1.000000 0.000000
vt 0.578094 0.515594
vt 0.578094 0.500031
vt 0.562531 0.500031
vt 0.562531 0.515594
vt 0.562531 0.515594
vt 0.562531 0.500031
vt 0.578094 0.500031
vt 0.578094 0.515594
vt 0.570314 0.514647
vt 0.570314 0.513674
vt 0.571287 0.513674
vt 0.571287 0.514647
vt 0.571287 0.514647
vt 0.571287 0.513674
vt 0.570314 0.513674
vt 0.570314 0.514647
vt 0.571287 0.514647
vt 0.571287 0.513674
vt 0.570314 0.513674
vt 0.570314 0.514647
vt 0.569342 0.513670
vt 0.569342 0.512697
vt 0.572260 0.512697
vt 0.572260 0.513670
vt 0.570311 0.513670
vt 0.570311 0.512697
vt 0.569338 0.512697
vt 0.569338 0.513670
vt 0.570314 0.513670
vt 0.570314 0.512697
vt 0.571287 0.512697
vt 0.571287 0.513670
vt 0.572264 0.513670
vt 0.572264 0.512697
vt 0.571291 0.512697
vt 0.571291 0.513670
vt 0.568369 0.512693
vt 0.568369 0.511721
vt 0.573233 0.511721
vt 0.573233 0.512693
vt 0.569334 0.512693
vt 0.569334 0.511721
vt 0.568361 0.511721
vt 0.568361 0.512693
vt 0.570311 0.512693
vt 0.570311 0.511721
vt 0.569338 0.511721
vt 0.569338 0.512693
vt 0.572264 0.512693
vt 0.572264 0.511721
vt 0.571291 0.511721
vt 0.571291 0.512693
vt 0.573240 0.512693
vt 0.573240 0.511721
vt 0.572268 0.511721
vt 0.572268 0.512693
vt 0.564478 0.511717
vt 0.564478 0.510744
vt 0.577124 0.510744
vt 0.577124 0.511717
vt 0.565428 0.511698
vt 0.565428 0.500998
vt 0.564455 0.500998
vt 0.564455 0.511698
vt 0.577147 0.511698
vt 0.577147 0.500998
vt 0.576174 0.500998
vt 0.576174 0.511698
vt 0.564478 0.501951
vt 0.564478 0.500978
vt 0.577124 0.500978
vt 0.577124 0.501951
f 1/1/1 2/2/1 3/3/1 4/4/1
f 5/5/2 6/6/2 7/7/2 8/8/2
f 9/9/3 10/10/3 11/11/3 12/12/3
f 9/13/4 13/14/4 14/15/4 10/16/4
f 11/17/5 15/18/5 16/19/5 12/20/5
f 17/21/3 18/22/3 19/23/3 20/24/3
f 17/25/4 21/26/4 22/27/4 18/28/4
f 23/29/6 24/30/6 25/31/6 26/32/6
f 19/33/5 27/34/5 28/35/5 20/36/5
f 29/37/3 30/38/3 31/39/3 32/40/3
f 29/41/4 33/42/4 34/43/4 30/44/4
f 23/45/5 35/46/5 36/47/5 24/48/5
f 25/49/4 37/50/4 38/51/4 26/52/4
f 31/53/5 39/54/5 40/55/5 32/56/5
f 41/57/3 42/58/3 43/59/3 44/60/3
f 41/61/4 45/62/4 46/63/4 42/64/4
f 43/65/5 47/66/5 48/67/5 44/68/5
f 46/69/6 45/70/6 48/71/6 47/72/6
