v 1.000000 1.000000 0.468750
v 1.000000 0.000000 0.468750
v 0.000000 0.000000 0.468750
v 0.000000 1.000000 0.468750
v 0.000000 1.000000 0.531250
v 0.000000 0.000000 0.531250
v 1.000000 0.000000 0.531250
v 1.000000 1.000000 0.531250
v 0.625000 0.750000 0.468750
v 0.625000 0.750000 0.531250
v 0.687500 0.750000 0.531250
v 0.687500 0.750000 0.468750
v 0.625000 0.687500 0.468750
v 0.625000 0.687500 0.531250
v 0.687500 0.375000 0.531250
v 0.687500 0.375000 0.468750
v 0.187500 0.687500 0.468750
v 0.187500 0.687500 0.531250
v 0.750000 0.687500 0.531250
v 0.750000 0.687500 0.468750
v 0.187500 0.375000 0.468750
v 0.187500 0.375000 0.531250
v 0.375000 0.687500 0.531250
v 0.375000 0.625000 0.531250
v 0.375000 0.625000 0.468750
v 0.375000 0.687500 0.468750
v 0.562500 0.687500 0.468750
v 0.562500 0.625000 0.468750
v 0.562500 0.625000 0.531250
v 0.562500 0.687500 0.531250
v 0.750000 0.000000 0.531250
v 0.750000 0.000000 0.468750
v 0.125000 0.625000 0.468750
v 0.125000 0.625000 0.531250
v 0.875000 0.625000 0.531250
v 0.875000 0.625000 0.468750
v 0.125000 0.187500 0.468750
v 0.125000 0.187500 0.531250
v 0.437500 0.625000 0.531250
v 0.437500 0.562500 0.531250
v 0.437500 0.562500 0.468750
v 0.437500 0.625000 0.468750
v 0.500000 0.625000 0.468750
v 0.500000 0.562500 0.468750
v 0.500000 0.562500 0.531250
v 0.500000 0.625000 0.531250
v 0.875000 0.062500 0.531250
v 0.875000 0.062500 0.468750
v 0.812500 0.500000 0.531250
v 0.812500 0.500000 0.468750
v 0.875000 0.500000 0.468750
v 0.875000 0.500000 0.531250
v 0.125000 0.437500 0.531250
v 0.125000 0.437500 0.468750
v 0.750000 0.437500 0.468750
v 0.750000 0.437500 0.531250
v 0.812500 0.312500 0.531250
v 0.812500 0.312500 0.468750
v 0.875000 0.375000 0.468750
v 0.875000 0.375000 0.531250
v 0.750000 0.375000 0.468750
v 0.750000 0.375000 0.531250
v 0.812500 0.437500 0.468750
v 0.812500 0.437500 0.531250
v 0.875000 0.437500 0.531250
v 0.875000 0.437500 0.468750
v 0.250000 0.375000 0.468750
v 0.250000 0.062500 0.468750
v 0.250000 0.062500 0.531250
v 0.250000 0.375000 0.531250
v 0.750000 0.312500 0.531250
v 0.750000 0.312500 0.468750
v 0.062500 0.312500 0.468750
v 0.062500 0.312500 0.531250
v 0.250000 0.312500 0.531250
v 0.250000 0.312500 0.468750
v 0.062500 0.250000 0.531250
v 0.062500 0.250000 0.468750
v 0.125000 0.250000 0.468750
v 0.125000 0.250000 0.531250
v 0.250000 0.187500 0.468750
v 0.250000 0.187500 0.531250
v 0.750000 0.250000 0.468750
v 0.750000 0.250000 0.531250
v 0.875000 0.250000 0.531250
v 0.875000 0.250000 0.468750
v 0.312500 0.000000 0.531250
v 0.312500 0.000000 0.468750
v 0.312500 0.062500 0.468750
v 0.312500 0.062500 0.531250
vn 0.000000 0.000000 -1.000000
vn 0.000000 0.000000 1.000000
vn 0.000000 1.000000 0.000000
vn -1.000000 0.000000 0.000000
vn 1.000000 0.000000 0.000000
vn 0.000000 -1.000000 0.000000
vt 0.078094 0.718719
vt 0.078094 0.703156
vt 0.062531 0.703156
vt 0.062531 0.718719
vt 0.062531 0.718719
vt 0.062531 0.703156
vt 0.078094 0.703156
vt 0.078094 0.718719
vt 0.072268 0.714842
vt 0.072268 0.713869
vt 0.073240 0.713869
vt 0.073240 0.714842
vt 0.073240 0.714842
vt 0.073240 0.713869
vt 0.072268 0.713869
vt 0.072268 0.714842
vt 0.073240 0.714832
vt 0.073240 0.708996
vt 0.072268 0.708996
vt 0.072268 0.714832
vt 0.065447 0.713865
vt 0.065447 0.712893
vt 0.074202 0.712893
vt 0.074202 0.713865
vt 0.066404 0.713858
vt 0.066404 0.708994
vt 0.065432 0.708994
vt 0.065432 0.713858
vt 0.068357 0.713865
vt 0.068357 0.712893
vt 0.067385 0.712893
vt 0.067385 0.713865
vt 0.072264 0.713865
vt 0.072264 0.712893
vt 0.071291 0.712893
vt 0.071291 0.713865
vt 0.074217 0.713846
vt 0.074217 0.703146
vt 0.073244 0.703146
vt 0.073244 0.713846
vt 0.064476 0.712889
vt 0.064476 0.711916
vt 0.076149 0.711916
vt 0.076149 0.712889
vt 0.065428 0.712877
vt 0.065428 0.706068
vt 0.064455 0.706068
vt 0.064455 0.712877
vt 0.069334 0.712889
vt 0.069334 0.711916
vt 0.068361 0.711916
vt 0.068361 0.712889
vt 0.071287 0.712889
vt 0.071287 0.711916
vt 0.070314 0.711916
vt 0.070314 0.712889
vt 0.076170 0.712873
vt 0.076170 0.704119
vt 0.075197 0.704119
vt 0.075197 0.712873
vt 0.069338 0.711912
vt 0.069338 0.710939
vt 0.070311 0.710939
vt 0.070311 0.711912
vt 0.075197 0.711912
vt 0.075197 0.710939
vt 0.076170 0.710939
vt 0.076170 0.711912
vt 0.064472 0.710936
vt 0.064472 0.709963
vt 0.074200 0.709963
vt 0.074200 0.710936
vt 0.075193 0.710932
vt 0.075193 0.708014
vt 0.074221 0.708014
vt 0.074221 0.710932
vt 0.065451 0.709959
vt 0.065451 0.708986
vt 0.076151 0.708986
vt 0.076151 0.709959
vt 0.075193 0.709959
vt 0.075193 0.708986
vt 0.074221 0.708986
vt 0.074221 0.709959
vt 0.075197 0.709959
vt 0.075197 0.708986
vt 0.076170 0.708986
vt 0.076170 0.709959
vt 0.067381 0.708975
vt 0.067381 0.704111
vt 0.066408 0.704111
vt 0.066408 0.708975
vt 0.073244 0.708982
vt 0.073244 0.708010
vt 0.074217 0.708010
vt 0.074217 0.708982
vt 0.074221 0.708982
vt 0.074221 0.708010
vt 0.075193 0.708010
vt 0.075193 0.708982
vt 0.063482 0.708006
vt 0.063482 0.707033
vt 0.066401 0.707033
vt 0.066401 0.708006
vt 0.063478 0.708006
vt 0.063478 0.707033
vt 0.064451 0.707033
vt 0.064451 0.708006
vt 0.064451 0.708006
vt 0.064451 0.707033
vt 0.063478 0.707033
vt 0.063478 0.708006
vt 0.064457 0.707029
vt 0.064457 0.706057
vt 0.066402 0.706057
vt 0.066402 0.707029
vt 0.074223 0.707029
vt 0.074223 0.706057
vt 0.076168 0.706057
vt 0.076168 0.707029
vt 0.066425 0.705076
vt 0.066425 0.704103
vt 0.076153 0.704103
vt 0.076153 0.705076
vt 0.067396 0.704100
vt 0.067396 0.703127
vt 0.074205 0.703127
vt 0.074205 0.704100
vt 0.068357 0.704100
vt 0.068357 0.703127
vt 0.067385 0.703127
vt 0.067385 0.704100
f 1/1/1 2/2/1 3/3/1 4/4/1
f 5/5/2 6/6/2 7/7/2 8/8/2
f 9/9/3 10/10/3 11/11/3 12/12/3
f 9/13/4 13/14/4 14/15/4 10/16/4
f 11/17/5 15/18/5 16/19/5 12/20/5
f 17/21/3 18/22/3 19/23/3 20/24/3
f 17/25/4 21/26/4 22/27/4 18/28/4
f 23/29/5 24/30/5 25/31/5 26/32/5
f 27/33/4 28/34/4 29/35/4 30/36/4
f 19/37/5 31/38/5 32/39/5 20/40/5
f 33/41/3 34/42/3 35/43/3 36/44/3
f 33/45/4 37/46/4 38/47/4 34/48/4
f 39/49/5 40/50/5 41/51/5 42/52/5
f 43/53/4 44/54/4 45/55/4 46/56/4
f 35/57/5 47/58/5 48/59/5 36/60/5
f 41/61/3 40/62/3 45/63/3 44/64/3
f 49/65/6 50/66/6 51/67/6 52/68/6
f 53/69/6 54/70/6 55/71/6 56/72/6
f 49/73/5 57/74/5 58/75/5 50/76/5
f 22/77/6 21/78/6 59/79/6 60/80/6
f 55/81/4 61/82/4 62/83/4 56/84/4
f 63/85/3 64/86/3 65/87/3 66/88/3
f 67/89/4 68/90/4 69/91/4 70/92/4
f 16/93/3 15/94/3 62/95/3 61/96/3
f 71/97/6 72/98/6 58/99/6 57/100/6
f 73/101/3 74/102/3 75/103/3 76/104/3
f 77/105/6 78/106/6 79/107/6 80/108/6
f 73/109/4 78/110/4 77/111/4 74/112/4
f 38/113/6 37/114/6 81/115/6 82/116/6
f 83/117/3 84/118/3 85/119/3 86/120/3
f 69/121/6 68/122/6 48/123/6 47/124/6
f 87/125/6 88/126/6 32/127/6 31/128/6
f 89/129/4 88/130/4 87/131/4 90/132/4
