v 1.000000 1.000000 0.468750
v 1.000000 0.000000 0.468750
v 0.000000 0.000000 0.468750
v 0.000000 1.000000 0.468750
v 0.000000 1.000000 0.531250
v 0.000000 0.000000 0.531250
v 1.000000 0.000000 0.531250
v 1.000000 1.000000 0.531250
v 0.375000 0.937500 0.468750
v 0.375000 0.937500 0.531250
v 0.687500 0.937500 0.531250
v 0.687500 0.937500 0.468750
v 0.375000 0.875000 0.468750
v 0.375000 0.875000 0.531250
v 0.687500 0.125000 0.531250
v 0.687500 0.125000 0.468750
v 0.250000 0.875000 0.468750
v 0.250000 0.875000 0.531250
v 0.812500 0.875000 0.531250
v 0.812500 0.875000 0.468750
v 0.250000 0.187500 0.468750
v 0.250000 0.187500 0.531250
v 0.812500 0.812500 0.531250
v 0.812500 0.812500 0.468750
v 0.187500 0.812500 0.468750
v 0.187500 0.812500 0.531250
v 0.875000 0.812500 0.531250
v 0.875000 0.812500 0.468750
v 0.187500 0.250000 0.468750
v 0.187500 0.250000 0.531250
v 0.875000 0.187500 0.531250
v 0.875000 0.187500 0.468750
v 0.125000 0.750000 0.468750
v 0.125000 0.750000 0.531250
v 0.187500 0.750000 0.531250
v 0.187500 0.750000 0.468750
v 0.125000 0.312500 0.468750
v 0.125000 0.312500 0.531250
v 0.062500 0.687500 0.468750
v 0.062500 0.687500 0.531250
v 0.125000 0.687500 0.531250
v 0.125000 0.687500 0.468750
v 0.062500 0.437500 0.468750
v 0.062500 0.437500 0.531250
v 0.875000 0.625000 0.468750
v 0.875000 0.625000 0.531250
v 0.937500 0.625000 0.531250
v 0.937500 0.625000 0.468750
v 0.937500 0.250000 0.531250
v 0.937500 0.250000 0.468750
v 0.125000 0.437500 0.468750
v 0.125000 0.437500 0.531250
v 0.187500 0.312500 0.468750
v 0.187500 0.312500 0.531250
v 0.312500 0.125000 0.531250
v 0.312500 0.125000 0.468750
v 0.312500 0.187500 0.468750
v 0.312500 0.187500 0.531250
vn 0.000000 0.000000 -1.000000
vn 0.000000 0.000000 1.000000
vn 0.000000 1.000000 0.000000
vn -1.000000 0.000000 0.000000
vn 1.000000 0.000000 0.000000
vn 0.000000 -1.000000 0.000000
vt 0.593719 0.906219
vt 0.593719 0.890656
vt 0.578156 0.890656
vt 0.578156 0.906219
vt 0.578156 0.906219
vt 0.578156 0.890656
vt 0.593719 0.890656
vt 0.593719 0.906219
vt 0.583994 0.905272
vt 0.583994 0.904299
vt 0.588858 0.904299
vt 0.588858 0.905272
vt 0.584959 0.905272
vt 0.584959 0.904299
vt 0.583986 0.904299
vt 0.583986 0.905272
vt 0.588865 0.905249
vt 0.588865 0.892603
vt 0.587893 0.892603
vt 0.587893 0.905249
vt 0.582048 0.904295
vt 0.582048 0.903322
vt 0.590803 0.903322
vt 0.590803 0.904295
vt 0.583006 0.904276
vt 0.583006 0.893576
vt 0.582033 0.893576
vt 0.582033 0.904276
vt 0.590818 0.904295
vt 0.590818 0.903322
vt 0.589846 0.903322
vt 0.589846 0.904295
vt 0.581076 0.903318
vt 0.581076 0.902346
vt 0.591776 0.902346
vt 0.591776 0.903318
vt 0.582029 0.903303
vt 0.582029 0.894548
vt 0.581057 0.894548
vt 0.581057 0.903303
vt 0.591795 0.903301
vt 0.591795 0.893574
vt 0.590822 0.893574
vt 0.590822 0.903301
vt 0.580080 0.902342
vt 0.580080 0.901369
vt 0.581053 0.901369
vt 0.581053 0.902342
vt 0.581053 0.902330
vt 0.581053 0.895521
vt 0.580080 0.895521
vt 0.580080 0.902330
vt 0.579103 0.901365
vt 0.579103 0.900393
vt 0.580076 0.900393
vt 0.580076 0.901365
vt 0.580076 0.901360
vt 0.580076 0.897469
vt 0.579103 0.897469
vt 0.579103 0.901360
vt 0.591799 0.900389
vt 0.591799 0.899416
vt 0.592772 0.899416
vt 0.592772 0.900389
vt 0.592772 0.900379
vt 0.592772 0.894543
vt 0.591799 0.894543
vt 0.591799 0.900379
vt 0.579103 0.898436
vt 0.579103 0.897463
vt 0.580076 0.897463
vt 0.580076 0.898436
vt 0.580080 0.896482
vt 0.580080 0.895510
vt 0.581053 0.895510
vt 0.581053 0.896482
vt 0.581078 0.895506
vt 0.581078 0.894533
vt 0.592751 0.894533
vt 0.592751 0.895506
vt 0.582050 0.894529
vt 0.582050 0.893557
vt 0.591778 0.893557
vt 0.591778 0.894529
vt 0.583019 0.893553
vt 0.583019 0.892580
vt 0.588856 0.892580
vt 0.588856 0.893553
vt 0.583982 0.893553
vt 0.583982 0.892580
vt 0.583010 0.892580
vt 0.583010 0.893553
f 1/1/1 2/2/1 3/3/1 4/4/1
f 5/5/2 6/6/2 7/7/2 8/8/2
f 9/9/3 10/10/3 11/11/3 12/12/3
f 9/13/4 13/14/4 14/15/4 10/16/4
f 11/17/5 15/18/5 16/19/5 12/20/5
f 17/21/3 18/22/3 19/23/3 20/24/3
f 17/25/4 21/26/4 22/27/4 18/28/4
f 19/29/5 23/30/5 24/31/5 20/32/5
f 25/33/3 26/34/3 27/35/3 28/36/3
f 25/37/4 29/38/4 30/39/4 26/40/4
f 27/41/5 31/42/5 32/43/5 28/44/5
f 33/45/3 34/46/3 35/47/3 36/48/3
f 33/49/4 37/50/4 38/51/4 34/52/4
f 39/53/3 40/54/3 41/55/3 42/56/3
f 39/57/4 43/58/4 44/59/4 40/60/4
f 45/61/3 46/62/3 47/63/3 48/64/3
f 47/65/5 49/66/5 50/67/5 48/68/5
f 44/69/6 43/70/6 51/71/6 52/72/6
f 38/73/6 37/74/6 53/75/6 54/76/6
f 30/77/6 29/78/6 50/79/6 49/80/6
f 22/81/6 21/82/6 32/83/6 31/84/6
f 55/85/6 56/86/6 16/87/6 15/88/6
f 57/89/4 56/90/4 55/91/4 58/92/4
