v 1.000000 1.000000 0.468750
v 1.000000 0.000000 0.468750
v 0.000000 0.000000 0.468750
v 0.000000 1.000000 0.468750
v 0.000000 1.000000 0.531250
v 0.000000 0.000000 0.531250
v 1.000000 0.000000 0.531250
v 1.000000 1.000000 0.531250
v 0.375000 0.500000 0.468750
v 0.375000 0.500000 0.531250
v 0.687500 0.500000 0.531250
v 0.687500 0.500000 0.468750
v 0.375000 0.437500 0.531250
v 0.375000 0.437500 0.468750
v 0.437500 0.437500 0.468750
v 0.437500 0.437500 0.531250
v 0.375000 0.125000 0.468750
v 0.375000 0.125000 0.531250
v 0.437500 0.500000 0.531250
v 0.437500 0.500000 0.468750
v 0.500000 0.500000 0.468750
v 0.500000 0.437500 0.468750
v 0.500000 0.437500 0.531250
v 0.500000 0.500000 0.531250
v 0.687500 0.125000 0.531250
v 0.687500 0.125000 0.468750
v 0.312500 0.437500 0.468750
v 0.312500 0.437500 0.531250
v 0.750000 0.437500 0.531250
v 0.750000 0.437500 0.468750
v 0.312500 0.187500 0.468750
v 0.312500 0.187500 0.531250
v 0.375000 0.312500 0.531250
v 0.375000 0.312500 0.468750
v 0.437500 0.312500 0.468750
v 0.437500 0.312500 0.531250
v 0.750000 0.187500 0.531250
v 0.750000 0.187500 0.468750
v 0.625000 0.312500 0.531250
v 0.625000 0.312500 0.468750
v 0.687500 0.312500 0.468750
v 0.687500 0.312500 0.531250
v 0.625000 0.187500 0.531250
v 0.625000 0.187500 0.468750
v 0.687500 0.187500 0.468750
v 0.687500 0.187500 0.531250
v 0.562500 0.187500 0.531250
v 0.562500 0.125000 0.531250
v 0.562500 0.125000 0.468750
v 0.562500 0.187500 0.468750
v 0.625000 0.125000 0.468750
v 0.625000 0.125000 0.531250
v 0.437500 0.875000 0.468750
v 0.437500 0.875000 0.531250
v 0.625000 0.875000 0.531250
v 0.625000 0.875000 0.468750
v 0.375000 0.812500 0.468750
v 0.375000 0.812500 0.531250
v 0.687500 0.812500 0.531250
v 0.687500 0.812500 0.468750
v 0.375000 0.062500 0.468750
v 0.375000 0.062500 0.531250
v 0.687500 0.062500 0.531250
v 0.687500 0.062500 0.468750
v 0.375000 0.687500 0.531250
v 0.375000 0.687500 0.468750
v 0.687500 0.687500 0.468750
v 0.687500 0.687500 0.531250
v 0.500000 0.687500 0.531250
v 0.500000 0.687500 0.468750
v 0.562500 0.687500 0.468750
v 0.562500 0.687500 0.531250
v 0.437500 0.562500 0.531250
v 0.437500 0.562500 0.468750
v 0.625000 0.562500 0.468750
v 0.625000 0.562500 0.531250
v 0.375000 0.562500 0.468750
v 0.375000 0.562500 0.531250
v 0.687500 0.562500 0.531250
v 0.687500 0.562500 0.468750
v 0.312500 0.500000 0.468750
v 0.312500 0.500000 0.531250
v 0.750000 0.500000 0.531250
v 0.750000 0.500000 0.468750
v 0.312500 0.125000 0.468750
v 0.312500 0.125000 0.531250
v 0.750000 0.125000 0.531250
v 0.750000 0.125000 0.468750
v 0.250000 0.437500 0.468750
v 0.250000 0.437500 0.531250
v 0.812500 0.437500 0.531250
v 0.812500 0.437500 0.468750
v 0.250000 0.187500 0.468750
v 0.250000 0.187500 0.531250
v 0.812500 0.187500 0.531250
v 0.812500 0.187500 0.468750
vn 0.000000 0.000000 -1.000000
vn 0.000000 0.000000 1.000000
vn 0.000000 1.000000 0.000000
vn 0.000000 -1.000000 0.000000
vn -1.000000 0.000000 0.000000
vn 1.000000 0.000000 0.000000
vt 0.593719 0.843719
vt 0.593719 0.828156
vt 0.578156 0.828156
vt 0.578156 0.843719
vt 0.578156 0.843719
vt 0.578156 0.828156
vt 0.593719 0.828156
vt 0.593719 0.843719
vt 0.583994 0.835936
vt 0.583994 0.834963
vt 0.588858 0.834963
vt 0.588858 0.835936
vt 0.583986 0.835936
vt 0.583986 0.834963
vt 0.584959 0.834963
vt 0.584959 0.835936
vt 0.584959 0.835926
vt 0.584959 0.830090
vt 0.583986 0.830090
vt 0.583986 0.835926
vt 0.584959 0.835936
vt 0.584959 0.834963
vt 0.583986 0.834963
vt 0.583986 0.835936
vt 0.586912 0.835936
vt 0.586912 0.834963
vt 0.585939 0.834963
vt 0.585939 0.835936
vt 0.588865 0.835926
vt 0.588865 0.830090
vt 0.587893 0.830090
vt 0.587893 0.835926
vt 0.583021 0.834959
vt 0.583021 0.833986
vt 0.589830 0.833986
vt 0.589830 0.834959
vt 0.583982 0.834953
vt 0.583982 0.831062
vt 0.583010 0.831062
vt 0.583010 0.834953
vt 0.583982 0.834957
vt 0.583982 0.833012
vt 0.583010 0.833012
vt 0.583010 0.834957
vt 0.585936 0.834957
vt 0.585936 0.833012
vt 0.584963 0.833012
vt 0.584963 0.834957
vt 0.589842 0.834953
vt 0.589842 0.831062
vt 0.588869 0.831062
vt 0.588869 0.834953
vt 0.587893 0.833982
vt 0.587893 0.833010
vt 0.588865 0.833010
vt 0.588865 0.833982
vt 0.583986 0.833006
vt 0.583986 0.832033
vt 0.584959 0.832033
vt 0.584959 0.833006
vt 0.587889 0.833004
vt 0.587889 0.831059
vt 0.586916 0.831059
vt 0.586916 0.833004
vt 0.589842 0.833004
vt 0.589842 0.831059
vt 0.588869 0.831059
vt 0.588869 0.833004
vt 0.583021 0.832029
vt 0.583021 0.831057
vt 0.589830 0.831057
vt 0.589830 0.832029
vt 0.583994 0.831053
vt 0.583994 0.830080
vt 0.588858 0.830080
vt 0.588858 0.831053
vt 0.586912 0.831053
vt 0.586912 0.830080
vt 0.585939 0.830080
vt 0.585939 0.831053
vt 0.587893 0.831053
vt 0.587893 0.830080
vt 0.588865 0.830080
vt 0.588865 0.831053
vt 0.588865 0.831053
vt 0.588865 0.830080
vt 0.587893 0.830080
vt 0.587893 0.831053
vt 0.593719 0.859344
vt 0.593719 0.843781
vt 0.578156 0.843781
vt 0.578156 0.859344
vt 0.578156 0.859344
vt 0.578156 0.843781
vt 0.593719 0.843781
vt 0.593719 0.859344
vt 0.584967 0.857420
vt 0.584967 0.856447
vt 0.587885 0.856447
vt 0.587885 0.857420
vt 0.585936 0.857409
vt 0.585936 0.850599
vt 0.584963 0.850599
vt 0.584963 0.857409
vt 0.587889 0.857399
vt 0.587889 0.845726
vt 0.586916 0.845726
vt 0.586916 0.857399
vt 0.583994 0.856443
vt 0.583994 0.855471
vt 0.588858 0.855471
vt 0.588858 0.856443
vt 0.584959 0.856422
vt 0.584959 0.844749
vt 0.583986 0.844749
vt 0.583986 0.856422
vt 0.588865 0.856422
vt 0.588865 0.844749
vt 0.587893 0.844749
vt 0.587893 0.856422
vt 0.583994 0.855467
vt 0.583994 0.854494
vt 0.588858 0.854494
vt 0.588858 0.855467
vt 0.585936 0.854485
vt 0.585936 0.850594
vt 0.584963 0.850594
vt 0.584963 0.854485
vt 0.587889 0.854475
vt 0.587889 0.845720
vt 0.586916 0.845720
vt 0.586916 0.854475
vt 0.584967 0.853514
vt 0.584967 0.852541
vt 0.587885 0.852541
vt 0.587885 0.853514
vt 0.583994 0.852537
vt 0.583994 0.851564
vt 0.588858 0.851564
vt 0.588858 0.852537
vt 0.583994 0.852537
vt 0.583994 0.851564
vt 0.588858 0.851564
vt 0.588858 0.852537
vt 0.584959 0.852531
vt 0.584959 0.848640
vt 0.583986 0.848640
vt 0.583986 0.852531
vt 0.588865 0.852528
vt 0.588865 0.846691
vt 0.587893 0.846691
vt 0.587893 0.852528
vt 0.583021 0.851561
vt 0.583021 0.850588
vt 0.589830 0.850588
vt 0.589830 0.851561
vt 0.583021 0.851561
vt 0.583021 0.850588
vt 0.589830 0.850588
vt 0.589830 0.851561
vt 0.583982 0.851551
vt 0.583982 0.845715
vt 0.583010 0.845715
vt 0.583010 0.851551
vt 0.583982 0.851551
vt 0.583982 0.845715
vt 0.583010 0.845715
vt 0.583010 0.851551
vt 0.589842 0.851551
vt 0.589842 0.845715
vt 0.588869 0.845715
vt 0.588869 0.851551
vt 0.589842 0.851551
vt 0.589842 0.845715
vt 0.588869 0.845715
vt 0.588869 0.851551
vt 0.582048 0.850584
vt 0.582048 0.849611
vt 0.590803 0.849611
vt 0.590803 0.850584
vt 0.583006 0.850578
vt 0.583006 0.846687
vt 0.582033 0.846687
vt 0.582033 0.850578
vt 0.583006 0.850578
vt 0.583006 0.846687
vt 0.582033 0.846687
vt 0.582033 0.850578
vt 0.590818 0.850578
vt 0.590818 0.846687
vt 0.589846 0.846687
vt 0.589846 0.850578
vt 0.590818 0.850578
vt 0.590818 0.846687
vt 0.589846 0.846687
vt 0.589846 0.850578
vt 0.583986 0.849607
vt 0.583986 0.848635
vt 0.584959 0.848635
vt 0.584959 0.849607
vt 0.587893 0.848631
vt 0.587893 0.847658
vt 0.588865 0.847658
vt 0.588865 0.848631
vt 0.582048 0.847654
vt 0.582048 0.846682
vt 0.590803 0.846682
vt 0.590803 0.847654
vt 0.583021 0.846678
vt 0.583021 0.845705
vt 0.589830 0.845705
vt 0.589830 0.846678
vt 0.583021 0.846678
vt 0.583021 0.845705
vt 0.589830 0.845705
vt 0.589830 0.846678
vt 0.583994 0.845701
vt 0.583994 0.844728
vt 0.588858 0.844728
vt 0.588858 0.845701
vt 0.583994 0.845701
vt 0.583994 0.844728
vt 0.588858 0.844728
vt 0.588858 0.845701
f 1/1/1 2/2/1 3/3/1 4/4/1
f 5/5/2 6/6/2 7/7/2 8/8/2
f 9/9/3 10/10/3 11/11/3 12/12/3
f 13/13/4 14/14/4 15/15/4 16/16/4
f 9/17/5 17/18/5 18/19/5 10/20/5
f 19/21/6 16/22/6 15/23/6 20/24/6
f 21/25/5 22/26/5 23/27/5 24/28/5
f 11/29/6 25/30/6 26/31/6 12/32/6
f 27/33/3 28/34/3 29/35/3 30/36/3
f 27/37/5 31/38/5 32/39/5 28/40/5
f 13/41/6 33/42/6 34/43/6 14/44/6
f 15/45/5 35/46/5 36/47/5 16/48/5
f 29/49/6 37/50/6 38/51/6 30/52/6
f 39/53/4 40/54/4 41/55/4 42/56/4
f 34/57/3 33/58/3 36/59/3 35/60/3
f 39/61/6 43/62/6 44/63/6 40/64/6
f 41/65/5 45/66/5 46/67/5 42/68/5
f 32/69/4 31/70/4 38/71/4 37/72/4
f 18/73/4 17/74/4 26/75/4 25/76/4
f 47/77/6 48/78/6 49/79/6 50/80/6
f 44/81/3 43/82/3 46/83/3 45/84/3
f 44/85/5 51/86/5 52/87/5 43/88/5
f 1/89/1 2/90/1 3/91/1 4/92/1
f 5/93/2 6/94/2 7/95/2 8/96/2
f 53/97/3 54/98/3 55/99/3 56/100/3
f 53/101/5 15/102/5 16/103/5 54/104/5
f 55/105/6 52/106/6 51/107/6 56/108/6
f 57/109/3 58/110/3 59/111/3 60/112/3
f 57/113/5 61/114/5 62/115/5 58/116/5
f 59/117/6 63/118/6 64/119/6 60/120/6
f 65/121/4 66/122/4 67/123/4 68/124/4
f 69/125/6 23/126/6 22/127/6 70/128/6
f 71/129/5 49/130/5 48/131/5 72/132/5
f 73/133/4 74/134/4 75/135/4 76/136/4
f 77/137/3 78/138/3 79/139/3 80/140/3
f 10/141/4 9/142/4 12/143/4 11/144/4
f 73/145/6 36/146/6 35/147/6 74/148/6
f 75/149/5 44/150/5 43/151/5 76/152/5
f 81/153/3 82/154/3 83/155/3 84/156/3
f 28/157/4 27/158/4 30/159/4 29/160/4
f 81/161/5 85/162/5 86/163/5 82/164/5
f 10/165/6 18/166/6 17/167/6 9/168/6
f 12/169/5 26/170/5 25/171/5 11/172/5
f 83/173/6 87/174/6 88/175/6 84/176/6
f 89/177/3 90/178/3 91/179/3 92/180/3
f 89/181/5 93/182/5 94/183/5 90/184/5
f 28/185/6 32/186/6 31/187/6 27/188/6
f 30/189/5 38/190/5 37/191/5 29/192/5
f 91/193/6 95/194/6 96/195/6 92/196/6
f 33/197/4 34/198/4 35/199/4 36/200/4
f 40/201/3 39/202/3 42/203/3 41/204/3
f 94/205/4 93/206/4 96/207/4 95/208/4
f 31/209/3 32/210/3 37/211/3 38/212/3
f 86/213/4 85/214/4 88/215/4 87/216/4
f 17/217/3 18/218/3 25/219/3 26/220/3
f 62/221/4 61/222/4 64/223/4 63/224/4
