v 1.000000 1.000000 0.468750
v 1.000000 0.000000 0.468750
v 0.000000 0.000000 0.468750
v 0.000000 1.000000 0.468750
v 0.000000 1.000000 0.531250
v 0.000000 0.000000 0.531250
v 1.000000 0.000000 0.531250
v 1.000000 1.000000 0.531250
v 0.312500 0.750000 0.468750
v 0.312500 0.750000 0.531250
v 0.375000 0.750000 0.531250
v 0.375000 0.750000 0.468750
v 0.312500 0.562500 0.468750
v 0.312500 0.562500 0.531250
v 0.375000 0.437500 0.531250
v 0.375000 0.437500 0.468750
v 0.375000 0.687500 0.468750
v 0.375000 0.687500 0.531250
v 0.812500 0.687500 0.531250
v 0.812500 0.687500 0.468750
v 0.437500 0.687500 0.531250
v 0.437500 0.562500 0.531250
v 0.437500 0.562500 0.468750
v 0.437500 0.687500 0.468750
v 0.750000 0.687500 0.468750
v 0.750000 0.500000 0.468750
v 0.750000 0.500000 0.531250
v 0.750000 0.687500 0.531250
v 0.812500 0.250000 0.531250
v 0.812500 0.250000 0.468750
v 0.812500 0.625000 0.468750
v 0.812500 0.625000 0.531250
v 0.875000 0.625000 0.531250
v 0.875000 0.625000 0.468750
v 0.875000 0.312500 0.531250
v 0.875000 0.312500 0.468750
v 0.250000 0.562500 0.468750
v 0.250000 0.562500 0.531250
v 0.687500 0.562500 0.531250
v 0.687500 0.562500 0.468750
v 0.250000 0.437500 0.468750
v 0.250000 0.437500 0.531250
v 0.312500 0.250000 0.531250
v 0.312500 0.250000 0.468750
v 0.562500 0.562500 0.468750
v 0.562500 0.500000 0.468750
v 0.562500 0.500000 0.531250
v 0.562500 0.562500 0.531250
v 0.687500 0.437500 0.531250
v 0.687500 0.437500 0.468750
v 0.875000 0.500000 0.468750
v 0.875000 0.500000 0.531250
v 0.312500 0.500000 0.468750
v 0.312500 0.500000 0.531250
v 0.500000 0.500000 0.468750
v 0.500000 0.312500 0.468750
v 0.500000 0.312500 0.531250
v 0.500000 0.500000 0.531250
v 0.187500 0.437500 0.468750
v 0.187500 0.437500 0.531250
v 0.187500 0.250000 0.468750
v 0.187500 0.250000 0.531250
v 0.250000 0.375000 0.531250
v 0.250000 0.375000 0.468750
v 0.875000 0.375000 0.531250
v 0.875000 0.375000 0.468750
v 0.562500 0.375000 0.531250
v 0.562500 0.187500 0.531250
v 0.562500 0.187500 0.468750
v 0.562500 0.375000 0.468750
v 0.687500 0.375000 0.468750
v 0.687500 0.250000 0.468750
v 0.687500 0.250000 0.531250
v 0.687500 0.375000 0.531250
v 0.812500 0.312500 0.531250
v 0.812500 0.312500 0.468750
v 0.437500 0.312500 0.468750
v 0.437500 0.312500 0.531250
v 0.437500 0.187500 0.468750
v 0.437500 0.187500 0.531250
vn 0.000000 0.000000 -1.000000
vn 0.000000 0.000000 1.000000
vn 0.000000 1.000000 0.000000
vn -1.000000 0.000000 0.000000
vn 1.000000 0.000000 0.000000
vn 0.000000 -1.000000 0.000000
vt 0.593719 0.734344
vt 0.593719 0.718781
vt 0.578156 0.718781
vt 0.578156 0.734344
vt 0.578156 0.734344
vt 0.578156 0.718781
vt 0.593719 0.718781
vt 0.593719 0.734344
vt 0.583010 0.730467
vt 0.583010 0.729494
vt 0.583982 0.729494
vt 0.583982 0.730467
vt 0.583982 0.730463
vt 0.583982 0.727545
vt 0.583010 0.727545
vt 0.583010 0.730463
vt 0.583982 0.730459
vt 0.583982 0.725595
vt 0.583010 0.725595
vt 0.583010 0.730459
vt 0.583998 0.729490
vt 0.583998 0.728518
vt 0.590807 0.728518
vt 0.590807 0.729490
vt 0.584959 0.729488
vt 0.584959 0.727543
vt 0.583986 0.727543
vt 0.583986 0.729488
vt 0.590818 0.729486
vt 0.590818 0.726568
vt 0.589846 0.726568
vt 0.589846 0.729486
vt 0.590818 0.729479
vt 0.590818 0.722670
vt 0.589846 0.722670
vt 0.589846 0.729479
vt 0.583012 0.728514
vt 0.583012 0.727541
vt 0.584957 0.727541
vt 0.584957 0.728514
vt 0.590822 0.728514
vt 0.590822 0.727541
vt 0.591795 0.727541
vt 0.591795 0.728514
vt 0.591795 0.728506
vt 0.591795 0.723642
vt 0.590822 0.723642
vt 0.590822 0.728506
vt 0.582045 0.727537
vt 0.582045 0.726564
vt 0.588854 0.726564
vt 0.588854 0.727537
vt 0.583006 0.727535
vt 0.583006 0.725590
vt 0.582033 0.725590
vt 0.582033 0.727535
vt 0.583006 0.727530
vt 0.583006 0.722666
vt 0.582033 0.722666
vt 0.582033 0.727530
vt 0.587889 0.727537
vt 0.587889 0.726564
vt 0.586916 0.726564
vt 0.586916 0.727537
vt 0.588865 0.727535
vt 0.588865 0.725590
vt 0.587893 0.725590
vt 0.587893 0.727535
vt 0.589848 0.727537
vt 0.589848 0.726564
vt 0.591793 0.726564
vt 0.591793 0.727537
vt 0.582045 0.726561
vt 0.582045 0.725588
vt 0.588854 0.725588
vt 0.588854 0.726561
vt 0.583015 0.726561
vt 0.583015 0.725588
vt 0.586906 0.725588
vt 0.586906 0.726561
vt 0.586912 0.726557
vt 0.586912 0.723639
vt 0.585939 0.723639
vt 0.585939 0.726557
vt 0.581057 0.725584
vt 0.581057 0.724611
vt 0.582029 0.724611
vt 0.582029 0.725584
vt 0.582029 0.725580
vt 0.582029 0.722662
vt 0.581057 0.722662
vt 0.581057 0.725580
vt 0.582029 0.725584
vt 0.582029 0.724611
vt 0.581057 0.724611
vt 0.581057 0.725584
vt 0.582050 0.724607
vt 0.582050 0.723635
vt 0.591778 0.723635
vt 0.591778 0.724607
vt 0.586912 0.724604
vt 0.586912 0.721685
vt 0.585939 0.721685
vt 0.585939 0.724604
vt 0.589842 0.724606
vt 0.589842 0.722660
vt 0.588869 0.722660
vt 0.588869 0.724606
vt 0.590822 0.724607
vt 0.590822 0.723635
vt 0.591795 0.723635
vt 0.591795 0.724607
vt 0.581074 0.723631
vt 0.581074 0.722658
vt 0.590801 0.722658
vt 0.590801 0.723631
vt 0.584963 0.723631
vt 0.584963 0.722658
vt 0.585936 0.722658
vt 0.585936 0.723631
vt 0.585936 0.723629
vt 0.585936 0.721684
vt 0.584963 0.721684
vt 0.584963 0.723629
vt 0.584965 0.722654
vt 0.584965 0.721682
vt 0.586910 0.721682
vt 0.586910 0.722654
f 1/1/1 2/2/1 3/3/1 4/4/1
f 5/5/2 6/6/2 7/7/2 8/8/2
f 9/9/3 10/10/3 11/11/3 12/12/3
f 9/13/4 13/14/4 14/15/4 10/16/4
f 11/17/5 15/18/5 16/19/5 12/20/5
f 17/21/3 18/22/3 19/23/3 20/24/3
f 21/25/5 22/26/5 23/27/5 24/28/5
f 25/29/4 26/30/4 27/31/4 28/32/4
f 19/33/5 29/34/5 30/35/5 20/36/5
f 14/37/6 13/38/6 23/39/6 22/40/6
f 31/41/3 32/42/3 33/43/3 34/44/3
f 33/45/5 35/46/5 36/47/5 34/48/5
f 37/49/3 38/50/3 39/51/3 40/52/3
f 37/53/4 41/54/4 42/55/4 38/56/4
f 14/57/5 43/58/5 44/59/5 13/60/5
f 45/61/4 46/62/4 47/63/4 48/64/4
f 39/65/5 49/66/5 50/67/5 40/68/5
f 27/69/6 26/70/6 51/71/6 52/72/6
f 42/73/6 41/74/6 50/75/6 49/76/6
f 53/77/3 54/78/3 47/79/3 46/80/3
f 55/81/4 56/82/4 57/83/4 58/84/4
f 59/85/3 60/86/3 42/87/3 41/88/3
f 59/89/4 61/90/4 62/91/4 60/92/4
f 42/93/5 63/94/5 64/95/5 41/96/5
f 64/97/3 63/98/3 65/99/3 66/100/3
f 67/101/5 68/102/5 69/103/5 70/104/5
f 71/105/4 72/106/4 73/107/4 74/108/4
f 75/109/6 76/110/6 36/111/6 35/112/6
f 62/113/6 61/114/6 30/115/6 29/116/6
f 77/117/3 78/118/3 57/119/3 56/120/3
f 77/121/4 79/122/4 80/123/4 78/124/4
f 80/125/6 79/126/6 69/127/6 68/128/6
