v 1.000000 1.000000 0.468750
v 1.000000 0.000000 0.468750
v 0.000000 0.000000 0.468750
v 0.000000 1.000000 0.468750
v 0.000000 1.000000 0.531250
v 0.000000 0.000000 0.531250
v 1.000000 0.000000 0.531250
v 1.000000 1.000000 0.531250
v 0.375000 0.750000 0.468750
v 0.375000 0.750000 0.531250
v 0.625000 0.750000 0.531250
v 0.625000 0.750000 0.468750
v 0.375000 0.187500 0.468750
v 0.375000 0.187500 0.531250
v 0.625000 0.187500 0.531250
v 0.625000 0.187500 0.468750
v 0.250000 0.687500 0.468750
v 0.250000 0.687500 0.531250
v 0.750000 0.687500 0.531250
v 0.750000 0.687500 0.468750
v 0.250000 0.250000 0.468750
v 0.250000 0.250000 0.531250
v 0.750000 0.250000 0.531250
v 0.750000 0.250000 0.468750
v 0.187500 0.625000 0.468750
v 0.187500 0.625000 0.531250
v 0.812500 0.625000 0.531250
v 0.812500 0.625000 0.468750
v 0.187500 0.312500 0.468750
v 0.187500 0.312500 0.531250
v 0.812500 0.312500 0.531250
v 0.812500 0.312500 0.468750
v 0.125000 0.562500 0.468750
v 0.125000 0.562500 0.531250
v 0.875000 0.562500 0.531250
v 0.875000 0.562500 0.468750
v 0.125000 0.375000 0.468750
v 0.125000 0.375000 0.531250
v 0.875000 0.375000 0.531250
v 0.875000 0.375000 0.468750
vn 0.000000 0.000000 -1.000000
vn 0.000000 0.000000 1.000000
vn 0.000000 1.000000 0.000000
vn -1.000000 0.000000 0.000000
vn 1.000000 0.000000 0.000000
vn 0.000000 -1.000000 0.000000
vt 0.593719 0.703094
vt 0.593719 0.687531
vt 0.578156 0.687531
vt 0.578156 0.703094
vt 0.578156 0.703094
vt 0.578156 0.687531
vt 0.593719 0.687531
vt 0.593719 0.703094
vt 0.583992 0.699217
vt 0.583992 0.698244
vt 0.587883 0.698244
vt 0.587883 0.699217
vt 0.584959 0.699202
vt 0.584959 0.690447
vt 0.583986 0.690447
vt 0.583986 0.699202
vt 0.587889 0.699202
vt 0.587889 0.690447
vt 0.586916 0.690447
vt 0.586916 0.699202
vt 0.582047 0.698240
vt 0.582047 0.697268
vt 0.589828 0.697268
vt 0.589828 0.698240
vt 0.583006 0.698229
vt 0.583006 0.691420
vt 0.582033 0.691420
vt 0.582033 0.698229
vt 0.589842 0.698229
vt 0.589842 0.691420
vt 0.588869 0.691420
vt 0.588869 0.698229
vt 0.581074 0.697264
vt 0.581074 0.696291
vt 0.590801 0.696291
vt 0.590801 0.697264
vt 0.582029 0.697256
vt 0.582029 0.692392
vt 0.581057 0.692392
vt 0.581057 0.697256
vt 0.590818 0.697256
vt 0.590818 0.692392
vt 0.589846 0.692392
vt 0.589846 0.697256
vt 0.580101 0.696287
vt 0.580101 0.695314
vt 0.591774 0.695314
vt 0.591774 0.696287
vt 0.581053 0.696283
vt 0.581053 0.693365
vt 0.580080 0.693365
vt 0.580080 0.696283
vt 0.591795 0.696283
vt 0.591795 0.693365
vt 0.590822 0.693365
vt 0.590822 0.696283
vt 0.580101 0.694334
vt 0.580101 0.693361
vt 0.591774 0.693361
vt 0.591774 0.694334
vt 0.581074 0.693357
vt 0.581074 0.692385
vt 0.590801 0.692385
vt 0.590801 0.693357
vt 0.582047 0.692381
vt 0.582047 0.691408
vt 0.589828 0.691408
vt 0.589828 0.692381
vt 0.583992 0.691404
vt 0.583992 0.690432
vt 0.587883 0.690432
vt 0.587883 0.691404
f 1/1/1 2/2/1 3/3/1 4/4/1
f 5/5/2 6/6/2 7/7/2 8/8/2
f 9/9/3 10/10/3 11/11/3 12/12/3
f 9/13/4 13/14/4 14/15/4 10/16/4
f 11/17/5 15/18/5 16/19/5 12/20/5
f 17/21/3 18/22/3 19/23/3 20/24/3
f 17/25/4 21/26/4 22/27/4 18/28/4
f 19/29/5 23/30/5 24/31/5 20/32/5
f 25/33/3 26/34/3 27/35/3 28/36/3
f 25/37/4 29/38/4 30/39/4 26/40/4
f 27/41/5 31/42/5 32/43/5 28/44/5
f 33/45/3 34/46/3 35/47/3 36/48/3
f 33/49/4 37/50/4 38/51/4 34/52/4
f 35/53/5 39/54/5 40/55/5 36/56/5
f 38/57/6 37/58/6 40/59/6 39/60/6
f 30/61/6 29/62/6 32/63/6 31/64/6
f 22/65/6 21/66/6 24/67/6 23/68/6
f 14/69/6 13/70/6 16/71/6 15/72/6
