v 1.000000 1.000000 0.468750
v 1.000000 0.000000 0.468750
v 0.000000 0.000000 0.468750
v 0.000000 1.000000 0.468750
v 0.000000 1.000000 0.531250
v 0.000000 0.000000 0.531250
v 1.000000 0.000000 0.531250
v 1.000000 1.000000 0.531250
v 0.625000 0.937500 0.468750
v 0.625000 0.937500 0.531250
v 0.812500 0.937500 0.531250
v 0.812500 0.937500 0.468750
v 0.625000 0.187500 0.468750
v 0.625000 0.187500 0.531250
v 0.812500 0.875000 0.531250
v 0.812500 0.875000 0.468750
v 0.187500 0.875000 0.468750
v 0.187500 0.875000 0.531250
v 0.875000 0.875000 0.531250
v 0.875000 0.875000 0.468750
v 0.187500 0.312500 0.468750
v 0.187500 0.312500 0.531250
v 0.437500 0.875000 0.531250
v 0.437500 0.812500 0.531250
v 0.437500 0.812500 0.468750
v 0.437500 0.875000 0.468750
v 0.562500 0.875000 0.468750
v 0.562500 0.250000 0.468750
v 0.562500 0.250000 0.531250
v 0.562500 0.875000 0.531250
v 0.875000 0.312500 0.531250
v 0.875000 0.312500 0.468750
v 0.125000 0.812500 0.468750
v 0.125000 0.812500 0.531250
v 0.937500 0.812500 0.531250
v 0.937500 0.812500 0.468750
v 0.125000 0.375000 0.468750
v 0.125000 0.375000 0.531250
v 0.937500 0.125000 0.531250
v 0.937500 0.125000 0.468750
v 0.062500 0.750000 0.468750
v 0.062500 0.750000 0.531250
v 1.000000 0.750000 0.531250
v 1.000000 0.750000 0.468750
v 0.062500 0.562500 0.468750
v 0.062500 0.562500 0.531250
v 1.000000 0.500000 0.531250
v 1.000000 0.500000 0.468750
v 0.125000 0.562500 0.468750
v 0.125000 0.562500 0.531250
v 0.937500 0.500000 0.531250
v 0.937500 0.500000 0.468750
v 0.875000 0.437500 0.531250
v 0.875000 0.437500 0.468750
v 0.937500 0.437500 0.468750
v 0.937500 0.437500 0.531250
v 0.437500 0.375000 0.468750
v 0.437500 0.375000 0.531250
v 0.562500 0.312500 0.468750
v 0.562500 0.312500 0.531250
v 0.375000 0.375000 0.531250
v 0.375000 0.250000 0.531250
v 0.375000 0.250000 0.468750
v 0.375000 0.375000 0.468750
v 0.437500 0.312500 0.468750
v 0.437500 0.312500 0.531250
v 0.250000 0.250000 0.531250
v 0.250000 0.250000 0.468750
v 0.625000 0.250000 0.468750
v 0.625000 0.250000 0.531250
v 0.250000 0.312500 0.468750
v 0.250000 0.312500 0.531250
v 0.937500 0.312500 0.531250
v 0.937500 0.312500 0.468750
v 0.750000 0.187500 0.468750
v 0.750000 0.187500 0.531250
v 0.750000 0.125000 0.531250
v 0.750000 0.125000 0.468750
vn 0.000000 0.000000 -1.000000
vn 0.000000 0.000000 1.000000
vn 0.000000 1.000000 0.000000
vn -1.000000 0.000000 0.000000
vn 1.000000 0.000000 0.000000
vn 0.000000 -1.000000 0.000000
vt 0.593719 0.671844
vt 0.593719 0.656281
vt 0.578156 0.656281
vt 0.578156 0.671844
vt 0.578156 0.671844
vt 0.578156 0.656281
vt 0.593719 0.656281
vt 0.593719 0.671844
vt 0.587896 0.670897
vt 0.587896 0.669924
vt 0.590815 0.669924
vt 0.590815 0.670897
vt 0.588865 0.670876
vt 0.588865 0.659203
vt 0.587893 0.659203
vt 0.587893 0.670876
vt 0.590818 0.670897
vt 0.590818 0.669924
vt 0.589846 0.669924
vt 0.589846 0.670897
vt 0.581076 0.669920
vt 0.581076 0.668947
vt 0.591776 0.668947
vt 0.591776 0.669920
vt 0.582029 0.669905
vt 0.582029 0.661150
vt 0.581057 0.661150
vt 0.581057 0.669905
vt 0.584959 0.669920
vt 0.584959 0.668947
vt 0.583986 0.668947
vt 0.583986 0.669920
vt 0.587889 0.669903
vt 0.587889 0.660175
vt 0.586916 0.660175
vt 0.586916 0.669903
vt 0.591795 0.669905
vt 0.591795 0.661150
vt 0.590822 0.661150
vt 0.590822 0.669905
vt 0.580103 0.668943
vt 0.580103 0.667971
vt 0.592749 0.667971
vt 0.592749 0.668943
vt 0.581053 0.668932
vt 0.581053 0.662123
vt 0.580080 0.662123
vt 0.580080 0.668932
vt 0.592772 0.668924
vt 0.592772 0.658224
vt 0.591799 0.658224
vt 0.591799 0.668924
vt 0.579130 0.667967
vt 0.579130 0.666994
vt 0.593721 0.666994
vt 0.593721 0.667967
vt 0.580076 0.667963
vt 0.580076 0.665045
vt 0.579103 0.665045
vt 0.579103 0.667963
vt 0.593748 0.667961
vt 0.593748 0.664070
vt 0.592775 0.664070
vt 0.592775 0.667961
vt 0.579103 0.666014
vt 0.579103 0.665041
vt 0.580076 0.665041
vt 0.580076 0.666014
vt 0.592775 0.665037
vt 0.592775 0.664064
vt 0.593748 0.664064
vt 0.593748 0.665037
vt 0.591799 0.664061
vt 0.591799 0.663088
vt 0.592772 0.663088
vt 0.592772 0.664061
vt 0.580088 0.663084
vt 0.580088 0.662111
vt 0.584951 0.662111
vt 0.584951 0.663084
vt 0.581066 0.662107
vt 0.581066 0.661135
vt 0.586903 0.661135
vt 0.586903 0.662107
vt 0.583982 0.662106
vt 0.583982 0.660160
vt 0.583010 0.660160
vt 0.583010 0.662106
vt 0.585936 0.662107
vt 0.585936 0.661135
vt 0.584963 0.661135
vt 0.584963 0.662107
vt 0.582043 0.661131
vt 0.582043 0.660158
vt 0.587879 0.660158
vt 0.587879 0.661131
vt 0.583006 0.661131
vt 0.583006 0.660158
vt 0.582033 0.660158
vt 0.582033 0.661131
vt 0.591799 0.661131
vt 0.591799 0.660158
vt 0.592772 0.660158
vt 0.592772 0.661131
vt 0.587894 0.660154
vt 0.587894 0.659182
vt 0.589840 0.659182
vt 0.589840 0.660154
vt 0.589849 0.659178
vt 0.589849 0.658205
vt 0.592768 0.658205
vt 0.592768 0.659178
vt 0.590818 0.659178
vt 0.590818 0.658205
vt 0.589846 0.658205
vt 0.589846 0.659178
f 1/1/1 2/2/1 3/3/1 4/4/1
f 5/5/2 6/6/2 7/7/2 8/8/2
f 9/9/3 10/10/3 11/11/3 12/12/3
f 9/13/4 13/14/4 14/15/4 10/16/4
f 11/17/5 15/18/5 16/19/5 12/20/5
f 17/21/3 18/22/3 19/23/3 20/24/3
f 17/25/4 21/26/4 22/27/4 18/28/4
f 23/29/5 24/30/5 25/31/5 26/32/5
f 27/33/4 28/34/4 29/35/4 30/36/4
f 19/37/5 31/38/5 32/39/5 20/40/5
f 33/41/3 34/42/3 35/43/3 36/44/3
f 33/45/4 37/46/4 38/47/4 34/48/4
f 35/49/5 39/50/5 40/51/5 36/52/5
f 41/53/3 42/54/3 43/55/3 44/56/3
f 41/57/4 45/58/4 46/59/4 42/60/4
f 43/61/5 47/62/5 48/63/5 44/64/5
f 46/65/6 45/66/6 49/67/6 50/68/6
f 51/69/6 52/70/6 48/71/6 47/72/6
f 53/73/6 54/74/6 55/75/6 56/76/6
f 38/77/6 37/78/6 57/79/6 58/80/6
f 22/81/6 21/82/6 59/83/6 60/84/6
f 61/85/5 62/86/5 63/87/5 64/88/5
f 57/89/4 65/90/4 66/91/4 58/92/4
f 67/93/6 68/94/6 69/95/6 70/96/6
f 71/97/4 68/98/4 67/99/4 72/100/4
f 32/101/3 31/102/3 73/103/3 74/104/3
f 14/105/6 13/106/6 75/107/6 76/108/6
f 77/109/6 78/110/6 40/111/6 39/112/6
f 75/113/4 78/114/4 77/115/4 76/116/4
