v 1.000000 1.000000 0.468750
v 1.000000 0.000000 0.468750
v 0.000000 0.000000 0.468750
v 0.000000 1.000000 0.468750
v 0.000000 1.000000 0.531250
v 0.000000 0.000000 0.531250
v 1.000000 0.000000 0.531250
v 1.000000 1.000000 0.531250
v 0.437500 0.812500 0.468750
v 0.437500 0.812500 0.531250
v 0.562500 0.812500 0.531250
v 0.562500 0.812500 0.468750
v 0.437500 0.750000 0.468750
v 0.437500 0.750000 0.531250
v 0.562500 0.750000 0.531250
v 0.562500 0.750000 0.468750
v 0.375000 0.750000 0.468750
v 0.375000 0.750000 0.531250
v 0.625000 0.750000 0.531250
v 0.625000 0.750000 0.468750
v 0.375000 0.125000 0.468750
v 0.375000 0.125000 0.531250
v 0.625000 0.125000 0.531250
v 0.625000 0.125000 0.468750
v 0.312500 0.687500 0.468750
v 0.312500 0.687500 0.531250
v 0.687500 0.687500 0.531250
v 0.687500 0.687500 0.468750
v 0.312500 0.625000 0.468750
v 0.312500 0.625000 0.531250
v 0.687500 0.625000 0.531250
v 0.687500 0.625000 0.468750
v 0.250000 0.625000 0.468750
v 0.250000 0.625000 0.531250
v 0.750000 0.625000 0.531250
v 0.750000 0.625000 0.468750
v 0.250000 0.187500 0.468750
v 0.250000 0.187500 0.531250
v 0.750000 0.187500 0.531250
v 0.750000 0.187500 0.468750
v 0.187500 0.562500 0.468750
v 0.187500 0.562500 0.531250
v 0.812500 0.562500 0.531250
v 0.812500 0.562500 0.468750
v 0.187500 0.250000 0.468750
v 0.187500 0.250000 0.531250
v 0.812500 0.250000 0.531250
v 0.812500 0.250000 0.468750
v 0.125000 0.500000 0.468750
v 0.125000 0.500000 0.531250
v 0.875000 0.500000 0.531250
v 0.875000 0.500000 0.468750
v 0.125000 0.312500 0.468750
v 0.125000 0.312500 0.531250
v 0.875000 0.312500 0.531250
v 0.875000 0.312500 0.468750
vn 0.000000 0.000000 -1.000000
vn 0.000000 0.000000 1.000000
vn 0.000000 1.000000 0.000000
vn -1.000000 0.000000 0.000000
vn 1.000000 0.000000 0.000000
vn 0.000000 -1.000000 0.000000
vt 0.593719 0.578094
vt 0.593719 0.562531
vt 0.578156 0.562531
vt 0.578156 0.578094
vt 0.578156 0.578094
vt 0.578156 0.562531
vt 0.593719 0.562531
vt 0.593719 0.578094
vt 0.584965 0.575193
vt 0.584965 0.574221
vt 0.586910 0.574221
vt 0.586910 0.575193
vt 0.585936 0.575193
vt 0.585936 0.574221
vt 0.584963 0.574221
vt 0.584963 0.575193
vt 0.586912 0.575193
vt 0.586912 0.574221
vt 0.585939 0.574221
vt 0.585939 0.575193
vt 0.583992 0.574217
vt 0.583992 0.573244
vt 0.587883 0.573244
vt 0.587883 0.574217
vt 0.584959 0.574200
vt 0.584959 0.564472
vt 0.583986 0.564472
vt 0.583986 0.574200
vt 0.587889 0.574200
vt 0.587889 0.564472
vt 0.586916 0.564472
vt 0.586916 0.574200
vt 0.583019 0.573240
vt 0.583019 0.572268
vt 0.588856 0.572268
vt 0.588856 0.573240
vt 0.583982 0.573240
vt 0.583982 0.572268
vt 0.583010 0.572268
vt 0.583010 0.573240
vt 0.588865 0.573240
vt 0.588865 0.572268
vt 0.587893 0.572268
vt 0.587893 0.573240
vt 0.582047 0.572264
vt 0.582047 0.571291
vt 0.589828 0.571291
vt 0.589828 0.572264
vt 0.583006 0.572252
vt 0.583006 0.565443
vt 0.582033 0.565443
vt 0.582033 0.572252
vt 0.589842 0.572252
vt 0.589842 0.565443
vt 0.588869 0.565443
vt 0.588869 0.572252
vt 0.581074 0.571287
vt 0.581074 0.570314
vt 0.590801 0.570314
vt 0.590801 0.571287
vt 0.582029 0.571280
vt 0.582029 0.566416
vt 0.581057 0.566416
vt 0.581057 0.571280
vt 0.590818 0.571280
vt 0.590818 0.566416
vt 0.589846 0.566416
vt 0.589846 0.571280
vt 0.580101 0.570311
vt 0.580101 0.569338
vt 0.591774 0.569338
vt 0.591774 0.570311
vt 0.581053 0.570307
vt 0.581053 0.567389
vt 0.580080 0.567389
vt 0.580080 0.570307
vt 0.591795 0.570307
vt 0.591795 0.567389
vt 0.590822 0.567389
vt 0.590822 0.570307
vt 0.580101 0.568357
vt 0.580101 0.567385
vt 0.591774 0.567385
vt 0.591774 0.568357
vt 0.581074 0.567381
vt 0.581074 0.566408
vt 0.590801 0.566408
vt 0.590801 0.567381
vt 0.582047 0.566404
vt 0.582047 0.565432
vt 0.589828 0.565432
vt 0.589828 0.566404
vt 0.583992 0.565428
vt 0.583992 0.564455
vt 0.587883 0.564455
vt 0.587883 0.565428
f 1/1/1 2/2/1 3/3/1 4/4/1
f 5/5/2 6/6/2 7/7/2 8/8/2
f 9/9/3 10/10/3 11/11/3 12/12/3
f 9/13/4 13/14/4 14/15/4 10/16/4
f 11/17/5 15/18/5 16/19/5 12/20/5
f 17/21/3 18/22/3 19/23/3 20/24/3
f 17/25/4 21/26/4 22/27/4 18/28/4
f 19/29/5 23/30/5 24/31/5 20/32/5
f 25/33/3 26/34/3 27/35/3 28/36/3
f 25/37/4 29/38/4 30/39/4 26/40/4
f 27/41/5 31/42/5 32/43/5 28/44/5
f 33/45/3 34/46/3 35/47/3 36/48/3
f 33/49/4 37/50/4 38/51/4 34/52/4
f 35/53/5 39/54/5 40/55/5 36/56/5
f 41/57/3 42/58/3 43/59/3 44/60/3
f 41/61/4 45/62/4 46/63/4 42/64/4
f 43/65/5 47/66/5 48/67/5 44/68/5
f 49/69/3 50/70/3 51/71/3 52/72/3
f 49/73/4 53/74/4 54/75/4 50/76/4
f 51/77/5 55/78/5 56/79/5 52/80/5
f 54/81/6 53/82/6 56/83/6 55/84/6
f 46/85/6 45/86/6 48/87/6 47/88/6
f 38/89/6 37/90/6 40/91/6 39/92/6
f 22/93/6 21/94/6 24/95/6 23/96/6
