v 1.000000 1.000000 0.468750
v 1.000000 0.000000 0.468750
v 0.000000 0.000000 0.468750
v 0.000000 1.000000 0.468750
v 0.000000 1.000000 0.531250
v 0.000000 0.000000 0.531250
v 1.000000 0.000000 0.531250
v 1.000000 1.000000 0.531250
v 0.437500 0.687500 0.468750
v 0.437500 0.687500 0.531250
v 0.562500 0.687500 0.531250
v 0.562500 0.687500 0.468750
v 0.437500 0.000000 0.468750
v 0.437500 0.000000 0.531250
v 0.562500 0.000000 0.531250
v 0.562500 0.000000 0.468750
v 0.375000 0.625000 0.468750
v 0.375000 0.625000 0.531250
v 0.625000 0.625000 0.531250
v 0.625000 0.625000 0.468750
v 0.375000 0.500000 0.468750
v 0.375000 0.500000 0.531250
v 0.625000 0.500000 0.531250
v 0.625000 0.500000 0.468750
vn 0.000000 0.000000 -1.000000
vn 0.000000 0.000000 1.000000
vn 0.000000 1.000000 0.000000
vn -1.000000 0.000000 0.000000
vn 1.000000 0.000000 0.000000
vn 0.000000 -1.000000 0.000000
vt 0.515594 0.687469
vt 0.515594 0.671906
vt 0.500031 0.671906
vt 0.500031 0.687469
vt 0.500031 0.687469
vt 0.500031 0.671906
vt 0.515594 0.671906
vt 0.515594 0.687469
vt 0.506840 0.682615
vt 0.506840 0.681643
vt 0.508785 0.681643
vt 0.508785 0.682615
vt 0.507811 0.682596
vt 0.507811 0.671896
vt 0.506838 0.671896
vt 0.506838 0.682596
vt 0.508787 0.682596
vt 0.508787 0.671896
vt 0.507814 0.671896
vt 0.507814 0.682596
vt 0.505867 0.681639
vt 0.505867 0.680666
vt 0.509758 0.680666
vt 0.509758 0.681639
vt 0.506834 0.681637
vt 0.506834 0.679691
vt 0.505861 0.679691
vt 0.505861 0.681637
vt 0.509764 0.681637
vt 0.509764 0.679691
vt 0.508791 0.679691
vt 0.508791 0.681637
vt 0.505867 0.680662
vt 0.505867 0.679689
vt 0.509758 0.679689
vt 0.509758 0.680662
vt 0.506840 0.672850
vt 0.506840 0.671877
vt 0.508785 0.671877
vt 0.508785 0.672850
f 1/1/1 2/2/1 3/3/1 4/4/1
f 5/5/2 6/6/2 7/7/2 8/8/2
f 9/9/3 10/10/3 11/11/3 12/12/3
f 9/13/4 13/14/4 14/15/4 10/16/4
f 11/17/5 15/18/5 16/19/5 12/20/5
f 17/21/3 18/22/3 19/23/3 20/24/3
f 17/25/4 21/26/4 22/27/4 18/28/4
f 19/29/5 23/30/5 24/31/5 20/32/5
f 22/33/6 21/34/6 24/35/6 23/36/6
f 14/37/6 13/38/6 16/39/6 15/40/6
