v 1.000000 1.000000 0.468750
v 1.000000 0.000000 0.468750
v 0.000000 0.000000 0.468750
v 0.000000 1.000000 0.468750
v 0.000000 1.000000 0.531250
v 0.000000 0.000000 0.531250
v 1.000000 0.000000 0.531250
v 1.000000 1.000000 0.531250
v 0.625000 0.937500 0.468750
v 0.625000 0.937500 0.531250
v 0.750000 0.937500 0.531250
v 0.750000 0.937500 0.468750
v 0.625000 0.875000 0.468750
v 0.625000 0.875000 0.531250
v 0.750000 0.187500 0.531250
v 0.750000 0.187500 0.468750
v 0.500000 0.875000 0.468750
v 0.500000 0.875000 0.531250
v 0.500000 0.812500 0.468750
v 0.500000 0.812500 0.531250
v 0.437500 0.812500 0.468750
v 0.437500 0.812500 0.531250
v 0.812500 0.812500 0.531250
v 0.812500 0.812500 0.468750
v 0.437500 0.750000 0.468750
v 0.437500 0.750000 0.531250
v 0.812500 0.250000 0.531250
v 0.812500 0.250000 0.468750
v 0.375000 0.750000 0.468750
v 0.375000 0.750000 0.531250
v 1.000000 0.750000 0.531250
v 1.000000 0.750000 0.468750
v 0.375000 0.625000 0.468750
v 0.375000 0.625000 0.531250
v 1.000000 0.625000 0.531250
v 1.000000 0.625000 0.468750
v 0.937500 0.625000 0.531250
v 0.937500 0.625000 0.468750
v 0.312500 0.625000 0.468750
v 0.312500 0.625000 0.531250
v 0.312500 0.562500 0.468750
v 0.312500 0.562500 0.531250
v 0.875000 0.562500 0.531250
v 0.875000 0.562500 0.468750
v 0.937500 0.562500 0.468750
v 0.937500 0.562500 0.531250
v 0.937500 0.375000 0.531250
v 0.937500 0.375000 0.468750
v 0.250000 0.562500 0.468750
v 0.250000 0.562500 0.531250
v 0.250000 0.062500 0.468750
v 0.250000 0.062500 0.531250
v 0.875000 0.312500 0.531250
v 0.875000 0.312500 0.468750
v 0.187500 0.500000 0.468750
v 0.187500 0.500000 0.531250
v 0.250000 0.500000 0.531250
v 0.250000 0.500000 0.468750
v 0.187500 0.125000 0.468750
v 0.187500 0.125000 0.531250
v 0.125000 0.437500 0.468750
v 0.125000 0.437500 0.531250
v 0.937500 0.437500 0.531250
v 0.937500 0.437500 0.468750
v 0.125000 0.187500 0.468750
v 0.125000 0.187500 0.531250
v 0.875000 0.375000 0.531250
v 0.875000 0.375000 0.468750
v 0.062500 0.375000 0.468750
v 0.062500 0.375000 0.531250
v 0.125000 0.375000 0.531250
v 0.125000 0.375000 0.468750
v 0.062500 0.250000 0.468750
v 0.062500 0.250000 0.531250
v 0.812500 0.312500 0.531250
v 0.812500 0.312500 0.468750
v 0.562500 0.125000 0.468750
v 0.562500 0.125000 0.531250
v 0.562500 0.187500 0.531250
v 0.562500 0.187500 0.468750
v 0.375000 0.062500 0.468750
v 0.375000 0.062500 0.531250
v 0.375000 0.125000 0.531250
v 0.375000 0.125000 0.468750
vn 0.000000 0.000000 -1.000000
vn 0.000000 0.000000 1.000000
vn 0.000000 1.000000 0.000000
vn -1.000000 0.000000 0.000000
vn 1.000000 0.000000 0.000000
vn 0.000000 -1.000000 0.000000
vt 0.593719 0.546844
vt 0.593719 0.531281
vt 0.578156 0.531281
vt 0.578156 0.546844
vt 0.578156 0.546844
vt 0.578156 0.531281
vt 0.593719 0.531281
vt 0.593719 0.546844
vt 0.587894 0.545897
vt 0.587894 0.544924
vt 0.589840 0.544924
vt 0.589840 0.545897
vt 0.588865 0.545897
vt 0.588865 0.544924
vt 0.587893 0.544924
vt 0.587893 0.545897
vt 0.589842 0.545876
vt 0.589842 0.534203
vt 0.588869 0.534203
vt 0.588869 0.545876
vt 0.585941 0.544920
vt 0.585941 0.543947
vt 0.587887 0.543947
vt 0.587887 0.544920
vt 0.586912 0.544920
vt 0.586912 0.543947
vt 0.585939 0.543947
vt 0.585939 0.544920
vt 0.584972 0.543943
vt 0.584972 0.542971
vt 0.590809 0.542971
vt 0.590809 0.543943
vt 0.585936 0.543943
vt 0.585936 0.542971
vt 0.584963 0.542971
vt 0.584963 0.543943
vt 0.590818 0.543928
vt 0.590818 0.535173
vt 0.589846 0.535173
vt 0.589846 0.543928
vt 0.584003 0.542967
vt 0.584003 0.541994
vt 0.593731 0.541994
vt 0.593731 0.542967
vt 0.584959 0.542965
vt 0.584959 0.541019
vt 0.583986 0.541019
vt 0.583986 0.542965
vt 0.593748 0.542965
vt 0.593748 0.541019
vt 0.592775 0.541019
vt 0.592775 0.542965
vt 0.592775 0.541990
vt 0.592775 0.541018
vt 0.593748 0.541018
vt 0.593748 0.541990
vt 0.583010 0.541014
vt 0.583010 0.540041
vt 0.583982 0.540041
vt 0.583982 0.541014
vt 0.583982 0.541014
vt 0.583982 0.540041
vt 0.583010 0.540041
vt 0.583010 0.541014
vt 0.591799 0.541014
vt 0.591799 0.540041
vt 0.592772 0.540041
vt 0.592772 0.541014
vt 0.592772 0.541008
vt 0.592772 0.537117
vt 0.591799 0.537117
vt 0.591799 0.541008
vt 0.582033 0.540037
vt 0.582033 0.539064
vt 0.583006 0.539064
vt 0.583006 0.540037
vt 0.583006 0.540024
vt 0.583006 0.532242
vt 0.582033 0.532242
vt 0.582033 0.540024
vt 0.591795 0.540031
vt 0.591795 0.536140
vt 0.590822 0.536140
vt 0.590822 0.540031
vt 0.581057 0.539061
vt 0.581057 0.538088
vt 0.582029 0.538088
vt 0.582029 0.539061
vt 0.582029 0.539051
vt 0.582029 0.533215
vt 0.581057 0.533215
vt 0.581057 0.539051
vt 0.580103 0.538084
vt 0.580103 0.537111
vt 0.592749 0.537111
vt 0.592749 0.538084
vt 0.581053 0.538078
vt 0.581053 0.534187
vt 0.580080 0.534187
vt 0.580080 0.538078
vt 0.591799 0.538084
vt 0.591799 0.537111
vt 0.592772 0.537111
vt 0.592772 0.538084
vt 0.579103 0.537107
vt 0.579103 0.536135
vt 0.580076 0.536135
vt 0.580076 0.537107
vt 0.580076 0.537106
vt 0.580076 0.535160
vt 0.579103 0.535160
vt 0.579103 0.537106
vt 0.590822 0.537107
vt 0.590822 0.536135
vt 0.591795 0.536135
vt 0.591795 0.537107
vt 0.579124 0.536131
vt 0.579124 0.535158
vt 0.590797 0.535158
vt 0.590797 0.536131
vt 0.580097 0.535154
vt 0.580097 0.534182
vt 0.589825 0.534182
vt 0.589825 0.535154
vt 0.581066 0.534178
vt 0.581066 0.533205
vt 0.586903 0.533205
vt 0.586903 0.534178
vt 0.586912 0.534178
vt 0.586912 0.533205
vt 0.585939 0.533205
vt 0.585939 0.534178
vt 0.582035 0.533201
vt 0.582035 0.532228
vt 0.583981 0.532228
vt 0.583981 0.533201
vt 0.583982 0.533201
vt 0.583982 0.532228
vt 0.583010 0.532228
vt 0.583010 0.533201
f 1/1/1 2/2/1 3/3/1 4/4/1
f 5/5/2 6/6/2 7/7/2 8/8/2
f 9/9/3 10/10/3 11/11/3 12/12/3
f 9/13/4 13/14/4 14/15/4 10/16/4
f 11/17/5 15/18/5 16/19/5 12/20/5
f 17/21/3 18/22/3 14/23/3 13/24/3
f 17/25/4 19/26/4 20/27/4 18/28/4
f 21/29/3 22/30/3 23/31/3 24/32/3
f 21/33/4 25/34/4 26/35/4 22/36/4
f 23/37/5 27/38/5 28/39/5 24/40/5
f 29/41/3 30/42/3 31/43/3 32/44/3
f 29/45/4 33/46/4 34/47/4 30/48/4
f 31/49/5 35/50/5 36/51/5 32/52/5
f 37/53/6 38/54/6 36/55/6 35/56/6
f 39/57/3 40/58/3 34/59/3 33/60/3
f 39/61/4 41/62/4 42/63/4 40/64/4
f 43/65/6 44/66/6 45/67/6 46/68/6
f 37/69/5 47/70/5 48/71/5 38/72/5
f 49/73/3 50/74/3 42/75/3 41/76/3
f 49/77/4 51/78/4 52/79/4 50/80/4
f 43/81/5 53/82/5 54/83/5 44/84/5
f 55/85/3 56/86/3 57/87/3 58/88/3
f 55/89/4 59/90/4 60/91/4 56/92/4
f 61/93/3 62/94/3 63/95/3 64/96/3
f 61/97/4 65/98/4 66/99/4 62/100/4
f 67/101/6 68/102/6 48/103/6 47/104/6
f 69/105/3 70/106/3 71/107/3 72/108/3
f 69/109/4 73/110/4 74/111/4 70/112/4
f 75/113/6 76/114/6 54/115/6 53/116/6
f 74/117/6 73/118/6 28/119/6 27/120/6
f 66/121/6 65/122/6 16/123/6 15/124/6
f 60/125/6 59/126/6 77/127/6 78/128/6
f 79/129/5 78/130/5 77/131/5 80/132/5
f 52/133/6 51/134/6 81/135/6 82/136/6
f 83/137/5 82/138/5 81/139/5 84/140/5
