v 0.000000 0.999375 1.000000
v 0.000000 0.999375 0.000000
v 1.000000 0.999375 0.000000
v 1.000000 0.999375 1.000000
v 0.000000 1.000000 0.125000
v 0.000000 0.000000 0.125000
v 0.125000 0.000000 0.125000
v 0.125000 1.000000 0.125000
v 0.125000 0.000000 0.000000
v 0.125000 1.000000 0.000000
v 0.125000 1.000000 0.875000
v 0.125000 0.000000 0.875000
v 0.000000 0.000000 0.875000
v 0.000000 1.000000 0.875000
v 0.125000 1.000000 1.000000
v 0.125000 0.000000 1.000000
v 1.000000 1.000000 0.875000
v 1.000000 0.000000 0.875000
v 0.875000 0.000000 0.875000
v 0.875000 1.000000 0.875000
v 0.875000 0.000000 1.000000
v 0.875000 1.000000 1.000000
v 0.875000 1.000000 0.125000
v 0.875000 0.000000 0.125000
v 1.000000 0.000000 0.125000
v 1.000000 1.000000 0.125000
v 0.875000 1.000000 0.000000
v 0.875000 0.000000 0.000000
v 0.125000 0.875000 0.125000
v 0.125000 0.875000 0.000000
v 0.875000 0.875000 0.000000
v 0.875000 0.875000 0.125000
v 0.125000 0.875000 1.000000
v 0.125000 0.875000 0.875000
v 0.875000 0.875000 0.875000
v 0.875000 0.875000 1.000000
v 1.000000 0.875000 0.125000
v 1.000000 0.875000 0.875000
v 0.000000 0.875000 0.875000
v 0.000000 0.875000 0.125000
v 0.000000 0.000000 0.000000
v 0.000000 0.000000 1.000000
v 1.000000 0.000000 1.000000
v 1.000000 0.000000 0.000000
v 0.000000 1.000000 0.000000
v 0.000000 1.000000 1.000000
v 1.000000 1.000000 1.000000
v 1.000000 1.000000 0.000000
vn 0.000000 -1.000000 0.000000
vn 0.000000 0.000000 1.000000
vn 1.000000 0.000000 0.000000
vn 0.000000 0.000000 -1.000000
vn -1.000000 0.000000 0.000000
vn 0.000000 1.000000 0.000000
vt 0.375031 0.656281
vt 0.375031 0.671844
vt 0.390594 0.671844
vt 0.390594 0.656281
vt 0.359379 0.671844
vt 0.359379 0.656281
vt 0.361324 0.656281
vt 0.361324 0.671844
vt 0.373051 0.671844
vt 0.373051 0.656281
vt 0.374996 0.656281
vt 0.374996 0.671844
vt 0.373051 0.671844
vt 0.373051 0.656281
vt 0.374996 0.656281
vt 0.374996 0.671844
vt 0.359379 0.671844
vt 0.359379 0.656281
vt 0.361324 0.656281
vt 0.361324 0.671844
vt 0.359379 0.671844
vt 0.359379 0.656281
vt 0.361324 0.656281
vt 0.361324 0.671844
vt 0.373051 0.671844
vt 0.373051 0.656281
vt 0.374996 0.656281
vt 0.374996 0.671844
vt 0.373051 0.671844
vt 0.373051 0.656281
vt 0.374996 0.656281
vt 0.374996 0.671844
vt 0.359379 0.671844
vt 0.359379 0.656281
vt 0.361324 0.656281
vt 0.361324 0.671844
vt 0.345726 0.658199
vt 0.345726 0.656254
vt 0.357399 0.656254
vt 0.357399 0.658199
vt 0.361351 0.669918
vt 0.361351 0.667973
vt 0.373024 0.667973
vt 0.373024 0.669918
vt 0.345726 0.671871
vt 0.345726 0.669926
vt 0.357399 0.669926
vt 0.357399 0.671871
vt 0.373024 0.671871
vt 0.373024 0.669926
vt 0.361351 0.669926
vt 0.361351 0.671871
vt 0.357426 0.669899
vt 0.357426 0.658226
vt 0.359371 0.658226
vt 0.359371 0.669899
vt 0.373024 0.669918
vt 0.373024 0.667973
vt 0.361351 0.667973
vt 0.361351 0.669918
vt 0.343754 0.669899
vt 0.343754 0.658226
vt 0.345699 0.658226
vt 0.345699 0.669899
vt 0.361351 0.671871
vt 0.361351 0.669926
vt 0.373024 0.669926
vt 0.373024 0.671871
vt 0.343754 0.658199
vt 0.343754 0.656254
vt 0.345699 0.656254
vt 0.345699 0.658199
vt 0.343754 0.671871
vt 0.343754 0.669926
vt 0.345699 0.669926
vt 0.345699 0.671871
vt 0.357426 0.671871
vt 0.357426 0.669926
vt 0.359371 0.669926
vt 0.359371 0.671871
vt 0.357426 0.658199
vt 0.357426 0.656254
vt 0.359371 0.656254
vt 0.359371 0.658199
vt 0.375031 0.671844
vt 0.375031 0.656281
vt 0.390594 0.656281
vt 0.390594 0.671844
vt 0.373051 0.671844
vt 0.373051 0.656281
vt 0.374996 0.656281
vt 0.374996 0.671844
vt 0.359379 0.671844
vt 0.359379 0.656281
vt 0.361324 0.656281
vt 0.361324 0.671844
vt 0.361351 0.671871
vt 0.361351 0.669926
vt 0.373024 0.669926
vt 0.373024 0.671871
vt 0.359379 0.671844
vt 0.359379 0.656281
vt 0.361324 0.656281
vt 0.361324 0.671844
vt 0.373051 0.671844
vt 0.373051 0.656281
vt 0.374996 0.656281
vt 0.374996 0.671844
vt 0.361351 0.671871
vt 0.361351 0.669926
vt 0.373024 0.669926
vt 0.373024 0.671871
vt 0.359379 0.671844
vt 0.359379 0.656281
vt 0.361324 0.656281
vt 0.361324 0.671844
vt 0.373051 0.671844
vt 0.373051 0.656281
vt 0.374996 0.656281
vt 0.374996 0.671844
vt 0.373024 0.671871
vt 0.373024 0.669926
vt 0.361351 0.669926
vt 0.361351 0.671871
vt 0.359379 0.671844
vt 0.359379 0.656281
vt 0.361324 0.656281
vt 0.361324 0.671844
vt 0.373051 0.671844
vt 0.373051 0.656281
vt 0.374996 0.656281
vt 0.374996 0.671844
vt 0.373024 0.671871
vt 0.373024 0.669926
vt 0.361351 0.669926
vt 0.361351 0.671871
f 1/1/1 2/2/1 3/3/1 4/4/1
f 5/5/2 6/6/2 7/7/2 8/8/2
f 8/9/3 7/10/3 9/11/3 10/12/3
f 11/13/4 12/14/4 13/15/4 14/16/4
f 15/17/3 16/18/3 12/19/3 11/20/3
f 17/21/4 18/22/4 19/23/4 20/24/4
f 20/25/5 19/26/5 21/27/5 22/28/5
f 23/29/2 24/30/2 25/31/2 26/32/2
f 27/33/5 28/34/5 24/35/5 23/36/5
f 29/37/1 30/38/1 31/39/1 32/40/1
f 8/41/2 29/42/2 32/43/2 23/44/2
f 33/45/1 34/46/1 35/47/1 36/48/1
f 20/49/4 35/50/4 34/51/4 11/52/4
f 35/53/1 32/54/1 37/55/1 38/56/1
f 23/57/5 32/58/5 35/59/5 20/60/5
f 39/61/1 40/62/1 29/63/1 34/64/1
f 11/65/3 34/66/3 29/67/3 8/68/3
f 6/69/1 41/70/1 9/71/1 7/72/1
f 42/73/1 13/74/1 12/75/1 16/76/1
f 21/77/1 19/78/1 18/79/1 43/80/1
f 24/81/1 28/82/1 44/83/1 25/84/1
f 45/85/6 46/86/6 47/87/6 48/88/6
f 10/89/4 9/90/4 41/91/4 45/92/4
f 48/93/4 44/94/4 28/95/4 27/96/4
f 27/97/4 31/98/4 30/99/4 10/100/4
f 46/101/2 42/102/2 16/103/2 15/104/2
f 22/105/2 21/106/2 43/107/2 47/108/2
f 15/109/2 33/110/2 36/111/2 22/112/2
f 45/113/5 41/114/5 6/115/5 5/116/5
f 14/117/5 13/118/5 42/119/5 46/120/5
f 5/121/5 40/122/5 39/123/5 14/124/5
f 47/125/3 43/126/3 18/127/3 17/128/3
f 26/129/3 25/130/3 44/131/3 48/132/3
f 17/133/3 38/134/3 37/135/3 26/136/3
