v 1.000000 1.000000 0.468750
v 1.000000 0.000000 0.468750
v 0.000000 0.000000 0.468750
v 0.000000 1.000000 0.468750
v 0.000000 1.000000 0.531250
v 0.000000 0.000000 0.531250
v 1.000000 0.000000 0.531250
v 1.000000 1.000000 0.531250
v 0.437500 0.625000 0.468750
v 0.437500 0.625000 0.531250
v 0.562500 0.625000 0.531250
v 0.562500 0.625000 0.468750
v 0.437500 0.000000 0.468750
v 0.437500 0.000000 0.531250
v 0.562500 0.000000 0.531250
v 0.562500 0.000000 0.468750
vn 0.000000 0.000000 -1.000000
vn 0.000000 0.000000 1.000000
vn 0.000000 1.000000 0.000000
vn -1.000000 0.000000 0.000000
vn 1.000000 0.000000 0.000000
vn 0.000000 -1.000000 0.000000
vt 0.453094 0.656219
vt 0.453094 0.640656
vt 0.437531 0.640656
vt 0.437531 0.656219
vt 0.437531 0.656219
vt 0.437531 0.640656
vt 0.453094 0.640656
vt 0.453094 0.656219
vt 0.444340 0.650389
vt 0.444340 0.649416
vt 0.446285 0.649416
vt 0.446285 0.650389
vt 0.445311 0.650372
vt 0.445311 0.640644
vt 0.444338 0.640644
vt 0.444338 0.650372
vt 0.446287 0.650372
vt 0.446287 0.640644
vt 0.445314 0.640644
vt 0.445314 0.650372
vt 0.444340 0.641600
vt 0.444340 0.640627
vt 0.446285 0.640627
vt 0.446285 0.641600
f 1/1/1 2/2/1 3/3/1 4/4/1
f 5/5/2 6/6/2 7/7/2 8/8/2
f 9/9/3 10/10/3 11/11/3 12/12/3
f 9/13/4 13/14/4 14/15/4 10/16/4
f 11/17/5 15/18/5 16/19/5 12/20/5
f 14/21/6 13/22/6 16/23/6 15/24/6
