v 1.000000 1.000000 0.468750
v 1.000000 0.000000 0.468750
v 0.000000 0.000000 0.468750
v 0.000000 1.000000 0.468750
v 0.000000 1.000000 0.531250
v 0.000000 0.000000 0.531250
v 1.000000 0.000000 0.531250
v 1.000000 1.000000 0.531250
v 0.375000 0.500000 0.468750
v 0.375000 0.500000 0.531250
v 0.687500 0.500000 0.531250
v 0.687500 0.500000 0.468750
v 0.375000 0.437500 0.531250
v 0.375000 0.437500 0.468750
v 0.437500 0.437500 0.468750
v 0.437500 0.437500 0.531250
v 0.375000 0.125000 0.468750
v 0.375000 0.125000 0.531250
v 0.437500 0.500000 0.531250
v 0.437500 0.500000 0.468750
v 0.500000 0.500000 0.468750
v 0.500000 0.437500 0.468750
v 0.500000 0.437500 0.531250
v 0.500000 0.500000 0.531250
v 0.687500 0.125000 0.531250
v 0.687500 0.125000 0.468750
v 0.312500 0.437500 0.468750
v 0.312500 0.437500 0.531250
v 0.750000 0.437500 0.531250
v 0.750000 0.437500 0.468750
v 0.312500 0.187500 0.468750
v 0.312500 0.187500 0.531250
v 0.375000 0.312500 0.531250
v 0.375000 0.312500 0.468750
v 0.437500 0.312500 0.468750
v 0.437500 0.312500 0.531250
v 0.750000 0.187500 0.531250
v 0.750000 0.187500 0.468750
v 0.625000 0.312500 0.531250
v 0.625000 0.312500 0.468750
v 0.687500 0.312500 0.468750
v 0.687500 0.312500 0.531250
v 0.625000 0.187500 0.531250
v 0.625000 0.187500 0.468750
v 0.687500 0.187500 0.468750
v 0.687500 0.187500 0.531250
v 0.562500 0.187500 0.531250
v 0.562500 0.125000 0.531250
v 0.562500 0.125000 0.468750
v 0.562500 0.187500 0.468750
v 0.625000 0.125000 0.468750
v 0.625000 0.125000 0.531250
v 0.687500 0.875000 0.468750
v 0.687500 0.875000 0.531250
v 0.812500 0.875000 0.531250
v 0.812500 0.875000 0.468750
v 0.812500 0.187500 0.531250
v 0.812500 0.187500 0.468750
v 0.625000 0.812500 0.468750
v 0.625000 0.812500 0.531250
v 0.687500 0.812500 0.531250
v 0.687500 0.812500 0.468750
v 0.562500 0.750000 0.468750
v 0.562500 0.750000 0.531250
v 0.625000 0.750000 0.531250
v 0.625000 0.750000 0.468750
v 0.562500 0.687500 0.531250
v 0.562500 0.687500 0.468750
v 0.687500 0.687500 0.468750
v 0.687500 0.687500 0.531250
v 0.500000 0.687500 0.468750
v 0.500000 0.687500 0.531250
v 0.500000 0.625000 0.531250
v 0.500000 0.625000 0.468750
v 0.812500 0.625000 0.468750
v 0.812500 0.625000 0.531250
v 0.562500 0.625000 0.531250
v 0.562500 0.625000 0.468750
v 0.437500 0.625000 0.468750
v 0.437500 0.625000 0.531250
v 0.687500 0.625000 0.531250
v 0.687500 0.625000 0.468750
v 0.437500 0.562500 0.531250
v 0.437500 0.562500 0.468750
v 0.750000 0.562500 0.468750
v 0.750000 0.562500 0.531250
v 0.750000 0.625000 0.531250
v 0.750000 0.125000 0.531250
v 0.750000 0.125000 0.468750
v 0.750000 0.625000 0.468750
v 0.375000 0.562500 0.468750
v 0.375000 0.562500 0.531250
v 0.375000 0.062500 0.468750
v 0.375000 0.062500 0.531250
v 0.687500 0.562500 0.531250
v 0.687500 0.062500 0.531250
v 0.687500 0.062500 0.468750
v 0.687500 0.562500 0.468750
v 0.312500 0.500000 0.468750
v 0.312500 0.500000 0.531250
v 0.750000 0.500000 0.531250
v 0.750000 0.500000 0.468750
v 0.312500 0.125000 0.468750
v 0.312500 0.125000 0.531250
v 0.250000 0.437500 0.468750
v 0.250000 0.437500 0.531250
v 0.812500 0.437500 0.531250
v 0.812500 0.437500 0.468750
v 0.250000 0.187500 0.468750
v 0.250000 0.187500 0.531250
vn 0.000000 0.000000 -1.000000
vn 0.000000 0.000000 1.000000
vn 0.000000 1.000000 0.000000
vn 0.000000 -1.000000 0.000000
vn -1.000000 0.000000 0.000000
vn 1.000000 0.000000 0.000000
vt 0.593719 0.843719
vt 0.593719 0.828156
vt 0.578156 0.828156
vt 0.578156 0.843719
vt 0.578156 0.843719
vt 0.578156 0.828156
vt 0.593719 0.828156
vt 0.593719 0.843719
vt 0.583994 0.835936
vt 0.583994 0.834963
vt 0.588858 0.834963
vt 0.588858 0.835936
vt 0.583986 0.835936
vt 0.583986 0.834963
vt 0.584959 0.834963
vt 0.584959 0.835936
vt 0.584959 0.835926
vt 0.584959 0.830090
vt 0.583986 0.830090
vt 0.583986 0.835926
vt 0.584959 0.835936
vt 0.584959 0.834963
vt 0.583986 0.834963
vt 0.583986 0.835936
vt 0.586912 0.835936
vt 0.586912 0.834963
vt 0.585939 0.834963
vt 0.585939 0.835936
vt 0.588865 0.835926
vt 0.588865 0.830090
vt 0.587893 0.830090
vt 0.587893 0.835926
vt 0.583021 0.834959
vt 0.583021 0.833986
vt 0.589830 0.833986
vt 0.589830 0.834959
vt 0.583982 0.834953
vt 0.583982 0.831062
vt 0.583010 0.831062
vt 0.583010 0.834953
vt 0.583982 0.834957
vt 0.583982 0.833012
vt 0.583010 0.833012
vt 0.583010 0.834957
vt 0.585936 0.834957
vt 0.585936 0.833012
vt 0.584963 0.833012
vt 0.584963 0.834957
vt 0.589842 0.834953
vt 0.589842 0.831062
vt 0.588869 0.831062
vt 0.588869 0.834953
vt 0.587893 0.833982
vt 0.587893 0.833010
vt 0.588865 0.833010
vt 0.588865 0.833982
vt 0.583986 0.833006
vt 0.583986 0.832033
vt 0.584959 0.832033
vt 0.584959 0.833006
vt 0.587889 0.833004
vt 0.587889 0.831059
vt 0.586916 0.831059
vt 0.586916 0.833004
vt 0.589842 0.833004
vt 0.589842 0.831059
vt 0.588869 0.831059
vt 0.588869 0.833004
vt 0.583021 0.832029
vt 0.583021 0.831057
vt 0.589830 0.831057
vt 0.589830 0.832029
vt 0.583994 0.831053
vt 0.583994 0.830080
vt 0.588858 0.830080
vt 0.588858 0.831053
vt 0.586912 0.831053
vt 0.586912 0.830080
vt 0.585939 0.830080
vt 0.585939 0.831053
vt 0.587893 0.831053
vt 0.587893 0.830080
vt 0.588865 0.830080
vt 0.588865 0.831053
vt 0.588865 0.831053
vt 0.588865 0.830080
vt 0.587893 0.830080
vt 0.587893 0.831053
vt 0.609344 0.781219
vt 0.609344 0.765656
vt 0.593781 0.765656
vt 0.593781 0.781219
vt 0.593781 0.781219
vt 0.593781 0.765656
vt 0.609344 0.765656
vt 0.609344 0.781219
vt 0.604496 0.779295
vt 0.604496 0.778322
vt 0.606441 0.778322
vt 0.606441 0.779295
vt 0.605467 0.779274
vt 0.605467 0.767601
vt 0.604494 0.767601
vt 0.604494 0.779274
vt 0.606443 0.779276
vt 0.606443 0.768576
vt 0.605471 0.768576
vt 0.605471 0.779276
vt 0.603518 0.778318
vt 0.603518 0.777346
vt 0.604490 0.777346
vt 0.604490 0.778318
vt 0.604490 0.778301
vt 0.604490 0.768574
vt 0.603518 0.768574
vt 0.603518 0.778301
vt 0.602541 0.777342
vt 0.602541 0.776369
vt 0.603514 0.776369
vt 0.603514 0.777342
vt 0.602543 0.777342
vt 0.602543 0.776369
vt 0.604488 0.776369
vt 0.604488 0.777342
vt 0.603514 0.777325
vt 0.603514 0.767597
vt 0.602541 0.767597
vt 0.602541 0.777325
vt 0.601564 0.776365
vt 0.601564 0.775393
vt 0.602537 0.775393
vt 0.602537 0.776365
vt 0.601572 0.776365
vt 0.601572 0.775393
vt 0.606436 0.775393
vt 0.606436 0.776365
vt 0.602537 0.776365
vt 0.602537 0.775393
vt 0.601564 0.775393
vt 0.601564 0.776365
vt 0.602537 0.776365
vt 0.602537 0.775393
vt 0.601564 0.775393
vt 0.601564 0.776365
vt 0.600594 0.775389
vt 0.600594 0.774416
vt 0.604485 0.774416
vt 0.604485 0.775389
vt 0.600595 0.775389
vt 0.600595 0.774416
vt 0.605459 0.774416
vt 0.605459 0.775389
vt 0.601561 0.775385
vt 0.601561 0.772467
vt 0.600588 0.772467
vt 0.600588 0.775385
vt 0.601561 0.775385
vt 0.601561 0.772467
vt 0.600588 0.772467
vt 0.600588 0.775385
vt 0.605467 0.775375
vt 0.605467 0.767593
vt 0.604494 0.767593
vt 0.604494 0.775375
vt 0.599611 0.774412
vt 0.599611 0.773439
vt 0.600584 0.773439
vt 0.600584 0.774412
vt 0.599619 0.774412
vt 0.599619 0.773439
vt 0.604483 0.773439
vt 0.604483 0.774412
vt 0.600584 0.774399
vt 0.600584 0.766617
vt 0.599611 0.766617
vt 0.599611 0.774399
vt 0.600584 0.774406
vt 0.600584 0.770515
vt 0.599611 0.770515
vt 0.599611 0.774406
vt 0.604490 0.774399
vt 0.604490 0.766617
vt 0.603518 0.766617
vt 0.603518 0.774399
vt 0.598646 0.773436
vt 0.598646 0.772463
vt 0.605455 0.772463
vt 0.605455 0.773436
vt 0.598646 0.773436
vt 0.598646 0.772463
vt 0.605455 0.772463
vt 0.605455 0.773436
vt 0.599607 0.773426
vt 0.599607 0.767590
vt 0.598635 0.767590
vt 0.598635 0.773426
vt 0.599607 0.773426
vt 0.599607 0.767590
vt 0.598635 0.767590
vt 0.598635 0.773426
vt 0.597673 0.772459
vt 0.597673 0.771486
vt 0.606428 0.771486
vt 0.606428 0.772459
vt 0.598631 0.772453
vt 0.598631 0.768562
vt 0.597658 0.768562
vt 0.597658 0.772453
vt 0.598631 0.772453
vt 0.598631 0.768562
vt 0.597658 0.768562
vt 0.597658 0.772453
vt 0.606443 0.772453
vt 0.606443 0.768562
vt 0.605471 0.768562
vt 0.605471 0.772453
vt 0.599611 0.771482
vt 0.599611 0.770510
vt 0.600584 0.770510
vt 0.600584 0.771482
vt 0.603518 0.770506
vt 0.603518 0.769533
vt 0.604490 0.769533
vt 0.604490 0.770506
vt 0.597673 0.769529
vt 0.597673 0.768557
vt 0.606428 0.768557
vt 0.606428 0.769529
vt 0.598646 0.768553
vt 0.598646 0.767580
vt 0.605455 0.767580
vt 0.605455 0.768553
vt 0.598646 0.768553
vt 0.598646 0.767580
vt 0.605455 0.767580
vt 0.605455 0.768553
vt 0.603514 0.768553
vt 0.603514 0.767580
vt 0.602541 0.767580
vt 0.602541 0.768553
vt 0.599619 0.767576
vt 0.599619 0.766603
vt 0.604483 0.766603
vt 0.604483 0.767576
vt 0.599619 0.767576
vt 0.599619 0.766603
vt 0.604483 0.766603
vt 0.604483 0.767576
f 1/1/1 2/2/1 3/3/1 4/4/1
f 5/5/2 6/6/2 7/7/2 8/8/2
f 9/9/3 10/10/3 11/11/3 12/12/3
f 13/13/4 14/14/4 15/15/4 16/16/4
f 9/17/5 17/18/5 18/19/5 10/20/5
f 19/21/6 16/22/6 15/23/6 20/24/6
f 21/25/5 22/26/5 23/27/5 24/28/5
f 11/29/6 25/30/6 26/31/6 12/32/6
f 27/33/3 28/34/3 29/35/3 30/36/3
f 27/37/5 31/38/5 32/39/5 28/40/5
f 13/41/6 33/42/6 34/43/6 14/44/6
f 15/45/5 35/46/5 36/47/5 16/48/5
f 29/49/6 37/50/6 38/51/6 30/52/6
f 39/53/4 40/54/4 41/55/4 42/56/4
f 34/57/3 33/58/3 36/59/3 35/60/3
f 39/61/6 43/62/6 44/63/6 40/64/6
f 41/65/5 45/66/5 46/67/5 42/68/5
f 32/69/4 31/70/4 38/71/4 37/72/4
f 18/73/4 17/74/4 26/75/4 25/76/4
f 47/77/6 48/78/6 49/79/6 50/80/6
f 44/81/3 43/82/3 46/83/3 45/84/3
f 44/85/5 51/86/5 52/87/5 43/88/5
f 1/89/1 2/90/1 3/91/1 4/92/1
f 5/93/2 6/94/2 7/95/2 8/96/2
f 53/97/3 54/98/3 55/99/3 56/100/3
f 53/101/5 26/102/5 25/103/5 54/104/5
f 55/105/6 57/106/6 58/107/6 56/108/6
f 59/109/3 60/110/3 61/111/3 62/112/3
f 59/113/5 44/114/5 43/115/5 60/116/5
f 63/117/3 64/118/3 65/119/3 66/120/3
f 67/121/4 68/122/4 69/123/4 70/124/4
f 63/125/5 49/126/5 48/127/5 64/128/5
f 71/129/3 72/130/3 67/131/3 68/132/3
f 73/133/4 74/134/4 75/135/4 76/136/4
f 71/137/5 74/138/5 73/139/5 72/140/5
f 67/141/6 77/142/6 78/143/6 68/144/6
f 79/145/3 80/146/3 81/147/3 82/148/3
f 83/149/4 84/150/4 85/151/4 86/152/4
f 79/153/5 15/154/5 16/155/5 80/156/5
f 73/157/6 23/158/6 22/159/6 74/160/6
f 87/161/6 88/162/6 89/163/6 90/164/6
f 91/165/3 92/166/3 83/167/3 84/168/3
f 10/169/4 9/170/4 12/171/4 11/172/4
f 91/173/5 93/174/5 94/175/5 92/176/5
f 83/177/6 36/178/6 35/179/6 84/180/6
f 95/181/6 96/182/6 97/183/6 98/184/6
f 99/185/3 100/186/3 101/187/3 102/188/3
f 28/189/4 27/190/4 30/191/4 29/192/4
f 99/193/5 103/194/5 104/195/5 100/196/5
f 10/197/6 18/198/6 17/199/6 9/200/6
f 105/201/3 106/202/3 107/203/3 108/204/3
f 105/205/5 109/206/5 110/207/5 106/208/5
f 28/209/6 32/210/6 31/211/6 27/212/6
f 30/213/5 38/214/5 37/215/5 29/216/5
f 33/217/4 34/218/4 35/219/4 36/220/4
f 40/221/3 39/222/3 42/223/3 41/224/3
f 110/225/4 109/226/4 58/227/4 57/228/4
f 31/229/3 32/230/3 37/231/3 38/232/3
f 104/233/4 103/234/4 89/235/4 88/236/4
f 43/237/6 52/238/6 51/239/6 44/240/6
f 17/241/3 18/242/3 25/243/3 26/244/3
f 94/245/4 93/246/4 97/247/4 96/248/4
