v 1.000000 1.000000 0.468750
v 1.000000 0.000000 0.468750
v 0.000000 0.000000 0.468750
v 0.000000 1.000000 0.468750
v 0.000000 1.000000 0.531250
v 0.000000 0.000000 0.531250
v 1.000000 0.000000 0.531250
v 1.000000 1.000000 0.531250
v 0.812500 0.875000 0.468750
v 0.812500 0.875000 0.531250
v 0.937500 0.875000 0.531250
v 0.937500 0.875000 0.468750
v 0.812500 0.812500 0.468750
v 0.812500 0.812500 0.531250
v 0.937500 0.750000 0.531250
v 0.937500 0.750000 0.468750
v 0.750000 0.812500 0.468750
v 0.750000 0.812500 0.531250
v 0.750000 0.750000 0.468750
v 0.750000 0.750000 0.531250
v 0.875000 0.750000 0.531250
v 0.875000 0.750000 0.468750
v 0.687500 0.750000 0.468750
v 0.687500 0.750000 0.531250
v 0.687500 0.687500 0.468750
v 0.687500 0.687500 0.531250
v 0.812500 0.687500 0.531250
v 0.812500 0.687500 0.468750
v 0.875000 0.687500 0.468750
v 0.875000 0.687500 0.531250
v 0.625000 0.687500 0.468750
v 0.625000 0.687500 0.531250
v 0.625000 0.625000 0.468750
v 0.625000 0.625000 0.531250
v 0.750000 0.625000 0.531250
v 0.750000 0.625000 0.468750
v 0.812500 0.625000 0.468750
v 0.812500 0.625000 0.531250
v 0.562500 0.625000 0.468750
v 0.562500 0.625000 0.531250
v 0.562500 0.562500 0.468750
v 0.562500 0.562500 0.531250
v 0.687500 0.562500 0.531250
v 0.687500 0.562500 0.468750
v 0.750000 0.562500 0.468750
v 0.750000 0.562500 0.531250
v 0.500000 0.562500 0.468750
v 0.500000 0.562500 0.531250
v 0.500000 0.500000 0.468750
v 0.500000 0.500000 0.531250
v 0.625000 0.500000 0.531250
v 0.625000 0.500000 0.468750
v 0.687500 0.500000 0.468750
v 0.687500 0.500000 0.531250
v 0.437500 0.500000 0.468750
v 0.437500 0.500000 0.531250
v 0.437500 0.437500 0.468750
v 0.437500 0.437500 0.531250
v 0.562500 0.437500 0.531250
v 0.562500 0.437500 0.468750
v 0.625000 0.437500 0.468750
v 0.625000 0.437500 0.531250
v 0.375000 0.437500 0.468750
v 0.375000 0.437500 0.531250
v 0.375000 0.375000 0.468750
v 0.375000 0.375000 0.531250
v 0.500000 0.375000 0.531250
v 0.500000 0.375000 0.468750
v 0.562500 0.375000 0.468750
v 0.562500 0.375000 0.531250
v 0.312500 0.375000 0.468750
v 0.312500 0.375000 0.531250
v 0.312500 0.312500 0.468750
v 0.312500 0.312500 0.531250
v 0.437500 0.312500 0.531250
v 0.437500 0.312500 0.468750
v 0.500000 0.312500 0.468750
v 0.500000 0.312500 0.531250
v 0.250000 0.312500 0.468750
v 0.250000 0.312500 0.531250
v 0.250000 0.250000 0.468750
v 0.250000 0.250000 0.531250
v 0.375000 0.250000 0.531250
v 0.375000 0.250000 0.468750
v 0.437500 0.250000 0.468750
v 0.437500 0.250000 0.531250
v 0.187500 0.250000 0.468750
v 0.187500 0.250000 0.531250
v 0.187500 0.187500 0.468750
v 0.187500 0.187500 0.531250
v 0.312500 0.187500 0.531250
v 0.312500 0.187500 0.468750
v 0.375000 0.187500 0.468750
v 0.375000 0.187500 0.531250
v 0.125000 0.187500 0.468750
v 0.125000 0.187500 0.531250
v 0.125000 0.062500 0.468750
v 0.125000 0.062500 0.531250
v 0.250000 0.125000 0.531250
v 0.250000 0.125000 0.468750
v 0.312500 0.125000 0.468750
v 0.312500 0.125000 0.531250
v 0.250000 0.062500 0.468750
v 0.250000 0.062500 0.531250
vn 0.000000 0.000000 -1.000000
vn 0.000000 0.000000 1.000000
vn 0.000000 1.000000 0.000000
vn -1.000000 0.000000 0.000000
vn 1.000000 0.000000 0.000000
vn 0.000000 -1.000000 0.000000
vt 0.609344 0.687469
vt 0.609344 0.671906
vt 0.593781 0.671906
vt 0.593781 0.687469
vt 0.593781 0.687469
vt 0.593781 0.671906
vt 0.609344 0.671906
vt 0.609344 0.687469
vt 0.606449 0.685545
vt 0.606449 0.684572
vt 0.608395 0.684572
vt 0.608395 0.685545
vt 0.607420 0.685545
vt 0.607420 0.684572
vt 0.606447 0.684572
vt 0.606447 0.685545
vt 0.608397 0.685543
vt 0.608397 0.683598
vt 0.607424 0.683598
vt 0.607424 0.685543
vt 0.605471 0.684568
vt 0.605471 0.683596
vt 0.606443 0.683596
vt 0.606443 0.684568
vt 0.606443 0.684568
vt 0.606443 0.683596
vt 0.605471 0.683596
vt 0.605471 0.684568
vt 0.607424 0.684568
vt 0.607424 0.683596
vt 0.608397 0.683596
vt 0.608397 0.684568
vt 0.604494 0.683592
vt 0.604494 0.682619
vt 0.605467 0.682619
vt 0.605467 0.683592
vt 0.605467 0.683592
vt 0.605467 0.682619
vt 0.604494 0.682619
vt 0.604494 0.683592
vt 0.606447 0.683592
vt 0.606447 0.682619
vt 0.607420 0.682619
vt 0.607420 0.683592
vt 0.607420 0.683592
vt 0.607420 0.682619
vt 0.606447 0.682619
vt 0.606447 0.683592
vt 0.603518 0.682615
vt 0.603518 0.681643
vt 0.604490 0.681643
vt 0.604490 0.682615
vt 0.604490 0.682615
vt 0.604490 0.681643
vt 0.603518 0.681643
vt 0.603518 0.682615
vt 0.605471 0.682615
vt 0.605471 0.681643
vt 0.606443 0.681643
vt 0.606443 0.682615
vt 0.606443 0.682615
vt 0.606443 0.681643
vt 0.605471 0.681643
vt 0.605471 0.682615
vt 0.602541 0.681639
vt 0.602541 0.680666
vt 0.603514 0.680666
vt 0.603514 0.681639
vt 0.603514 0.681639
vt 0.603514 0.680666
vt 0.602541 0.680666
vt 0.602541 0.681639
vt 0.604494 0.681639
vt 0.604494 0.680666
vt 0.605467 0.680666
vt 0.605467 0.681639
vt 0.605467 0.681639
vt 0.605467 0.680666
vt 0.604494 0.680666
vt 0.604494 0.681639
vt 0.601564 0.680662
vt 0.601564 0.679689
vt 0.602537 0.679689
vt 0.602537 0.680662
vt 0.602537 0.680662
vt 0.602537 0.679689
vt 0.601564 0.679689
vt 0.601564 0.680662
vt 0.603518 0.680662
vt 0.603518 0.679689
vt 0.604490 0.679689
vt 0.604490 0.680662
vt 0.604490 0.680662
vt 0.604490 0.679689
vt 0.603518 0.679689
vt 0.603518 0.680662
vt 0.600588 0.679686
vt 0.600588 0.678713
vt 0.601561 0.678713
vt 0.601561 0.679686
vt 0.601561 0.679686
vt 0.601561 0.678713
vt 0.600588 0.678713
vt 0.600588 0.679686
vt 0.602541 0.679686
vt 0.602541 0.678713
vt 0.603514 0.678713
vt 0.603514 0.679686
vt 0.603514 0.679686
vt 0.603514 0.678713
vt 0.602541 0.678713
vt 0.602541 0.679686
vt 0.599611 0.678709
vt 0.599611 0.677736
vt 0.600584 0.677736
vt 0.600584 0.678709
vt 0.600584 0.678709
vt 0.600584 0.677736
vt 0.599611 0.677736
vt 0.599611 0.678709
vt 0.601564 0.678709
vt 0.601564 0.677736
vt 0.602537 0.677736
vt 0.602537 0.678709
vt 0.602537 0.678709
vt 0.602537 0.677736
vt 0.601564 0.677736
vt 0.601564 0.678709
vt 0.598635 0.677732
vt 0.598635 0.676760
vt 0.599607 0.676760
vt 0.599607 0.677732
vt 0.599607 0.677732
vt 0.599607 0.676760
vt 0.598635 0.676760
vt 0.598635 0.677732
vt 0.600588 0.677732
vt 0.600588 0.676760
vt 0.601561 0.676760
vt 0.601561 0.677732
vt 0.601561 0.677732
vt 0.601561 0.676760
vt 0.600588 0.676760
vt 0.600588 0.677732
vt 0.597658 0.676756
vt 0.597658 0.675783
vt 0.598631 0.675783
vt 0.598631 0.676756
vt 0.598631 0.676756
vt 0.598631 0.675783
vt 0.597658 0.675783
vt 0.597658 0.676756
vt 0.599611 0.676756
vt 0.599611 0.675783
vt 0.600584 0.675783
vt 0.600584 0.676756
vt 0.600584 0.676756
vt 0.600584 0.675783
vt 0.599611 0.675783
vt 0.599611 0.676756
vt 0.596682 0.675779
vt 0.596682 0.674807
vt 0.597654 0.674807
vt 0.597654 0.675779
vt 0.597654 0.675779
vt 0.597654 0.674807
vt 0.596682 0.674807
vt 0.596682 0.675779
vt 0.598635 0.675779
vt 0.598635 0.674807
vt 0.599607 0.674807
vt 0.599607 0.675779
vt 0.599607 0.675779
vt 0.599607 0.674807
vt 0.598635 0.674807
vt 0.598635 0.675779
vt 0.595705 0.674803
vt 0.595705 0.673830
vt 0.596678 0.673830
vt 0.596678 0.674803
vt 0.596678 0.674801
vt 0.596678 0.672855
vt 0.595705 0.672855
vt 0.595705 0.674801
vt 0.597658 0.674803
vt 0.597658 0.673830
vt 0.598631 0.673830
vt 0.598631 0.674803
vt 0.598631 0.674803
vt 0.598631 0.673830
vt 0.597658 0.673830
vt 0.597658 0.674803
vt 0.595707 0.673826
vt 0.595707 0.672853
vt 0.597652 0.672853
vt 0.597652 0.673826
vt 0.597654 0.673826
vt 0.597654 0.672853
vt 0.596682 0.672853
vt 0.596682 0.673826
f 1/1/1 2/2/1 3/3/1 4/4/1
f 5/5/2 6/6/2 7/7/2 8/8/2
f 9/9/3 10/10/3 11/11/3 12/12/3
f 9/13/4 13/14/4 14/15/4 10/16/4
f 11/17/5 15/18/5 16/19/5 12/20/5
f 17/21/3 18/22/3 14/23/3 13/24/3
f 17/25/4 19/26/4 20/27/4 18/28/4
f 21/29/6 22/30/6 16/31/6 15/32/6
f 23/33/3 24/34/3 20/35/3 19/36/3
f 23/37/4 25/38/4 26/39/4 24/40/4
f 27/41/6 28/42/6 29/43/6 30/44/6
f 21/45/5 30/46/5 29/47/5 22/48/5
f 31/49/3 32/50/3 26/51/3 25/52/3
f 31/53/4 33/54/4 34/55/4 32/56/4
f 35/57/6 36/58/6 37/59/6 38/60/6
f 27/61/5 38/62/5 37/63/5 28/64/5
f 39/65/3 40/66/3 34/67/3 33/68/3
f 39/69/4 41/70/4 42/71/4 40/72/4
f 43/73/6 44/74/6 45/75/6 46/76/6
f 35/77/5 46/78/5 45/79/5 36/80/5
f 47/81/3 48/82/3 42/83/3 41/84/3
f 47/85/4 49/86/4 50/87/4 48/88/4
f 51/89/6 52/90/6 53/91/6 54/92/6
f 43/93/5 54/94/5 53/95/5 44/96/5
f 55/97/3 56/98/3 50/99/3 49/100/3
f 55/101/4 57/102/4 58/103/4 56/104/4
f 59/105/6 60/106/6 61/107/6 62/108/6
f 51/109/5 62/110/5 61/111/5 52/112/5
f 63/113/3 64/114/3 58/115/3 57/116/3
f 63/117/4 65/118/4 66/119/4 64/120/4
f 67/121/6 68/122/6 69/123/6 70/124/6
f 59/125/5 70/126/5 69/127/5 60/128/5
f 71/129/3 72/130/3 66/131/3 65/132/3
f 71/133/4 73/134/4 74/135/4 72/136/4
f 75/137/6 76/138/6 77/139/6 78/140/6
f 67/141/5 78/142/5 77/143/5 68/144/5
f 79/145/3 80/146/3 74/147/3 73/148/3
f 79/149/4 81/150/4 82/151/4 80/152/4
f 83/153/6 84/154/6 85/155/6 86/156/6
f 75/157/5 86/158/5 85/159/5 76/160/5
f 87/161/3 88/162/3 82/163/3 81/164/3
f 87/165/4 89/166/4 90/167/4 88/168/4
f 91/169/6 92/170/6 93/171/6 94/172/6
f 83/173/5 94/174/5 93/175/5 84/176/5
f 95/177/3 96/178/3 90/179/3 89/180/3
f 95/181/4 97/182/4 98/183/4 96/184/4
f 99/185/6 100/186/6 101/187/6 102/188/6
f 91/189/5 102/190/5 101/191/5 92/192/5
f 98/193/6 97/194/6 103/195/6 104/196/6
f 99/197/5 104/198/5 103/199/5 100/200/5
