v 1.000000 1.000000 0.468750
v 1.000000 0.000000 0.468750
v 0.000000 0.000000 0.468750
v 0.000000 1.000000 0.468750
v 0.000000 1.000000 0.531250
v 0.000000 0.000000 0.531250
v 1.000000 0.000000 0.531250
v 1.000000 1.000000 0.531250
v 0.375000 0.875000 0.468750
v 0.375000 0.875000 0.531250
v 0.687500 0.875000 0.531250
v 0.687500 0.875000 0.468750
v 0.375000 0.375000 0.468750
v 0.375000 0.375000 0.531250
v 0.687500 0.500000 0.531250
v 0.687500 0.500000 0.468750
v 0.312500 0.812500 0.468750
v 0.312500 0.812500 0.531250
v 0.875000 0.812500 0.531250
v 0.875000 0.812500 0.468750
v 0.312500 0.750000 0.531250
v 0.312500 0.750000 0.468750
v 0.375000 0.750000 0.468750
v 0.375000 0.750000 0.531250
v 0.312500 0.312500 0.468750
v 0.312500 0.312500 0.531250
v 0.875000 0.250000 0.531250
v 0.875000 0.250000 0.468750
v 0.375000 0.687500 0.531250
v 0.375000 0.687500 0.468750
v 0.625000 0.687500 0.468750
v 0.625000 0.687500 0.531250
v 0.625000 0.625000 0.468750
v 0.625000 0.625000 0.531250
v 0.562500 0.625000 0.468750
v 0.562500 0.625000 0.531250
v 0.937500 0.625000 0.531250
v 0.937500 0.625000 0.468750
v 0.562500 0.562500 0.468750
v 0.562500 0.562500 0.531250
v 0.687500 0.562500 0.531250
v 0.687500 0.562500 0.468750
v 0.750000 0.562500 0.468750
v 0.750000 0.562500 0.531250
v 0.937500 0.312500 0.531250
v 0.937500 0.312500 0.468750
v 0.500000 0.562500 0.468750
v 0.500000 0.562500 0.531250
v 0.500000 0.500000 0.468750
v 0.500000 0.500000 0.531250
v 0.625000 0.500000 0.531250
v 0.625000 0.500000 0.468750
v 0.750000 0.312500 0.468750
v 0.750000 0.312500 0.531250
v 0.437500 0.500000 0.468750
v 0.437500 0.500000 0.531250
v 0.437500 0.437500 0.468750
v 0.437500 0.437500 0.531250
v 0.562500 0.437500 0.531250
v 0.562500 0.437500 0.468750
v 0.625000 0.437500 0.468750
v 0.625000 0.437500 0.531250
v 0.375000 0.437500 0.468750
v 0.375000 0.437500 0.531250
v 0.500000 0.375000 0.531250
v 0.500000 0.375000 0.468750
v 0.562500 0.375000 0.468750
v 0.562500 0.375000 0.531250
v 0.312500 0.375000 0.468750
v 0.312500 0.375000 0.531250
v 0.437500 0.312500 0.531250
v 0.437500 0.312500 0.468750
v 0.500000 0.312500 0.531250
v 0.500000 0.312500 0.468750
v 0.250000 0.312500 0.468750
v 0.250000 0.312500 0.531250
v 0.250000 0.250000 0.468750
v 0.250000 0.250000 0.531250
v 0.375000 0.250000 0.531250
v 0.375000 0.250000 0.468750
v 0.437500 0.250000 0.531250
v 0.437500 0.250000 0.468750
v 0.812500 0.312500 0.468750
v 0.812500 0.250000 0.468750
v 0.812500 0.250000 0.531250
v 0.812500 0.312500 0.531250
v 0.187500 0.250000 0.468750
v 0.187500 0.250000 0.531250
v 0.187500 0.187500 0.468750
v 0.187500 0.187500 0.531250
v 0.312500 0.187500 0.531250
v 0.312500 0.187500 0.468750
v 0.375000 0.187500 0.468750
v 0.375000 0.187500 0.531250
v 0.125000 0.187500 0.468750
v 0.125000 0.187500 0.531250
v 0.125000 0.062500 0.468750
v 0.125000 0.062500 0.531250
v 0.250000 0.125000 0.531250
v 0.250000 0.125000 0.468750
v 0.312500 0.125000 0.468750
v 0.312500 0.125000 0.531250
v 0.250000 0.062500 0.468750
v 0.250000 0.062500 0.531250
vn 0.000000 0.000000 -1.000000
vn 0.000000 0.000000 1.000000
vn 0.000000 1.000000 0.000000
vn -1.000000 0.000000 0.000000
vn 1.000000 0.000000 0.000000
vn 0.000000 -1.000000 0.000000
vt 0.609344 0.640594
vt 0.609344 0.625031
vt 0.593781 0.625031
vt 0.593781 0.640594
vt 0.593781 0.640594
vt 0.593781 0.625031
vt 0.609344 0.625031
vt 0.609344 0.640594
vt 0.599619 0.638670
vt 0.599619 0.637697
vt 0.604483 0.637697
vt 0.604483 0.638670
vt 0.600584 0.638657
vt 0.600584 0.630875
vt 0.599611 0.630875
vt 0.599611 0.638657
vt 0.604490 0.638660
vt 0.604490 0.632824
vt 0.603518 0.632824
vt 0.603518 0.638660
vt 0.598650 0.637693
vt 0.598650 0.636721
vt 0.607405 0.636721
vt 0.607405 0.637693
vt 0.598635 0.637693
vt 0.598635 0.636721
vt 0.599607 0.636721
vt 0.599607 0.637693
vt 0.599607 0.637680
vt 0.599607 0.629898
vt 0.598635 0.629898
vt 0.598635 0.637680
vt 0.607420 0.637678
vt 0.607420 0.628923
vt 0.606447 0.628923
vt 0.606447 0.637678
vt 0.599617 0.636717
vt 0.599617 0.635744
vt 0.603508 0.635744
vt 0.603508 0.636717
vt 0.604490 0.635740
vt 0.604490 0.634768
vt 0.603518 0.634768
vt 0.603518 0.635740
vt 0.602551 0.634764
vt 0.602551 0.633791
vt 0.608387 0.633791
vt 0.608387 0.634764
vt 0.603514 0.634764
vt 0.603514 0.633791
vt 0.602541 0.633791
vt 0.602541 0.634764
vt 0.604494 0.634764
vt 0.604494 0.633791
vt 0.605467 0.633791
vt 0.605467 0.634764
vt 0.608397 0.634756
vt 0.608397 0.629892
vt 0.607424 0.629892
vt 0.607424 0.634756
vt 0.601564 0.633787
vt 0.601564 0.632814
vt 0.602537 0.632814
vt 0.602537 0.633787
vt 0.602537 0.633787
vt 0.602537 0.632814
vt 0.601564 0.632814
vt 0.601564 0.633787
vt 0.603518 0.633787
vt 0.603518 0.632814
vt 0.604490 0.632814
vt 0.604490 0.633787
vt 0.606443 0.633781
vt 0.606443 0.629890
vt 0.605471 0.629890
vt 0.605471 0.633781
vt 0.600588 0.632811
vt 0.600588 0.631838
vt 0.601561 0.631838
vt 0.601561 0.632811
vt 0.601561 0.632811
vt 0.601561 0.631838
vt 0.600588 0.631838
vt 0.600588 0.632811
vt 0.602541 0.632811
vt 0.602541 0.631838
vt 0.603514 0.631838
vt 0.603514 0.632811
vt 0.603514 0.632811
vt 0.603514 0.631838
vt 0.602541 0.631838
vt 0.602541 0.632811
vt 0.599611 0.631834
vt 0.599611 0.630861
vt 0.600584 0.630861
vt 0.600584 0.631834
vt 0.601564 0.631834
vt 0.601564 0.630861
vt 0.602537 0.630861
vt 0.602537 0.631834
vt 0.602537 0.631834
vt 0.602537 0.630861
vt 0.601564 0.630861
vt 0.601564 0.631834
vt 0.598635 0.630857
vt 0.598635 0.629885
vt 0.599607 0.629885
vt 0.599607 0.630857
vt 0.600601 0.630857
vt 0.600601 0.629885
vt 0.608383 0.629885
vt 0.608383 0.630857
vt 0.601561 0.630857
vt 0.601561 0.629885
vt 0.600588 0.629885
vt 0.600588 0.630857
vt 0.597658 0.629881
vt 0.597658 0.628908
vt 0.598631 0.628908
vt 0.598631 0.629881
vt 0.598631 0.629881
vt 0.598631 0.628908
vt 0.597658 0.628908
vt 0.597658 0.629881
vt 0.599625 0.629881
vt 0.599625 0.628908
vt 0.607407 0.628908
vt 0.607407 0.629881
vt 0.600584 0.629881
vt 0.600584 0.628908
vt 0.599611 0.628908
vt 0.599611 0.629881
vt 0.607420 0.629881
vt 0.607420 0.628908
vt 0.606447 0.628908
vt 0.606447 0.629881
vt 0.596682 0.628904
vt 0.596682 0.627932
vt 0.597654 0.627932
vt 0.597654 0.628904
vt 0.597654 0.628904
vt 0.597654 0.627932
vt 0.596682 0.627932
vt 0.596682 0.628904
vt 0.598635 0.628904
vt 0.598635 0.627932
vt 0.599607 0.627932
vt 0.599607 0.628904
vt 0.599607 0.628904
vt 0.599607 0.627932
vt 0.598635 0.627932
vt 0.598635 0.628904
vt 0.595705 0.627928
vt 0.595705 0.626955
vt 0.596678 0.626955
vt 0.596678 0.627928
vt 0.596678 0.627926
vt 0.596678 0.625980
vt 0.595705 0.625980
vt 0.595705 0.627926
vt 0.597658 0.627928
vt 0.597658 0.626955
vt 0.598631 0.626955
vt 0.598631 0.627928
vt 0.598631 0.627928
vt 0.598631 0.626955
vt 0.597658 0.626955
vt 0.597658 0.627928
vt 0.595707 0.626951
vt 0.595707 0.625978
vt 0.597652 0.625978
vt 0.597652 0.626951
vt 0.597654 0.626951
vt 0.597654 0.625978
vt 0.596682 0.625978
vt 0.596682 0.626951
f 1/1/1 2/2/1 3/3/1 4/4/1
f 5/5/2 6/6/2 7/7/2 8/8/2
f 9/9/3 10/10/3 11/11/3 12/12/3
f 9/13/4 13/14/4 14/15/4 10/16/4
f 11/17/5 15/18/5 16/19/5 12/20/5
f 17/21/3 18/22/3 19/23/3 20/24/3
f 21/25/6 22/26/6 23/27/6 24/28/6
f 17/29/4 25/30/4 26/31/4 18/32/4
f 19/33/5 27/34/5 28/35/5 20/36/5
f 29/37/6 30/38/6 31/39/6 32/40/6
f 31/41/4 33/42/4 34/43/4 32/44/4
f 35/45/3 36/46/3 37/47/3 38/48/3
f 35/49/4 39/50/4 40/51/4 36/52/4
f 41/53/6 42/54/6 43/55/6 44/56/6
f 37/57/5 45/58/5 46/59/5 38/60/5
f 47/61/3 48/62/3 40/63/3 39/64/3
f 47/65/4 49/66/4 50/67/4 48/68/4
f 51/69/6 52/70/6 16/71/6 15/72/6
f 43/73/4 53/74/4 54/75/4 44/76/4
f 55/77/3 56/78/3 50/79/3 49/80/3
f 55/81/4 57/82/4 58/83/4 56/84/4
f 59/85/6 60/86/6 61/87/6 62/88/6
f 51/89/5 62/90/5 61/91/5 52/92/5
f 63/93/3 64/94/3 58/95/3 57/96/3
f 65/97/6 66/98/6 67/99/6 68/100/6
f 59/101/5 68/102/5 67/103/5 60/104/5
f 69/105/3 70/106/3 14/107/3 13/108/3
f 71/109/6 72/110/6 46/111/6 45/112/6
f 65/113/5 73/114/5 74/115/5 66/116/5
f 75/117/3 76/118/3 26/119/3 25/120/3
f 75/121/4 77/122/4 78/123/4 76/124/4
f 79/125/6 80/126/6 28/127/6 27/128/6
f 71/129/5 81/130/5 82/131/5 72/132/5
f 83/133/4 84/134/4 85/135/4 86/136/4
f 87/137/3 88/138/3 78/139/3 77/140/3
f 87/141/4 89/142/4 90/143/4 88/144/4
f 91/145/6 92/146/6 93/147/6 94/148/6
f 79/149/5 94/150/5 93/151/5 80/152/5
f 95/153/3 96/154/3 90/155/3 89/156/3
f 95/157/4 97/158/4 98/159/4 96/160/4
f 99/161/6 100/162/6 101/163/6 102/164/6
f 91/165/5 102/166/5 101/167/5 92/168/5
f 98/169/6 97/170/6 103/171/6 104/172/6
f 99/173/5 104/174/5 103/175/5 100/176/5
