v 0.000000 0.562500 0.000000
v 0.000000 0.562500 1.000000
v 1.000000 0.562500 1.000000
v 1.000000 0.562500 0.000000
v 0.937500 1.000000 0.500000
v 0.937500 0.562500 0.500000
v 0.062500 0.562500 0.500000
v 0.062500 1.000000 0.500000
v 0.000000 0.000000 1.000000
v 0.000000 0.000000 0.000000
v 1.000000 0.000000 0.000000
v 1.000000 0.000000 1.000000
vn 0.000000 1.000000 0.000000
vn 0.000000 0.000000 -1.000000
vn 0.000000 0.000000 1.000000
vn 0.000000 -1.000000 0.000000
vn -1.000000 0.000000 0.000000
vn 1.000000 0.000000 0.000000
vt 0.203156 0.640594
vt 0.203156 0.625031
vt 0.218719 0.625031
vt 0.218719 0.640594
vt 0.172878 0.631823
vt 0.172878 0.625013
vt 0.186497 0.625013
vt 0.186497 0.631823
vt 0.172878 0.631823
vt 0.172878 0.625013
vt 0.186497 0.625013
vt 0.186497 0.631823
vt 0.156281 0.640594
vt 0.156281 0.625031
vt 0.171844 0.625031
vt 0.171844 0.640594
vt 0.187531 0.633772
vt 0.187531 0.625017
vt 0.203094 0.625017
vt 0.203094 0.633772
vt 0.187531 0.633772
vt 0.187531 0.625017
vt 0.203094 0.625017
vt 0.203094 0.633772
vt 0.187531 0.633772
vt 0.187531 0.625017
vt 0.203094 0.625017
vt 0.203094 0.633772
vt 0.187531 0.633772
vt 0.187531 0.625017
vt 0.203094 0.625017
vt 0.203094 0.633772
f 1/1/1 2/2/1 3/3/1 4/4/1
f 5/5/2 6/6/2 7/7/2 8/8/2
f 8/9/3 7/10/3 6/11/3 5/12/3
f 9/13/4 10/14/4 11/15/4 12/16/4
f 4/17/2 11/18/2 10/19/2 1/20/2
f 2/21/3 9/22/3 12/23/3 3/24/3
f 1/25/5 10/26/5 9/27/5 2/28/5
f 3/29/6 12/30/6 11/31/6 4/32/6
