v 1.000000 1.000000 0.468750
v 1.000000 0.000000 0.468750
v 0.000000 0.000000 0.468750
v 0.000000 1.000000 0.468750
v 0.000000 1.000000 0.531250
v 0.000000 0.000000 0.531250
v 1.000000 0.000000 0.531250
v 1.000000 1.000000 0.531250
v 0.250000 0.937500 0.468750
v 0.250000 0.937500 0.531250
v 0.750000 0.937500 0.531250
v 0.750000 0.937500 0.468750
v 0.250000 0.062500 0.468750
v 0.250000 0.062500 0.531250
v 0.750000 0.062500 0.531250
v 0.750000 0.062500 0.468750
v 0.187500 0.875000 0.468750
v 0.187500 0.875000 0.531250
v 0.812500 0.875000 0.531250
v 0.812500 0.875000 0.468750
v 0.187500 0.125000 0.468750
v 0.187500 0.125000 0.531250
v 0.312500 0.812500 0.531250
v 0.312500 0.812500 0.468750
v 0.687500 0.812500 0.468750
v 0.687500 0.812500 0.531250
v 0.812500 0.125000 0.531250
v 0.812500 0.125000 0.468750
v 0.125000 0.812500 0.468750
v 0.125000 0.812500 0.531250
v 0.875000 0.812500 0.531250
v 0.875000 0.812500 0.468750
v 0.125000 0.187500 0.468750
v 0.125000 0.187500 0.531250
v 0.312500 0.187500 0.531250
v 0.312500 0.187500 0.468750
v 0.687500 0.187500 0.468750
v 0.687500 0.187500 0.531250
v 0.875000 0.187500 0.531250
v 0.875000 0.187500 0.468750
v 0.062500 0.750000 0.468750
v 0.062500 0.750000 0.531250
v 0.937500 0.750000 0.531250
v 0.937500 0.750000 0.468750
v 0.062500 0.250000 0.468750
v 0.062500 0.250000 0.531250
v 0.187500 0.687500 0.531250
v 0.187500 0.687500 0.468750
v 0.812500 0.687500 0.468750
v 0.812500 0.687500 0.531250
v 0.375000 0.750000 0.531250
v 0.375000 0.250000 0.531250
v 0.375000 0.250000 0.468750
v 0.375000 0.750000 0.468750
v 0.625000 0.750000 0.468750
v 0.625000 0.250000 0.468750
v 0.625000 0.250000 0.531250
v 0.625000 0.750000 0.531250
v 0.937500 0.250000 0.531250
v 0.937500 0.250000 0.468750
v 0.187500 0.312500 0.531250
v 0.187500 0.312500 0.468750
v 0.250000 0.625000 0.531250
v 0.250000 0.625000 0.468750
v 0.750000 0.625000 0.468750
v 0.750000 0.625000 0.531250
v 0.375000 0.687500 0.468750
v 0.375000 0.687500 0.531250
v 0.625000 0.687500 0.531250
v 0.625000 0.687500 0.468750
v 0.437500 0.687500 0.531250
v 0.437500 0.312500 0.531250
v 0.437500 0.312500 0.468750
v 0.437500 0.687500 0.468750
v 0.562500 0.687500 0.468750
v 0.562500 0.312500 0.468750
v 0.562500 0.312500 0.531250
v 0.562500 0.687500 0.531250
v 0.812500 0.312500 0.468750
v 0.812500 0.312500 0.531250
v 0.312500 0.562500 0.531250
v 0.312500 0.562500 0.468750
v 0.687500 0.562500 0.468750
v 0.687500 0.562500 0.531250
v 0.312500 0.625000 0.468750
v 0.312500 0.375000 0.468750
v 0.312500 0.375000 0.531250
v 0.312500 0.625000 0.531250
v 0.437500 0.625000 0.468750
v 0.437500 0.625000 0.531250
v 0.562500 0.625000 0.531250
v 0.562500 0.625000 0.468750
v 0.687500 0.625000 0.531250
v 0.687500 0.375000 0.531250
v 0.687500 0.375000 0.468750
v 0.687500 0.625000 0.468750
v 0.375000 0.562500 0.468750
v 0.375000 0.437500 0.468750
v 0.375000 0.437500 0.531250
v 0.375000 0.562500 0.531250
v 0.625000 0.562500 0.531250
v 0.625000 0.437500 0.531250
v 0.625000 0.437500 0.468750
v 0.625000 0.562500 0.468750
v 0.312500 0.437500 0.468750
v 0.312500 0.437500 0.531250
v 0.687500 0.437500 0.531250
v 0.687500 0.437500 0.468750
v 0.437500 0.375000 0.531250
v 0.437500 0.375000 0.468750
v 0.562500 0.375000 0.468750
v 0.562500 0.375000 0.531250
v 0.250000 0.375000 0.468750
v 0.250000 0.375000 0.531250
v 0.750000 0.375000 0.531250
v 0.750000 0.375000 0.468750
v 0.375000 0.312500 0.531250
v 0.375000 0.312500 0.468750
v 0.625000 0.312500 0.468750
v 0.625000 0.312500 0.531250
vn 0.000000 0.000000 -1.000000
vn 0.000000 0.000000 1.000000
vn 0.000000 1.000000 0.000000
vn -1.000000 0.000000 0.000000
vn 1.000000 0.000000 0.000000
vn 0.000000 -1.000000 0.000000
vt 0.609344 0.578094
vt 0.609344 0.562531
vt 0.593781 0.562531
vt 0.593781 0.578094
vt 0.593781 0.578094
vt 0.593781 0.562531
vt 0.609344 0.562531
vt 0.609344 0.578094
vt 0.597672 0.577147
vt 0.597672 0.576174
vt 0.605453 0.576174
vt 0.605453 0.577147
vt 0.598631 0.577122
vt 0.598631 0.563503
vt 0.597658 0.563503
vt 0.597658 0.577122
vt 0.605467 0.577122
vt 0.605467 0.563503
vt 0.604494 0.563503
vt 0.604494 0.577122
vt 0.596699 0.576170
vt 0.596699 0.575197
vt 0.606426 0.575197
vt 0.606426 0.576170
vt 0.597654 0.576149
vt 0.597654 0.564476
vt 0.596682 0.564476
vt 0.596682 0.576149
vt 0.598644 0.576170
vt 0.598644 0.575197
vt 0.604481 0.575197
vt 0.604481 0.576170
vt 0.606443 0.576149
vt 0.606443 0.564476
vt 0.605471 0.564476
vt 0.605471 0.576149
vt 0.595726 0.575193
vt 0.595726 0.574221
vt 0.607399 0.574221
vt 0.607399 0.575193
vt 0.596678 0.575176
vt 0.596678 0.565449
vt 0.595705 0.565449
vt 0.595705 0.575176
vt 0.598631 0.575176
vt 0.598631 0.565449
vt 0.597658 0.565449
vt 0.597658 0.575176
vt 0.605467 0.575176
vt 0.605467 0.565449
vt 0.604494 0.565449
vt 0.604494 0.575176
vt 0.607420 0.575176
vt 0.607420 0.565449
vt 0.606447 0.565449
vt 0.606447 0.575176
vt 0.594753 0.574217
vt 0.594753 0.573244
vt 0.608372 0.573244
vt 0.608372 0.574217
vt 0.595701 0.574203
vt 0.595701 0.566422
vt 0.594728 0.566422
vt 0.594728 0.574203
vt 0.596699 0.574217
vt 0.596699 0.573244
vt 0.606426 0.573244
vt 0.606426 0.574217
vt 0.599607 0.574203
vt 0.599607 0.566422
vt 0.598635 0.566422
vt 0.598635 0.574203
vt 0.604490 0.574203
vt 0.604490 0.566422
vt 0.603518 0.566422
vt 0.603518 0.574203
vt 0.608397 0.574203
vt 0.608397 0.566422
vt 0.607424 0.566422
vt 0.607424 0.574203
vt 0.596678 0.573231
vt 0.596678 0.567394
vt 0.595705 0.567394
vt 0.595705 0.573231
vt 0.597672 0.573240
vt 0.597672 0.572268
vt 0.605453 0.572268
vt 0.605453 0.573240
vt 0.599617 0.573240
vt 0.599617 0.572268
vt 0.603508 0.572268
vt 0.603508 0.573240
vt 0.600584 0.573231
vt 0.600584 0.567394
vt 0.599611 0.567394
vt 0.599611 0.573231
vt 0.603514 0.573231
vt 0.603514 0.567394
vt 0.602541 0.567394
vt 0.602541 0.573231
vt 0.607420 0.573231
vt 0.607420 0.567394
vt 0.606447 0.567394
vt 0.606447 0.573231
vt 0.598644 0.572264
vt 0.598644 0.571291
vt 0.604481 0.571291
vt 0.604481 0.572264
vt 0.599607 0.572258
vt 0.599607 0.568367
vt 0.598635 0.568367
vt 0.598635 0.572258
vt 0.600590 0.572264
vt 0.600590 0.571291
vt 0.602535 0.571291
vt 0.602535 0.572264
vt 0.604490 0.572258
vt 0.604490 0.568367
vt 0.603518 0.568367
vt 0.603518 0.572258
vt 0.600584 0.571285
vt 0.600584 0.569340
vt 0.599611 0.569340
vt 0.599611 0.571285
vt 0.603514 0.571285
vt 0.603514 0.569340
vt 0.602541 0.569340
vt 0.602541 0.571285
vt 0.598644 0.569334
vt 0.598644 0.568361
vt 0.604481 0.568361
vt 0.604481 0.569334
vt 0.600590 0.569334
vt 0.600590 0.568361
vt 0.602535 0.568361
vt 0.602535 0.569334
vt 0.597672 0.568357
vt 0.597672 0.567385
vt 0.605453 0.567385
vt 0.605453 0.568357
vt 0.599617 0.568357
vt 0.599617 0.567385
vt 0.603508 0.567385
vt 0.603508 0.568357
vt 0.594753 0.567381
vt 0.594753 0.566408
vt 0.608372 0.566408
vt 0.608372 0.567381
vt 0.596699 0.567381
vt 0.596699 0.566408
vt 0.606426 0.566408
vt 0.606426 0.567381
vt 0.595726 0.566404
vt 0.595726 0.565432
vt 0.607399 0.565432
vt 0.607399 0.566404
vt 0.596699 0.565428
vt 0.596699 0.564455
vt 0.606426 0.564455
vt 0.606426 0.565428
vt 0.598644 0.565428
vt 0.598644 0.564455
vt 0.604481 0.564455
vt 0.604481 0.565428
vt 0.597672 0.564451
vt 0.597672 0.563478
vt 0.605453 0.563478
vt 0.605453 0.564451
f 1/1/1 2/2/1 3/3/1 4/4/1
f 5/5/2 6/6/2 7/7/2 8/8/2
f 9/9/3 10/10/3 11/11/3 12/12/3
f 9/13/4 13/14/4 14/15/4 10/16/4
f 11/17/5 15/18/5 16/19/5 12/20/5
f 17/21/3 18/22/3 19/23/3 20/24/3
f 17/25/4 21/26/4 22/27/4 18/28/4
f 23/29/6 24/30/6 25/31/6 26/32/6
f 19/33/5 27/34/5 28/35/5 20/36/5
f 29/37/3 30/38/3 31/39/3 32/40/3
f 29/41/4 33/42/4 34/43/4 30/44/4
f 23/45/5 35/46/5 36/47/5 24/48/5
f 25/49/4 37/50/4 38/51/4 26/52/4
f 31/53/5 39/54/5 40/55/5 32/56/5
f 41/57/3 42/58/3 43/59/3 44/60/3
f 41/61/4 45/62/4 46/63/4 42/64/4
f 47/65/6 48/66/6 49/67/6 50/68/6
f 51/69/5 52/70/5 53/71/5 54/72/5
f 55/73/4 56/74/4 57/75/4 58/76/4
f 43/77/5 59/78/5 60/79/5 44/80/5
f 47/81/5 61/82/5 62/83/5 48/84/5
f 63/85/6 64/86/6 65/87/6 66/88/6
f 67/89/3 68/90/3 69/91/3 70/92/3
f 71/93/5 72/94/5 73/95/5 74/96/5
f 75/97/4 76/98/4 77/99/4 78/100/4
f 49/101/4 79/102/4 80/103/4 50/104/4
f 81/105/6 82/106/6 83/107/6 84/108/6
f 85/109/4 86/110/4 87/111/4 88/112/4
f 89/113/3 90/114/3 91/115/3 92/116/3
f 93/117/5 94/118/5 95/119/5 96/120/5
f 97/121/4 98/122/4 99/123/4 100/124/4
f 101/125/5 102/126/5 103/127/5 104/128/5
f 105/129/3 106/130/3 107/131/3 108/132/3
f 109/133/6 110/134/6 111/135/6 112/136/6
f 113/137/3 114/138/3 115/139/3 116/140/3
f 117/141/6 118/142/6 119/143/6 120/144/6
f 46/145/6 45/146/6 60/147/6 59/148/6
f 62/149/3 61/150/3 80/151/3 79/152/3
f 34/153/6 33/154/6 40/155/6 39/156/6
f 22/157/6 21/158/6 28/159/6 27/160/6
f 36/161/3 35/162/3 38/163/3 37/164/3
f 14/165/6 13/166/6 16/167/6 15/168/6
