v 1.000000 1.000000 0.468750
v 1.000000 0.000000 0.468750
v 0.000000 0.000000 0.468750
v 0.000000 1.000000 0.468750
v 0.000000 1.000000 0.531250
v 0.000000 0.000000 0.531250
v 1.000000 0.000000 0.531250
v 1.000000 1.000000 0.531250
v 0.375000 0.750000 0.468750
v 0.375000 0.750000 0.531250
v 0.625000 0.750000 0.531250
v 0.625000 0.750000 0.468750
v 0.375000 0.250000 0.468750
v 0.375000 0.250000 0.531250
v 0.625000 0.250000 0.531250
v 0.625000 0.250000 0.468750
v 0.312500 0.687500 0.468750
v 0.312500 0.687500 0.531250
v 0.687500 0.687500 0.531250
v 0.687500 0.687500 0.468750
v 0.312500 0.312500 0.468750
v 0.312500 0.312500 0.531250
v 0.687500 0.312500 0.531250
v 0.687500 0.312500 0.468750
v 0.250000 0.625000 0.468750
v 0.250000 0.625000 0.531250
v 0.750000 0.625000 0.531250
v 0.750000 0.625000 0.468750
v 0.250000 0.375000 0.468750
v 0.250000 0.375000 0.531250
v 0.750000 0.375000 0.531250
v 0.750000 0.375000 0.468750
vn 0.000000 0.000000 -1.000000
vn 0.000000 0.000000 1.000000
vn 0.000000 1.000000 0.000000
vn -1.000000 0.000000 0.000000
vn 1.000000 0.000000 0.000000
vn 0.000000 -1.000000 0.000000
vt 0.093719 0.624969
vt 0.093719 0.609406
vt 0.078156 0.609406
vt 0.078156 0.624969
vt 0.078156 0.624969
vt 0.078156 0.609406
vt 0.093719 0.609406
vt 0.093719 0.624969
vt 0.083992 0.621092
vt 0.083992 0.620119
vt 0.087883 0.620119
vt 0.087883 0.621092
vt 0.084959 0.621078
vt 0.084959 0.613297
vt 0.083986 0.613297
vt 0.083986 0.621078
vt 0.087889 0.621078
vt 0.087889 0.613297
vt 0.086916 0.613297
vt 0.086916 0.621078
vt 0.083019 0.620115
vt 0.083019 0.619143
vt 0.088856 0.619143
vt 0.088856 0.620115
vt 0.083982 0.620106
vt 0.083982 0.614269
vt 0.083010 0.614269
vt 0.083010 0.620106
vt 0.088865 0.620106
vt 0.088865 0.614269
vt 0.087893 0.614269
vt 0.087893 0.620106
vt 0.082047 0.619139
vt 0.082047 0.618166
vt 0.089828 0.618166
vt 0.089828 0.619139
vt 0.083006 0.619133
vt 0.083006 0.615242
vt 0.082033 0.615242
vt 0.082033 0.619133
vt 0.089842 0.619133
vt 0.089842 0.615242
vt 0.088869 0.615242
vt 0.088869 0.619133
vt 0.082047 0.616209
vt 0.082047 0.615236
vt 0.089828 0.615236
vt 0.089828 0.616209
vt 0.083019 0.615232
vt 0.083019 0.614260
vt 0.088856 0.614260
vt 0.088856 0.615232
vt 0.083992 0.614256
vt 0.083992 0.613283
vt 0.087883 0.613283
vt 0.087883 0.614256
f 1/1/1 2/2/1 3/3/1 4/4/1
f 5/5/2 6/6/2 7/7/2 8/8/2
f 9/9/3 10/10/3 11/11/3 12/12/3
f 9/13/4 13/14/4 14/15/4 10/16/4
f 11/17/5 15/18/5 16/19/5 12/20/5
f 17/21/3 18/22/3 19/23/3 20/24/3
f 17/25/4 21/26/4 22/27/4 18/28/4
f 19/29/5 23/30/5 24/31/5 20/32/5
f 25/33/3 26/34/3 27/35/3 28/36/3
f 25/37/4 29/38/4 30/39/4 26/40/4
f 27/41/5 31/42/5 32/43/5 28/44/5
f 30/45/6 29/46/6 32/47/6 31/48/6
f 22/49/6 21/50/6 24/51/6 23/52/6
f 14/53/6 13/54/6 16/55/6 15/56/6
