v 1.000000 1.000000 0.468750
v 1.000000 0.000000 0.468750
v 0.000000 0.000000 0.468750
v 0.000000 1.000000 0.468750
v 0.000000 1.000000 0.531250
v 0.000000 0.000000 0.531250
v 1.000000 0.000000 0.531250
v 1.000000 1.000000 0.531250
v 0.375000 0.875000 0.468750
v 0.375000 0.875000 0.531250
v 0.562500 0.875000 0.531250
v 0.562500 0.875000 0.468750
v 0.375000 0.125000 0.468750
v 0.375000 0.125000 0.531250
v 0.562500 0.125000 0.531250
v 0.562500 0.125000 0.468750
v 0.312500 0.812500 0.468750
v 0.312500 0.812500 0.531250
v 0.625000 0.812500 0.531250
v 0.625000 0.812500 0.468750
v 0.312500 0.187500 0.468750
v 0.312500 0.187500 0.531250
v 0.625000 0.187500 0.531250
v 0.625000 0.187500 0.468750
v 0.750000 0.750000 0.468750
v 0.750000 0.750000 0.531250
v 0.875000 0.750000 0.531250
v 0.875000 0.750000 0.468750
v 0.750000 0.687500 0.468750
v 0.750000 0.687500 0.531250
v 0.875000 0.312500 0.531250
v 0.875000 0.312500 0.468750
v 0.125000 0.687500 0.468750
v 0.125000 0.687500 0.531250
v 0.937500 0.687500 0.531250
v 0.937500 0.687500 0.468750
v 0.125000 0.312500 0.468750
v 0.125000 0.312500 0.531250
v 0.250000 0.687500 0.531250
v 0.250000 0.312500 0.531250
v 0.250000 0.312500 0.468750
v 0.250000 0.687500 0.468750
v 0.312500 0.625000 0.531250
v 0.312500 0.625000 0.468750
v 0.625000 0.625000 0.468750
v 0.625000 0.625000 0.531250
v 0.687500 0.687500 0.468750
v 0.687500 0.312500 0.468750
v 0.687500 0.312500 0.531250
v 0.687500 0.687500 0.531250
v 0.937500 0.562500 0.531250
v 0.937500 0.562500 0.468750
v 0.250000 0.625000 0.468750
v 0.250000 0.625000 0.531250
v 0.687500 0.625000 0.531250
v 0.687500 0.625000 0.468750
v 0.312500 0.500000 0.531250
v 0.312500 0.500000 0.468750
v 0.375000 0.562500 0.531250
v 0.375000 0.562500 0.468750
v 0.625000 0.375000 0.468750
v 0.625000 0.375000 0.531250
v 0.437500 0.562500 0.468750
v 0.437500 0.500000 0.468750
v 0.437500 0.500000 0.531250
v 0.437500 0.562500 0.531250
v 0.500000 0.500000 0.531250
v 0.500000 0.500000 0.468750
v 0.875000 0.500000 0.468750
v 0.875000 0.500000 0.531250
v 0.562500 0.562500 0.468750
v 0.562500 0.562500 0.531250
v 0.625000 0.562500 0.531250
v 0.625000 0.562500 0.468750
v 0.125000 0.437500 0.531250
v 0.125000 0.437500 0.468750
v 0.625000 0.437500 0.468750
v 0.625000 0.437500 0.531250
v 0.500000 0.437500 0.531250
v 0.500000 0.437500 0.468750
v 0.562500 0.500000 0.468750
v 0.562500 0.437500 0.468750
v 0.562500 0.437500 0.531250
v 0.562500 0.500000 0.531250
v 0.812500 0.500000 0.531250
v 0.812500 0.437500 0.531250
v 0.812500 0.437500 0.468750
v 0.812500 0.500000 0.468750
v 0.187500 0.437500 0.468750
v 0.187500 0.375000 0.468750
v 0.187500 0.375000 0.531250
v 0.187500 0.437500 0.531250
v 0.250000 0.375000 0.531250
v 0.250000 0.375000 0.468750
v 0.687500 0.375000 0.468750
v 0.687500 0.375000 0.531250
v 0.875000 0.437500 0.531250
v 0.875000 0.437500 0.468750
v 0.125000 0.375000 0.468750
v 0.125000 0.375000 0.531250
v 0.187500 0.312500 0.531250
v 0.187500 0.312500 0.468750
v 0.062500 0.312500 0.468750
v 0.062500 0.312500 0.531250
v 0.062500 0.187500 0.468750
v 0.062500 0.187500 0.531250
v 0.125000 0.250000 0.531250
v 0.125000 0.250000 0.468750
v 0.187500 0.250000 0.468750
v 0.187500 0.250000 0.531250
v 0.125000 0.187500 0.531250
v 0.125000 0.187500 0.468750
vn 0.000000 0.000000 -1.000000
vn 0.000000 0.000000 1.000000
vn 0.000000 1.000000 0.000000
vn -1.000000 0.000000 0.000000
vn 1.000000 0.000000 0.000000
vn 0.000000 -1.000000 0.000000
vt 0.609344 0.515594
vt 0.609344 0.500031
vt 0.593781 0.500031
vt 0.593781 0.515594
vt 0.593781 0.515594
vt 0.593781 0.500031
vt 0.609344 0.500031
vt 0.609344 0.515594
vt 0.599615 0.513670
vt 0.599615 0.512697
vt 0.602533 0.512697
vt 0.602533 0.513670
vt 0.600584 0.513649
vt 0.600584 0.501976
vt 0.599611 0.501976
vt 0.599611 0.513649
vt 0.602537 0.513649
vt 0.602537 0.501976
vt 0.601564 0.501976
vt 0.601564 0.513649
vt 0.598642 0.512693
vt 0.598642 0.511721
vt 0.603506 0.511721
vt 0.603506 0.512693
vt 0.599607 0.512676
vt 0.599607 0.502949
vt 0.598635 0.502949
vt 0.598635 0.512676
vt 0.603514 0.512676
vt 0.603514 0.502949
vt 0.602541 0.502949
vt 0.602541 0.512676
vt 0.605473 0.511717
vt 0.605473 0.510744
vt 0.607418 0.510744
vt 0.607418 0.511717
vt 0.606443 0.511717
vt 0.606443 0.510744
vt 0.605471 0.510744
vt 0.605471 0.511717
vt 0.607420 0.511705
vt 0.607420 0.504896
vt 0.606447 0.504896
vt 0.606447 0.511705
vt 0.595728 0.510740
vt 0.595728 0.509768
vt 0.608374 0.509768
vt 0.608374 0.510740
vt 0.596678 0.510731
vt 0.596678 0.504894
vt 0.595705 0.504894
vt 0.595705 0.510731
vt 0.597654 0.510731
vt 0.597654 0.504894
vt 0.596682 0.504894
vt 0.596682 0.510731
vt 0.598642 0.510740
vt 0.598642 0.509768
vt 0.603506 0.509768
vt 0.603506 0.510740
vt 0.605467 0.510731
vt 0.605467 0.504894
vt 0.604494 0.504894
vt 0.604494 0.510731
vt 0.608397 0.510738
vt 0.608397 0.508793
vt 0.607424 0.508793
vt 0.607424 0.510738
vt 0.597670 0.509764
vt 0.597670 0.508791
vt 0.604479 0.508791
vt 0.604479 0.509764
vt 0.598631 0.509762
vt 0.598631 0.507816
vt 0.597658 0.507816
vt 0.597658 0.509762
vt 0.599627 0.509764
vt 0.599627 0.508791
vt 0.608381 0.508791
vt 0.608381 0.509764
vt 0.604490 0.509758
vt 0.604490 0.505867
vt 0.603518 0.505867
vt 0.603518 0.509758
vt 0.601561 0.508787
vt 0.601561 0.507814
vt 0.600588 0.507814
vt 0.600588 0.508787
vt 0.601574 0.508787
vt 0.601574 0.507814
vt 0.607410 0.507814
vt 0.607410 0.508787
vt 0.602541 0.508787
vt 0.602541 0.507814
vt 0.603514 0.507814
vt 0.603514 0.508787
vt 0.595718 0.507811
vt 0.595718 0.506838
vt 0.603500 0.506838
vt 0.603500 0.507811
vt 0.598637 0.507811
vt 0.598637 0.506838
vt 0.600582 0.506838
vt 0.600582 0.507811
vt 0.601561 0.507811
vt 0.601561 0.506838
vt 0.600588 0.506838
vt 0.600588 0.507811
vt 0.603514 0.507811
vt 0.603514 0.506838
vt 0.602541 0.506838
vt 0.602541 0.507811
vt 0.606443 0.507811
vt 0.606443 0.506838
vt 0.605471 0.506838
vt 0.605471 0.507811
vt 0.597654 0.506834
vt 0.597654 0.505861
vt 0.596682 0.505861
vt 0.596682 0.506834
vt 0.597670 0.506834
vt 0.597670 0.505861
vt 0.604479 0.505861
vt 0.604479 0.506834
vt 0.601574 0.506834
vt 0.601574 0.505861
vt 0.607410 0.505861
vt 0.607410 0.506834
vt 0.595718 0.505857
vt 0.595718 0.504885
vt 0.603500 0.504885
vt 0.603500 0.505857
vt 0.596701 0.505857
vt 0.596701 0.504885
vt 0.607401 0.504885
vt 0.607401 0.505857
vt 0.594728 0.504881
vt 0.594728 0.503908
vt 0.595701 0.503908
vt 0.595701 0.504881
vt 0.595701 0.504879
vt 0.595701 0.502934
vt 0.594728 0.502934
vt 0.594728 0.504879
vt 0.595705 0.504881
vt 0.595705 0.503908
vt 0.596678 0.503908
vt 0.596678 0.504881
vt 0.596678 0.504881
vt 0.596678 0.503908
vt 0.595705 0.503908
vt 0.595705 0.504881
vt 0.594744 0.503904
vt 0.594744 0.502932
vt 0.603498 0.502932
vt 0.603498 0.503904
vt 0.595701 0.503904
vt 0.595701 0.502932
vt 0.594728 0.502932
vt 0.594728 0.503904
vt 0.599615 0.502928
vt 0.599615 0.501955
vt 0.602533 0.501955
vt 0.602533 0.502928
f 1/1/1 2/2/1 3/3/1 4/4/1
f 5/5/2 6/6/2 7/7/2 8/8/2
f 9/9/3 10/10/3 11/11/3 12/12/3
f 9/13/4 13/14/4 14/15/4 10/16/4
f 11/17/5 15/18/5 16/19/5 12/20/5
f 17/21/3 18/22/3 19/23/3 20/24/3
f 17/25/4 21/26/4 22/27/4 18/28/4
f 19/29/5 23/30/5 24/31/5 20/32/5
f 25/33/3 26/34/3 27/35/3 28/36/3
f 25/37/4 29/38/4 30/39/4 26/40/4
f 27/41/5 31/42/5 32/43/5 28/44/5
f 33/45/3 34/46/3 35/47/3 36/48/3
f 33/49/4 37/50/4 38/51/4 34/52/4
f 39/53/5 40/54/5 41/55/5 42/56/5
f 43/57/6 44/58/6 45/59/6 46/60/6
f 47/61/4 48/62/4 49/63/4 50/64/4
f 35/65/5 51/66/5 52/67/5 36/68/5
f 53/69/3 54/70/3 55/71/3 56/72/3
f 43/73/5 57/74/5 58/75/5 44/76/5
f 59/77/6 60/78/6 52/79/6 51/80/6
f 45/81/4 61/82/4 62/83/4 46/84/4
f 63/85/4 64/86/4 65/87/4 66/88/4
f 67/89/6 68/90/6 69/91/6 70/92/6
f 71/93/3 72/94/3 73/95/3 74/96/3
f 75/97/6 76/98/6 77/99/6 78/100/6
f 58/101/3 57/102/3 65/103/3 64/104/3
f 67/105/5 79/106/5 80/107/5 68/108/5
f 81/109/4 82/110/4 83/111/4 84/112/4
f 85/113/5 86/114/5 87/115/5 88/116/5
f 89/117/4 90/118/4 91/119/4 92/120/4
f 93/121/6 94/122/6 95/123/6 96/124/6
f 80/125/3 79/126/3 97/127/3 98/128/3
f 99/129/3 100/130/3 62/131/3 61/132/3
f 101/133/6 102/134/6 32/135/6 31/136/6
f 103/137/3 104/138/3 38/139/3 37/140/3
f 103/141/4 105/142/4 106/143/4 104/144/4
f 107/145/6 108/146/6 109/147/6 110/148/6
f 101/149/5 110/150/5 109/151/5 102/152/5
f 106/153/6 105/154/6 24/155/6 23/156/6
f 107/157/5 111/158/5 112/159/5 108/160/5
f 14/161/6 13/162/6 16/163/6 15/164/6
