v 1.000000 1.000000 0.468750
v 1.000000 0.000000 0.468750
v 0.000000 0.000000 0.468750
v 0.000000 1.000000 0.468750
v 0.000000 1.000000 0.531250
v 0.000000 0.000000 0.531250
v 1.000000 0.000000 0.531250
v 1.000000 1.000000 0.531250
v 0.062500 1.000000 0.468750
v 0.062500 1.000000 0.531250
v 0.125000 1.000000 0.531250
v 0.125000 1.000000 0.468750
v 0.062500 0.937500 0.531250
v 0.062500 0.937500 0.468750
v 0.125000 0.937500 0.468750
v 0.125000 0.937500 0.531250
v 0.062500 0.000000 0.468750
v 0.062500 0.000000 0.531250
v 0.125000 0.000000 0.531250
v 0.125000 0.000000 0.468750
v 0.687500 0.937500 0.531250
v 0.687500 0.937500 0.468750
v 0.125000 0.187500 0.468750
v 0.125000 0.187500 0.531250
v 0.187500 0.937500 0.531250
v 0.187500 0.750000 0.531250
v 0.187500 0.750000 0.468750
v 0.187500 0.937500 0.468750
v 0.250000 0.937500 0.468750
v 0.250000 0.000000 0.468750
v 0.250000 0.000000 0.531250
v 0.250000 0.937500 0.531250
v 0.312500 0.937500 0.531250
v 0.312500 0.000000 0.531250
v 0.312500 0.000000 0.468750
v 0.312500 0.937500 0.468750
v 0.625000 0.937500 0.468750
v 0.625000 0.000000 0.468750
v 0.625000 0.000000 0.531250
v 0.625000 0.937500 0.531250
v 0.687500 0.687500 0.531250
v 0.687500 0.687500 0.468750
v 0.812500 0.875000 0.468750
v 0.812500 0.875000 0.531250
v 0.875000 0.875000 0.531250
v 0.875000 0.875000 0.468750
v 0.812500 0.812500 0.531250
v 0.812500 0.812500 0.468750
v 0.875000 0.812500 0.468750
v 0.875000 0.812500 0.531250
v 0.812500 0.000000 0.468750
v 0.812500 0.000000 0.531250
v 0.875000 0.000000 0.531250
v 0.875000 0.000000 0.468750
v 0.125000 0.750000 0.531250
v 0.125000 0.750000 0.468750
v 0.312500 0.750000 0.468750
v 0.312500 0.750000 0.531250
v 0.312500 0.812500 0.468750
v 0.312500 0.812500 0.531250
v 0.375000 0.812500 0.531250
v 0.375000 0.375000 0.531250
v 0.375000 0.375000 0.468750
v 0.375000 0.812500 0.468750
v 0.750000 0.812500 0.468750
v 0.750000 0.500000 0.468750
v 0.750000 0.500000 0.531250
v 0.750000 0.812500 0.531250
v 0.812500 0.187500 0.531250
v 0.812500 0.187500 0.468750
v 0.625000 0.750000 0.531250
v 0.625000 0.750000 0.468750
v 0.187500 0.062500 0.468750
v 0.187500 0.062500 0.531250
v 0.250000 0.750000 0.531250
v 0.250000 0.312500 0.531250
v 0.250000 0.312500 0.468750
v 0.250000 0.750000 0.468750
v 0.312500 0.312500 0.468750
v 0.312500 0.312500 0.531250
v 0.562500 0.750000 0.468750
v 0.562500 0.437500 0.468750
v 0.562500 0.437500 0.531250
v 0.562500 0.750000 0.531250
v 0.625000 0.687500 0.531250
v 0.625000 0.687500 0.468750
v 0.625000 0.125000 0.531250
v 0.625000 0.125000 0.468750
v 0.437500 0.562500 0.468750
v 0.437500 0.562500 0.531250
v 0.500000 0.562500 0.531250
v 0.500000 0.562500 0.468750
v 0.437500 0.437500 0.468750
v 0.437500 0.437500 0.531250
v 0.500000 0.437500 0.531250
v 0.500000 0.437500 0.468750
v 0.937500 0.437500 0.468750
v 0.937500 0.437500 0.531250
v 0.687500 0.500000 0.468750
v 0.687500 0.500000 0.531250
v 0.937500 0.500000 0.531250
v 0.937500 0.500000 0.468750
v 0.687500 0.125000 0.468750
v 0.687500 0.125000 0.531250
v 0.875000 0.500000 0.468750
v 0.875000 0.062500 0.468750
v 0.875000 0.062500 0.531250
v 0.875000 0.500000 0.531250
v 0.937500 0.062500 0.531250
v 0.937500 0.062500 0.468750
v 0.875000 0.437500 0.531250
v 0.875000 0.437500 0.468750
v 0.500000 0.000000 0.468750
v 0.500000 0.000000 0.531250
v 0.812500 0.375000 0.531250
v 0.812500 0.375000 0.468750
v 0.875000 0.375000 0.468750
v 0.875000 0.375000 0.531250
v 0.437500 0.375000 0.531250
v 0.437500 0.375000 0.468750
v 0.437500 0.000000 0.531250
v 0.437500 0.000000 0.468750
v 0.062500 0.312500 0.468750
v 0.062500 0.312500 0.531250
v 0.062500 0.250000 0.531250
v 0.062500 0.250000 0.468750
v 0.125000 0.250000 0.468750
v 0.125000 0.250000 0.531250
v 0.187500 0.250000 0.531250
v 0.187500 0.250000 0.468750
v 0.375000 0.187500 0.468750
v 0.375000 0.000000 0.468750
v 0.375000 0.000000 0.531250
v 0.375000 0.187500 0.531250
v 0.562500 0.125000 0.531250
v 0.562500 0.125000 0.468750
v 0.750000 0.187500 0.531250
v 0.750000 0.000000 0.531250
v 0.750000 0.000000 0.468750
v 0.750000 0.187500 0.468750
v 0.562500 0.000000 0.531250
v 0.562500 0.000000 0.468750
v 0.937500 0.125000 0.531250
v 0.937500 0.125000 0.468750
v 0.062500 0.062500 0.468750
v 0.062500 0.062500 0.531250
vn 0.000000 0.000000 -1.000000
vn 0.000000 0.000000 1.000000
vn 0.000000 1.000000 0.000000
vn 0.000000 -1.000000 0.000000
vn -1.000000 0.000000 0.000000
vn 1.000000 0.000000 0.000000
vt 0.203094 0.624969
vt 0.203094 0.609406
vt 0.187531 0.609406
vt 0.187531 0.624969
vt 0.187531 0.624969
vt 0.187531 0.609406
vt 0.203094 0.609406
vt 0.203094 0.624969
vt 0.188478 0.624998
vt 0.188478 0.624025
vt 0.189451 0.624025
vt 0.189451 0.624998
vt 0.188478 0.624998
vt 0.188478 0.624025
vt 0.189451 0.624025
vt 0.189451 0.624998
vt 0.189451 0.624969
vt 0.189451 0.609406
vt 0.188478 0.609406
vt 0.188478 0.624969
vt 0.189451 0.624969
vt 0.189451 0.609406
vt 0.188478 0.609406
vt 0.188478 0.624969
vt 0.189470 0.624022
vt 0.189470 0.623049
vt 0.198225 0.623049
vt 0.198225 0.624022
vt 0.190428 0.624001
vt 0.190428 0.612328
vt 0.189455 0.612328
vt 0.189455 0.624001
vt 0.190428 0.624018
vt 0.190428 0.621099
vt 0.189455 0.621099
vt 0.189455 0.624018
vt 0.192381 0.623995
vt 0.192381 0.609404
vt 0.191408 0.609404
vt 0.191408 0.623995
vt 0.192381 0.623995
vt 0.192381 0.609404
vt 0.191408 0.609404
vt 0.191408 0.623995
vt 0.198240 0.623995
vt 0.198240 0.609404
vt 0.197268 0.609404
vt 0.197268 0.623995
vt 0.198240 0.624016
vt 0.198240 0.620125
vt 0.197268 0.620125
vt 0.197268 0.624016
vt 0.200197 0.623045
vt 0.200197 0.622072
vt 0.201170 0.622072
vt 0.201170 0.623045
vt 0.200197 0.623045
vt 0.200197 0.622072
vt 0.201170 0.622072
vt 0.201170 0.623045
vt 0.201170 0.623020
vt 0.201170 0.609402
vt 0.200197 0.609402
vt 0.200197 0.623020
vt 0.201170 0.623020
vt 0.201170 0.609402
vt 0.200197 0.609402
vt 0.200197 0.623020
vt 0.189459 0.622068
vt 0.189459 0.621096
vt 0.192377 0.621096
vt 0.192377 0.622068
vt 0.192398 0.622068
vt 0.192398 0.621096
vt 0.200180 0.621096
vt 0.200180 0.622068
vt 0.193357 0.622057
vt 0.193357 0.615248
vt 0.192385 0.615248
vt 0.192385 0.622057
vt 0.200193 0.622061
vt 0.200193 0.617197
vt 0.199221 0.617197
vt 0.199221 0.622061
vt 0.200193 0.622051
vt 0.200193 0.612324
vt 0.199221 0.612324
vt 0.199221 0.622051
vt 0.190443 0.621092
vt 0.190443 0.620119
vt 0.197252 0.620119
vt 0.197252 0.621092
vt 0.191404 0.621073
vt 0.191404 0.610373
vt 0.190432 0.610373
vt 0.190432 0.621073
vt 0.191404 0.621080
vt 0.191404 0.614271
vt 0.190432 0.614271
vt 0.190432 0.621080
vt 0.193357 0.621080
vt 0.193357 0.614271
vt 0.192385 0.614271
vt 0.192385 0.621080
vt 0.197264 0.621084
vt 0.197264 0.616220
vt 0.196291 0.616220
vt 0.196291 0.621084
vt 0.197268 0.621092
vt 0.197268 0.620119
vt 0.198240 0.620119
vt 0.198240 0.621092
vt 0.197264 0.620100
vt 0.197264 0.611345
vt 0.196291 0.611345
vt 0.196291 0.620100
vt 0.194338 0.618162
vt 0.194338 0.617189
vt 0.195311 0.617189
vt 0.195311 0.618162
vt 0.195311 0.618160
vt 0.195311 0.616215
vt 0.194338 0.616215
vt 0.194338 0.618160
vt 0.195311 0.618160
vt 0.195311 0.616215
vt 0.194338 0.616215
vt 0.194338 0.618160
vt 0.194351 0.617186
vt 0.194351 0.616213
vt 0.202133 0.616213
vt 0.202133 0.617186
vt 0.198250 0.617186
vt 0.198250 0.616213
vt 0.202141 0.616213
vt 0.202141 0.617186
vt 0.199217 0.617176
vt 0.199217 0.611340
vt 0.198244 0.611340
vt 0.198244 0.617176
vt 0.202147 0.617174
vt 0.202147 0.610365
vt 0.201174 0.610365
vt 0.201174 0.617174
vt 0.202147 0.617174
vt 0.202147 0.610365
vt 0.201174 0.610365
vt 0.201174 0.617174
vt 0.195324 0.616209
vt 0.195324 0.615236
vt 0.201160 0.615236
vt 0.201160 0.616209
vt 0.196287 0.616198
vt 0.196287 0.609388
vt 0.195314 0.609388
vt 0.195314 0.616198
vt 0.200197 0.616209
vt 0.200197 0.615236
vt 0.201170 0.615236
vt 0.201170 0.616209
vt 0.193361 0.615232
vt 0.193361 0.614260
vt 0.194334 0.614260
vt 0.194334 0.615232
vt 0.194334 0.615223
vt 0.194334 0.609386
vt 0.193361 0.609386
vt 0.193361 0.615223
vt 0.188484 0.614256
vt 0.188484 0.613283
vt 0.192375 0.613283
vt 0.192375 0.614256
vt 0.188478 0.614256
vt 0.188478 0.613283
vt 0.189451 0.613283
vt 0.189451 0.614256
vt 0.189455 0.613279
vt 0.189455 0.612307
vt 0.190428 0.612307
vt 0.190428 0.613279
vt 0.189474 0.613279
vt 0.189474 0.612307
vt 0.200174 0.612307
vt 0.200174 0.613279
vt 0.194334 0.612299
vt 0.194334 0.609381
vt 0.193361 0.609381
vt 0.193361 0.612299
vt 0.196291 0.612303
vt 0.196291 0.611330
vt 0.197264 0.611330
vt 0.197264 0.612303
vt 0.199217 0.612299
vt 0.199217 0.609381
vt 0.198244 0.609381
vt 0.198244 0.612299
vt 0.190453 0.611326
vt 0.190453 0.610353
vt 0.202126 0.610353
vt 0.202126 0.611326
vt 0.196287 0.611324
vt 0.196287 0.609379
vt 0.195314 0.609379
vt 0.195314 0.611324
vt 0.197275 0.611326
vt 0.197275 0.610353
vt 0.202139 0.610353
vt 0.202139 0.611326
vt 0.188501 0.610350
vt 0.188501 0.609377
vt 0.201147 0.609377
vt 0.201147 0.610350
vt 0.188501 0.610350
vt 0.188501 0.609377
vt 0.201147 0.609377
vt 0.201147 0.610350
f 1/1/1 2/2/1 3/3/1 4/4/1
f 5/5/2 6/6/2 7/7/2 8/8/2
f 9/9/3 10/10/3 11/11/3 12/12/3
f 13/13/4 14/14/4 15/15/4 16/16/4
f 9/17/5 17/18/5 18/19/5 10/20/5
f 11/21/6 19/22/6 20/23/6 12/24/6
f 15/25/3 16/26/3 21/27/3 22/28/3
f 15/29/5 23/30/5 24/31/5 16/32/5
f 25/33/6 26/34/6 27/35/6 28/36/6
f 29/37/5 30/38/5 31/39/5 32/40/5
f 33/41/6 34/42/6 35/43/6 36/44/6
f 37/45/5 38/46/5 39/47/5 40/48/5
f 21/49/6 41/50/6 42/51/6 22/52/6
f 43/53/3 44/54/3 45/55/3 46/56/3
f 47/57/4 48/58/4 49/59/4 50/60/4
f 43/61/5 51/62/5 52/63/5 44/64/5
f 45/65/6 53/66/6 54/67/6 46/68/6
f 55/69/4 56/70/4 57/71/4 58/72/4
f 59/73/3 60/74/3 47/75/3 48/76/3
f 61/77/6 62/78/6 63/79/6 64/80/6
f 65/81/5 66/82/5 67/83/5 68/84/5
f 47/85/6 69/86/6 70/87/6 48/88/6
f 27/89/3 26/90/3 71/91/3 72/92/3
f 27/93/5 73/94/5 74/95/5 26/96/5
f 75/97/6 76/98/6 77/99/6 78/100/6
f 57/101/5 79/102/5 80/103/5 58/104/5
f 81/105/5 82/106/5 83/107/5 84/108/5
f 85/109/4 86/110/4 42/111/4 41/112/4
f 85/113/6 87/114/6 88/115/6 86/116/6
f 89/117/3 90/118/3 91/119/3 92/120/3
f 89/121/5 93/122/5 94/123/5 90/124/5
f 91/125/6 95/126/6 96/127/6 92/128/6
f 94/129/4 93/130/4 97/131/4 98/132/4
f 99/133/3 100/134/3 101/135/3 102/136/3
f 99/137/5 103/138/5 104/139/5 100/140/5
f 105/141/5 106/142/5 107/143/5 108/144/5
f 101/145/6 109/146/6 110/147/6 102/148/6
f 96/149/3 95/150/3 111/151/3 112/152/3
f 96/153/5 113/154/5 114/155/5 95/156/5
f 115/157/4 116/158/4 117/159/4 118/160/4
f 63/161/3 62/162/3 119/163/3 120/164/3
f 119/165/6 121/166/6 122/167/6 120/168/6
f 123/169/3 124/170/3 80/171/3 79/172/3
f 125/173/4 126/174/4 127/175/4 128/176/4
f 127/177/3 128/178/3 129/179/3 130/180/3
f 24/181/4 23/182/4 70/183/4 69/184/4
f 131/185/5 132/186/5 133/187/5 134/188/5
f 135/189/4 136/190/4 88/191/4 87/192/4
f 137/193/6 138/194/6 139/195/6 140/196/6
f 74/197/4 73/198/4 110/199/4 109/200/4
f 135/201/6 141/202/6 142/203/6 136/204/6
f 88/205/3 87/206/3 143/207/3 144/208/3
f 145/209/3 146/210/3 107/211/3 106/212/3
f 18/213/4 17/214/4 54/215/4 53/216/4
