v 1.000000 1.000000 0.468750
v 1.000000 0.000000 0.468750
v 0.000000 0.000000 0.468750
v 0.000000 1.000000 0.468750
v 0.000000 1.000000 0.531250
v 0.000000 0.000000 0.531250
v 1.000000 0.000000 0.531250
v 1.000000 1.000000 0.531250
v 0.750000 0.875000 0.468750
v 0.750000 0.875000 0.531250
v 0.937500 0.875000 0.531250
v 0.937500 0.875000 0.468750
v 0.750000 0.562500 0.468750
v 0.750000 0.562500 0.531250
v 0.937500 0.750000 0.531250
v 0.937500 0.750000 0.468750
v 0.625000 0.812500 0.468750
v 0.625000 0.812500 0.531250
v 0.750000 0.812500 0.531250
v 0.750000 0.812500 0.468750
v 0.625000 0.250000 0.468750
v 0.625000 0.250000 0.531250
v 0.687500 0.750000 0.531250
v 0.687500 0.750000 0.468750
v 0.375000 0.750000 0.468750
v 0.375000 0.750000 0.531250
v 0.500000 0.750000 0.531250
v 0.500000 0.750000 0.468750
v 0.375000 0.687500 0.531250
v 0.375000 0.687500 0.468750
v 0.687500 0.687500 0.468750
v 0.687500 0.687500 0.531250
v 0.500000 0.625000 0.531250
v 0.500000 0.625000 0.468750
v 0.687500 0.250000 0.531250
v 0.687500 0.250000 0.468750
v 0.875000 0.750000 0.531250
v 0.875000 0.625000 0.531250
v 0.875000 0.625000 0.468750
v 0.875000 0.750000 0.468750
v 0.187500 0.687500 0.468750
v 0.187500 0.687500 0.531250
v 0.750000 0.687500 0.531250
v 0.750000 0.687500 0.468750
v 0.187500 0.562500 0.468750
v 0.187500 0.562500 0.531250
v 0.250000 0.687500 0.531250
v 0.250000 0.562500 0.531250
v 0.250000 0.562500 0.468750
v 0.250000 0.687500 0.468750
v 0.437500 0.625000 0.531250
v 0.437500 0.625000 0.468750
v 0.437500 0.687500 0.468750
v 0.437500 0.687500 0.531250
v 0.687500 0.625000 0.468750
v 0.687500 0.625000 0.531250
v 0.000000 0.625000 0.468750
v 0.000000 0.625000 0.531250
v 0.062500 0.625000 0.531250
v 0.062500 0.625000 0.468750
v 0.000000 0.562500 0.531250
v 0.000000 0.562500 0.468750
v 0.812500 0.562500 0.468750
v 0.812500 0.562500 0.531250
v 0.062500 0.562500 0.531250
v 0.062500 0.562500 0.468750
v 0.812500 0.625000 0.531250
v 0.812500 0.625000 0.468750
v 0.562500 0.375000 0.468750
v 0.562500 0.375000 0.531250
v 0.687500 0.375000 0.531250
v 0.687500 0.375000 0.468750
v 0.562500 0.312500 0.531250
v 0.562500 0.312500 0.468750
v 0.625000 0.312500 0.468750
v 0.625000 0.312500 0.531250
v 0.500000 0.125000 0.468750
v 0.500000 0.125000 0.531250
v 0.562500 0.125000 0.531250
v 0.562500 0.125000 0.468750
v 0.500000 0.062500 0.531250
v 0.500000 0.062500 0.468750
v 0.562500 0.062500 0.468750
v 0.562500 0.062500 0.531250
v 0.750000 0.750000 0.531250
v 0.750000 0.750000 0.468750
v 0.750000 0.625000 0.531250
v 0.750000 0.625000 0.468750
v 0.625000 0.687500 0.468750
v 0.625000 0.687500 0.531250
v 0.625000 0.625000 0.468750
v 0.625000 0.625000 0.531250
v 0.562500 0.625000 0.468750
v 0.562500 0.625000 0.531250
v 0.562500 0.562500 0.468750
v 0.562500 0.562500 0.531250
v 0.625000 0.562500 0.531250
v 0.625000 0.562500 0.468750
v 0.687500 0.562500 0.468750
v 0.687500 0.562500 0.531250
v 0.500000 0.562500 0.468750
v 0.500000 0.562500 0.531250
v 0.500000 0.500000 0.468750
v 0.500000 0.500000 0.531250
v 0.562500 0.500000 0.531250
v 0.562500 0.500000 0.468750
v 0.625000 0.500000 0.468750
v 0.625000 0.500000 0.531250
v 0.437500 0.500000 0.468750
v 0.437500 0.500000 0.531250
v 0.437500 0.437500 0.468750
v 0.437500 0.437500 0.531250
v 0.500000 0.437500 0.531250
v 0.500000 0.437500 0.468750
v 0.562500 0.437500 0.468750
v 0.562500 0.437500 0.531250
v 0.375000 0.437500 0.468750
v 0.375000 0.437500 0.531250
v 0.375000 0.375000 0.468750
v 0.375000 0.375000 0.531250
v 0.437500 0.375000 0.531250
v 0.437500 0.375000 0.468750
v 0.500000 0.375000 0.468750
v 0.500000 0.375000 0.531250
v 0.312500 0.375000 0.468750
v 0.312500 0.375000 0.531250
v 0.312500 0.312500 0.468750
v 0.312500 0.312500 0.531250
v 0.375000 0.312500 0.531250
v 0.375000 0.312500 0.468750
v 0.437500 0.312500 0.468750
v 0.437500 0.312500 0.531250
v 0.187500 0.312500 0.468750
v 0.187500 0.312500 0.531250
v 0.187500 0.062500 0.468750
v 0.187500 0.062500 0.531250
v 0.375000 0.187500 0.531250
v 0.375000 0.187500 0.468750
v 0.125000 0.250000 0.468750
v 0.125000 0.250000 0.531250
v 0.187500 0.250000 0.531250
v 0.187500 0.250000 0.468750
v 0.125000 0.125000 0.468750
v 0.125000 0.125000 0.531250
v 0.312500 0.187500 0.531250
v 0.312500 0.187500 0.468750
v 0.312500 0.125000 0.468750
v 0.312500 0.125000 0.531250
v 0.250000 0.062500 0.468750
v 0.250000 0.062500 0.531250
v 0.250000 0.125000 0.531250
v 0.250000 0.125000 0.468750
vn 0.000000 0.000000 -1.000000
vn 0.000000 0.000000 1.000000
vn 0.000000 1.000000 0.000000
vn -1.000000 0.000000 0.000000
vn 1.000000 0.000000 0.000000
vn 0.000000 -1.000000 0.000000
vt 0.624969 0.999969
vt 0.624969 0.984406
vt 0.609406 0.984406
vt 0.609406 0.999969
vt 0.609406 0.999969
vt 0.609406 0.984406
vt 0.624969 0.984406
vt 0.624969 0.999969
vt 0.621099 0.998045
vt 0.621099 0.997072
vt 0.624018 0.997072
vt 0.624018 0.998045
vt 0.622068 0.998037
vt 0.622068 0.993174
vt 0.621096 0.993174
vt 0.621096 0.998037
vt 0.624022 0.998043
vt 0.624022 0.996098
vt 0.623049 0.996098
vt 0.623049 0.998043
vt 0.619144 0.997068
vt 0.619144 0.996096
vt 0.621090 0.996096
vt 0.621090 0.997068
vt 0.620115 0.997053
vt 0.620115 0.988298
vt 0.619143 0.988298
vt 0.619143 0.997053
vt 0.620125 0.997068
vt 0.620125 0.996096
vt 0.624016 0.996096
vt 0.624016 0.997068
vt 0.615238 0.996092
vt 0.615238 0.995119
vt 0.617184 0.995119
vt 0.617184 0.996092
vt 0.615244 0.996092
vt 0.615244 0.995119
vt 0.620108 0.995119
vt 0.620108 0.996092
vt 0.616209 0.996092
vt 0.616209 0.995119
vt 0.615236 0.995119
vt 0.615236 0.996092
vt 0.617186 0.996090
vt 0.617186 0.994144
vt 0.616213 0.994144
vt 0.616213 0.996090
vt 0.620115 0.996078
vt 0.620115 0.988297
vt 0.619143 0.988297
vt 0.619143 0.996078
vt 0.623045 0.996090
vt 0.623045 0.994144
vt 0.622072 0.994144
vt 0.622072 0.996090
vt 0.612322 0.995115
vt 0.612322 0.994143
vt 0.621077 0.994143
vt 0.621077 0.995115
vt 0.613279 0.995113
vt 0.613279 0.993168
vt 0.612307 0.993168
vt 0.612307 0.995113
vt 0.613279 0.995113
vt 0.613279 0.993168
vt 0.612307 0.993168
vt 0.612307 0.995113
vt 0.616224 0.995115
vt 0.616224 0.994143
vt 0.623034 0.994143
vt 0.623034 0.995115
vt 0.617186 0.995115
vt 0.617186 0.994143
vt 0.616213 0.994143
vt 0.616213 0.995115
vt 0.621092 0.995115
vt 0.621092 0.994143
vt 0.620119 0.994143
vt 0.620119 0.995115
vt 0.609377 0.994139
vt 0.609377 0.993166
vt 0.610350 0.993166
vt 0.610350 0.994139
vt 0.609400 0.994139
vt 0.609400 0.993166
vt 0.622046 0.993166
vt 0.622046 0.994139
vt 0.610350 0.994139
vt 0.610350 0.993166
vt 0.609377 0.993166
vt 0.609377 0.994139
vt 0.610350 0.994139
vt 0.610350 0.993166
vt 0.609377 0.993166
vt 0.609377 0.994139
vt 0.622068 0.994139
vt 0.622068 0.993166
vt 0.621096 0.993166
vt 0.621096 0.994139
vt 0.618168 0.990232
vt 0.618168 0.989260
vt 0.620113 0.989260
vt 0.620113 0.990232
vt 0.618166 0.990232
vt 0.618166 0.989260
vt 0.619139 0.989260
vt 0.619139 0.990232
vt 0.619139 0.990232
vt 0.619139 0.989260
vt 0.618166 0.989260
vt 0.618166 0.990232
vt 0.619143 0.989256
vt 0.619143 0.988283
vt 0.620115 0.988283
vt 0.620115 0.989256
vt 0.617189 0.986326
vt 0.617189 0.985353
vt 0.618162 0.985353
vt 0.618162 0.986326
vt 0.617189 0.986326
vt 0.617189 0.985353
vt 0.618162 0.985353
vt 0.618162 0.986326
vt 0.618162 0.986326
vt 0.618162 0.985353
vt 0.617189 0.985353
vt 0.617189 0.986326
vt 0.618162 0.986326
vt 0.618162 0.985353
vt 0.617189 0.985353
vt 0.617189 0.986326
vt 0.609344 0.499969
vt 0.609344 0.484406
vt 0.593781 0.484406
vt 0.593781 0.499969
vt 0.593781 0.499969
vt 0.593781 0.484406
vt 0.609344 0.484406
vt 0.609344 0.499969
vt 0.604494 0.496092
vt 0.604494 0.495119
vt 0.605467 0.495119
vt 0.605467 0.496092
vt 0.605467 0.496092
vt 0.605467 0.495119
vt 0.604494 0.495119
vt 0.604494 0.496092
vt 0.605467 0.496090
vt 0.605467 0.494144
vt 0.604494 0.494144
vt 0.604494 0.496090
vt 0.603518 0.495115
vt 0.603518 0.494143
vt 0.604490 0.494143
vt 0.604490 0.495115
vt 0.604490 0.495115
vt 0.604490 0.494143
vt 0.603518 0.494143
vt 0.603518 0.495115
vt 0.604494 0.495115
vt 0.604494 0.494143
vt 0.605467 0.494143
vt 0.605467 0.495115
vt 0.602541 0.494139
vt 0.602541 0.493166
vt 0.603514 0.493166
vt 0.603514 0.494139
vt 0.603514 0.494139
vt 0.603514 0.493166
vt 0.602541 0.493166
vt 0.602541 0.494139
vt 0.603518 0.494139
vt 0.603518 0.493166
vt 0.604490 0.493166
vt 0.604490 0.494139
vt 0.604490 0.494139
vt 0.604490 0.493166
vt 0.603518 0.493166
vt 0.603518 0.494139
vt 0.601564 0.493162
vt 0.601564 0.492189
vt 0.602537 0.492189
vt 0.602537 0.493162
vt 0.602537 0.493162
vt 0.602537 0.492189
vt 0.601564 0.492189
vt 0.601564 0.493162
vt 0.602541 0.493162
vt 0.602541 0.492189
vt 0.603514 0.492189
vt 0.603514 0.493162
vt 0.603514 0.493162
vt 0.603514 0.492189
vt 0.602541 0.492189
vt 0.602541 0.493162
vt 0.600588 0.492186
vt 0.600588 0.491213
vt 0.601561 0.491213
vt 0.601561 0.492186
vt 0.601561 0.492186
vt 0.601561 0.491213
vt 0.600588 0.491213
vt 0.600588 0.492186
vt 0.601564 0.492186
vt 0.601564 0.491213
vt 0.602537 0.491213
vt 0.602537 0.492186
vt 0.602537 0.492186
vt 0.602537 0.491213
vt 0.601564 0.491213
vt 0.601564 0.492186
vt 0.599611 0.491209
vt 0.599611 0.490236
vt 0.600584 0.490236
vt 0.600584 0.491209
vt 0.600584 0.491209
vt 0.600584 0.490236
vt 0.599611 0.490236
vt 0.599611 0.491209
vt 0.600588 0.491209
vt 0.600588 0.490236
vt 0.601561 0.490236
vt 0.601561 0.491209
vt 0.601561 0.491209
vt 0.601561 0.490236
vt 0.600588 0.490236
vt 0.600588 0.491209
vt 0.598635 0.490232
vt 0.598635 0.489260
vt 0.599607 0.489260
vt 0.599607 0.490232
vt 0.599607 0.490232
vt 0.599607 0.489260
vt 0.598635 0.489260
vt 0.598635 0.490232
vt 0.599611 0.490232
vt 0.599611 0.489260
vt 0.600584 0.489260
vt 0.600584 0.490232
vt 0.600584 0.490232
vt 0.600584 0.489260
vt 0.599611 0.489260
vt 0.599611 0.490232
vt 0.596684 0.489256
vt 0.596684 0.488283
vt 0.598629 0.488283
vt 0.598629 0.489256
vt 0.597654 0.489250
vt 0.597654 0.485359
vt 0.596682 0.485359
vt 0.596682 0.489250
vt 0.599607 0.489254
vt 0.599607 0.487309
vt 0.598635 0.487309
vt 0.598635 0.489254
vt 0.595705 0.488279
vt 0.595705 0.487307
vt 0.596678 0.487307
vt 0.596678 0.488279
vt 0.596678 0.488277
vt 0.596678 0.486332
vt 0.595705 0.486332
vt 0.595705 0.488277
vt 0.598635 0.488279
vt 0.598635 0.487307
vt 0.599607 0.487307
vt 0.599607 0.488279
vt 0.595709 0.487303
vt 0.595709 0.486330
vt 0.598627 0.486330
vt 0.598627 0.487303
vt 0.598631 0.487303
vt 0.598631 0.486330
vt 0.597658 0.486330
vt 0.597658 0.487303
vt 0.596682 0.486326
vt 0.596682 0.485353
vt 0.597654 0.485353
vt 0.597654 0.486326
vt 0.597654 0.486326
vt 0.597654 0.485353
vt 0.596682 0.485353
vt 0.596682 0.486326
f 1/1/1 2/2/1 3/3/1 4/4/1
f 5/5/2 6/6/2 7/7/2 8/8/2
f 9/9/3 10/10/3 11/11/3 12/12/3
f 9/13/4 13/14/4 14/15/4 10/16/4
f 11/17/5 15/18/5 16/19/5 12/20/5
f 17/21/3 18/22/3 19/23/3 20/24/3
f 17/25/4 21/26/4 22/27/4 18/28/4
f 23/29/6 24/30/6 16/31/6 15/32/6
f 25/33/3 26/34/3 27/35/3 28/36/3
f 29/37/6 30/38/6 31/39/6 32/40/6
f 25/41/4 30/42/4 29/43/4 26/44/4
f 27/45/5 33/46/5 34/47/5 28/48/5
f 23/49/5 35/50/5 36/51/5 24/52/5
f 37/53/5 38/54/5 39/55/5 40/56/5
f 41/57/3 42/58/3 43/59/3 44/60/3
f 41/61/4 45/62/4 46/63/4 42/64/4
f 47/65/5 48/66/5 49/67/5 50/68/5
f 51/69/6 52/70/6 39/71/6 38/72/6
f 53/73/4 52/74/4 51/75/4 54/76/4
f 31/77/4 55/78/4 56/79/4 32/80/4
f 57/81/3 58/82/3 59/83/3 60/84/3
f 61/85/6 62/86/6 63/87/6 64/88/6
f 57/89/4 62/90/4 61/91/4 58/92/4
f 59/93/5 65/94/5 66/95/5 60/96/5
f 67/97/5 64/98/5 63/99/5 68/100/5
f 69/101/3 70/102/3 71/103/3 72/104/3
f 73/105/6 74/106/6 75/107/6 76/108/6
f 69/109/4 74/110/4 73/111/4 70/112/4
f 22/113/6 21/114/6 36/115/6 35/116/6
f 77/117/3 78/118/3 79/119/3 80/120/3
f 81/121/6 82/122/6 83/123/6 84/124/6
f 77/125/4 82/126/4 81/127/4 78/128/4
f 79/129/5 84/130/5 83/131/5 80/132/5
f 1/133/1 2/134/1 3/135/1 4/136/1
f 5/137/2 6/138/2 7/139/2 8/140/2
f 24/141/3 23/142/3 85/143/3 86/144/3
f 24/145/4 31/146/4 32/147/4 23/148/4
f 85/149/5 87/150/5 88/151/5 86/152/5
f 89/153/3 90/154/3 32/155/3 31/156/3
f 89/157/4 91/158/4 92/159/4 90/160/4
f 56/161/6 55/162/6 88/163/6 87/164/6
f 93/165/3 94/166/3 92/167/3 91/168/3
f 93/169/4 95/170/4 96/171/4 94/172/4
f 97/173/6 98/174/6 99/175/6 100/176/6
f 56/177/5 100/178/5 99/179/5 55/180/5
f 101/181/3 102/182/3 96/183/3 95/184/3
f 101/185/4 103/186/4 104/187/4 102/188/4
f 105/189/6 106/190/6 107/191/6 108/192/6
f 97/193/5 108/194/5 107/195/5 98/196/5
f 109/197/3 110/198/3 104/199/3 103/200/3
f 109/201/4 111/202/4 112/203/4 110/204/4
f 113/205/6 114/206/6 115/207/6 116/208/6
f 105/209/5 116/210/5 115/211/5 106/212/5
f 117/213/3 118/214/3 112/215/3 111/216/3
f 117/217/4 119/218/4 120/219/4 118/220/4
f 121/221/6 122/222/6 123/223/6 124/224/6
f 113/225/5 124/226/5 123/227/5 114/228/5
f 125/229/3 126/230/3 120/231/3 119/232/3
f 125/233/4 127/234/4 128/235/4 126/236/4
f 129/237/6 130/238/6 131/239/6 132/240/6
f 121/241/5 132/242/5 131/243/5 122/244/5
f 133/245/3 134/246/3 128/247/3 127/248/3
f 133/249/4 135/250/4 136/251/4 134/252/4
f 129/253/5 137/254/5 138/255/5 130/256/5
f 139/257/3 140/258/3 141/259/3 142/260/3
f 139/261/4 143/262/4 144/263/4 140/264/4
f 145/265/6 146/266/6 138/267/6 137/268/6
f 144/269/6 143/270/6 147/271/6 148/272/6
f 145/273/5 148/274/5 147/275/5 146/276/5
f 136/277/6 135/278/6 149/279/6 150/280/6
f 151/281/5 150/282/5 149/283/5 152/284/5
