v 1.000000 1.000000 0.468750
v 1.000000 0.000000 0.468750
v 0.000000 0.000000 0.468750
v 0.000000 1.000000 0.468750
v 0.000000 1.000000 0.531250
v 0.000000 0.000000 0.531250
v 1.000000 0.000000 0.531250
v 1.000000 1.000000 0.531250
v 0.437500 1.000000 0.468750
v 0.437500 1.000000 0.531250
v 0.625000 1.000000 0.531250
v 0.625000 1.000000 0.468750
v 0.437500 0.937500 0.468750
v 0.437500 0.937500 0.531250
v 0.625000 0.062500 0.531250
v 0.625000 0.062500 0.468750
v 0.312500 0.937500 0.468750
v 0.312500 0.937500 0.531250
v 0.687500 0.937500 0.531250
v 0.687500 0.937500 0.468750
v 0.312500 0.062500 0.468750
v 0.312500 0.062500 0.531250
v 0.687500 0.875000 0.531250
v 0.687500 0.875000 0.468750
v 0.187500 0.875000 0.468750
v 0.187500 0.875000 0.531250
v 0.750000 0.875000 0.531250
v 0.750000 0.875000 0.468750
v 0.187500 0.187500 0.468750
v 0.187500 0.187500 0.531250
v 0.750000 0.812500 0.531250
v 0.750000 0.812500 0.468750
v 0.125000 0.812500 0.468750
v 0.125000 0.812500 0.531250
v 0.812500 0.812500 0.531250
v 0.812500 0.812500 0.468750
v 0.125000 0.250000 0.468750
v 0.125000 0.250000 0.531250
v 0.812500 0.750000 0.531250
v 0.812500 0.750000 0.468750
v 0.875000 0.750000 0.531250
v 0.875000 0.750000 0.468750
v 0.875000 0.187500 0.531250
v 0.875000 0.187500 0.468750
v 0.062500 0.687500 0.468750
v 0.062500 0.687500 0.531250
v 0.937500 0.687500 0.531250
v 0.937500 0.687500 0.468750
v 0.062500 0.312500 0.468750
v 0.062500 0.312500 0.531250
v 0.937500 0.312500 0.531250
v 0.937500 0.312500 0.468750
v 0.187500 0.250000 0.468750
v 0.187500 0.250000 0.531250
v 0.250000 0.125000 0.531250
v 0.250000 0.125000 0.468750
v 0.312500 0.125000 0.468750
v 0.312500 0.125000 0.531250
v 0.250000 0.187500 0.468750
v 0.250000 0.187500 0.531250
vn 0.000000 0.000000 -1.000000
vn 0.000000 0.000000 1.000000
vn 0.000000 1.000000 0.000000
vn -1.000000 0.000000 0.000000
vn 1.000000 0.000000 0.000000
vn 0.000000 -1.000000 0.000000
vt 0.624969 0.984344
vt 0.624969 0.968781
vt 0.609406 0.968781
vt 0.609406 0.984344
vt 0.609406 0.984344
vt 0.609406 0.968781
vt 0.624969 0.968781
vt 0.624969 0.984344
vt 0.616217 0.984373
vt 0.616217 0.983400
vt 0.619135 0.983400
vt 0.619135 0.984373
vt 0.617186 0.984373
vt 0.617186 0.983400
vt 0.616213 0.983400
vt 0.616213 0.984373
vt 0.619139 0.984346
vt 0.619139 0.969755
vt 0.618166 0.969755
vt 0.618166 0.984346
vt 0.614269 0.983397
vt 0.614269 0.982424
vt 0.620106 0.982424
vt 0.620106 0.983397
vt 0.615232 0.983372
vt 0.615232 0.969753
vt 0.614260 0.969753
vt 0.614260 0.983372
vt 0.620115 0.983397
vt 0.620115 0.982424
vt 0.619143 0.982424
vt 0.619143 0.983397
vt 0.612322 0.982420
vt 0.612322 0.981447
vt 0.621077 0.981447
vt 0.621077 0.982420
vt 0.613279 0.982401
vt 0.613279 0.971701
vt 0.612307 0.971701
vt 0.612307 0.982401
vt 0.621092 0.982420
vt 0.621092 0.981447
vt 0.620119 0.981447
vt 0.620119 0.982420
vt 0.611349 0.981443
vt 0.611349 0.980471
vt 0.622049 0.980471
vt 0.622049 0.981443
vt 0.612303 0.981428
vt 0.612303 0.972673
vt 0.611330 0.972673
vt 0.611330 0.981428
vt 0.622068 0.981443
vt 0.622068 0.980471
vt 0.621096 0.980471
vt 0.621096 0.981443
vt 0.622072 0.980467
vt 0.622072 0.979494
vt 0.623045 0.979494
vt 0.623045 0.980467
vt 0.623045 0.980452
vt 0.623045 0.971697
vt 0.622072 0.971697
vt 0.622072 0.980452
vt 0.610378 0.979490
vt 0.610378 0.978518
vt 0.623997 0.978518
vt 0.623997 0.979490
vt 0.611326 0.979481
vt 0.611326 0.973644
vt 0.610353 0.973644
vt 0.610353 0.979481
vt 0.624022 0.979481
vt 0.624022 0.973644
vt 0.623049 0.973644
vt 0.623049 0.979481
vt 0.610378 0.974607
vt 0.610378 0.973635
vt 0.623997 0.973635
vt 0.623997 0.974607
vt 0.611330 0.973631
vt 0.611330 0.972658
vt 0.612303 0.972658
vt 0.612303 0.973631
vt 0.612326 0.972654
vt 0.612326 0.971682
vt 0.623026 0.971682
vt 0.623026 0.972654
vt 0.613283 0.971678
vt 0.613283 0.970705
vt 0.614256 0.970705
vt 0.614256 0.971678
vt 0.614256 0.971678
vt 0.614256 0.970705
vt 0.613283 0.970705
vt 0.613283 0.971678
vt 0.614267 0.970701
vt 0.614267 0.969728
vt 0.619131 0.969728
vt 0.619131 0.970701
f 1/1/1 2/2/1 3/3/1 4/4/1
f 5/5/2 6/6/2 7/7/2 8/8/2
f 9/9/3 10/10/3 11/11/3 12/12/3
f 9/13/4 13/14/4 14/15/4 10/16/4
f 11/17/5 15/18/5 16/19/5 12/20/5
f 17/21/3 18/22/3 19/23/3 20/24/3
f 17/25/4 21/26/4 22/27/4 18/28/4
f 19/29/5 23/30/5 24/31/5 20/32/5
f 25/33/3 26/34/3 27/35/3 28/36/3
f 25/37/4 29/38/4 30/39/4 26/40/4
f 27/41/5 31/42/5 32/43/5 28/44/5
f 33/45/3 34/46/3 35/47/3 36/48/3
f 33/49/4 37/50/4 38/51/4 34/52/4
f 35/53/5 39/54/5 40/55/5 36/56/5
f 40/57/3 39/58/3 41/59/3 42/60/3
f 41/61/5 43/62/5 44/63/5 42/64/5
f 45/65/3 46/66/3 47/67/3 48/68/3
f 45/69/4 49/70/4 50/71/4 46/72/4
f 47/73/5 51/74/5 52/75/5 48/76/5
f 50/77/6 49/78/6 52/79/6 51/80/6
f 38/81/6 37/82/6 53/83/6 54/84/6
f 30/85/6 29/86/6 44/87/6 43/88/6
f 55/89/6 56/90/6 57/91/6 58/92/6
f 59/93/4 56/94/4 55/95/4 60/96/4
f 22/97/6 21/98/6 16/99/6 15/100/6
