v 1.000000 1.000000 0.468750
v 1.000000 0.000000 0.468750
v 0.000000 0.000000 0.468750
v 0.000000 1.000000 0.468750
v 0.000000 1.000000 0.531250
v 0.000000 0.000000 0.531250
v 1.000000 0.000000 0.531250
v 1.000000 1.000000 0.531250
v 0.312500 0.937500 0.468750
v 0.312500 0.937500 0.531250
v 0.687500 0.937500 0.531250
v 0.687500 0.937500 0.468750
v 0.312500 0.062500 0.468750
v 0.312500 0.062500 0.531250
v 0.687500 0.062500 0.531250
v 0.687500 0.062500 0.468750
v 0.250000 0.875000 0.468750
v 0.250000 0.875000 0.531250
v 0.750000 0.875000 0.531250
v 0.750000 0.875000 0.468750
v 0.250000 0.187500 0.468750
v 0.250000 0.187500 0.531250
v 0.750000 0.187500 0.531250
v 0.750000 0.187500 0.468750
v 0.062500 0.500000 0.468750
v 0.062500 0.500000 0.531250
v 0.937500 0.500000 0.531250
v 0.937500 0.500000 0.468750
v 0.062500 0.375000 0.468750
v 0.062500 0.375000 0.531250
v 0.937500 0.375000 0.531250
v 0.937500 0.375000 0.468750
v 0.125000 0.312500 0.531250
v 0.125000 0.312500 0.468750
v 0.875000 0.312500 0.468750
v 0.875000 0.312500 0.531250
v 0.125000 0.375000 0.468750
v 0.125000 0.375000 0.531250
v 0.875000 0.375000 0.531250
v 0.875000 0.375000 0.468750
v 0.375000 0.000000 0.531250
v 0.375000 0.000000 0.468750
v 0.625000 0.000000 0.468750
v 0.625000 0.000000 0.531250
v 0.375000 0.062500 0.468750
v 0.375000 0.062500 0.531250
v 0.625000 0.062500 0.531250
v 0.625000 0.062500 0.468750
vn 0.000000 0.000000 -1.000000
vn 0.000000 0.000000 1.000000
vn 0.000000 1.000000 0.000000
vn -1.000000 0.000000 0.000000
vn 1.000000 0.000000 0.000000
vn 0.000000 -1.000000 0.000000
vt 0.624969 0.968719
vt 0.624969 0.953156
vt 0.609406 0.953156
vt 0.609406 0.968719
vt 0.609406 0.968719
vt 0.609406 0.953156
vt 0.624969 0.953156
vt 0.624969 0.968719
vt 0.614269 0.967772
vt 0.614269 0.966799
vt 0.620106 0.966799
vt 0.620106 0.967772
vt 0.615232 0.967747
vt 0.615232 0.954128
vt 0.614260 0.954128
vt 0.614260 0.967747
vt 0.620115 0.967747
vt 0.620115 0.954128
vt 0.619143 0.954128
vt 0.619143 0.967747
vt 0.613297 0.966795
vt 0.613297 0.965822
vt 0.621078 0.965822
vt 0.621078 0.966795
vt 0.614256 0.966776
vt 0.614256 0.956076
vt 0.613283 0.956076
vt 0.613283 0.966776
vt 0.621092 0.966776
vt 0.621092 0.956076
vt 0.620119 0.956076
vt 0.620119 0.966776
vt 0.610378 0.960936
vt 0.610378 0.959963
vt 0.623997 0.959963
vt 0.623997 0.960936
vt 0.611326 0.960934
vt 0.611326 0.958988
vt 0.610353 0.958988
vt 0.610353 0.960934
vt 0.624022 0.960934
vt 0.624022 0.958988
vt 0.623049 0.958988
vt 0.623049 0.960934
vt 0.610378 0.959959
vt 0.610378 0.958986
vt 0.623997 0.958986
vt 0.623997 0.959959
vt 0.611351 0.958982
vt 0.611351 0.958010
vt 0.623024 0.958010
vt 0.623024 0.958982
vt 0.612303 0.958982
vt 0.612303 0.958010
vt 0.611330 0.958010
vt 0.611330 0.958982
vt 0.623045 0.958982
vt 0.623045 0.958010
vt 0.622072 0.958010
vt 0.622072 0.958982
vt 0.613297 0.957029
vt 0.613297 0.956057
vt 0.621078 0.956057
vt 0.621078 0.957029
vt 0.614269 0.955076
vt 0.614269 0.954103
vt 0.620106 0.954103
vt 0.620106 0.955076
vt 0.615242 0.954100
vt 0.615242 0.953127
vt 0.619133 0.953127
vt 0.619133 0.954100
vt 0.616209 0.954100
vt 0.616209 0.953127
vt 0.615236 0.953127
vt 0.615236 0.954100
vt 0.619139 0.954100
vt 0.619139 0.953127
vt 0.618166 0.953127
vt 0.618166 0.954100
f 1/1/1 2/2/1 3/3/1 4/4/1
f 5/5/2 6/6/2 7/7/2 8/8/2
f 9/9/3 10/10/3 11/11/3 12/12/3
f 9/13/4 13/14/4 14/15/4 10/16/4
f 11/17/5 15/18/5 16/19/5 12/20/5
f 17/21/3 18/22/3 19/23/3 20/24/3
f 17/25/4 21/26/4 22/27/4 18/28/4
f 19/29/5 23/30/5 24/31/5 20/32/5
f 25/33/3 26/34/3 27/35/3 28/36/3
f 25/37/4 29/38/4 30/39/4 26/40/4
f 27/41/5 31/42/5 32/43/5 28/44/5
f 30/45/6 29/46/6 32/47/6 31/48/6
f 33/49/6 34/50/6 35/51/6 36/52/6
f 37/53/4 34/54/4 33/55/4 38/56/4
f 39/57/5 36/58/5 35/59/5 40/60/5
f 22/61/6 21/62/6 24/63/6 23/64/6
f 14/65/6 13/66/6 16/67/6 15/68/6
f 41/69/6 42/70/6 43/71/6 44/72/6
f 45/73/4 42/74/4 41/75/4 46/76/4
f 47/77/5 44/78/5 43/79/5 48/80/5
