v 1.000000 1.000000 0.468750
v 1.000000 0.000000 0.468750
v 0.000000 0.000000 0.468750
v 0.000000 1.000000 0.468750
v 0.000000 1.000000 0.531250
v 0.000000 0.000000 0.531250
v 1.000000 0.000000 0.531250
v 1.000000 1.000000 0.531250
v 0.687500 0.937500 0.468750
v 0.687500 0.937500 0.531250
v 0.812500 0.937500 0.531250
v 0.812500 0.937500 0.468750
v 0.687500 0.812500 0.468750
v 0.687500 0.812500 0.531250
v 0.812500 0.625000 0.531250
v 0.812500 0.625000 0.468750
v 0.812500 0.875000 0.468750
v 0.812500 0.875000 0.531250
v 0.875000 0.875000 0.531250
v 0.875000 0.875000 0.468750
v 0.875000 0.812500 0.531250
v 0.875000 0.812500 0.468750
v 0.625000 0.812500 0.468750
v 0.625000 0.812500 0.531250
v 0.937500 0.812500 0.531250
v 0.937500 0.812500 0.468750
v 0.625000 0.750000 0.468750
v 0.625000 0.750000 0.531250
v 0.937500 0.687500 0.531250
v 0.937500 0.687500 0.468750
v 0.312500 0.750000 0.468750
v 0.312500 0.750000 0.531250
v 0.312500 0.687500 0.468750
v 0.312500 0.687500 0.531250
v 0.437500 0.750000 0.531250
v 0.437500 0.687500 0.531250
v 0.437500 0.687500 0.468750
v 0.437500 0.750000 0.468750
v 0.500000 0.750000 0.468750
v 0.500000 0.687500 0.468750
v 0.500000 0.687500 0.531250
v 0.500000 0.750000 0.531250
v 0.812500 0.687500 0.531250
v 0.812500 0.687500 0.468750
v 0.250000 0.687500 0.468750
v 0.250000 0.687500 0.531250
v 0.250000 0.500000 0.468750
v 0.250000 0.500000 0.531250
v 0.750000 0.625000 0.531250
v 0.750000 0.625000 0.468750
v 0.750000 0.437500 0.531250
v 0.750000 0.437500 0.468750
v 0.187500 0.500000 0.468750
v 0.187500 0.500000 0.531250
v 0.187500 0.062500 0.468750
v 0.187500 0.062500 0.531250
v 0.687500 0.437500 0.531250
v 0.687500 0.437500 0.468750
v 0.687500 0.312500 0.531250
v 0.687500 0.312500 0.468750
v 0.125000 0.375000 0.468750
v 0.125000 0.375000 0.531250
v 0.187500 0.375000 0.531250
v 0.187500 0.375000 0.468750
v 0.125000 0.125000 0.468750
v 0.125000 0.125000 0.531250
v 0.625000 0.312500 0.531250
v 0.625000 0.312500 0.468750
v 0.562500 0.250000 0.531250
v 0.562500 0.250000 0.468750
v 0.625000 0.250000 0.468750
v 0.625000 0.250000 0.531250
v 0.500000 0.187500 0.531250
v 0.500000 0.187500 0.468750
v 0.562500 0.187500 0.468750
v 0.562500 0.187500 0.531250
v 0.500000 0.125000 0.468750
v 0.500000 0.125000 0.531250
v 0.375000 0.062500 0.468750
v 0.375000 0.062500 0.531250
v 0.375000 0.125000 0.531250
v 0.375000 0.125000 0.468750
vn 0.000000 0.000000 -1.000000
vn 0.000000 0.000000 1.000000
vn 0.000000 1.000000 0.000000
vn -1.000000 0.000000 0.000000
vn 1.000000 0.000000 0.000000
vn 0.000000 -1.000000 0.000000
vt 0.624969 0.937469
vt 0.624969 0.921906
vt 0.609406 0.921906
vt 0.609406 0.937469
vt 0.609406 0.937469
vt 0.609406 0.921906
vt 0.624969 0.921906
vt 0.624969 0.937469
vt 0.620121 0.936522
vt 0.620121 0.935549
vt 0.622066 0.935549
vt 0.622066 0.936522
vt 0.621092 0.936520
vt 0.621092 0.934574
vt 0.620119 0.934574
vt 0.620119 0.936520
vt 0.622068 0.936514
vt 0.622068 0.931650
vt 0.621096 0.931650
vt 0.621096 0.936514
vt 0.622072 0.935545
vt 0.622072 0.934572
vt 0.623045 0.934572
vt 0.623045 0.935545
vt 0.623045 0.935545
vt 0.623045 0.934572
vt 0.622072 0.934572
vt 0.622072 0.935545
vt 0.619150 0.934568
vt 0.619150 0.933596
vt 0.624014 0.933596
vt 0.624014 0.934568
vt 0.620115 0.934568
vt 0.620115 0.933596
vt 0.619143 0.933596
vt 0.619143 0.934568
vt 0.624022 0.934566
vt 0.624022 0.932621
vt 0.623049 0.932621
vt 0.623049 0.934566
vt 0.614267 0.933592
vt 0.614267 0.932619
vt 0.619131 0.932619
vt 0.619131 0.933592
vt 0.615232 0.933592
vt 0.615232 0.932619
vt 0.614260 0.932619
vt 0.614260 0.933592
vt 0.616209 0.933592
vt 0.616209 0.932619
vt 0.615236 0.932619
vt 0.615236 0.933592
vt 0.618162 0.933592
vt 0.618162 0.932619
vt 0.617189 0.932619
vt 0.617189 0.933592
vt 0.622074 0.933592
vt 0.622074 0.932619
vt 0.624020 0.932619
vt 0.624020 0.933592
vt 0.613289 0.932615
vt 0.613289 0.931643
vt 0.617180 0.931643
vt 0.617180 0.932615
vt 0.614256 0.932611
vt 0.614256 0.929693
vt 0.613283 0.929693
vt 0.613283 0.932611
vt 0.621096 0.932615
vt 0.621096 0.931643
vt 0.622068 0.931643
vt 0.622068 0.932615
vt 0.621092 0.931635
vt 0.621092 0.928717
vt 0.620119 0.928717
vt 0.620119 0.931635
vt 0.612307 0.929686
vt 0.612307 0.928713
vt 0.613279 0.928713
vt 0.613279 0.929686
vt 0.613279 0.929674
vt 0.613279 0.922865
vt 0.612307 0.922865
vt 0.612307 0.929674
vt 0.620119 0.929686
vt 0.620119 0.928713
vt 0.621092 0.928713
vt 0.621092 0.929686
vt 0.620115 0.928707
vt 0.620115 0.926762
vt 0.619143 0.926762
vt 0.619143 0.928707
vt 0.611330 0.927732
vt 0.611330 0.926760
vt 0.612303 0.926760
vt 0.612303 0.927732
vt 0.612303 0.927727
vt 0.612303 0.923836
vt 0.611330 0.923836
vt 0.611330 0.927727
vt 0.619143 0.927732
vt 0.619143 0.926760
vt 0.620115 0.926760
vt 0.620115 0.927732
vt 0.618166 0.926756
vt 0.618166 0.925783
vt 0.619139 0.925783
vt 0.619139 0.926756
vt 0.619139 0.926756
vt 0.619139 0.925783
vt 0.618166 0.925783
vt 0.618166 0.926756
vt 0.617189 0.925779
vt 0.617189 0.924807
vt 0.618162 0.924807
vt 0.618162 0.925779
vt 0.618162 0.925779
vt 0.618162 0.924807
vt 0.617189 0.924807
vt 0.617189 0.925779
vt 0.611340 0.924803
vt 0.611340 0.923830
vt 0.617176 0.923830
vt 0.617176 0.924803
vt 0.617186 0.924803
vt 0.617186 0.923830
vt 0.616213 0.923830
vt 0.616213 0.924803
vt 0.612310 0.923826
vt 0.612310 0.922853
vt 0.615229 0.922853
vt 0.615229 0.923826
vt 0.615232 0.923826
vt 0.615232 0.922853
vt 0.614260 0.922853
vt 0.614260 0.923826
f 1/1/1 2/2/1 3/3/1 4/4/1
f 5/5/2 6/6/2 7/7/2 8/8/2
f 9/9/3 10/10/3 11/11/3 12/12/3
f 9/13/4 13/14/4 14/15/4 10/16/4
f 11/17/5 15/18/5 16/19/5 12/20/5
f 17/21/3 18/22/3 19/23/3 20/24/3
f 19/25/5 21/26/5 22/27/5 20/28/5
f 23/29/3 24/30/3 25/31/3 26/32/3
f 23/33/4 27/34/4 28/35/4 24/36/4
f 25/37/5 29/38/5 30/39/5 26/40/5
f 31/41/3 32/42/3 28/43/3 27/44/3
f 31/45/4 33/46/4 34/47/4 32/48/4
f 35/49/5 36/50/5 37/51/5 38/52/5
f 39/53/4 40/54/4 41/55/4 42/56/4
f 43/57/6 44/58/6 30/59/6 29/60/6
f 45/61/3 46/62/3 41/63/3 40/64/3
f 45/65/4 47/66/4 48/67/4 46/68/4
f 49/69/6 50/70/6 16/71/6 15/72/6
f 49/73/5 51/74/5 52/75/5 50/76/5
f 53/77/3 54/78/3 48/79/3 47/80/3
f 53/81/4 55/82/4 56/83/4 54/84/4
f 57/85/6 58/86/6 52/87/6 51/88/6
f 57/89/5 59/90/5 60/91/5 58/92/5
f 61/93/3 62/94/3 63/95/3 64/96/3
f 61/97/4 65/98/4 66/99/4 62/100/4
f 67/101/6 68/102/6 60/103/6 59/104/6
f 69/105/6 70/106/6 71/107/6 72/108/6
f 67/109/5 72/110/5 71/111/5 68/112/5
f 73/113/6 74/114/6 75/115/6 76/116/6
f 69/117/5 76/118/5 75/119/5 70/120/5
f 66/121/6 65/122/6 77/123/6 78/124/6
f 73/125/5 78/126/5 77/127/5 74/128/5
f 56/129/6 55/130/6 79/131/6 80/132/6
f 81/133/5 80/134/5 79/135/5 82/136/5
