v 1.000000 1.000000 0.468750
v 1.000000 0.000000 0.468750
v 0.000000 0.000000 0.468750
v 0.000000 1.000000 0.468750
v 0.000000 1.000000 0.531250
v 0.000000 0.000000 0.531250
v 1.000000 0.000000 0.531250
v 1.000000 1.000000 0.531250
v 0.312500 0.750000 0.468750
v 0.312500 0.750000 0.531250
v 0.687500 0.750000 0.531250
v 0.687500 0.750000 0.468750
v 0.312500 0.687500 0.468750
v 0.312500 0.687500 0.531250
v 0.687500 0.687500 0.531250
v 0.687500 0.687500 0.468750
v 0.250000 0.687500 0.468750
v 0.250000 0.687500 0.531250
v 0.750000 0.687500 0.531250
v 0.750000 0.687500 0.468750
v 0.250000 0.250000 0.468750
v 0.250000 0.250000 0.531250
v 0.750000 0.250000 0.531250
v 0.750000 0.250000 0.468750
v 0.187500 0.625000 0.468750
v 0.187500 0.625000 0.531250
v 0.812500 0.625000 0.531250
v 0.812500 0.625000 0.468750
v 0.187500 0.312500 0.468750
v 0.187500 0.312500 0.531250
v 0.812500 0.312500 0.531250
v 0.812500 0.312500 0.468750
v 0.375000 0.312500 0.531250
v 0.375000 0.250000 0.531250
v 0.375000 0.250000 0.468750
v 0.375000 0.312500 0.468750
v 0.625000 0.312500 0.468750
v 0.625000 0.250000 0.468750
v 0.625000 0.250000 0.531250
v 0.625000 0.312500 0.531250
vn 0.000000 0.000000 -1.000000
vn 0.000000 0.000000 1.000000
vn 0.000000 1.000000 0.000000
vn -1.000000 0.000000 0.000000
vn 1.000000 0.000000 0.000000
vn 0.000000 -1.000000 0.000000
vt 0.624969 0.890594
vt 0.624969 0.875031
vt 0.609406 0.875031
vt 0.609406 0.890594
vt 0.609406 0.890594
vt 0.609406 0.875031
vt 0.624969 0.875031
vt 0.624969 0.890594
vt 0.614269 0.886717
vt 0.614269 0.885744
vt 0.620106 0.885744
vt 0.620106 0.886717
vt 0.615232 0.886717
vt 0.615232 0.885744
vt 0.614260 0.885744
vt 0.614260 0.886717
vt 0.620115 0.886717
vt 0.620115 0.885744
vt 0.619143 0.885744
vt 0.619143 0.886717
vt 0.613297 0.885740
vt 0.613297 0.884768
vt 0.621078 0.884768
vt 0.621078 0.885740
vt 0.614256 0.885729
vt 0.614256 0.878920
vt 0.613283 0.878920
vt 0.613283 0.885729
vt 0.621092 0.885729
vt 0.621092 0.878920
vt 0.620119 0.878920
vt 0.620119 0.885729
vt 0.612324 0.884764
vt 0.612324 0.883791
vt 0.622051 0.883791
vt 0.622051 0.884764
vt 0.613279 0.884756
vt 0.613279 0.879892
vt 0.612307 0.879892
vt 0.612307 0.884756
vt 0.622068 0.884756
vt 0.622068 0.879892
vt 0.621096 0.879892
vt 0.621096 0.884756
vt 0.612324 0.880857
vt 0.612324 0.879885
vt 0.622051 0.879885
vt 0.622051 0.880857
vt 0.613297 0.879881
vt 0.613297 0.878908
vt 0.621078 0.878908
vt 0.621078 0.879881
vt 0.615232 0.879881
vt 0.615232 0.878908
vt 0.614260 0.878908
vt 0.614260 0.879881
vt 0.620115 0.879881
vt 0.620115 0.878908
vt 0.619143 0.878908
vt 0.619143 0.879881
f 1/1/1 2/2/1 3/3/1 4/4/1
f 5/5/2 6/6/2 7/7/2 8/8/2
f 9/9/3 10/10/3 11/11/3 12/12/3
f 9/13/4 13/14/4 14/15/4 10/16/4
f 11/17/5 15/18/5 16/19/5 12/20/5
f 17/21/3 18/22/3 19/23/3 20/24/3
f 17/25/4 21/26/4 22/27/4 18/28/4
f 19/29/5 23/30/5 24/31/5 20/32/5
f 25/33/3 26/34/3 27/35/3 28/36/3
f 25/37/4 29/38/4 30/39/4 26/40/4
f 27/41/5 31/42/5 32/43/5 28/44/5
f 30/45/6 29/46/6 32/47/6 31/48/6
f 22/49/6 21/50/6 24/51/6 23/52/6
f 33/53/5 34/54/5 35/55/5 36/56/5
f 37/57/4 38/58/4 39/59/4 40/60/4
