v 1.000000 1.000000 0.468750
v 1.000000 0.000000 0.468750
v 0.000000 0.000000 0.468750
v 0.000000 1.000000 0.468750
v 0.000000 1.000000 0.531250
v 0.000000 0.000000 0.531250
v 1.000000 0.000000 0.531250
v 1.000000 1.000000 0.531250
v 0.187500 1.000000 0.468750
v 0.187500 1.000000 0.531250
v 0.937500 1.000000 0.531250
v 0.937500 1.000000 0.468750
v 0.187500 0.500000 0.468750
v 0.187500 0.500000 0.531250
v 0.375000 0.937500 0.531250
v 0.375000 0.937500 0.468750
v 0.562500 0.937500 0.468750
v 0.562500 0.937500 0.531250
v 0.625000 1.000000 0.531250
v 0.625000 0.000000 0.531250
v 0.625000 0.000000 0.468750
v 0.625000 1.000000 0.468750
v 0.687500 1.000000 0.468750
v 0.687500 0.000000 0.468750
v 0.687500 0.000000 0.531250
v 0.687500 1.000000 0.531250
v 0.937500 0.375000 0.531250
v 0.937500 0.375000 0.468750
v 0.062500 0.937500 0.468750
v 0.062500 0.937500 0.531250
v 0.187500 0.937500 0.531250
v 0.187500 0.937500 0.468750
v 0.062500 0.062500 0.468750
v 0.062500 0.062500 0.531250
v 0.312500 0.875000 0.531250
v 0.312500 0.875000 0.468750
v 0.937500 0.875000 0.468750
v 0.937500 0.875000 0.531250
v 0.375000 0.312500 0.531250
v 0.375000 0.312500 0.468750
v 0.562500 0.125000 0.468750
v 0.562500 0.125000 0.531250
v 0.000000 0.875000 0.468750
v 0.000000 0.875000 0.531250
v 0.687500 0.875000 0.531250
v 0.687500 0.875000 0.468750
v 0.000000 0.187500 0.468750
v 0.000000 0.187500 0.531250
v 0.250000 0.812500 0.531250
v 0.250000 0.812500 0.468750
v 0.312500 0.812500 0.468750
v 0.312500 0.812500 0.531250
v 0.312500 0.062500 0.531250
v 0.312500 0.062500 0.468750
v 0.625000 0.875000 0.468750
v 0.625000 0.062500 0.468750
v 0.625000 0.062500 0.531250
v 0.625000 0.875000 0.531250
v 0.875000 0.875000 0.531250
v 0.875000 0.000000 0.531250
v 0.875000 0.000000 0.468750
v 0.875000 0.875000 0.468750
v 0.000000 0.750000 0.531250
v 0.000000 0.750000 0.468750
v 0.125000 0.750000 0.468750
v 0.125000 0.750000 0.531250
v 0.250000 0.687500 0.531250
v 0.250000 0.687500 0.468750
v 0.562500 0.812500 0.468750
v 0.562500 0.812500 0.531250
v 0.625000 0.812500 0.531250
v 0.625000 0.812500 0.468750
v 0.125000 0.000000 0.468750
v 0.125000 0.000000 0.531250
v 0.625000 0.687500 0.531250
v 0.625000 0.687500 0.468750
v 0.750000 0.687500 0.468750
v 0.750000 0.687500 0.531250
v 0.062500 0.687500 0.468750
v 0.062500 0.687500 0.531250
v 1.000000 0.687500 0.531250
v 1.000000 0.687500 0.468750
v 0.437500 0.687500 0.468750
v 0.437500 0.625000 0.468750
v 0.437500 0.625000 0.531250
v 0.437500 0.687500 0.531250
v 0.562500 0.625000 0.531250
v 0.562500 0.625000 0.468750
v 1.000000 0.625000 0.468750
v 1.000000 0.625000 0.531250
v 0.750000 0.625000 0.468750
v 0.750000 0.625000 0.531250
v 1.000000 0.062500 0.531250
v 1.000000 0.062500 0.468750
v 0.000000 0.625000 0.468750
v 0.000000 0.625000 0.531250
v 0.062500 0.562500 0.531250
v 0.062500 0.562500 0.468750
v 0.500000 0.562500 0.468750
v 0.500000 0.562500 0.531250
v 0.562500 0.500000 0.531250
v 0.562500 0.500000 0.468750
v 0.000000 0.500000 0.531250
v 0.000000 0.500000 0.468750
v 0.687500 0.500000 0.468750
v 0.687500 0.500000 0.531250
v 0.062500 0.500000 0.531250
v 0.062500 0.500000 0.468750
v 0.437500 0.562500 0.531250
v 0.437500 0.000000 0.531250
v 0.437500 0.000000 0.468750
v 0.437500 0.562500 0.468750
v 0.500000 0.000000 0.468750
v 0.500000 0.000000 0.531250
v 0.625000 0.562500 0.468750
v 0.625000 0.562500 0.531250
v 0.687500 0.562500 0.531250
v 0.687500 0.562500 0.468750
v 0.250000 0.500000 0.468750
v 0.250000 0.312500 0.468750
v 0.250000 0.312500 0.531250
v 0.250000 0.500000 0.531250
v 0.375000 0.437500 0.531250
v 0.375000 0.437500 0.468750
v 0.437500 0.437500 0.468750
v 0.437500 0.437500 0.531250
v 0.625000 0.437500 0.468750
v 0.625000 0.437500 0.531250
v 0.937500 0.437500 0.531250
v 0.937500 0.437500 0.468750
v 0.750000 0.375000 0.531250
v 0.750000 0.375000 0.468750
v 0.750000 0.250000 0.531250
v 0.750000 0.250000 0.468750
v 0.125000 0.312500 0.468750
v 0.125000 0.312500 0.531250
v 0.625000 0.312500 0.531250
v 0.625000 0.312500 0.468750
v 0.000000 0.250000 0.468750
v 0.000000 0.250000 0.531250
v 1.000000 0.250000 0.531250
v 1.000000 0.250000 0.468750
v 0.687500 0.187500 0.468750
v 0.687500 0.187500 0.531250
v 0.812500 0.250000 0.531250
v 0.812500 0.062500 0.531250
v 0.812500 0.062500 0.468750
v 0.812500 0.250000 0.468750
v 0.875000 0.250000 0.468750
v 0.875000 0.187500 0.468750
v 0.875000 0.187500 0.531250
v 0.875000 0.250000 0.531250
v 0.375000 0.125000 0.531250
v 0.375000 0.125000 0.468750
v 0.937500 0.125000 0.468750
v 0.937500 0.125000 0.531250
v 0.375000 0.187500 0.468750
v 0.375000 0.187500 0.531250
v 0.812500 0.187500 0.468750
v 0.812500 0.187500 0.531250
v 0.625000 0.125000 0.468750
v 0.625000 0.125000 0.531250
v 0.687500 0.125000 0.531250
v 0.687500 0.125000 0.468750
v 0.937500 0.062500 0.468750
v 0.937500 0.062500 0.531250
v 0.875000 0.062500 0.531250
v 0.875000 0.062500 0.468750
vn 0.000000 0.000000 -1.000000
vn 0.000000 0.000000 1.000000
vn 0.000000 1.000000 0.000000
vn -1.000000 0.000000 0.000000
vn 0.000000 -1.000000 0.000000
vn 1.000000 0.000000 0.000000
vt 0.031219 0.609344
vt 0.031219 0.593781
vt 0.015656 0.593781
vt 0.015656 0.609344
vt 0.015656 0.609344
vt 0.015656 0.593781
vt 0.031219 0.593781
vt 0.031219 0.609344
vt 0.018578 0.609373
vt 0.018578 0.608400
vt 0.030251 0.608400
vt 0.030251 0.609373
vt 0.019529 0.609360
vt 0.019529 0.601578
vt 0.018557 0.601578
vt 0.018557 0.609360
vt 0.021490 0.609373
vt 0.021490 0.608400
vt 0.024408 0.608400
vt 0.024408 0.609373
vt 0.025389 0.609344
vt 0.025389 0.593781
vt 0.024416 0.593781
vt 0.024416 0.609344
vt 0.027342 0.609344
vt 0.027342 0.593781
vt 0.026369 0.593781
vt 0.026369 0.609344
vt 0.030272 0.609356
vt 0.030272 0.599628
vt 0.029299 0.599628
vt 0.029299 0.609356
vt 0.016605 0.608397
vt 0.016605 0.607424
vt 0.018551 0.607424
vt 0.018551 0.608397
vt 0.017576 0.608372
vt 0.017576 0.594753
vt 0.016603 0.594753
vt 0.016603 0.608372
vt 0.020527 0.608397
vt 0.020527 0.607424
vt 0.030254 0.607424
vt 0.030254 0.608397
vt 0.021482 0.608379
vt 0.021482 0.598652
vt 0.020510 0.598652
vt 0.020510 0.608379
vt 0.025389 0.608374
vt 0.025389 0.595728
vt 0.024416 0.595728
vt 0.024416 0.608374
vt 0.015646 0.607420
vt 0.015646 0.606447
vt 0.026346 0.606447
vt 0.026346 0.607420
vt 0.016600 0.607401
vt 0.016600 0.596701
vt 0.015627 0.596701
vt 0.015627 0.607401
vt 0.019533 0.607420
vt 0.019533 0.606447
vt 0.020506 0.606447
vt 0.020506 0.607420
vt 0.020506 0.607397
vt 0.020506 0.594751
vt 0.019533 0.594751
vt 0.019533 0.607397
vt 0.026365 0.607397
vt 0.026365 0.594751
vt 0.025393 0.594751
vt 0.025393 0.607397
vt 0.029295 0.607395
vt 0.029295 0.593777
vt 0.028322 0.593777
vt 0.028322 0.607395
vt 0.015629 0.606443
vt 0.015629 0.605471
vt 0.017574 0.605471
vt 0.017574 0.606443
vt 0.019529 0.606441
vt 0.019529 0.604496
vt 0.018557 0.604496
vt 0.018557 0.606441
vt 0.024416 0.606443
vt 0.024416 0.605471
vt 0.025389 0.605471
vt 0.025389 0.606443
vt 0.018553 0.605446
vt 0.018553 0.593773
vt 0.017580 0.593773
vt 0.017580 0.605446
vt 0.025394 0.605467
vt 0.025394 0.604494
vt 0.027340 0.604494
vt 0.027340 0.605467
vt 0.016630 0.604490
vt 0.016630 0.603518
vt 0.031221 0.603518
vt 0.031221 0.604490
vt 0.023436 0.604490
vt 0.023436 0.603518
vt 0.022463 0.603518
vt 0.022463 0.604490
vt 0.024427 0.604490
vt 0.024427 0.603518
vt 0.031237 0.603518
vt 0.031237 0.604490
vt 0.028318 0.604490
vt 0.028318 0.603518
vt 0.027346 0.603518
vt 0.027346 0.604490
vt 0.031248 0.604473
vt 0.031248 0.594746
vt 0.030275 0.594746
vt 0.030275 0.604473
vt 0.015648 0.603514
vt 0.015648 0.602541
vt 0.027321 0.602541
vt 0.027321 0.603514
vt 0.016615 0.603514
vt 0.016615 0.602541
vt 0.023424 0.602541
vt 0.023424 0.603514
vt 0.024412 0.603512
vt 0.024412 0.601566
vt 0.023439 0.601566
vt 0.023439 0.603512
vt 0.015646 0.602537
vt 0.015646 0.601564
vt 0.026346 0.601564
vt 0.026346 0.602537
vt 0.016600 0.602537
vt 0.016600 0.601564
vt 0.015627 0.601564
vt 0.015627 0.602537
vt 0.022459 0.602522
vt 0.022459 0.593767
vt 0.021486 0.593767
vt 0.021486 0.602522
vt 0.024412 0.602522
vt 0.024412 0.593767
vt 0.023439 0.593767
vt 0.023439 0.602522
vt 0.025393 0.602537
vt 0.025393 0.601564
vt 0.026365 0.601564
vt 0.026365 0.602537
vt 0.020506 0.601557
vt 0.020506 0.598639
vt 0.019533 0.598639
vt 0.019533 0.601557
vt 0.021486 0.601561
vt 0.021486 0.600588
vt 0.022459 0.600588
vt 0.022459 0.601561
vt 0.025400 0.600584
vt 0.025400 0.599611
vt 0.030264 0.599611
vt 0.030264 0.600584
vt 0.027349 0.600584
vt 0.027349 0.599611
vt 0.030268 0.599611
vt 0.030268 0.600584
vt 0.027342 0.599606
vt 0.027342 0.597660
vt 0.026369 0.597660
vt 0.026369 0.599606
vt 0.017593 0.598631
vt 0.017593 0.597658
vt 0.025375 0.597658
vt 0.025375 0.598631
vt 0.015656 0.597654
vt 0.015656 0.596682
vt 0.031219 0.596682
vt 0.031219 0.597654
vt 0.015646 0.597654
vt 0.015646 0.596682
vt 0.026346 0.596682
vt 0.026346 0.597654
vt 0.028318 0.597651
vt 0.028318 0.594732
vt 0.027346 0.594732
vt 0.027346 0.597651
vt 0.030272 0.597654
vt 0.030272 0.596682
vt 0.029299 0.596682
vt 0.029299 0.597654
vt 0.021502 0.596678
vt 0.021502 0.595705
vt 0.030256 0.595705
vt 0.030256 0.596678
vt 0.022459 0.596678
vt 0.022459 0.595705
vt 0.021486 0.595705
vt 0.021486 0.596678
vt 0.028322 0.596678
vt 0.028322 0.595705
vt 0.029295 0.595705
vt 0.029295 0.596678
vt 0.016630 0.595701
vt 0.016630 0.594728
vt 0.031221 0.594728
vt 0.031221 0.595701
vt 0.025393 0.595701
vt 0.025393 0.594728
vt 0.026365 0.594728
vt 0.026365 0.595701
vt 0.031248 0.595701
vt 0.031248 0.594728
vt 0.030275 0.594728
vt 0.030275 0.595701
vt 0.017601 0.594725
vt 0.017601 0.593752
vt 0.029274 0.593752
vt 0.029274 0.594725
vt 0.020525 0.594725
vt 0.020525 0.593752
vt 0.029280 0.593752
vt 0.029280 0.594725
f 1/1/1 2/2/1 3/3/1 4/4/1
f 5/5/2 6/6/2 7/7/2 8/8/2
f 9/9/3 10/10/3 11/11/3 12/12/3
f 9/13/4 13/14/4 14/15/4 10/16/4
f 15/17/5 16/18/5 17/19/5 18/20/5
f 19/21/6 20/22/6 21/23/6 22/24/6
f 23/25/4 24/26/4 25/27/4 26/28/4
f 11/29/6 27/30/6 28/31/6 12/32/6
f 29/33/3 30/34/3 31/35/3 32/36/3
f 29/37/4 33/38/4 34/39/4 30/40/4
f 35/41/5 36/42/5 37/43/5 38/44/5
f 15/45/6 39/46/6 40/47/6 16/48/6
f 17/49/4 41/50/4 42/51/4 18/52/4
f 43/53/3 44/54/3 45/55/3 46/56/3
f 43/57/4 47/58/4 48/59/4 44/60/4
f 49/61/5 50/62/5 51/63/5 52/64/5
f 35/65/6 53/66/6 54/67/6 36/68/6
f 55/69/4 56/70/4 57/71/4 58/72/4
f 59/73/6 60/74/6 61/75/6 62/76/6
f 63/77/5 64/78/5 65/79/5 66/80/5
f 49/81/6 67/82/6 68/83/6 50/84/6
f 69/85/3 70/86/3 71/87/3 72/88/3
f 65/89/4 73/90/4 74/91/4 66/92/4
f 75/93/5 76/94/5 77/95/5 78/96/5
f 79/97/3 80/98/3 81/99/3 82/100/3
f 83/101/4 84/102/4 85/103/4 86/104/4
f 87/105/5 88/106/5 89/107/5 90/108/5
f 77/109/4 91/110/4 92/111/4 78/112/4
f 81/113/6 93/114/6 94/115/6 82/116/6
f 95/117/3 96/118/3 92/119/3 91/120/3
f 97/121/5 98/122/5 99/123/5 100/124/5
f 87/125/6 101/126/6 102/127/6 88/128/6
f 103/129/5 104/130/5 105/131/5 106/132/5
f 97/133/6 107/134/6 108/135/6 98/136/6
f 109/137/6 110/138/6 111/139/6 112/140/6
f 99/141/4 113/142/4 114/143/4 100/144/4
f 115/145/3 116/146/3 117/147/3 118/148/3
f 119/149/4 120/150/4 121/151/4 122/152/4
f 123/153/5 124/154/5 125/155/5 126/156/5
f 127/157/3 128/158/3 129/159/3 130/160/3
f 131/161/5 132/162/5 28/163/5 27/164/5
f 131/165/6 133/166/6 134/167/6 132/168/6
f 135/169/3 136/170/3 137/171/3 138/172/3
f 139/173/3 140/174/3 141/175/3 142/176/3
f 48/177/5 47/178/5 143/179/5 144/180/5
f 145/181/6 146/182/6 147/183/6 148/184/6
f 149/185/4 150/186/4 151/187/4 152/188/4
f 153/189/5 154/190/5 155/191/5 156/192/5
f 157/193/4 154/194/4 153/195/4 158/196/4
f 159/197/3 160/198/3 151/199/3 150/200/3
f 34/201/5 33/202/5 94/203/5 93/204/5
f 161/205/3 162/206/3 163/207/3 164/208/3
f 155/209/4 165/210/4 166/211/4 156/212/4
f 74/213/5 73/214/5 61/215/5 60/216/5
f 54/217/3 53/218/3 167/219/3 168/220/3
