v 1.000000 1.000000 0.468750
v 1.000000 0.000000 0.468750
v 0.000000 0.000000 0.468750
v 0.000000 1.000000 0.468750
v 0.000000 1.000000 0.531250
v 0.000000 0.000000 0.531250
v 1.000000 0.000000 0.531250
v 1.000000 1.000000 0.531250
v 0.750000 0.937500 0.468750
v 0.750000 0.937500 0.531250
v 0.875000 0.937500 0.531250
v 0.875000 0.937500 0.468750
v 0.750000 0.312500 0.468750
v 0.750000 0.312500 0.531250
v 0.875000 0.062500 0.531250
v 0.875000 0.062500 0.468750
v 0.687500 0.875000 0.468750
v 0.687500 0.875000 0.531250
v 0.750000 0.875000 0.531250
v 0.750000 0.875000 0.468750
v 0.687500 0.812500 0.468750
v 0.687500 0.812500 0.531250
v 0.625000 0.812500 0.468750
v 0.625000 0.812500 0.531250
v 0.625000 0.062500 0.468750
v 0.625000 0.062500 0.531250
v 0.562500 0.750000 0.468750
v 0.562500 0.750000 0.531250
v 0.625000 0.750000 0.531250
v 0.625000 0.750000 0.468750
v 0.562500 0.125000 0.468750
v 0.562500 0.125000 0.531250
v 0.750000 0.687500 0.531250
v 0.750000 0.687500 0.468750
v 0.812500 0.687500 0.468750
v 0.812500 0.687500 0.531250
v 0.500000 0.687500 0.468750
v 0.500000 0.687500 0.531250
v 0.562500 0.687500 0.531250
v 0.562500 0.687500 0.468750
v 0.500000 0.625000 0.468750
v 0.500000 0.625000 0.531250
v 0.687500 0.625000 0.531250
v 0.687500 0.625000 0.468750
v 0.750000 0.625000 0.468750
v 0.750000 0.625000 0.531250
v 0.812500 0.375000 0.468750
v 0.812500 0.375000 0.531250
v 0.437500 0.625000 0.468750
v 0.437500 0.625000 0.531250
v 0.437500 0.562500 0.468750
v 0.437500 0.562500 0.531250
v 0.625000 0.562500 0.531250
v 0.625000 0.562500 0.468750
v 0.687500 0.562500 0.468750
v 0.687500 0.562500 0.531250
v 0.687500 0.312500 0.531250
v 0.687500 0.312500 0.468750
v 0.375000 0.562500 0.468750
v 0.375000 0.562500 0.531250
v 0.375000 0.500000 0.468750
v 0.375000 0.500000 0.531250
v 0.562500 0.500000 0.531250
v 0.562500 0.500000 0.468750
v 0.625000 0.500000 0.468750
v 0.625000 0.500000 0.531250
v 0.312500 0.500000 0.468750
v 0.312500 0.500000 0.531250
v 0.312500 0.125000 0.468750
v 0.312500 0.125000 0.531250
v 0.500000 0.437500 0.531250
v 0.500000 0.437500 0.468750
v 0.562500 0.437500 0.468750
v 0.562500 0.437500 0.531250
v 0.250000 0.437500 0.468750
v 0.250000 0.437500 0.531250
v 0.937500 0.437500 0.531250
v 0.937500 0.437500 0.468750
v 0.250000 0.312500 0.468750
v 0.250000 0.312500 0.531250
v 0.437500 0.375000 0.531250
v 0.437500 0.375000 0.468750
v 0.500000 0.375000 0.468750
v 0.500000 0.375000 0.531250
v 0.500000 0.187500 0.531250
v 0.500000 0.187500 0.468750
v 0.937500 0.312500 0.531250
v 0.937500 0.312500 0.468750
v 0.437500 0.125000 0.531250
v 0.437500 0.125000 0.468750
v 0.562500 0.375000 0.468750
v 0.562500 0.375000 0.531250
v 0.875000 0.312500 0.531250
v 0.875000 0.312500 0.468750
v 0.187500 0.312500 0.468750
v 0.187500 0.312500 0.531250
v 0.187500 0.250000 0.468750
v 0.187500 0.250000 0.531250
v 0.812500 0.250000 0.531250
v 0.812500 0.250000 0.468750
v 0.875000 0.250000 0.468750
v 0.875000 0.250000 0.531250
v 0.125000 0.250000 0.468750
v 0.125000 0.250000 0.531250
v 0.125000 0.187500 0.468750
v 0.125000 0.187500 0.531250
v 0.250000 0.187500 0.531250
v 0.250000 0.187500 0.468750
v 0.812500 0.187500 0.531250
v 0.812500 0.187500 0.468750
v 0.062500 0.187500 0.468750
v 0.062500 0.187500 0.531250
v 0.875000 0.187500 0.531250
v 0.875000 0.187500 0.468750
v 0.062500 0.062500 0.468750
v 0.062500 0.062500 0.531250
v 0.187500 0.125000 0.531250
v 0.187500 0.125000 0.468750
v 0.625000 0.125000 0.468750
v 0.625000 0.125000 0.531250
v 0.250000 0.125000 0.531250
v 0.250000 0.125000 0.468750
v 0.187500 0.062500 0.531250
v 0.187500 0.062500 0.468750
vn 0.000000 0.000000 -1.000000
vn 0.000000 0.000000 1.000000
vn 0.000000 1.000000 0.000000
vn -1.000000 0.000000 0.000000
vn 1.000000 0.000000 0.000000
vn 0.000000 -1.000000 0.000000
vt 0.624969 0.859344
vt 0.624969 0.843781
vt 0.609406 0.843781
vt 0.609406 0.859344
vt 0.609406 0.859344
vt 0.609406 0.843781
vt 0.624969 0.843781
vt 0.624969 0.859344
vt 0.621098 0.858397
vt 0.621098 0.857424
vt 0.623043 0.857424
vt 0.623043 0.858397
vt 0.622068 0.858379
vt 0.622068 0.848652
vt 0.621096 0.848652
vt 0.621096 0.858379
vt 0.623045 0.858372
vt 0.623045 0.844753
vt 0.622072 0.844753
vt 0.622072 0.858372
vt 0.620119 0.857420
vt 0.620119 0.856447
vt 0.621092 0.856447
vt 0.621092 0.857420
vt 0.621092 0.857420
vt 0.621092 0.856447
vt 0.620119 0.856447
vt 0.620119 0.857420
vt 0.619143 0.856443
vt 0.619143 0.855471
vt 0.620115 0.855471
vt 0.620115 0.856443
vt 0.620115 0.856422
vt 0.620115 0.844749
vt 0.619143 0.844749
vt 0.619143 0.856422
vt 0.618166 0.855467
vt 0.618166 0.854494
vt 0.619139 0.854494
vt 0.619139 0.855467
vt 0.619139 0.855450
vt 0.619139 0.845722
vt 0.618166 0.845722
vt 0.618166 0.855450
vt 0.621096 0.855467
vt 0.621096 0.854494
vt 0.622068 0.854494
vt 0.622068 0.855467
vt 0.617189 0.854490
vt 0.617189 0.853518
vt 0.618162 0.853518
vt 0.618162 0.854490
vt 0.618162 0.854490
vt 0.618162 0.853518
vt 0.617189 0.853518
vt 0.617189 0.854490
vt 0.620119 0.854490
vt 0.620119 0.853518
vt 0.621092 0.853518
vt 0.621092 0.854490
vt 0.621092 0.854490
vt 0.621092 0.853518
vt 0.620119 0.853518
vt 0.620119 0.854490
vt 0.623045 0.854483
vt 0.623045 0.849619
vt 0.622072 0.849619
vt 0.622072 0.854483
vt 0.616213 0.853514
vt 0.616213 0.852541
vt 0.617186 0.852541
vt 0.617186 0.853514
vt 0.617186 0.853514
vt 0.617186 0.852541
vt 0.616213 0.852541
vt 0.616213 0.853514
vt 0.619143 0.853514
vt 0.619143 0.852541
vt 0.620115 0.852541
vt 0.620115 0.853514
vt 0.620115 0.853506
vt 0.620115 0.848642
vt 0.619143 0.848642
vt 0.619143 0.853506
vt 0.615236 0.852537
vt 0.615236 0.851564
vt 0.616209 0.851564
vt 0.616209 0.852537
vt 0.616209 0.852537
vt 0.616209 0.851564
vt 0.615236 0.851564
vt 0.615236 0.852537
vt 0.618166 0.852537
vt 0.618166 0.851564
vt 0.619139 0.851564
vt 0.619139 0.852537
vt 0.619139 0.852537
vt 0.619139 0.851564
vt 0.618166 0.851564
vt 0.618166 0.852537
vt 0.614260 0.851561
vt 0.614260 0.850588
vt 0.615232 0.850588
vt 0.615232 0.851561
vt 0.615232 0.851551
vt 0.615232 0.845715
vt 0.614260 0.845715
vt 0.614260 0.851551
vt 0.617189 0.851561
vt 0.617189 0.850588
vt 0.618162 0.850588
vt 0.618162 0.851561
vt 0.618162 0.851561
vt 0.618162 0.850588
vt 0.617189 0.850588
vt 0.617189 0.851561
vt 0.613302 0.850584
vt 0.613302 0.849611
vt 0.624002 0.849611
vt 0.624002 0.850584
vt 0.614256 0.850582
vt 0.614256 0.848637
vt 0.613283 0.848637
vt 0.613283 0.850582
vt 0.616213 0.850584
vt 0.616213 0.849611
vt 0.617186 0.849611
vt 0.617186 0.850584
vt 0.617186 0.850578
vt 0.617186 0.846687
vt 0.616213 0.846687
vt 0.616213 0.850578
vt 0.624022 0.850582
vt 0.624022 0.848637
vt 0.623049 0.848637
vt 0.623049 0.850582
vt 0.616209 0.849602
vt 0.616209 0.845711
vt 0.615236 0.845711
vt 0.615236 0.849602
vt 0.618172 0.849607
vt 0.618172 0.848635
vt 0.622063 0.848635
vt 0.622063 0.849607
vt 0.623049 0.849607
vt 0.623049 0.848635
vt 0.624022 0.848635
vt 0.624022 0.849607
vt 0.612322 0.848631
vt 0.612322 0.847658
vt 0.621077 0.847658
vt 0.621077 0.848631
vt 0.613279 0.848631
vt 0.613279 0.847658
vt 0.612307 0.847658
vt 0.612307 0.848631
vt 0.622072 0.848631
vt 0.622072 0.847658
vt 0.623045 0.847658
vt 0.623045 0.848631
vt 0.611330 0.847654
vt 0.611330 0.846682
vt 0.612303 0.846682
vt 0.612303 0.847654
vt 0.612303 0.847654
vt 0.612303 0.846682
vt 0.611330 0.846682
vt 0.611330 0.847654
vt 0.613289 0.847654
vt 0.613289 0.846682
vt 0.617180 0.846682
vt 0.617180 0.847654
vt 0.622068 0.847654
vt 0.622068 0.846682
vt 0.621096 0.846682
vt 0.621096 0.847654
vt 0.610376 0.846678
vt 0.610376 0.845705
vt 0.623022 0.845705
vt 0.623022 0.846678
vt 0.611326 0.846676
vt 0.611326 0.844730
vt 0.610353 0.844730
vt 0.610353 0.846676
vt 0.612318 0.846678
vt 0.612318 0.845705
vt 0.619127 0.845705
vt 0.619127 0.846678
vt 0.613279 0.846678
vt 0.613279 0.845705
vt 0.612307 0.845705
vt 0.612307 0.846678
vt 0.610376 0.845701
vt 0.610376 0.844728
vt 0.623022 0.844728
vt 0.623022 0.845701
vt 0.612303 0.845701
vt 0.612303 0.844728
vt 0.611330 0.844728
vt 0.611330 0.845701
f 1/1/1 2/2/1 3/3/1 4/4/1
f 5/5/2 6/6/2 7/7/2 8/8/2
f 9/9/3 10/10/3 11/11/3 12/12/3
f 9/13/4 13/14/4 14/15/4 10/16/4
f 11/17/5 15/18/5 16/19/5 12/20/5
f 17/21/3 18/22/3 19/23/3 20/24/3
f 17/25/4 21/26/4 22/27/4 18/28/4
f 23/29/3 24/30/3 22/31/3 21/32/3
f 23/33/4 25/34/4 26/35/4 24/36/4
f 27/37/3 28/38/3 29/39/3 30/40/3
f 27/41/4 31/42/4 32/43/4 28/44/4
f 33/45/6 34/46/6 35/47/6 36/48/6
f 37/49/3 38/50/3 39/51/3 40/52/3
f 37/53/4 41/54/4 42/55/4 38/56/4
f 43/57/6 44/58/6 45/59/6 46/60/6
f 33/61/5 46/62/5 45/63/5 34/64/5
f 35/65/4 47/66/4 48/67/4 36/68/4
f 49/69/3 50/70/3 42/71/3 41/72/3
f 49/73/4 51/74/4 52/75/4 50/76/4
f 53/77/6 54/78/6 55/79/6 56/80/6
f 43/81/5 57/82/5 58/83/5 44/84/5
f 59/85/3 60/86/3 52/87/3 51/88/3
f 59/89/4 61/90/4 62/91/4 60/92/4
f 63/93/6 64/94/6 65/95/6 66/96/6
f 53/97/5 66/98/5 65/99/5 54/100/5
f 67/101/3 68/102/3 62/103/3 61/104/3
f 67/105/4 69/106/4 70/107/4 68/108/4
f 71/109/6 72/110/6 73/111/6 74/112/6
f 63/113/5 74/114/5 73/115/5 64/116/5
f 75/117/3 76/118/3 77/119/3 78/120/3
f 75/121/4 79/122/4 80/123/4 76/124/4
f 81/125/6 82/126/6 83/127/6 84/128/6
f 71/129/5 85/130/5 86/131/5 72/132/5
f 77/133/5 87/134/5 88/135/5 78/136/5
f 81/137/5 89/138/5 90/139/5 82/140/5
f 91/141/3 92/142/3 48/143/3 47/144/3
f 93/145/6 94/146/6 88/147/6 87/148/6
f 95/149/3 96/150/3 14/151/3 13/152/3
f 95/153/4 97/154/4 98/155/4 96/156/4
f 99/157/6 100/158/6 101/159/6 102/160/6
f 103/161/3 104/162/3 98/163/3 97/164/3
f 103/165/4 105/166/4 106/167/4 104/168/4
f 107/169/6 108/170/6 86/171/6 85/172/6
f 99/173/5 109/174/5 110/175/5 100/176/5
f 111/177/3 112/178/3 113/179/3 114/180/3
f 111/181/4 115/182/4 116/183/4 112/184/4
f 117/185/6 118/186/6 119/187/6 120/188/6
f 107/189/5 121/190/5 122/191/5 108/192/5
f 116/193/6 115/194/6 16/195/6 15/196/6
f 117/197/5 123/198/5 124/199/5 118/200/5
