v 1.000000 1.000000 0.468750
v 1.000000 0.000000 0.468750
v 0.000000 0.000000 0.468750
v 0.000000 1.000000 0.468750
v 0.000000 1.000000 0.531250
v 0.000000 0.000000 0.531250
v 1.000000 0.000000 0.531250
v 1.000000 1.000000 0.531250
v 0.125000 0.875000 0.468750
v 0.125000 0.875000 0.531250
v 0.937500 0.875000 0.531250
v 0.937500 0.875000 0.468750
v 0.125000 0.312500 0.468750
v 0.125000 0.312500 0.531250
v 0.937500 0.312500 0.531250
v 0.937500 0.312500 0.468750
v 0.437500 0.312500 0.468750
v 0.437500 0.000000 0.468750
v 0.437500 0.000000 0.531250
v 0.437500 0.312500 0.531250
v 0.625000 0.312500 0.531250
v 0.625000 0.000000 0.531250
v 0.625000 0.000000 0.468750
v 0.625000 0.312500 0.468750
vn 0.000000 0.000000 -1.000000
vn 0.000000 0.000000 1.000000
vn 0.000000 1.000000 0.000000
vn -1.000000 0.000000 0.000000
vn 1.000000 0.000000 0.000000
vn 0.000000 -1.000000 0.000000
vt 0.624969 0.843719
vt 0.624969 0.828156
vt 0.609406 0.828156
vt 0.609406 0.843719
vt 0.609406 0.843719
vt 0.609406 0.828156
vt 0.624969 0.828156
vt 0.624969 0.843719
vt 0.611353 0.841795
vt 0.611353 0.840822
vt 0.623999 0.840822
vt 0.623999 0.841795
vt 0.612303 0.841780
vt 0.612303 0.833025
vt 0.611330 0.833025
vt 0.611330 0.841780
vt 0.624022 0.841780
vt 0.624022 0.833025
vt 0.623049 0.833025
vt 0.623049 0.841780
vt 0.611353 0.833982
vt 0.611353 0.833010
vt 0.623999 0.833010
vt 0.623999 0.833982
vt 0.617186 0.832998
vt 0.617186 0.828135
vt 0.616213 0.828135
vt 0.616213 0.832998
vt 0.619139 0.832998
vt 0.619139 0.828135
vt 0.618166 0.828135
vt 0.618166 0.832998
vt 0.616217 0.829100
vt 0.616217 0.828127
vt 0.619135 0.828127
vt 0.619135 0.829100
f 1/1/1 2/2/1 3/3/1 4/4/1
f 5/5/2 6/6/2 7/7/2 8/8/2
f 9/9/3 10/10/3 11/11/3 12/12/3
f 9/13/4 13/14/4 14/15/4 10/16/4
f 11/17/5 15/18/5 16/19/5 12/20/5
f 14/21/6 13/22/6 16/23/6 15/24/6
f 17/25/4 18/26/4 19/27/4 20/28/4
f 21/29/5 22/30/5 23/31/5 24/32/5
f 19/33/6 18/34/6 23/35/6 22/36/6
