v 1.000000 1.000000 0.468750
v 1.000000 0.000000 0.468750
v 0.000000 0.000000 0.468750
v 0.000000 1.000000 0.468750
v 0.000000 1.000000 0.531250
v 0.000000 0.000000 0.531250
v 1.000000 0.000000 0.531250
v 1.000000 1.000000 0.531250
v 0.187500 0.562500 0.468750
v 0.187500 0.562500 0.531250
v 0.812500 0.562500 0.531250
v 0.812500 0.562500 0.468750
v 0.187500 0.312500 0.468750
v 0.187500 0.312500 0.531250
v 0.812500 0.312500 0.531250
v 0.812500 0.312500 0.468750
v 0.437500 0.312500 0.468750
v 0.437500 0.000000 0.468750
v 0.437500 0.000000 0.531250
v 0.437500 0.312500 0.531250
v 0.562500 0.312500 0.531250
v 0.562500 0.000000 0.531250
v 0.562500 0.000000 0.468750
v 0.562500 0.312500 0.468750
vn 0.000000 0.000000 -1.000000
vn 0.000000 0.000000 1.000000
vn 0.000000 1.000000 0.000000
vn -1.000000 0.000000 0.000000
vn 1.000000 0.000000 0.000000
vn 0.000000 -1.000000 0.000000
vt 0.078094 0.609344
vt 0.078094 0.593781
vt 0.062531 0.593781
vt 0.062531 0.609344
vt 0.062531 0.609344
vt 0.062531 0.593781
vt 0.078094 0.593781
vt 0.078094 0.609344
vt 0.065449 0.602537
vt 0.065449 0.601564
vt 0.075176 0.601564
vt 0.075176 0.602537
vt 0.066404 0.602531
vt 0.066404 0.598640
vt 0.065432 0.598640
vt 0.065432 0.602531
vt 0.075193 0.602531
vt 0.075193 0.598640
vt 0.074221 0.598640
vt 0.074221 0.602531
vt 0.065449 0.599607
vt 0.065449 0.598635
vt 0.075176 0.598635
vt 0.075176 0.599607
vt 0.070311 0.598623
vt 0.070311 0.593760
vt 0.069338 0.593760
vt 0.069338 0.598623
vt 0.071287 0.598623
vt 0.071287 0.593760
vt 0.070314 0.593760
vt 0.070314 0.598623
vt 0.069340 0.594725
vt 0.069340 0.593752
vt 0.071285 0.593752
vt 0.071285 0.594725
f 1/1/1 2/2/1 3/3/1 4/4/1
f 5/5/2 6/6/2 7/7/2 8/8/2
f 9/9/3 10/10/3 11/11/3 12/12/3
f 9/13/4 13/14/4 14/15/4 10/16/4
f 11/17/5 15/18/5 16/19/5 12/20/5
f 14/21/6 13/22/6 16/23/6 15/24/6
f 17/25/4 18/26/4 19/27/4 20/28/4
f 21/29/5 22/30/5 23/31/5 24/32/5
f 19/33/6 18/34/6 23/35/6 22/36/6
