v 0.000000 0.500000 0.000000
v 0.000000 0.500000 1.000000
v 1.000000 0.500000 1.000000
v 1.000000 0.500000 0.000000
v 0.500000 1.000000 0.000000
v 0.500000 0.500000 0.000000
v 0.500000 0.500000 1.000000
v 0.500000 1.000000 1.000000
v 0.000000 0.000000 1.000000
v 0.000000 0.000000 0.000000
v 1.000000 0.000000 0.000000
v 1.000000 0.000000 1.000000
v 1.000000 1.000000 1.000000
v 1.000000 1.000000 0.000000
vn 0.000000 1.000000 0.000000
vn -1.000000 0.000000 0.000000
vn 0.000000 -1.000000 0.000000
vn 0.000000 0.000000 -1.000000
vn 0.000000 0.000000 1.000000
vn 1.000000 0.000000 0.000000
vt 0.109406 0.609344
vt 0.109406 0.593781
vt 0.124969 0.593781
vt 0.124969 0.609344
vt 0.109406 0.609360
vt 0.109406 0.601578
vt 0.124969 0.601578
vt 0.124969 0.609360
vt 0.109406 0.609344
vt 0.109406 0.593781
vt 0.124969 0.593781
vt 0.124969 0.609344
vt 0.117203 0.609344
vt 0.117203 0.593781
vt 0.124985 0.593781
vt 0.124985 0.609344
vt 0.109406 0.601547
vt 0.109406 0.593765
vt 0.124969 0.593765
vt 0.124969 0.601547
vt 0.109390 0.609360
vt 0.109390 0.601578
vt 0.117172 0.601578
vt 0.117172 0.609360
vt 0.109406 0.601547
vt 0.109406 0.593765
vt 0.124969 0.593765
vt 0.124969 0.601547
vt 0.117203 0.609360
vt 0.117203 0.601578
vt 0.124985 0.601578
vt 0.124985 0.609360
vt 0.109406 0.601547
vt 0.109406 0.593765
vt 0.124969 0.593765
vt 0.124969 0.601547
vt 0.109406 0.601547
vt 0.109406 0.593765
vt 0.124969 0.593765
vt 0.124969 0.601547
vt 0.109406 0.609360
vt 0.109406 0.601578
vt 0.124969 0.601578
vt 0.124969 0.609360
f 1/1/1 2/2/1 3/3/1 4/4/1
f 5/5/2 6/6/2 7/7/2 8/8/2
f 9/9/3 10/10/3 11/11/3 12/12/3
f 5/13/1 8/14/1 13/15/1 14/16/1
f 4/17/4 11/18/4 10/19/4 1/20/4
f 14/21/4 4/22/4 6/23/4 5/24/4
f 2/25/5 9/26/5 12/27/5 3/28/5
f 8/29/5 7/30/5 3/31/5 13/32/5
f 1/33/2 10/34/2 9/35/2 2/36/2
f 3/37/6 12/38/6 11/39/6 4/40/6
f 13/41/6 3/42/6 4/43/6 14/44/6
