v 1.000000 1.000000 0.468750
v 1.000000 0.000000 0.468750
v 0.000000 0.000000 0.468750
v 0.000000 1.000000 0.468750
v 0.000000 1.000000 0.531250
v 0.000000 0.000000 0.531250
v 1.000000 0.000000 0.531250
v 1.000000 1.000000 0.531250
v 0.187500 0.875000 0.468750
v 0.187500 0.875000 0.531250
v 0.812500 0.875000 0.531250
v 0.812500 0.875000 0.468750
v 0.187500 0.000000 0.468750
v 0.187500 0.000000 0.531250
v 0.812500 0.000000 0.531250
v 0.812500 0.000000 0.468750
vn 0.000000 0.000000 -1.000000
vn 0.000000 0.000000 1.000000
vn 0.000000 1.000000 0.000000
vn -1.000000 0.000000 0.000000
vn 1.000000 0.000000 0.000000
vn 0.000000 -1.000000 0.000000
vt 0.624969 0.874969
vt 0.624969 0.859406
vt 0.609406 0.859406
vt 0.609406 0.874969
vt 0.609406 0.874969
vt 0.609406 0.859406
vt 0.624969 0.859406
vt 0.624969 0.874969
vt 0.612324 0.873045
vt 0.612324 0.872072
vt 0.622051 0.872072
vt 0.622051 0.873045
vt 0.613279 0.873020
vt 0.613279 0.859402
vt 0.612307 0.859402
vt 0.612307 0.873020
vt 0.622068 0.873020
vt 0.622068 0.859402
vt 0.621096 0.859402
vt 0.621096 0.873020
vt 0.612324 0.860350
vt 0.612324 0.859377
vt 0.622051 0.859377
vt 0.622051 0.860350
f 1/1/1 2/2/1 3/3/1 4/4/1
f 5/5/2 6/6/2 7/7/2 8/8/2
f 9/9/3 10/10/3 11/11/3 12/12/3
f 9/13/4 13/14/4 14/15/4 10/16/4
f 11/17/5 15/18/5 16/19/5 12/20/5
f 14/21/6 13/22/6 16/23/6 15/24/6
