v 1.000000 1.000000 0.468750
v 1.000000 0.000000 0.468750
v 0.000000 0.000000 0.468750
v 0.000000 1.000000 0.468750
v 0.000000 1.000000 0.531250
v 0.000000 0.000000 0.531250
v 1.000000 0.000000 0.531250
v 1.000000 1.000000 0.531250
v 0.625000 1.000000 0.468750
v 0.625000 1.000000 0.531250
v 0.687500 1.000000 0.531250
v 0.687500 1.000000 0.468750
v 0.625000 0.937500 0.468750
v 0.625000 0.937500 0.531250
v 0.687500 0.875000 0.531250
v 0.687500 0.875000 0.468750
v 0.500000 0.937500 0.468750
v 0.500000 0.937500 0.531250
v 0.812500 0.937500 0.531250
v 0.812500 0.937500 0.468750
v 0.500000 0.812500 0.468750
v 0.500000 0.812500 0.531250
v 0.750000 0.875000 0.531250
v 0.750000 0.875000 0.468750
v 0.812500 0.875000 0.468750
v 0.812500 0.875000 0.531250
v 0.750000 0.937500 0.468750
v 0.750000 0.937500 0.531250
v 0.812500 0.312500 0.531250
v 0.812500 0.312500 0.468750
v 0.375000 0.875000 0.468750
v 0.375000 0.875000 0.531250
v 1.000000 0.875000 0.531250
v 1.000000 0.875000 0.468750
v 0.375000 0.562500 0.468750
v 0.375000 0.562500 0.531250
v 0.437500 0.875000 0.531250
v 0.437500 0.187500 0.531250
v 0.437500 0.187500 0.468750
v 0.437500 0.875000 0.468750
v 0.750000 0.812500 0.531250
v 0.750000 0.812500 0.468750
v 0.937500 0.812500 0.531250
v 0.937500 0.812500 0.468750
v 1.000000 0.812500 0.468750
v 1.000000 0.812500 0.531250
v 0.937500 0.875000 0.468750
v 0.937500 0.875000 0.531250
v 1.000000 0.500000 0.531250
v 1.000000 0.500000 0.468750
v 0.437500 0.812500 0.468750
v 0.437500 0.812500 0.531250
v 0.875000 0.750000 0.531250
v 0.875000 0.750000 0.468750
v 0.937500 0.750000 0.468750
v 0.937500 0.750000 0.531250
v 0.937500 0.437500 0.531250
v 0.937500 0.437500 0.468750
v 0.875000 0.250000 0.531250
v 0.875000 0.250000 0.468750
v 0.875000 0.687500 0.468750
v 0.875000 0.687500 0.531250
v 1.000000 0.687500 0.531250
v 1.000000 0.687500 0.468750
v 0.937500 0.625000 0.531250
v 0.937500 0.625000 0.468750
v 1.000000 0.625000 0.468750
v 1.000000 0.625000 0.531250
v 0.312500 0.562500 0.468750
v 0.312500 0.562500 0.531250
v 1.000000 0.562500 0.531250
v 1.000000 0.562500 0.468750
v 0.312500 0.437500 0.468750
v 0.312500 0.437500 0.531250
v 0.937500 0.500000 0.531250
v 0.937500 0.500000 0.468750
v 0.812500 0.437500 0.531250
v 0.812500 0.437500 0.468750
v 0.250000 0.437500 0.468750
v 0.250000 0.437500 0.531250
v 0.250000 0.000000 0.468750
v 0.250000 0.000000 0.531250
v 0.187500 0.375000 0.468750
v 0.187500 0.375000 0.531250
v 0.250000 0.375000 0.531250
v 0.250000 0.375000 0.468750
v 0.187500 0.312500 0.468750
v 0.187500 0.312500 0.531250
v 0.562500 0.312500 0.531250
v 0.562500 0.312500 0.468750
v 0.687500 0.312500 0.468750
v 0.687500 0.312500 0.531250
v 0.062500 0.312500 0.468750
v 0.062500 0.312500 0.531250
v 0.875000 0.312500 0.531250
v 0.875000 0.312500 0.468750
v 0.062500 0.000000 0.468750
v 0.062500 0.000000 0.531250
v 0.437500 0.250000 0.531250
v 0.437500 0.250000 0.468750
v 0.562500 0.250000 0.531250
v 0.562500 0.250000 0.468750
v 0.687500 0.250000 0.468750
v 0.687500 0.250000 0.531250
v 0.375000 0.187500 0.531250
v 0.375000 0.187500 0.468750
v 0.375000 0.062500 0.531250
v 0.375000 0.062500 0.468750
v 0.125000 0.062500 0.531250
v 0.125000 0.062500 0.468750
v 0.312500 0.000000 0.468750
v 0.312500 0.000000 0.531250
v 0.125000 0.000000 0.531250
v 0.125000 0.000000 0.468750
v 0.312500 0.062500 0.531250
v 0.312500 0.062500 0.468750
vn 0.000000 0.000000 -1.000000
vn 0.000000 0.000000 1.000000
vn 0.000000 1.000000 0.000000
vn -1.000000 0.000000 0.000000
vn 1.000000 0.000000 0.000000
vn 0.000000 -1.000000 0.000000
vt 0.624969 0.812469
vt 0.624969 0.796906
vt 0.609406 0.796906
vt 0.609406 0.812469
vt 0.609406 0.812469
vt 0.609406 0.796906
vt 0.624969 0.796906
vt 0.624969 0.812469
vt 0.619143 0.812498
vt 0.619143 0.811525
vt 0.620115 0.811525
vt 0.620115 0.812498
vt 0.620115 0.812498
vt 0.620115 0.811525
vt 0.619143 0.811525
vt 0.619143 0.812498
vt 0.620115 0.812496
vt 0.620115 0.810551
vt 0.619143 0.810551
vt 0.619143 0.812496
vt 0.617197 0.811522
vt 0.617197 0.810549
vt 0.622061 0.810549
vt 0.622061 0.811522
vt 0.618162 0.811520
vt 0.618162 0.809574
vt 0.617189 0.809574
vt 0.617189 0.811520
vt 0.621096 0.811522
vt 0.621096 0.810549
vt 0.622068 0.810549
vt 0.622068 0.811522
vt 0.622068 0.811522
vt 0.622068 0.810549
vt 0.621096 0.810549
vt 0.621096 0.811522
vt 0.622068 0.811504
vt 0.622068 0.801777
vt 0.621096 0.801777
vt 0.621096 0.811504
vt 0.615253 0.810545
vt 0.615253 0.809572
vt 0.624981 0.809572
vt 0.624981 0.810545
vt 0.616209 0.810537
vt 0.616209 0.805674
vt 0.615236 0.805674
vt 0.615236 0.810537
vt 0.616209 0.810526
vt 0.616209 0.799826
vt 0.615236 0.799826
vt 0.615236 0.810526
vt 0.621092 0.810545
vt 0.621092 0.809572
vt 0.620119 0.809572
vt 0.620119 0.810545
vt 0.624025 0.810545
vt 0.624025 0.809572
vt 0.624998 0.809572
vt 0.624998 0.810545
vt 0.624998 0.810545
vt 0.624998 0.809572
vt 0.624025 0.809572
vt 0.624025 0.810545
vt 0.624998 0.810535
vt 0.624998 0.804699
vt 0.624025 0.804699
vt 0.624025 0.810535
vt 0.616226 0.809568
vt 0.616226 0.808596
vt 0.624008 0.808596
vt 0.624008 0.809568
vt 0.623049 0.809568
vt 0.623049 0.808596
vt 0.624022 0.808596
vt 0.624022 0.809568
vt 0.624022 0.809559
vt 0.624022 0.803722
vt 0.623049 0.803722
vt 0.623049 0.809559
vt 0.623045 0.808578
vt 0.623045 0.800797
vt 0.622072 0.800797
vt 0.622072 0.808578
vt 0.623051 0.807615
vt 0.623051 0.806643
vt 0.624996 0.806643
vt 0.624996 0.807615
vt 0.624025 0.807615
vt 0.624025 0.806643
vt 0.624998 0.806643
vt 0.624998 0.807615
vt 0.614279 0.805662
vt 0.614279 0.804689
vt 0.624979 0.804689
vt 0.624979 0.805662
vt 0.615232 0.805660
vt 0.615232 0.803715
vt 0.614260 0.803715
vt 0.614260 0.805660
vt 0.624025 0.805662
vt 0.624025 0.804689
vt 0.624998 0.804689
vt 0.624998 0.805662
vt 0.622074 0.804686
vt 0.622074 0.803713
vt 0.624020 0.803713
vt 0.624020 0.804686
vt 0.613283 0.803709
vt 0.613283 0.802736
vt 0.614256 0.802736
vt 0.614256 0.803709
vt 0.614256 0.803698
vt 0.614256 0.796888
vt 0.613283 0.796888
vt 0.613283 0.803698
vt 0.612307 0.802732
vt 0.612307 0.801760
vt 0.613279 0.801760
vt 0.613279 0.802732
vt 0.613279 0.802732
vt 0.613279 0.801760
vt 0.612307 0.801760
vt 0.612307 0.802732
vt 0.618168 0.802732
vt 0.618168 0.801760
vt 0.620113 0.801760
vt 0.620113 0.802732
vt 0.610376 0.801756
vt 0.610376 0.800783
vt 0.623022 0.800783
vt 0.623022 0.801756
vt 0.611326 0.801748
vt 0.611326 0.796885
vt 0.610353 0.796885
vt 0.610353 0.801748
vt 0.616224 0.801756
vt 0.616224 0.800783
vt 0.623034 0.800783
vt 0.623034 0.801756
vt 0.618162 0.801756
vt 0.618162 0.800783
vt 0.617189 0.800783
vt 0.617189 0.801756
vt 0.621092 0.801756
vt 0.621092 0.800783
vt 0.620119 0.800783
vt 0.620119 0.801756
vt 0.615236 0.800779
vt 0.615236 0.799807
vt 0.616209 0.799807
vt 0.616209 0.800779
vt 0.615232 0.799801
vt 0.615232 0.797855
vt 0.614260 0.797855
vt 0.614260 0.799801
vt 0.611336 0.798826
vt 0.611336 0.797853
vt 0.615227 0.797853
vt 0.615227 0.798826
vt 0.610359 0.797850
vt 0.610359 0.796877
vt 0.614250 0.796877
vt 0.614250 0.797850
vt 0.611326 0.797850
vt 0.611326 0.796877
vt 0.610353 0.796877
vt 0.610353 0.797850
vt 0.614256 0.797850
vt 0.614256 0.796877
vt 0.613283 0.796877
vt 0.613283 0.797850
f 1/1/1 2/2/1 3/3/1 4/4/1
f 5/5/2 6/6/2 7/7/2 8/8/2
f 9/9/3 10/10/3 11/11/3 12/12/3
f 9/13/4 13/14/4 14/15/4 10/16/4
f 11/17/5 15/18/5 16/19/5 12/20/5
f 17/21/3 18/22/3 19/23/3 20/24/3
f 17/25/4 21/26/4 22/27/4 18/28/4
f 23/29/6 24/30/6 25/31/6 26/32/6
f 27/33/4 24/34/4 23/35/4 28/36/4
f 19/37/5 29/38/5 30/39/5 20/40/5
f 31/41/3 32/42/3 33/43/3 34/44/3
f 31/45/4 35/46/4 36/47/4 32/48/4
f 37/49/5 38/50/5 39/51/5 40/52/5
f 23/53/5 41/54/5 42/55/5 24/56/5
f 43/57/6 44/58/6 45/59/6 46/60/6
f 47/61/4 44/62/4 43/63/4 48/64/4
f 33/65/5 49/66/5 50/67/5 34/68/5
f 51/69/3 52/70/3 43/71/3 44/72/3
f 53/73/6 54/74/6 55/75/6 56/76/6
f 43/77/5 57/78/5 58/79/5 44/80/5
f 53/81/5 59/82/5 60/83/5 54/84/5
f 61/85/3 62/86/3 63/87/3 64/88/3
f 65/89/6 66/90/6 67/91/6 68/92/6
f 69/93/3 70/94/3 71/95/3 72/96/3
f 69/97/4 73/98/4 74/99/4 70/100/4
f 75/101/6 76/102/6 50/103/6 49/104/6
f 77/105/6 78/106/6 58/107/6 57/108/6
f 79/109/3 80/110/3 74/111/3 73/112/3
f 79/113/4 81/114/4 82/115/4 80/116/4
f 83/117/3 84/118/3 85/119/3 86/120/3
f 83/121/4 87/122/4 88/123/4 84/124/4
f 89/125/6 90/126/6 91/127/6 92/128/6
f 93/129/3 94/130/3 95/131/3 96/132/3
f 93/133/4 97/134/4 98/135/4 94/136/4
f 99/137/6 100/138/6 60/139/6 59/140/6
f 89/141/5 101/142/5 102/143/5 90/144/5
f 91/145/4 103/146/4 104/147/4 92/148/4
f 105/149/6 106/150/6 39/151/6 38/152/6
f 105/153/5 107/154/5 108/155/5 106/156/5
f 109/157/6 110/158/6 108/159/6 107/160/6
f 98/161/6 97/162/6 111/163/6 112/164/6
f 109/165/5 113/166/5 114/167/5 110/168/5
f 115/169/5 112/170/5 111/171/5 116/172/5
