v 1.000000 1.000000 0.468750
v 1.000000 0.000000 0.468750
v 0.000000 0.000000 0.468750
v 0.000000 1.000000 0.468750
v 0.000000 1.000000 0.531250
v 0.000000 0.000000 0.531250
v 1.000000 0.000000 0.531250
v 1.000000 1.000000 0.531250
v 0.312500 0.750000 0.468750
v 0.312500 0.750000 0.531250
v 0.750000 0.750000 0.531250
v 0.750000 0.750000 0.468750
v 0.312500 0.562500 0.468750
v 0.312500 0.562500 0.531250
v 0.375000 0.750000 0.531250
v 0.375000 0.562500 0.531250
v 0.375000 0.562500 0.468750
v 0.375000 0.750000 0.468750
v 0.687500 0.687500 0.531250
v 0.687500 0.687500 0.468750
v 0.750000 0.687500 0.468750
v 0.750000 0.687500 0.531250
v 0.687500 0.750000 0.468750
v 0.687500 0.250000 0.468750
v 0.687500 0.250000 0.531250
v 0.687500 0.750000 0.531250
v 0.812500 0.687500 0.531250
v 0.812500 0.687500 0.468750
v 0.750000 0.500000 0.468750
v 0.750000 0.500000 0.531250
v 0.812500 0.250000 0.531250
v 0.812500 0.250000 0.468750
v 0.812500 0.625000 0.468750
v 0.812500 0.625000 0.531250
v 0.875000 0.625000 0.531250
v 0.875000 0.625000 0.468750
v 0.875000 0.500000 0.531250
v 0.875000 0.500000 0.468750
v 0.250000 0.562500 0.468750
v 0.250000 0.562500 0.531250
v 0.625000 0.562500 0.531250
v 0.625000 0.562500 0.468750
v 0.250000 0.437500 0.468750
v 0.250000 0.437500 0.531250
v 0.312500 0.312500 0.531250
v 0.312500 0.312500 0.468750
v 0.500000 0.562500 0.468750
v 0.500000 0.312500 0.468750
v 0.500000 0.312500 0.531250
v 0.500000 0.562500 0.531250
v 0.625000 0.437500 0.531250
v 0.625000 0.437500 0.468750
v 0.375000 0.500000 0.468750
v 0.375000 0.500000 0.531250
v 0.437500 0.500000 0.531250
v 0.437500 0.500000 0.468750
v 0.375000 0.375000 0.468750
v 0.375000 0.375000 0.531250
v 0.437500 0.375000 0.531250
v 0.437500 0.375000 0.468750
v 0.500000 0.437500 0.531250
v 0.500000 0.437500 0.468750
v 0.187500 0.437500 0.468750
v 0.187500 0.437500 0.531250
v 0.187500 0.312500 0.468750
v 0.187500 0.312500 0.531250
v 0.500000 0.375000 0.468750
v 0.500000 0.375000 0.531250
v 0.812500 0.375000 0.531250
v 0.812500 0.375000 0.468750
v 0.562500 0.375000 0.531250
v 0.562500 0.187500 0.531250
v 0.562500 0.187500 0.468750
v 0.562500 0.375000 0.468750
v 0.437500 0.312500 0.468750
v 0.437500 0.312500 0.531250
v 0.437500 0.187500 0.468750
v 0.437500 0.187500 0.531250
vn 0.000000 0.000000 -1.000000
vn 0.000000 0.000000 1.000000
vn 0.000000 1.000000 0.000000
vn -1.000000 0.000000 0.000000
vn 1.000000 0.000000 0.000000
vn 0.000000 -1.000000 0.000000
vt 0.624969 0.796844
vt 0.624969 0.781281
vt 0.609406 0.781281
vt 0.609406 0.796844
vt 0.609406 0.796844
vt 0.609406 0.781281
vt 0.624969 0.781281
vt 0.624969 0.796844
vt 0.614271 0.792967
vt 0.614271 0.791994
vt 0.621080 0.791994
vt 0.621080 0.792967
vt 0.615232 0.792963
vt 0.615232 0.790045
vt 0.614260 0.790045
vt 0.614260 0.792963
vt 0.615232 0.792963
vt 0.615232 0.790045
vt 0.614260 0.790045
vt 0.614260 0.792963
vt 0.620119 0.792967
vt 0.620119 0.791994
vt 0.621092 0.791994
vt 0.621092 0.792967
vt 0.621092 0.792953
vt 0.621092 0.785172
vt 0.620119 0.785172
vt 0.620119 0.792953
vt 0.621092 0.792967
vt 0.621092 0.791994
vt 0.620119 0.791994
vt 0.620119 0.792967
vt 0.621096 0.791990
vt 0.621096 0.791018
vt 0.622068 0.791018
vt 0.622068 0.791990
vt 0.622068 0.791986
vt 0.622068 0.789068
vt 0.621096 0.789068
vt 0.621096 0.791986
vt 0.622068 0.791979
vt 0.622068 0.785170
vt 0.621096 0.785170
vt 0.621096 0.791979
vt 0.614260 0.791014
vt 0.614260 0.790041
vt 0.615232 0.790041
vt 0.615232 0.791014
vt 0.622072 0.791014
vt 0.622072 0.790041
vt 0.623045 0.790041
vt 0.623045 0.791014
vt 0.623045 0.791012
vt 0.623045 0.789066
vt 0.622072 0.789066
vt 0.622072 0.791012
vt 0.613293 0.790037
vt 0.613293 0.789064
vt 0.619129 0.789064
vt 0.619129 0.790037
vt 0.614256 0.790035
vt 0.614256 0.788090
vt 0.613283 0.788090
vt 0.613283 0.790035
vt 0.614256 0.790031
vt 0.614256 0.786140
vt 0.613283 0.786140
vt 0.613283 0.790031
vt 0.618162 0.790031
vt 0.618162 0.786140
vt 0.617189 0.786140
vt 0.617189 0.790031
vt 0.619139 0.790035
vt 0.619139 0.788090
vt 0.618166 0.788090
vt 0.618166 0.790035
vt 0.621098 0.790037
vt 0.621098 0.789064
vt 0.623043 0.789064
vt 0.623043 0.790037
vt 0.615236 0.789061
vt 0.615236 0.788088
vt 0.616209 0.788088
vt 0.616209 0.789061
vt 0.616209 0.789059
vt 0.616209 0.787113
vt 0.615236 0.787113
vt 0.615236 0.789059
vt 0.616209 0.789059
vt 0.616209 0.787113
vt 0.615236 0.787113
vt 0.615236 0.789059
vt 0.617191 0.789061
vt 0.617191 0.788088
vt 0.619137 0.788088
vt 0.619137 0.789061
vt 0.612307 0.788084
vt 0.612307 0.787111
vt 0.613279 0.787111
vt 0.613279 0.788084
vt 0.613279 0.788082
vt 0.613279 0.786137
vt 0.612307 0.786137
vt 0.612307 0.788082
vt 0.615236 0.788084
vt 0.615236 0.787111
vt 0.616209 0.787111
vt 0.616209 0.788084
vt 0.612309 0.787107
vt 0.612309 0.786135
vt 0.614254 0.786135
vt 0.614254 0.787107
vt 0.617197 0.787107
vt 0.617197 0.786135
vt 0.622061 0.786135
vt 0.622061 0.787107
vt 0.618162 0.787104
vt 0.618162 0.784185
vt 0.617189 0.784185
vt 0.617189 0.787104
vt 0.616213 0.786131
vt 0.616213 0.785158
vt 0.617186 0.785158
vt 0.617186 0.786131
vt 0.617186 0.786129
vt 0.617186 0.784184
vt 0.616213 0.784184
vt 0.616213 0.786129
vt 0.620121 0.786131
vt 0.620121 0.785158
vt 0.622066 0.785158
vt 0.622066 0.786131
vt 0.616215 0.785154
vt 0.616215 0.784182
vt 0.618160 0.784182
vt 0.618160 0.785154
f 1/1/1 2/2/1 3/3/1 4/4/1
f 5/5/2 6/6/2 7/7/2 8/8/2
f 9/9/3 10/10/3 11/11/3 12/12/3
f 9/13/4 13/14/4 14/15/4 10/16/4
f 15/17/5 16/18/5 17/19/5 18/20/5
f 19/21/6 20/22/6 21/23/6 22/24/6
f 23/25/4 24/26/4 25/27/4 26/28/4
f 11/29/5 22/30/5 21/31/5 12/32/5
f 21/33/3 22/34/3 27/35/3 28/36/3
f 21/37/4 29/38/4 30/39/4 22/40/4
f 27/41/5 31/42/5 32/43/5 28/44/5
f 14/45/6 13/46/6 17/47/6 16/48/6
f 33/49/3 34/50/3 35/51/3 36/52/3
f 35/53/5 37/54/5 38/55/5 36/56/5
f 39/57/3 40/58/3 41/59/3 42/60/3
f 39/61/4 43/62/4 44/63/4 40/64/4
f 14/65/5 45/66/5 46/67/5 13/68/5
f 47/69/4 48/70/4 49/71/4 50/72/4
f 41/73/5 51/74/5 52/75/5 42/76/5
f 30/77/6 29/78/6 38/79/6 37/80/6
f 53/81/3 54/82/3 55/83/3 56/84/3
f 53/85/4 57/86/4 58/87/4 54/88/4
f 55/89/5 59/90/5 60/91/5 56/92/5
f 61/93/6 62/94/6 52/95/6 51/96/6
f 63/97/3 64/98/3 44/99/3 43/100/3
f 63/101/4 65/102/4 66/103/4 64/104/4
f 58/105/6 57/106/6 60/107/6 59/108/6
f 66/109/6 65/110/6 46/111/6 45/112/6
f 67/113/3 68/114/3 69/115/3 70/116/3
f 71/117/5 72/118/5 73/119/5 74/120/5
f 75/121/3 76/122/3 49/123/3 48/124/3
f 75/125/4 77/126/4 78/127/4 76/128/4
f 25/129/6 24/130/6 32/131/6 31/132/6
f 78/133/6 77/134/6 73/135/6 72/136/6
