v 1.000000 1.000000 0.468750
v 1.000000 0.000000 0.468750
v 0.000000 0.000000 0.468750
v 0.000000 1.000000 0.468750
v 0.000000 1.000000 0.531250
v 0.000000 0.000000 0.531250
v 1.000000 0.000000 0.531250
v 1.000000 1.000000 0.531250
v 0.437500 0.687500 0.468750
v 0.437500 0.687500 0.531250
v 0.625000 0.687500 0.531250
v 0.625000 0.687500 0.468750
v 0.437500 0.000000 0.468750
v 0.437500 0.000000 0.531250
v 0.625000 0.000000 0.531250
v 0.625000 0.000000 0.468750
v 0.375000 0.625000 0.468750
v 0.375000 0.625000 0.531250
v 0.687500 0.625000 0.531250
v 0.687500 0.625000 0.468750
v 0.375000 0.250000 0.468750
v 0.375000 0.250000 0.531250
v 0.687500 0.312500 0.531250
v 0.687500 0.312500 0.468750
v 0.375000 0.500000 0.531250
v 0.375000 0.500000 0.468750
v 0.687500 0.500000 0.468750
v 0.687500 0.500000 0.531250
v 0.437500 0.437500 0.531250
v 0.437500 0.437500 0.468750
v 0.625000 0.437500 0.468750
v 0.625000 0.437500 0.531250
v 0.500000 0.437500 0.468750
v 0.500000 0.062500 0.468750
v 0.500000 0.062500 0.531250
v 0.500000 0.437500 0.531250
v 0.562500 0.437500 0.531250
v 0.562500 0.062500 0.531250
v 0.562500 0.062500 0.468750
v 0.562500 0.437500 0.468750
v 0.562500 0.375000 0.468750
v 0.562500 0.375000 0.531250
v 0.687500 0.375000 0.531250
v 0.687500 0.375000 0.468750
v 0.375000 0.312500 0.468750
v 0.375000 0.312500 0.531250
v 0.750000 0.312500 0.531250
v 0.750000 0.312500 0.468750
v 0.562500 0.250000 0.531250
v 0.562500 0.250000 0.468750
v 0.687500 0.250000 0.468750
v 0.687500 0.250000 0.531250
v 0.750000 0.187500 0.531250
v 0.750000 0.187500 0.468750
v 0.312500 0.250000 0.468750
v 0.312500 0.250000 0.531250
v 0.312500 0.125000 0.468750
v 0.312500 0.125000 0.531250
v 0.375000 0.187500 0.531250
v 0.375000 0.187500 0.468750
v 0.687500 0.187500 0.468750
v 0.687500 0.187500 0.531250
v 0.375000 0.125000 0.468750
v 0.375000 0.125000 0.531250
v 0.437500 0.062500 0.468750
v 0.437500 0.062500 0.531250
v 0.625000 0.062500 0.531250
v 0.625000 0.062500 0.468750
vn 0.000000 0.000000 -1.000000
vn 0.000000 0.000000 1.000000
vn 0.000000 1.000000 0.000000
vn -1.000000 0.000000 0.000000
vn 1.000000 0.000000 0.000000
vn 0.000000 -1.000000 0.000000
vt 0.109344 0.593719
vt 0.109344 0.578156
vt 0.093781 0.578156
vt 0.093781 0.593719
vt 0.093781 0.593719
vt 0.093781 0.578156
vt 0.109344 0.578156
vt 0.109344 0.593719
vt 0.100592 0.588865
vt 0.100592 0.587893
vt 0.103510 0.587893
vt 0.103510 0.588865
vt 0.101561 0.588846
vt 0.101561 0.578146
vt 0.100588 0.578146
vt 0.100588 0.588846
vt 0.103514 0.588846
vt 0.103514 0.578146
vt 0.102541 0.578146
vt 0.102541 0.588846
vt 0.099619 0.587889
vt 0.099619 0.586916
vt 0.104483 0.586916
vt 0.104483 0.587889
vt 0.100584 0.587879
vt 0.100584 0.582043
vt 0.099611 0.582043
vt 0.099611 0.587879
vt 0.104490 0.587881
vt 0.104490 0.583017
vt 0.103518 0.583017
vt 0.103518 0.587881
vt 0.099619 0.586912
vt 0.099619 0.585939
vt 0.104483 0.585939
vt 0.104483 0.586912
vt 0.100592 0.585936
vt 0.100592 0.584963
vt 0.103510 0.584963
vt 0.103510 0.585936
vt 0.102537 0.584949
vt 0.102537 0.579113
vt 0.101564 0.579113
vt 0.101564 0.584949
vt 0.102537 0.584949
vt 0.102537 0.579113
vt 0.101564 0.579113
vt 0.101564 0.584949
vt 0.102543 0.583982
vt 0.102543 0.583010
vt 0.104488 0.583010
vt 0.104488 0.583982
vt 0.099621 0.583006
vt 0.099621 0.582033
vt 0.105457 0.582033
vt 0.105457 0.583006
vt 0.102543 0.583006
vt 0.102543 0.582033
vt 0.104488 0.582033
vt 0.104488 0.583006
vt 0.105467 0.583004
vt 0.105467 0.581059
vt 0.104494 0.581059
vt 0.104494 0.583004
vt 0.098635 0.582029
vt 0.098635 0.581057
vt 0.099607 0.581057
vt 0.099607 0.582029
vt 0.099607 0.582027
vt 0.099607 0.580082
vt 0.098635 0.580082
vt 0.098635 0.582027
vt 0.099621 0.582029
vt 0.099621 0.581057
vt 0.105457 0.581057
vt 0.105457 0.582029
vt 0.105467 0.582029
vt 0.105467 0.581057
vt 0.104494 0.581057
vt 0.104494 0.582029
vt 0.098635 0.581053
vt 0.098635 0.580080
vt 0.099607 0.580080
vt 0.099607 0.581053
vt 0.099607 0.581053
vt 0.099607 0.580080
vt 0.098635 0.580080
vt 0.098635 0.581053
vt 0.100592 0.579100
vt 0.100592 0.578127
vt 0.103510 0.578127
vt 0.103510 0.579100
vt 0.100592 0.579100
vt 0.100592 0.578127
vt 0.103510 0.578127
vt 0.103510 0.579100
f 1/1/1 2/2/1 3/3/1 4/4/1
f 5/5/2 6/6/2 7/7/2 8/8/2
f 9/9/3 10/10/3 11/11/3 12/12/3
f 9/13/4 13/14/4 14/15/4 10/16/4
f 11/17/5 15/18/5 16/19/5 12/20/5
f 17/21/3 18/22/3 19/23/3 20/24/3
f 17/25/4 21/26/4 22/27/4 18/28/4
f 19/29/5 23/30/5 24/31/5 20/32/5
f 25/33/6 26/34/6 27/35/6 28/36/6
f 29/37/6 30/38/6 31/39/6 32/40/6
f 33/41/4 34/42/4 35/43/4 36/44/4
f 37/45/5 38/46/5 39/47/5 40/48/5
f 41/49/3 42/50/3 43/51/3 44/52/3
f 45/53/3 46/54/3 47/55/3 48/56/3
f 49/57/6 50/58/6 51/59/6 52/60/6
f 47/61/5 53/62/5 54/63/5 48/64/5
f 55/65/3 56/66/3 22/67/3 21/68/3
f 55/69/4 57/70/4 58/71/4 56/72/4
f 59/73/6 60/74/6 54/75/6 53/76/6
f 51/77/4 61/78/4 62/79/4 52/80/4
f 58/81/6 57/82/6 63/83/6 64/84/6
f 59/85/5 64/86/5 63/87/5 60/88/5
f 65/89/3 66/90/3 67/91/3 68/92/3
f 14/93/6 13/94/6 16/95/6 15/96/6
