v 1.000000 1.000000 0.468750
v 1.000000 0.000000 0.468750
v 0.000000 0.000000 0.468750
v 0.000000 1.000000 0.468750
v 0.000000 1.000000 0.531250
v 0.000000 0.000000 0.531250
v 1.000000 0.000000 0.531250
v 1.000000 1.000000 0.531250
v 0.812500 1.000000 0.468750
v 0.812500 1.000000 0.531250
v 0.812500 0.937500 0.468750
v 0.812500 0.937500 0.531250
v 1.000000 0.812500 0.531250
v 1.000000 0.812500 0.468750
v 0.750000 0.937500 0.468750
v 0.750000 0.937500 0.531250
v 0.750000 0.875000 0.468750
v 0.750000 0.875000 0.531250
v 0.687500 0.875000 0.468750
v 0.687500 0.875000 0.531250
v 0.687500 0.812500 0.468750
v 0.687500 0.812500 0.531250
v 0.937500 0.812500 0.531250
v 0.937500 0.812500 0.468750
v 0.625000 0.812500 0.468750
v 0.625000 0.812500 0.531250
v 0.625000 0.750000 0.468750
v 0.625000 0.750000 0.531250
v 0.875000 0.750000 0.531250
v 0.875000 0.750000 0.468750
v 0.937500 0.750000 0.468750
v 0.937500 0.750000 0.531250
v 0.562500 0.750000 0.468750
v 0.562500 0.750000 0.531250
v 0.562500 0.687500 0.468750
v 0.562500 0.687500 0.531250
v 0.812500 0.687500 0.531250
v 0.812500 0.687500 0.468750
v 0.875000 0.687500 0.468750
v 0.875000 0.687500 0.531250
v 0.500000 0.687500 0.468750
v 0.500000 0.687500 0.531250
v 0.500000 0.125000 0.468750
v 0.500000 0.125000 0.531250
v 0.750000 0.625000 0.531250
v 0.750000 0.625000 0.468750
v 0.812500 0.625000 0.468750
v 0.812500 0.625000 0.531250
v 0.125000 0.625000 0.468750
v 0.125000 0.625000 0.531250
v 0.500000 0.625000 0.531250
v 0.500000 0.625000 0.468750
v 0.125000 0.187500 0.468750
v 0.125000 0.187500 0.531250
v 0.250000 0.625000 0.531250
v 0.250000 0.125000 0.531250
v 0.250000 0.125000 0.468750
v 0.250000 0.625000 0.468750
v 0.437500 0.625000 0.468750
v 0.437500 0.562500 0.468750
v 0.437500 0.562500 0.531250
v 0.437500 0.625000 0.531250
v 0.687500 0.562500 0.531250
v 0.687500 0.562500 0.468750
v 0.750000 0.562500 0.468750
v 0.750000 0.562500 0.531250
v 0.125000 0.500000 0.531250
v 0.125000 0.500000 0.468750
v 0.687500 0.500000 0.468750
v 0.687500 0.500000 0.531250
v 0.250000 0.562500 0.468750
v 0.250000 0.562500 0.531250
v 0.312500 0.562500 0.531250
v 0.312500 0.187500 0.531250
v 0.312500 0.187500 0.468750
v 0.312500 0.562500 0.468750
v 0.375000 0.562500 0.468750
v 0.375000 0.187500 0.468750
v 0.375000 0.187500 0.531250
v 0.375000 0.562500 0.531250
v 0.187500 0.500000 0.468750
v 0.187500 0.250000 0.468750
v 0.187500 0.250000 0.531250
v 0.187500 0.500000 0.531250
v 0.312500 0.500000 0.468750
v 0.312500 0.500000 0.531250
v 0.375000 0.500000 0.531250
v 0.375000 0.500000 0.468750
v 0.562500 0.437500 0.531250
v 0.562500 0.437500 0.468750
v 0.625000 0.437500 0.468750
v 0.625000 0.437500 0.531250
v 0.625000 0.500000 0.531250
v 0.625000 0.125000 0.531250
v 0.625000 0.125000 0.468750
v 0.625000 0.500000 0.468750
v 0.187500 0.375000 0.531250
v 0.187500 0.375000 0.468750
v 0.562500 0.375000 0.468750
v 0.562500 0.375000 0.531250
v 0.562500 0.250000 0.531250
v 0.562500 0.250000 0.468750
v 0.250000 0.375000 0.468750
v 0.250000 0.312500 0.468750
v 0.250000 0.312500 0.531250
v 0.250000 0.375000 0.531250
v 0.500000 0.375000 0.531250
v 0.500000 0.312500 0.531250
v 0.500000 0.312500 0.468750
v 0.500000 0.375000 0.468750
v 0.187500 0.312500 0.468750
v 0.187500 0.312500 0.531250
v 0.562500 0.312500 0.531250
v 0.562500 0.312500 0.468750
v 0.312500 0.250000 0.531250
v 0.312500 0.250000 0.468750
v 0.375000 0.250000 0.468750
v 0.375000 0.250000 0.531250
v 0.125000 0.250000 0.468750
v 0.125000 0.250000 0.531250
v 0.625000 0.250000 0.531250
v 0.625000 0.250000 0.468750
v 0.250000 0.187500 0.531250
v 0.250000 0.187500 0.468750
v 0.500000 0.187500 0.468750
v 0.500000 0.187500 0.531250
v 0.000000 0.187500 0.468750
v 0.000000 0.187500 0.531250
v 0.187500 0.125000 0.531250
v 0.187500 0.125000 0.468750
v 0.187500 0.000000 0.531250
v 0.187500 0.000000 0.468750
vn 0.000000 0.000000 -1.000000
vn 0.000000 0.000000 1.000000
vn 0.000000 1.000000 0.000000
vn -1.000000 0.000000 0.000000
vn 1.000000 0.000000 0.000000
vn 0.000000 -1.000000 0.000000
vt 0.624969 0.687469
vt 0.624969 0.671906
vt 0.609406 0.671906
vt 0.609406 0.687469
vt 0.609406 0.687469
vt 0.609406 0.671906
vt 0.624969 0.671906
vt 0.624969 0.687469
vt 0.622076 0.687498
vt 0.622076 0.686525
vt 0.624994 0.686525
vt 0.624994 0.687498
vt 0.623045 0.687498
vt 0.623045 0.686525
vt 0.622072 0.686525
vt 0.622072 0.687498
vt 0.624998 0.687494
vt 0.624998 0.684576
vt 0.624025 0.684576
vt 0.624025 0.687494
vt 0.621096 0.686522
vt 0.621096 0.685549
vt 0.622068 0.685549
vt 0.622068 0.686522
vt 0.622068 0.686522
vt 0.622068 0.685549
vt 0.621096 0.685549
vt 0.621096 0.686522
vt 0.620119 0.685545
vt 0.620119 0.684572
vt 0.621092 0.684572
vt 0.621092 0.685545
vt 0.621092 0.685545
vt 0.621092 0.684572
vt 0.620119 0.684572
vt 0.620119 0.685545
vt 0.624025 0.685545
vt 0.624025 0.684572
vt 0.624998 0.684572
vt 0.624998 0.685545
vt 0.619143 0.684568
vt 0.619143 0.683596
vt 0.620115 0.683596
vt 0.620115 0.684568
vt 0.620115 0.684568
vt 0.620115 0.683596
vt 0.619143 0.683596
vt 0.619143 0.684568
vt 0.623049 0.684568
vt 0.623049 0.683596
vt 0.624022 0.683596
vt 0.624022 0.684568
vt 0.624022 0.684568
vt 0.624022 0.683596
vt 0.623049 0.683596
vt 0.623049 0.684568
vt 0.618166 0.683592
vt 0.618166 0.682619
vt 0.619139 0.682619
vt 0.619139 0.683592
vt 0.619139 0.683592
vt 0.619139 0.682619
vt 0.618166 0.682619
vt 0.618166 0.683592
vt 0.622072 0.683592
vt 0.622072 0.682619
vt 0.623045 0.682619
vt 0.623045 0.683592
vt 0.623045 0.683592
vt 0.623045 0.682619
vt 0.622072 0.682619
vt 0.622072 0.683592
vt 0.617189 0.682615
vt 0.617189 0.681643
vt 0.618162 0.681643
vt 0.618162 0.682615
vt 0.618162 0.682600
vt 0.618162 0.673845
vt 0.617189 0.673845
vt 0.617189 0.682600
vt 0.621096 0.682615
vt 0.621096 0.681643
vt 0.622068 0.681643
vt 0.622068 0.682615
vt 0.622068 0.682615
vt 0.622068 0.681643
vt 0.621096 0.681643
vt 0.621096 0.682615
vt 0.611340 0.681639
vt 0.611340 0.680666
vt 0.617176 0.680666
vt 0.617176 0.681639
vt 0.612303 0.681627
vt 0.612303 0.674818
vt 0.611330 0.674818
vt 0.611330 0.681627
vt 0.613279 0.681625
vt 0.613279 0.673843
vt 0.612307 0.673843
vt 0.612307 0.681625
vt 0.617186 0.681639
vt 0.617186 0.680666
vt 0.616213 0.680666
vt 0.616213 0.681639
vt 0.620119 0.681639
vt 0.620119 0.680666
vt 0.621092 0.680666
vt 0.621092 0.681639
vt 0.621092 0.681639
vt 0.621092 0.680666
vt 0.620119 0.680666
vt 0.620119 0.681639
vt 0.611345 0.680662
vt 0.611345 0.679689
vt 0.620100 0.679689
vt 0.620100 0.680662
vt 0.613287 0.680662
vt 0.613287 0.679689
vt 0.616205 0.679689
vt 0.616205 0.680662
vt 0.614256 0.680653
vt 0.614256 0.674816
vt 0.613283 0.674816
vt 0.613283 0.680653
vt 0.616209 0.680653
vt 0.616209 0.674816
vt 0.615236 0.674816
vt 0.615236 0.680653
vt 0.620115 0.680662
vt 0.620115 0.679689
vt 0.619143 0.679689
vt 0.619143 0.680662
vt 0.613279 0.679680
vt 0.613279 0.675789
vt 0.612307 0.675789
vt 0.612307 0.679680
vt 0.614260 0.679686
vt 0.614260 0.678713
vt 0.615232 0.678713
vt 0.615232 0.679686
vt 0.618166 0.679686
vt 0.618166 0.678713
vt 0.619139 0.678713
vt 0.619139 0.679686
vt 0.619139 0.679676
vt 0.619139 0.673840
vt 0.618166 0.673840
vt 0.618166 0.679676
vt 0.612316 0.678709
vt 0.612316 0.677736
vt 0.618153 0.677736
vt 0.618153 0.678709
vt 0.618162 0.678705
vt 0.618162 0.675787
vt 0.617189 0.675787
vt 0.617189 0.678705
vt 0.614256 0.677732
vt 0.614256 0.676760
vt 0.613283 0.676760
vt 0.613283 0.677732
vt 0.617186 0.677732
vt 0.617186 0.676760
vt 0.616213 0.676760
vt 0.616213 0.677732
vt 0.612316 0.676756
vt 0.612316 0.675783
vt 0.618153 0.675783
vt 0.618153 0.676756
vt 0.614260 0.676756
vt 0.614260 0.675783
vt 0.615232 0.675783
vt 0.615232 0.676756
vt 0.611343 0.675779
vt 0.611343 0.674807
vt 0.619125 0.674807
vt 0.619125 0.675779
vt 0.613289 0.675779
vt 0.613289 0.674807
vt 0.617180 0.674807
vt 0.617180 0.675779
vt 0.609379 0.674803
vt 0.609379 0.673830
vt 0.611324 0.673830
vt 0.611324 0.674803
vt 0.610350 0.674799
vt 0.610350 0.671881
vt 0.609377 0.671881
vt 0.609377 0.674799
vt 0.612318 0.674803
vt 0.612318 0.673830
vt 0.619127 0.673830
vt 0.619127 0.674803
vt 0.612303 0.673824
vt 0.612303 0.671879
vt 0.611330 0.671879
vt 0.611330 0.673824
vt 0.609381 0.672850
vt 0.609381 0.671877
vt 0.612299 0.671877
vt 0.612299 0.672850
f 1/1/1 2/2/1 3/3/1 4/4/1
f 5/5/2 6/6/2 7/7/2 8/8/2
f 9/9/3 10/10/3 8/11/3 1/12/3
f 9/13/4 11/14/4 12/15/4 10/16/4
f 8/17/5 13/18/5 14/19/5 1/20/5
f 15/21/3 16/22/3 12/23/3 11/24/3
f 15/25/4 17/26/4 18/27/4 16/28/4
f 19/29/3 20/30/3 18/31/3 17/32/3
f 19/33/4 21/34/4 22/35/4 20/36/4
f 23/37/6 24/38/6 14/39/6 13/40/6
f 25/41/3 26/42/3 22/43/3 21/44/3
f 25/45/4 27/46/4 28/47/4 26/48/4
f 29/49/6 30/50/6 31/51/6 32/52/6
f 23/53/5 32/54/5 31/55/5 24/56/5
f 33/57/3 34/58/3 28/59/3 27/60/3
f 33/61/4 35/62/4 36/63/4 34/64/4
f 37/65/6 38/66/6 39/67/6 40/68/6
f 29/69/5 40/70/5 39/71/5 30/72/5
f 41/73/3 42/74/3 36/75/3 35/76/3
f 41/77/4 43/78/4 44/79/4 42/80/4
f 45/81/6 46/82/6 47/83/6 48/84/6
f 37/85/5 48/86/5 47/87/5 38/88/5
f 49/89/3 50/90/3 51/91/3 52/92/3
f 49/93/4 53/94/4 54/95/4 50/96/4
f 55/97/5 56/98/5 57/99/5 58/100/5
f 59/101/4 60/102/4 61/103/4 62/104/4
f 63/105/6 64/106/6 65/107/6 66/108/6
f 45/109/5 66/110/5 65/111/5 46/112/5
f 67/113/6 68/114/6 69/115/6 70/116/6
f 71/117/3 72/118/3 61/119/3 60/120/3
f 73/121/5 74/122/5 75/123/5 76/124/5
f 77/125/4 78/126/4 79/127/4 80/128/4
f 63/129/5 70/130/5 69/131/5 64/132/5
f 81/133/4 82/134/4 83/135/4 84/136/4
f 85/137/3 86/138/3 87/139/3 88/140/3
f 89/141/6 90/142/6 91/143/6 92/144/6
f 93/145/5 94/146/5 95/147/5 96/148/5
f 97/149/6 98/150/6 99/151/6 100/152/6
f 89/153/5 101/154/5 102/155/5 90/156/5
f 103/157/4 104/158/4 105/159/4 106/160/4
f 107/161/5 108/162/5 109/163/5 110/164/5
f 111/165/3 112/166/3 113/167/3 114/168/3
f 115/169/6 116/170/6 117/171/6 118/172/6
f 119/173/3 120/174/3 121/175/3 122/176/3
f 123/177/6 124/178/6 125/179/6 126/180/6
f 127/181/3 128/182/3 54/183/3 53/184/3
f 127/185/4 3/186/4 6/187/4 128/188/4
f 129/189/6 130/190/6 95/191/6 94/192/6
f 129/193/5 131/194/5 132/195/5 130/196/5
f 6/197/6 3/198/6 132/199/6 131/200/6
