v 1.000000 1.000000 0.468750
v 1.000000 0.000000 0.468750
v 0.000000 0.000000 0.468750
v 0.000000 1.000000 0.468750
v 0.000000 1.000000 0.531250
v 0.000000 0.000000 0.531250
v 1.000000 0.000000 0.531250
v 1.000000 1.000000 0.531250
v 0.250000 0.937500 0.468750
v 0.250000 0.937500 0.531250
v 0.687500 0.937500 0.531250
v 0.687500 0.937500 0.468750
v 0.250000 0.125000 0.468750
v 0.250000 0.125000 0.531250
v 0.437500 0.937500 0.531250
v 0.437500 0.875000 0.531250
v 0.437500 0.875000 0.468750
v 0.437500 0.937500 0.468750
v 0.500000 0.937500 0.468750
v 0.500000 0.875000 0.468750
v 0.500000 0.875000 0.531250
v 0.500000 0.937500 0.531250
v 0.687500 0.062500 0.531250
v 0.687500 0.062500 0.468750
v 0.187500 0.875000 0.468750
v 0.187500 0.875000 0.531250
v 0.750000 0.875000 0.531250
v 0.750000 0.875000 0.468750
v 0.187500 0.187500 0.468750
v 0.187500 0.187500 0.531250
v 0.750000 0.187500 0.531250
v 0.750000 0.187500 0.468750
v 0.750000 0.812500 0.468750
v 0.750000 0.812500 0.531250
v 0.812500 0.812500 0.531250
v 0.812500 0.812500 0.468750
v 0.812500 0.750000 0.531250
v 0.812500 0.750000 0.468750
v 0.125000 0.750000 0.468750
v 0.125000 0.750000 0.531250
v 0.875000 0.750000 0.531250
v 0.875000 0.750000 0.468750
v 0.125000 0.250000 0.468750
v 0.125000 0.250000 0.531250
v 0.875000 0.250000 0.531250
v 0.875000 0.250000 0.468750
v 0.000000 0.687500 0.468750
v 0.000000 0.687500 0.531250
v 0.937500 0.687500 0.531250
v 0.937500 0.687500 0.468750
v 0.000000 0.375000 0.468750
v 0.000000 0.375000 0.531250
v 0.937500 0.437500 0.531250
v 0.937500 0.437500 0.468750
v 0.937500 0.625000 0.468750
v 0.937500 0.625000 0.531250
v 1.000000 0.625000 0.531250
v 1.000000 0.625000 0.468750
v 0.937500 0.562500 0.531250
v 0.937500 0.562500 0.468750
v 1.000000 0.562500 0.468750
v 1.000000 0.562500 0.531250
v 1.000000 0.312500 0.531250
v 1.000000 0.312500 0.468750
v 0.062500 0.375000 0.468750
v 0.062500 0.375000 0.531250
v 1.000000 0.437500 0.531250
v 1.000000 0.437500 0.468750
v 0.062500 0.312500 0.531250
v 0.062500 0.312500 0.468750
v 0.625000 0.125000 0.468750
v 0.625000 0.125000 0.531250
v 0.625000 0.187500 0.531250
v 0.625000 0.187500 0.468750
v 0.312500 0.062500 0.531250
v 0.312500 0.062500 0.468750
v 0.312500 0.125000 0.468750
v 0.312500 0.125000 0.531250
v 0.500000 0.125000 0.531250
v 0.500000 0.062500 0.531250
v 0.500000 0.062500 0.468750
v 0.500000 0.125000 0.468750
v 0.687500 0.125000 0.531250
v 0.687500 0.125000 0.468750
v 0.625000 0.062500 0.468750
v 0.625000 0.062500 0.531250
vn 0.000000 0.000000 -1.000000
vn 0.000000 0.000000 1.000000
vn 0.000000 1.000000 0.000000
vn -1.000000 0.000000 0.000000
vn 1.000000 0.000000 0.000000
vn 0.000000 -1.000000 0.000000
vt 0.624969 0.671844
vt 0.624969 0.656281
vt 0.609406 0.656281
vt 0.609406 0.671844
vt 0.609406 0.671844
vt 0.609406 0.656281
vt 0.624969 0.656281
vt 0.624969 0.671844
vt 0.613295 0.670897
vt 0.613295 0.669924
vt 0.620104 0.669924
vt 0.620104 0.670897
vt 0.614256 0.670874
vt 0.614256 0.658228
vt 0.613283 0.658228
vt 0.613283 0.670874
vt 0.616209 0.670897
vt 0.616209 0.669924
vt 0.615236 0.669924
vt 0.615236 0.670897
vt 0.618162 0.670897
vt 0.618162 0.669924
vt 0.617189 0.669924
vt 0.617189 0.670897
vt 0.620115 0.670872
vt 0.620115 0.657253
vt 0.619143 0.657253
vt 0.619143 0.670872
vt 0.612322 0.669920
vt 0.612322 0.668947
vt 0.621077 0.668947
vt 0.621077 0.669920
vt 0.613279 0.669901
vt 0.613279 0.659201
vt 0.612307 0.659201
vt 0.612307 0.669901
vt 0.621092 0.669901
vt 0.621092 0.659201
vt 0.620119 0.659201
vt 0.620119 0.669901
vt 0.621096 0.668943
vt 0.621096 0.667971
vt 0.622068 0.667971
vt 0.622068 0.668943
vt 0.622068 0.668943
vt 0.622068 0.667971
vt 0.621096 0.667971
vt 0.621096 0.668943
vt 0.611351 0.667967
vt 0.611351 0.666994
vt 0.623024 0.666994
vt 0.623024 0.667967
vt 0.612303 0.667953
vt 0.612303 0.660172
vt 0.611330 0.660172
vt 0.611330 0.667953
vt 0.623045 0.667953
vt 0.623045 0.660172
vt 0.622072 0.660172
vt 0.622072 0.667953
vt 0.609404 0.666990
vt 0.609404 0.666018
vt 0.623995 0.666018
vt 0.623995 0.666990
vt 0.610350 0.666983
vt 0.610350 0.662119
vt 0.609377 0.662119
vt 0.609377 0.666983
vt 0.624022 0.666985
vt 0.624022 0.663094
vt 0.623049 0.663094
vt 0.623049 0.666985
vt 0.624025 0.666014
vt 0.624025 0.665041
vt 0.624998 0.665041
vt 0.624998 0.666014
vt 0.624025 0.666014
vt 0.624025 0.665041
vt 0.624998 0.665041
vt 0.624998 0.666014
vt 0.624998 0.666006
vt 0.624998 0.661142
vt 0.624025 0.661142
vt 0.624025 0.666006
vt 0.609377 0.663084
vt 0.609377 0.662111
vt 0.610350 0.662111
vt 0.610350 0.663084
vt 0.624025 0.663084
vt 0.624025 0.662111
vt 0.624998 0.662111
vt 0.624998 0.663084
vt 0.610380 0.662107
vt 0.610380 0.661135
vt 0.624971 0.661135
vt 0.624971 0.662107
vt 0.611326 0.662107
vt 0.611326 0.661135
vt 0.610353 0.661135
vt 0.610353 0.662107
vt 0.611351 0.661131
vt 0.611351 0.660158
vt 0.623024 0.660158
vt 0.623024 0.661131
vt 0.612322 0.660154
vt 0.612322 0.659182
vt 0.621077 0.659182
vt 0.621077 0.660154
vt 0.613293 0.659178
vt 0.613293 0.658205
vt 0.619129 0.658205
vt 0.619129 0.659178
vt 0.619139 0.659178
vt 0.619139 0.658205
vt 0.618166 0.658205
vt 0.618166 0.659178
vt 0.614269 0.658201
vt 0.614269 0.657228
vt 0.620106 0.657228
vt 0.620106 0.658201
vt 0.615232 0.658201
vt 0.615232 0.657228
vt 0.614260 0.657228
vt 0.614260 0.658201
vt 0.617186 0.658201
vt 0.617186 0.657228
vt 0.616213 0.657228
vt 0.616213 0.658201
vt 0.619143 0.658201
vt 0.619143 0.657228
vt 0.620115 0.657228
vt 0.620115 0.658201
vt 0.620115 0.658201
vt 0.620115 0.657228
vt 0.619143 0.657228
vt 0.619143 0.658201
f 1/1/1 2/2/1 3/3/1 4/4/1
f 5/5/2 6/6/2 7/7/2 8/8/2
f 9/9/3 10/10/3 11/11/3 12/12/3
f 9/13/4 13/14/4 14/15/4 10/16/4
f 15/17/5 16/18/5 17/19/5 18/20/5
f 19/21/4 20/22/4 21/23/4 22/24/4
f 11/25/5 23/26/5 24/27/5 12/28/5
f 25/29/3 26/30/3 27/31/3 28/32/3
f 25/33/4 29/34/4 30/35/4 26/36/4
f 27/37/5 31/38/5 32/39/5 28/40/5
f 33/41/3 34/42/3 35/43/3 36/44/3
f 35/45/5 37/46/5 38/47/5 36/48/5
f 39/49/3 40/50/3 41/51/3 42/52/3
f 39/53/4 43/54/4 44/55/4 40/56/4
f 41/57/5 45/58/5 46/59/5 42/60/5
f 47/61/3 48/62/3 49/63/3 50/64/3
f 47/65/4 51/66/4 52/67/4 48/68/4
f 49/69/5 53/70/5 54/71/5 50/72/5
f 55/73/3 56/74/3 57/75/3 58/76/3
f 59/77/6 60/78/6 61/79/6 62/80/6
f 57/81/5 63/82/5 64/83/5 58/84/5
f 52/85/6 51/86/6 65/87/6 66/88/6
f 54/89/3 53/90/3 67/91/3 68/92/3
f 69/93/6 70/94/6 64/95/6 63/96/6
f 65/97/4 70/98/4 69/99/4 66/100/4
f 44/101/6 43/102/6 46/103/6 45/104/6
f 30/105/6 29/106/6 32/107/6 31/108/6
f 14/109/6 13/110/6 71/111/6 72/112/6
f 73/113/5 72/114/5 71/115/5 74/116/5
f 75/117/6 76/118/6 24/119/6 23/120/6
f 77/121/4 76/122/4 75/123/4 78/124/4
f 79/125/5 80/126/5 81/127/5 82/128/5
f 71/129/3 72/130/3 83/131/3 84/132/3
f 71/133/4 85/134/4 86/135/4 72/136/4
